<svg width="358" height="370" viewBox="0 0 358 370" fill="none" xmlns="http://www.w3.org/2000/svg">
<path d="M204.437 315.566L201.649 315.571L200.359 315.793L198.775 317.394L197.69 317.41L192.252 314.609L191.038 314.355L187.784 314.345L185.459 315.108L181.267 315.666L179.635 316.482L178.883 318.489L178.156 319.095L176.343 319.316L174.482 319.101L171.482 319.292L171.121 319.715L169.174 319.515L167.818 318.837L165.394 319.372L162.041 318.86L160.118 321.63L159.354 321.123L158.891 317.911L159.138 316.839L160.855 313.584L160.963 312.157L160.233 309.953L159.057 308.962L158.181 308.921L155.264 308.069L153.683 307.846L150.333 306.959L147.093 305.117L144.079 303.91L140.99 302.886L138.107 301.479L136.004 299.755L131.745 295.162L128.611 292.328L126.074 290.544L124.606 290.709L122.271 293.687L120.78 294.956L117.945 297.772L116.21 299.249L112.562 300.1L109.894 301.115L106.77 301.885L104.102 302.922L101.48 304.897L100.228 306.161L99.7164 308.281L99.7793 309.283L100.895 311.464L100.746 312.768L101.283 314.71L103.196 317.601L103.634 320.667L104.308 322.562L105.552 325.098L106.915 328.846L107.492 332.38L106.964 335.721L107.128 337.225L108.08 339.096L108.193 340.498L107.262 343.968L106.549 344.843L102.946 346.059L100.034 347.403L98.798 348.474L98.1927 353.687L97.2177 355.966L96.0436 358.029L95.0247 359.239L92.9021 360.265L89.8628 361.016L87.9881 362.803L86.7224 364.613L84.4599 364.817L83.1224 364.535L81.0425 364.781L79.5324 364.035L77.0276 363.336L75.3514 364.886L73.8587 365.451L72.0277 365.486L71.0746 365.869L70.3542 362.624L70.8115 361.913L70.1311 359.887L70.626 357.518L71.6906 355.234L71.6799 354.189L70.919 350.815L70.3832 349.348L68.8902 347.529L68.814 345.824L67.6267 344.963L65.5971 345.299L64.1381 343.501L64.0218 341.848L63.3821 340.136L65.0629 338.195L67.0402 337.694L68.5305 336.371L71.2283 336.48L70.926 335.08L68.5449 332.181L64.659 329.988L62.446 328.953L60.9264 328.871L56.1863 329.083L54.7832 329.584L52.5933 329.777L51.9991 329.089L47.7882 330.181L41.032 333.377L32.3473 337.019L30.7865 337.955L29.0499 339.475L26.6577 342.574L25.6843 344.17L24.4 344.872L23.5341 345.848L22.2258 346.346L19.4596 346.67L15.2105 346.603L13.8504 347.044L11.7135 347.199L6.73211 348.858L3.85666 348.487L3 347.083L3.11314 345.951L4.10601 344.645L3.08598 342.845L3.96527 339.937L5.01268 337.886L7.19709 337.325L7.97094 335.742L9.33218 334.277L11.2774 334.801L11.785 333.784L11.0914 332.23L9.64602 331.059L10.6593 328.396L10.1791 327.644L8.85679 327.953L7.44033 326.899L7.66412 325.984L6.30061 325.088L6.85407 323.634L8.70089 322.299L9.25978 319.688L9.05704 317.175L10.1954 314.443L14.4814 308.216L15.4277 305.895L15.7942 303.289L16.0271 300.004L16.5421 299.034L17.995 295.027L17.4388 292.871L15.4881 288.923L14.1807 286.726L11.9071 280.266L10.457 278.035L8.88462 276.298L11.0059 275.438L14.6274 272.497L16.4479 272.456L19.3324 271.697L20.8102 269.664L22.4421 267.907L24.4507 267.898L27.7121 268.745L28.7985 268.039L34.057 268.373L35.4911 269.283L37.5115 269.551L39.8672 269.28L41.5972 269.564L42.2971 269.164L45.7789 265.741L46.9399 265.684L49.0454 264.268L51.4871 264.797L52.4428 264.428L52.9461 262.645L54.7013 260.569L55.0581 256.591L56.6042 255.664L57.1395 254.249L58.6399 253.288L61.0047 253.242L62.4786 252.409L65.0445 252.13L67.464 251.604L67.7709 250.465L70.8771 249.742L74.6076 250.308L77.2113 252.033L78.2393 252.16L79.9322 251.435L82.6006 251.525L84.3382 250.368L85.5017 250.055L87.846 251.634L90.8975 252.518L94.1859 251.767L95.0564 252.396L96.9084 251.645L96.0056 250.021L98.2878 247.547L99.8474 245.566L99.8861 246.96L100.388 247.742L101.763 247.426L103.538 244.971L104.425 245.17L105.568 247.277L106.212 247.683L107.678 247.314L110.049 245.79L111.353 246.482L114.531 247.482L115.45 247.203L115.792 245.265L116.285 244.65L116.516 242.939L117.72 241.49L117.408 240.413L118.109 239.242L116.866 237.723L118.001 236.176L117.728 233.942L118.928 233.361L121.159 234.196L122.677 233.148L124.013 231.706L124.225 229.821L124.005 228.411L125.216 226.2L127.939 225.268L128.436 222.554L127.601 220.806L127.662 219.94L129.079 218.548L129.816 217.398L130.883 214.665L130.894 212.705L129.471 209.384L128.641 206.423L129.892 205.319L132.437 204.139L133.215 203.096L133.696 201.257L134.844 198.551L135.94 197.755L137.421 197.563L139.227 197.75L140.073 197.484L142.428 195.262L143.51 195.086L146.126 196.912L147.346 196.444L147.787 195.725L147.073 194.018L144.785 190.474L143.184 188.647L142.144 186.929L140.537 185.543L138.965 183.787L137.212 180.945L136.354 180.42L135.209 178.978L133.271 177.609L131.594 176.971L128.959 174.766L127.017 173.576L126.273 172.295L125.79 169.721L125.547 166.772L125.778 165.317L128.832 164.823L129.556 163.556L131.395 162.734L133.036 162.487L134.17 161.927L134.766 160.88L135.225 158.171L136.338 156.963L135.254 155.03L136.817 151.919L139.546 147.092L140.88 146.785L141.663 144.711L139.451 141.821L140.154 140.147L139.649 137.495L139.342 133.85L138.372 129.444L137.559 126.514L137.169 124.319L136.466 123.136L135.452 123.025L129.894 124.059L126.576 123.991L122.947 123.03L123.195 117.531L123.447 114.725L123.387 112.887L123.77 108.827L123.812 104.045L124.966 95.7693L125.057 94.1465L125.931 92.3366L125.659 91.346L124.378 90.6012L123.377 91.1008L121.749 90.5176L121.009 87.9965L120.274 87.0337L118.503 86.8987L117.83 85.4832L118.657 83.2873L118.538 82.1611L117.611 79.7973L118.26 78.7344L118.06 77.0822L118.623 75.2729L116.802 75.2483L114.507 75.7697L113.508 76.4062L111.64 75.929L110.807 76.5696L110.859 79.0209L109.931 79.7539L108.784 79.2246L104.962 79.1329L103.816 78.2944L99.4872 78.729L98.3122 78.6759L96.4427 75.7968L96.9641 72.6985L96.1748 70.4527L94.7742 68.3206L93.9379 68.3314L92.3825 69.6799L91.4286 69.4762L87.8139 66.4225L85.9974 64.0997L85.7356 63.0734L86.2852 61.8933L84.991 58.8888L83.2213 56.6593L83.0507 55.624L83.6779 52.7594L85.2978 50.7236L85.1914 49.3665L84.0734 46.6784L84.1827 45.1786L83.7675 43.4797L81.5752 40.2982L82.6436 37.77L82.843 36.5427L82.013 34.7338L82.3427 33.7855L83.7668 33.5541L85.6175 34.2442L86.0074 33.8436L85.9318 31.1186L85.6397 29.2275L86.4074 27.2749L88.8688 26.5887L90.7075 25.2914L91.6773 23.7757L93.1399 23.0187L95.3139 22.68L97.0921 23.0873L100.147 24.9244L101.338 25.1507L103.093 24.7578L104.487 25.187L106.555 25.0554L107.106 24.3132L107.451 22.0109L108.431 19.9161L108.581 18.4062L110.216 15.2346L111.206 14.3052L113.056 13.7032L113.962 12.8638L116.472 11.8904L120.342 10.9475L122.231 9.78105L123.418 8.13485L125.841 7.07914L127.16 6.19161L129.994 4.98456L131.505 4.6426L134.02 3.14367L135.653 3L135.844 4.41788L136.557 6.55938L138.739 8.40559L143.593 10.5664L145.465 11.5439L147.643 12.2672L149.476 12.4468L151.199 12.1945L154.704 13.1076L156.848 12.1191L159.512 9.71405L160.126 8.85158L160.397 7.20279L161.086 6.34501L161.294 3.37627L162.835 3.25365L163.211 4.74041L163.201 8.82349L164.672 10.3659L165.96 12.7873L167.709 13.1914L168.798 14.4427L169.913 18.5852L170.918 19.6533L175.1 20.4626L176.852 22.3639L178.959 22.6438L184.354 24.7508L186.744 26.1143L191.225 25.9826L194.43 27.2145L196.172 26.9032L197.468 27.2409L201.436 27.2084L202.994 26.3574L204.276 26.1849L205.284 25.5314L206.92 23.8659L210.245 23.0229L211.644 23.4168L213.274 24.3436L215.267 26.119L216.741 26.2642L220.411 26.2116L223.063 26.3466L223.216 27.9562L226.102 26.9382L227.436 26.9601L230.082 28.5866L231.365 30.5779L231.726 32.7728L232.651 34.1468L236.258 35.8136L237.826 36.0986L238.618 35.7411L240.488 35.7668L241.721 36.4163L243.163 38.1475L244.461 38.6261L248.025 38.757L251.515 40.5668L252.769 42.1398L253.807 42.4917L255.583 41.9246L258.545 43.1714L259.748 43.0402L260.141 41.7606L260.845 41.2951L265.045 42.2311L267.189 44.2278L268.216 46.1071L268.384 47.4776L270.725 49.6082L273.134 50.2553L276.944 51.9313L278.898 51.6294L283.999 49.7357L286.095 50.7064L287.297 52.5493L286.901 55.2974L287.732 56.6728L289.18 56.2121L288.912 57.4727L287.17 59.1235L285.216 60.1497L284.215 61.6098L285.712 63.3746L288.116 65.6446L289.922 67.0782L305.35 82.0739L307.083 82.7843L323.135 88.9382L335.081 88.809L335.149 92.964L336.222 95.7577L336.445 97.7015L337.382 98.359L337.909 99.7347L338.275 103.243L337.741 105.371L336.809 106.918L334.962 109.019L332.615 110.664L331.634 112.288L332.771 113.935L334.587 114.914L334.967 115.75L334.67 117.6L333.925 120.014L334.009 121.881L334.877 123.167L336.004 126.127L337.633 126.559L337.978 128.328L337.72 129.868L336.503 132.008L335.582 134.783L334.524 136.903L334.005 140.79L334.573 142.554L335.863 144.49L337.496 147.418L337.624 148.517L339.09 154.896L339.745 155.793L340.405 160.838L339.855 162.923L338.642 164.683L338.515 167.494L339.293 170.198L339.558 171.987L340.843 174.366L342.879 176.436L343.789 178.651L344.304 181.669L344.21 182.661L345.418 185.152L345.372 186.313L344.705 187.442L344.362 189.073L344.493 190.627L343.588 192.451L343.677 198.505L343.985 200.033L344.085 202.965L344.802 203.912L346.513 205.144L347.521 204.871L349.367 205.018L351.138 206.408L351.932 207.887L352.382 211.393L352.006 214.489L352.697 216.715L352.677 218.456L353.297 220.869L353.384 222.706L354.419 224.473L354.313 226.218L354.62 227.467L354.217 230.061L354.488 231.795L353.69 233.705L354.124 235.558L353.17 237.268L353.249 239.98L352.969 241.591L352.392 242.497L352.492 244.607L352.109 249.3L352.28 250.119L351.546 252.754L349.889 253.786L346.122 258.198L342.522 259.738L340.444 261.606L339.081 262.477L337.629 264.393L337.343 265.288L336.28 266.316L332.306 268.585L331.285 268.669L328.724 268.107L325.408 267.02L322.745 265.588L321.263 264.43L320.039 262.691L314.233 256.137L311.472 255.547L309.693 255.635L309.067 256.827L306.541 258.672L303.855 259.216L303.136 258.923L301.826 257.182L300.619 256.292L299.242 256.526L298.632 257.913L298.667 260.372L298.236 261.517L296.778 263.591L295.602 264.196L293.921 264.248L293.48 264.846L290.8 263.343L289.085 264.841L288.119 266.935L288.241 270.534L287.859 272.02L286.832 272.758L286.61 274.457L285.288 276.814L283.135 278.604L281.432 278.749L279.334 279.387L278.797 279.168L276.046 280.172L274.757 280.008L273.644 280.551L273.707 282.777L274.257 284.766L275.338 286.137L275.674 288.39L275.563 289.636L273.088 291.518L266.851 293.953L265.543 294.257L261.847 294.35L259.954 294.23L256.2 298.537L255.492 299.713L253.25 301.472L252.343 302.668L251.311 302.617L249.678 304.231L249.16 306.324L247.719 307.812L247.498 308.645L245.935 309.622L242.82 311.018L238.12 312.114L235.033 311.345L230.434 311.647L228.746 311.995L227.443 313.194L225.333 313.567L223.496 313.301L222.008 312.416L220.534 310.532L218.695 308.621L218.109 307.454L216.611 306.154L215.242 306.533L213.08 308.095L208.608 308.512L206.961 309.586L206.506 312.939L204.437 315.566Z" fill="#1E1E1E" stroke="white" stroke-width="5"/>
</svg>
