<svg width="196" height="268" viewBox="0 0 196 268" fill="none" xmlns="http://www.w3.org/2000/svg">
<path d="M169.641 29.0611L168.829 31.6911L169.242 34.2216L170.954 37.5586L172.367 40.7791L175.178 43.7305L175.605 44.7914L175.328 46.0197L172.745 49.0204L171.176 52.7316L171.182 54.5078L170.622 56.5352L170.815 59.3833L172.744 64.3391L172.662 65.993L171.867 67.4564L170.449 67.9568L167.301 68.1315L166.141 69.2938L164.876 69.9929L164.304 71.777L164.62 74.6797L165.929 77.1393L167.174 80.1207L167.255 82.2908L167.622 82.9612L171.839 85.0226L175.549 87.1826L177.186 89.614L178.229 91.5951L177.581 95.359L175.838 97.1606L172.186 98.1511L170.875 99.1263L170.731 100.567L171.926 104.391L170.885 105.613L168.775 106.176L167.446 107.05L164.381 108.463L163.346 109.7L162.928 111.091L163.173 113.605L164.151 114.48L166.064 115.097L168.391 114.855L169.374 114.062L172.496 112.657L174.579 112.355L176.305 113.653L178.069 116.151L177.29 118.224L176.717 121.269L175.108 124.107L172.024 126.159L169.824 128.509L167.634 129.914L166.076 131.752L165.819 134.497L166.303 136.586L166.828 137.352L167.706 140.295L169.821 143.757L172.099 146.4L172.799 147.782L175.47 151.694L175.699 154.471L173.883 156.543L173.749 157.606L174.643 158.185L177.459 158.07L179.161 158.473L180.459 159.634L181.765 161.974L182.459 164.175L184.149 165.424L187.084 166.051L189.34 167.381L191.44 169.131L192.146 170.268L192.55 171.895L191.978 174.537L191.542 175.143L190.368 179.17L188.635 183.763L187.978 184.918L184.431 189.591L183.366 190.538L181.543 191.099L178.268 190.558L174.857 191.145L173.38 192.119L173.09 194.688L173.21 197.698L174.378 199.167L178.843 202.44L182.315 204.58L183.654 206.188L184.952 209.372L187.046 211.908L189.469 215.565L189.901 217.593L189.364 219.377L187.839 220.898L186.181 221.163L178.499 220.584L176.313 220.332L173.528 220.659L170.062 222.544L166.777 225.679L163.53 229.89L162.011 230.717L159.498 230.06L157.733 228.054L157.003 227.592L154.003 228.224L153.032 228.859L153.357 230.655L152.962 232.198L153.149 233.447L154.018 234.222L155.29 236.549L157.035 238.133L157.482 239.615L158.791 241.499L161.254 244.461L161.244 245.813L160.108 248.112L157.288 251.099L156.136 251.976L150.574 252.253L147.888 251.008L146.711 249.321L145.167 248.524L143.141 245.995L142.457 244.293L142.237 242.497L142.52 239.412L141.883 238.66L140.453 239.874L138.855 242.602L138.087 244.916L137.863 246.558L137.756 250.299L137.234 255.432L136.333 258.981L132.156 246.516L128.794 245.066L120.278 237.684L118.907 237.066L116.898 234.699L114.966 234.147L113.832 233.447L113.337 232.385L113.079 228.788L111.7 226.337L111.834 224.807L110.448 223.034L106.995 221.415L105.18 221.116L103.804 217.575L102.855 216.241L102.658 213.125L103.303 211.853L103.924 208.994L104.647 207.302L104.468 203.436L104.662 202.311L105.592 201.113L105.701 200.223L104.306 198.112L103.407 197.32L103.191 195.522L101.379 194.971L100.857 194.28L99.2477 193.754L98.9912 192.034L97.4031 191.34L95.8147 192.013L95.3506 189.748L93.9942 190.487L91.9351 189.607L90.8112 188.167L89.1568 184.949L86.5461 181.976L83.2616 179.76L81.9821 176.754L80.6432 175.052L79.1367 172.095L77.6241 170.8L74.4989 169.355L71.3596 168.947L66.0141 162.784L63.3558 161.969L62.0111 160.581L60.6555 160.841L58.3023 157.742L55.6581 156.246L52.7927 153.439L51.174 153.521L49.7917 151.675L47.6446 150.783L44.9993 150.624L43.0549 150.751L38.4863 150.284L37.8316 149.708L37.7849 148.403L39.4062 146.355L41.1158 145.689L41.6424 143.613L39.4092 140.578L37.0325 138.046L34.751 137.269L33.6461 137.704L31.2754 136.637L30.3772 137.629L29.1474 137.6L27.3325 138.111L25.1922 137.71L24.6169 138.057L20.7416 136.641L19.6302 135.724L18.3071 135.668L17.3452 136.676L16.0971 135.346L15.4848 135.246L13.7071 136.381L12.9136 135.637L12.5017 133.926L11.2229 133.605L8.55417 132.289L7.67774 130.782L5.99546 130.31L5.45637 128.77L5.52253 125.331L5.03847 120.455L3.87833 118.552L3.39844 117.123L4.44133 115.928L7.88391 118.843L9.34052 118.818L12.475 118.162L13.3289 117.278L13.26 113.04L11.6074 107.754L12.4787 106.224L14.0681 104.398L15.2884 103.556L15.5819 102.77L14.8273 101.134L14.9306 98.5025L14.5638 97.5074L15.4941 95.8124L16.6977 95.0846L18.3289 94.7327L21.3842 94.5592L23.9687 95.9569L25.0536 95.9731L25.3266 93.3251L25.8697 92.2392L28.8556 92.202L31.5592 92.8706L33.7202 89.7742L34.0872 88.3726L33.1191 85.9134L33.1281 81.5918L32.8033 80.6748L33.7812 80.2826L35.6599 80.246L37.1915 79.6666L38.9114 78.0762L41.4815 78.7938L43.031 79.5593L45.1651 79.306L46.5374 79.5955L48.8589 79.3867L50.1576 77.5295L52.0811 75.6956L55.1996 74.9254L57.3775 73.8728L58.423 72.6305L59.6277 70.514L60.6281 68.1752L61.2492 62.8271L62.517 61.7275L65.5057 60.3485L69.2018 59.1012L69.9336 58.2035L70.8892 54.6426L70.7731 53.204L69.7966 51.2843L69.6276 49.7415L70.1695 46.3137L69.5777 42.6872L68.1796 38.8411L66.9024 36.2393L66.2115 34.2951L65.7613 31.1496L63.7993 28.1826L63.2483 26.1903L63.4004 24.8525L62.2561 22.6143L62.1915 21.586L62.7169 19.4105L64.0008 18.114L66.6914 16.0874L69.4291 15.0232L72.6342 14.2334L75.3721 13.1924L79.1144 12.3189L80.8956 10.8033L83.804 7.91356L85.3339 6.61222L87.7294 3.55589L89.2362 3.38672L91.839 5.21792L95.0548 8.1254L99.4244 12.8377L101.583 14.607L104.541 16.0502L107.71 17.1013L110.802 18.3394L114.127 20.23L117.564 21.1397L119.186 21.3692L122.179 22.2424L123.078 22.2851L124.285 23.3023L125.035 25.5635L124.924 27.028L123.162 30.367L122.908 31.4675L123.383 34.7629L124.167 35.2832L126.14 32.4414L129.581 32.9661L132.068 32.4172L133.459 33.1132L135.457 33.3186L135.828 32.8847L138.906 32.6887L140.815 32.9092L142.675 32.6823L143.421 32.0608L144.193 30.0013L145.867 29.1635L150.168 28.5908L152.554 27.8088L155.893 27.8181L157.138 28.0793L162.719 30.9532L163.831 30.9365L165.456 29.2945L166.78 29.0661L169.641 29.0611Z" fill="#1E1E1E" stroke="white" stroke-width="5"/>
</svg>
