<svg width="389" height="210" viewBox="0 0 389 210" fill="none" xmlns="http://www.w3.org/2000/svg">
<path d="M370.227 21.7837L370.423 25.6304L371.118 28.0187L371.262 31.1444L369.774 35.1666L369.909 36.6105L372.27 39.1176L373.165 40.8501L374.138 45.8917L373.983 49.1388L373.5 50.9914L373.282 54.1759L374.076 55.5112L376.714 57.6713L380.078 59.0472L383.088 60.7777L385.734 61.2536L385.872 63.8416L385.736 65.9131L385.009 67.7179L384.039 68.8945L383.425 72.0119L379.72 74.8985L379.101 76.4942L378.803 79.0211L375.666 83.6735L373.964 85.783L373.576 87.0374L369.84 90.2769L366.834 91.4168L366.025 90.7996L365.381 89.1063L364.295 87.8982L359.381 85.1599L357.074 82.1555L355.514 81.0757L352.428 81.5105L349.856 82.8613L347.626 83.77L343.455 83.7931L338.136 82.3921L335.917 82.4032L329.901 83.8929L326.685 84.5304L324.657 85.1733L322.975 86.1949L321.386 88.8636L321.234 90.6064L322.599 95.3587L323.692 97.1549L323.465 98.7836L321.557 100.267L320.579 101.908L320.631 102.783L318.465 104.245L317.692 105.111L317.278 107.367L318.848 111.429L321.478 114.546L321.569 115.295L320.54 116.688L318.97 117.372L316.051 117.517L312.004 116.155L309.627 116.42L309.152 118.645L307.382 119.828L303.994 121.421L301.391 124.079L298.011 125.752L294.17 128.907L292.561 129.638L290.099 132.324L288.299 133.262L286.715 134.877L285.377 136.739L282.508 138.722L279.788 138.201L278.786 138.288L276.424 140.191L272.082 141.666L271.386 142.758L271.053 148.092L270.78 149.595L269.861 151.912L268.974 153.117L265.878 155.589L265.113 157.385L262.475 159.631L259.992 160.794L257.989 162.23L254.812 163.974L251.343 166.893L250.407 168.424L250.871 171.396L247.962 172.383L245.159 174.125L243.725 174.064L243.493 172.232L242.63 168.909L241.348 167.619L238.093 165.784L235.382 164.977L234.59 164.333L233.088 161.968L231.467 158.138L230.705 157.583L224.911 159.695L220.022 162.015L218.553 162.502L217.618 164.079L217.6 165.178L218.394 165.941L220.426 166.48L221.144 167.204L221.266 170.255L222.549 173.42L224.538 173.726L224.947 176.923L225.792 180.003L226.193 180.529L229.822 182.559L229.427 183.837L227.793 185.3L225.234 186.864L221.957 192.976L216.852 200.181L212.698 206.209L211.989 206.91L210.686 206.94L209.797 204.802L208.369 203.355L207.418 199.615L206.558 197.972L205.314 196.483L204.398 194.514L202.532 193.639L201.308 193.472L200.788 192.67L201.727 189.401L203.3 187.806L203.466 186.361L202.859 183.917L201.762 182.49L198.036 178.573L195.302 176.016L194.049 175.368L192.101 175.685L190.874 178.659L188.114 179.718L185.624 178.04L183.852 177.134L181.761 177.272L180.787 178.628L178.89 179.657L177.926 181.175L176.198 182.775L175.9 186.316L173.948 187.744L173.069 189.422L171.318 191.079L172.023 192.735L171.598 193.846L170.046 194.926L170.218 196.289L168.923 196.018L166.438 196.126L164.928 195.336L163.861 194.324L161.507 193.55L158.891 192.138L156.274 191.461L156.389 189.198L155.612 188.281L155.248 185.038L151.705 183.741L148.379 184.69L144.724 184.73L141.878 185.384L138.753 185.411L135.109 186.084L134.029 185.211L133.204 183.217L132.391 182.369L128.826 181.489L127.041 180.051L123.261 175.194L121.929 173.749L120.955 173.39L114.474 172.975L113.071 171.668L111.732 168.329L110.878 167.488L108.607 167.523L106.919 166.788L105.811 165.704L104.225 165.303L101.139 165.287L98.8842 165.517L97.2241 164.939L94.2842 164.899L92.563 163.253L89.2461 162.304L88.0326 161.188L86.6108 157.759L86.4529 156.394L86.8499 153.417L86.5582 149.911L85.4851 148.661L82.677 147.33L79.1314 147.126L76.2199 146.297L73.2918 143.841L70.4887 141.788L67.4259 138.59L66.2381 137.719L65.1432 136.116L63.8567 132.792L64.0035 131.578L66.0232 128.105L66.2287 125.328L64.6004 122.678L64.7897 120.188L64.1601 118.41L63.3299 117.541L61.5414 117.367L58.784 121.36L56.7773 123.554L55.144 125.862L50.3736 128.417L46.5636 132.229L44.6694 133.164L42.0907 133.226L40.1797 132.925L38.2832 133.263L36.4687 135.061L34.4599 137.679L32.4783 138.438L28.7539 138.69L26.1582 137.483L23.0401 135.382L20.1753 133.976L18.5573 134.05L16.1436 135.753L15.2133 135.974L13.1794 135.525L10.7902 133.844L7.80829 131.187L6.42922 129.014L6.89042 125.73L6.21493 123.399L4.72233 121.859L4.64815 120.996L5.55291 119.094L5.61594 117.72L3.58645 112.578L3.16797 110.441L3.88177 107.583L4.25323 105.021L5.79715 103.883L6.79279 101.722L10.1029 100.633L12.5917 98.974L13.7179 96.8546L14.024 95.6294L12.3726 93.3305L10.0438 91.4005L9.53956 90.606L8.51431 87.7187L8.52035 84.6666L9.60364 81.0603L10.5387 77.3272L10.7682 75.0447L10.3069 71.6496L9.75745 69.2711L10.0257 66.8565L9.65913 62.8681L8.42168 58.9022L7.40247 57.0817L6.37315 53.345L5.96616 48.7451L6.73139 45.1655L7.94399 44.8471L9.81259 44.9179L12.0435 44.432L13.7023 46.1073L16.468 46.3043L18.4147 46.0426L20.4621 44.8702L24.3334 44.4505L25.9165 44.6399L28.0983 45.4998L31.1829 45.9599L31.4282 44.8414L34.3106 45.001L36.3418 46.0234L38.6769 46.4873L41.7702 47.7518L42.9286 47.6693L43.9427 48.338L44.9597 48.183L48.6282 49.0579L51.0559 48.8893L52.2609 49.3529L54.4832 49.6846L57.4873 48.0766L58.6229 48.0749L62.6979 49.2353L65.2646 50.6161L68.59 50.9789L70.3938 50.8299L73.5688 51.3979L76.8836 51.0149L79.2674 49.3038L80.2238 49.0444L81.2671 49.6765L83.2129 49.8067L86.5718 50.8742L88.6637 52.0156L90.7173 53.5866L93.0479 53.6417L94.6034 54.9923L96.8111 55.026L100.07 56.1356L102.852 57.5136L104.937 57.6319L106.558 58.1271L107.678 57.9838L111.266 58.536L114.173 59.3872L117.935 59.6921L119.411 59.4598L121.509 58.6664L123.267 57.5303L125.531 57.196L127.962 57.4979L131.46 57.5149L132.757 57.7482L136.563 57.4479L138.141 57.7587L139.931 57.2037L141.712 57.1666L145.516 56.3666L148.93 57.2496L151.06 56.9865L152.241 57.2214L154.196 58.3273L155.066 58.305L156.724 56.8566L158.795 56.254L163.629 56.0125L164.565 55.0487L166.886 54.121L168.409 52.3969L171.348 51.2866L174.658 48.1481L176.261 47.2101L176.032 45.5331L177.328 42.3125L178.537 40.7345L179.108 38.7616L178.297 36.0371L178.039 32.75L177.174 29.8715L176.745 27.6099L177.629 26.4695L179.481 24.9688L179.709 21.8777L183.256 21.8155L184.604 21.2948L185.269 19.1553L185.986 18.7172L187.623 18.9264L190.141 18.0898L191.74 18.0449L192.335 16.8271L195.221 14.7149L195.133 13.5143L198.232 11.9812L200.085 9.92369L201.322 9.69901L201.859 8.53333L202.986 8.40686L204.357 7.00272L206.244 7.16477L209.119 6.13766L211.344 6.14849L213.232 6.47958L215.496 6.15852L217.134 6.71487L218.154 7.50206L221.427 6.8731L223.646 6.83027L225.095 9.7996L225.846 11.9648L227.936 18.9109L228.742 20.3493L230.202 24.7803L231.054 26.1555L232.009 29.7237L236.032 28.6012L238.203 27.1236L238.504 26.3605L240.01 24.9308L240.476 23.2198L241.487 21.9996L244.02 20.145L245.751 19.2945L249.041 18.6332L251.145 17.6459L251.374 16.3085L252.837 15.7004L253.665 13.7439L256.986 11.5527L259.031 11.8934L260.134 9.99802L261.019 7.58074L261.995 6.16683L267.438 6.02156L269.89 7.61852L271.263 7.91267L274.032 6.28136L274.725 5.64186L276.819 4.77024L280.347 2.83984L282.931 3.61581L285.204 3.99055L288.296 4.81801L291.707 4.76276L294.057 5.8297L296.739 6.23406L299.82 7.57442L302.349 7.96572L304.515 7.32957L305.64 6.67664L308.279 6.34399L309.651 5.69554L310.991 6.44873L314.209 5.97305L315.989 5.31961L317.944 4.09607L321.25 3.54034L322.875 3.67459L325.054 4.96725L326.712 5.47619L327.124 6.34927L326.976 8.42664L328.294 10.5821L330.043 10.9763L330.908 11.5582L332.96 14.242L334.018 14.9774L335.411 15.305L337.702 14.9702L340.56 14.075L347.452 13.1032L349.645 13.476L351.847 14.85L354.339 17.1981L355.655 18.1646L357.353 21.1201L361.932 19.5692L364.056 21.3589L366.055 22.2912L368.36 21.5489L370.227 21.7837Z" fill="#1E1E1E" stroke="white" stroke-width="5"/>
</svg>
