<svg width="390" height="279" viewBox="0 0 390 279" fill="none" xmlns="http://www.w3.org/2000/svg">
<path d="M138.1 184.993L136.605 184.46L137.227 183.605L138.1 184.993ZM349.864 151.432L348.142 151.182L348.417 150.355L349.435 150.198L349.864 151.432ZM9.76877 109.158L8.45331 113.03L8.11248 115.143L8.79157 117.335L8.82245 118.577L8.03401 119.92L7.36676 119.225L5.80265 116.169L4.81641 115.324L5.56956 113.898L5.65685 112.595L6.38307 111.614L7.3591 111.789L7.66115 110.467L8.415 109.808L7.67647 108.903L7.60241 107.78L8.37274 107.441L9.50015 105.704L10.833 106.602L10.7782 107.459L9.76877 109.158ZM299.45 60.2784L300.86 61.1265L299.104 61.9883L298.152 61.3014L298.28 60.1262L299.45 60.2784ZM299.191 50.4757L300.611 51.5502L301.63 52.8625L302.845 53.0931L300.538 54.7752L299.712 54.9242L299.498 56.1113L297.836 56.0603L297.609 53.3077L298.115 52.2315L297.928 50.8647L299.191 50.4757ZM305.655 51.5968L303.314 51.4896L303.584 50.3412L304.599 49.7283L305.655 51.5968ZM159.495 39.4994L158.541 40.0772L156.375 38.1571L156.772 37.3741L158.069 37.0419L159.365 38.7181L159.495 39.4994ZM254.559 6.8905L256.431 7.5949L258.123 7.79689L260.171 10.1253L260.917 10.6314L264.418 9.2764L265.865 9.87844L265.912 11.313L265.408 13.3108L263.133 15.3675L261.679 15.2976L261.032 15.8498L261.319 18.5951L260.445 19.7879L259.617 20.1666L259.919 21.665L259.247 23.2981L257.461 24.6643L258.518 27.0637L260.944 29.6454L264.091 29.0335L265.757 30.1705L265.147 31.6047L266.855 33.8157L268.143 34.3421L270.098 33.1554L273.619 32.1965L274.136 31.7125L276.51 32.1451L278.615 32.1156L280.581 32.6892L282.569 31.8158L283.141 33.4703L284.818 32.9063L286.258 33.6346L288.072 35.5003L289.165 35.3554L290.531 36.0246L292.922 36.6073L293.861 38.3207L292.866 39.6926L294.017 40.6365L292.842 41.6603L292.058 41.0267L290.413 44.2949L289.54 45.1152L288.024 45.0227L286.571 46.8173L287.096 48.6481L290.109 49.0615L290.338 49.6856L284.291 52.1799L284.605 53.0924L283.184 53.6005L283.334 54.6231L281.84 54.9375L281.039 56.1233L281.039 59.9312L280.594 61.0435L278.763 60.8913L277.74 62.6949L276.453 64.0107L276.077 64.9763L276.104 67.1311L275.823 68.4712L271.99 70.8519L271.056 73.256L271.276 75.0756L272.359 77.8052L273.281 79.5635L274.931 79.5818L277.976 81.4629L281.205 82.7281L282.437 82.5467L284.705 83.4919L285.409 84.2547L287.015 87.1732L288.391 87.9743L289.617 88.1562L292.164 90.1392L294.017 90.0492L295.744 90.5368L297.692 92.4209L297.678 93.1357L296.335 94.4666L297.419 96.2154L299.136 96.3968L302.679 97.5092L303.758 99.0006L305.714 98.462L307.243 98.9133L307.065 101.194L309.881 103.334L311.978 105.912L312.767 106.195L315.229 106.266L316.599 106.898L316.844 107.975L318.34 107.879L320.559 110.973L319.58 111.401L318.071 113.184L318.63 114.65L319.934 116.028L320.859 116.36L322.876 116.05L323.834 116.317L324.651 118.151L323.522 119.527L325.205 122.091L326.248 122.658L325.333 124.735L325.9 126.931L326.54 127.433L327.648 129.366L328.023 131.554L328.709 132.122L330.362 135.046L331.766 136.033L332.252 137.194L334.088 138.61L334.723 139.449L338.545 141.284L339.421 141.243L341.239 140.447L341.687 141.396L344.839 141.565L346.104 142.86L347.804 141.947L348.942 142.565L348.744 143.773L349.772 143.879L350.29 146.449L346.483 147.336L345.734 149.091L346.506 152.758L345.58 156.145L346.249 156.745L346.361 158.181L344.996 158.892L345.168 160.599L345.684 161.386L347.38 162.227L348.587 163.688L350.142 163.398L351.129 163.712L351.613 162.882L353.119 162.298L353.902 162.687L354.226 164.481L353.661 165.526L354.537 166.61L354.511 168.231L353.971 169.054L354.282 169.993L353.8 171.39L354.558 172.378L355.098 174.788L356.222 175.824L357.051 178.34L358.189 178.744L359.52 178.053L361.862 178.255L363.1 179.148L363.317 180.645L362.345 180.955L361.396 182.003L361.382 183.699L359.584 184.154L358.817 182.891L357.744 183.915L358.103 185.591L357.54 187.389L358.551 189.449L359.532 189.717L360.413 191.711L362.638 192.616L363.16 194.316L367.213 197.356L368.6 198.681L369.816 201.322L373.082 203.562L376.026 205.83L377.987 208.345L379.78 212.582L380.071 213.97L380.693 214.683L383.192 219.682L385.185 221.257L385.475 227.717L386.097 230.43L386.888 232.095L386.894 234.868L385.923 238.089L385.597 240.769L384.741 241.582L382.873 244.837L376.807 244.833L375.869 245.206L373.791 244.679L370.667 241.759L368.437 241.163L365.901 239.894L363.821 239.683L361.774 238.706L359.541 238.83L357.986 239.558L358.411 241.227L357.256 242.321L356.753 241.448L355.566 242.015L354.097 240.26L352.337 239.3L351.319 239.972L351.159 242.556L350.062 243.197L348.788 242.074L348.458 240.308L349.328 238.942L348.009 237.669L347.13 234.051L347.116 232.337L345.639 232.158L344.502 232.909L344.096 231.768L343.166 231.633L342.181 229.013L342.006 227.838L340.823 226.32L342.239 226.265L343.793 225.671L344.299 224.899L344.262 223.207L345.602 222.538L345.825 221.875L344.325 220.602L343.609 220.451L341.415 221.607L339.695 221.605L337.73 220.697L336.411 219.278L336.817 217.049L336.65 215.411L336.855 213.754L338.906 211.93L339.492 210.868L340.401 210.716L341.947 211.978L343.749 210.476L344.925 209.994L346.52 210.311L345.628 208.14L345.306 204.718L345.394 202.961L344.653 200.9L344.643 198.454L342.1 195.587L340.129 194.507L337.732 191.845L336.682 188.259L335.971 187.017L334.434 186.099L331.588 180.088L329.959 179.359L328.77 178.01L327.865 177.535L326.304 175.786L324.231 174.622L319.751 174.752L316.605 175.297L312.85 176.383L308.736 178.418L305.861 180.889L304.035 182.04L302.839 183.418L302.294 185.629L303.533 190.043L305.333 192.312L305.668 194.767L306.014 195.326L306.273 198.045L308.309 200.138L309.421 200.472L310.649 200.277L311.218 202.55L312.411 203.521L312.665 205.087L313.296 205.325L313.961 206.894L315.19 207.915L316.587 208.426L320.527 209.15L322.204 209.923L324.046 210.395L326.347 211.784L327.475 215.394L327.465 216.724L328.021 217.358L330.587 218.465L331.067 219.694L331.961 220.312L333.079 222.414L334.393 223.724L335.255 226.449L336.181 227.331L337.39 229.416L339.474 232.387L343.706 235.324L344.608 235.482L346.219 238.142L346.868 240.277L347.114 242.959L345.826 243.555L345.776 244.627L347.484 245.874L348.807 246.149L349.311 248.117L348.47 249.429L350.344 250L351.826 247.894L352.097 248.954L351.333 250.561L349.754 251.889L349.552 253.88L348.432 254.604L348.521 256.082L350.022 256.84L352.239 256.626L351.26 258.506L350.426 258.537L346.834 262.268L344.718 263.948L344.18 265.549L342.387 265.685L340.783 267.791L339.835 267.953L338.737 268.866L338.453 266.915L337.432 267.29L336.777 266.33L337.986 264.553L337.672 262.817L335.791 263.988L334.183 265.477L333.343 264.383L332.651 265.231L333.099 265.976L333.392 268.447L332.063 269.311L330.772 269.438L330.056 268.763L330.622 266.913L328.557 265.036L326.819 265.832L325.303 265.486L325.183 267.437L323.247 266.507L321.756 266.363L320.574 268.153L318.755 269.201L317.596 268.554L314.651 268.544L312.492 269.385L310.586 269.828L310.046 270.311L308.528 269.88L307.669 270.589L304.931 270.365L303.851 271.758L300.888 271.62L300.388 271.368L298.686 272.243L297.451 272.241L297.104 273.21L295.432 273.791L294.497 273.491L290.302 274.674L288.962 273.327L286.755 272.847L284.146 272.931L283.596 273.503L282.152 273.478L280.944 274.233L280.704 273.245L278.646 271.37L273.94 268.962L266.773 266.477L266.134 266.709L264.908 265.823L263.423 265.352L260.596 264.946L259.024 266.169L255.641 265.514L253.665 265.774L252.679 265.136L250.95 265.726L250.191 265.463L248.356 265.758L246.136 265.185L245.071 264.554L244.678 263.545L243.43 263.089L242.358 261.299L238.155 258.103L235.583 257.413L234.791 255.487L232.611 254.656L232.181 254.176L229.772 253.914L229.126 253.362L228.954 252.141L226.433 249.768L222.029 247.845L217.454 246.244L216.071 245.508L211.453 243.66L209.521 243.205L208.105 242.328L205.166 241.333L197.576 239.59L196.242 239.465L190.943 238.378L185.46 238.122L182.843 238.178L179.456 238.673L175.159 239.738L171.532 242.88L170.062 244.515L170.321 246.35L168.999 247.184L168.758 245.073L168.032 244.589L168.059 242.967L168.507 242.475L167.786 241.287L166.422 240.779L165.891 240.068L163.949 239.086L162.137 237.812L160.425 235.862L158.565 234.724L157.975 233.325L156.106 231.458L155.495 229.521L156.162 228.052L155.36 226.227L153.593 223.75L152.073 223.954L151.555 221.032L148.595 218.147L146.897 215.194L146.262 212.635L145.536 211.265L144.017 210.044L141.814 207.56L140.59 206.764L139.733 205.605L137.168 204.329L135.339 204.669L134.162 204.533L133.09 205.166L131.071 205.253L128.22 204.119L127.976 202.852L128.291 199.869L130.278 199.512L130.761 198.505L133.75 198.612L134.823 197.673L135.391 195.475L136.96 194.253L137.282 192.756L138.365 190.335L139.224 190.335L141.503 191.402L142.619 191.294L142.733 189.8L144.088 189.498L146.513 192.018L149.055 194.176L150.255 194.874L152.499 195.299L155.562 193.336L156.511 191.522L157.927 189.853L161.799 190.685L163.323 189.417L165.795 188.655L166.844 187.674L167.891 187.49L169.085 186.337L169.986 181.229L170.647 179.995L173.748 175.33L175.753 173.396L176.423 172.345L178.521 170.268L179.413 169.878L182.64 169.972L186.492 168.596L188.134 165.601L189.937 165.66L192.814 166.958L195.13 167.245L195.785 166.906L198.055 163.607L200.112 161.988L201.669 161.506L203.222 160.489L207.047 160.116L208.165 159.411L208.93 158.304L209.001 155.047L210.699 154.451L213.811 154.868L217.396 154.149L218.358 153.132L219.847 152.54L221.025 151.586L222.532 152.105L223.825 152.004L224.038 150.456L226.315 148.52L226.184 145.979L225.632 145.473L225.026 143.617L225.802 142.991L227.215 143.977L228.852 143.032L228.62 141.246L228.757 138.455L230.179 137.896L231.085 136.855L230.627 135.484L230.858 133.991L229.686 131.778L225.182 126.459L221.606 124.322L220.03 124.147L216.256 122.08L213.367 120.754L210.167 119.674L206.537 118.908L204.818 118.793L200.871 119.395L198.334 120.227L195.543 121.491L193.986 121.655L192.372 120.519L190.799 119.831L185.713 118.815L184.22 119.147L182.975 120.301L182.133 119.809L181.104 121.042L182.069 121.847L180.642 122.859L179.5 123.194L176.905 124.902L173.597 124.294L171.512 124.438L169.458 125.006L168.534 126.434L167.25 127.324L167.215 129.464L166.158 131.034L165.572 132.68L164.323 132.744L163.178 133.54L162.861 134.72L162.655 137.976L162.71 142.475L162.921 144.431L163.46 146.09L162.856 148.899L161.994 150.592L160.542 151.255L158.861 151.443L157.895 152.11L156.231 152.276L155.984 153.6L155.157 154.699L153.822 157.425L153.655 161.195L151.935 162.607L150.448 161.075L148.4 161.25L147.32 162.137L146.533 164.767L145.624 165.701L145.959 167.271L145.323 169.854L144.162 170.033L143.854 172.537L143.005 173.993L142.739 176.665L143.132 179.238L142.885 181.415L141.968 183.688L140.768 183.545L139.342 181.623L138.389 180.822L138.413 179.727L137.596 178.918L135.729 179.421L134.449 179.228L133.505 180.072L133.886 181.695L131.984 183.281L129.452 184.392L129.643 185.804L131.201 186.954L128.946 188.932L128.606 191.222L127.869 193.479L125.797 194.066L124.22 195.469L122.209 194.529L120.357 194.89L117.228 193.716L116.568 193.177L115.092 193.055L114.139 192.26L110.729 190.863L109.141 191.118L105.783 188.409L103.945 188.282L102.896 187.774L99.7921 187.346L97.2248 186.072L94.7099 185.16L93.0272 183.78L89.3993 183.438L86.0905 182.194L84.8386 182.363L83.7333 181.709L81.6345 181.926L81.4009 183.431L80.6622 183.509L79.0349 182.297L77.7011 183.066L75.3244 182.807L74.7842 183.765L72.7502 182.968L72.2431 183.863L70.7791 184.609L69.8346 182.926L68.1142 182.737L65.9052 184.336L64.384 183.053L64.3666 181.447L63.2975 179.776L62.6049 177.166L60.645 176.07L59.551 174.659L59.2394 172.641L60.4172 171.59L59.9726 170.554L58.4224 170.048L57.045 168.576L56.3106 168.612L55.4103 166.944L53.8875 165.584L51.8129 164.432L46.77 162.438L45.1483 162.448L44.1822 161.747L42.9013 161.513L39.7905 162.543L38.4252 162.328L36.9156 161.186L34.9803 160.67L33.887 159.371L33.6936 157.776L34.3945 157.015L33.346 156.077L31.6956 155.739L31.3682 154.634L29.5768 155.054L28.2098 154.787L27.2322 155.179L24.8364 153.043L23.5159 150.964L22.6185 148.461L22.4003 146.016L22.8974 144.856L22.3381 144.138L19.9467 142.331L18.8465 142.137L18.3369 141.348L16.3962 142.418L15.1413 140.626L14.2833 140.715L13.8823 139.287L11.8618 139.552L10.5108 138.883L10.4007 137.979L9.38244 137.598L9.13704 136.714L9.70422 135.725L9.17952 134.358L7.12229 134.825L5.84769 133.268L5.48203 131.197L4.93458 130.19L8.20535 130.624L8.80666 131.446L9.90737 130.587L10.6071 130.822L10.7474 133.698L12.2054 133.207L13.3889 134.782L15.7821 134.806L14.3162 133.645L13.226 132.287L13.3906 130.845L16.4136 129.529L16.7449 128.617L16.0719 127.136L15.0366 127.14L13.9306 125.872L13.4423 124.655L14.9877 124.332L16.2093 124.681L16.5852 123.724L16.0937 122.292L14.5869 120.699L14.5893 118.636L15.7167 118.728L16.1524 117.249L14.384 116.7L13.7973 115.358L16.4563 114.189L16.7484 112.195L17.3862 110.237L15.7531 108.572L16.2917 107.513L15.4297 106.276L14.9229 108.303L12.9088 107.615L12.7015 106.277L11.8358 105.195L11.934 103.863L12.8487 102.961L12.6191 101.652L13.0268 100.201L13.6905 99.9172L14.5124 101.104L16.1418 102.151L17.288 101.597L17.0477 99.9325L19.0805 98.1236L19.9707 96.3569L20.0155 94.8386L19.4847 93.4484L18.2847 91.5952L17.9722 88.9422L16.776 88.4823L17.3026 87.3403L19.7629 87.5519L21.9615 85.7924L22.6448 82.6709L24.2158 81.319L24.031 80.3424L25.3284 78.1323L26.495 78.1109L26.6297 79.1637L28.0048 78.7092L27.5888 77.7849L28.042 76.301L27.9681 75.1436L29.7683 73.9656L29.483 72.692L30.5438 72.4168L31.8625 72.708L32.2969 73.7471L35.3919 72.7627L36.3647 71.9049L37.1362 71.9758L37.942 70.9485L39.515 70.055L40.7252 69.9293L40.9231 68.7404L39.1275 67.9983L40.6477 66.5945L40.3064 64.1868L40.3744 62.6432L41.7786 64.1324L41.7744 65.3854L42.7918 66.3799L44.1852 63.6803L45.6518 64.799L46.9155 63.2639L47.7525 63.548L48.9059 62.2196L49.4605 62.5748L49.7106 64.1939L49.3728 65.125L48.1671 65.9688L47.8897 66.7353L48.5031 68.0331L47.6524 70.2808L48.4873 71.22L50.4598 72.4756L52.1579 72.784L53.5975 72.0828L54.519 72.3516L55.9392 71.8445L56.9475 70.6848L58.0828 72.0313L61.67 73.7374L63.0834 75.5535L65.3642 75.4289L66.7788 74.5444L67.4765 73.4009L67.61 72.0477L68.9452 70.3262L70.5383 69.2283L71.5043 69.4556L72.8133 68.6804L73.7903 69.689L74.0415 71.0479L74.819 72.3669L76.9236 73.4177L78.6716 72.0375L79.743 72.5277L80.0221 73.4522L82.8504 73.5925L87.5492 72.6104L88.7086 71.8554L89.0023 70.337L88.6592 68.9703L89.5565 66.9906L91.0298 67.1611L95.4782 66.1799L96.3929 64.5841L97.0941 65.3124L97.0713 67.1802L98.9136 68.6065L100.027 68.1368L103.645 68.0104L104.258 67.4064L105.658 67.2439L105.707 66.3409L104.436 65.2732L107.61 64.579L107.43 63.5078L106.032 62.6976L105.564 61.2478L107.386 61.2665L110.766 62.66L108.771 63.8989L109.007 64.9315L109.822 65.3421L110.97 64.5702L112.393 65.1751L114.91 64.3718L117.762 64.0572L119.015 62.753L120.65 63.1055L122.874 62.3932L124.447 61.2568L125.191 60.2814L125.276 58.3237L127.16 57.5265L129.141 58.4367L130.73 58.3508L133.534 57.0262L135.325 53.6037L135.8 53.2315L135.507 51.2705L136.722 50.0174L137.556 51.3445L139.293 52.6015L142 56.3704L143.28 56.4751L145.921 55.6251L146.557 54.9822L147.579 55.2555L148.899 54.958L150.44 53.8903L150.544 51.9788L151.417 50.4805L154.042 50.0111L154.342 49.1773L155.588 48.469L158.193 48.606L159.861 46.8638L160.277 45.8296L163.361 45.0228L167.718 45.4115L169.775 44.3257L171.932 42.6846L174.288 39.8926L175.077 38.3527L175.545 36.493L174.717 35.5716L173.002 35.0692L171.482 34.0421L169.756 30.6585L169.657 29.1943L170.706 28.0325L169.293 27.3315L171.463 26.1655L172.161 23.7765L172.221 20.2389L171.821 16.9506L170.539 16.3443L168.107 16.1479L169.613 13.6182L171.101 13.4484L172.542 12.8313L173.387 12.9177L175.68 12.0469L176.399 9.8586L177.702 9.47854L179.772 10.1359L180.661 11.8514L182.077 12.6959L183.864 12.5882L184.773 11.9412L187.211 12.1989L188.57 11.2769L189.096 10.343L190.736 10.2149L194.132 8.68572L196.596 6.93623L197.478 6.80374L200.105 7.21272L201.739 7.06478L203.639 8.16241L205.593 8.66073L208.305 9.95354L209.03 9.6772L211.757 10.321L214.242 10.0694L219.177 10.6267L220.891 11.2026L224.19 11.4184L227.479 11.0048L228.412 11.1605L231.24 12.4262L232.581 12.2777L233.899 12.6921L235.925 12.7159L237.082 11.6099L240.724 12.9547L241.804 12.9884L243.144 11.3381L244.774 11.0545L245.648 10.2848L247.386 9.99261L249.047 8.84304L249.986 6.80207L250.439 4.59106L252.197 3.32687L253.709 2.85156L254.776 3.94677L254.312 6.15173L254.559 6.8905Z" fill="#1E1E1E" stroke="white" stroke-width="5"/>
</svg>
