<svg width="117" height="97" viewBox="0 0 117 97" fill="none" xmlns="http://www.w3.org/2000/svg">
<path d="M26.3213 62.8245L27.5666 62.8051L29.3039 65.1445L28.8387 66.0506L27.0052 65.849L25.7504 65.2246L24.8345 65.2771L24.5884 63.7501L25.2649 62.6771L26.3213 62.8245ZM106.729 49.7866L108.443 50.3636L108.848 51.2927L107.894 54.2336L105.859 54.324L104.16 53.3492L106.106 51.2959L106.729 49.7866ZM112.026 47.652L111.165 49.0387L109.815 48.993L110.519 47.6581L112.026 47.652ZM10.9667 4.57666L13.1943 4.5497L13.0313 5.54043L15.0126 6.81659L14.7596 10.177L15.0154 11.8384L15.9838 13.4395L17.1822 13.5373L18.5497 12.8877L18.9214 14.1881L20.1851 14.878L21.6703 15.1178L23.5332 15.9857L25.2853 16.4735L24.9798 17.9227L25.8251 18.666L25.4641 19.915L25.5737 21.4197L27.5641 24.2988L28.9445 24.917L29.6248 26.5882L30.8397 26.6836L33.4667 27.5317L32.7997 28.5529L33.355 29.5036L35.0487 29.9606L36.2397 31.2065L37.9292 31.7207L38.7733 33.6346L41.5486 33.5957L43.4984 34.341L44.2378 35.4371L47.3921 38.0267L48.9942 38.4646L51.1636 37.235L53.2487 37.2478L54.1546 37.7082L56.32 40.4565L58.1036 40.9083L59.1667 41.5658L59.8541 41.1571L60.4338 42.7176L61.3274 43.3842L62.8957 43.1101L64.6045 44.7557L65.6685 47.176L65.805 44.9865L66.3501 44.3066L67.6048 44.4344L69.0769 46.1409L68.1046 47.7091L68.1216 48.9424L69.7154 50.0334L71.1715 52.0491L69.4914 53.1158L68.2423 54.9453L68.6679 56.967L71.8316 58.8946L71.1885 60.9767L72.5836 62.5092L74.5691 62.7436L76.2344 62.0262L76.6491 61.3383L77.4312 56.8749L78.3592 55.5961L79.9512 55.9034L82.3938 55.7993L83.0794 55.3081L87.5338 55.7137L89.0266 56.3995L91.8637 56.3749L92.5105 56.6451L94.9434 55.5917L96.5518 55.828L97.4431 55.4996L98.109 57.0575L99.3738 57.3434L99.6538 58.7649L100.497 59.3638L101.316 59.0729L102.552 60.2117L102.743 61.1757L101.849 61.5583L101.315 62.77L99.3606 64.5057L99.5284 66.2022L98.3641 67.1207L98.4688 69.1721L96.9456 71.5336L95.8179 72.6352L95.5565 74.3527L94.3544 75.3057L93.1146 76.9199L91.5616 79.7365L89.7303 82.1564L88.6807 82.7228L87.9333 82.1011L86.0049 82.0317L83.2043 84.5347L81.7338 83.8177L79.9301 84.0087L77.6913 86.0954L76.4784 86.5196L75.6914 88.4934L76.9272 89.085L76.0615 89.8401L74.6571 90.285L74.3014 91.3104L73.285 91.3964L73.0558 92.2642L71.963 92.4734L69.7556 93.6734L67.4399 93.1054L65.8505 91.88L64.4631 92.8087L61.3116 91.5711L60.9699 90.9886L60.9325 88.8654L61.1951 86.5125L62.5377 85.601L61.8013 85.074L60.6082 85.3555L59.5897 84.3774L58.059 84.2594L56.8153 83.3308L56.6079 81.706L55.107 81.8971L54.2802 83.8286L52.4382 83.214L51.8483 83.8886L49.3081 83.9146L47.9692 83.5188L47.54 84.0439L45.1575 84.7623L42.5221 83.3869L41.9282 84.1245L38.8843 83.1774L36.6116 84.9573L34.3178 83.6698L35.1476 82.3933L36.9046 82.5039L37.4757 81.7719L36.9738 79.9196L36.9745 78.5203L35.0259 74.6248L35.8733 73.3597L35.7203 70.0125L37.2923 69.6973L37.7042 71.3125L38.4002 71.7877L38.5066 69.3408L39.3096 69.0631L39.1102 67.0864L36.7641 67.2327L35.2188 66.7638L33.6512 67.0216L33.1918 66.5112L34.9669 63.0648L35.0675 60.6122L32.1814 57.3471L31.2646 55.2246L30.2802 54.7908L30.3659 52.2094L29.4585 50.499L26.5258 47.9326L24.5148 47.6776L23.5933 46.577L21.7694 46.1009L21.2168 45.4937L21.2148 43.5251L20.0841 38.9229L17.4636 34.0868L15.669 32.5122L14.8257 32.5559L13.2714 31.5382L12.2884 29.7913L10.3034 23.442L8.74946 19.6805L7.51294 18.4843L6.76444 17.0684L3.75857 13.534L3.23828 10.3487L4.0439 7.36624L4.98116 6.04572L6.28315 5.26728L9.15599 4.95959L10.2908 4.07031L10.9667 4.57666Z" fill="#1E1E1E" stroke="white" stroke-width="5"/>
</svg>
