<svg width="295" height="214" viewBox="0 0 295 214" fill="none" xmlns="http://www.w3.org/2000/svg">
<path d="M288.249 185.459L285.941 185.58L284.133 186.491L283.234 187.485L279.328 185.695L281.35 184.603L284.627 185.705L285.811 184.053L286.579 184.111L288.249 185.459ZM202.658 81.4566L201.793 81.1696L201.687 78.5386L202.534 78.1447L203.008 80.9601L202.658 81.4566ZM161.263 22.7051L160.369 28.2048L160.146 31.5469L160.317 33.1727L160.112 36.5116L160.368 39.7444L160.866 42.9138L162.219 45.2192L162.334 50.5225L162.757 53.7273L163.761 58.3722L164.589 61.1825L165.795 63.2926L166.743 64.1243L167.035 66.4723L168.488 71.5264L170.07 74.2583L172.342 76.2746L172.247 77.8237L173.094 80.1819L175.524 83.0805L176.448 83.9241L177.132 85.8781L176.79 88.8098L176.845 90.9149L177.736 93.39L179.077 94.4486L183.425 94.064L184.586 93.2107L184.462 91.4641L184.965 90.0099L186.482 88.0563L187.782 88.2059L188.586 87.3831L187.938 85.1365L187.879 83.7468L188.426 83.3249L191.662 84.2256L192.286 83.3049L189.514 79.9348L187.731 77.0931L188.249 75.9163L187.05 73.0215L188.74 72.82L190.178 73.932L192.124 74.5486L192.756 73.2903L193.813 72.9623L194.179 70.786L195.077 70.5401L195.656 72.0294L197.012 70.9537L197.553 71.3763L196.827 73.9433L197.413 74.4968L197.225 76.2131L196.469 77.3784L195.371 77.2433L195.43 78.4788L196.603 79.4055L196.87 80.8358L196.71 82.689L196.075 83.6411L197.097 85.0276L198.573 85.404L199.762 84.694L200.889 84.8747L201.432 83.4259L202.431 82.2863L203.693 84.165L204.132 86.2914L203.701 87.1207L204.069 88.2292L205.157 88.7566L206.01 90.6375L207.338 89.6429L208.414 92.9288L207.879 97.1986L208.737 99.961L208.417 101.908L207.851 102.684L208.085 103.943L207.891 105.74L208.083 107.385L209.2 108.044L208.59 109.279L209.701 111.569L209.698 113.601L210.443 115.432L211.307 115.753L212.342 117.529L213.366 119.946L215.133 121.513L217.364 122.133L222.068 119.252L222.001 117.668L219.93 116.78L219.307 115.285L218.856 112.732L217.526 111.861L217.389 111.15L218.635 110.372L216.873 108.919L217.494 107.684L219.189 107.443L219.9 110.84L222.047 113.101L223.815 113.635L223.499 115.024L225.525 114.407L226.528 113.589L228.123 114.574L229.728 114.278L230.074 114.929L229.029 116.155L231.881 116.302L232.671 115.274L233.326 115.51L233.947 117.972L233.042 119.187L234.609 120.84L234.541 122.331L237.526 123.667L239.068 125.424L239.876 125.741L241.515 128.18L242.214 128.513L240.25 130.65L239.498 132.598L239.093 135.212L239.734 137.168L240.754 139.03L241.374 140.775L242.634 143.135L244.12 142.781L244.604 145.164L245.708 146.517L247.558 145.821L249.565 147.506L250.064 149.369L247.182 150.383L247.032 151.358L247.888 152.553L246.982 154.715L244.763 157.02L245.479 158.749L247.107 158.871L247.721 159.914L247.662 161.571L246.168 162.298L245.647 163.82L246.202 165.743L247.696 165.76L249.49 166.284L248.844 167.112L248.953 168.324L248.476 169.265L247.214 169.325L245.738 168.601L243.306 168.605L242.035 167.707L240.071 167.904L240.072 170.659L239.602 171.423L237.661 172.321L235.748 171.107L234.084 171.301L233.109 170.159L231.825 170.929L230.807 173.038L231.009 174.727L230.74 175.883L231.538 178.644L233.539 177.327L233.729 179.045L231.328 181.788L231.727 183.517L230.494 184.971L231.106 186.312L232.278 187.491L233.932 186.385L235.438 187.463L237.091 183.621L238.132 182.768L239.849 182.265L241.086 182.44L242.512 180.81L244.488 181.279L247.101 180.449L248.049 180.573L249.391 179.745L249.975 180.133L251.19 178.735L251.868 178.759L253.431 177.462L253.633 174.756L254.691 173.886L255.815 174.199L256.633 175.346L258.631 175.405L258.693 174.013L260.273 174.153L262.738 171.099L263.335 169.519L264.677 169.152L266.63 167.923L268.243 167.44L269.452 167.67L271.574 167.521L272.54 167.786L273.675 166.477L274.313 166.553L276.802 167.858L277.589 167.051L279.338 166.929L280.655 167.342L281.922 166.522L281.932 167.832L282.789 170.316L281.959 171.784L279.719 173.158L280.593 174.439L280.57 175.921L279.162 177.888L277.743 178.707L277.715 181.534L276.64 180.87L276.331 179.903L275.076 179.39L273.467 179.293L270.621 180.147L269.599 179.924L265.488 180.752L263.702 181.441L263.225 181.993L262.513 184.37L261.496 185.497L261.204 187.168L259.846 188.222L256.38 188.237L254.107 188.48L252.063 189.103L250.208 190.177L249.725 191.885L249.867 194.201L249.619 195.589L247.676 197.554L245.626 198.301L243.053 199.792L239.116 202.81L237.963 204.611L235.962 206.248L233.404 207.737L232.105 208.147L227.103 207.201L225.78 209.137L223.125 209.969L221.457 210.847L217.145 210.635L214.552 209.67L210.87 207.154L206.973 206.48L205.434 206.668L201.841 207.665L200.367 207.491L198.357 206.758L194.407 204.191L192.995 202.735L192.036 200.781L191.56 197.391L190.863 196.106L188.726 193.89L187.798 192.179L188.344 190.138L186.561 187.757L184.595 187.281L181.989 189.543L181.404 191.173L180.125 191.435L178.073 190.698L174.931 190.881L171.244 190.877L163.545 190.002L162.131 189.6L159.727 189.658L156.009 190.657L151.811 191.317L146.539 190.527L141.782 190.549L138.303 191.564L133.34 191.681L130.787 190.343L128.898 186.124L128.174 181.009L127.324 179.118L126.047 178.87L124.576 179.179L122.351 180.496L121.06 182.159L120.216 182.758L117.261 182.239L111.029 179.767L108.328 179.657L105.245 177.854L103.091 175.879L100.473 172.701L98.4434 171.157L97.4524 170.027L96.7813 168.283L98.2242 164.405L98.55 162.826L98.4477 160.825L97.2497 159.724L95.5811 159.073L94.0777 159.149L91.8097 160.041L90.9306 159.554L88.7656 156.702L87.5289 156.265L85.1286 158.195L81.9255 158.707L76.9671 159.852L73.205 158.773L70.9643 158.484L69.2179 158.58L66.501 160.312L64.1573 162.071L61.0691 161.321L59.5642 162.511L57.8852 166.031L56.5288 166.399L54.3495 165.875L51.18 166.695L48.5251 165.927L47.3779 165.896L44.8779 167.244L41.4457 167.882L36.4489 167.344L32.4353 165.747L29.8137 167.108L27.7771 166.331L24.77 163.331L23.6878 162.767L17.9041 162.03L14.8933 160.549L13.1433 160.012L10.5376 160.387L8.99624 161.643L5.4002 162.213L4.18098 161.953L3.80742 161.267L5.26868 158.309L5.55413 156.158L6.48605 155.116L7.4817 155.17L8.3283 154.532L9.08052 152.877L9.16096 150.264L8.83024 148.601L8.84406 146.229L8.57265 142.763L7.81161 140.644L8.17611 138.701L7.56214 136.748L7.75101 135.466L8.75514 133.212L8.27513 132.559L6.75861 132.501L5.00656 131.166L3.55645 130.761L3.61344 130.102L5.43573 128.941L5.95183 128.02L5.76343 125.299L6.17773 122.228L4.23879 121.296L3.11719 119.003L3.46068 117.452L4.43601 116.031L7.18336 112.757L8.98986 109.147L9.1836 108.42L10.4273 108.391L11.6499 107.541L13.188 107.855L14.0873 107.52L14.5998 106.364L16.2735 105.718L17.1755 103.509L18.1623 101.844L19.4232 100.57L21.2128 99.9629L22.3519 99.0544L24.3788 98.7236L25.9599 99.1326L29.5422 99.2057L31.1966 98.4836L31.8413 97.4716L33.043 92.5852L34.2405 88.7374L33.8885 85.9791L33.0897 84.8305L32.5076 82.9228L32.143 80.0189L29.6908 77.5494L28.6625 74.9366L29.1763 73.7094L30.6678 73.8454L31.0236 71.7452L32.6321 71.9222L33.1592 70.5488L31.3991 69.5673L31.5314 68.0831L34.4772 67.5547L34.8402 66.7019L36.3195 66.8124L36.5686 66.0331L35.0164 62.8936L34.083 61.5096L34.0698 59.9618L34.7384 58.1227L33.4178 58.5103L33.2016 57.2005L34.4304 54.9403L34.1562 54.1121L30.3719 50.0333L29.6676 48.6799L27.7408 47.8444L28.1096 45.2576L27.6592 44.5439L26.0502 44.8048L25.3806 43.8545L25.8058 42.9633L27.1783 41.948L27.7523 39.0147L27.2799 37.8835L25.828 37.4609L25.3109 36.5966L25.6415 33.0862L21.6107 29.7075L22.1721 27.6755L25.2239 25.3707L26.5562 24.6107L28.1875 24.6269L29.1759 24.1588L31.5094 23.6916L32.9587 21.9114L34.5503 20.4807L36.155 19.708L38.317 19.4328L40.7479 20.4124L43.8804 21.2608L49.3455 22.0666L52.5368 22.2307L55.3289 21.9721L56.5683 23.6209L57.8263 24.059L63.6362 24.166L70.5813 23.3779L73.1127 23.4622L74.2674 24.7322L81.2757 29.2494L83.8921 29.7623L85.6948 29.7953L89.3112 30.5881L90.9142 30.4298L95.6441 28.643L98.5389 27.6876L102.026 25.7252L103.421 24.2542L103.616 22.4774L103.404 18.9182L103.667 17.8242L106.045 17.4205L109.4 16.4076L111.93 14.4169L112.651 13.5139L114.444 10.1519L117.101 6.16267L120.553 3.38672L121.181 3.84128L122.653 6.86192L124.391 8.4712L124.928 9.78551L126.606 11.7276L128.627 13.4532L129.745 13.7178L130.656 14.6407L132.511 15.4047L136.142 13.9407L137.336 13.7698L137.886 14.4431L138.241 16.4926L139.529 18.7925L140.581 19.6479L140.947 21.2767L146.772 22.2473L149.886 22.3909L152.072 22.124L161.263 22.7051Z" fill="#1E1E1E" stroke="white" stroke-width="5"/>
</svg>
