<svg width="335" height="203" viewBox="0 0 335 203" fill="none" xmlns="http://www.w3.org/2000/svg">
<path d="M53.3385 191.762L53.9094 192.393L53.5461 194.573L52.1315 196.409L52.1118 198.474L51.5156 199.891L50.1551 200.091L49.4685 199.678L50.6837 197.774L50.8318 196.914L49.4425 196.253L49.8228 194.83L50.6746 194.47L52.261 193.024L51.1246 191.061L52.1756 190.833L53.3385 191.762ZM76.6374 190.609L77.4514 191.665L76.7656 192.337L74.8509 191.491L73.9768 191.467L74.4825 195.616L73.2322 196.056L72.0914 193.675L71.8847 190.697L73.9756 190.286L75.0318 188.955L76.6374 190.609ZM51.4206 188.463L50.2133 187.454L51.1144 186.535L51.4206 188.463ZM75.9481 184.733L75.2286 184.257L75.2721 182.863L76.4954 183.295L75.9481 184.733ZM11.6188 180.235L13.2848 180.342L14.764 180.91L13.9962 181.782L14.3133 182.849L13.2022 183.435L10.3498 182.37L10.8998 180.442L11.6188 180.235ZM35.4596 150.077L35.4663 151.12L36.7084 152.216L36.4553 153.57L37.3376 154.775L37.7246 158.476L38.6533 157.425L39.9156 157.277L39.447 158.87L38.4562 159.048L38.3201 160.97L37.7313 163.758L36.3569 162.767L36.339 161.624L37.1321 158.63L36.7813 157.018L35.7495 155.825L34.553 151.27L35.4596 150.077ZM23.6153 137.182L25.8534 137.406L25.6168 138.467L26.6049 139.677L28.1716 139.062L29.3912 139.631L30.546 141.632L31.0191 143.29L30.6217 144.128L31.1292 146.613L31.7391 146.875L30.8849 149.922L31.4798 151.545L32.3527 150.094L33.6514 152.246L33.2932 153.348L31.9323 154.225L32.2728 156.307L30.7106 155.751L30.4178 156.394L30.4434 158.545L29.865 160.709L28.9313 161.855L27.2025 161.007L24.0841 160.338L22.3354 160.837L21.946 159.885L22.4199 158.399L24.0184 157.291L25.0021 156.023L23.3959 155.84L23.4417 153.51L20.4114 152.64L20.3989 151.71L18.2513 152.452L14.4958 152.069L13.9792 151.146L12.7724 151.359L9.74403 154.751L8.38469 153.387L6.81315 154.002L7.18067 152.246L6.7305 151.472L5.14759 151.812L4.55602 152.397L4.03365 154.258L3.42444 154.245L2.83984 152.692L3.40169 151.223L4.18874 151.537L6.28892 149.453L9.44129 147.047L9.60612 146.427L11.0063 145.749L13.5479 145.352L13.9286 144.508L16.0509 145.149L17.1632 147.638L18.0452 145.424L17.4942 143.765L19.4886 144.063L18.8157 142.429L19.3165 140.529L20.5793 140.449L23.053 138.99L21.9381 138.17L22.3521 137.097L23.6153 137.182ZM18.9253 135.183L19.5745 135.727L19.9459 139.135L18.7287 140.151L17.4313 139.343L17.2851 138.007L16.6958 136.916L16.6433 135.477L18.1322 134.713L18.9253 135.183ZM85.5076 131.687L86.697 131.745L87.1583 133.36L85.0742 135.11L85.5034 137.145L84.6098 137.613L84.7888 138.817L86.5496 140.822L82.6638 140.063L80.8476 140.207L80.4909 141.094L78.9401 141.924L79.2226 144.109L78.1616 144.456L77.135 143.952L76.0995 144.548L74.5886 146.693L73.2914 144.329L71.8957 144.401L70.7873 143.197L72.6699 142.434L74.0827 142.694L74.8419 143.83L75.4457 143.681L75.3837 141.909L74.7518 141.031L74.9287 140.135L77.8742 140.198L78.8758 137.09L80.2558 138.049L81.3474 137.508L81.4807 136.499L79.7134 135.141L79.5785 133.227L81.0333 133.64L80.9968 132.353L83.5957 132.786L83.9266 132.007L85.5076 131.687ZM194.552 117.522L196.659 118.341L197.403 119.091L198.904 119.691L200.898 121.391L201.742 122.803L200.715 123.339L199.426 122.88L197.313 122.753L196.769 122.19L195.449 122.228L193.789 121.328L193.187 119.221L194.329 118.213L192.504 117.749L192.328 115.665L193.325 115.008L194.67 115.49L194.224 116.515L194.552 117.522ZM59.3391 103.027L61.8458 104.45L63.1504 107.033L63.7259 105.541L64.536 106.901L66.3552 108.669L66.273 109.88L67.5488 111.504L68.3957 110.14L70.1372 111.495L70.6923 113.279L69.6076 115.922L68.0296 118.09L66.4618 118.905L66.335 119.851L67.4053 121.016L67.0903 122.266L68.2485 122.755L68.4264 123.793L67.7965 126.225L70.5157 123.703L72.5316 122.792L71.487 127.289L75.2813 125.41L76.4675 125.916L75.5927 127.321L74.6122 127.652L73.8932 129.815L73.993 130.871L71.1692 133.324L71.6962 134.478L71.1316 135.096L70.7894 137.357L69.9199 137.751L70.1755 139.267L69.2232 139.725L68.5042 141.675L66.185 143.451L65.232 143.056L63.8369 144.116L64.4473 145.354L64.731 147.128L63.6405 147.781L61.652 147.258L61.6141 148.894L61.1333 150.178L59.81 150.12L59.6205 149.007L58.4734 147.899L57.804 148.857L56.486 148.915L55.868 151.185L55.0213 152.143L53.7597 152.837L51.584 153.496L51.552 154.679L52.4277 155.792L53.5412 156.096L54.1792 157.076L55.0069 159.998L54.0155 159.859L53.036 160.518L53.0374 161.826L54.611 162.991L53.704 163.858L53.6271 164.684L55.7085 164.456L57.4922 165.574L57.2225 167.283L57.3183 169.32L59.0677 169.614L60.2248 169.448L60.6588 172.07L59.5576 172.344L59.2813 173.199L57.9861 173.079L57.2071 174.897L59.0176 175.138L59.5216 175.625L60.1004 179.361L59.633 183.033L58.4114 184.345L57.4597 184.689L56.8872 181.97L56.1893 181.23L55.3038 181.419L55.6486 182.87L55.4675 184.757L54.6326 185.521L53.6687 184.441L53.501 182.824L53.798 180.862L54.6777 180.289L53.6582 179.307L51.7507 181.401L50.9472 180.012L52.3781 177.838L52.4321 176.542L51.552 176.38L50.8063 177.815L49.1679 177.849L48.4201 177.196L48.0033 175.555L48.5726 174.941L47.1308 172.433L46.8197 171.411L48.0646 171.199L48.861 170.138L48.1285 168.779L47.0333 169.381L46.0914 168.636L47.4796 167.402L46.6312 166.357L47.9583 164.924L47.2762 163.696L45.3348 165.411L44.6812 165.251L44.2069 166.558L42.7896 166.552L42.7475 163.815L45.0553 163.087L44.2675 161.757L44.4486 160.368L43.2358 160.139L41.632 161.878L41.1816 160.104L42.3881 159.628L42.852 158.642L41.2612 157.299L39.9156 157.277L39.7022 155.004L42.2103 154.734L42.6577 153.765L43.4717 153.725L43.7526 152.583L42.7882 151.705L41.6055 149.164L40.5863 148.981L40.6566 147.798L42.9481 146.433L42.8135 145.074L41.3835 144.224L43.0442 143.266L43.864 143.49L44.1004 142.062L41.9333 140.839L43.0006 139.446L42.3405 138.424L40.6267 136.887L41.6612 135.579L42.2212 135.882L43.6323 134.754L45.7156 134.92L46.4757 136.142L46.244 137.129L47.5975 138.907L48.2295 139.159L48.1043 141.316L48.6423 141.856L47.7129 142.945L48.0572 143.755L47.8603 146.09L50.2704 146.979L50.8251 147.903L50.6048 149.211L52.0953 149.745L53.274 148.776L54.6475 148.908L55.4877 147.176L55.5033 146.195L56.2374 143.16L54.3375 143.068L54.1592 141.96L55.1722 141.375L56.685 142.249L57.5206 141.216L58.9108 141.279L60.4403 142.279L61.0205 140.695L62.0511 140.891L61.9505 139.582L61.3341 137.867L60.5246 136.639L61.427 136.175L60.5058 134.344L60.4547 132.773L59.1571 131.257L58.9456 130.087L60.1849 127.792L61.2475 126.634L61.3288 124.289L60.6026 123.536L59.5165 123.702L59.4659 122.394L57.6982 122.462L57.4365 121.32L56.2945 120.672L54.5386 121.222L53.7532 122.754L52.9986 121.738L51.8575 122.048L51.9003 120.458L52.6193 119.087L51.6477 117.291L52.8501 116.827L53.5582 115.726L52.2857 112.519L53.0225 111.917L52.5559 110.747L53.1755 109.708L55.2216 110.805L54.9642 107.827L55.7224 106.451L56.9689 105.464L57.1897 104.391L58.4244 103.21L59.3391 103.027ZM317.823 47.1396L319.05 48.168L318.057 49.3491L316.811 47.9694L317.823 47.1396ZM282.052 13.7677L282.908 13.6643L284.469 14.4209L284.047 15.3455L283.116 15.7584L281.809 14.8341L282.052 13.7677ZM172.348 3.57012L173.072 3.87251L174.797 3.52439L177.998 3.42037L184.23 4.50528L187.002 4.58039L188.646 5.30326L191.177 4.71454L193.663 4.58962L195.517 4.78283L198.18 5.4733L199.041 5.21952L200.764 5.9053L203.726 5.97313L205.715 5.17804L206.917 5.32855L208.549 6.62136L210.053 7.13043L213.192 7.09984L214.598 7.85072L216.145 8.08951L218.911 7.92462L222.884 7.2873L225.466 9.34023L227.205 9.28799L227.979 10.3582L227.463 11.9657L227.734 13.4635L229.23 14.3693L232.037 17.0162L232.877 18.0229L234.112 18.2553L234.919 20.0005L236.315 20.271L236.235 21.5259L237.641 22.4491L238.176 23.625L239.327 24.5616L240.645 24.7525L242.598 24.463L244.719 23.468L245.501 25.0709L247.272 24.9275L249.296 26.0011L250.966 27.4955L252.171 27.3955L253.612 28.5935L255.284 28.759L256.487 29.3058L259.686 28.3507L260.982 29.5729L262.508 29.3906L264.147 31.2693L265.956 31.9661L266.167 32.8699L267.771 34.3942L271.062 35.9121L273.776 36.5759L274.843 37.5763L276.74 38.2737L276.609 40.5426L278.12 42.4505L279.028 42.8693L280.397 44.4807L283.143 44.0273L283.826 44.15L285.536 42.175L286.099 40.7458L285.562 39.0529L282.935 38.0508L282.032 36.4417L281.478 34.7855L280.414 34.3057L280.258 33.2919L278.7 32.7987L279.172 31.8443L279.569 29.5626L277.331 27.6652L276.306 26.2626L274.675 25.6212L274.357 24.4148L272.967 22.4481L272.321 22.1666L271.786 20.8874L274.336 19.2039L276.214 19.2154L277.094 18.7907L278.506 18.8785L279.169 20.2265L280.191 20.1055L281.562 21.0534L282.608 21.2979L283.177 22.5485L284.674 23.054L286.107 24.087L288.309 24.5087L288.479 22.194L287.163 22.2477L285.809 20.6138L286.119 19.4209L287.075 18.6184L287.133 17.1698L286.291 16.5855L286.645 15.3568L288.922 15.246L288.621 14.1432L290.128 13.452L291.636 13.8495L292.962 13.543L293.295 14.5425L292.154 14.9968L290.628 17.2853L290.5 18.1908L291.445 20.2121L290.918 21.2461L293.2 23.2358L294.919 22.7506L294.804 23.8555L295.392 24.729L296.885 25.6527L297.582 25.1165L301.879 24.7589L303.051 24.8667L304.172 25.6837L305.572 25.7449L306.997 26.3318L307.101 27.1436L310.205 26.9714L312.375 27.824L315.039 27.4944L316.312 26.7132L317.391 27.0285L317.912 25.6913L318.945 25.6804L319.974 24.8325L322.598 24.4291L324.903 24.4441L326.306 23.9738L328.298 24.6951L329.14 24.2789L330.315 25.0684L330.094 26.2782L327.908 26.7877L326.585 28.7469L325.5 29.4512L323.966 29.0589L324.126 30.1457L320.763 32.6385L318.947 33.61L316.208 34.4963L314.197 34.2554L311.834 34.7555L311.283 35.6068L311.552 36.939L309.76 38.4039L311.287 39.425L310.759 40.3672L309.623 40.6839L309.475 42.1953L310.721 42.589L310.693 43.488L312.833 44.0376L313.87 45.9952L315.442 46.0951L316.811 47.9694L317.52 50.7845L316.391 52.5489L315.5 52.961L315.293 54.6621L314.749 55.811L315.23 56.5469L317.011 57.4294L318.139 56.6505L320.22 56.6447L321.217 56.238L322.955 56.3037L324.534 55.9854L327.945 56.5745L329.794 57.7543L330.141 58.3827L330.307 60.5471L330.083 62.4837L331.321 62.5113L331.132 64.6766L330.127 64.6181L329.211 65.6026L330.164 67.6307L328.431 68.31L328.13 69.0438L326.859 69.1192L325.306 68.1141L325.912 67.1432L324.891 66.1529L324.198 67.3182L322.669 67.8603L321.455 71.2112L320.101 70.1467L320.046 69.065L319.305 68.618L316.306 70.1119L315.659 71.6267L314.98 72.2548L313.938 70.3484L312.78 70.5898L312.486 71.7645L310.856 71.9973L309.562 71.6336L309.14 70.6509L305.687 70.2006L304.829 71.6327L303.422 73.0206L302.297 72.3293L299.416 71.1088L295.815 70.0837L292.49 69.8348L289.452 70.2951L287.369 70.9259L285.955 72.0352L285.513 74.0875L283.801 74.4591L282.799 75.7822L282.062 75.9812L280.408 77.6649L280.807 79.495L279.206 78.9144L278.395 80.5688L276.321 80.8187L275.186 80.1776L274.505 83.0351L271.717 80.8196L269.87 80.9068L268.817 82.8038L267.216 82.2311L266.623 81.4204L265.58 81.5025L260.415 83.1133L253.295 85.9748L249.685 87.9532L246.99 89.6564L244.088 91.8653L242.095 94.0963L241.423 96.4496L240.069 97.8284L239.737 99.6576L239.96 102.216L239.416 103.697L239.63 105.866L240.271 107.064L240.155 109.504L238.474 110.994L238.408 112.718L237.018 112.866L235.618 114.033L234.083 114.126L232.98 114.964L231.258 113.78L229.464 114.052L228.643 115.473L226.491 114.539L226.052 115.166L221.949 115.107L220.531 114.556L219.968 114.91L217.427 113.83L215.858 113.798L215.376 113.148L213.596 113.896L211.341 114.097L210.054 114.676L209.203 114.304L207.96 114.858L205.35 114.336L202.513 113.087L199.583 112.735L198.752 111.803L196.461 110.805L196.511 110.014L194.765 107.995L193.842 107.649L193.43 106.563L192.325 106.214L191.871 104.053L190.55 102.845L190.72 101.034L190.016 100.536L189.639 98.7291L188.419 96.8203L187.614 96.1861L187.787 94.2386L185.338 92.6369L185.525 91.6957L184.924 90.2178L183.927 89.7139L183.792 88.2676L182.64 86.9302L180.321 85.5663L179.071 83.9858L179.098 82.3026L178.203 80.733L178.45 79.7563L176.538 77.0472L174.185 75.735L171.291 75.3137L168.353 74.04L165.731 72.5788L164.995 70.4977L164.148 69.6997L162.426 68.7894L159.148 68.2943L157.561 68.3896L152.789 68.2694L150.457 68.955L149.186 68.6625L148.474 69.2294L146.874 68.7524L145.561 69.0665L141.646 69.2994L140.213 69.6731L136.759 70.0758L136.288 70.7645L133.611 70.8687L131.498 71.7505L128.52 71.6715L126.801 72.1933L126.123 72.8002L124.328 72.6545L122.359 73.4897L121.134 74.8788L120.713 76.7222L119.061 78.4051L118.079 78.5883L117.335 80.2948L118.554 81.1657L117.548 82.3613L116.648 81.0046L115.624 80.9604L114.733 81.7357L113.269 82.2711L112.171 84.3168L112.485 85.6777L114.389 86.1307L113.734 87.4981L112.622 87.5117L111.846 85.5405L109.517 85.2098L108.383 85.9397L106.51 86.4993L105.926 88.5183L104.5 89.3054L104.275 88.2903L104.789 87.5211L102.493 86.0572L101.432 87.5919L98.8403 89.2987L98.0114 90.4695L97.4285 88.4886L97.926 87.7473L96.7464 86.5617L96.0141 86.7985L94.4765 85.7386L94.6991 84.3616L93.5671 82.6881L93.9211 81.2345L93.1682 80.4704L92.4369 80.7872L91.459 80.1527L91.9347 78.6955L92.6156 78.3457L93.5731 76.9097L93.9302 75.2901L93.3665 74.596L94.9441 73.166L95.1672 71.8175L94.1503 70.4508L93.4371 70.5277L92.4025 68.3606L92.3043 65.907L90.4871 64.7047L89.9601 62.8199L88.2637 60.8372L88.3038 58.7594L87.9674 57.4094L86.2355 56.0109L85.9782 55.1296L86.5728 53.8432L88.9739 52.2702L88.9592 51.2984L90.0467 50.7358L90.8816 49.2043L90.8319 48.1229L92.4527 46.5666L94.6587 43.4192L95.4395 43.7778L96.1488 41.9854L97.8968 42.223L98.8261 39.9405L99.5266 39.012L99.2556 37.2202L100.033 36.6287L101.082 34.9336L103.579 34.4646L104.339 32.7124L107.917 30.8342L108.787 31.5748L109.724 31.3057L111.715 31.8486L113.964 31.8839L115.264 31.3793L116.334 31.452L118.122 29.8131L118.798 30.6368L120.031 30.4552L120.762 29.6869L123.24 28.705L124.265 27.217L124.294 26.1135L126.185 23.6137L127.33 23.5315L127.053 21.5447L128.861 20.9239L129.211 19.1044L134.056 16.9738L135.654 15.9395L136.788 14.3178L138.222 13.4459L139.834 14.1634L142.378 14.605L143.363 14.1652L145.306 14.0069L150.115 12.0317L152.564 10.8359L155.578 9.96771L157.19 9.13339L158.968 7.45582L161.408 6.7811L163.842 5.67711L166.178 4.31147L171.176 2.97656L172.348 3.57012Z" fill="#1E1E1E"/>
<path d="M39.9156 157.277L38.6533 157.425L37.7246 158.476L37.3376 154.775L36.4553 153.57L36.7084 152.216L35.4663 151.12L35.4596 150.077L34.553 151.27L35.7495 155.825L36.7813 157.018L37.1321 158.63L36.339 161.624L36.3569 162.767L37.7313 163.758L38.3201 160.97L38.4561 159.048L39.447 158.87L39.9156 157.277ZM39.9156 157.277L41.2612 157.299L42.852 158.642L42.3881 159.628L41.1816 160.104L41.632 161.878L43.2358 160.139L44.4486 160.368L44.2675 161.757L45.0553 163.087L42.7475 163.815L42.7895 166.552L44.2069 166.558L44.6812 165.251L45.3348 165.411L47.2762 163.696L47.9583 164.924L46.6312 166.357L47.4796 167.402L46.0914 168.636L47.0333 169.381L48.1285 168.779L48.861 170.138L48.0646 171.199L46.8197 171.411L47.1308 172.433L48.5726 174.941L48.0033 175.555L48.4201 177.196L49.1679 177.849L50.8063 177.815L51.552 176.38L52.4321 176.542L52.3781 177.838L50.9472 180.012L51.7507 181.401L53.6582 179.307L54.6777 180.289L53.798 180.862L53.501 182.824L53.6687 184.441L54.6326 185.521L55.4675 184.757L55.6486 182.871L55.3038 181.419L56.1893 181.23L56.8872 181.97L57.4597 184.689L58.4114 184.345L59.633 183.033L60.1004 179.361L59.5216 175.625L59.0176 175.138L57.2071 174.897L57.9861 173.079L59.2813 173.199L59.5576 172.344L60.6588 172.07L60.2248 169.448L59.0677 169.614L57.3183 169.32L57.2225 167.283L57.4922 165.574L55.7085 164.456L53.6271 164.684L53.704 163.858L54.611 162.991L53.0374 161.826L53.036 160.518L54.0155 159.859L55.0069 159.998L54.1792 157.076L53.5412 156.096L52.4277 155.792L51.552 154.679L51.584 153.496L53.7597 152.837L55.0213 152.143L55.868 151.185L56.486 148.915L57.804 148.857L58.4734 147.899L59.6205 149.007L59.81 150.12L61.1333 150.178L61.6141 148.894L61.652 147.258L63.6405 147.781L64.731 147.128L64.4473 145.354L63.8369 144.116L65.232 143.056L66.185 143.451L68.5042 141.675L69.2232 139.725L70.1755 139.267L69.9199 137.751L70.7894 137.357L71.1316 135.096L71.6962 134.478L71.1692 133.324L73.9931 130.871L73.8932 129.815L74.6122 127.652L75.5927 127.321L76.4675 125.916L75.2813 125.41L71.487 127.289L72.5316 122.792L70.5157 123.703L67.7965 126.225L68.4264 123.793L68.2485 122.755L67.0903 122.266L67.4053 121.016L66.335 119.851L66.4618 118.905L68.0296 118.09L69.6076 115.922L70.6923 113.279L70.1372 111.495L68.3957 110.14L67.5488 111.504L66.273 109.88L66.3552 108.669L64.536 106.901L63.7259 105.541L63.1504 107.033L61.8458 104.45L59.3391 103.027L58.4244 103.21L57.1897 104.391L56.9689 105.464L55.7224 106.451L54.9642 107.827L55.2216 110.805L53.1755 109.708L52.5559 110.747L53.0226 111.917L52.2857 112.519L53.5582 115.726L52.8501 116.827L51.6477 117.291L52.6193 119.087L51.9003 120.458L51.8575 122.048L52.9986 121.738L53.7532 122.754L54.5386 121.222L56.2945 120.672L57.4365 121.32L57.6982 122.462L59.4659 122.394L59.5165 123.702L60.6026 123.536L61.3288 124.289L61.2475 126.634L60.1849 127.792L58.9456 130.087L59.1571 131.257L60.4547 132.773L60.5058 134.344L61.427 136.175L60.5246 136.639L61.3341 137.867L61.9505 139.582L62.0511 140.891L61.0205 140.695L60.4403 142.279L58.9108 141.279L57.5206 141.216L56.685 142.249L55.1722 141.375L54.1592 141.96L54.3375 143.068L56.2374 143.16L55.5033 146.195L55.4877 147.176L54.6475 148.908L53.274 148.776L52.0953 149.745L50.6048 149.211L50.8251 147.903L50.2704 146.979L47.8603 146.09L48.0572 143.755L47.7129 142.945L48.6423 141.856L48.1043 141.316L48.2295 139.159L47.5975 138.907L46.244 137.129L46.4757 136.142L45.7156 134.92L43.6323 134.754L42.2212 135.882L41.6612 135.579L40.6267 136.887L42.3405 138.424L43.0006 139.446L41.9333 140.839L44.1004 142.062L43.864 143.49L43.0442 143.266L41.3835 144.224L42.8135 145.074L42.9481 146.433L40.6566 147.798L40.5863 148.981L41.6055 149.164L42.7882 151.705L43.7526 152.583L43.4717 153.725L42.6577 153.765L42.2103 154.734L39.7022 155.004L39.9156 157.277ZM316.811 47.9694L318.057 49.3491L319.05 48.168L317.823 47.1396L316.811 47.9694ZM316.811 47.9694L315.442 46.0951L313.87 45.9952L312.833 44.0376L310.693 43.488L310.721 42.589L309.475 42.1953L309.623 40.6839L310.759 40.3672L311.287 39.425L309.76 38.4039L311.552 36.939L311.283 35.6068L311.834 34.7555L314.197 34.2554L316.208 34.4963L318.947 33.61L320.763 32.6385L324.127 30.1457L323.966 29.0589L325.5 29.4512L326.585 28.7469L327.908 26.7877L330.094 26.2782L330.315 25.0684L329.14 24.2789L328.298 24.6951L326.306 23.9738L324.903 24.4441L322.598 24.4291L319.973 24.8325L318.945 25.6804L317.912 25.6913L317.391 27.0285L316.312 26.7132L315.039 27.4944L312.375 27.824L310.205 26.9714L307.101 27.1436L306.997 26.3318L305.572 25.7449L304.172 25.6837L303.051 24.8667L301.879 24.7589L297.582 25.1165L296.885 25.6527L295.392 24.729L294.804 23.8555L294.919 22.7506L293.2 23.2358L290.918 21.2461L291.445 20.2121L290.5 18.1908L290.628 17.2853L292.154 14.9968L293.295 14.5425L292.962 13.543L291.636 13.8495L290.128 13.452L288.621 14.1432L288.922 15.246L286.645 15.3568L286.291 16.5855L287.133 17.1698L287.075 18.6184L286.119 19.4209L285.809 20.6138L287.163 22.2477L288.479 22.194L288.309 24.5087L286.107 24.087L284.674 23.054L283.177 22.5485L282.608 21.2979L281.562 21.0534L280.191 20.1055L279.169 20.2265L278.506 18.8785L277.094 18.7907L276.214 19.2154L274.336 19.2039L271.786 20.8874L272.321 22.1666L272.967 22.4481L274.357 24.4148L274.675 25.6212L276.306 26.2626L277.331 27.6652L279.569 29.5626L279.172 31.8443L278.7 32.7987L280.258 33.2919L280.414 34.3057L281.478 34.7855L282.032 36.4417L282.935 38.0508L285.562 39.0529L286.099 40.7458L285.536 42.175L283.826 44.15L283.143 44.0273L280.397 44.4807L279.028 42.8693L278.12 42.4505L276.609 40.5426L276.74 38.2737L274.843 37.5763L273.776 36.5759L271.062 35.9121L267.771 34.3942L266.167 32.8699L265.956 31.9661L264.147 31.2693L262.508 29.3906L260.982 29.5729L259.686 28.3507L256.487 29.3058L255.284 28.759L253.612 28.5935L252.171 27.3955L250.966 27.4955L249.296 26.0011L247.272 24.9275L245.501 25.0709L244.719 23.468L242.598 24.463L240.645 24.7525L239.327 24.5616L238.176 23.625L237.641 22.4491L236.235 21.5259L236.315 20.271L234.919 20.0005L234.112 18.2553L232.877 18.0229L232.037 17.0162L229.23 14.3693L227.734 13.4635L227.463 11.9657L227.979 10.3582L227.205 9.28799L225.466 9.34023L222.884 7.2873L218.911 7.92462L216.145 8.08951L214.598 7.85072L213.192 7.09984L210.053 7.13043L208.549 6.62136L206.917 5.32855L205.715 5.17804L203.726 5.97313L200.764 5.9053L199.041 5.21952L198.18 5.4733L195.517 4.78283L193.663 4.58962L191.177 4.71454L188.646 5.30326L187.002 4.58039L184.23 4.50528L177.998 3.42037L174.797 3.52439L173.072 3.87251L172.348 3.57012L171.176 2.97656L166.178 4.31147L163.842 5.67711L161.408 6.7811L158.968 7.45582L157.19 9.13339L155.578 9.96771L152.564 10.8359L150.115 12.0317L145.306 14.0069L143.363 14.1652L142.378 14.605L139.834 14.1634L138.222 13.4459L136.788 14.3178L135.654 15.9395L134.056 16.9738L129.211 19.1044L128.861 20.9239L127.053 21.5447L127.33 23.5315L126.185 23.6137L124.294 26.1135L124.265 27.217L123.24 28.705L120.762 29.6869L120.031 30.4552L118.798 30.6368L118.122 29.8131L116.334 31.452L115.264 31.3793L113.964 31.8839L111.715 31.8486L109.724 31.3057L108.787 31.5748L107.917 30.8342L104.339 32.7124L103.579 34.4646L101.082 34.9336L100.033 36.6287L99.2556 37.2202L99.5266 39.012L98.8261 39.9405L97.8968 42.223L96.1488 41.9854L95.4395 43.7778L94.6587 43.4192L92.4527 46.5666L90.8319 48.1229L90.8816 49.2043L90.0467 50.7358L88.9592 51.2984L88.9739 52.2702L86.5728 53.8432L85.9782 55.1296L86.2355 56.0109L87.9674 57.4094L88.3038 58.7594L88.2637 60.8372L89.9601 62.8199L90.4871 64.7047L92.3043 65.907L92.4025 68.3606L93.4371 70.5277L94.1503 70.4508L95.1672 71.8175L94.9441 73.166L93.3665 74.596L93.9302 75.2901L93.5731 76.9097L92.6156 78.3457L91.9347 78.6955L91.459 80.1527L92.4369 80.7872L93.1682 80.4704L93.9211 81.2345L93.5671 82.6881L94.6991 84.3616L94.4765 85.7386L96.0141 86.7985L96.7464 86.5617L97.926 87.7473L97.4285 88.4886L98.0114 90.4695L98.8403 89.2987L101.431 87.5919L102.493 86.0572L104.789 87.5211L104.275 88.2903L104.5 89.3054L105.926 88.5183L106.51 86.4993L108.383 85.9397L109.517 85.2098L111.846 85.5405L112.622 87.5117L113.734 87.4981L114.389 86.1307L112.485 85.6777L112.171 84.3168L113.269 82.2711L114.733 81.7357L115.624 80.9604L116.648 81.0046L117.548 82.3613L118.554 81.1657L117.335 80.2948L118.079 78.5883L119.061 78.4051L120.713 76.7222L121.134 74.8788L122.359 73.4897L124.328 72.6545L126.123 72.8002L126.801 72.1933L128.52 71.6715L131.498 71.7505L133.611 70.8687L136.288 70.7645L136.759 70.0758L140.213 69.6731L141.646 69.2994L145.561 69.0665L146.874 68.7524L148.474 69.2294L149.186 68.6625L150.457 68.955L152.789 68.2694L157.561 68.3897L159.148 68.2943L162.426 68.7894L164.148 69.6997L164.995 70.4977L165.731 72.5788L168.353 74.04L171.291 75.3137L174.185 75.735L176.538 77.0472L178.45 79.7563L178.203 80.733L179.098 82.3026L179.071 83.9858L180.321 85.5663L182.64 86.9302L183.792 88.2676L183.927 89.7139L184.924 90.2178L185.525 91.6957L185.338 92.6369L187.787 94.2386L187.614 96.1861L188.419 96.8203L189.639 98.7291L190.016 100.536L190.72 101.034L190.55 102.845L191.871 104.053L192.325 106.214L193.43 106.563L193.842 107.649L194.765 107.995L196.511 110.014L196.461 110.805L198.752 111.803L199.583 112.735L202.513 113.087L205.35 114.336L207.96 114.858L209.203 114.304L210.054 114.676L211.341 114.097L213.596 113.896L215.376 113.148L215.858 113.798L217.427 113.83L219.968 114.91L220.531 114.556L221.949 115.107L226.052 115.166L226.491 114.539L228.643 115.473L229.464 114.052L231.258 113.78L232.98 114.964L234.083 114.126L235.618 114.033L237.018 112.866L238.408 112.718L238.474 110.994L240.155 109.504L240.271 107.064L239.63 105.866L239.416 103.697L239.96 102.216L239.737 99.6576L240.069 97.8284L241.423 96.4496L242.095 94.0963L244.088 91.8653L246.99 89.6564L249.685 87.9532L253.295 85.9748L260.415 83.1133L265.58 81.5025L266.623 81.4204L267.216 82.2311L268.817 82.8038L269.87 80.9068L271.717 80.8196L274.505 83.0351L275.186 80.1776L276.321 80.8187L278.395 80.5688L279.206 78.9144L280.807 79.495L280.408 77.6649L282.062 75.9812L282.799 75.7822L283.801 74.4591L285.513 74.0875L285.955 72.0352L287.369 70.9259L289.452 70.2951L292.49 69.8348L295.815 70.0837L299.416 71.1088L302.297 72.3293L303.422 73.0206L304.829 71.6327L305.687 70.2006L309.14 70.6509L309.562 71.6336L310.856 71.9973L312.486 71.7645L312.78 70.5898L313.938 70.3484L314.98 72.2548L315.659 71.6267L316.306 70.1119L319.305 68.618L320.046 69.065L320.101 70.1467L321.455 71.2112L322.669 67.8603L324.198 67.3182L324.891 66.1529L325.912 67.1432L325.306 68.1141L326.859 69.1192L328.13 69.0438L328.431 68.31L330.164 67.6307L329.211 65.6026L330.127 64.6181L331.132 64.6766L331.321 62.5113L330.083 62.4837L330.307 60.5471L330.141 58.3827L329.794 57.7543L327.945 56.5745L324.534 55.9854L322.955 56.3037L321.217 56.238L320.22 56.6447L318.139 56.6505L317.011 57.4294L315.23 56.5469L314.749 55.811L315.293 54.6621L315.5 52.961L316.391 52.5489L317.52 50.7845L316.811 47.9694ZM53.3385 191.762L53.9094 192.393L53.5461 194.573L52.1315 196.409L52.1118 198.474L51.5156 199.891L50.1551 200.091L49.4685 199.678L50.6837 197.774L50.8318 196.914L49.4425 196.253L49.8228 194.83L50.6746 194.47L52.261 193.024L51.1246 191.061L52.1756 190.833L53.3385 191.762ZM76.6374 190.609L77.4514 191.665L76.7656 192.337L74.8509 191.491L73.9768 191.467L74.4825 195.616L73.2322 196.056L72.0914 193.675L71.8847 190.697L73.9756 190.286L75.0318 188.955L76.6374 190.609ZM51.4206 188.463L50.2133 187.454L51.1144 186.535L51.4206 188.463ZM75.9481 184.733L75.2286 184.257L75.2721 182.863L76.4953 183.295L75.9481 184.733ZM11.6188 180.235L13.2848 180.342L14.764 180.91L13.9962 181.782L14.3133 182.849L13.2022 183.435L10.3498 182.37L10.8998 180.442L11.6188 180.235ZM23.6153 137.182L25.8534 137.406L25.6168 138.467L26.6049 139.677L28.1716 139.062L29.3912 139.631L30.546 141.632L31.0191 143.29L30.6217 144.128L31.1292 146.613L31.7391 146.875L30.8849 149.922L31.4798 151.545L32.3527 150.094L33.6514 152.246L33.2932 153.348L31.9323 154.225L32.2728 156.307L30.7106 155.751L30.4178 156.394L30.4434 158.545L29.865 160.709L28.9313 161.855L27.2025 161.007L24.0841 160.338L22.3354 160.837L21.946 159.885L22.4199 158.399L24.0184 157.291L25.0021 156.023L23.3959 155.84L23.4417 153.51L20.4114 152.64L20.3989 151.71L18.2513 152.452L14.4958 152.069L13.9792 151.146L12.7724 151.359L9.74403 154.751L8.38469 153.387L6.81315 154.002L7.18067 152.246L6.7305 151.472L5.14759 151.812L4.55602 152.397L4.03365 154.258L3.42444 154.245L2.83984 152.692L3.40169 151.223L4.18874 151.537L6.28892 149.453L9.44129 147.047L9.60612 146.427L11.0063 145.749L13.5479 145.352L13.9286 144.508L16.0509 145.149L17.1632 147.638L18.0452 145.424L17.4942 143.765L19.4886 144.063L18.8157 142.429L19.3165 140.529L20.5793 140.449L23.053 138.99L21.9381 138.17L22.3521 137.097L23.6153 137.182ZM18.9253 135.183L19.5745 135.727L19.9459 139.135L18.7287 140.151L17.4313 139.343L17.2851 138.007L16.6958 136.916L16.6433 135.477L18.1322 134.713L18.9253 135.183ZM85.5076 131.687L86.697 131.745L87.1583 133.36L85.0742 135.11L85.5034 137.145L84.6098 137.613L84.7888 138.817L86.5496 140.822L82.6638 140.063L80.8476 140.207L80.4909 141.094L78.9401 141.924L79.2226 144.109L78.1616 144.456L77.135 143.952L76.0995 144.548L74.5886 146.693L73.2914 144.329L71.8957 144.401L70.7873 143.197L72.6699 142.434L74.0827 142.694L74.8419 143.83L75.4457 143.681L75.3837 141.909L74.7518 141.031L74.9287 140.135L77.8742 140.198L78.8758 137.09L80.2558 138.049L81.3474 137.508L81.4807 136.499L79.7134 135.141L79.5785 133.227L81.0333 133.64L80.9968 132.353L83.5957 132.786L83.9266 132.007L85.5076 131.687ZM194.552 117.522L196.659 118.341L197.403 119.091L198.904 119.691L200.898 121.391L201.742 122.803L200.715 123.339L199.426 122.88L197.313 122.753L196.769 122.19L195.449 122.228L193.789 121.328L193.187 119.221L194.329 118.213L192.504 117.749L192.328 115.665L193.325 115.008L194.67 115.49L194.224 116.515L194.552 117.522ZM282.052 13.7677L282.908 13.6643L284.469 14.4209L284.047 15.3455L283.116 15.7584L281.809 14.8341L282.052 13.7677Z" stroke="white" stroke-width="5"/>
</svg>
