<svg width="73" height="41" viewBox="0 0 73 41" fill="none" xmlns="http://www.w3.org/2000/svg">
<path d="M3.2753 37.4368L2.9375 3.28525L10.3963 3.23438L69.0176 3.72043L69.3955 5.10666L67.9181 7.94054L65.6381 11.2297L64.6012 12.3418L63.6496 14.2263L59.252 19.1667L59.2015 20.79L58.1412 22.109L55.7726 24.2318L51.724 27.1709L47.2415 29.7501L44.7772 30.8757L42.0611 27.4851L41.2167 25.9029L38.3014 23.1113L37.3129 20.7961L35.4299 18.3964L33.6667 17.1453L33.0888 15.6145L31.8835 14.0389L30.7521 13.3532L30.0057 11.665L26.8693 11.5728L25.8221 12.5318L24.6195 12.678L22.4336 13.8699L22.7155 15.5221L23.9317 17.6691L26.1867 20.276L25.4645 21.4758L23.7879 20.4195L22.7106 18.6111L21.0179 16.6289L20.7643 15.339L19.3141 14.1524L18.2849 14.945L19.2048 17.3336L18.1983 18.4944L19.6563 22.0974L20.2562 24.7171L20.1208 25.9543L17.6579 26.4779L17.0573 28.1856L15.6572 28.7163L11.5103 29.6804L10.5452 30.6456L8.70697 35.2326L7.62246 36.4249L5.48797 37.3442L3.2753 37.4368Z" fill="#1E1E1E" stroke="white" stroke-width="5"/>
</svg>
