<svg width="133" height="82" viewBox="0 0 133 82" fill="none" xmlns="http://www.w3.org/2000/svg">
<path d="M67.3197 3.54159L68.5697 3.44937L71.6626 3.87917L74.0374 4.81123L75.8523 6.57442L78.2699 7.85073L81.1868 7.9577L83.0852 7.397L85.1538 7.16563L89.6361 7.30441L93.2885 9.40511L95.5733 11.2864L97.5065 11.9427L98.604 12.7468L100.738 13.5014L103.475 13.6666L106.034 13.2536L108.754 13.5104L109.697 14.0915L110.966 16.2293L113.889 18.647L114.941 18.7097L116.944 21.591L120.154 22.796L128.707 31.1202L129.527 31.2417L129.811 32.3542L129.732 38.4171L128.234 42.688L127.993 45.4524L127.431 47.1265L126.918 50.0775L127.085 52.3891L128.304 55.2416L128.096 57.0283L128.564 59.0226L127.363 59.6404L124.091 59.206L121.183 60.8843L120.05 62.0728L116.743 64.0986L115.353 64.5043L114.346 65.2549L110.414 65.284L107.818 65.7532L105.886 67.591L101.854 67.3558L98.6003 68.6402L96.2428 70.0156L94.9306 71.4333L93.2876 71.426L91.6585 72.3431L89.8685 72.6508L89.2425 73.2115L85.0364 74.4309L81.3372 76.8756L79.5038 76.9026L78.8674 76.0902L77.9836 76.6092L75.9893 76.6678L73.7992 78.0761L73.2327 76.4983L70.7922 76.2689L70.1401 77.27L68.9312 77.5288L67.99 76.0818L66.1224 74.6956L63.9098 75.3946L61.8802 75.5333L60.8963 73.6222L58.9658 72.2439L59.1356 71.1798L57.0804 69.5247L56.2358 67.4331L55.2147 66.4998L54.9463 65.5998L52.8494 63.3949L49.3437 61.9238L45.802 59.8572L43.4134 58.8006L39.8336 57.8668L37.9501 57.6144L36.3149 56.4709L33.7845 52.9036L31.549 50.5229L30.1541 48.7057L27.1313 46.2519L26.5463 45.2809L24.1617 43.5388L23.0489 42.3875L21.0007 40.9744L19.6929 40.5265L17.325 38.7622L15.0828 37.8612L12.5138 35.9994L12.5508 34.9302L11.0951 32.5777L9.95025 29.4436L7.9615 26.8164L5.04688 24.9352L5.46362 24.5615L8.02651 25.7705L9.18293 26.5847L11.5801 26.8328L14.1186 27.4382L17.7 27.014L19.0881 25.2577L19.4461 23.5273L20.1772 21.9547L21.7683 20.0388L24.4138 17.9347L30.0754 12.8149L32.4178 12.0535L33.6276 11.1242L35.9168 10.5682L38.6651 9.44781L42.5324 7.35998L45.8328 6.32397L48.2309 6.57707L49.792 5.74018L52.1638 6.39923L54.8727 5.9315L60.0134 3.77878L62.957 2.80652L64.3505 2.75391L67.3197 3.54159Z" fill="#1E1E1E" stroke="white" stroke-width="5"/>
</svg>
