<svg width="209" height="169" viewBox="0 0 209 169" fill="none" xmlns="http://www.w3.org/2000/svg">
<path d="M92.2372 115.059L91.3394 114.735L92.0113 113.486L93.1635 112.446L93.8849 110.173L94.7864 109.244L96.0953 109.482L95.2293 111.087L95.2995 111.746L94.1927 112.815L93.0646 114.487L92.2372 115.059ZM119.271 98.552L119.716 99.0333L118.563 100.808L117.819 101.195L116.851 99.5418L117.811 98.5655L119.271 98.552ZM54.0153 10.378L56.2489 10.3237L57.6953 11.4552L57.5159 12.9006L56.2752 13.7943L56.1879 15.3324L53.2686 15.8385L50.5757 15.3522L48.5679 14.191L50.204 13.5022L51.2831 12.2686L51.1424 11.2139L52.2406 10.6301L54.0153 10.378ZM205.272 5.418L204.751 6.77986L205.141 7.95911L204.898 9.7918L203.659 11.5111L202.359 12.5484L199.056 13.7251L198.038 14.8331L198.576 17.6225L200.087 19.9556L201.685 20.6223L204.46 18.5131L204.966 18.9391L201.273 21.7657L200.572 23.7998L200.873 25.3524L202.47 28.5425L202.336 29.2898L204.094 36.4162L203.555 39.3713L200.461 42.2821L198.681 43.0201L197.186 43.0618L192.138 45.7215L190.26 46.5869L189.253 47.6323L188.795 49.23L188.974 50.7033L186.824 51.6962L185.345 54.4707L185.628 56.5036L179.902 59.1082L178.64 60.187L176.782 62.83L175.569 65.4488L175.051 68.479L174.489 69.9751L174.103 74.1346L174.336 76.7931L175.044 79.7652L176.264 82.3934L176.274 83.9613L174.133 84.7262L170.935 81.7097L169.91 81.2876L164.729 82.7383L162.346 84.5099L160.947 87.4095L160.414 91.5784L161.746 95.9073L162.525 97.1265L163.487 97.2814L165.29 96.4765L167.297 96.9051L167.128 98.1012L164.559 99.8927L162.22 100.755L159.803 100.323L158.696 100.839L156.723 101.169L154.305 103.333L153.598 106L153.687 108.296L154.252 110.393L155.5 112.995L157.782 113.27L159.259 114.277L159.196 115.343L159.766 116.41L161.378 117.35L161.298 118.665L159.086 120.01L157.42 118.961L156.428 118.98L154.442 121.828L154.195 123.598L154.451 125.948L155.93 130.811L157.104 132.626L159.751 135.309L160.392 136.217L160.415 137.308L161.855 136.912L163.37 137.939L164.927 139.528L166.807 142.429L167.014 143.285L168.102 144.609L169.08 145.025L169.753 147.464L169.166 149.069L167.662 149.638L166.103 149.788L164.025 150.415L162.007 151.763L160.359 152.227L159.691 152.995L158.939 154.837L158.549 158.983L159.073 160.261L160.508 161.585L162.51 164.03L161.035 165.378L159.368 165.784L157.811 165.695L154.039 164.942L151.817 163.876L145.87 161.845L141.376 160.121L138.401 159.345L137.42 158.775L135.554 158.954L135.037 157.711L133.914 156.673L132.77 154.656L132.617 153.429L129.999 150.493L128.678 149.518L128.792 148.261L130.383 146.482L131.307 142.627L131.898 141.257L131.557 140.291L129.718 138.871L127.472 136.297L125.149 135.191L122.49 135.087L119.369 134.504L117.4 134.639L117.454 132.992L114.716 131.194L114.909 130.395L116.067 130.163L116.073 128.409L114.525 127.497L112.857 125.889L111.75 125.341L110.216 123.855L109.46 121.452L106.633 120.92L105.62 119.816L104.321 121.621L104.442 122.475L102.677 122.301L103.752 119.653L103.202 118.904L104.955 118.062L106.208 115.768L107.843 116.057L112.012 116.21L114.327 115.696L116.351 113.877L116.918 112.677L119.042 111.749L118.745 110.209L117.962 109.374L116.884 107.121L115.503 106.566L115.903 105.096L116.881 104.423L121.56 99.3402L123.858 94.6498L123.099 92.6161L119.687 91.6689L117.975 90.4028L117.282 89.5174L117.894 87.7924L117.885 86.1101L117.028 85.0736L114.591 83.8059L112.465 82.9747L109.09 82.6582L105.197 83.4218L102.807 83.5487L101.007 84.2303L100.592 85.4519L101.015 86.0128L99.8283 87.2437L97.3917 87.6449L97.0811 88.808L95.7517 90.2401L94.6496 90.8658L93.4523 92.7634L91.019 93.7744L90.4267 94.9307L88.6209 95.2609L86.4395 96.1697L86.0541 97.7295L84.8833 98.2229L84.1652 99.3375L80.7795 101.04L80.9199 102.512L83.0956 101.669L84.682 100.369L85.6875 100.251L86.7311 99.0718L89.2752 99.3495L92.8717 100.071L93.7077 100.855L92.9892 101.855L93.86 102.857L95.3854 102.477L95.6558 103.568L97.6977 104.383L100.32 104.05L99.2832 105.927L98.3455 105.493L96.8369 105.618L94.5266 104.886L91.9692 103.337L89.98 103.324L88.7365 104.423L87.7368 104.673L86.2073 105.711L86.2705 108.65L83.7243 109.897L82.5412 112.362L82.7826 113.163L81.7509 114.342L80.4816 116.511L79.7658 118.313L78.3324 118.651L78.2849 120.413L77.4186 121.465L76.4085 121.79L75.3549 123.197L75.6022 124.03L75.1139 125.266L77.5531 127.764L79.1473 128.149L79.9637 127.768L80.6409 126.641L80.603 124.984L81.3093 124.081L82.4276 123.561L83.1741 122.538L84.5931 123.682L84.3895 124.549L83.2481 125.251L82.6909 126.477L82.9284 128.031L84.2785 128.91L86.1514 128.624L86.098 130.431L87.0239 130.87L89.9162 128.926L89.3543 130.824L87.7738 131.775L88.1652 133.226L87.8132 134.202L89.0834 135.415L89.0008 136.888L88.2792 138.817L88.2309 140.305L90.0522 143.064L91.4541 144.52L91.9927 145.62L94.8186 148.428L96.5676 149.582L97.1977 150.524L97.9387 153.137L98.778 153.283L98.9693 154.994L101.703 156.151L103.207 155.436L103.05 157.062L101.897 157.223L100.783 156.092L98.9693 154.994L98.2408 156.206L96.9792 156.14L92.649 154.412L91.1186 154.08L90.5489 154.604L88.7558 154.356L87.826 154.621L86.6143 153.978L84.5466 153.404L83.2295 154.101L82.9175 155.119L81.9471 155.065L79.9906 155.812L78.0812 154.587L76.0029 154.331L74.0856 154.76L70.4476 154.097L69.352 154.22L68.4461 154.958L65.1625 154.457L63.4515 150.641L63.2713 149.431L60.4607 148.754L58.6196 149.975L57.569 149.853L56.636 149.002L55.5499 150.556L55.8837 151.565L54.5309 151.662L54.9927 149.405L54.7761 147.402L56.636 149.002L57.3134 148.259L58.621 146.167L59.2553 146.358L59.7865 144.262L59.7997 142.886L58.9985 142.172L59.1615 138.993L60.1391 137.295L61.8476 137.703L63.4271 136.705L63.705 136.045L63.5901 133.514L65.316 131.648L65.6682 130.797L65.4962 128.286L66.6489 125.643L67.4301 125.13L68.5858 125.826L69.5777 125.018L71.161 125.388L72.0163 124.684L71.4628 122.574L71.7354 121.828L73.1584 122.03L73.0014 120.998L71.8508 119.938L68.935 119.179L67.8336 119.499L64.8517 119.761L64.9111 120.668L63.5773 121.895L62.7306 121.329L61.1628 122.488L61.1653 123.538L62.191 124.75L60.6325 125.222L59.3864 126.988L59.9044 128.505L58.5068 129.245L57.1739 128.384L55.0138 130.165L55.8737 131.257L55.2601 132.477L54.3589 132.874L50.435 132.879L50.0642 131.02L50.8527 129.102L51.656 128.397L52.5473 126.448L52.0544 125.804L50.0399 126.562L49.1418 126.147L49.8265 123.784L49.1214 123.014L46.6326 121.761L43.9703 121.742L43.1791 122.722L42.0182 122.393L40.5052 122.623L39.0419 124.098L39.7421 125.203L39.7346 126.487L37.8128 127.55L34.8545 127.705L32.2154 129.524L29.0731 129.257L28.7682 130.263L28.9786 131.667L30.0602 132.327L28.5437 133.218L27.7546 132.917L26.4261 130.214L27.046 129.455L26.4823 128.315L24.3958 127.812L23.8226 128.901L21.7438 129.008L20.9298 128.142L19.5937 128.332L19.2919 130.194L18.3616 130.369L17.982 131.283L16.7464 132.369L15.245 132.58L14.1858 133.44L13.2578 131.092L11.7327 131.134L11.8305 132.889L10.4379 133.107L10.2448 131.829L11.2215 130.407L10.968 128.293L12.3141 127.733L13.1838 128.064L15.6417 127.032L15.8713 125.739L15.3492 125.166L16.0589 123.89L18.3105 122.572L19.3436 122.315L19.9099 119.341L19.0887 118.104L17.341 116.661L15.1277 116.12L12.9558 117.479L12.9026 118.614L12.1483 120.007L11.0469 117.302L13.3695 116.574L13.2434 114.924L11.9809 113.425L11.892 112.657L13.6469 112.826L14.5621 111.504L13.5843 109.759L14.2859 109.455L15.3116 110.248L17.0914 109.288L17.2504 107.485L16.5562 106.721L14.7114 107.065L13.0055 106.178L12.8344 104.774L14.1795 103.803L16.0689 104.69L17.2488 103.831L17.8557 102.52L18.2244 100.184L17.842 98.6971L16.5356 97.8775L14.8795 98.3156L14.0138 97.5786L15.446 95.3698L18.694 94.0124L20.2883 92.2605L20.6038 90.9111L20.13 89.5007L20.023 86.7414L21.7157 83.6176L22.2597 82.1364L23.0349 81.3819L23.283 78.7871L22.4874 76.8778L21.2337 75.0373L20.0761 74.2396L20.1818 73.4341L18.5626 71.6866L17.7154 71.4533L15.9603 71.727L15.6712 70.8825L14.5559 70.8378L12.7914 71.6494L10.583 68.4619L12.891 67.6595L12.8847 65.9457L12.0023 63.9869L13.0572 63.0982L11.1502 58.006L9.99101 57.0282L9.45493 56.012L9.87307 54.5921L9.07673 54.331L11.5145 48.2945L11.4878 45.6564L11.7346 44.3862L11.2468 42.4721L11.2475 41.0732L10.3641 39.0286L10.5018 37.6169L9.87539 37.0231L8.76122 37.5421L6.41401 37.4173L4.85547 37.0271L6.3028 35.2989L6.09338 34.4067L8.5453 33.4141L10.2529 33.8461L10.3787 36.9461L12.5667 37.2208L14.6803 36.0128L16.1906 35.7761L16.6716 34.2884L19.4198 32.7507L20.9314 32.8461L24.1404 32.1153L27.1333 31.8226L28.5326 32.5148L32.8163 33.0136L34.0981 32.8034L34.9657 32.0646L36.2647 31.8947L37.4989 32.9256L38.1157 32.547L38.0071 30.6689L39.9986 30.502L45.8492 28.4182L46.9555 28.8786L50.9316 25.7619L52.4463 24.8657L53.7369 23.5976L55.9155 22.5584L56.694 22.5256L57.3615 23.7071L59.2026 24.9754L60.0314 26.5939L61.4676 26.2692L62.1509 27.0591L60.8112 29.2589L61.0757 31.9287L61.9672 33.6283L62.8272 34.1315L65.4425 33.7364L66.0065 32.691L67.9906 31.7157L68.5378 30.8073L70.3721 31.7011L70.794 33.4319L72.7193 31.8037L73.6385 30.6114L75.2188 30.8612L76.8001 28.8596L79.1346 28.2443L80.5947 28.1751L80.8837 29.6095L82.4167 29.0378L82.4985 26.9304L84.1239 26.6691L85.3509 27.5068L86.563 26.7765L89.5946 28.3282L91.5804 27.9205L92.1137 28.5114L94.5911 27.587L95.5233 26.8816L98.4723 23.8583L101.5 23.3968L103.391 24.2241L101.281 25.7711L102.015 26.4937L103.4 26.3871L104.352 27.0498L102.573 28.2466L102.546 29.3849L103.531 29.5817L104.962 29.1382L106.148 29.8872L105.858 30.9874L107.902 31.574L108.471 32.3373L108.077 33.2672L108.734 33.8972L110.423 33.5377L111.929 33.6304L112.487 34.5882L113.673 35.2229L115.986 34.8868L116.352 36.6715L117.133 36.5967L118.863 35.2424L119.791 34.0771L120.948 33.9105L120.615 35.3849L119.363 36.4025L119.926 37.5292L117.425 38.8782L116.835 40.1228L117.184 41.4095L115.641 42.1457L115.43 43.1697L116.385 44.5194L117.281 46.9639L116.363 48.347L116.943 49.2221L116.597 50.1126L119.125 51.2616L120.258 53.6324L121.66 54.279L123.107 54.0881L125.88 55.2038L126.63 56.0757L128.373 55.8321L128.16 57.2995L124.344 58.5632L123.558 59.1928L121.576 59.951L121.689 60.8939L122.987 63.0611L123.97 64.0909L125.398 64.8782L126.513 63.8815L129.636 65.3859L131.196 63.8809L133.263 63.3732L133.395 62.597L134.573 61.3926L136.625 59.895L137.46 58.3653L137.401 57.2372L135.991 55.2395L136.766 54.364L138.157 54.7364L138.766 53.8986L141.421 52.5074L140.97 50.4552L141.809 48.3305L142.416 47.8531L143.676 48.0149L146.551 47.7917L147.855 47.3277L149.112 50.2074L147.142 51.0562L144.585 51.4129L144.106 52.0065L146.028 54.4927L147.078 54.4311L148.1 53.0703L149.121 52.5106L148.974 51.5156L150.331 50.5776L152.338 50.1415L154.773 50.2068L156.019 49.4246L157.424 47.552L157.727 45.6999L157.231 44.4451L155.356 43.0606L154.053 43.0781L151.612 41.6937L153.444 40.5284L154.01 38.9405L156.249 36.783L158.061 37.0594L159.468 36.0681L159.527 34.813L158.642 33.8068L159.353 32.5645L161.62 30.8998L162.608 30.8663L165.442 28.6554L166.55 28.3549L166.529 27.3962L167.943 26.4338L169.134 24.6184L168.592 21.4602L168.57 18.5102L166.145 16.6076L167.076 15.223L169.099 14.1012L170.483 13.8566L172.369 14.6326L173.663 16.066L173.227 17.3466L173.649 18.1284L177.966 18.9482L177.181 19.9544L178.344 21.1628L178.237 22.0537L179.819 23.0827L181.091 22.6907L182.195 23.2659L183.436 23.2741L184.628 21.7853L187.927 19.6347L188.765 17.5796L188.062 16.5042L190.999 13.4098L191.332 12.6198L193.912 10.5069L197.286 8.58711L198.14 7.55663L200.825 5.46872L202.726 4.48965L204.926 3.87891L205.272 5.418Z" fill="#1E1E1E"/>
<path d="M98.9693 154.994L98.778 153.283L97.9387 153.137L97.1977 150.524L96.5676 149.582L94.8186 148.428L91.9927 145.62L91.4541 144.52L90.0522 143.064L88.2309 140.305L88.2792 138.817L89.0008 136.888L89.0834 135.415L87.8132 134.202L88.1652 133.226L87.7738 131.775L89.3543 130.824L89.9162 128.926L87.0239 130.87L86.098 130.431L86.1514 128.624L84.2785 128.91L82.9284 128.031L82.6909 126.477L83.2481 125.251L84.3895 124.549L84.5931 123.682L83.1741 122.538L82.4276 123.561L81.3093 124.081L80.603 124.984L80.6409 126.641L79.9636 127.768L79.1473 128.149L77.5531 127.764L75.1139 125.266L75.6022 124.03L75.3549 123.197L76.4085 121.79L77.4186 121.465L78.2848 120.413L78.3324 118.651L79.7658 118.313L80.4816 116.511L81.7509 114.342L82.7826 113.163L82.5412 112.362L83.7243 109.897L86.2705 108.65L86.2073 105.711L87.7368 104.673L88.7366 104.423L89.98 103.324L91.9692 103.337L94.5266 104.886L96.8369 105.618L98.3455 105.493L99.2832 105.927L100.32 104.05L97.6977 104.383L95.6558 103.568L95.3854 102.477L93.86 102.857L92.9892 101.855L93.7077 100.855L92.8717 100.071L89.2752 99.3495L86.7311 99.0718L85.6875 100.251L84.682 100.369L83.0956 101.669L80.9199 102.512L80.7795 101.04L84.1652 99.3375L84.8833 98.2229L86.0541 97.7295L86.4395 96.1697L88.6209 95.2609L90.4267 94.9307L91.019 93.7744L93.4523 92.7634L94.6496 90.8658L95.7517 90.2401L97.0811 88.808L97.3917 87.6449L99.8283 87.2437L101.015 86.0128L100.592 85.4519L101.007 84.2303L102.807 83.5487L105.197 83.4218L109.09 82.6582L112.465 82.9747L114.591 83.8059L117.028 85.0736L117.885 86.1101L117.894 87.7924L117.282 89.5174L117.975 90.4028L119.687 91.6689L123.099 92.6161L123.858 94.6498L121.56 99.3402L116.881 104.423L115.903 105.096L115.503 106.566L116.884 107.121L117.962 109.374L118.745 110.209L119.042 111.749L116.918 112.677L116.351 113.877L114.327 115.696L112.012 116.21L107.843 116.057L106.208 115.768L104.955 118.062L103.202 118.904L103.752 119.653L102.677 122.301L104.442 122.475L104.321 121.621L105.62 119.816L106.633 120.92L109.46 121.452L110.216 123.855L111.75 125.341L112.857 125.889L114.525 127.497L116.073 128.409L116.067 130.163L114.909 130.395L114.716 131.194L117.454 132.992L117.4 134.639L119.369 134.504L122.49 135.087L125.149 135.191L127.472 136.297L129.718 138.871L131.557 140.291L131.898 141.257L131.307 142.627L130.383 146.482L128.792 148.261L128.678 149.518L129.999 150.493L132.617 153.429L132.77 154.656L133.914 156.673L135.037 157.711L135.554 158.954L137.42 158.775L138.401 159.345L141.376 160.121L145.87 161.845L151.817 163.876L154.039 164.942L157.811 165.695L159.368 165.784L161.035 165.378L162.51 164.03L160.508 161.585L159.073 160.261L158.549 158.983L158.939 154.837L159.691 152.995L160.359 152.227L162.007 151.763L164.025 150.415L166.103 149.788L167.662 149.638L169.166 149.069L169.753 147.464L169.08 145.025L168.102 144.609L167.014 143.285L166.807 142.429L164.927 139.528L163.37 137.939L161.855 136.912L160.415 137.308L160.392 136.217L159.751 135.309L157.104 132.626L155.93 130.811L154.451 125.948L154.195 123.598L154.442 121.828L156.428 118.98L157.42 118.961L159.086 120.01L161.298 118.665L161.378 117.35L159.766 116.41L159.196 115.343L159.259 114.277L157.782 113.27L155.5 112.995L154.252 110.393L153.687 108.296L153.598 106L154.305 103.333L156.723 101.169L158.696 100.839L159.803 100.323L162.22 100.755L164.559 99.8927L167.128 98.1012L167.297 96.9051L165.29 96.4765L163.487 97.2814L162.525 97.1265L161.746 95.9073L160.414 91.5784L160.947 87.4095L162.346 84.5099L164.729 82.7383L169.91 81.2876L170.935 81.7097L174.133 84.7262L176.274 83.9613L176.264 82.3934L175.044 79.7652L174.336 76.7931L174.103 74.1346L174.489 69.975L175.051 68.479L175.569 65.4488L176.782 62.83L178.64 60.187L179.902 59.1082L185.628 56.5036L185.345 54.4707L186.824 51.6962L188.974 50.7033L188.795 49.23L189.253 47.6323L190.26 46.5869L192.138 45.7215L197.186 43.0618L198.681 43.0201L200.461 42.2821L203.555 39.3713L204.094 36.4162L202.336 29.2898L202.47 28.5425L200.873 25.3524L200.572 23.7998L201.273 21.7657L204.966 18.9391L204.46 18.5131L201.685 20.6223L200.087 19.9556L198.576 17.6225L198.038 14.8331L199.056 13.7251L202.359 12.5484L203.659 11.5111L204.898 9.7918L205.141 7.9591L204.751 6.77986L205.272 5.418L204.926 3.87891L202.726 4.48965L200.825 5.46872L198.14 7.55663L197.286 8.58711L193.912 10.5069L191.332 12.6198L190.999 13.4098L188.062 16.5042L188.765 17.5796L187.927 19.6347L184.628 21.7853L183.436 23.2741L182.195 23.2659L181.091 22.6907L179.819 23.0827L178.237 22.0537L178.344 21.1628L177.181 19.9544L177.966 18.9482L173.649 18.1284L173.227 17.3466L173.663 16.066L172.369 14.6326L170.483 13.8566L169.099 14.1012L167.076 15.223L166.145 16.6076L168.57 18.5102L168.592 21.4602L169.134 24.6184L167.943 26.4338L166.529 27.3962L166.55 28.3549L165.442 28.6554L162.608 30.8663L161.62 30.8998L159.353 32.5645L158.642 33.8068L159.527 34.813L159.468 36.0681L158.061 37.0594L156.249 36.783L154.01 38.9405L153.444 40.5284L151.612 41.6937L154.053 43.0781L155.356 43.0606L157.231 44.4451L157.727 45.6999L157.424 47.552L156.019 49.4246L154.773 50.2068L152.338 50.1415L150.331 50.5776L148.974 51.5156L149.121 52.5106L148.1 53.0703L147.078 54.4311L146.028 54.4927L144.106 52.0065L144.585 51.4129L147.142 51.0562L149.112 50.2074L147.855 47.3277L146.551 47.7917L143.676 48.0149L142.416 47.8531L141.809 48.3305L140.97 50.4552L141.421 52.5074L138.766 53.8986L138.157 54.7364L136.766 54.364L135.991 55.2395L137.401 57.2372L137.46 58.3653L136.625 59.895L134.573 61.3926L133.395 62.597L133.263 63.3732L131.196 63.8809L129.636 65.3859L126.513 63.8815L125.398 64.8782L123.97 64.0909L122.987 63.0611L121.689 60.8939L121.576 59.951L123.558 59.1928L124.344 58.5632L128.16 57.2995L128.373 55.8321L126.63 56.0757L125.88 55.2038L123.107 54.0881L121.66 54.279L120.258 53.6324L119.125 51.2616L116.597 50.1126L116.943 49.2221L116.363 48.347L117.281 46.9639L116.385 44.5194L115.43 43.1697L115.641 42.1457L117.184 41.4095L116.835 40.1228L117.425 38.8782L119.926 37.5292L119.363 36.4025L120.615 35.3849L120.948 33.9105L119.791 34.0771L118.863 35.2424L117.133 36.5967L116.352 36.6715L115.986 34.8868L113.673 35.2229L112.487 34.5882L111.929 33.6304L110.423 33.5377L108.734 33.8972L108.077 33.2672L108.471 32.3373L107.902 31.574L105.858 30.9874L106.148 29.8872L104.962 29.1382L103.531 29.5817L102.546 29.3849L102.573 28.2466L104.352 27.0498L103.4 26.3871L102.015 26.4937L101.281 25.7711L103.391 24.2241L101.5 23.3968L98.4723 23.8583L95.5233 26.8816L94.5911 27.587L92.1137 28.5114L91.5804 27.9205L89.5946 28.3282L86.563 26.7765L85.3509 27.5068L84.1239 26.6691L82.4985 26.9304L82.4167 29.0378L80.8837 29.6095L80.5947 28.1751L79.1346 28.2443L76.8001 28.8596L75.2188 30.8612L73.6385 30.6114L72.7193 31.8037L70.794 33.4319L70.3721 31.7011L68.5378 30.8073L67.9906 31.7157L66.0065 32.691L65.4425 33.7364L62.8272 34.1315L61.9672 33.6283L61.0757 31.9287L60.8112 29.2589L62.1509 27.0591L61.4676 26.2692L60.0314 26.5939L59.2026 24.9754L57.3615 23.7071L56.694 22.5256L55.9155 22.5584L53.7369 23.5976L52.4463 24.8657L50.9316 25.7619L46.9555 28.8786L45.8492 28.4182L39.9986 30.502L38.0071 30.6689L38.1157 32.547L37.4989 32.9256L36.2647 31.8947L34.9657 32.0646L34.0981 32.8034L32.8163 33.0136L28.5326 32.5148L27.1333 31.8226L24.1404 32.1153L20.9314 32.8461L19.4198 32.7507L16.6716 34.2884L16.1906 35.7761L14.6803 36.0128L12.5667 37.2208L10.3787 36.9461L10.2529 33.8461L8.5453 33.4141L6.09338 34.4067L6.3028 35.2989L4.85547 37.0271L6.41401 37.4173L8.76122 37.5421L9.87539 37.0231L10.5018 37.6169L10.3641 39.0286L11.2475 41.0732L11.2468 42.4722L11.7346 44.3862L11.4878 45.6564L11.5145 48.2945L9.07673 54.331L9.87307 54.5921L9.45493 56.012L9.99101 57.0282L11.1502 58.006L13.0572 63.0982L12.0023 63.9869L12.8847 65.9457L12.891 67.6595L10.583 68.4619L12.7914 71.6494L14.5559 70.8378L15.6712 70.8825L15.9603 71.727L17.7154 71.4533L18.5626 71.6866L20.1818 73.4341L20.0761 74.2396L21.2337 75.0373L22.4874 76.8778L23.283 78.7871L23.0349 81.3819L22.2597 82.1364L21.7157 83.6176L20.023 86.7414L20.13 89.5007L20.6038 90.9111L20.2883 92.2605L18.694 94.0124L15.446 95.3697L14.0138 97.5786L14.8795 98.3156L16.5356 97.8775L17.842 98.6971L18.2244 100.184L17.8557 102.52L17.2488 103.831L16.0689 104.69L14.1795 103.803L12.8344 104.774L13.0055 106.178L14.7114 107.065L16.5562 106.721L17.2504 107.485L17.0914 109.288L15.3116 110.248L14.2859 109.455L13.5843 109.759L14.5621 111.504L13.6469 112.826L11.892 112.657L11.9809 113.425L13.2434 114.924L13.3695 116.574L11.0469 117.302L12.1483 120.007L12.9026 118.614L12.9558 117.479L15.1277 116.12L17.341 116.661L19.0887 118.104L19.9099 119.341L19.3436 122.315L18.3105 122.572L16.0589 123.89L15.3492 125.166L15.8713 125.739L15.6417 127.032L13.1838 128.064L12.3141 127.733L10.968 128.293L11.2215 130.407L10.2448 131.829L10.4379 133.107L11.8305 132.889L11.7327 131.134L13.2578 131.092L14.1858 133.44L15.245 132.58L16.7464 132.369L17.982 131.283L18.3616 130.369L19.2919 130.194L19.5937 128.332L20.9298 128.142L21.7438 129.008L23.8226 128.901L24.3958 127.812L26.4823 128.315L27.046 129.455L26.4261 130.214L27.7546 132.917L28.5437 133.218L30.0602 132.327L28.9786 131.667L28.7682 130.263L29.0731 129.257L32.2154 129.524L34.8545 127.705L37.8128 127.55L39.7346 126.487L39.7421 125.203L39.0419 124.098L40.5052 122.623L42.0182 122.393L43.1791 122.722L43.9703 121.742L46.6326 121.761L49.1214 123.014L49.8265 123.784L49.1418 126.147L50.0399 126.562L52.0544 125.804L52.5473 126.448L51.656 128.397L50.8527 129.102L50.0642 131.02L50.435 132.879L54.3589 132.874L55.2601 132.477L55.8737 131.257L55.0138 130.165L57.1739 128.384L58.5068 129.245L59.9044 128.505L59.3864 126.988L60.6325 125.222L62.191 124.75L61.1653 123.538L61.1627 122.488L62.7306 121.329L63.5773 121.895L64.9111 120.668L64.8517 119.761L67.8336 119.499L68.935 119.179L71.8508 119.938L73.0014 120.998L73.1584 122.03L71.7354 121.828L71.4628 122.574L72.0163 124.684L71.161 125.388L69.5776 125.018L68.5858 125.826L67.4301 125.13L66.6489 125.643L65.4962 128.286L65.6682 130.797L65.316 131.648L63.5901 133.514L63.705 136.045L63.4271 136.705L61.8476 137.703L60.1391 137.295L59.1615 138.993L58.9985 142.172L59.7997 142.886L59.7865 144.262L59.2553 146.358L58.621 146.167L57.3134 148.259L56.636 149.002M98.9693 154.994L101.703 156.151L103.207 155.436L103.05 157.062L101.897 157.223L100.783 156.092L98.9693 154.994ZM98.9693 154.994L98.2408 156.206L96.9792 156.14L92.649 154.412L91.1186 154.08L90.5488 154.604L88.7558 154.356L87.826 154.621L86.6143 153.978L84.5466 153.404L83.2295 154.101L82.9175 155.119L81.9471 155.065L79.9906 155.812L78.0812 154.587L76.0029 154.331L74.0856 154.76L70.4476 154.097L69.352 154.22L68.4461 154.958L65.1625 154.457L63.4515 150.641L63.2713 149.431L60.4607 148.754L58.6196 149.975L57.569 149.853L56.636 149.002M56.636 149.002L55.5499 150.556L55.8837 151.565L54.5309 151.662L54.9927 149.405L54.7761 147.402L56.636 149.002ZM92.2372 115.059L91.3394 114.735L92.0113 113.486L93.1635 112.446L93.8849 110.173L94.7864 109.244L96.0953 109.482L95.2293 111.087L95.2995 111.746L94.1927 112.815L93.0646 114.487L92.2372 115.059ZM119.271 98.552L119.716 99.0333L118.563 100.808L117.819 101.195L116.851 99.5418L117.811 98.5655L119.271 98.552ZM54.0152 10.378L56.2489 10.3237L57.6953 11.4552L57.5159 12.9006L56.2752 13.7943L56.1879 15.3324L53.2686 15.8385L50.5757 15.3522L48.5679 14.191L50.204 13.5022L51.2831 12.2686L51.1424 11.2139L52.2406 10.6301L54.0152 10.378Z" stroke="white" stroke-width="5"/>
</svg>
