<svg width="49" height="71" viewBox="0 0 49 71" fill="none" xmlns="http://www.w3.org/2000/svg">
<path d="M19.5215 2.97102L21.0273 3.38576L21.2551 4.54411L22.6184 4.48808L23.0126 5.93171L24.5707 7.77765L26.1559 8.88588L27.6432 9.24611L31.2169 10.7721L34.7212 13.1787L35.1173 14.9544L36.5159 15.4141L37.5423 16.2559L37.4536 17.0302L38.8202 18.534L42.8002 21.8338L44.671 22.3538L46.0909 23.6982L45.55 25.3083L44.5633 27.0391L44.0527 29.4078L40.8881 30.6267L39.7203 32.1379L40.7587 33.2402L39.2524 34.3813L38.0614 34.4904L36.4277 36.2339L35.333 36.3128L34.1313 37.3459L34.3001 38.4494L33.1813 39.8557L33.0322 40.9698L31.6193 42.8733L30.0716 46.4835L29.0371 46.4602L28.0362 47.3444L26.5322 47.8593L25.6421 47.0108L23.1925 48.5766L21.6245 49.2484L20.9556 50.4483L19.6369 51.7868L18.7848 53.1678L18.0064 53.6111L17.0183 56.3554L16.9632 57.3419L14.857 58.7604L14.369 60.3515L13.4062 62.0518L13.4594 63.0539L12.0654 66.5834L11.2761 67.0325L10.4749 64.7375L8.69716 63.8309L9.32587 62.4073L8.23608 61.2823L9.51811 60.0947L7.40585 59.2016L6.94012 57.8517L6.64945 55.5568L5.30729 53.8941L5.35256 51.1793L4.77168 48.409L5.37601 46.696L4.02271 46.1834L4.63285 44.708L3.96885 44.2859L4.68253 42.3881L4.6094 40.1585L4.11604 39.0772L3.84766 37.206L4.14831 35.8359L4.96043 34.2368L4.50655 32.4664L5.82618 31.6024L5.20676 30.0278L6.09968 29.3652L6.3546 26.398L6.17745 25.0056L7.77244 24.4565L7.71208 22.7363L7.07083 22.3344L7.14095 20.5899L9.06422 19.5438L10.61 19.97L12.0596 18.8415L11.859 16.5047L13.494 15.7274L14.3114 14.7665L14.4062 13.3283L13.6992 12.7855L14.1668 11.0281L15.0089 10.5884L15.3478 7.99993L14.9924 7.20059L15.6469 6.07495L16.9245 6.00908L17.9423 4.86163L17.0645 4.32258L18.8108 2.96875L19.5215 2.97102Z" fill="#1E1E1E" stroke="white" stroke-width="5"/>
</svg>
