<svg width="175" height="181" viewBox="0 0 175 181" fill="none" xmlns="http://www.w3.org/2000/svg">
<path d="M135.503 169.113L136.831 170.149L137.638 171.254L140.24 170.087L141.542 170.236L142.938 171.662L141.297 173.294L142.43 173.499L142.373 176.641L141.559 177.82L140.832 178.026L139.68 177.02L137.063 176.807L136.926 174.522L135.785 175.728L136.046 176.726L133.085 176.125L131.808 176.745L128.571 176.529L128.255 175.025L126.845 174.1L127.787 172.277L128.368 172.109L130.054 170.49L128.912 168.362L129.456 167.172L131.044 166.559L133.246 167.017L135.503 169.113ZM123.759 164.539L125.098 164.796L126.126 165.585L125.228 167.547L126.625 169.322L126.167 169.86L124.661 169.627L124.564 167.592L122.162 166.657L121.632 167.04L120.023 166.772L119.186 165.611L119.407 164.908L121.686 163.847L123.759 164.539ZM48.7339 127.105L48.0128 129.39L47.0811 127.297L45.6793 126.535L45.7246 125.842L46.8478 124.288L48.1628 121.161L49.3561 121.416L49.3034 123.616L48.7339 127.105ZM84.3402 119.706L84.864 120.742L84.8438 122.066L83.9931 124.783L84.1636 125.702L83.0533 127.885L83.2781 129.28L82.3608 130.239L80.9661 130.212L80.5199 132.321L79.8685 133.136L77.817 134.269L79.1142 136.737L78.8964 138.57L78.2001 140.097L77.339 140.516L77.1906 141.875L77.6002 143.751L76.5568 145.348L74.7533 144.334L74.6633 143.457L73.7355 142.857L73.153 140.693L72.2076 140.414L71.6788 141.161L70.5985 140.72L70.3392 139.499L71.1392 137L72.2569 135.964L72.2399 134.373L74.9224 132.505L75.256 130.231L75.7828 129.233L77.0191 129.065L77.4286 127.399L77.0773 126.118L80.1373 123.674L80.435 121.678L81.0792 119.928L82.9421 119.592L84.3402 119.706ZM10.4358 113.947L11.5426 113.222L11.7039 114.842L14.2517 116.086L15.3408 117.598L18.9083 118.626L18.5475 120.327L19.1681 122.032L17.0872 123.603L15.5034 122.312L15.0639 124.207L12.7656 125.348L11.3543 127.037L10.2933 127.373L9.82455 126.521L8.507 126.276L8.3006 124.655L6.53451 125.178L5.27941 124.606L4.37558 122.897L5.95246 121.447L4.05078 120.779L4.8362 119.125L6.53334 119.4L6.31882 117.88L6.52406 116.258L7.89895 117.193L7.64844 114.946L9.10622 113.467L9.41802 112.318L10.5359 112.826L10.4358 113.947ZM50.0445 97.0902L52.4648 97.723L52.7207 98.9948L51.2334 99.7944L48.5702 99.6899L48.4114 98.0981L50.0445 97.0902ZM58.2706 61.0526L59.8471 61.2181L59.7983 62.328L58.4297 62.1322L58.2706 61.0526ZM74.7624 30.699L77.4405 31.8349L77.4922 32.9254L78.7548 33.1414L78.1207 34.8977L79.2442 35.7336L80.2722 34.446L81.4003 34.3636L83.5588 35.5575L85.8561 38.6353L85.558 40.8083L86.302 42.1689L87.9716 42.4017L89.6745 43.5075L90.6786 42.5432L90.9073 44.0526L92.9504 44.6626L92.7147 45.6142L94.6113 46.953L95.8051 46.983L95.5193 48.1401L97.87 48.2887L97.9624 49.9689L99.1516 50.0333L100.44 51.2887L104.044 52.6669L106.495 54.3846L107.509 54.2736L108.179 55.4624L110.77 56.6146L112.825 58.3759L113.684 58.5473L113.939 60.3946L115.759 62.2033L117.542 63.4079L119.034 63.7753L119.771 64.7501L121.077 64.6069L120.709 66.2155L119.875 66.8368L119.494 69.4869L116.992 71.0017L115.796 73.3978L115.472 74.9695L115.562 76.9732L115.272 78.7141L115.652 82.4193L116.509 83.9815L116.805 86.7848L117.634 87.4883L117.533 88.9556L118.203 89.8184L118.463 91.2623L119.235 92.5006L117.717 93.7957L116.096 94.1572L114.708 94.921L114.481 96.3446L116.19 97.5374L117.579 97.7294L116.104 99.8604L117.167 100.992L118.925 100.883L120.17 99.1683L120.341 98.3167L122.457 98.7969L121.561 100.316L122.269 100.773L124.321 99.9252L125.705 100.106L128.228 101.199L127.71 102.883L126.947 103.783L127.536 104.928L129.534 105.834L130.602 108.637L132.497 108.916L134.049 111.319L137.589 110.233L138.653 111.233L140.661 111.74L141.308 113.879L142.907 114.127L143.391 115.742L145.158 115.205L145.928 117.156L147.687 117.441L148.892 118.107L149.997 119.918L152.073 120.454L152.66 121.562L155.381 123.276L155.228 124.772L156.828 124.108L159.532 126.563L158.741 128.42L160.476 128.319L161.762 128.677L162.655 130.424L162.571 132.343L163.44 134.027L164.203 133.497L165.072 135.584L164.708 136.998L165.905 138.137L168.063 137.129L169.17 138.851L169.913 139.012L169.416 140.688L169.423 142.983L170.131 143.841L170.933 146.325L171.479 148.773L170.65 150.266L168.347 150.4L167.094 151.512L167.547 152.492L166.771 153.711L167.328 154.622L169.36 155.605L169.95 156.851L169.758 158.177L170.253 158.702L169.487 161.377L166.942 159.993L163.69 160.781L162.329 161.495L161.831 162.928L160.565 162.432L159.031 162.418L157.925 163.715L157.863 165.228L155.86 165.354L154.45 166.256L154.343 164.407L153.279 165.575L151.031 164.703L148.774 165.188L147.898 163.636L148.961 161.698L148.927 160.379L148.058 159.8L144.888 161.237L145.919 162.704L145.077 164.501L143.282 164.428L143.53 165.737L140.899 167.473L139.545 166.889L137.24 166.721L136.179 165.403L136.007 163.654L133.709 163.363L132.904 162.119L133.318 159.603L132.081 158.447L132.095 156.702L130.757 154.65L129.854 154.051L127.103 150.985L126.209 150.71L123.83 151.459L122.574 150.418L121.783 151.471L120.353 152.458L119.831 153.467L118.991 153.662L116.899 152.936L115.577 155.97L114.315 156.193L113.187 155.082L112.606 155.267L113.386 157.303L113.296 159.67L114.065 159.732L114.892 161.142L114.963 162.51L115.823 164.264L115.576 166.638L115.215 167.362L115.113 169.534L111.952 168.32L110.829 165.572L109.897 165.16L109.755 163.845L108.595 164.611L107.052 163.96L105.74 162.75L105.994 160.943L106.888 158.717L106.843 157.812L102.498 157.176L101.96 156.2L103.248 153.034L102.662 151.98L101.393 151.993L99.9022 153.895L98.3529 155.031L96.607 154.202L96.1109 153.5L95.7417 151.266L97.1658 148.121L95.8687 147.232L95.7359 146.605L97.1422 145.394L97.8484 145.249L99.3533 146.12L99.1845 147.212L100.234 147.931L102.366 142.899L103.402 143.188L103.92 141.706L104.942 141.559L105.958 142.68L106.577 142.269L108.238 142.525L109.744 142.151L111.401 142.282L111.759 140.928L114.205 139.384L114.643 137.861L113.859 136.777L114.135 135.494L113.22 133.451L113.796 132.593L113.349 129.64L113.869 128.951L113.904 127.349L112.746 124.755L113.713 124.097L114.316 122.258L113.606 119.761L111.91 117.844L110.024 116.74L108.364 116.552L107.368 117.021L105.756 120.161L104.325 120.058L103.446 120.631L102.9 121.763L101.428 122.166L100.523 121.726L98.2909 118.416L99.0065 116.566L98.2837 116.027L97.8593 114.012L98.2865 112.885L97.6501 112.389L96.2149 112.701L95.4538 114.35L94.2398 114.166L93.2032 115.473L90.5089 114.527L89.0593 113.134L87.5488 114.278L86.0764 115.901L85.795 116.818L84.0082 118.327L82.738 118.675L82.4325 117.755L84.0786 116.093L84.1559 113.552L83.6897 111.85L84.6915 109.975L85.9208 109.393L86.3424 108.628L85.4649 107.479L84.0763 107.668L83.2407 108.734L81.0502 109.088L79.6472 108.825L77.4321 110.167L76.1494 111.539L75.4018 110.404L73.5154 108.623L72.3822 108.84L72.3019 110.213L71.1413 109.752L70.595 108.221L70.839 107.552L72.8726 106.342L72.5872 103.79L72.7792 102.899L71.2806 101.242L70.973 98.8656L69.9986 97.1864L68.3383 97.1832L68.2028 98.9395L67.0893 99.2684L66.6577 100.414L65.1296 101.361L64.2729 101.406L63.4162 99.7013L63.3017 98.0725L61.0687 93.1047L60.1456 92.8482L58.2632 95.0592L56.83 95.9734L52.257 96.5401L50.279 96.313L48.1307 95.7244L47.1452 93.897L47.0212 92.5228L48.1168 91.4808L50.2785 90.2207L51.9991 87.545L53.0107 87.3898L54.0659 86.4879L54.747 85.2007L55.3535 85.4355L57.8897 83.6912L58.422 82.329L57.4265 80.7187L57.6782 78.7197L57.475 76.8129L58.2676 76.3389L58.6474 74.8101L60.1879 74.5631L61.5013 73.7688L62.0619 74.3467L63.89 72.6908L65.6341 70.3478L64.4319 68.4528L64.6053 66.8255L63.6855 66.1625L63.7992 64.0799L64.6627 62.2817L64.0669 60.8078L61.7005 61.3879L60.111 59.9403L58.842 59.6791L58.0742 58.6537L59.5295 57.6796L60.2373 56.5014L58.3164 55.659L58.5184 54.7271L56.4416 52.9195L57.6466 52.2475L56.8681 49.857L56.0154 49.3548L57.0436 47.7661L58.962 47.3008L60.3348 45.3534L59.8689 44.4039L59.9464 42.9534L61.5268 42.1718L61.7682 39.8322L63.1332 38.151L65.6194 37.7548L67.8691 34.5618L68.4368 32.1639L70.4404 31.8685L70.3264 32.7234L71.6959 32.7537L73.069 31.834L73.4423 30.0647L74.2658 29.1192L74.7624 30.699ZM74.4485 14.1402L73.759 15.8648L72.7881 16.3975L71.9585 14.8535L74.4485 14.1402ZM65.1003 4.04069L65.866 5.5785L66.0099 6.97564L65.2122 7.29195L64.454 5.7714L64.3302 3.77344L65.1003 4.04069Z" fill="#1E1E1E" stroke="white" stroke-width="5"/>
</svg>
