<svg width="301" height="187" viewBox="0 0 301 187" fill="none" xmlns="http://www.w3.org/2000/svg">
<path d="M297.197 161.135L295.72 163.374L291.91 166.241L287.636 166.452L284.491 167.84L281.719 169.808L279.6 169.26L276.789 170.573L275.424 170.645L273.016 172.489L270.471 172.97L269.388 172.91L266.998 174.5L265.967 174.814L264.637 174.357L263.255 174.875L260.364 177.119L255.924 181.776L254.599 182.827L253.247 181.163L252.454 179.551L251.263 177.984L249.307 173.101L247.728 171.958L246.747 170.673L244.949 170.796L239.936 168.579L237.527 168.583L235.487 168.083L232.887 167.894L231.287 169.704L230.248 169.793L228.851 168.267L227.718 167.776L226.291 167.798L223.857 168.573L220.718 167.883L218.05 166.121L216.998 166.03L216.378 166.928L215.912 169.252L214.159 168.343L212.944 169.583L211.331 168.929L209.812 167.386L208.441 168.241L207.515 169.48L206.236 171.868L205.505 172.537L203.441 171.999L198.141 169.265L197.092 168.376L195.079 167.503L193.493 168.01L189.715 166.61L188.864 166.033L186.363 163.145L185.391 162.895L182.86 164.021L179.35 164.337L175.265 163.992L172.819 163.468L169.507 164.324L165.664 163.756L162.373 160.424L161.425 160.257L159.428 160.725L155.534 160.649L152.803 158.54L152.248 157.239L150.809 155.999L148.894 151.909L147.795 150.604L146.863 150.2L144.302 149.947L142.413 148.962L141.262 146.445L141.251 145.464L142.41 142.809L140.824 138.935L140.39 136.772L139.89 136.16L135.129 134.223L131.568 136.339L128.847 135.336L126.942 133.885L125.99 132.045L124.791 128.605L122.31 128.69L118.882 129.448L117.013 128.995L115.451 129.602L115.151 130.969L113.711 133.841L112.629 135.229L110.981 135.999L107.437 136.564L104.528 136.682L103.257 137.256L99.9931 138.192L98.9502 138.21L98.1873 137.537L96.7564 136.63L96.2533 135.847L97.4425 133.923L98.1752 131.278L97.2878 130.136L98.2671 128.01L96.1022 127.518L94.9585 126.198L95.0741 124.086L95.997 122.226L99.0279 118.921L98.3382 116.862L97.4604 116.45L96.082 116.791L94.0487 116.077L92.3123 117.607L90.8283 117.651L89.4979 118.255L88.4504 119.552L87.1048 119.472L85.2268 118.594L83.9271 119.432L82.1475 118.5L81.1669 119.322L78.2891 119.993L77.0373 119.115L75.4955 120.135L74.6652 119.944L73.6258 121.564L72.315 121.456L70.9828 122.601L70.2341 121.522L68.8316 121.62L65.7874 122.431L63.3358 120.775L60.6939 119.257L60.8292 117.783L58.9694 115.314L58.3888 113.436L57.7167 109.098L58.0241 106.461L58.0366 103.932L57.1059 98.2324L56.3576 96.4786L55.36 91.2453L55.5097 89.3219L55.1252 86.4756L54.2911 84.9313L52.345 82.8888L49.7463 81.3089L47.8689 80.8452L46.2552 80.8086L44.5312 79.8947L44.0713 78.8483L44.7106 74.7501L43.7444 72.6864L42.6171 71.6708L43.0649 70.0999L44.0547 68.0328L43.2594 65.5015L41.7147 67.1122L41.0975 66.848L40.0109 68.3581L38.2 67.551L39.7438 66.6724L39.1744 65.7986L39.2225 64.368L37.6157 62.9043L36.3831 63.4573L36.0337 62.5074L34.5654 63.4112L34.4856 61.9845L33.6787 61.1697L32.6163 62.7999L31.6374 63.1051L30.2692 60.9847L29.5981 60.5066L27.6819 61.2883L26.9413 60.0384L25.9367 59.2226L25.4369 60.7369L23.4789 59.7571L20.8875 61.0795L19.729 62.2188L16.5934 64.444L16.2277 63.689L16.6389 61.2627L16.4196 60.6524L14.8777 59.4636L14.14 57.1269L11.8661 52.1255L9.25388 48.4943L8.68565 47.1146L8.44002 43.8957L7.10518 40.317L7.44739 36.5154L6.43479 31.8155L5.55859 30.5242L9.63661 31.1451L13.1758 31.2559L15.2715 31.0356L15.0716 29.3895L15.5015 27.6354L17.6157 25.776L18.2 24.9159L19.3908 21.3564L23.9255 19.0829L26.8642 18.1956L30.9804 16.4497L32.9861 14.057L34.4758 12.9927L36.2834 12.3266L42.739 11.9139L45.6694 10.6704L47.4503 10.2309L49.3988 9.06361L50.6346 7.50695L54.1767 3.81954L55.5221 2.76562L57.299 3.11605L59.0972 4.52473L60.5941 4.80005L64.2572 3.44958L66.2102 4.62864L66.607 5.44395L67.5038 8.86737L69.4169 10.1871L71.5918 9.58271L72.5992 8.39154L74.31 8.55715L75.9619 10.6197L76.2523 13.9589L78.8937 14.8335L80.482 18.3584L82.2114 18.6901L83.7982 17.9873L84.9324 18.7207L85.9196 19.9728L87.0003 20.6151L90.8849 20.8158L91.8832 22.0223L94.1065 23.0807L96.0708 25.165L99.7477 27.702L102.666 29.24L103.991 31.0168L110.09 37.2157L114.973 41.0312L118.475 43.2361L122.047 44.3941L124.906 44.6238L124.793 45.5456L128.866 45.803L130.776 46.602L131.138 50.2672L130.99 51.704L131.505 55.9833L131.185 59.8125L131.615 60.1706L134.056 59.7166L135.805 61.8526L136.854 62.1415L139.297 62.077L140.802 60.7418L142.286 60.1675L142.678 57.5252L143.858 57.17L146.415 57.9177L147.296 59.1146L150.781 59.0453L153.394 60.4996L155.598 61.2095L158.407 61.4274L161.773 60.4471L164.048 59.2864L168.315 56.626L169.148 55.2262L174.773 50.2489L177.003 49.1491L181.192 50.6954L184.024 52.0763L188.1 53.3262L194.192 56.0787L197.388 57.2702L199.621 58.3198L203.639 59.7373L208.934 62.0687L215.037 65.3333L224.133 68.9434L229.101 71.2669L231.043 71.993L233.678 72.5081L239.936 72.4289L243.981 72.1396L246.145 71.6385L246.945 70.9383L250.168 70.2399L253.312 70.7606L256.189 72.455L260.93 76.133L270.041 83.5316L273.618 87.6399L275.238 89.8418L276.74 92.3817L282.786 105.562L284.907 111.339L284.856 114.821L284.096 120.598L284.407 122.119L285.84 125.16L287.461 127.625L288.523 128.782L290.91 130.548L292.938 132.501L293.191 134.772L292.429 136.384L290.867 137.277L287.932 137.866L285.912 139.975L284.48 141.951L282.547 143.305L283.158 144.657L285.212 146.959L286.636 149.654L289.39 152.037L291.37 152.74L294.472 152.738L296.816 153.967L298.071 155.26L298.239 156.522L297.983 158.971L297.197 161.135Z" fill="#1E1E1E" stroke="white" stroke-width="5"/>
</svg>
