<svg width="79" height="70" viewBox="0 0 79 70" fill="none" xmlns="http://www.w3.org/2000/svg">
<path d="M49.7654 60.3995L49.829 61.4779L47.7825 61.1292L49.26 59.79L49.7654 60.3995ZM60.0488 65.4661L60.8105 66.6979L57.6595 67.1789L55.4096 64.8883L55.8347 63.5838L55.1322 62.0771L55.7409 60.4398L54.9699 58.8188L57.3563 57.263L58.444 57.7262L59.6121 60.335L59.4746 61.6063L59.8384 62.9921L59.558 64.6533L60.0488 65.4661ZM72.9524 46.3621L71.935 47.3604L70.7649 46.3279L72.9524 46.3621ZM58.0589 45.3527L57.4357 44.0056L58.4505 43.0298L58.7839 45.011L58.0589 45.3527ZM66.63 42.0894L67.1361 43.7348L68.8507 46.7959L66.6363 46.5903L65.7487 45.7538L65.5391 44.6391L64.3522 43.4179L64.6552 42.4063L66.63 42.0894ZM68.0442 33.2829L66.852 32.9688L66.741 30.8263L68.5359 30.0955L69.1219 31.5317L68.0442 33.2829ZM40.0044 8.22765L41.2363 7.76249L42.6307 8.72415L45.5811 8.80683L46.9272 8.53003L49.6519 9.40977L50.2467 10.6338L54.0552 12.5893L55.3592 15.3316L55.3845 16.5905L56.0049 17.4483L57.3784 17.9271L59.8893 17.2692L60.4335 18.1475L61.1832 21.0905L63.0906 22.5508L63.174 24.9368L64.7355 27.06L64.2009 28.3133L64.8126 30.7537L64.6125 33.1411L64.0212 33.5021L62.1912 36.1904L62.3359 37.4143L61.7494 39.0828L59.9153 40.6983L58.4234 40.8468L57.9611 38.7176L58.6732 36.4245L59.2079 33.4113L58.5169 32.7743L56.0769 34.4303L54.3235 35.1756L53.5216 37.495L51.9949 39.2292L51.0521 38.1329L49.3185 36.7867L48.27 36.7413L45.9163 38.7065L43.0488 42.8696L42.6214 43.7907L42.3152 46.7484L41.0062 46.4873L40.2941 47.7648L40.0812 49.546L38.2819 50.026L37.5269 51.593L38.516 52.0448L38.5455 53.0318L39.9403 54.3111L40.3057 56.6381L41.0159 57.5094L38.5315 59.0151L36.7039 57.8301L35.739 58.3569L32.7975 57.3705L32.2219 54.1062L30.8835 52.0945L31.8665 50.9295L31.3882 50.2314L29.7445 50.4075L27.4435 50.0357L23.085 52.5528L22.8106 53.4788L21.4672 53.1355L18.9445 51.04L16.9158 51.677L14.7047 49.1134L14.5391 48.1045L12.9743 46.8615L12.7533 45.9616L11.7698 45.5676L10.1837 45.9215L8.20399 47.7632L7.58921 49.0866L6.27863 50.7435L4.9634 50.4177L4.34352 49.6922L5.67662 48.0321L5.76647 46.5836L5.21484 44.5729L5.22598 42.4612L3.07031 40.6789L3.13044 39.059L4.4336 39.2303L4.85057 37.133L5.61649 36.3751L6.44718 36.65L7.49495 35.2094L8.8392 34.8454L9.11687 33.6332L8.61841 32.615L10.1985 32.1437L10.6452 33.7374L11.96 33.9432L13.7895 33.6449L15.3573 31.6088L17.3001 30.6259L17.503 29.8835L19.1994 29.8696L19.6958 29.1711L20.6725 30.1234L22.674 29.4467L23.3494 27.8229L26.31 27.2089L30.4266 25.0684L31.0339 24.1175L31.2271 22.7543L29.9263 20.6621L30.5046 18.8042L30.2585 16.0045L29.6713 14.383L31.5575 13.9534L34.196 13.8627L35.2389 13.0208L36.4755 10.8729L37.5785 9.74744L38.2838 8.18662L38.4865 6.54297L40.0044 8.22765Z" fill="#1E1E1E" stroke="white" stroke-width="5"/>
</svg>
