<svg width="252" height="312" viewBox="0 0 252 312" fill="none" xmlns="http://www.w3.org/2000/svg">
<path d="M116.326 306.915L115.625 305.129L116.944 303.551L117.675 303.972L117.623 305.365L116.326 306.915ZM126.208 298.465L125.471 298.759L124.678 297.837L125.63 297.168L126.077 296.07L125.726 295.168L126.978 293.959L127.628 295.739L127.015 296.583L126.914 297.85L126.208 298.465ZM134.003 280.614L135.769 280.616L135.814 281.698L134.883 282.527L133.593 281.795L132.669 283.76L131.452 283.765L131.602 282.028L132.957 280.828L134.003 280.614ZM136.962 261.66L136.604 262.707L135.459 263.561L134.259 263.566L133.854 262.738L134.983 262.093L136.962 261.66ZM143.688 261.274L145.06 263.911L144.313 265.2L143.03 266.375L144.138 267.403L144.345 268.623L145.031 269.551L144.501 274.023L143.109 274.584L143.645 276.728L142.575 278.73L142.476 279.734L143.532 279.853L143.683 281.044L144.651 280.887L145.445 280.016L148.33 281.628L146.832 282.404L145.718 285.018L146.579 285.22L148.308 284.781L148.449 285.686L146.875 288.036L146.426 289.254L144.66 289.581L143.837 288.587L142.728 290.608L141.385 290.189L141.34 288.017L139.155 290.532L137.751 290.679L137.287 292.496L136.018 292.071L135.924 289.979L136.848 289.133L137.566 287.643L139.614 285.794L142.084 284.616L140.004 282.132L139.117 280.551L138.137 280.685L136.995 279.645L137.079 277.433L137.434 276.283L137.059 274.794L138.405 272.753L136.666 272.528L135.169 270.257L135.26 268.626L136.372 266.53L138.651 263.72L139.391 263.285L140.668 263.942L141.075 261.742L143.688 261.274ZM78.0874 255.033L78.3732 256.661L78.0089 259.357L77.1453 260.725L76.2626 260.216L75.2761 260.837L74.1217 259.034L73.3064 255.787L74.6947 255.549L75.9542 254.819L75.5282 253.357L76.2818 252.587L75.9155 251.325L76.3204 248.784L77.8757 249.903L78.1071 251.453L78.7591 252.512L78.0872 253.076L78.0874 255.033ZM82.1921 245.87L82.1239 248.085L80.1978 250.426L79.3945 250.054L80.1098 248.657L78.795 247.859L78.7957 246.443L79.4686 245.762L82.1921 245.87ZM20.0108 198.687L20.4691 199.808L19.0329 199.896L19.0238 198.173L20.0108 198.687ZM87.6768 182.544L88.8904 183.239L86.1803 183.974L85.5014 185.047L84.2498 183.525L83.9299 181.247L85.5678 179.253L85.1467 178.438L85.9486 177.705L86.9736 180.795L86.9652 181.94L87.6768 182.544ZM73.7447 175.712L75.0722 176.23L75.5134 177.758L74.6794 180.754L77.1432 180.275L77.1826 183.008L76.5611 184.107L76.2284 187.011L76.3522 188.164L75.5417 189.478L76.3691 189.856L76.7413 191.372L76.9776 194.325L77.5037 194.428L78.6822 193.1L80.8367 191.391L82.0391 191.131L82.3579 192.333L81.598 194.685L79.9944 198.499L79.6171 201.561L79.6975 203.67L78.4542 204.025L77.6642 203.456L76.8941 204.002L75.6176 206.063L78.5287 206.52L79.9329 208.829L80.2254 210.603L78.9669 214.907L77.9569 216.449L77.6005 218.415L78.4117 219.48L78.0519 220.066L78.0454 222L77.1748 222.959L75.945 222.699L75.7328 221.603L73.5423 220.883L72.4474 222.809L70.6587 222.209L71.1173 221.155L70.258 220.037L71.4906 218.803L69.6771 218.417L68.198 220.232L66.3381 220.989L65.5792 222.689L64.4065 222.695L64.5379 221.688L63.2612 220.873L62.1526 220.925L62.7333 218.916L61.5838 218.29L59.733 218.222L59.0202 217.736L57.7454 215.422L58.0386 214.486L56.7132 213.474L56.328 211.932L57.8271 209.671L58.9696 209.355L60.3254 210.021L60.5667 208.934L62.7439 208.68L65.3544 207.832L66.7648 206.767L68.1701 206.755L68.9465 205.064L69.855 205.615L71.8874 205.935L73.4294 205.809L74.1276 204.263L75.8077 202.875L75.4082 200.867L75.5266 199.024L73.8162 200.114L73.3252 199.514L73.2005 197.828L71.7801 194.77L70.2506 193.766L71.2768 192.335L69.1469 191.094L68.778 190.044L69.4629 188.719L67.9412 187.772L68.0835 186.874L70.8707 185.634L70.4493 184.166L71.6589 182.898L70.9812 181.542L71.1175 179.336L71.8853 177.038L72.3814 174.374L73.7447 175.712ZM64.0227 141.32L63.2691 142.648L63.6596 143.655L65.1246 143.399L64.6173 146.078L66.0936 148.157L65.0565 149.102L64.0095 150.728L61.9432 152.277L61.3946 153.353L58.9115 154.07L59.3777 154.859L62.8616 154.188L62.9527 153.158L65.77 151.914L65.7238 153.834L66.7254 154.286L67.9693 153.009L70.2801 155.106L70.2641 154.087L71.31 154.121L72.6092 153.46L74.6464 154.1L75.7532 155.788L75.5886 156.832L77.4355 156.234L78.0665 156.52L78.2376 157.971L76.2078 161.147L76.7733 161.49L76.2832 163.268L74.7272 165.322L72.9284 165.706L72.9382 168.925L71.583 168.946L70.8809 170.411L70.1268 170.812L69.2161 173.081L68.4223 173.737L66.366 176.536L64.6463 177.942L63.6492 179.391L63.2403 181.062L60.5418 183.942L59.4395 185.453L60.0095 187.453L58.4906 187.995L56.9258 191.484L55.1121 193.7L53.8649 194.742L52.7751 196.649L51.8558 201.136L50.5136 202.457L51.4332 204.799L49.643 205.087L50.5835 205.968L49.9083 206.987L50.7293 207.475L50.3641 209.35L49.3024 210.601L49.2717 211.443L47.7248 211.587L48.3656 213.263L48.021 214.448L46.5001 214.919L46.8456 216.452L45.3706 216.934L43.6449 216.366L41.0142 217.499L42.6336 218.359L41.7767 219.359L37.2975 219.192L37.8707 221.383L39.982 221.575L41.3147 222.361L40.8603 223.875L39.7791 222.754L39.0838 223.943L38.2614 224.313L37.3996 223.796L35.7666 223.778L34.7887 224.211L35.1659 225.432L33.3934 226.733L32.7226 225.283L31.3315 224.335L30.8483 225.704L30.1001 226.463L27.7661 227.364L27.2207 229.242L28.5232 230.877L29.0444 232.147L27.735 232.132L27.2158 232.819L25.5577 233.371L25.7776 231.951L24.1652 232.64L24.2504 234.297L22.511 234.674L20.463 236.898L21.8286 237.285L22.3879 239.021L21.1614 240.222L19.106 240.628L16.7409 241.708L16.6827 242.552L15.4663 243.224L14.4727 242.793L14.1815 243.875L13.0523 243.202L13.261 242.174L12.6037 240.662L11.6725 239.73L10.998 238.206L9.3457 237.248L8.15515 237.734L7.80017 236.389L6.66185 237.284L5.94631 236.619L4.55934 238.278L3.76301 238.706L3.36275 236.237L2.97596 235.457L2.85547 232.284L3.67548 231.123L3.94015 229.572L6.62122 227.452L8.44675 227.85L9.45691 225.991L10.2567 225.632L13.1925 227.275L13.4114 225.964L14.8474 224.499L16.092 220.912L17.5714 218.64L18.6517 219.984L21.7778 219.927L23.2618 219.393L23.2678 217.885L24.9397 218.006L25.9361 217.475L26.4184 214.309L27.1065 214.992L27.9072 214.39L27.65 212.946L26.7545 211.428L25.0669 211.464L25.0527 210.26L23.9845 210.072L23.474 209.054L24.3147 207.445L25.5361 206.865L26.351 204.294L25.9552 201.9L24.1287 201.124L22.3071 199.442L21.9178 198.727L22.9537 196.659L25.2712 197.509L26.4564 196.746L26.8316 195.492L28.4714 194.116L28.3521 192.076L29.9635 190.824L30.5405 189.773L30.2593 188.3L31.0893 187.578L30.9691 186.407L32.7391 186.54L33.3708 187.486L35.1074 186.359L35.8488 184.407L38.4309 184.307L38.0453 183.543L40.4851 181.515L42.0191 181.313L44.331 178.947L45.0774 176.846L44.6381 173.71L43.7608 172.736L44.855 171.819L45.6827 169.369L45.4175 168.118L46.7026 166.638L46.5558 165.505L46.928 163.785L49.6374 163.07L50.648 162.437L50.8646 161.558L52.2558 160.679L53.2936 159.118L53.9025 157.218L54.8282 155.432L54.7571 154.204L55.9918 153.371L56.279 152.286L55.4437 150.332L57.5894 149.298L57.9434 148.574L59.8734 148.058L59.2816 146.218L59.5356 144.507L61.7491 142.94L61.5673 141.515L64.0227 141.32ZM105.593 127.117L106.419 127.197L106.137 128.525L105.052 129.895L103.524 129.683L103.416 128.856L104.184 127.56L105.593 127.117ZM152.425 106.759L154.989 108.019L155.906 109.105L156.176 112.556L154.862 113.678L153.363 112.878L152.378 111.268L150.839 110.559L150.534 108.776L151.151 108.087L150.415 106.862L150.823 106.095L152.425 106.759ZM145.835 103.547L144.857 103.672L144.348 101.654L145.135 101.475L146.188 102.895L145.835 103.547ZM124.656 100.018L124.208 99.4428L124.672 97.4232L125.222 97.395L124.656 100.018ZM122.231 93.5469L123.352 93.3903L124.128 94.61L123.919 97.4111L124.186 98.5615L123.207 102.318L122.347 103.948L121.005 104.402L118.809 106.686L117.718 108.84L119.558 109.82L120.475 109.234L120.457 107.789L122.782 107.88L123.786 109.732L124.692 109.693L125.428 107.805L123.638 106.742L122.953 104.821L122.947 103.86L124.396 102.064L126.185 101.799L126.389 103.059L128.376 103.784L128.761 101.913L130.403 101.569L131.734 103.018L131.275 106.683L134.208 105.41L134.394 107.885L133.829 110.328L133.891 111.791L133.37 114.82L132.301 117.145L132.923 120.021L131.944 119.986L131.333 121.368L132.573 121.512L132.539 123.624L133.082 126.511L132.579 127.73L133.405 128.643L132.845 129.444L131.866 132.147L130.157 132.199L129.258 134.07L129.411 135.472L127.72 136.821L125.7 136.032L123.969 138.082L120.446 141.004L119.201 141L117.356 139.142L117.497 137.559L116.346 137.298L115.437 136.359L113.118 135.888L111.313 135.959L110.362 135.403L110.203 133.7L110.632 131.495L111.203 130.674L112.798 129.728L113.261 128.314L114.398 128.318L116.176 129.549L115.847 127.904L116.944 127.822L118.41 128.879L118.976 128.464L118.772 126.401L116.564 125.258L115.545 125.131L114.158 123.216L114.712 122.261L113.19 121.647L112.704 122.468L111.374 123.234L109.208 125.21L108.336 124.841L107.244 125.166L106.881 123.152L105.788 121.944L107.281 121.341L108.124 119.664L108.331 116.185L110.023 116.506L109.304 115.213L107.35 114.488L107.305 113.672L108.861 112.549L108.214 110.851L109.226 108.649L110.363 107.047L111.386 103.723L112.801 101.847L113.831 101.472L115.234 99.373L116.666 98.653L116.009 97.0416L116.62 95.9833L118.567 94.8315L119.965 93.5936L121.437 92.908L122.231 93.5469ZM247.053 92.7247L247.861 93.5145L247.026 94.3984L247.84 95.0451L248.507 97.9748L248.458 99.474L247.23 101.429L247.413 102.821L248.425 103.686L248.241 104.446L247.142 104.677L246.871 106.593L245.666 108.84L245.414 112.055L244.896 113.438L245.14 115.431L244.446 116.971L241.896 115.705L240.204 115.839L239.613 114.289L238.297 112.831L239.076 111.589L238.812 110.487L240.089 109.161L240.248 106.44L242.325 104.516L242.168 101.411L241.848 100.282L240.984 99.2035L242.487 98.1845L242.771 95.4014L242.461 94.8138L243.433 93.3323L244.742 93.0223L245.636 93.4919L247.053 92.7247ZM172.361 56.1309L173.889 58.2828L173.399 60.3935L173.102 63.6891L173.7 67.2383L172.866 68.6073L173.419 70.4825L175.049 72.3027L177.214 71.5032L176.781 74.0173L175.698 75.1425L176.87 76.6987L175.702 77.8236L175.808 78.9625L174.287 82.6334L172.337 83.8514L172.977 84.5593L171.945 85.3498L171.644 87.2148L170.568 87.0468L168.619 87.7183L168.556 88.4908L167.083 88.9831L167.099 89.8529L165.183 93.3659L165.103 94.8336L164.28 97.4904L163.481 98.1842L161.618 97.9321L161.188 97.3905L162.068 94.648L160.794 93.1951L159.271 92.5573L157.815 93.3332L156.457 93.4197L154.543 93.0446L152.912 92.0207L156.221 89.2703L157.11 89.5408L157.994 88.5351L159.387 88.4974L160.282 87.1568L159.836 85.7226L161.479 84.3606L162.414 84.2077L163.134 82.5664L162.58 81.5669L163.028 80.1571L162.009 78.9021L161.783 77.6026L162.288 77.0798L163.71 77.2168L164.453 75.3898L162.595 74.8256L161.695 74.1174L163.689 73.5257L163.43 72.149L163.917 71.5347L163.329 69.5965L164.378 68.1019L165.835 67.0774L167.96 67.9082L167.74 65.1523L168.688 63.1111L169.952 62.4897L169.772 61.0817L170.747 60.7001L169.762 59.3248L170.857 57.2839L170.745 56.5885L171.641 55.5314L172.361 56.1309ZM176.595 6.70517L175.684 9.82772L176.807 10.5912L175.209 13.9842L174.16 13.8332L172.158 12.9023L172.098 10.5586L172.894 8.74341L173.711 7.77221L176.715 5.53516L176.595 6.70517Z" fill="#1E1E1E" stroke="white" stroke-width="5"/>
</svg>
