<svg width="74" height="65" viewBox="0 0 74 65" fill="none" xmlns="http://www.w3.org/2000/svg">
<path d="M18.1041 59.2424L16.8114 59.3235L16.7611 60.0809L15.3281 60.7606L15.0126 59.6507L16.2378 59.2422L16.9396 57.6488L17.9572 57.6603L18.7786 58.6156L18.1041 59.2424ZM16.0246 40.115L17.5497 41.2999L18.152 42.6578L19.9399 41.3003L20.7841 42.3076L20.2561 44.2587L19.3514 45.6856L17.266 47.2556L17.4244 49.1726L18.7811 52.1343L19.8162 52.7214L19.867 54.0128L18.8552 54.4077L17.7306 53.8678L16.8934 55.1899L15.2 53.4187L14.8406 53.9821L12.7943 54.64L12.3998 53.6147L10.545 54.4965L9.86988 53.7754L8.71252 55.0379L7.0639 53.6512L5.05078 53.3286L6.135 51.9302L6.49277 49.4724L6.90255 48.535L8.33014 47.3312L9.74543 44.5536L10.6504 44.0736L11.2452 41.9748L12.4251 40.2118L13.7754 40.5921L14.6086 41.8825L16.0246 40.115ZM42.8204 6.75361L43.7377 6.56933L44.5201 5.67324L46.051 5.13918L46.9008 7.95844L47.621 8.56351L48.7583 7.70224L49.5969 6.44078L51.4886 5.28682L52.1696 4.32031L53.0924 5.48411L53.0641 6.80554L54.088 8.183L55.2922 8.9198L54.9823 9.91008L56.8503 10.9134L57.6499 9.9976L59.5121 11.25L59.0896 12.9736L59.6909 14.7241L61.7783 15.2623L62.8927 14.5956L65.4695 15.8352L66.7515 17.2461L66.6775 19.2936L66.0125 21.0729L66.4841 22.9814L66.3371 24.358L67.1406 26.2926L68.1023 26.7764L65.6376 28.0396L64.4949 29.2294L63.5604 30.8235L63.6105 31.5999L64.5432 33.654L63.0515 35.7304L61.8642 36.7764L61.9255 38.1796L61.3402 39.4912L61.8057 41.8688L61.3838 42.7597L61.7035 44.2335L62.5748 45.0675L62.0065 45.8097L61.5895 48.0657L61.8533 49.0548L61.2557 52.146L59.9344 52.1366L59.2595 52.9314L55.3013 53.1756L53.4349 51.4198L52.3161 50.8362L51.2307 51.475L51.1631 52.6929L48.4979 52.0077L47.0981 50.2748L47.3568 49.1117L45.4732 48.0913L44.0333 48.1261L43.0721 46.1463L41.2893 45.7431L40.2209 46.8404L38.8657 49.2748L39.5573 49.4872L39.0628 51.247L39.5859 53.4709L39.119 54.3328L37.657 52.7448L37.8312 49.769L36.5378 48.9339L36.7906 47.5189L34.5799 42.8622L35.5079 42.1085L35.2713 41.1659L37.3018 41.5473L37.8753 40.9363L38.0048 39.5508L39.4612 37.121L39.9564 35.47L39.1743 33.3303L37.8804 32.3348L36.9856 31.0201L35.6978 30.8031L33.8017 29.5484L33.863 26.5964L31.8199 23.7397L29.5131 23.3079L28.3594 21.8973L27.8979 20.7477L28.1897 19.01L27.5085 17.496L25.4713 16.5682L24.092 14.9996L22.685 14.8725L22.2516 14.3415L22.2732 12.4589L23.0892 12.2181L24.1588 12.8116L23.5896 10.5214L25.1815 8.76581L26.1441 9.56636L27.4496 8.84757L27.9673 7.86366L29.3917 10.472L30.5567 10.0972L31.1085 11.1684L32.9603 12.3879L33.8495 12.3661L35.4928 11.1298L35.9541 10.0361L37.378 9.47142L37.2148 8.31534L37.8957 7.25132L38.8806 6.79631L39.4266 7.65L39.5954 9.59301L40.4957 9.77759L41.6438 6.69001L42.8204 6.75361Z" fill="#1E1E1E" stroke="white" stroke-width="5"/>
</svg>
