<svg width="197" height="123" viewBox="0 0 197 123" fill="none" xmlns="http://www.w3.org/2000/svg">
<path d="M146.644 62.3547L146.172 63.0655L142.683 64.7081L140.139 67.572L138.025 68.3963L135.121 70.23L133.996 72.4056L132.638 72.9731L131.938 73.9531L130.624 74.8404L130.624 75.5345L129.515 76.118L128.847 75.6608L127.54 77.4587L125.013 79.4411L123.049 80.7708L120.643 82.2787L119.292 81.8492L117.725 82.9958L116.588 82.9909L114.658 84.2686L113.516 84.2353L112.749 85.1296L110.416 85.2216L109.45 84.9249L107.723 85.6986L105.4 85.9245L103.149 85.7143L101.986 86.5805L99.8006 86.5423L98.5748 85.45L96.4732 86.4654L95.1821 86.2828L93.7269 87.7161L91.8398 87.5295L89.1975 88.1579L87.5854 87.002L86.058 87.737L84.8711 87.224L83.2494 87.8151L80.645 87.446L78.6367 87.3972L77.5887 87.932L73.1211 88.9235L71.8484 90.14L69.5815 90.6594L66.3867 93.8431L66.3435 94.6907L63.9461 96.1389L62.9791 98.5289L61.5476 100.048L60.1588 100.853L57.3672 106.907L55.3113 107.718L53.2685 109.492L53.0953 111.233L48.4018 114.096L44.5506 115.714L43.8246 113.905L41.1306 115.189L39.3006 113.529L36.3138 114.606L35.6206 114.22L33.6283 114.009L31.1567 114.155L29.1575 113.666L28.018 114.719L26.5526 114.811L25.4163 114.35L21.4962 115.604L20.6544 115.418L16.6114 116.496L15.2268 116.123L12.9343 116.654L11.7208 117.209L11.7396 119.634L10.5216 119.375L7.97663 118.269L6.67232 117.386L5.75247 118.107L4.68729 114.608L4.08667 114.084L3.61328 110.578L5.30787 109.029L4.99027 107.596L4.09062 106.087L5.46064 105.692L5.65496 101.93L6.70412 100.601L9.14095 98.0801L9.09846 96.4124L11.1645 91.8859L12.1944 90.9486L12.8461 89.7466L14.172 88.3663L14.5734 86.88L16.1847 83.9437L17.3557 82.5227L18.5426 79.869L20.0164 78.1274L20.6616 76.605L21.9526 75.8497L23.8917 72.9925L26.0926 70.4617L26.6619 69.2209L28.7965 66.5714L29.6731 65.8858L30.4783 64.1911L33.1798 60.8048L33.76 59.5129L35.4643 58.2004L36.0712 56.5872L36.9713 56.1484L37.7941 54.5458L38.6239 54.3026L39.4077 52.6833L41.5181 51.4865L42.3313 49.6119L44.9428 46.4388L45.4837 46.3283L47.1813 44.6527L50.6687 43.064L51.86 42.18L54.1591 39.8561L56.3171 38.9412L57.2102 38.0233L59.7311 39.4106L59.5059 40.1265L60.0657 41.3572L61.2425 41.6407L62.0094 41.2276L62.8001 41.8039L64.8655 41.5828L66.0516 40.7391L66.7207 41.2597L70.3158 41.1904L72.104 40.1235L73.5065 40.0175L75.6645 38.7374L76.967 38.2886L77.8847 38.9454L79.8728 38.4727L80.8946 38.6041L81.9709 38.0415L83.3356 38.3885L85.1857 38.2092L86.1571 37.6756L88.9456 37.185L90.6312 37.7731L90.864 38.9463L92.5607 39.8782L93.4012 40.9829L94.1578 41.1598L98.289 40.9669L99.2392 41.3845L100.724 40.2025L102.596 39.9257L103.629 40.5329L103.161 41.8839L104.63 42.8393L105.9 42.9928L106.364 41.9108L107.927 43.3811L108.259 44.103L111.004 44.7762L113.274 44.7069L113.726 43.8696L116.868 42.3105L118.006 42.3956L118.347 41.0847L121.385 40.2918L124.427 38.7168L124.775 37.9315L125.819 37.8052L126.52 36.6078L128.757 34.66L130.711 33.2975L134.456 29.7001L136.136 28.9663L136.218 28.2044L137.837 26.9625L138.815 26.692L139.003 25.5879L141.351 24.3502L143.373 22.638L144.086 21.4181L146.069 20.6623L148.34 20.8182L148.528 19.7755L149.76 19.2214L153.402 16.4156L153.436 15.362L155.409 14.5319L160.146 10.6974L161.241 10.2516L163.243 10.0836L164.338 8.89401L165.936 8.95912L166.942 9.78314L171.191 8.31953L172.934 8.86645L174.026 8.54968L176.523 9.13052L177.207 9.70894L179.512 9.06875L183.046 5.09401L184.749 5.30993L185.924 4.91261L187.599 4.88748L188.616 5.7869L190.065 4.11464L192.598 3.51562L193.525 3.73882L193.852 6.05522L191.948 7.38891L191.658 9.35735L192.057 11.3706L191.862 13.5389L191.409 14.1367L188.488 14.65L185.817 15.4289L183.563 16.6194L183.15 17.9222L183.022 19.8849L181.813 21.8136L182.01 22.9432L181.021 24.3057L181.399 26.9894L180.104 27.7087L179.759 29.2749L178.76 30.7743L177.415 31.6713L177.407 32.9099L176.201 33.859L176.143 35.0122L174.252 36.6333L173.208 37.8682L172.992 40.0662L172.581 41.5008L169.229 41.9487L168.337 44.0791L167.353 44.6721L166.022 46.3549L164.822 47.0854L165.035 47.9279L164.124 49.1695L161.992 50.2706L160.822 52.1146L160.22 52.4341L159.402 54.6854L158.893 55.338L155.613 57.427L153.615 58.2334L152.637 59.3161L149.948 60.7981L147.978 60.6425L147.188 60.952L146.644 62.3547Z" fill="#1E1E1E" stroke="white" stroke-width="5"/>
</svg>
