<svg width="430" height="635" viewBox="0 0 430 635" fill="none" xmlns="http://www.w3.org/2000/svg">
<path d="M244.422 625.008L243.157 627.309L242.36 627.684L241.04 629.684L240.057 629.892L238.732 631.4L236.973 632.053L233.813 631.67L234.866 628.762L235.392 628.676L236.4 626.849L237.877 625.466L238.52 625.625L241.613 625.061L243.663 624.418L244.422 625.008ZM288.376 583.447L290.49 583.674L292.95 583.57L293.413 585.281L291.619 587.141L290.338 587.67L288.538 587.719L287.88 588.278L286.921 588.011L285.803 588.474L284.477 588.443L283.186 587.768L283.483 586.602L287.145 583.236L288.376 583.447ZM269.035 570.628L271.46 570.351L274.387 570.857L274.265 572.015L273.367 573.479L273.216 575.785L274.089 576.2L274.732 577.807L273.308 579.083L272.026 578.312L271.442 577.002L270.013 575.787L269.374 573.642L267.35 572.9L268.06 569.571L269.035 570.628ZM336.596 554.673L339.219 554.866L340.352 554.588L341.956 553.598L344.76 553.886L345.799 554.956L347.106 558.066L349.964 561.734L351.87 567.637L354.013 570.891L354.005 572.559L354.482 573.257L356.906 574.891L357.399 576.461L356.53 578.791L356.314 580.462L355.152 582.012L354.131 582.862L353.481 585.282L352.396 586.745L351.063 587.559L349.541 587.55L349.169 588.959L348.262 590.277L346.879 593.383L345.327 593.68L343.976 592.341L341.181 591.714L339.921 592.71L336.107 593.111L335.188 592.408L333.771 593.023L332.483 591.533L330.764 591.54L326.441 589.904L325.255 588.821L323.425 588.187L321.849 588.714L320.632 590.008L317.98 589.529L317.512 588.316L318.612 585.374L317.905 583.746L316.067 584.732L313.295 584.686L312.712 583.417L313.501 582.357L315.388 581.317L315.454 580.039L314.591 579.524L314.541 578.029L315.384 577.37L315.347 576.07L316.086 574.451L315.944 571.68L314.805 570.04L314.187 567.671L314.726 565.745L315.122 561.425L316.173 560.769L316.701 559.243L318.237 558.014L320.116 557.643L321.603 558.281L323.148 557.848L324.273 558.324L328.505 558.38L333.488 555.036L335.013 553.239L336.596 554.673ZM319.69 525.403L320.16 527.299L318.588 526.433L318.574 525.288L319.69 525.403ZM319.3 514.657L320.156 515.419L320.583 517.315L321.478 518.133L321.628 519.769L323.038 520.694L323.66 522.038L323.235 522.989L321.637 523.756L319.59 523.005L319.054 523.35L316.257 523.796L313.958 523.45L311.643 526.748L308.906 533.535L309.425 536.294L309.095 537.467L308.29 538.109L308.346 540.584L307.503 540.813L306.928 539.796L308.29 538.109L306.604 535.109L305.273 534.383L304.136 532.966L303.466 530.461L303.574 525.43L304.303 524.257L305.365 523.939L306.353 524.783L309.312 525.131L310.689 524.694L312.356 523.403L313.048 520.038L314.013 518.919L314.875 518.854L316.012 517.441L317.128 514.82L319.3 514.657ZM339.867 513.632L341.297 514.002L341.864 515.328L340.854 516.878L339.534 516.563L339.096 515.028L339.867 513.632ZM216.021 383.364L215.509 384.433L215.759 386.079L214.233 385.803L213.674 383.393L216.021 383.364ZM226.55 364.734L227.356 364.925L225.96 367.038L224.221 368.286L221.709 368.638L219.8 369.463L219.687 367.968L221.388 366.841L225.31 365.674L226.55 364.734ZM393.199 379.196L393.602 377.994L394.778 378.565L396.635 380.418L399.492 380.902L400.981 382.92L403.484 384.396L407.306 384.834L410.208 385.474L412.376 385.423L413.852 384.55L417.092 382.083L418.467 381.506L418.698 382.549L419.564 383.399L420.219 384.799L422.969 389.182L423.394 390.77L424.059 391.791L424.887 395.78L425.387 397.228L425.581 400.32L426.314 401.883L424.329 402.312L423.151 403.348L421.808 403.727L418.901 406.328L415.88 407.798L414.876 408.708L413.806 408.958L410.993 410.657L405.45 411.344L404.089 412.243L400.528 413.899L398.879 413.852L397.73 414.203L394.322 414.357L393.047 414.893L391.318 416.493L390.144 416.786L388.367 417.864L385.841 418.714L384.609 418.684L382.125 420L378.235 419.752L375.534 420.558L373.829 420.79L366.257 422.456L364.583 423.64L363.331 423.509L361.446 423.937L358.853 425.33L357.646 425.366L355.69 426.216L355.07 427.167L352.858 427.266L349.927 428.348L349.054 429.091L347.048 430.027L345.031 431.352L342.757 431.845L341.84 431.676L337.401 433.96L334.112 435.818L332.405 437.765L330.65 441L328.289 443.542L326.893 445.539L326.778 446.474L322.148 452.502L318.39 456.204L316.495 458.295L315.239 459.259L313.928 460.776L311.03 463.1L308.646 464.576L307.969 466.134L305.724 466.355L303.457 467.064L302.326 467.158L297.783 465.409L296.309 464.494L295.599 464.676L294.652 463.928L293.717 463.864L290.899 463.033L286.82 461.34L285.255 461.399L283.964 460.729L281.561 459.955L279.928 459.763L275.106 459.701L272.586 460.177L270.326 460.287L266.242 460.971L263.483 461.58L261.933 462.235L259.142 463.022L256.24 465.007L255.776 466.528L254.106 467.178L251.73 467.727L250.247 468.571L249.267 468.437L247.188 469.967L245.079 470.286L242.883 471.572L241.014 473.312L238.956 476.617L238.68 477.674L238.832 479.509L240.191 481.774L242.651 483.571L243.731 485.14L244.817 487.546L245.37 492.389L245.03 493.748L243.412 493.249L240.791 495.139L239.432 495.526L238.808 497.443L238.127 497.753L236.931 499.425L236.929 502.452L237.309 504.097L236.776 507.841L237.741 509.434L237.705 511.135L236.888 512.825L236.968 513.952L237.984 515.196L238.546 516.953L240.562 520.179L239.354 520.277L238.185 520.936L236.781 519.815L234.572 519.161L233.116 516.978L231.02 518.092L230.24 517.012L230.777 516.4L230.576 515.297L228.948 513.471L227.451 512.329L225.354 512.029L224.571 511.219L224.265 509.921L221.669 504.939L218.5 501.469L216.432 500.195L215.17 497.74L215.325 495.439L214.922 493.719L214.145 492.463L213.438 492.275L212.677 491.006L212.696 489.426L213.967 486.476L215.08 480.93L214.952 479.397L215.519 478.532L215.876 476.2L214.344 474.321L213.936 472.624L213.39 472.229L213.082 470.743L214.741 468.237L215.384 464.745L215.14 462.434L217.069 463.388L218.125 462.718L219.576 460.14L221.643 459.838L223.911 460.754L225.63 460.044L226.491 458.909L228.157 459.121L229.982 457.466L231.049 457.347L233.098 455.616L235.149 455.389L235.184 456.225L237.546 456.562L240.623 456.556L242.109 456.307L243.698 457.145L246.048 457.335L247.877 458.771L249.782 458.134L252.362 456.158L255.297 451.409L256.858 449.272L257.865 447.11L259.297 445.385L261.902 441.595L262.509 440.073L264.164 438.02L266.751 432.474L267.364 431.65L268.444 431.766L270.952 428.825L271.846 428.971L273.237 428.203L274.333 426.729L275.272 424.814L276.553 423.252L277.302 421.512L278.824 420.559L279.533 418.751L281.531 416.854L282.054 415.758L283.913 413.716L286.271 413.128L288.301 410.484L290.051 407.613L292.283 407.153L294.446 405.268L297.426 405.153L300.348 404.24L304.772 402.397L306.412 401.244L310.008 399.181L313.267 396.364L315.824 394.662L318.439 392.671L322.197 389.163L330.802 384.637L335.951 382.44L337.13 382.209L341.731 382.284L344.435 382.525L352.803 381.996L353.683 381.671L356.378 381.602L358.938 381.238L363.08 379.888L364.337 380.083L366.044 379.839L370.524 377.719L376.04 374.535L379.555 372.223L382.144 370.252L383.527 368.945L384.789 368.506L386.785 367.24L387.575 366.162L389.37 365.269L390.437 365.826L390.778 366.907L391.305 370.766L392.202 376.092L393.533 377.064L392.34 378.444L393.199 379.196ZM300.364 343.827L300.748 345.017L299.954 346.548L300.13 350.747L300.952 351.994L300.784 353.09L299.343 354.353L297.314 352.391L297.825 351.693L297.517 349.365L299.1 347.173L299.355 345.868L298.296 343.766L300.364 343.827ZM317.49 339.148L319.835 338.884L320.067 339.527L321.338 339.412L321.06 340.952L321.745 341.893L322.046 343.552L322.892 343.757L323.922 342.931L323.378 342.052L323.899 340.02L326.102 340.178L326.673 339.008L327.832 338.57L329.97 338.474L330.871 338.916L331.853 340.765L335.031 342.152L336.85 342.317L337.275 343.365L334.139 345.686L334.395 347.136L333.989 348.23L331.036 350.533L329.983 350.693L327.324 352.625L326.721 353.726L328.638 355.475L330.529 356.07L331.807 357.245L332.952 357.312L333.4 358.074L334.649 358.401L336.607 358.23L337.235 358.839L337.016 360.648L338.578 361.843L340.082 362.279L338.588 363.458L337.95 362.622L336.285 362.49L334.591 361.515L333.626 359.879L331.247 359.739L329.719 359.394L328.791 360.079L327.933 361.511L326.533 361.993L324.087 361.738L323.743 362.784L322.952 363.065L321.999 361.137L320.132 361.161L318.863 362.158L317.848 361.901L317.71 359.417L316.768 358.154L317.54 356.846L318.32 356.375L318.245 355.381L317.315 354.99L316.21 356.226L315.501 356.269L314.767 355.041L313.6 354.505L312.059 351.909L312.784 350.719L311.756 349.173L310.198 347.739L307.312 346.253L306.014 344.981L306.303 342.96L305.517 341.839L305.728 341.042L307.656 340.527L308.542 340.905L309.933 340.611L310.256 339.463L312.278 338.939L314.57 339.098L316.788 337.942L317.49 339.148ZM210.562 328.594L208.724 328.636L208.308 328.091L209.571 326.538L210.516 326.26L211.227 327.733L210.562 328.594ZM208.956 301.462L209.844 302.357L211.25 302.109L211.584 303.392L212.719 304.477L215.017 305.707L216.08 307.85L216.456 310.117L215.64 312.649L214.342 314.773L214.846 315.758L214.323 317.604L213.647 318.134L212.066 318.267L211.987 315.87L213.289 314.506L213.312 313.608L211.941 312.465L208.687 312.045L208.298 311.289L205.571 310.188L204.765 309.489L201.983 308.354L199.904 306.427L199.877 305.66L197.061 305.236L196.524 304.565L197.749 303.63L198.2 302.744L200.748 301.692L201.467 302.111L202.911 301.973L203.679 302.69L205.557 302.255L207.534 301.372L208.956 301.462ZM218.112 293.559L217.432 293.471L216.494 292.274L217.77 291.053L220.632 289.563L220.443 291.862L218.112 293.559ZM293.664 270.069L294.996 270.842L296.474 270.895L299.177 272.43L300.463 272.229L302.233 273.623L302.336 275.757L300.834 276.67L298.876 275.775L297.873 277.063L297.088 276.738L296.944 275.479L295.299 276.227L294.571 275.497L293.757 275.858L292.014 274.586L290.368 274.104L290.151 274.892L288.046 273.362L287.731 271.959L289.691 272.516L290.277 271.015L291.729 270.403L293.664 270.069ZM201.805 264.269L202.755 265.175L204.518 265.546L205.408 265.28L207.203 267.116L207.438 268.117L208.581 267.761L210.127 266.026L211.033 266.566L212.648 266.719L214.217 267.695L215.062 269.197L215.782 268.604L216.721 269.391L218.16 269.738L219.779 270.979L222.63 270.822L225.318 273.582L226.186 273.401L228.063 274.266L228.853 275.292L229.852 275.524L230.204 274.616L227.286 272.346L226.782 271.413L227.612 270.872L228.755 270.922L229.692 272.372L230.901 272.037L232.037 272.27L232.915 273.486L233.559 275.547L235.578 276.985L236.112 276.157L236.951 277.555L238.428 277.664L239.102 278.255L240.442 278.466L241.237 279.578L241.251 280.78L242.645 281.42L242.819 282.198L244.492 283.32L245.383 282.425L247.347 283.805L248.234 285.05L249.676 286.188L250.37 288.203L249.045 288.822L246.142 288.08L245.378 288.574L241.991 287.419L240.429 285.777L239.001 285.937L240.003 287.611L241.253 288.897L241.283 290.59L242.457 291.19L242.911 292.341L244.198 293.662L245.198 293.802L246.16 295.842L248.869 297.889L248.63 299.301L250.393 298.867L253.306 300.091L253.269 302.218L255.075 302.053L256.075 301.526L256.512 302.46L255.924 305.838L255.015 307.271L254.87 308.334L255.378 309.715L257.062 310.276L256.814 308.055L258.204 307.277L258.685 305.711L260.28 304.396L261.455 304.206L262.373 303.511L264.8 303.075L265.933 304.67L267.515 304.047L267.804 302.693L268.814 302.691L270.969 303.742L272.313 306.452L271.707 307.194L273.33 307.801L273.748 309.69L275.031 310.234L275.029 311.32L275.954 312.245L277.184 312.016L278.829 314.878L278.772 315.759L276.378 316.302L275.188 315.886L274.997 317.664L273.789 317.717L273.892 318.616L275.351 321.178L274.058 322.54L273.14 325.293L272.601 328.031L270.693 327.794L269.236 329.247L271.098 330.484L273.001 331.001L275.458 331.144L275.367 332.556L273.881 334.46L272.687 333.809L272.808 335.886L271.398 335.978L270.616 334.979L269.883 336.229L270.078 337.562L268.079 338.464L268.691 339.542L270.614 340.745L272.094 341.055L273.79 340.393L274.39 339.473L276.083 340.574L276.529 341.931L275.605 343.169L277.031 343.231L278.749 342.798L280.41 345.095L279.13 346.164L279.187 347.097L277.541 347.559L275.071 346.262L273.64 345.866L273.16 344.943L270.95 344.836L270.113 343.644L266.173 344.8L264.659 345.029L264.031 345.896L261.293 346.521L259.038 344.509L257.962 344.814L257.28 345.79L256.273 344.694L254.479 344.96L254.393 343.726L253.627 342.984L252.143 344.557L250.603 343.665L249.03 343.213L246.43 343.6L244.891 345.179L245.268 346.124L246.604 347.129L246.825 349.441L246.182 350.229L246.97 351.272L247.168 353.814L246.584 355.492L247.138 358.321L246.142 359.999L242.859 359.117L241.056 359.226L240.232 359.732L238.933 359.609L237.465 358.568L236.727 357.209L235.396 359.493L233.822 359.814L229.843 358.743L227.394 356.951L226.72 357.028L226.492 358.613L225.669 359.182L224.271 359.189L223.84 357.626L224.73 356.839L223.811 354.864L222.041 353.983L221.198 352.396L219.231 351.417L217.955 349.669L219.207 348.276L219.504 347.374L218.798 346.164L215.366 344.718L211.345 345.25L210.71 344.098L208.89 342.681L209.078 341.948L210.752 340.797L214.429 339.041L215.041 337.138L216.6 335.82L217.755 333.838L220.214 332.61L221.109 331.709L220.64 330.18L218.655 329.139L217.373 327.67L216.891 326.627L216.313 324.109L216.852 322.903L216.607 320.838L218.352 320.814L219.409 318.649L219.082 316.714L221.484 314.01L221.798 312.833L223.668 310.527L223.825 307.702L224.248 307.239L223.872 305.344L224.258 304.299L224.09 302.93L222.329 302.211L222.846 301.33L224.092 301.444L223.71 299.818L225.621 299.28L228.107 300.117L228.573 300.856L230.565 301.081L232.765 301.928L234.471 302.867L236.814 303.407L237.343 302.208L235.48 300.25L234.098 299.136L233.002 297.703L232.757 296.374L231.579 295.094L231.794 294.202L231.346 293.029L231.157 291.203L230.488 290.183L229.605 289.905L226.963 286.71L225.085 286.322L224.318 285.061L221.82 284.418L220.688 285.307L219.405 283.58L218.208 283.308L216.796 283.608L215.107 285.599L216.419 286.644L216.594 287.486L215.225 288.573L213.929 288.427L211.221 289.088L209.948 287.975L209.236 286.645L210.072 284.927L210.227 283.857L211.514 282.94L212.957 283.705L213.278 281.263L212.357 280.596L212.929 279.122L213.677 278.456L210.707 277.64L210.368 276.323L208.44 275.762L204.472 273.149L204.198 272.296L202.655 271.835L201.057 270.938L199.639 270.946L198.575 270.114L196.687 267.981L195.209 267.073L194.733 265.635L195.229 264.177L196.119 264.157L196.784 263.089L199.484 261.505L201.553 263.679L201.805 264.269ZM199.85 257.417L199.508 258.708L198.496 260.239L197.843 258.824L198.119 257.372L199.85 257.417ZM208.923 237.64L209.228 239.336L208.678 240.009L206.946 240.57L204.755 238.304L205.636 237.077L206.9 237.573L207.968 236.276L208.923 237.64ZM198.376 220.904L197.244 222.461L196.607 222.023L196.621 220.642L197.349 219.971L198.376 220.904ZM138.99 189.52L138.955 190.357L137.153 192.168L136.217 191.939L136.453 190.707L135.893 189.587L135.936 188.348L138.99 189.52ZM161.026 184.877L161.392 185.94L160.569 187.548L162.188 188.775L162.984 187.935L164.502 189.561L163.824 190.717L163.552 192.557L164.336 192.928L166.49 192.497L167.109 191.874L166.904 190.847L167.473 189.996L166.482 188.749L166.841 187.84L168.477 188.854L170.827 189.554L170.872 191.328L175.332 191.129L178.818 193.152L179.264 194.139L180.27 194.83L182.852 193.134L183.645 193.855L182.248 195.659L183.251 196.224L183.765 197.76L183.226 198.541L184.152 199.332L182.459 200.399L181.173 200.746L181.45 202.544L181.11 204.294L179.356 204.389L176.597 206.221L175.613 205.787L174.143 206.017L173.475 206.91L173.221 209.048L173.683 210.492L174.477 210.306L175.545 211.089L176.846 212.886L178.037 211.796L179.296 212L179.937 212.615L181.247 212.377L182.276 210.409L184.356 210.411L184.89 209.968L186.49 211.865L186.858 213.083L188.039 212.505L189.843 212.725L191.043 212.456L192.016 213.67L191.437 214.131L191.451 215.747L189.935 216.866L187.891 216.973L186.02 216.708L185.172 218.608L184.765 220.836L185.308 221.012L185.708 222.676L188.988 225.41L189.675 224.988L191.642 226.783L191.383 227.921L192.883 229.727L194.405 230.166L195.867 231.514L196.673 233.404L197.626 236.855L198.682 237.311L199.527 239.052L200.103 239.482L200.409 241.891L199.479 242.781L199.841 243.754L198.128 247.692L198.499 250.239L197.697 250.152L197.325 248.148L196.078 247.378L194.645 245.492L191.596 243.918L190.887 243.2L189.755 243.061L188.875 243.613L190.127 245.87L190.154 246.527L192.619 249.612L190.646 248.995L188.799 249.94L186.969 249.536L182.088 251.504L180.725 251.124L179.373 251.207L177.334 250.281L176.175 249.369L175.379 247.623L174.797 247.221L174.985 244.876L171.693 243.433L170.836 241.91L172.836 241.65L174.135 240.245L175.713 239.024L177.301 239.583L179.181 239.684L180.649 239.16L181.866 236.388L185.191 237.254L184.73 235.629L183.593 234.888L182.835 233.313L183.716 232.269L183.469 230.986L185.003 230.779L184.861 229.708L182.491 230.051L181.463 229.294L179.082 230.176L178.872 231.137L177.398 232.021L177.266 233.181L176.397 233.786L173.626 233.087L172.213 234.137L171.426 235.55L169.485 236.524L168.198 238.426L168.912 240.058L167.565 240.919L166.494 240.099L166.241 238.944L163.525 238.509L162.761 236.785L161.635 235.028L161.729 232.413L160.167 231.009L158.848 227.562L159.101 226.801L160.174 226.507L161.053 227.617L162.967 227.512L162.522 225.2L163.671 224.213L164.892 224.364L164.69 221.745L166.631 221.984L167.439 221.231L170.391 220.156L170.852 217.898L170.232 215.798L167.826 215.467L166.367 214.472L165.858 214.84L164.373 213.633L163.234 213.397L159.194 214.787L157.304 214.187L156.699 215.875L154.749 216.038L154.029 215.064L153.758 212.635L154.068 211.293L153.84 208.994L153.178 208.461L151.381 208.35L149.925 207.492L148.429 207.754L146.336 206.482L146.022 205.281L144.171 206.388L143.569 207.245L141.968 205.372L141.661 202.554L138.528 202.048L139.82 200.784L139.944 198.792L138.899 198.107L139.204 196.999L140.561 197.613L141.443 196.748L141.815 195.678L142.817 195.492L143.547 194.415L143.074 192.048L144.766 190.945L144.627 189.974L145.354 188.776L146.681 189.276L147.237 188.098L148.753 189.825L148.999 191.211L150.051 190.978L151.15 191.839L151.812 191.662L152.925 193.864L156.933 193.89L158.561 192.182L160.168 190.923L159.486 189.759L157.983 189.28L157.513 190.639L156.035 190.52L155.651 189.361L154.199 189.196L154.286 187.932L152.803 187.627L153.412 186.545L153.645 184.976L155.693 185.687L155.6 184.513L156.68 183.564L158.43 184.272L159.88 183.64L161.026 184.877ZM166.808 184.952L165.801 184.719L164.832 183.735L165.185 181.83L167.679 183.773L166.808 184.952ZM147.039 176.893L148.657 177.81L148.975 178.455L150.369 178.987L149.262 181.806L147.575 180.783L146.729 181.8L145.896 181.993L145.028 183.242L143.919 184.123L144.775 185.902L143.188 186.268L142.71 185.414L141.658 185.865L141.251 186.81L141.736 187.766L140.499 189.275L139.507 186.847L139.764 185.832L138.579 184.349L139.524 182.859L140.458 182.783L142.448 181.936L144.93 181.421L145.018 179.729L141.949 178.224L143.682 177.939L145.135 177.164L147.039 176.893ZM162.992 178.118L162.456 177.334L162.358 175.916L163.125 175.76L162.992 178.118ZM117.467 150.591L117.412 151.745L116.302 152.105L115.379 149.906L115.22 148.333L116.137 147.708L116.447 149.174L117.467 150.591ZM135.213 143.687L134.121 142.476L135.006 141.452L135.842 142.827L135.213 143.687ZM127.771 138.665L127.091 139.25L125.885 138.833L123.893 139.67L122.576 139.898L121.715 138.681L122.118 138.224L123.403 138.742L125.206 138.105L125.885 138.833L126.734 137.688L127.771 138.665ZM155.993 133.384L154.43 132.998L154.559 131.643L155.993 133.384ZM44.0389 124.44L44.6642 126.082L44.9033 127.75L43.4139 128.612L41.4517 127.377L41.4243 126.289L42.1375 124.433L43.2698 123.773L44.0389 124.44ZM60.8165 115.66L61.8327 116.08L61.7791 117.777L60.8446 118.327L60.3101 119.682L58.5668 116.806L59.8683 115.689L60.8165 115.66ZM297.912 118.156L298.558 120.058L301.015 120.143L301.512 121L299.612 123.537L298.065 122.84L296.41 125.175L296.82 126.054L295.719 128.264L297.101 129.387L299.225 128.98L299.695 129.837L299.194 130.571L300.184 131.575L299.799 133.068L301.2 133.224L303.326 134.059L303.123 135.206L301.127 136.487L298.59 137.278L297.599 137.981L294.897 137.647L294.421 136.768L293.365 136.47L292.85 134.796L292.187 134.309L292.136 132.347L292.606 129.992L291.404 129.502L291.476 128.809L293.958 127.24L292.864 126.303L293.262 125.316L291.665 124.903L292.542 123.887L294.351 120.841L294.397 119.85L295.176 118.2L296.199 118.114L296.858 117.246L297.912 118.156ZM117.609 103.987L118.542 104.749L119.682 104.421L121.282 104.701L124.855 105.855L125.066 107.999L126.457 109.487L128.352 110.316L127.793 111.89L126.075 113.383L127.038 114.275L128.451 114.09L130.375 115.978L132.009 116.51L133.058 117.505L134.293 117.754L135.104 118.724L136.513 119.091L138.004 118.967L138.538 119.642L141.034 118.834L142.789 119.425L144.488 118.501L143.76 117.779L146.602 116.453L148.664 116.447L149.566 117.073L149.622 118.316L151.634 121.189L151.694 122.603L151.029 125.788L150.218 125.774L150.754 127.978L151.255 128.912L149.881 131.954L147.814 131.227L147.251 131.91L148.139 134.107L148.321 136.257L147.546 137.514L145.848 136.072L144.601 135.988L144.527 134.701L145.332 133.787L144.582 132.332L143.798 133.71L141.768 132.918L140.122 134.182L140.112 135.413L139.275 136.375L137.798 135.449L137.691 133.439L138.205 133.043L137.186 131.201L137.212 129.469L135.091 127.384L136.109 126.351L137.53 127.03L137.532 127.833L138.821 128.23L138.784 126.169L139.82 125.924L140.05 124.904L138.67 124.365L137.89 123.315L135.334 122.679L133.567 123.273L132.189 124.437L131.12 125.88L131.494 126.771L130.337 127.258L128.826 127.234L126.921 126.188L126.727 125.2L125.21 123.978L124.177 122.498L122.182 121.562L119.345 121.922L118.661 121.418L117.679 121.843L116.711 121.02L114.769 120.285L116.081 118.87L115.263 117.396L114.523 115.276L111.909 113.601L111.774 112.338L113.319 111.949L113.365 111.082L111.845 110.686L112.435 108.837L114.262 108.692L114.915 111.111L116.099 110.547L117.093 110.86L118.465 109.886L117.216 109.316L118.564 108.232L116.887 107.966L115.437 106.358L116.933 104.091L117.609 103.987ZM113.203 100.082L114.124 100.094L114.814 101.05L113.829 102.067L112.517 102.083L111.181 103.658L111.234 101.927L113.203 100.082ZM52.7742 96.2546L51.4553 96.0781L51.3318 94.4091L52.6516 94.7759L52.7742 96.2546ZM134.892 90.4825L133.791 89.6334L134.985 89.0416L134.892 90.4825ZM139.653 85.5084L140.56 85.3543L141.7 86.6898L140.637 87.4899L139.644 87.4969L139.203 88.4535L138.354 88.7037L137.572 87.8127L137.407 86.6589L138.164 85.5115L139.653 85.5084ZM131.842 81.0628L133.038 82.4483L135.264 83.7108L135.678 84.4273L134.163 85.2223L132.352 83.05L131.184 82.6724L131.842 81.0628ZM108.629 76.8918L109.923 77.2368L110.874 78.7243L112.056 79.2276L112.508 80.3626L112.42 81.5507L111.261 82.4516L111.634 83.7777L110.892 85.7513L110.214 85.9742L108.583 85.4034L107.04 83.6091L106.737 82.494L105.203 80.8775L106.053 79.7137L108.121 80.8127L107.271 78.2622L105.803 77.1296L107.679 76.1883L108.629 76.8918ZM118.637 76.3431L119.449 76.3846L120.787 78.3506L119.746 78.6813L119.399 79.8826L120.554 80.4084L120.145 82.0298L119.063 81.5122L117.986 80.0677L118.862 78.6462L118.665 77.3097L117.184 76.7574L117.319 74.983L118.705 75.2577L118.637 76.3431ZM115.604 74.0988L116.198 75.6547L115.627 77.1756L114.187 77.3957L113.278 75.8719L114.483 74.3229L115.604 74.0988ZM42.6223 71.8902L46.4625 73.1367L47.4174 73.1321L46.5591 74.8334L46.0147 78.8842L46.7797 79.6598L48.5291 79.7939L49.9225 80.5147L50.9647 80.4187L51.5681 79.5731L52.7875 80.8856L54.1865 81.6124L56.4566 81.0676L56.6642 81.8178L55.7353 82.5337L56.5507 84.8277L57.5448 86.337L58.0999 89.6882L57.6337 90.2285L58.2381 92.2432L59.1505 91.5625L59.921 92.4131L62.4113 94.3561L62.503 95.1756L65.1692 95.7589L65.0238 97.9381L64.2456 99.0316L62.3031 98.6852L60.7766 97.6543L59.8778 98.9147L58.8867 99.2912L58.4528 98.4229L59.1082 96.9408L57.6994 95.1465L54.099 94.0518L53.1659 92.6875L51.3875 93.3607L49.5949 92.0906L47.1172 91.7881L47.1857 91.1003L45.4391 90.2597L44.4947 91.16L43.4177 90.912L43.1579 89.6067L41.2367 90.4311L41.4877 92.1494L43.2554 93.8546L42.0569 94.7323L39.1579 95.1023L37.3906 94.556L36.9014 96.0775L38.0525 96.8624L38.7757 98.2349L39.0738 100.52L38.8064 102.293L37.5726 101.422L36.494 101.858L36.4728 103.222L37.4714 103.269L38.1038 104.125L39.5565 104.628L38.6731 105.481L36.663 104.93L35.7315 107.228L34.8769 107.215L34.3097 106.26L32.594 104.975L31.4207 102.934L30.8765 104.388L31.2161 105.09L30.5823 106.27L32.2091 107.413L32.8229 108.865L34.6222 110.387L36.9174 110.759L37.7888 111.924L37.5141 113.284L38.6394 114.557L40.1213 113.23L40.8076 114.895L42.5057 116.078L44.4984 117.886L45.2562 119.601L42.844 121.155L41.5318 121.111L40.3131 119.845L39.4325 120.125L38.8372 122.41L39.042 123.749L40.2945 124.012L38.8054 126.119L38.8765 129.443L39.6965 130.276L42.9538 131.543L45.0749 133.745L44.8778 135.173L44.2114 136.392L44.6156 138.019L43.8616 140.55L41.8898 140.716L40.8687 140.268L39.1019 140.69L38.0604 141.789L36.507 140.756L36.575 139.975L35.6997 138.993L32.5009 138.421L30.0785 137.735L29.9956 136.571L31.1722 136.054L30.8217 133.167L31.5124 132.441L33.9455 131.94L35.1305 130.844L36.5351 130.677L37.1793 129.493L36.2502 127.674L33.5624 128.027L32.9181 126.958L30.3819 125.716L29.0019 126.406L28.5383 127.337L28.5302 129.011L25.9248 130.367L22.9017 129.805L23.0468 128.056L22.3 126.437L24.4266 125.159L24.8828 123.815L24.7535 122.296L23.9562 120.553L24.0266 119.181L24.6658 118.032L25.5835 117.47L25.6887 115.4L23.7819 112.286L25.1361 111.947L25.6381 110.843L25.0953 109.367L26.3761 109.663L28.1425 108.989L27.5344 107.564L24.878 105.67L24.5487 103.809L25.8233 101.767L26.9823 100.872L28.1968 101.151L28.9388 100.648L29.9401 101.303L31.3422 100.481L31.344 98.5952L30.3562 97.3612L28.4977 98.4726L27.7949 97.972L27.3949 96.2882L27.9047 94.6241L26.7636 91.4547L26.0943 88.866L26.1507 86.9575L27.1755 86.6759L28.4733 87.0469L29.4637 86.5151L27.9823 83.6908L26.4089 83.4637L25.4152 82.2427L26.0718 81.1449L26.0128 79.3448L25.1152 77.5326L26.0534 75.3198L25.2318 74.338L25.8433 73.1018L26.8219 72.421L31.4655 75.291L31.8474 77.6898L31.0441 78.2279L31.846 79.68L35.3155 79.5644L38.8595 77.7056L38.7564 74.5978L41.109 75.1366L42.8138 73.9585L43.1583 73.2575L42.6223 71.8902ZM119.769 54.6672L118.94 55.7941L117.955 55.6872L118.314 54.5091L119.769 54.6672ZM7.84733 51.1791L8.54058 51.8405L8.14868 52.8802L5.32692 52.6564L3.93485 53.501L3.34375 52.3987L3.86311 51.4771L5.17207 50.6047L7.84733 51.1791ZM115.656 50.2388L116.668 50.734L117.167 52.0338L117.015 53.2926L115.84 54.7381L116.351 56.2556L118.523 57.0548L119.902 58.407L120.878 60.2506L122.299 61.0559L122.517 59.7434L123.273 59.2555L124.851 62.7627L124.473 63.3335L125.844 64.1475L126.189 65.6629L127.485 67.0457L128.852 66.7365L130.981 67.834L133.25 70.4596L133.621 72.4268L134.92 73.2072L136.095 74.6166L135.181 75.6432L133.096 74.2793L132.436 75.5512L130.488 76.5121L129.894 77.7589L128.993 82.6533L128.303 82.8426L127.342 79.5086L126.379 78.7128L125.956 77.6126L127.3 75.8419L127.966 74.341L127.215 73.4028L126.156 73.4007L124.946 74.5545L124.764 75.4933L123.579 76.2689L122.452 75.0357L122.782 73.7896L124.928 72.1418L124.128 71.4238L121.529 71.2194L121.306 69.025L120.784 68.8836L120.062 66.6099L118.947 66.1099L118.859 65.196L117.432 65.771L117.019 66.5154L115.488 66.2047L114.961 65.3979L115.27 63.5043L114.821 62.2618L115.199 60.0626L113.143 59.7134L112.673 59.2158L111.784 56.8943L112.799 55.0003L114.754 54.5767L115.159 53.9422L114.676 52.2182L115.044 50.724L115.656 50.2388ZM246.277 40.0768L244.353 40.8603L243.546 40.7195L241.362 42.1713L240.44 40.3782L243.012 39.7619L244.096 39.2625L246.277 40.0768ZM257.177 15.5649L257.112 16.7502L255.133 16.8932L257.177 15.5649ZM242.888 11.1738L244.671 11.5387L245.891 11.1968L246.819 11.9472L245.975 13.3127L249.136 13.5501L250.89 14.1676L251.434 14.7191L250.042 15.7218L250.155 16.9213L251.498 16.6639L252.627 17.5885L253.601 17.3832L255.864 19.4682L255.091 20.4769L254.76 21.9254L256.23 22.7064L256.337 23.5241L255.453 24.203L253.86 23.5834L253.136 24.2133L250.714 22.9042L250.595 21.6183L248.144 18.8507L248.294 21.0117L245.859 21.5793L247.98 23.449L248.168 24.8199L246.484 24.7572L243.851 24.0353L243.74 25.0046L242.537 26.0894L243.498 28.1796L242.872 29.3925L241.865 30.2119L240.684 28.5494L239.242 29.0784L238.18 28.6045L238.397 27.3068L239.781 25.5882L237.556 25.518L237.05 23.5701L237.32 21.8421L236.278 21.5405L235.852 25.2621L233.964 25.5349L233.092 27.1875L233.768 28.4013L234.51 28.5315L234.497 30.1047L231.916 30.2077L231.524 29.1793L230.453 28.4646L230.125 29.9933L229.123 29.8046L226.404 28.2326L226.315 26.8032L225.445 24.2715L224.756 23.3448L224.46 21.4339L226.668 21.7776L226.99 20.582L225.853 19.2501L226.542 18.523L224.349 18.0297L224.606 16.8865L225.557 15.9644L224.664 15.3675L224.743 14.1425L224.291 12.8618L222.478 14.4054L220.923 13.8269L220.703 12.5193L219.569 13.0262L217.641 11.9781L217.68 10.6674L222.771 9.74076L224.919 9.76619L230.761 11.2025L232.87 11.2171L233.98 11.6211L233.868 12.5387L236.336 11.5393L238.659 12.4839L240.705 12.7516L241.18 13.4181L242.327 12.357L241.332 11.2241L239.982 11.0066L238.78 10.0602L239.377 9.47759L240.809 10.609L242.888 11.1738ZM255.446 9.09238L252.09 10.1629L249.881 11.466L248.442 11.2725L247.416 10.5748L245.682 10.559L246.176 9.65687L247.363 9.69472L250.872 8.94096L255.446 9.09238ZM230.29 6.34595L229.051 5.90926L228.378 4.56406L229.713 4.18703L230.969 5.33811L230.29 6.34595ZM243.291 4.9738L242.097 4.22216L242.461 3.18555L244.084 3.54653L244.391 4.75394L243.291 4.9738Z" fill="#1E1E1E"/>
<path d="M308.29 538.109L309.095 537.467L309.425 536.294L308.906 533.535L311.643 526.748L313.958 523.45L316.257 523.796L319.054 523.35L319.59 523.005L321.637 523.756L323.235 522.989L323.66 522.038L323.038 520.694L321.628 519.769L321.478 518.133L320.583 517.315L320.156 515.419L319.3 514.657L317.128 514.82L316.012 517.441L314.875 518.854L314.013 518.919L313.048 520.038L312.356 523.403L310.689 524.694L309.312 525.131L306.353 524.783L305.365 523.939L304.303 524.257L303.574 525.43L303.466 530.461L304.136 532.966L305.273 534.383L306.604 535.109L308.29 538.109ZM308.29 538.109L308.346 540.584L307.503 540.813L306.928 539.796L308.29 538.109ZM125.885 138.833L127.091 139.25L127.771 138.665L126.734 137.688L125.885 138.833ZM125.885 138.833L123.893 139.67L122.576 139.898L121.715 138.681L122.118 138.224L123.403 138.742L125.206 138.105L125.885 138.833ZM244.422 625.008L243.157 627.309L242.36 627.684L241.04 629.684L240.057 629.892L238.732 631.4L236.973 632.053L233.813 631.67L234.866 628.762L235.392 628.676L236.4 626.849L237.877 625.466L238.52 625.625L241.613 625.061L243.663 624.418L244.422 625.008ZM288.376 583.447L290.49 583.674L292.95 583.57L293.413 585.281L291.619 587.141L290.338 587.67L288.538 587.719L287.88 588.278L286.921 588.011L285.803 588.474L284.477 588.443L283.186 587.768L283.483 586.602L287.145 583.236L288.376 583.447ZM269.035 570.628L271.46 570.351L274.387 570.857L274.265 572.015L273.367 573.479L273.216 575.785L274.089 576.2L274.732 577.807L273.308 579.083L272.026 578.312L271.442 577.002L270.013 575.787L269.374 573.642L267.35 572.9L268.06 569.571L269.035 570.628ZM336.596 554.673L339.219 554.866L340.352 554.588L341.956 553.598L344.76 553.886L345.799 554.956L347.106 558.066L349.964 561.734L351.87 567.637L354.013 570.891L354.005 572.559L354.482 573.257L356.906 574.891L357.399 576.461L356.53 578.791L356.314 580.462L355.152 582.012L354.131 582.862L353.481 585.282L352.396 586.745L351.063 587.559L349.541 587.55L349.169 588.959L348.262 590.277L346.879 593.383L345.327 593.68L343.976 592.341L341.181 591.714L339.921 592.71L336.107 593.111L335.188 592.408L333.771 593.023L332.483 591.533L330.764 591.54L326.441 589.904L325.255 588.821L323.425 588.187L321.849 588.714L320.632 590.008L317.98 589.529L317.512 588.316L318.612 585.374L317.905 583.746L316.067 584.732L313.295 584.686L312.712 583.417L313.501 582.357L315.388 581.317L315.454 580.039L314.591 579.524L314.541 578.029L315.384 577.37L315.347 576.07L316.086 574.451L315.944 571.68L314.805 570.04L314.187 567.671L314.726 565.745L315.122 561.425L316.173 560.769L316.701 559.243L318.237 558.014L320.116 557.643L321.603 558.281L323.148 557.848L324.273 558.324L328.505 558.38L333.488 555.036L335.013 553.239L336.596 554.673ZM319.69 525.403L320.16 527.299L318.588 526.433L318.574 525.288L319.69 525.403ZM339.867 513.632L341.297 514.002L341.864 515.328L340.854 516.878L339.534 516.563L339.096 515.028L339.867 513.632ZM216.021 383.364L215.509 384.433L215.759 386.079L214.233 385.803L213.674 383.393L216.021 383.364ZM226.55 364.734L227.356 364.925L225.96 367.038L224.221 368.286L221.709 368.638L219.8 369.463L219.687 367.968L221.388 366.841L225.31 365.674L226.55 364.734ZM393.199 379.196L393.602 377.994L394.778 378.565L396.635 380.418L399.492 380.902L400.981 382.92L403.484 384.396L407.306 384.834L410.208 385.474L412.376 385.423L413.852 384.55L417.092 382.083L418.467 381.506L418.698 382.549L419.564 383.399L420.219 384.799L422.969 389.182L423.394 390.77L424.059 391.791L424.887 395.78L425.387 397.228L425.581 400.32L426.314 401.883L424.329 402.312L423.151 403.348L421.808 403.727L418.901 406.328L415.88 407.798L414.876 408.708L413.806 408.958L410.993 410.657L405.45 411.344L404.089 412.243L400.528 413.899L398.879 413.852L397.73 414.203L394.322 414.357L393.047 414.893L391.318 416.493L390.144 416.786L388.367 417.864L385.841 418.714L384.609 418.684L382.125 420L378.235 419.752L375.534 420.558L373.829 420.79L366.257 422.456L364.583 423.64L363.331 423.509L361.446 423.937L358.853 425.33L357.646 425.366L355.69 426.216L355.07 427.167L352.858 427.266L349.927 428.348L349.054 429.091L347.048 430.027L345.031 431.352L342.757 431.845L341.84 431.676L337.401 433.96L334.112 435.818L332.405 437.765L330.65 441L328.289 443.542L326.893 445.539L326.778 446.474L322.148 452.502L318.39 456.204L316.495 458.295L315.239 459.259L313.928 460.776L311.03 463.1L308.646 464.576L307.969 466.134L305.724 466.355L303.457 467.064L302.326 467.158L297.783 465.409L296.309 464.494L295.599 464.676L294.652 463.928L293.717 463.864L290.899 463.033L286.82 461.34L285.255 461.399L283.964 460.729L281.561 459.955L279.928 459.763L275.106 459.701L272.586 460.177L270.326 460.287L266.242 460.971L263.483 461.58L261.933 462.235L259.142 463.022L256.24 465.007L255.776 466.528L254.106 467.178L251.73 467.727L250.247 468.571L249.267 468.437L247.188 469.967L245.079 470.286L242.883 471.572L241.014 473.312L238.956 476.617L238.68 477.674L238.832 479.509L240.191 481.774L242.651 483.571L243.731 485.14L244.817 487.546L245.37 492.389L245.03 493.748L243.412 493.249L240.791 495.139L239.432 495.526L238.808 497.443L238.127 497.753L236.931 499.425L236.929 502.452L237.309 504.097L236.776 507.841L237.741 509.434L237.705 511.135L236.888 512.825L236.968 513.952L237.984 515.196L238.546 516.953L240.562 520.179L239.354 520.277L238.185 520.936L236.781 519.815L234.572 519.161L233.116 516.978L231.02 518.092L230.24 517.012L230.777 516.4L230.576 515.297L228.948 513.471L227.451 512.329L225.354 512.029L224.571 511.219L224.265 509.921L221.669 504.939L218.5 501.469L216.432 500.195L215.17 497.74L215.325 495.439L214.922 493.719L214.145 492.463L213.438 492.275L212.677 491.006L212.696 489.426L213.967 486.476L215.08 480.93L214.952 479.397L215.519 478.532L215.876 476.2L214.344 474.321L213.936 472.624L213.39 472.229L213.082 470.743L214.741 468.237L215.384 464.745L215.14 462.434L217.069 463.388L218.125 462.718L219.576 460.14L221.643 459.838L223.911 460.754L225.63 460.044L226.491 458.909L228.157 459.121L229.982 457.466L231.049 457.347L233.098 455.616L235.149 455.389L235.184 456.225L237.546 456.562L240.623 456.556L242.109 456.307L243.698 457.145L246.048 457.335L247.877 458.771L249.782 458.134L252.362 456.158L255.297 451.409L256.858 449.272L257.865 447.11L259.297 445.385L261.902 441.595L262.509 440.073L264.164 438.02L266.751 432.474L267.364 431.65L268.444 431.766L270.952 428.825L271.846 428.971L273.237 428.203L274.333 426.729L275.272 424.814L276.553 423.252L277.302 421.512L278.824 420.559L279.533 418.751L281.531 416.854L282.054 415.758L283.913 413.716L286.271 413.128L288.301 410.484L290.051 407.613L292.283 407.153L294.446 405.268L297.426 405.153L300.348 404.24L304.772 402.397L306.412 401.244L310.008 399.181L313.267 396.364L315.824 394.662L318.439 392.671L322.197 389.163L330.802 384.637L335.951 382.44L337.13 382.209L341.731 382.284L344.435 382.525L352.803 381.996L353.683 381.671L356.378 381.602L358.938 381.238L363.08 379.888L364.337 380.083L366.044 379.839L370.524 377.719L376.04 374.535L379.555 372.223L382.144 370.252L383.527 368.945L384.789 368.506L386.785 367.24L387.575 366.162L389.37 365.269L390.437 365.826L390.778 366.907L391.305 370.766L392.202 376.092L393.533 377.064L392.34 378.444L393.199 379.196ZM300.364 343.827L300.748 345.017L299.954 346.548L300.13 350.747L300.952 351.994L300.784 353.09L299.343 354.353L297.314 352.391L297.825 351.693L297.517 349.365L299.1 347.173L299.355 345.868L298.296 343.766L300.364 343.827ZM317.49 339.148L319.835 338.884L320.067 339.527L321.338 339.412L321.06 340.952L321.745 341.893L322.046 343.552L322.892 343.757L323.922 342.931L323.378 342.052L323.899 340.02L326.102 340.178L326.673 339.008L327.832 338.57L329.97 338.474L330.871 338.916L331.853 340.765L335.031 342.152L336.85 342.317L337.275 343.365L334.139 345.686L334.395 347.136L333.989 348.23L331.036 350.533L329.983 350.693L327.324 352.625L326.721 353.726L328.638 355.475L330.529 356.07L331.807 357.245L332.952 357.312L333.4 358.074L334.649 358.401L336.607 358.23L337.235 358.839L337.016 360.648L338.578 361.843L340.082 362.279L338.588 363.458L337.95 362.622L336.285 362.489L334.591 361.515L333.626 359.879L331.247 359.739L329.719 359.394L328.791 360.079L327.933 361.511L326.533 361.993L324.087 361.738L323.743 362.784L322.952 363.065L321.999 361.137L320.132 361.161L318.863 362.158L317.848 361.901L317.71 359.417L316.768 358.154L317.54 356.846L318.32 356.375L318.245 355.381L317.315 354.99L316.21 356.226L315.501 356.269L314.767 355.041L313.6 354.506L312.059 351.909L312.784 350.719L311.756 349.173L310.198 347.739L307.312 346.253L306.014 344.981L306.303 342.96L305.517 341.839L305.728 341.042L307.656 340.527L308.542 340.905L309.933 340.611L310.256 339.463L312.278 338.939L314.57 339.098L316.788 337.942L317.49 339.148ZM210.562 328.594L208.724 328.636L208.308 328.091L209.571 326.538L210.516 326.261L211.227 327.733L210.562 328.594ZM208.956 301.462L209.844 302.357L211.25 302.109L211.584 303.392L212.719 304.477L215.017 305.707L216.08 307.85L216.456 310.117L215.64 312.649L214.342 314.773L214.846 315.758L214.323 317.604L213.647 318.134L212.066 318.267L211.987 315.87L213.289 314.506L213.312 313.608L211.941 312.465L208.687 312.045L208.298 311.289L205.571 310.188L204.765 309.489L201.983 308.354L199.904 306.427L199.877 305.66L197.061 305.236L196.524 304.565L197.749 303.63L198.2 302.744L200.748 301.692L201.467 302.111L202.911 301.973L203.679 302.69L205.557 302.255L207.534 301.372L208.956 301.462ZM218.112 293.559L217.432 293.471L216.494 292.274L217.77 291.053L220.632 289.563L220.443 291.862L218.112 293.559ZM293.664 270.069L294.996 270.842L296.474 270.895L299.177 272.43L300.463 272.229L302.233 273.623L302.336 275.757L300.834 276.67L298.876 275.775L297.873 277.063L297.088 276.738L296.944 275.479L295.299 276.227L294.571 275.497L293.757 275.858L292.014 274.586L290.368 274.104L290.151 274.892L288.046 273.362L287.731 271.959L289.691 272.516L290.277 271.015L291.729 270.403L293.664 270.069ZM201.805 264.269L202.755 265.175L204.518 265.546L205.408 265.28L207.203 267.116L207.438 268.117L208.581 267.761L210.127 266.026L211.033 266.566L212.648 266.719L214.217 267.695L215.062 269.197L215.782 268.604L216.721 269.391L218.16 269.738L219.779 270.979L222.63 270.822L225.318 273.582L226.186 273.401L228.063 274.266L228.853 275.292L229.852 275.524L230.205 274.616L227.286 272.346L226.782 271.413L227.612 270.872L228.755 270.922L229.692 272.372L230.901 272.037L232.037 272.27L232.915 273.486L233.559 275.547L235.578 276.985L236.112 276.157L236.951 277.555L238.428 277.664L239.102 278.255L240.442 278.466L241.237 279.578L241.251 280.78L242.645 281.42L242.819 282.198L244.492 283.32L245.383 282.425L247.347 283.805L248.234 285.05L249.676 286.188L250.37 288.203L249.045 288.822L246.142 288.08L245.378 288.574L241.991 287.419L240.429 285.777L239.001 285.937L240.003 287.611L241.253 288.897L241.283 290.59L242.457 291.19L242.911 292.341L244.198 293.662L245.198 293.802L246.16 295.842L248.869 297.889L248.63 299.301L250.393 298.867L253.306 300.091L253.269 302.218L255.075 302.053L256.075 301.526L256.512 302.46L255.924 305.838L255.015 307.271L254.87 308.334L255.378 309.715L257.062 310.276L256.814 308.055L258.204 307.277L258.685 305.711L260.28 304.396L261.455 304.206L262.373 303.511L264.8 303.075L265.933 304.67L267.515 304.047L267.804 302.693L268.814 302.691L270.969 303.742L272.313 306.452L271.707 307.194L273.33 307.801L273.748 309.69L275.031 310.234L275.029 311.32L275.954 312.245L277.184 312.016L278.829 314.878L278.772 315.759L276.378 316.302L275.188 315.886L274.997 317.664L273.789 317.717L273.892 318.616L275.351 321.178L274.058 322.54L273.14 325.293L272.601 328.031L270.693 327.794L269.236 329.247L271.098 330.484L273.001 331.001L275.458 331.144L275.367 332.556L273.881 334.46L272.687 333.809L272.808 335.886L271.398 335.978L270.616 334.979L269.883 336.229L270.078 337.562L268.079 338.464L268.691 339.542L270.614 340.745L272.094 341.055L273.79 340.393L274.39 339.473L276.083 340.574L276.529 341.931L275.605 343.169L277.031 343.231L278.749 342.798L280.41 345.095L279.13 346.164L279.187 347.097L277.541 347.559L275.071 346.262L273.64 345.866L273.16 344.943L270.95 344.836L270.113 343.644L266.173 344.8L264.659 345.029L264.031 345.896L261.293 346.521L259.038 344.509L257.962 344.814L257.28 345.79L256.273 344.694L254.479 344.96L254.393 343.726L253.627 342.984L252.143 344.557L250.603 343.665L249.03 343.213L246.43 343.6L244.891 345.179L245.268 346.124L246.604 347.129L246.825 349.441L246.182 350.229L246.97 351.272L247.168 353.814L246.584 355.492L247.138 358.321L246.142 359.999L242.859 359.117L241.056 359.226L240.232 359.732L238.933 359.609L237.465 358.568L236.727 357.209L235.396 359.493L233.822 359.814L229.843 358.743L227.394 356.951L226.72 357.028L226.492 358.613L225.669 359.182L224.271 359.189L223.84 357.626L224.73 356.839L223.811 354.864L222.041 353.983L221.198 352.396L219.231 351.417L217.955 349.669L219.207 348.276L219.504 347.374L218.798 346.164L215.366 344.718L211.345 345.25L210.71 344.098L208.89 342.681L209.078 341.948L210.752 340.797L214.429 339.041L215.041 337.138L216.6 335.82L217.755 333.838L220.214 332.61L221.109 331.709L220.64 330.18L218.655 329.139L217.373 327.67L216.891 326.627L216.313 324.109L216.852 322.903L216.607 320.838L218.352 320.814L219.409 318.649L219.082 316.714L221.484 314.01L221.798 312.833L223.668 310.527L223.825 307.702L224.248 307.239L223.872 305.344L224.258 304.299L224.09 302.93L222.329 302.211L222.846 301.33L224.092 301.444L223.71 299.818L225.621 299.28L228.107 300.117L228.573 300.856L230.565 301.081L232.765 301.928L234.471 302.867L236.814 303.407L237.343 302.208L235.48 300.25L234.098 299.136L233.002 297.703L232.757 296.374L231.579 295.094L231.794 294.202L231.346 293.029L231.157 291.203L230.488 290.183L229.605 289.905L226.963 286.71L225.085 286.322L224.318 285.061L221.82 284.418L220.688 285.307L219.405 283.58L218.208 283.308L216.796 283.608L215.107 285.599L216.419 286.644L216.594 287.486L215.225 288.573L213.929 288.427L211.221 289.088L209.948 287.975L209.236 286.645L210.072 284.927L210.227 283.857L211.514 282.94L212.957 283.705L213.278 281.263L212.357 280.596L212.929 279.122L213.677 278.456L210.707 277.64L210.368 276.323L208.44 275.762L204.472 273.149L204.198 272.296L202.655 271.835L201.057 270.938L199.639 270.946L198.575 270.114L196.687 267.981L195.209 267.073L194.733 265.635L195.229 264.177L196.119 264.157L196.784 263.089L199.484 261.505L201.553 263.679L201.805 264.269ZM199.85 257.417L199.508 258.708L198.496 260.239L197.843 258.824L198.119 257.372L199.85 257.417ZM208.923 237.64L209.228 239.336L208.678 240.009L206.946 240.57L204.755 238.304L205.636 237.077L206.9 237.573L207.968 236.276L208.923 237.64ZM198.376 220.904L197.244 222.461L196.607 222.023L196.621 220.642L197.349 219.971L198.376 220.904ZM138.99 189.52L138.955 190.357L137.153 192.168L136.217 191.939L136.453 190.707L135.893 189.587L135.936 188.348L138.99 189.52ZM161.026 184.877L161.392 185.94L160.569 187.548L162.188 188.775L162.984 187.935L164.502 189.561L163.823 190.717L163.552 192.557L164.336 192.928L166.49 192.497L167.109 191.874L166.904 190.847L167.473 189.996L166.482 188.749L166.841 187.84L168.477 188.854L170.827 189.554L170.872 191.328L175.332 191.129L178.818 193.152L179.264 194.139L180.27 194.83L182.852 193.134L183.645 193.855L182.248 195.659L183.251 196.224L183.765 197.76L183.226 198.541L184.152 199.332L182.459 200.399L181.173 200.746L181.45 202.544L181.11 204.294L179.356 204.389L176.597 206.221L175.613 205.787L174.143 206.017L173.475 206.91L173.221 209.048L173.683 210.492L174.477 210.306L175.545 211.089L176.846 212.886L178.037 211.796L179.296 212L179.937 212.615L181.247 212.377L182.276 210.409L184.356 210.411L184.89 209.968L186.49 211.865L186.858 213.083L188.039 212.505L189.843 212.725L191.043 212.456L192.016 213.67L191.437 214.131L191.451 215.747L189.935 216.866L187.891 216.973L186.02 216.708L185.172 218.608L184.765 220.836L185.308 221.012L185.708 222.676L188.988 225.41L189.675 224.988L191.642 226.783L191.383 227.921L192.883 229.727L194.405 230.166L195.867 231.514L196.673 233.404L197.626 236.855L198.682 237.311L199.527 239.052L200.103 239.482L200.409 241.891L199.479 242.781L199.841 243.754L198.128 247.692L198.499 250.239L197.697 250.152L197.325 248.148L196.078 247.378L194.645 245.492L191.596 243.918L190.887 243.2L189.755 243.061L188.875 243.613L190.127 245.87L190.154 246.527L192.619 249.612L190.646 248.995L188.799 249.94L186.969 249.536L182.088 251.504L180.725 251.124L179.373 251.207L177.334 250.281L176.175 249.369L175.379 247.623L174.797 247.221L174.985 244.876L171.693 243.433L170.836 241.91L172.836 241.65L174.135 240.245L175.713 239.024L177.301 239.583L179.181 239.684L180.649 239.16L181.866 236.388L185.191 237.254L184.73 235.629L183.593 234.888L182.835 233.313L183.716 232.269L183.469 230.986L185.003 230.779L184.861 229.708L182.491 230.051L181.463 229.294L179.082 230.176L178.872 231.137L177.398 232.021L177.266 233.181L176.397 233.786L173.626 233.087L172.213 234.137L171.426 235.55L169.485 236.524L168.198 238.426L168.912 240.058L167.565 240.919L166.494 240.099L166.241 238.944L163.525 238.509L162.761 236.785L161.635 235.028L161.729 232.413L160.167 231.009L158.848 227.562L159.101 226.801L160.174 226.507L161.053 227.617L162.967 227.512L162.522 225.2L163.671 224.213L164.892 224.364L164.69 221.745L166.631 221.984L167.44 221.231L170.391 220.156L170.852 217.898L170.232 215.798L167.826 215.467L166.367 214.472L165.858 214.84L164.373 213.633L163.234 213.397L159.194 214.787L157.304 214.187L156.699 215.875L154.749 216.038L154.029 215.064L153.758 212.635L154.068 211.293L153.84 208.994L153.178 208.461L151.381 208.35L149.925 207.492L148.429 207.754L146.336 206.482L146.022 205.281L144.171 206.388L143.569 207.245L141.968 205.372L141.661 202.554L138.528 202.048L139.82 200.784L139.944 198.792L138.899 198.107L139.204 196.999L140.561 197.613L141.443 196.748L141.815 195.678L142.817 195.492L143.547 194.415L143.074 192.048L144.766 190.945L144.627 189.974L145.354 188.776L146.681 189.276L147.237 188.098L148.753 189.825L148.999 191.211L150.051 190.978L151.15 191.839L151.812 191.662L152.925 193.864L156.933 193.89L158.561 192.182L160.168 190.923L159.486 189.759L157.983 189.28L157.513 190.639L156.035 190.52L155.651 189.361L154.199 189.196L154.286 187.932L152.803 187.627L153.412 186.545L153.645 184.976L155.693 185.687L155.6 184.513L156.68 183.564L158.43 184.272L159.88 183.64L161.026 184.877ZM166.808 184.952L165.801 184.719L164.832 183.735L165.185 181.83L167.679 183.773L166.808 184.952ZM147.039 176.893L148.657 177.81L148.975 178.455L150.369 178.987L149.262 181.806L147.575 180.783L146.729 181.8L145.896 181.993L145.028 183.242L143.919 184.123L144.775 185.902L143.188 186.268L142.71 185.414L141.658 185.865L141.251 186.81L141.736 187.766L140.499 189.275L139.507 186.847L139.764 185.832L138.579 184.349L139.524 182.859L140.458 182.783L142.448 181.936L144.93 181.421L145.018 179.729L141.949 178.224L143.682 177.939L145.135 177.164L147.039 176.893ZM162.992 178.118L162.456 177.334L162.358 175.916L163.125 175.76L162.992 178.118ZM117.467 150.591L117.412 151.745L116.302 152.105L115.379 149.906L115.22 148.333L116.137 147.708L116.447 149.174L117.467 150.591ZM135.213 143.687L134.121 142.476L135.006 141.452L135.842 142.827L135.213 143.687ZM155.993 133.384L154.43 132.998L154.559 131.643L155.993 133.384ZM44.0389 124.44L44.6642 126.082L44.9033 127.75L43.4139 128.612L41.4517 127.377L41.4243 126.289L42.1375 124.433L43.2698 123.773L44.0389 124.44ZM60.8165 115.66L61.8327 116.08L61.7791 117.777L60.8446 118.327L60.3101 119.682L58.5668 116.806L59.8683 115.689L60.8165 115.66ZM297.912 118.156L298.558 120.058L301.015 120.143L301.512 121L299.612 123.537L298.065 122.84L296.41 125.175L296.82 126.054L295.719 128.264L297.101 129.387L299.225 128.98L299.695 129.837L299.194 130.571L300.184 131.575L299.799 133.068L301.2 133.224L303.326 134.059L303.123 135.206L301.127 136.487L298.59 137.278L297.599 137.981L294.897 137.647L294.421 136.768L293.365 136.47L292.85 134.796L292.187 134.309L292.136 132.347L292.606 129.992L291.404 129.502L291.476 128.809L293.958 127.24L292.864 126.303L293.262 125.316L291.665 124.903L292.542 123.887L294.351 120.841L294.397 119.85L295.176 118.2L296.199 118.114L296.858 117.246L297.912 118.156ZM117.609 103.987L118.542 104.749L119.682 104.421L121.282 104.701L124.855 105.855L125.066 107.999L126.457 109.487L128.352 110.316L127.793 111.89L126.075 113.383L127.038 114.275L128.451 114.09L130.375 115.978L132.009 116.51L133.058 117.505L134.293 117.754L135.104 118.724L136.513 119.091L138.004 118.967L138.538 119.642L141.034 118.834L142.789 119.425L144.488 118.501L143.76 117.779L146.602 116.453L148.664 116.447L149.566 117.073L149.622 118.316L151.634 121.189L151.694 122.603L151.029 125.788L150.218 125.774L150.754 127.978L151.255 128.912L149.881 131.954L147.814 131.227L147.251 131.91L148.139 134.107L148.321 136.257L147.546 137.514L145.848 136.072L144.601 135.988L144.527 134.701L145.332 133.787L144.582 132.332L143.798 133.71L141.768 132.918L140.122 134.182L140.112 135.413L139.275 136.375L137.798 135.449L137.691 133.439L138.205 133.043L137.186 131.201L137.212 129.469L135.091 127.384L136.109 126.351L137.53 127.03L137.532 127.833L138.821 128.23L138.784 126.169L139.82 125.924L140.05 124.904L138.67 124.365L137.89 123.315L135.334 122.679L133.567 123.273L132.189 124.437L131.12 125.88L131.494 126.771L130.337 127.258L128.826 127.234L126.921 126.188L126.727 125.2L125.21 123.978L124.177 122.498L122.182 121.562L119.345 121.922L118.661 121.418L117.679 121.843L116.711 121.02L114.769 120.285L116.081 118.87L115.263 117.396L114.523 115.276L111.909 113.601L111.774 112.338L113.319 111.949L113.365 111.082L111.845 110.686L112.435 108.837L114.262 108.692L114.915 111.111L116.099 110.547L117.093 110.86L118.465 109.886L117.216 109.316L118.564 108.232L116.887 107.966L115.437 106.358L116.933 104.091L117.609 103.987ZM113.203 100.082L114.124 100.094L114.814 101.05L113.829 102.067L112.517 102.083L111.181 103.658L111.234 101.927L113.203 100.082ZM52.7742 96.2546L51.4553 96.0781L51.3318 94.4091L52.6516 94.7759L52.7742 96.2546ZM134.892 90.4825L133.791 89.6334L134.985 89.0416L134.892 90.4825ZM139.653 85.5084L140.56 85.3543L141.7 86.6898L140.637 87.4899L139.644 87.4969L139.203 88.4535L138.354 88.7037L137.572 87.8127L137.407 86.6589L138.164 85.5115L139.653 85.5084ZM131.842 81.0628L133.038 82.4483L135.264 83.7108L135.678 84.4273L134.163 85.2223L132.352 83.05L131.184 82.6724L131.842 81.0628ZM108.629 76.8918L109.923 77.2368L110.874 78.7243L112.056 79.2276L112.508 80.3626L112.42 81.5507L111.261 82.4516L111.634 83.7777L110.892 85.7513L110.214 85.9742L108.583 85.4034L107.04 83.6091L106.737 82.494L105.203 80.8775L106.053 79.7137L108.121 80.8127L107.271 78.2622L105.803 77.1296L107.679 76.1883L108.629 76.8918ZM118.637 76.3431L119.449 76.3846L120.787 78.3506L119.746 78.6813L119.399 79.8826L120.554 80.4084L120.145 82.0298L119.063 81.5122L117.986 80.0677L118.862 78.6462L118.665 77.3097L117.184 76.7574L117.319 74.983L118.705 75.2577L118.637 76.3431ZM115.604 74.0988L116.198 75.6547L115.627 77.1756L114.187 77.3957L113.278 75.8719L114.483 74.3229L115.604 74.0988ZM42.6223 71.8902L46.4625 73.1366L47.4174 73.1321L46.5591 74.8334L46.0147 78.8842L46.7797 79.6598L48.5291 79.7939L49.9225 80.5147L50.9647 80.4187L51.5681 79.5731L52.7875 80.8856L54.1865 81.6124L56.4566 81.0676L56.6642 81.8178L55.7353 82.5337L56.5507 84.8277L57.5448 86.337L58.0999 89.6882L57.6337 90.2285L58.2381 92.2432L59.1505 91.5625L59.921 92.4131L62.4113 94.3561L62.503 95.1756L65.1692 95.7589L65.0238 97.9381L64.2456 99.0316L62.3031 98.6852L60.7766 97.6543L59.8778 98.9147L58.8867 99.2912L58.4528 98.4229L59.1082 96.9408L57.6994 95.1465L54.099 94.0518L53.1659 92.6875L51.3875 93.3607L49.5949 92.0906L47.1172 91.7881L47.1857 91.1003L45.4391 90.2597L44.4947 91.16L43.4177 90.912L43.1579 89.6067L41.2367 90.4311L41.4877 92.1494L43.2554 93.8546L42.0569 94.7323L39.1579 95.1023L37.3906 94.556L36.9014 96.0775L38.0525 96.8624L38.7757 98.2349L39.0738 100.52L38.8064 102.293L37.5726 101.422L36.494 101.858L36.4728 103.222L37.4714 103.269L38.1038 104.125L39.5565 104.628L38.6731 105.481L36.663 104.93L35.7315 107.228L34.8769 107.215L34.3097 106.26L32.594 104.975L31.4207 102.934L30.8765 104.388L31.2161 105.09L30.5823 106.27L32.2091 107.413L32.8229 108.865L34.6222 110.387L36.9174 110.759L37.7888 111.924L37.5141 113.284L38.6394 114.557L40.1214 113.23L40.8076 114.895L42.5057 116.078L44.4984 117.886L45.2562 119.601L42.844 121.155L41.5318 121.111L40.3131 119.845L39.4325 120.125L38.8372 122.41L39.042 123.749L40.2945 124.012L38.8054 126.119L38.8765 129.443L39.6965 130.276L42.9538 131.543L45.0749 133.745L44.8778 135.173L44.2114 136.392L44.6156 138.019L43.8616 140.55L41.8898 140.716L40.8687 140.268L39.1019 140.69L38.0604 141.789L36.507 140.756L36.575 139.975L35.6997 138.993L32.5009 138.421L30.0785 137.735L29.9956 136.571L31.1722 136.054L30.8217 133.167L31.5124 132.441L33.9455 131.94L35.1305 130.844L36.5351 130.677L37.1793 129.493L36.2502 127.674L33.5624 128.027L32.9181 126.958L30.3819 125.716L29.0019 126.406L28.5383 127.337L28.5302 129.011L25.9248 130.367L22.9017 129.805L23.0468 128.056L22.3 126.437L24.4266 125.159L24.8828 123.815L24.7535 122.296L23.9562 120.553L24.0266 119.181L24.6658 118.032L25.5835 117.47L25.6887 115.4L23.7819 112.287L25.1361 111.947L25.6381 110.843L25.0953 109.367L26.3761 109.663L28.1425 108.989L27.5344 107.564L24.878 105.67L24.5487 103.809L25.8233 101.767L26.9823 100.872L28.1968 101.151L28.9388 100.648L29.9401 101.303L31.3422 100.481L31.344 98.5952L30.3562 97.3612L28.4977 98.4726L27.7949 97.972L27.3949 96.2882L27.9047 94.6241L26.7636 91.4546L26.0943 88.866L26.1507 86.9575L27.1755 86.6759L28.4733 87.0469L29.4637 86.5151L27.9823 83.6908L26.4089 83.4637L25.4152 82.2427L26.0718 81.1449L26.0128 79.3448L25.1152 77.5326L26.0534 75.3198L25.2318 74.338L25.8433 73.1018L26.8219 72.421L31.4655 75.291L31.8474 77.6898L31.0441 78.2279L31.846 79.68L35.3155 79.5644L38.8595 77.7055L38.7564 74.5978L41.109 75.1366L42.8138 73.9585L43.1583 73.2575L42.6223 71.8902ZM119.769 54.6672L118.94 55.7941L117.955 55.6872L118.314 54.5091L119.769 54.6672ZM7.84733 51.1791L8.54058 51.8405L8.14868 52.8802L5.32692 52.6564L3.93485 53.501L3.34375 52.3987L3.86311 51.4771L5.17207 50.6047L7.84733 51.1791ZM115.656 50.2388L116.668 50.734L117.167 52.0338L117.015 53.2926L115.84 54.7381L116.351 56.2556L118.523 57.0548L119.902 58.407L120.878 60.2506L122.299 61.0559L122.517 59.7434L123.273 59.2555L124.851 62.7627L124.473 63.3335L125.844 64.1475L126.189 65.6629L127.485 67.0457L128.852 66.7365L130.981 67.834L133.25 70.4596L133.621 72.4268L134.92 73.2072L136.095 74.6166L135.181 75.6432L133.096 74.2793L132.436 75.5512L130.488 76.5121L129.894 77.7588L128.993 82.6533L128.303 82.8426L127.342 79.5086L126.379 78.7128L125.956 77.6126L127.3 75.8419L127.966 74.341L127.215 73.4028L126.156 73.4007L124.946 74.5545L124.764 75.4933L123.579 76.2689L122.452 75.0357L122.782 73.7896L124.928 72.1418L124.128 71.4238L121.529 71.2194L121.306 69.025L120.784 68.8836L120.062 66.6099L118.947 66.1099L118.859 65.196L117.432 65.771L117.019 66.5154L115.488 66.2047L114.961 65.398L115.27 63.5043L114.821 62.2618L115.199 60.0626L113.143 59.7134L112.673 59.2158L111.784 56.8943L112.799 55.0003L114.754 54.5767L115.159 53.9422L114.676 52.2182L115.044 50.724L115.656 50.2388ZM246.277 40.0768L244.353 40.8603L243.546 40.7195L241.362 42.1713L240.44 40.3782L243.012 39.7619L244.096 39.2625L246.277 40.0768ZM257.177 15.5649L257.112 16.7502L255.133 16.8932L257.177 15.5649ZM242.888 11.1738L244.671 11.5387L245.891 11.1968L246.819 11.9472L245.975 13.3127L249.136 13.5501L250.89 14.1676L251.434 14.7191L250.042 15.7218L250.155 16.9213L251.498 16.6639L252.627 17.5885L253.601 17.3831L255.864 19.4682L255.091 20.4769L254.76 21.9254L256.23 22.7064L256.337 23.5241L255.453 24.203L253.86 23.5834L253.136 24.2133L250.714 22.9042L250.595 21.6183L248.144 18.8507L248.295 21.0117L245.859 21.5793L247.98 23.449L248.168 24.8199L246.484 24.7572L243.851 24.0353L243.74 25.0046L242.537 26.0894L243.498 28.1796L242.872 29.3925L241.865 30.2119L240.684 28.5494L239.242 29.0784L238.18 28.6045L238.397 27.3068L239.781 25.5882L237.556 25.518L237.05 23.5701L237.32 21.8421L236.278 21.5405L235.852 25.2621L233.964 25.5349L233.092 27.1875L233.768 28.4013L234.51 28.5315L234.497 30.1047L231.916 30.2077L231.524 29.1793L230.453 28.4646L230.125 29.9933L229.123 29.8046L226.404 28.2326L226.315 26.8032L225.445 24.2715L224.756 23.3448L224.46 21.4339L226.668 21.7776L226.99 20.582L225.853 19.2501L226.542 18.523L224.349 18.0297L224.606 16.8865L225.557 15.9644L224.664 15.3675L224.743 14.1425L224.291 12.8618L222.478 14.4054L220.923 13.8269L220.703 12.5193L219.569 13.0262L217.641 11.9781L217.68 10.6674L222.771 9.74076L224.919 9.76619L230.761 11.2025L232.87 11.2171L233.98 11.6211L233.868 12.5387L236.336 11.5393L238.659 12.4839L240.705 12.7516L241.18 13.4181L242.327 12.357L241.332 11.2241L239.982 11.0066L238.78 10.0602L239.377 9.47759L240.809 10.609L242.888 11.1738ZM255.446 9.09238L252.09 10.1629L249.881 11.466L248.442 11.2725L247.416 10.5748L245.682 10.559L246.176 9.65687L247.363 9.69472L250.872 8.94096L255.446 9.09238ZM230.29 6.34595L229.051 5.90926L228.378 4.56406L229.713 4.18703L230.969 5.33811L230.29 6.34595ZM243.291 4.9738L242.097 4.22216L242.461 3.18555L244.084 3.54653L244.391 4.75394L243.291 4.9738Z" stroke="white" stroke-width="5"/>
</svg>
