<svg width="1157" height="510" viewBox="0 0 1157 510" fill="none" xmlns="http://www.w3.org/2000/svg">
<path d="M1149.82 356.616L1148.35 357.469L1148.35 358.464L1147.16 359.749L1145.67 359.853L1145.24 359.343L1145.41 357.86L1146.47 356.475L1147.23 354.56L1149.19 351.533L1150.04 351.145L1151.77 352.107L1153 354.094L1150.85 355.579L1149.82 356.616ZM171.401 291.268L170.32 290.053L170.156 288.655L171.349 287.133L174.204 290.205L171.401 291.268ZM211.437 286.39L210.5 288.103L208.709 288.908L207.989 288.537L207.631 287.15L208.026 286.369L211.413 285.471L211.437 286.39ZM1079.84 328.101L1080.83 326.698L1081.61 327.603L1086.34 327.594L1087.54 327.235L1089.52 328.11L1088.46 329.057L1086.05 330.189L1085.81 331.313L1084.16 329.569L1083.2 329.743L1083.66 330.921L1083.33 331.926L1081.85 331.614L1081.43 332.462L1079.92 332.329L1078.32 331.538L1077.48 332.008L1075.86 331.562L1076.07 330.375L1078.11 328.269L1077.59 327.367L1078.36 325.967L1079.82 326.809L1079.84 328.101ZM1129.07 323.041L1130.61 322.628L1130.27 323.742L1131.77 324.42L1128.93 327.454L1127.27 328.207L1126.93 329.15L1127.37 330.42L1127.12 331.314L1125.97 332.795L1127.1 333.214L1127.96 331.367L1130.06 333.01L1130.37 334.184L1131.53 333.46L1131.85 334.663L1134.36 335.053L1133.5 337.502L1131.96 338.934L1129.52 340.339L1126.64 342.091L1123.93 342.293L1124.62 343.948L1124.04 345.351L1122.02 347.739L1120.4 348.201L1118.78 349.583L1116.72 349.154L1114.6 349.92L1112.81 349.309L1113.54 347.885L1112.91 346.922L1114.04 344.298L1115.09 342.763L1116.26 340.35L1116.05 339.313L1117.29 334.6L1117.78 334.16L1117.49 332.562L1118.43 330.553L1119.25 331.515L1119.97 331.254L1120.29 329.528L1121.12 327.526L1122.88 325.398L1125.19 323.093L1127.2 322.277L1129.07 323.041ZM157.796 271.692L159.636 270.903L159.957 272.735L161.5 272.222L162.502 273.104L163.819 272.754L164.706 274.816L165.334 275.107L166.217 274.235L166.55 273.168L168.212 275.022L168.796 276.561L168.773 278.3L167.42 279.525L168.197 280.17L168.833 281.472L168.5 283.735L170.183 284.274L170.26 285.587L168.153 286.232L166.096 285.707L164.081 287.037L164.114 287.718L165.327 288.547L166.448 288.798L165.857 290.103L166.775 291.444L164.958 292.313L162.803 291.699L161.122 290.171L161.44 288.704L160.63 287.413L159.161 288.218L159.504 289.575L159.043 290.221L157.439 290.642L152.236 290.592L150.604 291.476L151.464 292.331L151.399 294.746L150.325 296.678L149.441 297.265L146.678 294.467L147.077 293.599L148.358 292.946L149.749 291.771L149.281 291.056L147.21 290.824L146.116 291.202L144.508 290.554L143.702 289.768L141.86 289.66L139.072 289.987L136.953 289.345L133.93 290.075L130.371 292.13L128.939 291.271L127.169 292.393L126.088 292.307L123.918 293.141L122.325 294.08L120.675 296.453L119.047 297.1L118.688 295.394L119.758 292.631L118.916 292.606L118.468 291.718L119.193 290.917L118.6 290.207L118.935 288.94L117.394 285.2L117.536 284.162L118.576 282.178L120.113 280.594L119.906 279.858L118.258 279.676L117.813 278.663L119.009 277.054L120.529 276.987L121.134 278.233L121.996 276.416L122.677 277.129L124.27 277.879L125.727 277.413L125.891 275.804L127.672 275.796L128.594 276.136L129.643 275.684L130.004 277.087L131.012 277.345L131.833 276.879L132.678 275.452L133.579 274.774L133.933 273.717L135.801 273.738L136.194 274.409L136.062 276.074L137.306 277.137L137.492 276.106L138.479 275.437L140.768 275.043L141.971 273.577L143.043 274.293L144.121 273.967L144.857 273.062L145.883 272.954L147.64 274.996L149.008 273.655L149.976 273.222L151.387 271.904L152.156 272.24L154.053 271.105L157.473 270.803L157.796 271.692ZM242.608 273.182L243.235 274.604L241.514 275.327L240.526 274.341L240.103 273.08L241.667 272.634L242.608 273.182ZM186.69 272.184L184.939 271.393L185.799 270.276L186.69 272.184ZM185.16 262.78L186.276 262.975L187.383 264.754L186.256 267.705L185.62 268.304L183.707 268.941L183.281 268.035L183.194 264.81L182.183 264.734L181.795 263.743L182.845 263.241L184.036 263.413L185.16 262.78ZM242.568 260.203L242.937 262.076L241.966 262.713L241.07 264.306L240.397 264.315L239.302 265.447L239.463 266.515L238.03 267.509L236.813 267.597L237.849 264.352L238.982 263.217L239.549 262.034L240.403 261.347L240.943 260.172L242.568 260.203ZM213.967 246.816L217.521 248.174L218.827 249.703L217.697 250.546L216.322 252.507L217.34 253.552L217.164 255.354L218.199 256.415L217.708 257.545L216.846 257.764L215.143 258.934L214.713 260.127L216.572 260.345L215.173 262.084L214.699 263.318L213.304 264.827L212.367 266.575L211.517 264.936L210.344 265.638L210.926 269.114L208.789 272.999L207.598 273.54L206.223 268.612L204.225 265.416L205.794 265.253L206.976 266.942L208.721 266.503L210.047 265.108L208.491 263.554L208.332 262.635L209.32 261.819L211.663 258.553L210.783 257.261L209.495 257.216L206.757 257.988L205.34 258.762L204.366 260.039L201.334 262.667L199.832 262.962L199.116 261.195L199.975 260.535L199.566 259.035L199.761 257.61L200.779 257.143L201.635 256.129L201.692 254.528L203.708 251.067L203.722 250.1L204.734 249.543L206.502 249.831L206.398 248.974L207.888 248.435L208.777 248.901L209.977 248.657L211.357 247.266L213.967 246.816ZM92.7093 193.174L91.2304 196.066L88.2494 198.104L88.5192 200.064L87.0588 201.057L86.0712 200.369L86.9548 199.34L87.0788 198.127L88.1704 197.433L89.1562 196.118L90.2985 193.959L91.4946 193.231L92.8468 191.75L93.2651 190.096L95.2929 189.443L93.9161 191.999L92.7093 193.174ZM61.0793 147.822L60.7171 148.927L61.1207 150.265L59.9686 150.468L59.7546 151.971L58.414 152.439L59.1932 150.601L59.8734 147.937L61.0793 147.822ZM6.92447 120.205L9.73067 120.851L10.4381 121.455L11.7361 121.424L12.0431 122.247L9.89482 122.776L8.31028 124.583L7.3491 124.738L4.39965 123.26L3.25391 123.334L3.33609 121.771L3.92139 121.606L4.98448 120.108L6.92447 120.205ZM36.8963 121.128L37.5197 122.775L36.9228 124.776L38.7483 125.275L40.5063 122.378L41.594 123.016L41.6291 124.591L42.1758 126.248L43.3489 126.594L43.3123 128.221L45.1882 128.606L44.8676 130.703L45.9499 132.217L46.5614 135.196L48.4555 137.122L48.4531 137.776L49.4431 139.683L50.6541 141.342L51.9069 141.783L52.4687 142.621L52.6312 143.996L53.851 144.941L54.1965 146.061L53.6393 147.062L54.9083 150.542L56.5739 151.527L57.1952 151.511L57.653 152.789L57.66 155.697L58.2887 156.817L57.7644 158.229L56.6556 158.471L55.6968 159.782L55.5681 160.913L53.8496 163.735L54.5336 165.194L55.7279 166.835L57.6284 168.166L59.5948 168.548L60.5565 168.292L61.9031 166.89L62.053 164.505L62.5327 164.059L64.2921 164.054L65.015 162.889L66.4159 164.055L67.5749 165.868L67.1472 166.926L69.6379 168.919L70.2467 170.278L70.9905 170.46L72.2568 172.768L74.2557 174.009L75.1853 173.283L75.4885 172.165L76.9168 170.354L76.2324 168.133L77.4434 166.725L76.7748 165.772L76.8203 164.81L78.3428 163.732L80.9788 164.571L81.992 165.385L83.77 168.525L85.104 170.181L84.8259 172.308L84.0685 172.737L83.8842 174.779L82.2014 175.625L80.9626 176.656L79.8022 178.775L78.9567 178.884L78.4621 180.107L76.9345 180.356L75.5628 181.15L75.2471 181.998L73.8648 181.509L73.7747 182.573L72.5442 183.054L71.4702 182.307L70.9269 183.049L65.8731 186.576L63.7186 186.465L63.4544 183.692L62.3005 183.664L61.5608 185.309L60.387 184.709L60.2941 186.477L59.462 188.572L57.9316 190.378L56.8037 190.455L56.4439 189.637L56.7564 187.254L56.2772 186.439L55.7836 183.657L54.6836 183.693L52.426 186.617L51.1068 187.161L51.9932 184.648L51.4467 183.478L52.3062 181.338L50.8663 181.564L51.0325 180.45L49.9515 178.484L48.7763 177.535L48.6505 176.25L47.8131 175.301L47.9935 174.353L47.3441 173.153L45.0475 176.117L43.5616 179.15L42.4723 179.634L42.4909 178.139L42.9612 177.527L43.2619 174.748L43.7982 174.103L42.8902 170.879L40.8585 170.016L41.1088 167.816L40.2934 166.368L39.6101 162.558L40.6732 159.359L40.7529 158.203L39.9017 155.628L38.8277 155.253L38.2998 153.896L34.5424 153.309L33.1078 153.455L31.1119 155.405L30.583 159.063L28.7117 161.133L27.9152 160.764L26.7258 159.117L25.5273 159.565L24.2109 159.404L21.9784 163.488L22.5412 165.624L22.2134 167.996L21.086 167.067L21.568 165.458L20.9859 164.947L19.462 166.249L18.5881 166.434L17.9928 165.635L17.8774 162.519L17.2183 162.042L17.6072 159.557L16.5724 159.074L15.8638 160.022L14.8237 159.55L13.2863 161.054L12.4988 160.856L12.2885 159.754L10.7072 159.883L10.2315 160.489L9.17463 158.621L8.04886 157.548L8.40152 156.253L9.0618 155.666L8.59398 153.736L9.57791 151.601L9.38033 150.763L10.6614 147.91L10.5187 146.62L11.2453 145.037L11.1789 142.334L11.9985 140.266L10.404 137.745L10.7787 136.918L10.6259 134.632L9.36942 134.406L9.36919 133.036L10.2291 132.658L11.2804 133.192L10.7733 130.867L11.644 129.59L13.8277 128.826L14.6094 128.184L16.1092 128.111L14.0042 130.495L13.8356 131.386L14.4618 132.842L15.9871 133.852L17.2241 135.224L18.8142 135.817L19.9451 135.573L21.1236 136.819L24.0303 138.047L25.7198 138.018L28.8975 137.096L29.825 136.077L30.2417 133.174L31.696 131.005L31.1179 130.129L30.6543 128.348L31.6203 127.359L32.4807 124.717L34.0312 124.092L34.834 124.416L35.4279 123.079L36.8963 121.128ZM463.25 140.293L462.621 140.953L462.642 143.291L464.408 146.519L466.235 145.849L466.524 148.029L468.597 148.188L469.211 150.678L468.323 151.904L469.083 154.641L467.521 155.588L466.389 157.818L466.548 160.032L465.871 160.389L465.643 163.682L466.039 165.044L465.643 167.056L464.727 167.497L464.599 169.166L465.787 170.115L464.467 170.657L464.174 171.68L464.543 173.032L465.918 173.359L466.528 174.437L466.065 175.635L467.818 176.587L467.408 178.083L468.368 178.843L470.162 179.115L471.804 180.644L471.669 181.296L473.302 182.374L472.13 183.934L470.359 184.411L469.937 186.165L469.082 187.665L469.598 188.794L468.673 189.109L468.275 190.393L466.02 191.022L466.17 192.603L463.704 191.841L461.955 193.61L460.643 196.143L458.149 199.289L456.698 201.449L454.026 206.601L452.871 210.718L452.838 213.228L453.484 214.741L454.82 215.262L454.423 216.478L455.772 217.405L456.044 218.711L456.936 219.681L458.008 219.635L458.046 220.629L457.412 221.467L456.235 222.027L456.929 223.839L456.532 225.003L454.437 225.404L452.798 226.056L452.865 226.941L451.74 228.075L450.533 230.58L448.828 231.459L448.113 231.135L446.653 232.987L443.856 237.63L442.66 240.45L440.195 245.169L439.653 245.955L439.009 248.131L436.596 253.52L434.691 258.658L434.072 262.682L434.544 265.464L435.794 266.818L437.043 266.578L438.508 266.974L437.902 269.366L437.9 270.653L436.768 271.002L436.353 269.537L435.512 269.471L435.124 270.497L434.163 270.368L432.702 272.186L431.721 275.269L432.311 276.763L431.472 278.055L429.832 281.296L428.931 280.327L427.176 280.764L425.494 282.849L424.673 284.215L424.303 286.186L425.349 286.842L425.221 287.728L423.497 290.239L421.437 295.538L421.172 298.308L422.442 299.06L422.24 300.407L422.581 301.52L421.016 301.143L420.395 302.039L420.479 304.494L421.111 306.898L420.85 308.277L419.527 309.939L419.544 311.336L417.914 310.354L416.325 310.254L415.879 311.025L414.814 309.82L413.316 309.109L413.099 309.682L411.145 309.949L411.053 310.738L409.227 312.06L406.257 312.725L405.662 313.762L404.573 312.897L403.473 313.802L403.597 315.099L402.668 315.867L401.219 316.112L400.822 317.07L401.413 319.538L402.949 320.087L402.139 321.413L402.336 322.827L401.058 323.739L400.523 322.666L399.534 322.25L396.874 324.241L394.727 329.179L393.238 331.999L390.372 336.672L389.415 339.304L389.227 340.903L387.645 347.314L386.653 352.931L386.479 355.578L386.74 356.923L385.556 358.443L386.492 361.005L387.58 362.054L389.457 362.59L390.465 360.995L393.188 360.37L394.686 360.782L396.319 361.877L396.819 363.254L398.052 363.313L399.74 362.137L401.401 362.343L400.098 365.41L398.033 366.873L397.011 365.465L395.7 365.318L395.739 366.697L394.751 367.502L395.194 368.76L396.475 369.128L397.122 368.437L398.109 368.617L398.289 369.598L396.755 370.821L395.888 374.085L396.868 374.043L397.437 375.354L396.96 376.119L395.113 376.24L394.728 377.009L391.857 378.91L390.582 380.062L389.385 382.22L390.243 383.023L391.747 385.377L392.037 386.784L393.808 388.796L394.725 390.533L394.831 391.986L395.483 394.13L393.962 394.832L393.179 392.833L389.43 391.621L388.7 390.773L387.07 390.481L385.546 389.32L384.423 389.137L382.714 389.884L381.13 388.943L380.517 387.41L378.851 388.139L377.637 387.433L379.154 386.623L379.405 385.714L378.781 384.354L377.363 382.988L376.093 382.777L376.343 380.883L373.464 379.633L371.146 379.41L368.976 379.967L364.515 380.114L362.212 380.595L359.496 381.794L359.485 382.734L358.037 383.508L358 384.254L356.67 384.256L353.837 385.14L352.944 386.514L351.226 386.206L351.396 388.02L350.176 388.14L347.174 390.108L346.45 390.849L345.29 390.81L342.757 392.293L342.1 393.185L339.556 395.681L339.262 396.668L338.038 396.891L337.36 398.17L335.486 397.643L334.036 398.44L332.718 398.453L330.289 399.743L329.481 400.864L327.653 401.921L326.014 404.02L322.692 409.029L321.473 411.48L316.262 419.923L310.771 430.704L309.807 433.016L307.689 437.276L307.257 437.759L306.043 440.805L302.651 447.929L301.067 450.646L300.276 452.724L300.553 453.711L299.885 454.557L297.819 454.319L296.596 455.453L295.405 457.55L293.051 460.027L291.451 462.704L289.678 465.137L288.322 467.784L288.454 469.06L287.94 470.128L285.962 471.989L286.236 474.381L285.366 474.763L283.209 473.541L282.036 473.921L280.182 475.417L277.532 478.01L275.917 480.58L275.931 481.902L277.397 483.678L276.218 483.794L275.404 482.679L275.164 481.53L271.788 481.085L268.667 482.456L267.506 484.022L264.865 486.02L263.613 487.638L263.358 490.227L261.286 490.488L261.414 491.804L260.952 492.363L259.194 492.685L258.058 494.61L255.152 496.48L254.847 497.971L252.818 498.964L251.71 498.389L250.783 499.015L250.342 500.374L248.634 499.099L246.008 499.874L245.142 499.097L243.429 499.533L241.094 500.92L241.015 502.866L240.55 503.734L238.401 503.813L237.733 505.021L238.074 505.912L235.996 506.85L234.431 506.747L233.754 505.9L232.443 506.523L231.24 505.588L232.077 503.709L231.204 502.594L231.408 501.591L234.368 499.845L237.146 499.891L239.389 500.212L239.864 500.752L241.185 500.038L241.565 498.46L241.283 496.803L239.949 495.674L237.806 495.868L237.454 495.006L237.726 493.562L236.742 492.939L235.853 489.661L234.103 489.583L231.985 488.672L231.989 486.83L231.415 485.958L230.123 485.522L229.131 484.642L226.681 484.388L226.33 483.692L225.207 483.461L223.377 481.959L222.953 480.891L224.215 478.631L222.664 476.709L221.421 474.051L220.615 473.446L219.933 472.027L220.236 470.455L219.676 468.673L217.769 467.104L216.753 467.427L215.782 466.478L215.922 465.591L217.117 464.408L217.072 462.765L218.497 461.111L219.772 460.618L223.064 452.601L224.429 448.624L225.324 445.497L227.123 440.698L229.584 433.66L229.842 432.416L231.062 429.35L233.116 421.848L233.847 418.556L234.467 413.943L234.134 412.864L234.86 408.691L235.987 403.48L236.337 398.223L235.247 395.958L235.742 393.625L236.461 388.347L235.989 386.628L236.148 383.588L236.523 380.459L236.541 375.675L236.3 372.127L234.991 366.23L234.451 364.974L233.246 364.211L232.8 363.219L231.304 361.232L228.954 361.262L227.849 361.718L225.101 361.481L224.542 360.776L223.112 360.488L221.616 359.681L220.863 358.366L218.131 357.819L217.098 356.798L214.249 356.508L213.095 356.638L212.078 356.207L212.324 353.825L210.134 351.923L210.401 351.343L212.772 350.156L213.487 348.691L214.387 347.895L214.815 344.432L213.483 343.379L213.257 341.483L212.739 340.55L210.986 340.319L210.002 336.737L210.339 335.441L208.168 335.391L206.05 335.736L204.736 337.058L203.255 336.276L202.691 336.91L201.109 335.242L200.198 335.234L200.102 333.594L198.945 332.7L198.955 331.19L199.745 330.319L199.787 328.873L201.549 328.731L202.351 327.907L203.808 327.522L205.329 325.735L208.823 324.246L212.883 324.445L215.711 323.797L216.706 322.737L218.47 322.733L219.35 322.142L220.661 320.536L222.35 320.682L224.427 320.316L224.802 318.983L226.68 319.401L225.969 317.17L226.851 316.654L228.295 315.085L229.782 313.042L230.864 312.235L233.763 309.235L234.58 310.19L235.335 309.85L235.781 308.52L236.389 308.291L238.211 308.791L239.188 309.436L240.281 308.285L240.926 306.288L242.38 305.189L243.099 303.651L244.019 300.759L246.152 299.061L246.588 297.881L246.394 295.917L247.458 295.077L247.462 294.152L248.878 292.19L250.452 287.965L249.223 285.909L250.118 283.069L250.63 282.72L250.88 280.599L250.355 279.75L250.355 276.778L250.872 275.306L250.662 274.596L252.849 272.382L252.592 271.446L253.536 270.336L253.27 269.327L253.692 267.558L254.328 266.458L255.502 265.996L257.179 264.378L257.652 263.395L257.465 261.718L258.772 259.951L258.658 258.197L258.165 256.95L258.621 256.34L259.933 256.546L260.93 256.013L262.145 253.995L264.427 255.051L267.509 254.905L268.634 255.577L269.408 254.894L271.309 252.295L274.186 250.404L275.709 250.355L277.883 248.536L280.117 245.837L282.064 242.63L284.143 241.108L286.155 237.378L287.436 235.975L289.053 232.657L290.526 231.046L292.335 226.725L293.657 223.988L294.391 223.377L297.529 221.697L298.557 221.741L299.592 220.521L300.79 220.094L301.748 218.368L302.938 216.85L306.24 215.427L307.497 214.345L309.231 213.608L311.101 211.206L311.859 210.639L312.989 211.021L317.189 209.494L317.955 209.773L321.045 208.47L322.189 207.509L324.416 206.605L326.258 206.892L327.976 206.275L331.659 204.581L333.937 204.121L336.079 202.212L337.671 201.195L338.932 199.782L340.141 198.916L343.645 195.802L345.383 194.745L347.074 194.382L351.772 192.768L356.576 190.67L359.432 188.624L362.631 184.765L365.488 184.527L368.894 182.649L372.28 180.118L374.999 178.988L376.974 177.176L378.825 175.117L380.36 175.024L382.41 173.771L384.208 173.079L388.819 170.916L391.618 170.484L393.814 169.714L398.136 167.892L400.817 166.929L402.731 165.855L404.841 164.981L406.353 163.775L410.295 161.903L414.713 161.164L417.87 160.993L421.923 160.26L427.007 158.896L430.164 158.978L433.054 160.294L437.6 161.481L440.363 161.911L442.88 161.435L444.991 160.489L446.492 159.518L448.772 157.184L451.004 153.535L452.878 149.535L454.139 146.481L456.857 143.892L457.883 142.095L458.153 140.416L459.195 139.935L459.779 137.336L460.673 137.174L460.955 138.555L461.614 139.592L463.25 140.293ZM288.839 100.041L290.527 100.653L289.742 102.344L288.005 101.898L287.287 101.168L288.152 100.095L288.839 100.041ZM285.897 91.9963L287.706 92.7064L288.721 92.3376L290.441 95.2039L291.7 95.4662L292.038 97.1669L290.783 97.3456L289.628 96.8789L288.804 97.2874L288.467 98.6835L286.52 98.814L285.032 100.418L282.181 99.9797L281.781 98.9888L282.242 97.7708L281.454 96.9552L282.576 95.6136L281.559 94.6836L282.187 92.5862L283.889 92.4878L284.78 91.7816L285.897 91.9963ZM231.426 65.8626L231.477 65.1065L232.779 63.1804L233.877 62.9993L233.027 65.1673L231.426 65.8626ZM238.361 58.5852L238.508 59.2608L236.911 60.3964L235.837 59.8743L236.685 58.7593L238.361 58.5852ZM273.661 20.6733L273.3 22.8238L272.44 23.5815L269.058 24.2819L267.422 25.3576L266.614 25.3967L265.879 26.2758L266.081 28.3239L265.876 29.554L262.849 32.2468L263.67 33.6399L265.347 33.0266L265.651 33.8461L267.443 33.6565L267.597 32.9879L269.225 32.8828L270.735 31.9549L274.46 33.1844L274.806 34.3019L273.647 34.9627L274.792 37.2494L276.966 35.1211L278.23 34.3004L278.666 32.854L280.096 31.1705L282.031 30.6042L284.498 30.7099L286.518 29.3251L286.776 28.6682L288.958 27.8121L289.659 27.2013L290.852 27.9556L290.031 30.534L289.833 32.4437L290.722 32.699L290.356 34.4715L289.389 34.7034L288.817 35.9251L286.364 36.5465L284.241 36.3448L282.392 37.4096L282.83 38.7784L283.745 39.5997L286.595 37.5831L288.516 38.0138L290.744 36.27L292.819 35.9505L293.626 36.2852L293.971 37.6143L293.848 40.1824L294.198 41.758L294.871 42.9682L293.891 45.6371L294.415 47.167L292.187 47.2397L290.345 48.0283L290.292 49.5391L292.146 49.997L292.584 51.0512L293.767 51.5821L293.982 52.4294L292.92 53.7131L292.284 56.0462L290.222 55.873L289.636 56.4375L286.808 56.9211L284.529 57.789L284.469 59.666L285.77 60.7335L286.971 60.4855L287.466 61.1114L289.204 61.7132L291.847 61.5948L293.4 62.0872L293.679 63.4036L293.592 65.1034L290.966 67.2575L290.869 68.6766L287.505 67.9504L286.966 69.0521L288.972 71.3313L288.248 72.4678L289.582 73.6801L290.704 74.0495L292.287 75.6058L293.258 75.4311L293.012 77.4501L289.778 77.1143L291.565 79.4543L291.518 80.5236L290.013 80.3582L288.124 80.8104L285.528 82.4784L286.814 82.889L287.117 83.7373L285.562 83.9033L284.473 84.9756L283.994 84.6537L282.334 85.3875L281.722 87.5028L279.972 87.206L278.494 87.3895L277.538 87.9358L276.049 87.8574L275.063 87.2708L273.526 87.0146L273.736 85.882L272.784 85.0495L271.333 85.223L270.79 86.12L269.797 86.2372L269.341 85.3941L270.261 84.3327L271.746 83.7185L272.063 81.705L271.584 79.2832L273.536 79.3922L274.199 78.5061L275.247 78.3786L276.309 79.0969L275.962 80.2295L277.198 80.8052L278.51 79.8707L279.188 77.5546L278.545 77.3187L277.008 78.4928L276.23 77.9349L277.966 75.6967L279.831 74.2488L279.453 72.834L278.581 72.5341L278.503 71.1605L277.324 71.2825L275.713 69.8301L274.937 70.2907L273.18 70.1599L269.514 68.0776L268.035 66.5407L267.99 64.8124L264.551 65.2491L263.36 66.0804L263.852 67.673L263.527 68.8741L262.035 69.7514L261.76 68.5712L262.063 67.2793L259.886 67.3644L259.283 68.2102L258.12 68.4595L256.616 68.0319L255.628 69.8546L254.244 69.119L253.497 69.2081L253.528 67.5373L252.817 66.1043L254.107 64.9578L255.758 66.0549L257.21 65.8124L257.933 64.6867L256.629 62.7555L256.637 61.7989L258.316 62.0393L260.041 60.2229L262.732 59.739L261.972 58.1851L262.707 56.7397L262.114 55.9538L262.554 54.7422L262.01 54.0314L260.653 53.5584L258.628 55.412L257.928 53.9397L256.269 53.7116L255.333 54.82L254.6 57.6803L253.537 57.1397L251.235 56.7951L250.568 57.1779L247.458 56.5925L246.43 55.5831L245.43 55.7061L245.615 53.6983L243.507 54.1616L242.348 55.0922L241.393 54.8727L240.676 55.77L241.191 57.442L239.788 57.61L240.676 55.77L240.341 54.2525L241.621 52.9167L241.056 51.9821L242.02 50.3641L241.624 49.2305L242.125 47.3084L242.835 47.1734L242.501 45.1986L239.357 45.0014L239.965 41.6548L240.868 40.6163L242.316 40.1957L242.553 41.6732L243.478 42.6871L243.206 44.7701L243.784 45.0514L246.227 43.9824L246.473 46.0538L247.674 45.9935L248.424 44.989L247.541 42.1872L248.32 40.7363L249.221 40.5833L251.207 41.2638L251.989 40.6139L251.331 39.8284L252.282 39.1842L253.733 39.6794L254.419 38.4907L253.697 36.6698L254.408 36.333L255.16 34.7322L255.115 32.8265L254.1 32.5097L252.931 32.9988L251.223 32.4228L252.351 31.2526L252.254 30.6049L253.7 28.8926L255.04 28.1346L255.996 28.0743L256.272 29.0528L257.25 28.6216L258.16 27.399L260.732 27.3706L262.004 27.6555L262.385 26.191L261.464 25.0784L261.515 24.3637L262.865 24.3216L264.187 22.1554L267.866 20.6161L269.784 20.4032L271.72 19.4589L273.643 19.574L273.661 20.6733ZM261.406 18.383L260.1 18.6086L260.551 17.293L261.406 18.383ZM265.603 13.6109L266.251 14.2931L265.844 15.2416L264.33 15.6271L263.417 13.8667L265.529 12.5349L265.603 13.6109ZM285.068 4.3934L284.102 5.70711L283.583 9.03529L282.869 10.3438L284.414 10.4465L285.554 10.9883L285.458 12.0697L287.501 12.1106L287.967 13.4561L286.437 15.3567L284.691 16.4557L284.3 17.3418L281.097 18.0804L278.121 17.773L276.466 17.8491L273.918 18.7676L272.542 18.598L271.245 17.5865L271.865 16.5357L270.132 15.1223L269.619 13.0324L271.173 12.1624L271.167 10.6L272.527 10.5686L273.397 10.0801L274.687 8.28062L275.746 10.0804L276.757 9.99861L277.014 7.93962L278.668 8.56862L279.284 7.09986L280.579 7.12015L281.517 6.08838L282.432 6.90967L283.19 5.35521L282.897 4.79375L285.068 4.3934Z" fill="#1E1E1E"/>
<path d="M240.676 55.77L241.393 54.8727L242.348 55.0922L243.507 54.1616L245.615 53.6983L245.43 55.7061L246.43 55.5831L247.459 56.5925L250.568 57.1779L251.235 56.7951L253.537 57.1397L254.6 57.6803L255.333 54.82L256.269 53.7116L257.928 53.9396L258.628 55.412L260.653 53.5584L262.01 54.0314L262.554 54.7422L262.114 55.9538L262.707 56.7397L261.972 58.1851L262.732 59.739L260.041 60.2229L258.316 62.0393L256.637 61.7989L256.629 62.7555L257.933 64.6867L257.21 65.8124L255.758 66.0549L254.107 64.9578L252.817 66.1043L253.528 67.5373L253.497 69.2081L254.244 69.1191L255.628 69.8546L256.616 68.0319L258.12 68.4595L259.283 68.2102L259.886 67.3644L262.063 67.2793L261.76 68.5712L262.035 69.7514L263.527 68.8741L263.852 67.673L263.36 66.0804L264.551 65.2491L267.99 64.8124L268.035 66.5407L269.514 68.0776L273.18 70.1599L274.937 70.2907L275.713 69.8301L277.324 71.2825L278.503 71.1605L278.581 72.5341L279.453 72.834L279.831 74.2488L277.966 75.6967L276.23 77.9349L277.008 78.4928L278.545 77.3187L279.188 77.5546L278.51 79.8707L277.198 80.8052L275.962 80.2295L276.309 79.0969L275.247 78.3786L274.199 78.5061L273.536 79.3922L271.584 79.2832L272.063 81.705L271.746 83.7185L270.261 84.3327L269.341 85.3941L269.797 86.2372L270.79 86.12L271.333 85.223L272.784 85.0495L273.736 85.882L273.526 87.0146L275.063 87.2708L276.049 87.8574L277.538 87.9358L278.494 87.3895L279.972 87.206L281.722 87.5028L282.334 85.3875L283.994 84.6537L284.473 84.9756L285.562 83.9032L287.117 83.7373L286.814 82.889L285.528 82.4784L288.124 80.8104L290.013 80.3582L291.518 80.5236L291.565 79.4543L289.778 77.1142L293.012 77.4501L293.258 75.4311L292.287 75.6058L290.704 74.0495L289.582 73.6801L288.248 72.4678L288.972 71.3313L286.966 69.0521L287.505 67.9504L290.869 68.6766L290.966 67.2575L293.592 65.1034L293.679 63.4036L293.4 62.0872L291.847 61.5948L289.204 61.7132L287.466 61.1114L286.971 60.4855L285.77 60.7335L284.469 59.666L284.529 57.789L286.808 56.9211L289.636 56.4374L290.222 55.873L292.284 56.0462L292.92 53.7131L293.982 52.4294L293.767 51.5821L292.584 51.0512L292.146 49.997L290.291 49.5391L290.345 48.0283L292.187 47.2397L294.415 47.167L293.891 45.6371L294.871 42.9682L294.198 41.758L293.848 40.1824L293.971 37.6143L293.626 36.2852L292.819 35.9505L290.744 36.27L288.516 38.0138L286.595 37.5831L283.745 39.5997L282.83 38.7784L282.392 37.4096L284.241 36.3448L286.364 36.5465L288.817 35.9251L289.389 34.7034L290.356 34.4715L290.722 32.699L289.833 32.4437L290.031 30.534L290.852 27.9556L289.659 27.2013L288.958 27.8121L286.776 28.6682L286.518 29.3251L284.498 30.7099L282.031 30.6042L280.096 31.1705L278.666 32.854L278.23 34.3004L276.966 35.1211L274.792 37.2494L273.647 34.9627L274.806 34.3019L274.46 33.1844L270.735 31.9549L269.225 32.8828L267.597 32.9879L267.443 33.6565L265.651 33.8461L265.347 33.0266L263.67 33.6399L262.849 32.2468L265.876 29.554L266.081 28.3239L265.879 26.2758L266.614 25.3967L267.422 25.3576L269.058 24.2819L272.44 23.5815L273.3 22.8238L273.661 20.6733L273.643 19.574L271.72 19.4589L269.784 20.4032L267.866 20.6161L264.187 22.1554L262.865 24.3216L261.515 24.3637L261.464 25.0784L262.385 26.191L262.004 27.6555L260.732 27.3706L258.16 27.399L257.25 28.6216L256.272 29.0528L255.996 28.0743L255.04 28.1346L253.7 28.8926L252.254 30.6049L252.351 31.2526L251.223 32.4228L252.931 32.9988L254.1 32.5097L255.115 32.8265L255.16 34.7322L254.408 36.333L253.697 36.6698L254.419 38.4907L253.733 39.6794L252.282 39.1842L251.331 39.8284L251.989 40.6139L251.207 41.2638L249.221 40.5833L248.32 40.7363L247.541 42.1872L248.424 44.989L247.674 45.9935L246.473 46.0538L246.227 43.9824L243.784 45.0514L243.206 44.77L243.478 42.6871L242.553 41.6732L242.316 40.1957L240.868 40.6163L239.965 41.6548L239.357 45.0014L242.501 45.1986L242.835 47.1734L242.125 47.3084L241.624 49.2305L242.02 50.3641L241.056 51.9821L241.621 52.9167L240.341 54.2525L240.676 55.77ZM240.676 55.77L241.191 57.442L239.788 57.61L240.676 55.77ZM1149.82 356.616L1148.35 357.469L1148.35 358.464L1147.16 359.749L1145.67 359.853L1145.24 359.343L1145.41 357.86L1146.47 356.475L1147.23 354.56L1149.19 351.533L1150.04 351.145L1151.77 352.107L1153 354.094L1150.85 355.579L1149.82 356.616ZM171.401 291.268L170.32 290.053L170.156 288.655L171.349 287.133L174.204 290.205L171.401 291.268ZM211.437 286.39L210.5 288.103L208.709 288.908L207.989 288.537L207.631 287.15L208.026 286.369L211.413 285.471L211.437 286.39ZM1079.84 328.101L1080.83 326.698L1081.61 327.603L1086.34 327.594L1087.54 327.235L1089.52 328.11L1088.46 329.057L1086.05 330.189L1085.81 331.313L1084.16 329.569L1083.2 329.743L1083.66 330.921L1083.33 331.926L1081.85 331.614L1081.43 332.462L1079.92 332.329L1078.32 331.538L1077.48 332.008L1075.86 331.562L1076.07 330.375L1078.11 328.269L1077.59 327.367L1078.36 325.967L1079.82 326.809L1079.84 328.101ZM1129.07 323.041L1130.61 322.628L1130.27 323.742L1131.77 324.42L1128.93 327.454L1127.27 328.207L1126.93 329.15L1127.37 330.42L1127.12 331.314L1125.97 332.795L1127.1 333.214L1127.96 331.367L1130.06 333.01L1130.37 334.184L1131.53 333.46L1131.85 334.663L1134.36 335.053L1133.5 337.502L1131.96 338.934L1129.52 340.339L1126.64 342.091L1123.93 342.293L1124.62 343.948L1124.04 345.351L1122.02 347.739L1120.4 348.201L1118.78 349.583L1116.72 349.154L1114.6 349.92L1112.81 349.309L1113.54 347.885L1112.91 346.922L1114.04 344.298L1115.09 342.763L1116.26 340.35L1116.05 339.313L1117.29 334.6L1117.78 334.16L1117.49 332.562L1118.43 330.553L1119.25 331.515L1119.97 331.254L1120.29 329.528L1121.12 327.526L1122.88 325.398L1125.19 323.093L1127.2 322.277L1129.07 323.041ZM157.796 271.692L159.636 270.903L159.957 272.735L161.5 272.222L162.502 273.104L163.819 272.754L164.706 274.816L165.334 275.107L166.217 274.235L166.55 273.168L168.212 275.022L168.796 276.561L168.773 278.3L167.42 279.525L168.197 280.17L168.833 281.472L168.5 283.735L170.183 284.274L170.26 285.587L168.153 286.232L166.096 285.707L164.081 287.037L164.114 287.718L165.328 288.547L166.448 288.799L165.857 290.103L166.775 291.444L164.958 292.313L162.803 291.699L161.122 290.171L161.44 288.704L160.63 287.413L159.161 288.218L159.504 289.575L159.043 290.221L157.439 290.642L152.236 290.592L150.604 291.476L151.464 292.331L151.399 294.746L150.325 296.678L149.441 297.265L146.678 294.467L147.077 293.599L148.358 292.946L149.749 291.771L149.281 291.056L147.21 290.824L146.116 291.202L144.508 290.554L143.702 289.768L141.86 289.66L139.072 289.987L136.953 289.345L133.93 290.075L130.371 292.13L128.939 291.271L127.169 292.393L126.088 292.307L123.918 293.141L122.325 294.08L120.675 296.453L119.047 297.1L118.688 295.394L119.758 292.631L118.916 292.606L118.468 291.718L119.193 290.917L118.6 290.207L118.935 288.94L117.394 285.2L117.536 284.162L118.576 282.178L120.113 280.594L119.906 279.858L118.258 279.676L117.813 278.663L119.009 277.054L120.529 276.987L121.134 278.233L121.996 276.416L122.677 277.129L124.27 277.879L125.727 277.413L125.891 275.804L127.672 275.796L128.594 276.136L129.643 275.684L130.004 277.087L131.012 277.345L131.833 276.879L132.678 275.452L133.579 274.774L133.933 273.717L135.801 273.738L136.194 274.409L136.062 276.075L137.306 277.137L137.492 276.106L138.479 275.437L140.768 275.043L141.971 273.577L143.043 274.293L144.121 273.967L144.857 273.062L145.883 272.954L147.64 274.996L149.008 273.655L149.976 273.222L151.387 271.904L152.156 272.24L154.053 271.105L157.473 270.803L157.796 271.692ZM242.608 273.182L243.235 274.604L241.514 275.327L240.526 274.341L240.103 273.08L241.667 272.634L242.608 273.182ZM186.69 272.184L184.939 271.393L185.799 270.276L186.69 272.184ZM185.16 262.78L186.276 262.975L187.383 264.754L186.256 267.705L185.62 268.304L183.707 268.941L183.281 268.035L183.194 264.81L182.183 264.734L181.795 263.743L182.845 263.241L184.036 263.413L185.16 262.78ZM242.568 260.203L242.937 262.076L241.966 262.713L241.07 264.306L240.397 264.315L239.302 265.447L239.463 266.515L238.03 267.509L236.813 267.597L237.849 264.352L238.982 263.217L239.549 262.034L240.403 261.347L240.943 260.172L242.568 260.203ZM213.967 246.816L217.521 248.174L218.827 249.703L217.697 250.546L216.322 252.507L217.34 253.552L217.164 255.354L218.199 256.415L217.708 257.545L216.846 257.764L215.143 258.934L214.713 260.127L216.572 260.345L215.173 262.084L214.699 263.318L213.304 264.827L212.367 266.575L211.517 264.936L210.344 265.638L210.926 269.114L208.789 272.999L207.598 273.54L206.223 268.612L204.225 265.416L205.794 265.253L206.976 266.942L208.721 266.503L210.047 265.108L208.491 263.554L208.332 262.635L209.32 261.819L211.663 258.553L210.783 257.261L209.495 257.216L206.757 257.988L205.34 258.762L204.366 260.039L201.334 262.667L199.832 262.962L199.116 261.195L199.975 260.535L199.566 259.035L199.761 257.61L200.779 257.143L201.635 256.129L201.692 254.528L203.708 251.067L203.722 250.1L204.734 249.543L206.502 249.831L206.398 248.974L207.888 248.435L208.777 248.901L209.977 248.657L211.357 247.266L213.967 246.816ZM92.7093 193.174L91.2304 196.066L88.2494 198.104L88.5192 200.064L87.0588 201.057L86.0712 200.369L86.9548 199.34L87.0788 198.127L88.1704 197.433L89.1562 196.118L90.2985 193.959L91.4946 193.231L92.8468 191.75L93.2651 190.096L95.2929 189.443L93.9161 191.999L92.7093 193.174ZM61.0793 147.822L60.7171 148.927L61.1207 150.265L59.9686 150.468L59.7546 151.971L58.414 152.439L59.1932 150.601L59.8734 147.937L61.0793 147.822ZM6.92447 120.205L9.73067 120.851L10.4381 121.455L11.7361 121.424L12.0431 122.247L9.89482 122.776L8.31028 124.583L7.3491 124.738L4.39965 123.26L3.25391 123.334L3.33609 121.771L3.92139 121.606L4.98448 120.108L6.92447 120.205ZM36.8963 121.128L37.5197 122.775L36.9228 124.776L38.7483 125.275L40.5063 122.378L41.594 123.016L41.6291 124.591L42.1758 126.248L43.3489 126.594L43.3123 128.221L45.1882 128.606L44.8676 130.703L45.9499 132.217L46.5614 135.196L48.4555 137.122L48.4531 137.776L49.4431 139.683L50.6541 141.342L51.9069 141.783L52.4687 142.621L52.6312 143.996L53.851 144.941L54.1965 146.061L53.6393 147.062L54.9083 150.542L56.5739 151.527L57.1952 151.511L57.653 152.789L57.66 155.697L58.2887 156.817L57.7644 158.229L56.6556 158.471L55.6968 159.782L55.5681 160.913L53.8496 163.735L54.5336 165.194L55.7279 166.835L57.6284 168.166L59.5948 168.548L60.5565 168.292L61.9031 166.89L62.053 164.505L62.5327 164.059L64.2921 164.054L65.015 162.889L66.4159 164.055L67.5749 165.868L67.1472 166.926L69.6379 168.919L70.2467 170.278L70.9905 170.46L72.2568 172.768L74.2557 174.009L75.1853 173.283L75.4885 172.165L76.9168 170.354L76.2324 168.133L77.4434 166.725L76.7748 165.772L76.8203 164.81L78.3428 163.732L80.9788 164.571L81.992 165.385L83.77 168.525L85.104 170.181L84.8258 172.308L84.0685 172.737L83.8842 174.779L82.2014 175.625L80.9626 176.656L79.8022 178.775L78.9567 178.884L78.4621 180.107L76.9345 180.356L75.5628 181.15L75.2471 181.998L73.8648 181.509L73.7747 182.573L72.5442 183.054L71.4702 182.307L70.9269 183.049L65.8731 186.576L63.7186 186.465L63.4544 183.692L62.3005 183.664L61.5608 185.309L60.387 184.709L60.2941 186.477L59.462 188.572L57.9316 190.378L56.8037 190.455L56.4439 189.637L56.7564 187.254L56.2772 186.439L55.7836 183.657L54.6836 183.693L52.426 186.617L51.1068 187.161L51.9932 184.648L51.4467 183.478L52.3062 181.338L50.8663 181.564L51.0325 180.45L49.9516 178.484L48.7763 177.535L48.6505 176.25L47.8131 175.301L47.9935 174.353L47.3441 173.153L45.0475 176.117L43.5616 179.15L42.4723 179.634L42.4909 178.139L42.9612 177.527L43.2619 174.748L43.7982 174.103L42.8902 170.879L40.8585 170.016L41.1088 167.816L40.2934 166.368L39.6101 162.558L40.6732 159.359L40.7529 158.203L39.9017 155.628L38.8277 155.253L38.2998 153.896L34.5424 153.309L33.1078 153.455L31.1119 155.405L30.583 159.063L28.7117 161.133L27.9152 160.764L26.7258 159.117L25.5273 159.565L24.2109 159.404L21.9784 163.488L22.5412 165.624L22.2134 167.996L21.086 167.067L21.568 165.458L20.9859 164.947L19.462 166.249L18.5881 166.434L17.9928 165.635L17.8774 162.519L17.2183 162.042L17.6072 159.557L16.5724 159.074L15.8638 160.022L14.8237 159.55L13.2863 161.054L12.4988 160.856L12.2885 159.754L10.7072 159.883L10.2315 160.489L9.17463 158.621L8.04886 157.548L8.40152 156.253L9.0618 155.666L8.59398 153.736L9.57791 151.601L9.38033 150.763L10.6614 147.91L10.5186 146.62L11.2453 145.037L11.1789 142.334L11.9985 140.266L10.404 137.745L10.7787 136.918L10.6259 134.632L9.36942 134.406L9.36919 133.036L10.2291 132.658L11.2804 133.192L10.7733 130.867L11.644 129.59L13.8277 128.826L14.6094 128.184L16.1092 128.111L14.0042 130.495L13.8356 131.386L14.4618 132.842L15.9871 133.852L17.2241 135.224L18.8142 135.817L19.9451 135.573L21.1236 136.819L24.0303 138.047L25.7198 138.018L28.8975 137.096L29.825 136.077L30.2417 133.174L31.696 131.005L31.1179 130.129L30.6543 128.348L31.6203 127.359L32.4807 124.717L34.0312 124.092L34.834 124.416L35.4279 123.079L36.8963 121.128ZM463.25 140.293L462.621 140.953L462.642 143.291L464.408 146.519L466.235 145.849L466.524 148.029L468.597 148.188L469.211 150.678L468.323 151.904L469.083 154.641L467.521 155.588L466.389 157.818L466.548 160.032L465.871 160.389L465.643 163.682L466.039 165.044L465.643 167.056L464.727 167.497L464.599 169.166L465.787 170.115L464.468 170.657L464.174 171.68L464.543 173.032L465.918 173.359L466.528 174.437L466.065 175.635L467.818 176.587L467.408 178.083L468.368 178.843L470.162 179.115L471.804 180.644L471.669 181.296L473.302 182.374L472.13 183.934L470.359 184.411L469.937 186.165L469.082 187.665L469.598 188.794L468.673 189.109L468.275 190.393L466.02 191.022L466.17 192.603L463.704 191.841L461.955 193.61L460.643 196.143L458.149 199.289L456.698 201.449L454.026 206.601L452.871 210.718L452.838 213.228L453.484 214.741L454.82 215.262L454.423 216.478L455.772 217.405L456.044 218.711L456.936 219.681L458.008 219.635L458.046 220.629L457.412 221.467L456.235 222.027L456.929 223.839L456.532 225.003L454.437 225.404L452.798 226.056L452.865 226.941L451.74 228.075L450.533 230.58L448.828 231.459L448.113 231.135L446.653 232.987L443.856 237.63L442.66 240.45L440.195 245.169L439.653 245.955L439.009 248.131L436.596 253.52L434.691 258.658L434.072 262.682L434.544 265.464L435.794 266.818L437.043 266.578L438.508 266.974L437.902 269.366L437.9 270.653L436.768 271.002L436.353 269.537L435.512 269.471L435.124 270.497L434.163 270.368L432.702 272.186L431.721 275.269L432.311 276.763L431.472 278.055L429.832 281.296L428.931 280.327L427.176 280.764L425.494 282.849L424.673 284.215L424.304 286.186L425.349 286.842L425.221 287.728L423.497 290.239L421.437 295.538L421.172 298.308L422.442 299.06L422.24 300.407L422.581 301.52L421.016 301.143L420.395 302.039L420.479 304.494L421.111 306.898L420.85 308.277L419.527 309.939L419.544 311.336L417.914 310.354L416.325 310.254L415.879 311.025L414.814 309.82L413.316 309.109L413.099 309.682L411.145 309.949L411.053 310.738L409.227 312.06L406.257 312.725L405.662 313.762L404.573 312.897L403.473 313.802L403.597 315.099L402.668 315.867L401.219 316.112L400.822 317.07L401.413 319.538L402.949 320.087L402.139 321.413L402.336 322.827L401.058 323.739L400.523 322.666L399.534 322.25L396.874 324.241L394.727 329.179L393.238 331.999L390.372 336.672L389.415 339.304L389.227 340.903L387.645 347.314L386.653 352.931L386.479 355.578L386.74 356.923L385.556 358.443L386.492 361.005L387.58 362.054L389.457 362.59L390.465 360.995L393.188 360.37L394.686 360.782L396.319 361.877L396.819 363.254L398.052 363.313L399.74 362.137L401.401 362.343L400.098 365.41L398.033 366.873L397.011 365.465L395.7 365.318L395.739 366.697L394.751 367.502L395.194 368.76L396.475 369.128L397.122 368.437L398.109 368.617L398.289 369.598L396.755 370.821L395.888 374.085L396.868 374.043L397.437 375.354L396.96 376.119L395.113 376.24L394.728 377.009L391.857 378.91L390.582 380.062L389.385 382.22L390.243 383.023L391.747 385.377L392.037 386.784L393.808 388.796L394.725 390.533L394.831 391.986L395.483 394.13L393.963 394.832L393.179 392.833L389.43 391.621L388.7 390.773L387.07 390.481L385.546 389.32L384.423 389.137L382.714 389.884L381.13 388.943L380.517 387.41L378.851 388.139L377.637 387.433L379.154 386.623L379.405 385.714L378.781 384.354L377.363 382.988L376.093 382.777L376.343 380.883L373.464 379.633L371.146 379.41L368.976 379.967L364.515 380.114L362.212 380.595L359.496 381.794L359.485 382.734L358.037 383.508L358 384.254L356.67 384.256L353.837 385.14L352.944 386.514L351.226 386.206L351.396 388.02L350.176 388.14L347.174 390.108L346.45 390.849L345.29 390.81L342.757 392.293L342.1 393.185L339.556 395.681L339.262 396.668L338.038 396.891L337.36 398.17L335.486 397.643L334.036 398.44L332.718 398.453L330.289 399.743L329.481 400.864L327.653 401.921L326.014 404.019L322.692 409.029L321.473 411.48L316.262 419.923L310.771 430.704L309.807 433.016L307.689 437.276L307.257 437.759L306.043 440.805L302.651 447.929L301.067 450.646L300.276 452.724L300.553 453.711L299.885 454.557L297.819 454.319L296.596 455.453L295.405 457.55L293.051 460.027L291.451 462.704L289.678 465.137L288.322 467.784L288.454 469.06L287.94 470.128L285.963 471.989L286.236 474.381L285.366 474.763L283.209 473.541L282.036 473.921L280.182 475.417L277.532 478.01L275.917 480.58L275.931 481.902L277.397 483.678L276.218 483.794L275.404 482.679L275.164 481.53L271.788 481.085L268.667 482.456L267.506 484.022L264.865 486.02L263.613 487.638L263.358 490.227L261.286 490.488L261.414 491.804L260.952 492.363L259.194 492.685L258.058 494.61L255.152 496.48L254.847 497.971L252.818 498.964L251.71 498.389L250.783 499.015L250.342 500.374L248.634 499.099L246.008 499.874L245.142 499.097L243.429 499.533L241.094 500.92L241.015 502.866L240.55 503.734L238.401 503.813L237.733 505.021L238.074 505.912L235.996 506.85L234.431 506.747L233.754 505.9L232.443 506.523L231.24 505.588L232.077 503.709L231.204 502.594L231.408 501.591L234.368 499.845L237.146 499.891L239.389 500.212L239.864 500.752L241.185 500.038L241.565 498.46L241.283 496.803L239.949 495.674L237.806 495.868L237.454 495.006L237.726 493.562L236.742 492.939L235.853 489.661L234.103 489.583L231.985 488.672L231.989 486.83L231.415 485.958L230.123 485.522L229.131 484.642L226.681 484.388L226.33 483.692L225.207 483.461L223.377 481.959L222.953 480.891L224.215 478.631L222.664 476.709L221.421 474.051L220.615 473.446L219.933 472.027L220.236 470.455L219.676 468.673L217.769 467.104L216.753 467.427L215.782 466.478L215.922 465.591L217.117 464.408L217.072 462.765L218.497 461.111L219.772 460.619L223.064 452.601L224.429 448.624L225.324 445.497L227.123 440.698L229.584 433.66L229.842 432.416L231.062 429.35L233.116 421.848L233.847 418.556L234.467 413.943L234.134 412.864L234.86 408.691L235.987 403.48L236.337 398.223L235.247 395.958L235.742 393.625L236.461 388.347L235.989 386.628L236.148 383.588L236.523 380.459L236.541 375.675L236.3 372.127L234.991 366.23L234.451 364.974L233.246 364.211L232.8 363.219L231.304 361.232L228.954 361.262L227.849 361.718L225.101 361.481L224.542 360.776L223.112 360.488L221.616 359.681L220.863 358.366L218.131 357.819L217.098 356.798L214.249 356.508L213.095 356.638L212.078 356.207L212.324 353.825L210.134 351.923L210.401 351.343L212.772 350.156L213.487 348.691L214.387 347.895L214.815 344.432L213.483 343.379L213.257 341.483L212.739 340.55L210.986 340.319L210.002 336.737L210.339 335.441L208.168 335.391L206.05 335.736L204.736 337.058L203.255 336.276L202.691 336.91L201.109 335.242L200.198 335.234L200.102 333.594L198.945 332.7L198.955 331.19L199.745 330.319L199.787 328.873L201.549 328.731L202.351 327.907L203.808 327.522L205.329 325.735L208.823 324.246L212.883 324.445L215.711 323.797L216.706 322.737L218.47 322.733L219.35 322.142L220.661 320.536L222.35 320.682L224.427 320.316L224.802 318.983L226.68 319.401L225.969 317.17L226.851 316.654L228.295 315.085L229.782 313.042L230.864 312.235L233.763 309.235L234.58 310.19L235.335 309.85L235.781 308.52L236.389 308.291L238.211 308.791L239.188 309.436L240.281 308.285L240.926 306.288L242.38 305.189L243.099 303.651L244.019 300.759L246.152 299.061L246.588 297.881L246.394 295.917L247.459 295.077L247.462 294.152L248.878 292.19L250.452 287.965L249.223 285.909L250.118 283.069L250.63 282.72L250.88 280.599L250.355 279.75L250.355 276.778L250.872 275.306L250.662 274.596L252.849 272.382L252.592 271.446L253.536 270.336L253.27 269.327L253.692 267.558L254.328 266.458L255.502 265.996L257.179 264.378L257.652 263.395L257.465 261.718L258.772 259.951L258.658 258.197L258.165 256.95L258.621 256.34L259.933 256.546L260.93 256.013L262.145 253.995L264.427 255.051L267.509 254.905L268.634 255.577L269.408 254.894L271.309 252.295L274.186 250.404L275.709 250.355L277.883 248.536L280.117 245.837L282.064 242.63L284.143 241.108L286.155 237.378L287.436 235.975L289.053 232.657L290.526 231.046L292.335 226.725L293.657 223.988L294.391 223.377L297.529 221.697L298.557 221.741L299.592 220.521L300.79 220.094L301.748 218.368L302.938 216.85L306.24 215.427L307.497 214.345L309.231 213.608L311.101 211.206L311.859 210.639L312.989 211.021L317.189 209.494L317.955 209.773L321.045 208.47L322.189 207.509L324.416 206.605L326.258 206.892L327.976 206.275L331.659 204.581L333.937 204.121L336.079 202.212L337.671 201.195L338.932 199.782L340.141 198.916L343.645 195.802L345.383 194.745L347.074 194.382L351.772 192.768L356.576 190.67L359.432 188.624L362.631 184.765L365.488 184.527L368.894 182.649L372.28 180.118L374.999 178.988L376.974 177.176L378.825 175.117L380.36 175.024L382.41 173.771L384.208 173.079L388.819 170.916L391.618 170.484L393.814 169.714L398.136 167.892L400.817 166.929L402.731 165.855L404.841 164.981L406.353 163.775L410.295 161.903L414.713 161.164L417.87 160.993L421.923 160.26L427.007 158.896L430.164 158.978L433.054 160.294L437.6 161.481L440.363 161.911L442.88 161.435L444.991 160.489L446.492 159.518L448.772 157.184L451.004 153.535L452.878 149.535L454.139 146.481L456.857 143.892L457.883 142.095L458.153 140.416L459.195 139.935L459.779 137.336L460.673 137.174L460.955 138.555L461.614 139.592L463.25 140.293ZM288.839 100.041L290.527 100.653L289.742 102.344L288.005 101.898L287.287 101.168L288.152 100.095L288.839 100.041ZM285.897 91.9963L287.706 92.7064L288.721 92.3376L290.441 95.2039L291.7 95.4662L292.038 97.1669L290.783 97.3456L289.628 96.8789L288.804 97.2874L288.467 98.6835L286.52 98.814L285.032 100.418L282.181 99.9797L281.781 98.9888L282.242 97.7708L281.454 96.9552L282.576 95.6137L281.559 94.6836L282.187 92.5862L283.889 92.4878L284.78 91.7816L285.897 91.9963ZM231.426 65.8626L231.477 65.1065L232.78 63.1804L233.877 62.9993L233.027 65.1673L231.426 65.8626ZM238.361 58.5852L238.508 59.2608L236.911 60.3964L235.837 59.8743L236.685 58.7593L238.361 58.5852ZM261.406 18.383L260.1 18.6086L260.551 17.293L261.406 18.383ZM265.603 13.6109L266.251 14.2931L265.844 15.2416L264.33 15.6271L263.417 13.8667L265.529 12.5349L265.603 13.6109ZM285.068 4.3934L284.102 5.70711L283.583 9.03529L282.869 10.3438L284.414 10.4465L285.554 10.9883L285.458 12.0697L287.501 12.1106L287.967 13.4561L286.437 15.3567L284.691 16.4557L284.3 17.3418L281.097 18.0804L278.121 17.773L276.466 17.8491L273.918 18.7676L272.542 18.598L271.245 17.5865L271.865 16.5357L270.132 15.1223L269.619 13.0324L271.173 12.1624L271.167 10.6L272.527 10.5686L273.397 10.0801L274.687 8.28062L275.746 10.0804L276.757 9.99861L277.014 7.93962L278.668 8.56862L279.284 7.09986L280.579 7.12015L281.517 6.08838L282.432 6.90967L283.19 5.35521L282.897 4.79375L285.068 4.3934Z" stroke="white" stroke-width="5"/>
</svg>
