<svg width="503" height="478" viewBox="0 0 503 478" fill="none" xmlns="http://www.w3.org/2000/svg">
<path d="M299.603 459.811L299.583 460.613L298.517 461.952L296.339 462.155L296.241 460.423L297.429 459.951L299.603 459.811ZM295.924 416.368L297.311 417.283L296.581 417.835L295.924 416.368ZM382.811 414.254L383.382 416.616L384.663 416.901L388.664 415.051L389.576 415.466L388.655 418.733L387.838 419.816L385.803 420.247L384.285 419.166L383.043 419.671L383.049 421.789L382.007 423.117L381.163 425.199L381.847 426.053L381.928 427.619L382.709 427.893L382.777 429.609L380.501 431.374L379.971 432.245L377.981 433.248L377.624 434.436L377.809 436.332L376.585 437.163L376.16 437.95L375.135 437.036L373.706 438.072L373.925 439.303L372.732 439.331L372.093 438.121L369.603 439.577L369.68 441.704L367.759 441.406L366.685 439.657L365.446 439.818L364.356 439.391L363.842 439.97L362.418 440.273L361.135 441.643L359.865 444.874L358.214 445.583L357.766 446.27L357.949 447.536L357.268 448.606L356.265 448.453L354.233 449.234L352.447 451.166L351.791 451.446L350.707 452.977L350.837 453.81L349.364 455.804L348.87 457.057L349.862 458.677L349.106 459.789L348.012 459.385L347.578 458.194L345.178 457.33L344.011 457.53L343.229 458.665L341.725 458.994L340.623 458.706L339.789 459.431L338.429 459.647L336.455 460.56L335.672 462.393L333.906 462.739L333.438 463.685L332.221 464.802L332.327 466.97L331.95 467.896L330.96 467.346L329.406 467.586L328.988 468.586L327.22 470.066L327.113 471.793L326.079 472.196L326.005 474.706L324.46 474.784L324.527 473.465L321.396 471.853L319.553 469.655L319.03 470.795L319.304 473.21L318.273 474.239L317.527 473.771L315.452 469.625L314.447 469.409L312.098 469.839L311.585 468.518L310.715 467.59L309.518 469.085L309.736 466.813L310.624 466.629L310.322 464.913L309.258 463.95L307.298 464.268L306.38 462.641L307.217 461.871L307.491 459.683L308.969 458.712L308.569 457.164L309.837 457.156L310.271 456.142L309.007 455.339L308.7 454.143L310.921 453.47L311.41 450.789L312.802 451.493L315.127 450.164L315.142 449.133L317.408 447.343L316.74 445.783L317.507 444.259L318.872 443.979L318.114 442.555L319.331 440.898L321.36 440.264L323.534 438.155L324.617 438.014L326.289 436.268L327.125 436.138L329.063 433.805L329.582 432.207L330.332 431.077L330.348 430.069L331.159 429.569L332.13 427.966L332.954 425.58L334.019 424.58L334.693 422.921L335.403 422.194L336.86 422.152L338.178 421.68L341.107 422.319L342.88 423.192L345.214 425.432L346.96 425.327L347.272 424.576L348.939 425.818L349.745 425.799L351.141 424.442L351.678 424.898L353.461 423.235L354.397 422.767L358.334 422.507L359.517 421.998L360.639 420.861L362.275 421.445L363.489 420.335L364.773 420.024L365.155 419.288L367.648 418.628L368.879 418.845L372.024 417.757L372.76 416.658L373.451 417.065L375.864 415.927L377.74 415.345L379.497 415.247L382.811 414.254ZM315.713 408.442L316.985 409.069L319.481 409.237L319.849 410.081L319.198 413.006L321.975 415.262L321.35 415.959L320.546 415.595L318.66 415.921L318.174 416.809L316.76 417.332L314.801 417.082L313.759 416.432L313.425 415.175L311.822 413.732L307.705 412.466L306.893 413.466L304.754 412.826L304.729 411.48L305.409 410.136L305.993 409.995L308.734 411.559L310.309 410.557L310.965 409.555L312.663 408.741L315.713 408.442ZM334.801 400.971L333.138 402.924L331.445 404.255L329.501 405.194L329.247 403.638L331.788 402.253L332.695 400.634L334.801 400.971ZM410.465 311.092L411.189 311.62L410.243 312.743L409.295 312.534L408.588 310.502L410.465 311.092ZM115.919 169.198L114.433 167.76L115.461 167.068L115.832 165.609L116.368 165.42L117.901 166.602L115.919 169.198ZM121.151 164.218L122.16 165.238L123.856 165.997L123.208 167.724L120.915 165.832L119.098 165.646L119.404 164.25L121.151 164.218ZM485.61 163.033L487.153 163.509L487.776 164.126L489.315 163.98L489.788 163.372L490.918 163.844L491.839 163.523L492.897 163.945L494.588 163.797L495.517 166.065L495.307 167.516L494.015 169.756L494.126 170.482L495.602 173.298L495.74 174.391L495.141 175.871L495.361 176.664L495.231 179.753L494.85 180.908L494.596 183.616L492.751 186.561L489.505 190.217L487.762 191.254L486.755 192.883L485.838 193.387L484.907 196.327L484.801 198.728L483.862 204.187L484.155 207.425L483.827 208.799L484.534 211.013L485.241 211.066L486.666 212.754L487.741 212.843L486.895 214.304L486.359 216.831L487.482 219.068L487.48 221.158L488.11 222.817L487.897 223.96L488.302 224.9L487.836 225.622L488.603 226.597L487.969 227.264L487.674 229.623L486.17 228.881L484.396 229.895L483.65 231.617L483.638 233.278L482.773 233.181L482.185 234.116L481.327 234.111L480.656 235.236L481.118 236.846L479.782 238.398L480.36 239.302L480.109 240.852L479.082 241.141L476.763 244.723L475.588 245.322L474.698 246.675L474.776 248.583L475.838 250.24L475.629 252.191L474.669 252.146L474.189 253.081L475.298 255.918L474.335 257.473L472.999 257.646L471.921 258.955L471.615 261.701L470.707 262.029L470.521 264.369L469.538 264.72L468.98 265.822L467.974 266.059L467.672 266.883L466.345 266.837L465.016 268.86L462.916 270.413L460.611 274.536L460.455 275.792L460.8 280.101L459.702 280.648L459.411 282.365L459.609 286.427L460.504 287.701L460.463 288.73L458.218 289.481L458.408 291.221L459.856 292.891L461.467 294.344L461.207 295.062L459.662 295.321L458.195 297.308L456.919 298.319L456.1 298.168L455.182 299.005L455.603 303.325L456.663 304.274L457.717 305.961L458.636 306.206L459.787 307.922L461.406 308.329L462.418 307.927L464.928 309.481L465.881 309.027L468.633 310.086L469.892 312.818L469.414 313.861L469.141 317.331L470.519 319.456L471.631 320.471L472.812 322.388L474.091 323.952L475.465 323.497L477.105 324.546L479.893 325.022L481.341 326.383L481.71 327.936L481.122 329.899L481.57 332.187L481.667 333.99L481.144 336.458L483.474 336.769L483.879 337.923L486.11 340.276L487.852 341.382L488.827 344.391L488.542 345.493L486.828 347.929L485.571 348.699L484.688 349.84L484.504 351.086L481.766 352.543L479.941 352.404L479.517 352.772L478.479 357.418L478.91 361.086L479.746 363.407L480.872 365.191L483.834 367.616L485.024 367.148L485.615 367.864L486.764 367.648L487.243 365.931L489.419 365.257L490.488 365.56L491.303 366.547L493.833 367.358L494.771 368.388L496.81 369.274L497.631 370.102L498.622 371.887L498.695 373.346L499.766 374.508L500.117 376.206L498.935 377.659L498.813 378.665L497.157 380.11L497.461 381.052L496.174 382.806L495.829 384.668L494.556 387.848L494.748 388.662L492.991 390.044L491.503 389.1L491.197 387.822L490.363 387.155L490.288 385.328L487.973 384.118L485.264 384.204L484.04 384.476L482.494 385.696L481.529 384.667L480.072 384.983L477.897 387.449L478.485 388.588L476.781 389.463L477.004 391.125L476.335 392.474L475.37 392.647L475.221 393.727L475.794 394.649L475.882 396.933L475.026 396.992L473.575 395.982L473.502 395.18L470.567 395.858L468.887 396.001L467.998 396.707L466.731 396.906L465.383 399.776L464.318 400.223L463.127 402.397L463.5 403.481L464.37 404.315L464.012 405.278L462.141 405.683L460.785 405.588L459.867 408.606L458.328 409.821L458.014 412.628L458.684 412.892L458.76 414.186L457.846 415.412L458.302 418.061L456.836 419.683L455.788 419.592L455.824 420.988L456.324 421.692L458.431 422.607L459.303 422.587L462.308 420.311L464.163 420.496L465.399 419.925L464.992 421.615L463.592 423.677L462.339 424.912L461.28 424.845L459.446 427.996L456.863 429.99L458.108 430.42L457.308 431.47L456.863 429.99L455.469 430.713L455.28 432.199L454.453 432.678L454.145 434.111L452.952 434.637L452.387 436.651L450.736 437.9L447.858 438.638L447.783 435.289L448.847 434.064L450.1 434.128L450.619 433.189L452.038 432.607L452.693 431.408L452.191 429.061L450.157 426.512L450.673 424.502L448.375 422.648L447.137 422.064L447.47 420.842L447.134 419.774L446.077 419.432L445.021 418.198L442.797 417.895L442.113 418.529L441.271 418.199L439.553 418.423L438.918 419.78L439.084 420.577L436.625 421.234L436.513 419.104L435.739 417.574L434.865 417.909L433.422 415.337L431.998 414.385L431.22 412.626L429.723 412.812L428.431 410.773L427.116 410.418L426.053 408.605L424.305 407.759L422.449 407.708L422.079 408.877L421.075 408.599L420.884 405.443L422.297 405.072L423.688 405.447L424.66 405.078L425.138 403.045L426.081 402.275L426.022 401.469L427.399 400.904L428.412 399.431L429.112 399.357L430.817 396.793L430.464 395.113L432.05 395.425L432.563 396.558L433.498 396.115L433.974 395.1L435.47 393.896L435.912 391.806L436.692 390.509L436.222 389.319L434.402 389.388L433.232 388.93L432.582 387.968L434.35 387.121L436.196 387.191L437.029 388.67L438.613 387.929L438.76 386.975L439.728 385.21L440.263 382.932L440.446 380.892L439.988 379.627L438.976 378.251L437.177 378.222L435.416 376.223L437.568 375.849L437.596 373.012L436.217 371.739L437.112 370.942L437.145 370.135L435.241 367.146L434.224 367.021L433.339 365.799L433.196 364.9L434.45 362.343L434.474 360.684L435.246 357.062L434.658 355.094L435.241 353.578L434.819 352.543L432.376 349.99L435.311 349.618L436.322 347.168L436.789 346.623L437 343.855L436.092 341.585L433.814 340.046L434.29 339.146L434.012 337.496L432.087 334.863L431.395 334.563L429.153 334.451L427.796 333.7L427.679 334.751L426.755 335.057L425.216 333.383L424.904 331.966L423.078 330.461L420.97 329.846L420.187 330.004L418.964 327.796L418.214 327.187L417.718 325.798L417.907 325.05L420.079 322.369L420.399 321.377L419.502 320.264L418.837 320.515L416.57 318.8L416.438 317.659L414.906 317.84L415.32 315.182L414.791 313.77L413.628 312.157L411.746 311.475L412.13 310.563L413.038 310.389L413.115 309.434L413.971 307.468L413.825 306.035L415.474 304.826L416.868 304.466L420.547 302.223L422.067 302.387L422.361 301.325L424.697 300.569L423.2 297.539L422.788 295.751L424.343 294.787L425.654 292.046L427.915 292.628L428.332 291.688L429.432 291.058L430.56 288.964L431.917 287.248L435.062 285.877L435.312 284.328L436.841 284.709L439.929 282.742L440.735 281.653L440.894 280.631L440.155 279.787L440.361 277.802L439.382 276.379L441.086 276.738L442.384 274.52L441.91 272.94L442.862 271.488L442.648 270.793L443.234 269.45L442.382 268.208L441.49 269.251L440.384 269.674L438.921 268.744L439.284 265.983L440.207 264.783L440.633 263.094L441.832 261.593L441.904 259.209L442.26 257.966L442.257 256.093L444.219 252.611L445.371 252.411L446.044 251.022L447.813 250.601L448.854 249.298L449.012 246.438L448.654 243.813L450.289 242.478L449.655 240.636L451.489 238.898L452.231 237.375L453.65 238.249L454.304 237.083L453.486 235.994L456.941 233.902L456.475 232.929L457.891 232.216L459.228 230.416L461.088 230.237L461.087 228.386L461.449 226.696L462.354 225.286L463.183 222.961L462.327 220.521L461.452 220.057L461.04 217.835L461.204 216.687L460.604 216.185L460.661 212.621L460.284 210.513L460.709 209.127L460.32 207.763L461.093 204.83L460.815 202.95L461.19 201.438L461.104 200.162L462.237 193.588L462.154 188.68L462.248 186.255L462.867 183.967L461.957 182.88L461.275 180.62L462.082 179.974L462.937 181.749L463.809 182.791L465.062 182.321L465.26 181.316L464.577 180.29L465.138 178.087L466.745 177.401L467.947 178.003L469.625 179.545L471.713 180.589L473.709 180.362L474.448 179.835L475.903 177.812L475.269 176.274L476.82 175.433L477.761 175.988L478.669 175.582L479.716 173.636L480.886 170.356L483.378 170.415L484.671 169.253L487.555 169.553L490.176 169.055L489.858 168.285L487.011 167.928L483.059 167.779L482.044 166.869L482.229 165.692L483.141 164.215L484.733 164.074L485.61 163.033ZM11.2354 141.111L10.9793 142.245L9.3885 141.475L8.63093 142.878L7.28924 142.943L6.02857 143.638L4.49743 145.786L4.69756 147.447L4.05422 148.249L3.33984 146.899L3.64259 145.816L5.32511 143.403L6.39099 141.038L8.1926 141.379L11.2354 141.111ZM296.75 133.004L298.045 134.562L296.684 135.162L295.527 134.961L295.625 133.937L296.75 133.004ZM296.817 126.09L296.071 127.889L296.744 129.37L296.717 130.446L296.061 131.627L294.758 131.277L294.044 130.472L292.805 130.436L292.507 129.549L292.822 128.382L291.324 126.297L291.46 125.238L292.27 123.692L293.046 126.151L294.207 125.584L295.36 123.57L296.414 122.877L297.5 124.057L296.817 126.09ZM493.428 115.737L494.27 116.522L495.992 116.209L497.354 116.988L499.537 117.738L499.034 120.545L498.347 122.335L496.762 121.852L497.062 122.948L496.584 124.202L497.099 125.691L496.032 127.326L495.771 128.635L496.443 130.099L495.333 131.797L495.362 132.918L494.514 134.797L495.089 136.388L496.442 136.887L495.78 138.505L496.115 140.333L497.826 142.378L497.544 143.712L497.919 146.135L498.751 147.47L499.247 149.641L498.802 150.89L499.063 152.914L498.418 153.632L497.847 156.063L497.921 157.299L498.545 159.376L497.589 160.328L498.486 161.68L498.128 162.955L496.352 163.185L494.976 162.87L494.564 160.956L494.93 158.506L494.347 156.771L492.82 157.473L491.707 158.793L490.72 158.577L489.31 159.535L486.632 159.3L484.143 158.628L483.707 157.385L481.575 157.218L480.009 156.03L479.765 154.177L478.798 153.302L478.376 151.898L479.788 151.119L479.009 149.794L478.248 150.309L477.715 148.735L477.043 149.018L476.129 148.142L476.048 147.262L475.203 146.258L474.274 146.276L472.712 144.997L472.563 143.475L473.422 142.043L474.406 141.657L476.297 141.965L478.138 142.651L479.83 142.13L481.324 140.055L481.041 138.134L481.732 137.621L482.415 135.962L483.601 136.118L484.431 134.951L486.205 134.555L486.957 133.228L487.023 131.995L485.994 130.003L487.191 126.545L486.598 125.39L487.321 123.874L486.867 122.129L487.436 121.759L488.484 118.911L489.851 117.851L490.694 118.241L491.378 117.093L492.578 117.019L493.428 115.737ZM95.4803 27.173L94.0557 26.3641L94.3577 24.1552L95.4803 27.173ZM87.461 4.31332L89.0114 4.91475L89.4337 5.48227L92.0899 6.50344L92.3003 10.3616L91.6103 10.9918L91.5645 12.1768L93.2519 11.9721L93.1688 12.933L93.9206 14.0159L93.1818 14.6794L90.4662 13.7382L90.6958 12.857L88.9777 11.9733L88.7962 10.1768L87.5432 10.3131L86.6498 9.31104L86.8576 8.23445L88.1454 7.00433L87.6377 5.6243L85.9027 5.06829L85.172 4.07196L86.0582 3.00143L86.8014 2.93359L87.461 4.31332Z" fill="#1E1E1E"/>
<path d="M456.863 429.99L459.446 427.996L461.28 424.845L462.339 424.912L463.592 423.677L464.992 421.615L465.399 419.925L464.163 420.496L462.308 420.311L459.303 422.587L458.431 422.607L456.324 421.692L455.824 420.988L455.788 419.592L456.836 419.683L458.302 418.061L457.846 415.412L458.76 414.186L458.684 412.892L458.014 412.628L458.328 409.821L459.867 408.606L460.785 405.588L462.141 405.683L464.012 405.278L464.37 404.315L463.5 403.481L463.127 402.397L464.318 400.223L465.383 399.776L466.731 396.906L467.998 396.707L468.887 396.001L470.567 395.858L473.502 395.18L473.575 395.982L475.026 396.992L475.882 396.933L475.794 394.649L475.221 393.726L475.37 392.647L476.335 392.474L477.004 391.125L476.781 389.463L478.485 388.588L477.897 387.449L480.072 384.983L481.529 384.667L482.494 385.696L484.04 384.476L485.264 384.204L487.973 384.118L490.288 385.328L490.363 387.155L491.197 387.822L491.503 389.1L492.991 390.044L494.748 388.662L494.556 387.848L495.829 384.668L496.174 382.806L497.461 381.052L497.157 380.11L498.813 378.665L498.935 377.659L500.117 376.206L499.766 374.508L498.695 373.346L498.622 371.887L497.631 370.102L496.81 369.274L494.771 368.388L493.833 367.358L491.303 366.547L490.488 365.56L489.419 365.257L487.243 365.931L486.764 367.648L485.615 367.864L485.024 367.148L483.834 367.616L480.872 365.191L479.746 363.407L478.91 361.086L478.479 357.418L479.517 352.772L479.941 352.404L481.766 352.543L484.504 351.086L484.688 349.84L485.571 348.699L486.828 347.929L488.542 345.493L488.827 344.391L487.852 341.382L486.11 340.276L483.879 337.923L483.474 336.769L481.144 336.458L481.667 333.99L481.57 332.187L481.122 329.899L481.71 327.936L481.341 326.383L479.893 325.022L477.105 324.546L475.465 323.497L474.091 323.952L472.812 322.388L471.631 320.471L470.519 319.456L469.141 317.331L469.414 313.861L469.892 312.818L468.633 310.086L465.881 309.027L464.928 309.481L462.418 307.927L461.406 308.329L459.787 307.922L458.636 306.206L457.717 305.961L456.663 304.274L455.603 303.325L455.182 299.005L456.1 298.168L456.919 298.319L458.195 297.308L459.662 295.321L461.207 295.062L461.467 294.344L459.856 292.891L458.408 291.221L458.218 289.481L460.463 288.731L460.504 287.701L459.609 286.427L459.411 282.365L459.702 280.648L460.8 280.101L460.455 275.792L460.611 274.536L462.916 270.413L465.016 268.86L466.345 266.837L467.672 266.883L467.974 266.059L468.98 265.821L469.538 264.72L470.521 264.369L470.707 262.029L471.615 261.701L471.921 258.955L472.999 257.646L474.335 257.473L475.298 255.918L474.189 253.081L474.669 252.146L475.629 252.191L475.838 250.24L474.776 248.583L474.698 246.675L475.588 245.322L476.763 244.723L479.082 241.141L480.109 240.852L480.36 239.302L479.782 238.398L481.118 236.846L480.656 235.236L481.327 234.111L482.185 234.116L482.773 233.181L483.638 233.278L483.65 231.617L484.396 229.895L486.17 228.881L487.674 229.623L487.969 227.264L488.603 226.597L487.836 225.622L488.302 224.9L487.897 223.96L488.11 222.817L487.48 221.158L487.482 219.068L486.359 216.831L486.895 214.304L487.741 212.843L486.666 212.754L485.241 211.066L484.534 211.013L483.827 208.799L484.155 207.425L483.862 204.187L484.801 198.728L484.907 196.327L485.838 193.387L486.755 192.883L487.762 191.254L489.505 190.217L492.751 186.561L494.596 183.616L494.85 180.908L495.231 179.753L495.361 176.664L495.141 175.871L495.74 174.391L495.602 173.298L494.126 170.482L494.015 169.756L495.307 167.516L495.517 166.065L494.588 163.797L492.897 163.945L491.839 163.523L490.918 163.844L489.788 163.372L489.315 163.98L487.776 164.126L487.153 163.509L485.61 163.033L484.733 164.074L483.141 164.215L482.229 165.692L482.044 166.869L483.059 167.779L487.011 167.928L489.858 168.285L490.176 169.055L487.555 169.553L484.671 169.253L483.378 170.415L480.886 170.356L479.716 173.636L478.669 175.582L477.761 175.988L476.82 175.433L475.269 176.274L475.903 177.812L474.448 179.835L473.709 180.362L471.713 180.589L469.625 179.545L467.947 178.003L466.745 177.401L465.138 178.087L464.577 180.29L465.26 181.316L465.062 182.321L463.809 182.791L462.937 181.749L462.082 179.974L461.275 180.62L461.957 182.88L462.867 183.967L462.248 186.255L462.154 188.68L462.237 193.588L461.104 200.162L461.19 201.438L460.815 202.95L461.093 204.83L460.32 207.763L460.709 209.127L460.284 210.513L460.661 212.621L460.604 216.185L461.204 216.687L461.04 217.835L461.452 220.057L462.327 220.521L463.183 222.961L462.354 225.286L461.449 226.696L461.087 228.386L461.088 230.237L459.228 230.416L457.891 232.216L456.475 232.929L456.941 233.902L453.486 235.994L454.304 237.083L453.65 238.249L452.231 237.375L451.489 238.898L449.655 240.636L450.289 242.478L448.654 243.813L449.012 246.438L448.854 249.298L447.813 250.601L446.044 251.022L445.371 252.411L444.219 252.611L442.257 256.093L442.26 257.966L441.904 259.209L441.832 261.593L440.633 263.094L440.207 264.783L439.284 265.983L438.921 268.744L440.384 269.674L441.49 269.251L442.382 268.208L443.234 269.45L442.648 270.793L442.862 271.488L441.91 272.94L442.384 274.52L441.086 276.738L439.382 276.379L440.361 277.802L440.155 279.787L440.894 280.631L440.735 281.653L439.929 282.742L436.841 284.709L435.312 284.328L435.062 285.877L431.917 287.248L430.56 288.964L429.432 291.058L428.332 291.688L427.915 292.628L425.654 292.046L424.343 294.787L422.788 295.751L423.2 297.539L424.697 300.569L422.361 301.325L422.067 302.387L420.547 302.223L416.868 304.466L415.474 304.826L413.825 306.035L413.971 307.468L413.115 309.434L413.038 310.389L412.13 310.563L411.746 311.475L413.628 312.157L414.791 313.77L415.32 315.182L414.906 317.84L416.438 317.659L416.57 318.8L418.837 320.515L419.502 320.264L420.399 321.377L420.079 322.369L417.907 325.05L417.718 325.798L418.214 327.187L418.964 327.796L420.187 330.004L420.97 329.846L423.078 330.461L424.904 331.966L425.216 333.383L426.755 335.057L427.679 334.751L427.796 333.7L429.153 334.451L431.395 334.563L432.087 334.863L434.012 337.496L434.29 339.146L433.814 340.046L436.092 341.585L437 343.855L436.789 346.623L436.322 347.168L435.311 349.618L432.376 349.99L434.819 352.543L435.241 353.578L434.658 355.094L435.246 357.062L434.474 360.684L434.45 362.343L433.196 364.9L433.339 365.799L434.224 367.021L435.241 367.146L437.145 370.135L437.112 370.942L436.217 371.739L437.596 373.012L437.568 375.849L435.416 376.223L437.177 378.222L438.976 378.251L439.988 379.627L440.446 380.892L440.263 382.932L439.728 385.21L438.76 386.975L438.613 387.929L437.029 388.67L436.196 387.191L434.35 387.121L432.582 387.968L433.232 388.93L434.402 389.388L436.222 389.319L436.692 390.509L435.912 391.806L435.47 393.896L433.974 395.1L433.498 396.115L432.563 396.558L432.05 395.425L430.464 395.113L430.817 396.793L429.112 399.357L428.412 399.431L427.399 400.904L426.023 401.469L426.081 402.275L425.138 403.045L424.66 405.078L423.688 405.447L422.297 405.072L420.884 405.443L421.075 408.599L422.079 408.877L422.449 407.708L424.305 407.759L426.053 408.605L427.116 410.418L428.431 410.773L429.723 412.812L431.22 412.626L431.998 414.385L433.422 415.337L434.865 417.909L435.739 417.574L436.513 419.104L436.625 421.234L439.084 420.577L438.918 419.78L439.553 418.423L441.271 418.199L442.113 418.529L442.797 417.895L445.021 418.198L446.077 419.432L447.134 419.774L447.47 420.842L447.137 422.064L448.375 422.648L450.673 424.502L450.157 426.512L452.191 429.061L452.693 431.408L452.038 432.607L450.619 433.189L450.1 434.128L448.847 434.064L447.783 435.289L447.858 438.638L450.736 437.9L452.387 436.651L452.952 434.637L454.145 434.111L454.453 432.678L455.28 432.2L455.469 430.713L456.863 429.99ZM456.863 429.99L458.108 430.42L457.308 431.47L456.863 429.99ZM299.603 459.811L299.583 460.613L298.517 461.952L296.339 462.155L296.241 460.423L297.429 459.951L299.603 459.811ZM295.924 416.368L297.311 417.283L296.581 417.835L295.924 416.368ZM382.811 414.254L383.382 416.616L384.663 416.901L388.664 415.051L389.576 415.466L388.655 418.733L387.838 419.817L385.803 420.247L384.285 419.166L383.043 419.671L383.049 421.789L382.007 423.117L381.163 425.199L381.847 426.053L381.928 427.619L382.709 427.893L382.777 429.609L380.501 431.374L379.971 432.245L377.981 433.248L377.624 434.436L377.809 436.332L376.585 437.163L376.16 437.95L375.135 437.036L373.706 438.072L373.925 439.303L372.732 439.331L372.093 438.121L369.603 439.577L369.68 441.704L367.759 441.406L366.685 439.657L365.446 439.818L364.356 439.391L363.842 439.97L362.418 440.273L361.135 441.643L359.865 444.874L358.214 445.583L357.766 446.27L357.949 447.536L357.268 448.606L356.265 448.453L354.233 449.234L352.447 451.166L351.791 451.446L350.707 452.977L350.837 453.81L349.364 455.804L348.87 457.057L349.862 458.677L349.106 459.789L348.012 459.385L347.578 458.194L345.178 457.33L344.011 457.53L343.229 458.665L341.725 458.994L340.623 458.706L339.789 459.431L338.429 459.647L336.455 460.56L335.672 462.393L333.906 462.739L333.438 463.685L332.221 464.802L332.327 466.97L331.95 467.895L330.96 467.346L329.406 467.586L328.988 468.586L327.22 470.066L327.113 471.793L326.079 472.196L326.005 474.706L324.46 474.784L324.527 473.465L321.396 471.853L319.553 469.655L319.03 470.795L319.304 473.21L318.273 474.239L317.527 473.771L315.452 469.625L314.447 469.409L312.098 469.839L311.585 468.518L310.715 467.59L309.518 469.085L309.736 466.813L310.624 466.629L310.322 464.913L309.258 463.95L307.298 464.268L306.38 462.641L307.217 461.871L307.491 459.683L308.969 458.712L308.569 457.164L309.837 457.156L310.271 456.142L309.007 455.339L308.7 454.143L310.921 453.47L311.41 450.789L312.802 451.493L315.127 450.164L315.142 449.133L317.408 447.343L316.74 445.783L317.507 444.259L318.872 443.979L318.114 442.555L319.331 440.898L321.36 440.264L323.534 438.155L324.617 438.014L326.289 436.268L327.125 436.138L329.063 433.805L329.582 432.207L330.332 431.077L330.348 430.069L331.159 429.569L332.13 427.966L332.954 425.58L334.019 424.58L334.693 422.921L335.403 422.194L336.86 422.152L338.178 421.68L341.107 422.319L342.88 423.192L345.214 425.432L346.96 425.327L347.272 424.576L348.939 425.818L349.745 425.799L351.141 424.442L351.678 424.898L353.461 423.235L354.397 422.767L358.334 422.507L359.517 421.998L360.639 420.861L362.275 421.445L363.489 420.335L364.773 420.024L365.155 419.288L367.648 418.628L368.879 418.845L372.024 417.757L372.76 416.658L373.451 417.065L375.864 415.927L377.74 415.345L379.497 415.247L382.811 414.254ZM315.713 408.442L316.985 409.069L319.481 409.237L319.849 410.081L319.198 413.006L321.975 415.262L321.35 415.959L320.546 415.595L318.66 415.921L318.174 416.809L316.76 417.332L314.801 417.082L313.759 416.432L313.425 415.175L311.822 413.732L307.705 412.466L306.893 413.466L304.754 412.826L304.729 411.48L305.409 410.136L305.993 409.995L308.734 411.559L310.309 410.557L310.965 409.555L312.663 408.741L315.713 408.442ZM334.801 400.971L333.138 402.924L331.445 404.255L329.501 405.194L329.247 403.638L331.788 402.253L332.695 400.634L334.801 400.971ZM410.465 311.092L411.189 311.62L410.243 312.743L409.295 312.534L408.588 310.502L410.465 311.092ZM115.919 169.198L114.433 167.76L115.461 167.068L115.832 165.609L116.368 165.42L117.901 166.602L115.919 169.198ZM121.151 164.218L122.16 165.238L123.856 165.997L123.208 167.724L120.915 165.832L119.098 165.646L119.404 164.25L121.151 164.218ZM11.2354 141.111L10.9793 142.245L9.3885 141.475L8.63093 142.878L7.28924 142.943L6.02857 143.638L4.49743 145.786L4.69756 147.447L4.05422 148.249L3.33984 146.899L3.64259 145.816L5.32511 143.403L6.39098 141.038L8.1926 141.379L11.2354 141.111ZM296.75 133.004L298.045 134.562L296.684 135.162L295.527 134.961L295.625 133.937L296.75 133.004ZM296.817 126.09L296.071 127.889L296.744 129.37L296.717 130.446L296.061 131.627L294.758 131.277L294.044 130.472L292.805 130.436L292.507 129.549L292.822 128.382L291.324 126.297L291.46 125.238L292.27 123.692L293.045 126.151L294.207 125.584L295.36 123.57L296.414 122.877L297.5 124.057L296.817 126.09ZM493.428 115.737L494.27 116.522L495.992 116.209L497.354 116.988L499.537 117.738L499.034 120.545L498.347 122.335L496.762 121.852L497.062 122.948L496.584 124.202L497.099 125.691L496.032 127.326L495.771 128.635L496.443 130.099L495.333 131.797L495.362 132.918L494.514 134.797L495.089 136.388L496.442 136.887L495.78 138.505L496.115 140.333L497.826 142.378L497.544 143.712L497.919 146.135L498.751 147.47L499.247 149.641L498.802 150.89L499.063 152.914L498.418 153.632L497.847 156.063L497.921 157.299L498.545 159.376L497.589 160.328L498.486 161.68L498.128 162.955L496.352 163.185L494.976 162.87L494.564 160.956L494.93 158.506L494.347 156.771L492.82 157.473L491.707 158.793L490.72 158.577L489.31 159.535L486.632 159.3L484.143 158.628L483.707 157.385L481.575 157.218L480.009 156.03L479.765 154.177L478.798 153.302L478.376 151.898L479.788 151.119L479.009 149.794L478.248 150.309L477.715 148.735L477.043 149.018L476.129 148.142L476.048 147.262L475.203 146.258L474.274 146.276L472.712 144.997L472.563 143.475L473.422 142.043L474.406 141.657L476.297 141.965L478.138 142.651L479.83 142.13L481.324 140.055L481.041 138.134L481.732 137.621L482.415 135.962L483.601 136.118L484.431 134.951L486.205 134.555L486.957 133.228L487.023 131.995L485.994 130.003L487.191 126.545L486.598 125.39L487.321 123.874L486.867 122.129L487.436 121.759L488.484 118.911L489.851 117.851L490.694 118.241L491.378 117.093L492.578 117.019L493.428 115.737ZM95.4803 27.173L94.0557 26.3641L94.3577 24.1552L95.4803 27.173ZM87.461 4.31332L89.0114 4.91475L89.4337 5.48227L92.0899 6.50344L92.3003 10.3616L91.6103 10.9918L91.5645 12.1768L93.2519 11.9721L93.1688 12.933L93.9206 14.0159L93.1818 14.6794L90.4662 13.7382L90.6958 12.857L88.9777 11.9733L88.7962 10.1768L87.5432 10.3131L86.6498 9.31104L86.8576 8.23445L88.1454 7.00433L87.6377 5.6243L85.9027 5.06829L85.172 4.07196L86.0582 3.00143L86.8014 2.93359L87.461 4.31332Z" stroke="white" stroke-width="5"/>
</svg>
