<svg width="221" height="366" viewBox="0 0 221 366" fill="none" xmlns="http://www.w3.org/2000/svg">
<path d="M190.693 311.107L192.529 311.934L192.543 313.374L194.031 314.905L193.888 316.385L195.233 316.963L197.186 319.098L197.75 320.751L198.978 321.67L198.243 322.348L198.231 323.977L199.496 323.744L200.037 321.64L200.787 320.697L200.248 318.75L200.753 317.883L202.546 317.819L203.629 319.988L205.107 320.082L206.238 321.088L206.596 319.111L207.855 320.789L209.34 321.2L210.403 322.701L210.759 324.121L211.495 324.606L212.521 329.088L213.537 330.118L213.921 331.681L213.424 332.11L213.676 333.449L214.654 335.411L214.582 336.189L215.327 339.217L216.392 341.065L216.285 345.271L216.851 347.363L216.721 348.406L217.128 350.314L216.806 351.904L217.241 353.848L217.168 356.27L217.864 357.446L217.793 358.287L215.869 358.839L215.202 359.869L214.138 357.164L213.168 357.354L212.895 355.175L212.155 354.938L212.191 352.711L210.019 352.729L209.939 351.095L207.472 349.758L205.575 349.455L204.717 347.583L204.196 347.673L203.238 346.384L202.408 346.435L200.689 344.139L199.461 344.054L197.85 340.803L197.244 337.536L196.565 336.58L195.324 332.651L195.436 331.437L194.669 330.349L193.037 329.111L192.765 327.202L193.086 325.541L192.594 324.084L191.365 322.261L190.981 319.886L189.906 319.06L188.996 314.329L188.4 312.905L188.105 310.099L188.967 308.931L190.693 311.107ZM180.251 265.097L179.911 266.319L178.545 266.196L176.998 267.438L176.059 266.95L175.344 264.883L176.029 263.934L178.789 265.216L179.03 263.781L179.895 263.861L180.251 265.097ZM56.1395 184.527L56.6239 185.106L56.8637 187.555L55.771 188.809L54.6667 187.003L54.2182 184.671L55.0631 183.285L56.1395 184.527ZM108.947 104.825L109.96 105.399L110.663 105.065L112.267 106.652L112.541 108.333L111.579 108.835L110.156 108.038L109.379 106.785L108.035 107.325L107.307 106.388L108.947 104.825ZM113.355 98.5372L113.21 99.2773L111.848 99.9015L110.445 99.4972L110.595 97.9012L111.443 97.6668L113.355 98.5372ZM96.227 74.1331L95.4958 75.9898L96.2162 76.5149L97.4517 76.4855L97.8322 78.424L96.3424 80.9466L95.7539 79.7244L94.5287 74.9632L95.1389 74.2012L96.227 74.1331ZM34.6143 7.1719L34.3231 10.2327L34.4967 11.3729L36.194 11.6139L36.7456 14.4545L37.3769 15.2461L37.3409 17.2718L38.9027 17.8154L39.5139 19.2154L39.4983 20.5982L40.4992 21.46L41.3706 21.4973L40.3478 23.5414L40.7426 24.1053L42.9456 24.3839L44.1809 24.1583L43.9217 26.5198L45.4827 27.7921L45.4859 29.3723L46.2338 29.643L46.559 31.1926L45.2133 34.3966L45.6478 35.5638L46.9678 36.9017L46.4365 38.5179L46.7292 40.0506L47.3181 41.099L48.4026 41.4346L49.2972 43.493L50.2706 44.6819L51.1024 44.8L51.9528 46.1803L52.9339 46.1525L53.9348 47.6573L55.3235 48.0428L55.4015 48.9852L56.7358 51.6759L58.0034 53.0762L59.6776 53.5747L62.4606 53.9227L63.2848 53.6577L66.4778 56.3814L67.228 58.5606L69.6977 59.4961L72.3162 60.1814L73.5824 60.7435L73.8991 61.7507L75.4947 62.7158L77.3886 64.9259L79.1453 64.773L80.949 66.7826L81.4643 68.1945L85.4267 71.9551L85.9706 73.4768L87.7286 76.1772L88.4144 76.15L90.0286 77.9101L90.6004 79.0978L91.6309 79.9963L94.0406 81.4351L95.0171 81.5698L95.418 83.0129L96.4322 84.3208L98.0979 84.3142L98.9677 85.0328L98.6442 86.0552L99.8434 88.1717L100.984 88.7586L103.81 89.2761L105.788 90.1913L105.836 91.6937L106.909 94.0522L106.614 95.5594L107.291 98.9911L106.32 100.252L104.089 101.078L103.362 103.879L103.135 105.583L101.912 108.122L101.236 108.441L100.52 107.447L99.66 108.608L98.165 107.309L97.1158 107.522L96.3451 106.792L96.7125 105.16L94.821 105.885L93.2937 106.041L93.2551 104.879L90.9954 104.582L88.3001 105.496L85.7552 106.833L83.5744 109.116L82.8451 110.613L82.608 112.897L82.8043 114.391L81.9134 116.104L81.1508 116.725L80.7722 119.323L79.8588 122.294L79.7862 125.127L78.5838 128.449L78.5834 129.375L79.3359 133.838L78.5856 134.707L78.5117 136.104L79.1806 139.76L80.6628 142.052L80.6956 144.462L80.4879 146.627L79.4948 148.008L79.5498 148.89L82.0441 152.653L83.961 154.333L84.4387 155.287L83.9244 156.064L81.5337 155.621L81.1878 160.946L80.4945 161.696L79.8497 165.801L78.1179 165.637L76.3841 164.38L74.9945 164.236L74.0601 162.962L72.7225 162.957L70.4722 161.362L69.7748 160.214L68.8802 159.751L67.6399 157.62L65.4317 159.472L63.6153 157.927L62.9716 158.35L63.7556 159.833L63.1498 161.195L60.743 161.984L59.2467 161.723L58.0561 158.598L58.5063 157.738L57.0387 157.385L55.8688 156.165L54.0777 157.507L54.0565 158.417L51.881 159.36L51.461 160.996L50.7242 161.141L50.1223 160.106L49.5745 158.144L47.3239 155.578L47.0796 154.918L45.3163 154.036L45.3304 153.22L44.0027 151.995L42.4349 151.75L40.9033 151.942L39.545 151.541L38.5875 152.183L37.5198 153.542L36.2616 152.383L36.0377 151.147L34.6306 149.785L34.0086 147.977L33.5754 145.305L33.1722 144.704L31.7747 147.235L30.8691 149.949L29.8461 149.658L28.8949 148.649L27.8355 148.254L26.6524 146.153L25.8449 144.044L26.1349 141.569L26.5852 141.12L25.3972 138.341L25.3113 137.31L24.3033 136.42L23.8525 138.638L23.348 138.869L21.504 135.939L20.4902 132.801L19.8335 132.058L20.1089 131.206L18.4547 129.257L15.4518 127.897L14.7114 123.679L14.9137 122.933L11.6971 121.675L11.7518 118.696L13.5644 119.014L14.4967 117.934L13.7646 115.815L15.767 115.532L15.7958 113.473L13.8171 112.008L13.4393 110.505L12.0354 108.509L12.1901 107.713L9.80819 106.251L9.65218 104.489L8.37003 102.68L8.02387 101.552L8.57573 100.774L8.98272 98.5563L10.1611 98.4191L11.0231 97.6602L11.0859 96.828L12.7087 96.4967L14.4922 95.0082L15.1079 92.3687L16.6542 94.0052L18.2008 94.0071L19.2853 92.66L19.2512 91.4396L19.9965 89.198L18.3401 86.7184L18.4157 85.6509L16.2078 82.8987L15.0902 81.8987L15.1765 80.0968L14.4143 78.603L14.9306 77.1584L15.8233 76.8059L14.3382 75.5925L14.2521 74.7875L15.7683 73.4914L16.248 73.8151L17.6776 72.4899L17.1811 71.8158L17.4431 70.6547L18.1213 70.0799L17.29 68.4637L18.0794 66.9958L18.8687 66.6418L18.1949 63.1958L16.0088 61.8803L16.095 60.4452L15.5411 59.593L16.2619 58.3404L15.6933 56.2475L14.6412 55.5701L13.4568 53.8678L12.8451 53.9896L11.6978 52.3515L10.6225 52.1326L10.7074 51.1696L8.41705 48.7036L6.31675 47.7972L3.92252 46.0925L3.14453 44.8796L4.92456 42.7041L5.85032 41.2202L5.42232 38.779L6.11743 37.0558L8.05347 35.0374L9.03868 33.6071L9.84731 31.5706L9.25018 30.6533L9.96003 27.5531L10.6115 27.3448L11.5754 23.2556L13.7201 21.9419L14.8086 19.8063L16.1216 18.3578L18.3517 16.4366L19.2227 14.2922L19.1208 12.6887L17.5779 11.5891L17.9421 9.425L19.3505 8.55253L20.4281 8.30663L21.3479 8.77512L23.625 8.15309L25.0299 8.64066L26.0363 9.51343L26.605 8.30027L27.8082 7.67097L29.9262 7.49472L30.6459 6.7664L30.5588 5.65105L31.785 3.5L32.8048 3.85038L33.1593 5.29219L34.6143 7.1719Z" fill="#1E1E1E" stroke="white" stroke-width="5"/>
</svg>
