<svg width="364" height="359" viewBox="0 0 364 359" fill="none" xmlns="http://www.w3.org/2000/svg">
<path d="M176.73 6.16382L175.965 9.74349L176.372 14.3434L177.401 18.0801L178.42 19.9006L179.658 23.8665L180.024 27.8548L179.756 30.2694L180.306 32.648L180.767 36.0431L180.537 38.3256L179.602 42.0587L178.519 45.665L178.513 48.717L179.538 51.6044L180.042 52.3989L182.371 54.3288L184.023 56.6278L183.717 57.853L182.59 59.9724L180.102 61.6313L176.791 62.7201L175.796 64.8809L174.252 66.019L173.88 68.5809L173.167 71.4389L173.585 73.5759L175.615 78.7186L175.552 80.0924L174.647 81.9946L174.721 82.8575L176.214 84.3974L176.889 86.7285L176.428 90.0124L177.807 92.1859L180.789 94.8425L183.178 96.5229L185.212 96.9723L186.142 96.7518L188.556 95.0484L190.174 94.974L193.039 96.3801L196.157 98.4813L198.753 99.6881L202.477 99.4369L204.459 98.6778L206.467 96.0593L208.282 94.2612L210.178 93.9238L212.089 94.2243L214.668 94.1622L216.562 93.2274L220.372 89.4155L225.143 86.8601L226.776 84.5528L228.783 82.3587L231.54 78.3655L233.329 78.5396L234.159 79.4082L234.788 81.186L234.599 83.6766L236.227 86.3268L236.022 89.1037L234.002 92.5763L233.855 93.7907L235.142 97.1141L236.237 98.7178L237.425 99.5882L240.487 102.786L243.291 104.84L246.219 107.296L249.13 108.124L252.676 108.329L255.484 109.659L256.557 110.909L256.849 114.416L256.452 117.392L256.609 118.758L258.031 122.186L259.245 123.303L262.562 124.251L264.283 125.897L267.223 125.938L268.883 126.515L271.138 126.285L274.224 126.302L275.809 126.703L276.918 127.787L278.606 128.521L280.876 128.487L281.731 129.327L283.069 132.666L284.472 133.973L290.953 134.388L291.928 134.747L293.26 136.193L297.04 141.049L298.825 142.488L302.39 143.368L303.203 144.215L304.028 146.209L305.108 147.083L308.751 146.41L311.877 146.382L314.723 145.729L318.378 145.689L321.704 144.739L325.247 146.036L325.611 149.279L326.388 150.196L326.272 152.46L328.89 153.137L331.505 154.549L333.86 155.322L334.926 156.334L336.437 157.124L338.922 157.016L340.217 157.288L341.111 158.043L341.137 158.89L338.896 160.209L338.505 161.399L336.826 162.962L337.077 164.578L335.716 165.718L336.308 166.999L335.1 168.641L335.707 169.536L335.093 170.454L333.818 171.132L332.855 173.252L330.898 174.125L330.42 174.856L331.301 175.678L330.542 176.571L330.823 178.136L329.795 179.216L330.5 180.82L330.454 181.964L329.662 184.443L328.267 186.163L328.7 188.219L327.767 187.927L326.577 188.868L326.978 190.151L326.079 191.098L329.496 192.948L332.165 194.023L334.569 194.304L336.309 194.057L339.793 192.707L341.654 191.566L343.783 190.849L346.563 191.237L347.886 192.049L348.718 195.892L350.595 197.6L352.45 203.643L354.394 205.045L357.607 205.718L358.606 205.392L360.319 205.755L361.064 206.37L360.768 208.701L359.929 209.68L359.18 213.071L357.77 214.999L356.184 216.1L354.318 216.711L353.535 217.887L352.734 218.801L351.078 221.621L349.96 221.273L348.987 221.579L348.82 222.508L346.692 222.712L345.481 224.957L344.255 226.163L341.97 226.973L339.702 227.045L338.427 227.977L336.43 228.39L334.537 229.505L333.245 229.749L331.897 230.971L330.133 231.376L326.436 231.404L325.061 232.518L324.078 234.824L322.593 236.511L320.326 242.308L319.286 244.575L317.981 245.694L316.167 246.572L313.911 249.769L311.135 250.362L307.206 250.477L298.285 250.158L297.607 250.771L296.407 255.033L292.582 255.357L291.589 255.276L289.992 254.477L284.746 249.75L282.433 246.624L281.665 245.05L281.84 242.606L281.133 241.483L279.606 241.253L279.183 242.032L278.825 244.916L278.014 246.238L277.505 249.218L275.081 251.028L272.371 251.394L268.241 251.343L266.122 251.162L264.21 252.075L264.155 254.347L261.446 255.454L257.376 256.005L256.3 257.143L254.055 256.704L251.285 256.603L249.233 257.755L246.858 260.422L244.956 260.743L241.489 260.796L240.127 261.138L239.727 261.969L240.214 263.171L241.815 265.361L241.775 267.095L241.173 269.57L242.526 274.298L244.107 278.58L244.286 279.705L242.433 281.656L243.152 285.621L242.789 287.939L243.675 291.05L241.217 294.307L241.767 295.517L240.904 297.048L242.188 297.718L242.335 299.372L239.935 300.792L236.367 303.636L235.748 304.567L233.016 304.646L228.777 303.362L227.383 303.613L225.153 305.369L224.356 308.822L223.301 310.822L221.991 312.571L219.044 315.652L217.592 315.732L216.28 314.875L215.024 315.94L214.657 318.135L215.452 320.818L215.19 322.763L215.309 325.385L217.081 328.716L216.9 330.709L215.806 331.715L213.799 332.591L208.715 333.798L204.147 334.543L204.453 336.19L207.225 339.603L207.178 340.659L205.38 340.624L202.317 339.236L198.93 339.477L197.259 339.072L195.225 337.103L193.029 335.9L190.514 336.062L188.884 335.716L187.358 334.877L185.254 334.646L183.369 336.354L179.079 335.868L175.801 336.307L172.356 334.595L171.251 334.426L170.228 335.217L171.205 336.503L171.124 337.949L169.038 340.536L167.304 343.089L166.252 344.139L164.766 343.903L162.731 342.322L161.124 341.433L157.939 339.124L156.724 337.964L153.81 336.329L149.612 335.218L142.489 334.421L136.72 334.645L132.471 335.332L128.066 335.742L124.21 335.123L121.626 335.771L120.015 337.241L119.596 339.533L119.876 341.534L120.595 343.389L121.467 347.313L119.005 347.711L115.023 347.781L114.531 347.179L110.96 347.075L109.932 348.588L109.594 352.973L109.81 354.091L107.991 353.256L105.69 353.166L102.636 351.734L101.416 351.431L97.0292 352.009L94.4242 351.893L91.1964 352.126L89.7343 351.718L89.2155 350.965L89.2853 348.258L88.8319 345.201L87.9982 343.171L87.3472 340.492L87.1143 337.243L86.5086 335.069L84.3245 330.362L83.3178 327.499L83.3371 324.678L84.9208 321.076L85.4127 317.92L85.1045 315.416L84.0558 311.089L82.2582 310.795L81.2964 311.13L71.5763 311.348L67.8311 310.995L63.296 310.361L60.9977 310.433L59.3676 311.385L58.1085 310.078L57.0488 307.797L56.9033 306.212L57.1127 302.324L56.1589 300.617L54.7411 298.968L52.6938 297.144L51.8931 293.206L51.6143 290.421L49.3104 286.33L47.2562 284.497L45.6173 282.718L44.8354 281.117L44.5638 278.921L44.9734 275.642L46.121 273.694L48.5643 271.084L49.096 269.888L49.1725 268.337L48.7543 266.633L47.7242 264.938L46.2191 264.044L43.8705 263.211L42.1585 262.068L39.9797 259.692L39.0502 258.062L37.8606 253.718L36.8934 251.84L35.5828 249.988L32.2943 247.257L30.1661 244.351L27.3634 241.518L21.2473 237.181L17.9665 236.28L16.5345 235.694L15.8137 234.576L16.6973 232.934L18.5204 230.779L19.7726 228.819L20.1217 227.245L19.7516 222.884L20.1441 220.821L19.9516 218.421L20.2096 215.482L18.8713 211.631L18.5863 208.77L19.2229 207.398L22.1772 204.663L22.7593 203.721L23.2466 201.548L21.6253 199.181L20.3143 195.186L17.7142 194.225L15.1469 193.935L11.6622 192.485L9.02775 190.71L6.34367 187.453L4.62435 185.963L4.12891 184.996L6.32347 183.483L7.55349 181.641L6.30002 178.504L6.97992 177.3L11.5758 174.675L12.5429 173.395L14.0363 169.549L15.5663 166.918L15.5736 165.756L14.7923 164.302L13.2347 162.202L13.0756 161.332L13.6576 159.426L13.2501 158.358L11.3026 155.913L10.6469 154.173L10.6694 151.307L11.2952 148.041L10.543 144.101L11.0834 140.631L10.6608 139.474L13.5302 139.114L15.1412 139.314L22.5665 138.829L23.3049 138.98L24.6354 141.876L26.3365 143.215L27.7613 145.521L30.1836 146.749L33.4455 147.328L35.0627 147.299L37.2805 146.801L41.723 143.621L43.1215 142.895L50.2205 137.166L51.7546 134.298L53.8769 131.328L57.3777 126.957L58.481 126.028L62.0983 120.317L62.3821 119.077L62.3606 116.921L61.373 114.693L61.7891 113.909L63.3245 112.75L63.9764 109.568L65.4644 107.073L68.3591 106.843L69.1115 104.964L71.9905 104.374L73.95 103.595L74.4671 103.885L74.4888 105.818L74.8981 106.85L77.3661 108.589L78.8938 110.997L79.3092 113.408L81.3857 115.368L82.148 116.884L83.4491 117.614L84.5367 120.733L85.894 121.851L87.2709 122.506L89.6991 125.044L90.7789 127.048L91.5212 127.692L93.4155 131.091L95.5312 133.056L97.0471 132.368L98.3934 130.592L99.9495 130.089L103.797 129.921L105.587 129.318L106.592 128.454L109.221 123.834L109.628 122.721L111.28 120.286L112.736 118.956L113.56 117.256L114.124 114.834L114.149 112.057L115.607 111.266L119.779 108.179L122.264 105.73L125.248 101.978L127.01 99.2192L127.772 97.5267L127.318 96.0599L128.969 94.1149L130.818 90.74L132.675 86.5354L133.104 83.4289L132.242 81.2898L130.229 79.6528L128.647 76.5712L128.268 74.4284L127.531 72.0674L126.212 69.9662L124.438 68.3062L123.751 66.8341L121.477 66.4798L120.496 65.8557L117.888 65.5749L118.199 63.8784L118.311 60.5633L119.037 57.9245L119.624 52.2671L118.632 50.1616L118.565 48.1518L117.48 47.0372L118.779 45.3028L119.805 42.3222L120.904 41.3715L120.65 40.2996L121.213 38.5612L122.521 36.1202L121.288 34.0294L119.63 33.412L118.664 31.9897L117.872 27.7791L119.926 22.0067L120.379 19.9353L121.812 17.0921L123.418 15.9742L123.847 15.1587L125.275 15.1302L129.206 14.5294L131.872 14.6957L132.582 13.4417L134.265 13.2498L135.633 12.1241L136.505 10.2587L137.744 8.68012L137.496 7.65666L139.001 5.79416L139.576 6.80459L143.59 7.13921L143.863 6.00001L143.464 4.98713L144.306 3.9375L145.465 4.37953L147.595 8.07785L149.861 9.48629L150.929 9.23749L152.513 9.51674L156.085 8.18229L158.91 7.88479L161.177 8.0181L162.654 7.6813L164.441 6.79136L166.633 7.47797L169.387 6.21815L172.396 5.66746L176.062 6.24985L176.73 6.16382Z" fill="#1E1E1E" stroke="white" stroke-width="5"/>
</svg>
