<svg width="246" height="340" viewBox="0 0 246 340" fill="none" xmlns="http://www.w3.org/2000/svg">
<path d="M148.555 10.5224L149.431 11.8137L150.444 16.5136L150.101 20.3152L151.436 23.8939L151.682 27.1128L152.25 28.4926L154.862 32.1237L157.136 37.1252L157.874 39.4618L159.416 40.6506L159.635 41.261L159.224 43.6872L159.59 44.4422L162.725 42.217L163.884 41.0777L166.475 39.7553L168.433 40.7351L168.933 39.2208L169.938 40.0366L170.678 41.2865L172.594 40.5048L173.265 40.983L174.634 43.1033L175.613 42.7982L176.675 41.1679L177.482 41.9827L177.562 43.4094L179.03 42.5056L179.379 43.4555L180.612 42.9025L182.219 44.3662L182.171 45.7968L182.74 46.6707L181.196 47.5492L183.007 48.3563L184.094 46.8463L184.711 47.1104L186.256 45.4997L187.051 48.031L186.061 50.0981L185.613 51.669L186.741 52.6846L187.707 54.7483L187.068 58.8465L187.527 59.8929L189.251 60.8068L190.865 60.8434L192.743 61.3071L195.341 62.887L197.287 64.9295L198.121 66.4738L198.506 69.3201L198.356 71.2435L199.354 76.4768L200.102 78.2306L201.033 83.9307L201.02 86.4595L200.713 89.0963L201.385 93.4338L201.966 95.3119L203.825 97.7815L203.69 99.2557L206.332 100.773L208.784 102.429L211.828 101.618L213.23 101.52L213.979 102.599L215.311 101.454L216.622 101.562L217.661 99.9419L218.492 100.134L220.034 99.1134L221.285 99.9917L224.163 99.3202L225.144 98.4984L226.923 99.4306L228.223 98.5925L230.101 99.4698L231.447 99.5497L232.494 98.2528L233.824 97.6492L235.309 97.6054L237.045 96.0753L239.078 96.789L240.457 96.4485L241.334 96.8606L242.024 98.9187L238.993 102.225L238.07 104.084L237.955 106.196L239.098 107.516L241.263 108.009L240.284 110.135L241.171 111.276L240.439 113.921L239.25 115.845L239.753 116.629L241.184 117.535L238.957 120.524L238.065 122.635L236.927 124.21L234.818 125.322L232.194 125.399L230.301 125.714L229.536 126.672L229.577 127.807L232.577 131.575L234.696 133.195L236.326 135.722L238.55 137.673L242.266 141.38L242.851 143.339L242.508 145.172L241.311 148.629L240.695 149.362L237.804 151.134L234.753 152.326L232.716 153.578L231.076 155.319L229.14 156.863L228.345 158.641L226.903 160.464L224.953 161.593L224.013 163.167L224.151 165.054L224.896 166.72L226.315 168.71L227.706 172.508L229.539 175.734L229.466 176.805L227.698 179.108L226.976 181.178L227.301 182.526L228.421 184.478L228.562 185.435L226.651 189.65L226.371 192.478L225.017 195.583L223.403 197.138L223.173 198.616L221.669 204.115L220.005 205.033L217.106 205.677L213.36 206.217L208.77 207.728L204.35 210.143L202.322 211.433L198.693 214.065L196.77 215.195L193.116 216.314L187.499 215.667L183.529 216.363L181.688 217.244L180.226 218.531L179.836 220.042L179.864 223.884L180.449 228.754L180.33 230.757L179.811 233.79L179.687 238.171L179.872 240.799L177.375 244.64L176.63 245.281L172.882 246.314L169.204 246.503L167.739 247.236L167.454 248.914L168.776 251.187L171.76 255.045L175.04 257.837L177.394 259.544L181.217 260.988L183.189 260.363L186.785 257.47L189.385 254.006L191.341 253.225L191.875 253.807L193.538 257.894L197.127 260.851L200.231 261.581L202.424 262.658L204.79 263.337L208.447 264.014L210.364 264.662L213.287 266.161L215.936 266.523L220.06 269.161L221.579 269.671L223.096 271.157L222.21 272.528L221.906 274.252L223.776 278.731L222.595 280.916L222.135 282.787L221.203 284.51L220.98 285.893L221.565 288.486L221.689 291.481L220.803 293.283L219.116 295.297L218.714 297.225L218.889 300.179L218.629 301.543L217.967 302.617L215.685 303.817L214.156 303.023L212.134 301.115L210.789 300.278L208.202 301.191L206.161 302.49L205.091 304.452L203.753 305.419L202.55 303.334L200.805 301.124L198.961 299.649L194.984 298.852L191.935 297.999L191.319 298.112L187.583 300.451L184.305 301.818L182.514 302.046L177.639 302.063L175.869 303.224L175.551 303.962L177.148 306.167L176.095 309.121L176.522 311.215L177.284 313.257L178.766 315.005L175.957 318.44L176.765 320.167L176.43 321.008L177.802 322.668L177.286 324.86L177.766 326.607L179.367 327.35L177.578 328.288L175.052 331.314L173.431 332.354L171.958 335.275L170.615 336.424L167.795 334.988L167.218 334.114L165.087 333.207L161.686 333.964L159.846 333.607L158.656 332.378L156.749 331.492L152.86 329.021L150.156 326.873L146.882 322.252L146.216 320.567L145.038 322.313L145.311 324.877L142.31 324.582L137.78 326.18L135.348 326.012L133.335 326.937L132.095 327.998L125.656 328.209L120.83 328.919L116.952 330.19L116.084 330.13L115.361 327.916L112.113 325.969L106.866 324.345L102.817 324.1L101.395 323.012L101.483 320.782L101.143 319.433L103.172 318.246L105.121 316.669L108.095 312.304L111.114 308.723L112.55 306.166L115.277 304.287L116.829 302.445L118.372 299.716L120.247 297.491L121.239 295.725L121.107 293.252L120.027 291.008L117.414 287.71L115.233 285.504L110.427 282.331L108.296 280.497L104.113 278.345L102.479 277.834L100.754 276.823L98.2042 275.929L96.4203 274.676L95.6167 273.053L93.6234 270.129L93.2885 268.376L94.0459 267.513L96.7867 266.3L97.6762 264.775L96.8994 262.554L97.2504 260.82L99.5073 259.96L100.783 257.405L100.87 255.281L102.495 250.357L103.599 248.478L103.985 247.07L103.758 242.976L103.04 241.767L101.065 240.101L96.8057 238.811L95.8437 239.084L94.1649 238.368L90.0088 237.098L88.4868 235.946L87.2072 235.503L83.9318 235.41L81.2542 234.73L77.2318 234.066L72.7576 232.816L68.1811 231.744L64.1855 230.072L60.7598 228.466L59.0326 227.468L55.7162 225.092L52.8071 223.618L50.6438 221.658L49.0942 221.094L47.1874 219.713L45.8061 218.301L44.1149 216.01L42.8294 215.135L40.9718 215.841L38.7705 217.55L37.3568 217.143L36.7495 214.106L36.9528 211.678L36.3786 209.53L35.3719 207.727L35.0922 205.164L34.9867 201.364L34.006 200.136L32.4694 199.003L31.9544 197.905L32.1703 196.572L33.2654 194.354L34.6461 192.749L36.436 188.867L36.8078 187.158L36.8196 182.853L35.983 180.834L34.4318 179.478L33.8737 177.756L34.5746 174.502L34.4715 172.483L33.1174 169.094L32.2714 167.716L32.834 165.727L33.777 164.072L35.5619 162.104L34.6415 159.291L34.5321 158.257L37.0804 151.092L35.066 149.895L34.4512 149.084L35.1111 148.267L37.3534 146.454L29.9454 143.173L28.9536 142.386L28.0869 140.095L29.6174 138.153L27.0371 133.637L26.375 132.903L26.0017 131.414L25.7607 128.164L26.0496 123.584L25.7814 121.922L25.2562 121.548L21.563 121.269L17.5406 120.211L11.5512 119.911L6.40378 121.407L5.76799 121.174L3.8049 118.715L4.89875 117.709L5.07996 115.716L3.30818 112.384L3.18942 109.763L3.45154 107.817L2.65625 105.135L3.02273 102.939L4.27887 101.875L5.59107 102.732L7.04293 102.652L9.99053 99.571L11.2999 97.8223L12.3551 95.822L13.1519 92.3687L15.3817 90.6123L16.7763 90.3617L21.0154 91.6462L23.7465 91.5666L24.366 90.6356L27.9343 87.792L30.3338 86.3721L30.1874 84.7175L28.9032 84.0482L29.7659 82.5167L29.2163 81.3072L31.674 78.0502L30.7881 74.9393L31.1507 72.6211L30.4325 68.6558L32.285 66.7043L32.1061 65.5793L30.5247 61.2976L29.1719 56.57L29.774 54.0947L29.8137 52.3608L28.2127 50.1704L27.7265 48.9687L28.1265 48.1375L29.4878 47.7962L32.9555 47.7432L34.8567 47.4218L37.2319 44.7553L39.2839 43.6028L42.054 43.7041L44.299 44.1431L45.3752 43.0044L49.445 42.4542L52.1536 41.3468L52.2094 39.075L54.1211 38.1621L56.2404 38.3428L60.3704 38.3937L63.0803 38.0279L65.5039 36.2177L66.0129 33.2376L66.8241 31.9162L67.1815 29.032L67.6055 28.2524L69.1321 28.4827L69.8388 29.6053L69.6645 32.05L70.4318 33.624L72.7448 36.7497L77.9911 41.4765L79.5884 42.2757L80.5812 42.3573L84.4058 42.0331L85.6057 37.7705L86.2841 37.1574L95.2053 37.4764L99.1335 37.3613L101.91 36.7684L104.166 33.5719L105.98 32.6937L107.285 31.5745L108.325 29.3078L110.592 23.5112L112.077 21.824L113.06 19.518L114.435 18.404L118.132 18.3758L119.896 17.9706L121.244 16.7484L122.536 16.505L124.429 15.3895L126.426 14.9769L127.701 14.0444L129.969 13.9727L132.254 13.1631L133.48 11.9566L134.691 9.71193L136.819 9.50741L136.986 8.57917L137.959 8.27323L139.077 8.62108L140.733 5.80064L141.534 4.88672L142.402 6.70454L143.881 7.48135L145.549 9.02896L146.027 8.23579L148.555 10.5224Z" fill="#1E1E1E" stroke="white" stroke-width="5"/>
</svg>
