<svg width="240" height="180" viewBox="0 0 240 180" fill="none" xmlns="http://www.w3.org/2000/svg">
<path d="M233.599 56.8237L232.782 57.3723L230.761 57.8783L226.23 57.21L225.833 56.7391L222.626 56.8913L220.982 57.7915L219.393 59.7471L217.799 61.1536L215.945 64.0828L214.766 66.3606L213.244 68.548L211.362 72.0496L209.671 74.8241L206.923 79.8992L206.089 81.8586L203.549 86.8932L201.274 92.5278L199.148 99.907L198.618 102.821L198.435 106.666L198.395 111.146L198.896 113.296L199.562 114.243L201.434 114.715L205.919 116.422L209.836 116.215L212.565 117.682L213.864 117.893L215.001 118.99L216.802 119.863L218.526 119.523L219.533 120.725L221.287 120.691L222.228 121.564L222.572 123.073L223.515 123.82L224.703 126.491L225.416 130.362L226.817 131.869L227.666 133.809L229.24 135.341L230.893 135.502L226.513 137.62L224.837 139.138L222.69 140.397L218.444 139.136L213.147 136.012L209.806 134.346L208.29 133.887L205.252 134.077L202.302 135.952L199.715 137.852L197.446 138.498L193.859 138.525L191.231 137.444L189.943 133.398L188.916 130.842L187.358 130.31L184.262 131.274L183.143 132.185L181.432 134.961L181.077 136.633L180.281 137.565L178.042 137.208L176.25 136.471L175.573 136.563L176.354 139.16L176.489 140.61L176.052 144.033L175.494 146.126L174.434 152.355L173.721 153.657L172.681 153.942L168.267 154.452L164.562 153.764L161.997 157.039L159.225 158.012L156.486 157.861L150.009 156.297L147.246 155.837L144.609 155.106L140.546 155.116L138.979 155.479L133.071 154.958L128.157 155.464L126.247 154.873L125.748 155.153L126.657 157.462L126.327 159.384L126.128 162.44L125.719 163.403L124.162 164.919L120.503 166.463L119.245 167.714L119.167 169.817L116.417 171.634L111.993 175.362L109.709 176.43L106.009 176.663L104.081 176.247L103.189 174.845L100.665 172.187L99.1525 168.474L97.3339 166.548L95.9175 166.367L93.2501 167.931L91.5045 168.013L81.7493 167.142L78.2777 166.54L73.5784 166.086L70.0413 166.086L66.5286 165.708L63.7479 165.162L60.0734 164.801L59.0988 165.156L57.5823 163.67L56.063 163.16L51.9395 160.522L49.2902 160.159L46.3674 158.661L44.4502 158.013L40.7933 157.335L38.4269 156.657L36.234 155.58L33.1301 154.85L29.5409 151.893L27.8787 147.806L27.344 147.223L25.3886 148.005L22.7882 151.468L19.1924 154.362L17.2206 154.986L13.3973 153.542L11.0434 151.836L7.7635 149.044L4.77899 145.185L3.45703 142.913L3.74213 141.234L5.20722 140.502L8.88498 140.313L12.6336 139.279L13.3785 138.638L15.8757 134.797L15.6904 132.17L15.8139 127.789L16.3328 124.756L16.452 122.752L15.8672 117.882L15.8397 114.041L16.229 112.53L17.6909 111.243L19.5325 110.362L23.5025 109.666L29.1192 110.313L32.773 109.194L34.6964 108.064L38.3254 105.432L40.3535 104.141L44.7729 101.727L49.3636 100.216L53.1096 99.6756L56.0077 99.0322L57.6719 98.1142L59.1766 92.6145L59.4057 91.1369L61.0204 89.5814L62.3742 86.4772L62.654 83.649L64.5656 79.4341L64.4242 78.4768L63.3045 76.5246L62.9795 75.1765L63.7015 73.1063L65.4692 70.8034L65.5419 69.733L63.7096 66.5069L62.3178 62.7085L60.8995 60.7183L60.1545 59.0527L60.0159 57.1656L60.9559 55.5917L62.9059 54.4632L64.3486 52.6401L65.1428 50.8613L67.0793 49.3182L68.7193 47.5769L70.7564 46.3251L73.8071 45.1328L76.6982 43.361L77.3139 42.6276L78.5108 39.1703L78.8539 37.3373L78.2695 35.3786L74.5532 31.6717L72.3293 29.7206L70.6988 27.1937L68.5805 25.574L65.5807 21.8061L65.5391 20.6707L66.3041 19.7131L68.1972 19.3976L70.8216 19.3206L72.9302 18.2086L74.0685 16.6338L74.9605 14.5227L77.1867 11.5337L77.9496 12.2069L78.9925 12.1889L82.2561 11.2533L83.5279 10.6791L86.4367 10.5613L89.9805 9.99642L91.6284 9.2257L92.7106 7.83761L94.1505 4.9657L94.4507 3.59941L96.0125 2.99237L97.8814 3.44493L101.309 2.68719L103.791 2.60156L104.989 6.04179L105.942 7.88152L107.847 9.3331L110.567 10.336L114.128 8.21972L118.89 10.1566L119.39 10.769L119.823 12.9321L121.409 16.8056L120.25 19.4606L120.261 20.4418L121.413 22.9588L123.301 23.9444L125.862 24.1972L126.795 24.6014L127.893 25.906L129.809 29.9955L131.248 31.2355L131.803 32.5371L134.534 34.6461L138.428 34.7215L140.424 34.2542L141.372 34.4212L144.663 37.7525L148.507 38.321L151.818 37.4649L154.264 37.9888L158.349 38.3339L161.86 38.0183L164.391 36.8918L165.362 37.1423L167.864 40.0296L168.715 40.6068L172.492 42.0073L174.078 41.5003L176.092 42.3733L177.14 43.2617L182.441 45.9958L184.505 46.5343L185.236 45.8651L186.515 43.4774L187.44 42.2381L188.812 41.3834L190.33 42.9255L191.944 43.5804L193.158 42.3403L194.911 43.2494L195.377 40.925L195.998 40.0274L197.049 40.1181L199.718 41.8796L202.856 42.5698L205.291 41.7951L206.717 41.7732L207.851 42.2644L209.248 43.7904L210.287 43.7012L211.887 41.8911L214.486 42.0804L216.527 42.5805L218.935 42.5761L223.949 44.7927L225.747 44.6703L226.727 45.9549L228.306 47.0976L230.262 51.981L231.453 53.5483L232.247 55.1596L233.599 56.8237Z" fill="#1E1E1E" stroke="white" stroke-width="5"/>
</svg>
