<svg width="307" height="220" viewBox="0 0 307 220" fill="none" xmlns="http://www.w3.org/2000/svg">
<path d="M277.833 214.606L277.481 215.361L276.244 216.06L274.408 215.706L273.887 214.922L276.771 213.911L277.833 214.606ZM279.623 212.108L278.995 212.806L279.973 214.402L278.81 214.623L277.84 212.726L278.999 211.819L279.623 212.108ZM256.076 194.449L257.154 195.395L256.071 197.338L257.613 199.09L258.702 198.228L259.288 198.875L258.839 200.729L259.349 202.147L259.409 203.601L259.018 205.443L258.499 205.638L258.467 207.747L260.07 209.699L260.855 209.89L262.574 209.251L263.85 209.822L265.62 209.329L266.042 210.278L267.453 211.156L268.716 211.258L269.114 212.356L270.682 212.979L271.5 213.965L270.87 214.947L268.743 215.541L266.174 214.964L263.989 213.907L263.073 214.775L262.587 213.282L261.796 213.709L259.434 213.001L257.984 213.174L255.623 211.331L256.62 209.791L255.576 208.387L254.287 207.931L252.834 206.565L251.707 207.204L251.142 208.592L247.81 205.978L246.298 206.626L245.092 205.789L245.255 204.399L243.346 205.065L242.499 204.64L242.129 203.633L240.335 203.035L239.396 201.319L240.73 201.312L242.176 199.737L244.243 198.813L246.376 197.529L247.805 197.172L248.601 197.523L251.1 197.149L251.241 196.25L255.553 193.803L256.076 194.449ZM261.009 73.9617L262.387 73.9406L262.886 74.684L261.985 75.9062L260.133 74.5861L261.009 73.9617ZM203.02 20.584L201.346 20.7336L200.756 18.9812L203.02 20.584ZM179.885 8.50517L181.043 9.06277L181.812 10.2079L183.511 11.9113L183.951 14.356L185.761 15.8331L186.514 17.4332L189.343 19.8863L189.726 21.5618L189.506 25.4557L189.597 29.4862L189.871 31.7169L191.421 35.1517L192.674 35.5721L193.597 34.9004L194.92 35.3293L196.571 33.8636L197.993 35.4423L196.619 35.62L197.258 37.5552L197.304 38.8996L198.542 39.7035L200.179 42.3345L202.821 42.2429L203.604 41.7492L204.667 42.7968L208.056 42.3663L209.173 44.4095L209.427 45.559L209.183 47.007L210.212 49.8228L211.036 50.4076L213.198 55.2381L214.922 57.0399L216.26 57.5952L220.661 56.1511L221.708 56.9732L223.945 56.2914L224.024 55.3157L227.006 55.8L228.218 57.4402L229.522 57.8587L230.965 57.6963L232.029 56.7335L234.323 59.116L236.441 59.4505L237.967 60.1836L239.099 59.8989L239.408 57.3553L239.004 55.6423L240.358 56.2956L241.602 56.4056L242.797 57.3709L243.523 58.5544L244.544 58.4902L246.174 59.192L244.387 60.3213L244.584 61.2737L244.089 63.5343L245.07 65.0607L247.068 65.7937L247.247 66.9148L249.264 68.5689L250.823 68.3213L250.807 69.3054L251.512 70.7579L255.105 70.5712L257.656 72.3454L255.827 73.1195L256.296 75.1016L253.892 76.2653L253.535 77.902L252.279 77.3569L251.538 77.7438L251.526 78.8224L250.403 78.772L248.88 79.5575L248.293 78.9403L247.144 80.8354L246.482 80.161L245.619 81.1862L241.96 81.7742L239.649 80.7101L239.551 81.9032L235.442 81.9947L233.496 81.3252L232.197 81.5359L230.645 81.2122L229.299 81.5174L227.834 81.1793L225.365 81.4122L224.24 80.962L221.442 81.353L218.7 81.9614L215.643 81.7439L213.199 83.0645L212.591 84.602L211.867 87.9933L210.578 89.1231L210.085 92.4912L210.605 94.3525L210.095 97.5175L209.204 99.2244L208.906 101.831L209.302 106.139L210.844 113.874L211.475 115.472L212.392 119.441L214.871 125.924L217.442 131.018L218.541 131.777L220.556 131.867L221.64 131.01L222.701 133.46L224.603 135.228L224.153 137.26L223.388 137.907L225.512 141.857L226.016 142.111L227.503 144.48L228.953 145.909L235.749 153.854L239.411 157.383L242.312 159.888L244.068 160.95L247.101 161.573L249.502 161.373L251.033 162.578L251.724 162.6L253.66 164.132L256.823 166.12L261.251 168.685L263.613 168.952L267.216 168.266L268.296 168.969L270.934 169.846L272.402 169.739L273.175 169.006L274.18 169.784L275.361 168.956L276.77 169.039L277.859 168.263L279.041 170.903L279.996 171.498L282.572 171.64L284.872 171.181L285.698 170.294L287.885 170.228L292.325 169.255L296.652 167.693L299.024 166.351L301.564 164.126L301.522 165.052L299.446 170.245L299.393 172.382L300.173 175.283L300.622 177.763L299.992 180.206L299.203 181.768L299.008 183.278L300.384 187.038L301.777 189.744L302.075 192.136L303.789 199.108L303.468 200.682L300.669 205.29L299.356 209L297.712 211.346L296.364 211.012L294.491 209.415L293.904 208.374L291.433 206.045L289.199 205.774L286.772 204.827L285.89 202.216L284.604 200.926L283.284 200.116L282.618 197.751L281.837 197.09L280.395 193.583L278.786 191.198L277.772 190.283L275.282 189.068L273.955 187.77L270.956 186.336L267.137 184.021L265.943 183.807L264.332 182.675L260.54 181.033L256.294 179.392L253.152 179.492L249.195 178.919L245.23 181.598L243.762 182.366L241.833 182.005L240.118 180.205L237.582 178.801L235.68 178.009L229.145 176.156L224.884 175.974L219.567 177.511L217.014 178.728L216.332 178.415L212.691 179.861L211.016 181.297L207.217 183.734L204.876 184.457L203.248 185.264L200.809 187.415L192.288 195.76L190.575 197.243L189.766 196.332L186.542 194.584L184.32 192.787L183.033 191.12L180.687 191.856L178.816 190.679L176.577 190.162L176.088 189.491L174.117 188.527L172.713 188.296L170.745 187.403L170.175 186.59L167.878 186.25L166.975 186.828L164.214 189.995L163.89 191.841L162.957 194.319L164.268 195.101L164.515 196.488L163.863 197.494L163.717 199.228L162.276 200.165L161.221 199.694L160.809 197.953L159.767 197.744L159.323 198.864L158.222 199.208L156.084 198.463L154.317 198.8L153.378 199.607L152.137 198.318L149.631 194.576L148.473 193.467L147.706 191.739L147.324 189.426L147.198 185.799L147.623 181.964L147.684 178.914L148.918 176.041L151.305 172.588L150.863 171.374L148.151 172.484L143.667 172.941L140.365 172.34L137.812 172.129L134.656 172.765L131.697 172.272L129.759 171.316L125.97 168.73L122.183 169.429L121.092 168.463L120.986 167.242L121.599 164.814L119.386 163.701L117.969 162.717L114.578 162.82L113.362 163.801L112.615 165.011L111.573 164.744L109.488 165.191L108.234 167.264L107.605 167.021L106.45 163.831L106.362 162.289L108.172 161.981L108.534 161.255L108.252 159.715L109.215 159.153L108.789 157.598L110.066 155.333L109.217 153.388L107.561 153.687L106.832 151.756L110.425 150.857L111.43 149.991L110.661 148.175L109.456 143.889L107.809 140.277L108.273 137.383L107.555 136.036L104.994 133.249L103.48 130.873L102.358 130.183L100.998 128.412L99.3489 124.881L97.385 123.915L95.1033 124.148L93.2808 124.028L90.6631 123.197L88.5218 121.817L86.82 121.419L85.0507 120.292L82.9479 116.302L82.0311 116.038L77.5758 116.667L76.5613 116.643L69.7061 115.769L68.5134 115.884L68.2339 114.77L68.9993 112.709L69.0163 108.498L68.7667 106.603L68.8958 104.471L69.5421 101.409L70.2781 99.9119L70.804 97.0454L70.7657 95.8384L68.2021 93.9639L67.2634 91.8347L66.6164 91.4033L65.6487 88.0156L66.2386 85.9813L66.1476 84.7717L65.2614 83.9297L64.4236 80.4612L63.7454 79.1861L61.0249 76.2371L59.4329 73.6941L58.2449 73.4575L55.4259 74.9321L53.5941 75.4172L52.7664 76.1199L51.0749 75.852L50.3401 75.3413L45.0109 75.1631L42.608 72.8629L40.6051 72.7345L39.926 71.148L38.9423 70.9908L38.9012 69.6379L37.429 69.1833L36.9624 67.7186L35.3583 65.4997L34.7387 63.2149L33.2853 62.3026L32.2995 61.0642L30.5868 60.1278L29.6888 58.3912L28.3877 54.8806L28.3589 53.1786L27.8403 49.8176L27.1324 47.9339L25.7607 46.5579L23.0655 46.4176L21.7642 48.0737L21.8905 49.9638L20.8063 52.2392L20.4237 54.8621L19.192 56.5035L17.936 56.7004L18.4712 58.6823L20.1374 61.6038L18.9483 64.3148L19.3606 66.8868L18.656 67.5894L15.1101 67.5494L14.4417 67.7197L10.5598 70.2398L9.46749 69.7521L7.82699 69.7087L6.82705 69.1004L3.625 68.5442L3.88503 67.1807L3.70928 64.2267L4.11185 62.2988L5.79878 60.2848L6.68496 58.4823L6.56099 55.488L5.97546 52.8944L6.19834 51.5112L7.13049 49.7885L7.59065 47.9173L8.77191 45.7325L6.90158 41.2537L7.20595 39.5294L8.0912 38.159L9.06584 37.8035L12.7403 38.1653L15.521 38.7107L19.0337 39.0884L22.5708 39.0887L27.2701 39.5426L30.7417 40.1447L40.4969 41.0155L42.2425 40.9336L44.9099 39.3703L46.3264 39.5509L48.1449 41.4771L49.657 45.1902L52.1809 47.8478L53.0734 49.2502L55.0017 49.6656L58.7013 49.4333L60.9859 48.3652L65.4091 44.6366L68.1591 42.8198L68.2371 40.7167L69.4952 39.4657L73.1542 37.9218L74.7111 36.4062L75.12 35.4429L75.3199 32.3867L75.6493 30.4654L74.7401 28.1557L75.2395 27.8758L77.1498 28.4667L82.0636 27.9614L87.9718 28.4817L89.5385 28.1194L93.6016 28.1087L96.2386 28.8401L99.0016 29.2995L105.479 30.8637L108.218 31.0147L110.989 30.0415L113.555 26.7665L117.26 27.4547L121.674 26.9445L122.714 26.6599L123.427 25.3583L124.487 19.1292L125.045 17.0358L125.482 13.6127L125.347 12.1628L124.566 9.56555L125.242 9.47417L127.035 10.2109L129.273 10.5683L130.07 9.63551L130.424 7.96347L132.135 5.18774L133.254 4.27666L136.35 3.3125L137.908 3.84451L138.935 6.40106L140.224 10.4472L142.851 11.5276L146.438 11.5007L148.707 10.855L151.294 8.95526L154.245 7.08025L157.282 6.89006L158.798 7.34863L162.139 9.01446L167.436 12.1394L171.682 13.3999L173.829 12.1407L175.505 10.6227L179.885 8.50517Z" fill="#1E1E1E" stroke="white" stroke-width="5"/>
</svg>
