<svg width="207" height="223" viewBox="0 0 207 223" fill="none" xmlns="http://www.w3.org/2000/svg">
<path d="M8.72319 91.3467L10.3665 89.0008L11.6798 85.2905L14.4791 80.682L14.8002 79.1085L13.0854 72.1364L12.7877 69.7447L11.3945 67.0382L10.0187 63.2789L10.2137 61.7684L11.0026 60.2064L11.6329 57.7634L11.1837 55.283L10.4043 52.382L10.4566 50.245L12.5326 45.0528L12.5748 44.126L12.9902 41.8144L12.0954 40.6642L11.4776 39.0964L11.6053 38.3383L10.2553 36.4586L8.95443 33.2172L9.21121 32.196L7.59625 30.0217L6.54245 28.0563L6.17168 24.9666L5.68389 24.2686L6.50391 22.9354L6.20836 22.0029L6.81269 19.7971L5.80346 18.8646L5.23395 16.0553L8.09379 15.2227L8.39584 13.9153L8.03551 12.9626L6.65435 12.9226L5.31591 12.0387L4.54651 12.9427L3.55469 11.9644L4.43878 10.5511L3.88158 9.8731L4.69207 8.90039L5.69643 9.24941L7.81449 8.88313L8.00603 7.26681L7.10986 6.66031L8.87666 5.57327L9.37767 4.64636L10.2829 4.87531L11.316 3.95703L12.9168 5.10153L12.5068 7.12978L13.3155 8.2742L12.4938 10.6314L14.1733 12.8459L15.3191 13.7329L17.5035 14.4944L17.2639 16.7286L18.1958 18.0391L17.865 19.9672L16.9635 21.1885L17.8439 22.9224L19.0962 24.4132L19.2106 25.9638L18.8211 27.0079L20.2468 30.1352L21.0596 29.1971L22.6616 29.6811L22.7424 31.3003L21.7192 32.0924L21.8762 32.9737L23.7263 33.8754L23.1723 35.1483L24.1899 38.041L27.0672 38.065L28.7033 38.9642L28.4472 41.2841L30.611 41.9318L31.2994 44.9017L30.9801 45.6139L33.4327 46.6824L34.1118 49.8125L35.6432 50.7118L36.3984 50.6265L37.6821 53.6399L38.3693 54.4699L39.9385 57.7039L41.3789 58.3115L42.4747 58.2151L44.0377 59.3378L45.5927 58.6211L46.7348 58.5334L46.96 59.3576L48.684 59.179L50.4188 58.517L54.0905 58.8727L54.767 60.6586L55.9732 61.9129L57.2461 62.1089L59.6047 61.8829L61.0945 62.7543L62.3083 62.8589L63.3368 62.0477L65.5721 62.5427L66.1873 61.0159L66.7726 60.7506L69.1498 61.9326L70.4838 61.946L71.3644 63.0716L74.2693 65.3303L74.6252 66.5096L75.7492 66.806L78.0996 66.8727L80.8294 65.8903L82.6561 64.2657L83.1128 62.9476L86.5099 64.9305L87.4576 66.3713L90.2431 68.4249L93.324 69.1747L96.347 69.4841L97.4201 69.884L97.8394 71.1093L100.881 72.9696L102.165 75.9162L101.874 77.1829L100.542 76.8081L100.206 78.5725L100.413 79.4656L99.6691 81.8099L98.9986 82.6581L100.154 85.5472L103.52 88.4841L105.486 89.2609L107.398 89.4742L108.4 90.2375L111.462 91.0515L111.794 89.9109L112.903 89.0295L114.655 89.3543L115.612 88.7902L118.629 89.1469L122.006 90.7063L123.266 90.9214L127.076 94.4706L128.469 94.7435L129.033 95.5861L129.669 99.6618L130.853 100.292L130.84 102.643L132.128 104.249L135.096 105.517L135.851 106.497L137.608 107.781L138.373 107.595L139.397 108.325L138.326 108.999L137.765 111.901L137.127 113.052L137.725 113.91L137.716 115.128L139.268 115.213L139.863 115.833L140.062 117.613L141.825 120.445L143.036 121.018L143.164 123.116L143.948 123.129L143.386 124.873L142.758 125.477L143.148 127.267L144.481 127.929L144.907 130.356L146.41 132.329L146.893 134.047L147.644 134.313L148.564 135.91L149.988 135.883L150.856 137.33L152.494 138.609L152.758 139.397L155.088 139.284L155.734 140.657L156.378 140.479L157.478 141.85L157.088 142.656L159.026 143.189L161.864 146.065L163.397 146.68L164.035 147.967L167.887 149.792L169.59 151.321L169.836 152.12L171.719 153.369L172.771 155.819L173.749 156.18L174.009 157.374L173.446 158.828L174.249 159.953L176.597 160.542L177.673 159.943L178.345 160.435L178.42 161.746L179.959 163.045L181.135 163.479L183.694 163.558L184.932 164.942L186.55 165.729L190.681 168.384L190.375 169.982L194.337 173.424L195.927 176.057L196.497 177.599L196.461 178.7L197.274 179.307L196.328 180.176L196.503 181.238L198.091 181.677L197.92 182.846L199.045 183.672L199.306 185.078L200.901 188.041L200.477 191.051L202.309 192.072L201.414 194.08L201.463 195.333L202.319 196.347L201.792 197.386L201.758 200.372L202.985 201.013L202.176 202.354L199.249 204.006L196.717 202.999L195.703 203.398L195.208 204.489L193.458 205.179L192.974 205.947L190.584 207.041L189.307 206.792L189.057 205.873L187.664 205.601L186.845 206.613L185.656 206.591L183.29 208.375L183.755 209.341L180.994 210.809L179.801 209.506L178.81 210.715L177.3 211.012L176.253 210.281L174.298 210.503L173.829 211.19L171.881 211.764L172.166 212.383L169.479 214.598L167.621 215.143L164.672 214.815L163.004 216.983L160.532 218.302L159.22 217.379L157.137 219.011L156.193 217.938L154.69 217.464L153.448 215.617L152.719 213.852L151.006 213.105L150.398 212.151L150.207 210.496L148.928 210.358L149.092 208.845L150.239 206.259L149.701 203.58L149.883 200.788L148.598 198.395L146.323 194.986L146.249 192.431L144.777 189.98L144.314 188.271L141.964 185.975L141.289 184.456L136.531 182.591L134.391 179.944L133.517 178.019L132.541 177.383L132.365 176.004L130.255 176.107L129.677 175.387L129.25 173.735L127.713 173.004L122.262 172.672L120.602 172.055L119.528 171.262L117.671 168.712L115.962 167.056L114.586 164.913L114.155 162.578L114.388 159.995L115.332 158.449L115.837 156.7L115.578 155.592L116.237 154.586L116.074 152.964L114.464 150.897L114.18 149.898L112.331 148.354L110.882 146.623L109.226 145.663L108.453 144.171L107.599 143.6L106.085 141.825L105.326 141.509L104.527 139.63L102.948 139.521L101.984 138.955L99.4947 134.744L97.942 133.491L96.3486 129.766L95.3197 128.158L94.3033 127.556L93.07 125.765L92.7134 124.448L91.5525 122.455L90.9944 120.714L90.0465 120.075L89.3507 117.933L87.5138 114.955L87.2493 114.113L85.5728 112.445L84.0765 112.233L83.9321 111.309L81.5036 110.821L80.5265 110.179L79.2941 110.337L77.1377 109.921L71.5722 109.953L70.1254 109.118L69.8749 108.491L67.3108 107.804L64.1835 107.74L62.0399 107.439L59.6096 107.737L58.2463 107.586L55.9049 108.03L52.5095 109.019L50.1838 108.922L48.7337 107.908L47.7807 107.804L45.7859 108.297L45.3566 106.852L44.2819 106.711L40.8305 104.871L39.2262 105.245L38.49 104.569L35.6181 104.207L33.4316 104.603L31.2766 105.589L30.194 105.723L26.4759 105.06L22.0702 102.321L19.9592 100.724L18.9327 100.738L15.3225 98.4138L13.3301 94.6657L11.2006 92.6256L8.72319 91.3467Z" fill="#1E1E1E" stroke="white" stroke-width="5"/>
</svg>
