<svg width="503" height="412" viewBox="0 0 503 412" fill="none" xmlns="http://www.w3.org/2000/svg">
<path d="M395.221 353.943L395.372 355.224L394.519 355.912L393.614 354.561L394.219 353.078L395.221 353.943ZM355.813 327.083L358.062 327.374L358.708 328.199L358.038 330.344L356.873 331.22L355.817 331.341L353.141 330.416L352.211 331.28L351.282 328.648L352.116 328.563L352.858 326.949L355.813 327.083ZM387.833 226.732L386.431 227.047L385.704 225.441L387.833 226.732ZM384.336 225.794L384.75 226.731L384.042 229.093L385.996 230.17L385.04 231.099L385.933 231.738L385.289 232.958L384.177 233.976L385.44 234.883L385.219 237.258L388.17 238.827L388.547 239.971L386.275 240.752L385.21 240.088L385.11 239.324L384.052 238.585L383.247 238.885L382.633 237.387L380.832 237.529L378.899 238.201L378.668 238.891L376.842 235.983L377.83 235.823L378.752 234.796L378.795 233.532L378.096 232.961L378.098 231.725L377.594 229.547L376.951 229.116L376.393 225.628L378.889 226.425L379.803 226.222L382.017 227.084L382.056 228.803L383.013 228.286L383.375 227.143L383.065 226.197L380.181 224.119L379.827 222.912L381.423 222.74L384.336 225.794ZM378.57 223.064L377.609 222.841L377.246 221.48L378.888 221.195L378.57 223.064ZM345.384 156.612L344.761 157.996L345.868 159.148L345.874 160.489L343.972 161.154L343.354 163.382L341.834 164.417L341.669 165.865L342.141 167.254L340.542 171.625L340.44 173.15L339.803 175.841L340.605 177.578L339.487 185.023L339.785 187.479L340.977 188.514L340.998 190.977L341.537 192.803L342.944 193.522L343.671 195.848L344.447 196.67L344.821 198.74L345.382 199.239L345.452 200.657L346.033 202.807L347.497 204.793L349.626 205.347L351.83 208.001L353.793 208.04L353.613 209.979L354.062 211.862L355.307 214.43L357.519 217.516L358.317 217.613L358.478 219.249L360.498 222.053L362.885 221.785L361.655 218.811L363.02 218.32L363.427 217.564L365.008 217.445L366.303 218.277L365.535 219.752L364.922 222.148L366.226 223.406L365.577 224.058L366.199 225.175L368.906 224.566L370.275 224.608L369.914 221.908L370.334 220.772L371.09 220.81L372.165 222.088L371.374 223.75L371.283 225.249L372.326 226.883L371.74 228.67L372.155 230.019L371.037 230.643L371.268 233.652L373.637 235.614L374.003 236.76L373.61 237.642L374.165 238.731L376.45 238.853L376.487 241.317L377.669 243.256L378.492 245.577L379.109 246.291L380.411 246.699L381.253 247.767L382.451 247.741L383.904 248.422L386.925 248.852L388.67 248.007L391.12 248.173L392.142 247.464L392.756 245.363L392.292 243.793L397.282 246.887L398.723 247.178L399.866 248.97L400.455 251.054L401.556 252.465L407.027 254.952L408.554 254.669L409.968 255.293L414.749 256.454L417.04 257.996L418.471 257.61L420.06 258.368L421.527 258.329L422.073 259.143L423.278 258.907L424.167 259.795L425.589 259.673L427.693 260.451L428.231 261.506L429.71 260.889L432.167 261.343L432.967 261.989L433.487 263.542L435.72 264.56L437.128 265.529L437.331 266.235L439.866 265.995L442.637 266.555L443.955 267.415L446.595 267.381L447.188 269.918L448.512 270.234L449.842 271.575L450.803 273.414L452.393 273.618L453.408 274.375L454.375 275.808L454.247 277.307L454.93 277.636L456.167 279.915L458.565 280.434L459.64 281.435L461.05 281.336L461.985 282.506L464.186 282.748L466.877 284.537L468.435 284.94L468.425 285.65L470.995 286.183L471.574 286.981L473.795 287.395L474.483 286.854L476.898 287.821L477.412 289.237L478.493 290.598L478.768 293.19L479.867 293.602L480.069 294.395L481.782 294.686L484.224 295.636L484.94 296.477L484.473 298.016L486.405 298.628L486.76 299.893L485.12 299.732L484.019 300.748L482.676 300.222L482.7 302.265L482.042 302.72L481.13 302.01L479.378 303.418L479.013 304.626L479.442 305.458L478.84 306.439L478.199 310.414L478.302 315.157L479.523 318.438L480.432 318.947L481.341 320.278L482.679 319.897L484.21 321.327L485.719 321.788L486.58 322.906L487.144 324.368L488.765 325.856L489.44 327.584L490.278 327.784L490.148 328.98L491.718 329.999L492.008 331.406L491.149 332.757L492.1 333.481L492.042 334.402L488.692 333.904L487.707 334.897L486.775 336.576L485.558 336.548L484.41 335.558L483.574 336.096L482.56 337.996L481.803 337.721L481.292 339.146L481.298 340.894L481.757 342.928L483.257 345.308L484.454 345.151L486.65 345.525L486.962 344.836L488.977 344.229L489.567 345.445L490.436 345.05L492.926 346.467L493.199 345.737L495.198 343.761L496.242 344.307L495.901 346.296L497.337 346.236L497.101 347.206L497.874 349.188L497.115 349.938L496.627 351.777L496.775 352.667L498.443 353.589L498.712 356.089L499.152 356.973L496.709 358.824L497.743 360.555L498.538 362.567L497.809 362.795L496.554 364.784L495.179 365.888L493.973 368.471L492.746 368.98L491.195 368.868L489.565 367.707L488.557 367.446L488.064 368.502L488.803 370.038L486.704 369.572L486.101 371.832L488.104 375.017L487.15 375.383L486.311 373.56L484.799 374.196L484.086 373.455L483.029 374.613L483.2 375.97L482.174 376.485L481.919 378.553L483.289 380.19L484.444 380.604L485.028 382.292L486.033 382.278L486.62 383.13L487.907 383.491L488.41 385.216L488.178 386.507L486.87 386.987L485.483 386.83L484.179 387.608L483.897 388.647L482.645 388.281L481.063 388.925L479.333 389.237L478.814 389.815L476.921 389.607L472.215 390.257L471.824 390.924L472.517 391.882L474.723 392.643L477.083 392.968L477.118 394.839L478.48 395.237L480.858 393.811L482.389 394.409L483.664 394.034L483.938 395.393L485.418 395.267L485.825 397.793L484.625 398.208L483.498 399.587L484.098 400.901L482.76 400.875L482.451 399.879L481.222 400.217L480.71 401.256L477.2 402.269L476.445 401.4L472.37 401.524L469.601 401.105L468.449 401.231L466.93 402.462L467.669 403.452L465.396 403.192L463.953 403.743L463.593 406.049L462.596 407.263L460.48 407.433L458.885 406.404L457.04 405.987L455.377 406.435L454.826 407.869L453.857 408.344L453.027 407.747L454.494 406.533L454.367 405.437L456.103 404.852L455.733 403.588L455.954 402.031L455.422 401.428L453.878 402.202L452.423 401.319L448.275 400.908L448.855 397.359L447.389 394.093L450.391 393.31L452.401 393.583L451.635 390.316L449.45 388.072L448.182 386.368L447.161 386.821L447.418 388.162L448.626 390.03L448.87 391.234L446.664 392.603L444.32 391.536L443.334 392.04L443.721 393.568L442.555 393.904L440.409 392.959L440.772 390.964L439.599 387.078L439.704 385.759L438.935 383.399L439.815 382.033L440.631 382.424L441.604 380.81L440.85 377.964L440.136 376.772L436.585 374.02L435.217 373.301L435.403 371.358L433.641 370.84L432.536 371.082L427.1 370.399L423.502 367.881L424.326 366.816L424.412 364.387L423.349 362.949L422.192 363.157L421.181 361.196L420.234 360.09L417.856 358.137L413.919 357.643L412.988 356.085L410.365 354.645L409.031 352.831L407.212 352.963L405.744 353.913L404.471 354.207L405.193 355.562L404.488 357.288L402.684 357.114L401.741 359.102L404.088 360.273L405.327 362.883L403.35 363.862L401.367 364.309L402.242 362.817L401.709 361.88L401.849 360.678L399.763 360.184L401.805 357.957L402.075 356.377L401.83 355.305L400.867 355.55L398.933 353.197L398.014 353.147L397.32 352.313L397.289 349.936L395.986 349.409L395.811 348.211L396.827 346.792L395.031 344.914L395.804 343.75L397.087 343.479L396.402 342.393L397.072 341.29L396.503 340.024L395.401 339.872L395.228 339L394.024 337.778L394.198 337.068L393.082 336.1L391.49 336.361L389.467 333.679L386.58 332.576L387.583 331.816L386.636 329.071L385.222 328.671L385.046 327.524L384.077 326.665L383.714 325.385L384.839 324.996L385.912 323.634L385.548 322.451L384.512 321.972L386.235 319.783L386.809 315.939L386.802 311.891L386.144 310.342L384.735 310.474L383.936 309.823L382.85 307.617L381.585 307.678L381.678 308.59L379.297 307.623L378.249 307.674L377.503 306.835L378.436 305.179L378.986 302.002L378.874 300.16L377.734 299.199L378.527 297.849L378.189 294.775L377.699 293.428L376.641 292.312L374.677 291.339L374.528 290.307L373.682 289.679L373.613 288.59L372.095 286.03L370.038 284.047L368.502 283.711L364.331 282.024L363.983 280.717L362.458 280.224L361.891 278.566L360.307 277.987L358.131 277.716L358.581 275.103L357.349 273.473L357.223 271.831L355.847 267.687L355.156 264.136L354.387 262.27L352.819 260.141L351.808 259.626L351.431 258.234L350.312 257.954L350.043 256.364L347.958 254.783L347.279 252.771L345.231 251.505L343.246 249.612L342.682 248.472L340.867 246.356L340.133 246.172L337.21 247.249L335.319 247.082L335.676 245.864L333.836 243.502L332.268 243.634L331.996 242.565L332.305 240.389L332.074 238.754L331.102 236.809L328.99 234.167L327.55 233.183L326.089 231.02L323.849 229.598L323.022 228.637L319.648 225.886L318.572 225.347L315.225 225.194L312.083 224.786L310.502 224.879L309.191 224.335L305.124 223.657L303.103 223.15L299.962 222.947L297.231 223.814L293.09 223.91L289.433 224.347L286.456 225.182L284.952 224.806L284.25 223.925L281.578 223.62L280.716 222.729L277.964 221.223L276.764 220.988L275.837 219.88L273.581 219.448L272.612 218.757L270.062 218.098L267.42 218.612L266.15 219.414L263.899 219.563L261.588 218.13L258.847 217.312L254.538 214.941L252.53 211.847L250.908 209.989L248.209 208.764L245.82 206.709L243.469 203.967L241.509 203.438L240.124 203.852L238.834 202.961L237.465 202.74L233.493 203.198L232.108 202.775L230.79 201.764L228.817 201.433L225.426 201.187L224.404 199.76L223.336 199.334L221.802 199.604L219.552 198.337L219.041 197.198L216.971 196.573L215.217 197.028L213.844 195.569L211.708 194.541L210.316 192.253L206.651 191.458L204.288 191.651L202.373 191.017L200.5 191.207L199.069 190.636L196.991 190.395L193.246 192.38L192.407 193.076L191.288 193.166L187.489 196.74L185.512 199.011L184.205 200.934L181.852 203.577L179.841 206.907L177.182 208.746L176.29 209.679L174.376 212.554L171.996 215.306L170.203 217.986L167.513 222.637L164.254 230.088L163.018 234.832L163.064 236.517L162.692 237.882L163.281 242.649L158.535 243.046L158.04 242.886L157.364 238.122L156.367 234.611L155.978 231.519L154.735 228.247L152.762 225.542L149.743 222.069L145.853 219.024L142.874 217.197L141.389 216.728L139.027 216.644L137.343 215.923L136.365 216.019L132.771 213.877L129.47 212.225L127.22 211.337L120.942 209.456L120.494 209.197L117.002 209.164L115.417 209.761L113.243 207.769L107.976 205.22L104.657 204.574L102.673 204.492L97.0537 204.731L95.8867 203.949L95.3288 202.478L94.6363 201.804L92.138 200.413L90.9389 198.253L89.4704 197.091L87.5806 196.193L83.5641 195.006L81.0796 194.677L76.8208 194.68L74.34 194.246L72.9529 194.343L70.0128 193.421L68.575 192.088L65.9806 187.899L63.7406 185.366L60.7285 183.147L59.3345 182.918L59.091 182.257L57.2374 181.222L53.6921 180.062L50.9519 177.947L46.0896 177.553L42.5867 176.244L41.6294 174.512L35.9245 172.4L33.839 171.349L30.2221 170.998L28.374 169.725L27.5329 169.765L25.2994 169.114L22.7878 167.556L20.6084 165.615L16.0806 164.196L14.1904 163.436L10.5457 161.502L11.3572 156.976L11.3892 155.745L10.1042 153.863L9.24807 151.538L7.05235 147.5L4.94531 145.967L7.0275 144.611L9.95362 143.082L14.5375 141.087L15.1465 141.217L16.3035 143.39L17.6257 144.44L20.4029 144.235L22.3004 143.402L22.8242 141.789L22.5048 137.055L22.2773 135.658L20.7585 133.821L20.239 131.767L18.0156 130.455L15.7886 130.256L14.8414 129.732L15.5289 127.956L15.0281 124.695L15.3594 120.434L15.8299 118.507L18.2142 117.966L20.4417 117.109L23.3349 115.559L25.206 115.553L25.2533 113.793L25.8624 112.622L25.5543 111.75L26.4359 108.808L28.1859 104.127L29.0317 103.46L31.9695 102.81L32.0132 100.876L31.3723 97.2497L30.4222 95.3088L31.345 94.9786L33.1118 96.2244L34.6318 96.7605L37.901 96.712L39.8256 97.7961L41.799 98.4651L42.4945 99.6223L40.0476 99.4845L38.1737 99.6528L36.3015 99.372L35.6961 99.6873L37.1144 103.492L38.5261 106.475L41.1272 110.241L42.1321 112.608L43.7386 115.547L45.7565 118.029L45.5149 120.197L43.9354 122.694L44.6645 123.825L46.2096 123.454L48.0205 122.025L49.5726 121.701L53.3523 121.848L54.1576 122.51L54.7797 124.569L54.7036 126.132L55.0663 128.751L56.5417 132.378L58.2331 134.258L59.9406 133.666L60.2732 129.795L61.3139 127.982L64.5271 125.694L66.391 122.4L69.3383 118.443L70.2173 116.873L73.7413 115.016L75.0008 112.584L75.597 109.105L77.9222 103.776L80.0407 102.872L83.4148 102.068L85.8023 101.033L86.4225 100.032L86.5681 98.6973L85.5359 96.3125L82.3134 95.0067L81.2219 93.9357L80.0649 91.6694L81.102 88.5013L80.9989 87.7242L78.9736 84.5851L78.4829 82.6959L78.8888 80.0116L78.3635 75.9371L78.8187 71.4843L77.2385 70.5697L76.9248 69.6743L77.0619 67.9623L79.4241 63.4542L82.7969 65.1932L87.4473 66.1024L88.6717 65.7563L89.1295 64.419L89.4077 61.959L88.9566 60.015L87.3136 58.3281L87.9136 56.875L89.7749 56.2742L93.9535 54.1961L97.831 52.925L102.657 52.215L109.096 52.0034L110.336 50.9427L112.349 50.0182L114.781 50.1859L119.311 48.5878L121.864 49.1267L122.039 46.3189L123.217 44.5724L123.883 46.2575L127.157 50.8786L129.861 53.0273L133.75 55.4983L135.657 56.3839L136.847 57.6129L138.687 57.9698L142.088 57.2128L144.219 58.1198L144.796 58.9935L147.616 60.4301L148.959 59.2809L150.432 56.36L152.053 55.3203L154.579 52.2941L156.368 51.3563L154.767 50.6133L154.287 48.8663L154.803 46.6738L153.431 45.0138L153.766 44.173L152.958 42.4457L155.767 39.011L154.285 37.2631L153.523 35.2208L153.096 33.1272L154.148 30.1724L152.552 27.9678L152.87 27.2302L154.64 26.0692L159.515 26.0518L161.306 25.8236L164.584 24.4572L168.32 22.1179L168.936 22.0046L171.985 22.8575L175.962 23.6552L177.806 25.1295L179.551 27.3398L180.754 29.4253L182.092 28.4574L183.162 26.4959L185.203 25.1971L187.79 24.2836L189.135 25.121L191.157 27.0294L192.686 27.8227L194.968 26.6228L195.63 25.5484L198.832 26.1047L199.832 26.713L201.473 26.7564L202.565 27.2441L206.447 24.724L207.115 24.5537L210.661 24.5937L211.366 23.8911L210.954 21.3191L212.143 18.6081L210.477 15.6865L209.941 13.7046L211.197 13.5077L212.429 11.8663L212.812 9.24346L213.896 6.96802L213.77 5.07794L215.071 3.42188L217.766 3.56216L219.138 4.93818L219.846 6.82182L220.364 10.1829L220.393 11.8848L221.694 15.3954L222.592 17.1321L224.305 18.0684L225.291 19.3068L226.744 20.2191L227.364 22.5039L228.968 24.7228L229.434 26.1876L230.907 26.6422L230.948 27.995L231.931 28.1522L232.61 29.7388L234.613 29.8671L237.016 32.1674L242.345 32.3455L243.08 32.8563L244.772 33.1242L245.6 32.4215L247.431 31.9363L250.25 30.4617L251.438 30.6983L253.03 33.2414L255.751 36.1903L256.429 37.4654L257.267 40.9339L258.153 41.7759L258.244 42.9855L257.654 45.0199L258.622 48.4075L259.269 48.8389L260.207 50.9681L262.771 52.8427L262.809 54.0497L262.284 56.9161L261.548 58.4133L260.901 61.4748L260.772 63.6068L261.022 65.5021L261.005 69.7133L260.239 71.7742L260.519 72.8885L261.711 72.7735L268.567 73.6477L269.581 73.6712L274.036 73.0423L274.953 73.3067L277.056 77.2958L278.825 78.4228L280.527 78.8208L282.668 80.2009L285.286 81.0325L287.109 81.1526L289.39 80.9189L291.354 81.8854L293.004 85.4167L294.364 87.1871L295.486 87.8773L296.999 90.2535L299.56 93.0402L300.279 94.3873L299.814 97.2816L301.461 100.893L302.666 105.179L303.435 106.995L302.431 107.861L298.837 108.761L299.566 110.691L301.222 110.392L302.071 112.337L300.794 114.602L301.22 116.157L300.257 116.719L300.54 118.26L300.177 118.985L298.367 119.293L298.455 120.835L299.61 124.025L300.24 124.269L301.493 122.195L303.578 121.748L304.62 122.015L305.367 120.805L306.584 119.824L309.974 119.721L311.392 120.705L313.383 121.381L312.992 124.246L313.097 125.467L314.188 126.433L317.975 125.734L321.764 128.32L323.702 129.276L326.661 129.769L329.817 129.133L332.37 129.344L335.672 129.945L340.156 129.489L342.868 128.378L343.311 129.592L340.924 133.045L339.689 135.918L339.628 138.968L339.204 142.803L339.33 146.43L339.711 148.744L340.479 150.472L341.636 151.581L344.142 155.323L345.384 156.612Z" fill="#1E1E1E" stroke="white" stroke-width="5"/>
</svg>
