<svg width="225" height="190" viewBox="0 0 225 190" fill="none" xmlns="http://www.w3.org/2000/svg">
<path d="M18.2464 2.96094L19.3032 5.61084L21.9086 8.33213L23.6376 10.9199L24.8418 11.6434L25.4244 13.5417L25.3026 14.6068L25.553 17.8292L26.2912 22.1209L27.5485 24.1973L28.3723 28.4226L30.0268 30.5678L31.2373 32.6017L31.8104 34.1682L33.635 36.1177L34.4045 36.5872L36.2644 36.8286L36.9126 37.8425L38.244 38.7543L41.5888 39.14L42.7185 39.9962L44.5982 39.9145L46.4485 39.1522L48.0642 39.1155L49.0699 39.6808L51.152 42.8137L52.5339 43.0247L55.204 45.1012L56.4891 45.416L58.8883 47.4829L60.545 50.127L61.0962 51.9458L62.6424 53.1774L63.3359 54.8695L65.2297 57.744L65.6323 59.046L66.6211 59.7149L67.853 62.5079L69.8582 63.0703L70.6422 65.9692L70.8553 68.6228L71.8564 72.0439L74.3046 78.6805L76.6319 83.3581L78.4073 84.0595L81.9994 91.6508L84.0415 94.7255L84.6147 95.9581L86.124 96.5013L86.7314 97.7136L87.8047 98.311L89.8773 100.991L91.7344 101.939L93.0354 103.733L95.3223 106.009L97.9745 107.376L100.372 110.1L101.748 110.662L105.893 113.291L108.038 113.66L110.098 115.16L113.863 117.082L117.475 118.568L119.603 118.909L120.214 119.513L127.394 122.683L128.475 123.448L133.107 125.325L135.593 126.197L140.568 128.731L145.563 130.891L149.013 131.831L150.948 132.812L152.957 133.133L154.751 134.281L159.442 135.428L159.992 136.201L161.317 136.85L166.572 138.428L169.491 138.877L171.336 138.824L174.363 139.227L177.99 138.978L180.191 139.811L181.064 141.029L181.281 142.39L182.518 143.965L184.262 144.946L185.307 144.092L186.057 144.914L186.523 148.076L185.493 148.621L184.795 149.891L184.645 151.825L185.692 154.102L187.254 154.997L188.064 153.532L189.195 154.864L189.184 156.283L188.542 157.536L189.27 158.449L189.355 160.451L189.95 162.755L189.762 164.209L190.497 166.805L191.634 168.889L193.197 170.784L196.215 172.647L198.986 173.482L202.229 173.477L203.384 172.853L203.584 172.134L205.726 172.261L208.422 171.581L209.842 170.555L211.999 171.824L212.878 171.109L213.817 172.091L215.193 172.11L217.648 171.307L216.447 170.232L218.225 169.695L218.302 170.844L219.121 171.211L218.964 173.847L220.001 175.921L220.702 176.474L220.707 177.91L219.846 178.794L220.8 181.16L218.969 181.4L215.117 182.493L213.837 182.233L213.155 182.633L211.181 182.822L209.195 183.698L207.869 185.018L205.606 185.431L204.364 186.514L203.657 185.93L199.4 185.374L195.332 184.343L194.861 183.223L192.554 182.465L192.048 181.236L188.36 180.625L184.816 181.491L183.691 180.774L182.353 180.63L179.902 181.778L178.51 181.219L176.065 181.761L175.379 181.583L174.016 182.438L172.17 181.582L168.55 182.254L167.548 181.199L165.459 181.337L164.781 180.853L162.439 180.751L160.175 179.673L156.254 179.272L151.917 179.474L151.284 178.361L149.996 177.909L146.757 178.393L145.352 177.773L144.235 178.004L143.518 176.983L142.266 176.225L139.663 173.247L139.102 173.087L137.087 171.331L135.126 171.114L133.613 170.489L129.713 171.206L129.382 170.567L127.719 169.903L125.189 169.275L120.431 166.243L119.122 164.983L117.335 163.859L113.98 163.121L112.737 161.631L111.233 160.893L107.693 159.865L104.5 157.593L103.246 157.365L100.95 155.104L97.0071 153.363L96.0738 152.43L91.7562 150.587L89.3786 150.212L88.1388 148.88L84.8518 148.539L82.3697 147.135L77.3823 147.079L70.9591 146.787L67.4104 147.805L62.3072 150.693L60.5436 152.152L58.518 153.407L56.1659 153.337L53.2515 153.74L51.6598 153.55L50.426 153.853L48.8466 153.578L47.3261 153.78L45.5217 152.997L43.2997 152.577L41.6287 151.656L38.4915 151.907L36.285 152.863L33.9196 154.811L30.3157 155.155L29.0949 154.683L32.4659 149.131L33.9033 147.393L35.8783 144.157L38.7805 139.07L39.2407 137.293L39.135 135.68L40.5975 132.603L41.7019 128.73L40.9483 124.524L40.3999 122.977L38.7712 121.901L38.0058 120.505L37.2104 117.73L35.6761 115.778L32.772 112.863L32.0099 113.026L30.8916 109.589L30.9552 107.864L30.554 105.561L29.4282 103.169L26.9178 101.891L26.8038 100.804L26.0327 99.4625L25.5194 97.4836L24.7417 96.0703L22.067 93.9157L21.7843 92.0382L21.9217 89.6797L21.6646 87.4987L20.2097 84.4569L17.9161 82.58L16.5579 81.772L12.0725 80.7961L9.5415 78.8043L7.4679 77.736L6.06584 74.9288L5.5509 71.7859L6.21153 70.0927L6.45298 67.3071L5.17444 65.3602L3.79688 64.9791L5.57423 61.7666L6.55839 59.084L7.67848 57.3302L8.73902 54.2236L11.4953 48.821L12.3878 46.1135L12.3777 43.9679L11.5435 42.8069L10.9769 40.2479L9.74651 38.5808L9.90496 33.8134L11.2558 30.922L11.2941 29.0164L12.5218 24.1549L13.9911 16.4221L14.5098 14.2382L14.6058 11.7656L13.8761 5.05664L13.0776 4.07856L13.9435 3.13938L18.2464 2.96094Z" fill="#1E1E1E" stroke="white" stroke-width="5"/>
</svg>
