<svg width="354" height="331" viewBox="0 0 354 331" fill="none" xmlns="http://www.w3.org/2000/svg">
<path d="M127.66 216.785L129.387 217.384L130.113 219.176L131.463 220.335L130.923 220.884L129.003 218.434L127.753 217.441L127.66 216.785ZM128.601 205.535L130.071 207.425L130.982 207.947L131.693 209.213L130.956 210.39L128.875 208.972L129.191 207.377L128.601 205.535ZM126.882 201.048L127.336 202.46L129.198 204.351L129.305 205.774L126.809 203.641L126.6 201.996L126.882 201.048ZM147.305 191.772L147.974 191.262L149.94 192.291L148.978 193.097L147.305 191.772ZM140.961 189.54L143.078 192.282L140.657 192.814L140.451 192.041L139.259 192.043L138.075 190.209L139.914 189.523L140.961 189.54ZM230.808 24.7132L232.771 27.1731L233.407 27.4059L238.554 25.9099L244.544 26.2098L248.566 27.268L252.259 27.5465L252.785 27.9211L253.053 29.5829L252.764 34.163L253.005 37.4127L253.378 38.9018L254.04 39.6352L256.621 44.1517L255.09 46.094L255.957 48.3842L256.949 49.1712L264.267 51.9534L262.114 54.2656L261.454 55.0824L262.069 55.8938L264.084 57.0902L261.535 64.2554L261.645 65.2898L262.565 68.103L260.78 70.0708L259.837 71.7261L259.275 73.7147L260.121 75.0927L261.475 78.4818L261.578 80.5002L260.877 83.7547L261.435 85.4764L262.986 86.8323L263.823 88.8513L263.811 93.1565L263.439 94.8656L261.649 98.7471L260.269 100.353L259.174 102.571L258.958 103.903L259.473 105.002L261.009 106.135L261.99 107.362L262.095 111.163L262.375 113.726L263.382 115.528L263.956 117.676L263.753 120.104L264.36 123.141L265.774 123.549L267.975 121.84L269.833 121.133L271.118 122.009L272.809 124.299L274.191 125.712L276.098 127.093L277.647 127.657L279.81 129.616L282.719 131.09L286.036 133.467L287.763 134.464L291.189 136.071L295.184 137.743L299.761 138.815L304.235 140.065L308.258 140.729L310.935 141.408L314.211 141.502L315.49 141.944L317.012 143.096L321.168 144.366L322.847 145.082L323.809 144.81L328.068 146.099L330.043 147.766L330.761 148.974L330.989 153.069L330.602 154.477L329.499 156.356L327.873 161.28L327.786 163.403L326.511 165.959L324.254 166.818L323.903 168.552L324.68 170.773L323.79 172.298L321.049 173.512L320.292 174.375L320.627 176.128L322.62 179.052L323.424 180.675L325.207 181.928L327.758 182.822L329.482 183.833L331.116 184.343L335.3 186.495L337.43 188.329L342.236 191.503L344.418 193.709L347.03 197.006L348.111 199.251L348.242 201.724L347.25 203.489L345.375 205.715L343.832 208.444L342.281 210.286L339.554 212.165L338.117 214.721L335.098 218.303L332.124 222.667L330.175 224.245L328.146 225.431L328.487 226.781L328.398 229.01L329.82 230.098L333.869 230.343L339.116 231.968L342.364 233.915L343.087 236.128L343.956 236.189L339.777 238.267L337.916 238.868L337.316 240.321L338.959 242.008L339.41 243.952L339.132 246.412L338.674 247.749L337.45 248.095L332.799 247.186L329.426 245.447L327.064 249.955L326.927 251.667L327.241 252.562L328.821 253.477L328.366 257.93L328.891 262.004L328.485 264.689L328.976 266.578L331.001 269.717L331.104 270.494L330.067 273.662L331.224 275.928L332.316 276.999L335.538 278.305L336.57 280.69L336.425 282.025L335.805 283.026L333.417 284.061L330.043 284.865L327.925 285.769L325.599 291.098L325.003 294.577L323.744 297.009L320.22 298.865L319.341 300.436L316.393 304.392L314.529 307.686L311.316 309.975L310.276 311.788L309.943 315.659L308.235 316.251L306.544 314.371L305.069 310.744L304.706 308.124L304.782 306.562L304.16 304.502L303.355 303.841L299.575 303.693L298.023 304.018L296.212 305.447L294.667 305.818L293.938 304.686L295.517 302.19L295.759 300.022L293.741 297.539L292.134 294.601L291.13 292.234L288.528 288.468L287.117 285.484L285.698 281.68L286.304 281.365L288.176 281.646L290.05 281.477L292.497 281.615L291.801 280.458L289.828 279.789L287.903 278.705L284.634 278.753L283.114 278.217L281.347 276.971L280.424 277.302L281.375 279.242L282.016 282.869L281.972 284.803L279.034 285.452L278.188 286.119L276.438 290.801L275.557 293.743L275.865 294.615L275.256 295.786L275.208 297.546L273.337 297.551L270.444 299.102L268.217 299.958L265.832 300.499L265.362 302.427L265.03 306.687L265.531 309.949L264.844 311.724L265.791 312.249L268.018 312.448L270.241 313.76L270.761 315.814L272.28 317.651L272.507 319.048L272.826 323.782L272.303 325.395L270.405 326.228L267.628 326.433L266.306 325.383L265.149 323.21L264.54 323.079L259.956 325.075L257.03 326.604L254.948 327.96L253.559 327.587L252.994 326.798L250.262 325.209L248.798 323.633L248.466 322.295L246.974 319.196L243.879 316.883L241.762 315.94L239.77 315.634L236.744 314.828L232.476 314.652L230.828 314.199L230.86 313.452L229.329 311.699L228.738 310.293L227.251 309.264L224.247 308.453L222.502 308.245L217.077 308.127L211.727 308.358L207.143 309.315L203.253 310.519L197.131 313.21L197.76 311.66L198.792 310.16L199.159 308.401L200.004 307.321L200.903 304.921L202.798 301.982L203.739 299.831L204.143 297.649L202.298 296.264L201.887 295.359L201.459 292.882L199.952 291.316L198.553 290.752L198.341 289.711L197.276 288.56L196.973 286.842L196.315 285.548L196.427 283.81L195.339 281.101L194.417 279.693L191.402 277.437L187.032 276.34L186.257 275.4L185.014 271.265L185.868 269.409L186.102 267.672L185.265 264.107L184.233 261.735L184.333 260.311L183.888 258.701L182.302 255.984L180.728 253.836L178.645 252.003L177.09 251.033L172.007 249.526L170.62 248.812L166.428 248.241L163.339 248.362L162.443 248.025L161.101 246.078L161.139 244.893L162.167 242.662L161.994 238.322L162.793 236.575L161.868 231.556L163.938 230.284L165.418 228.745L167.617 228.198L171.294 227.992L172.158 228.541L178.352 228.649L179.331 229.632L182.031 230.558L182.965 231.765L188.304 231.925L193.723 231.625L201.946 230.418L205.85 229.588L212.45 227.533L217.255 225.538L221.664 223.409L229.045 218.712L229.941 217.563L232.301 216.425L238.38 210.493L241.441 206.121L240.624 204.405L242.374 202.008L242.472 200.573L241.708 198.697L239.58 196.387L237.386 194.682L235.761 193.78L233.725 192.159L231.711 191.23L230.227 190.186L228.949 187.458L227.904 186.394L224.794 184.177L223.97 184.084L221.247 181.897L220.13 179.401L221.352 177.576L223.901 175.869L226.374 173.634L227.842 171.225L226.812 170.559L227.43 163.149L228.018 157.987L227.887 154.822L226.139 153.252L225.856 151.656L221.215 147.901L219.944 148.048L218.404 146.679L216.858 145.78L213.603 145.547L214.491 147.21L211.211 146.915L209.909 143.988L208.326 143.927L208.334 143.126L205.909 141.153L204.406 141.249L202.712 141.857L200.063 141.1L198.435 141.521L198.202 143.286L197.344 143.903L194.499 143.862L192.17 144.932L190.44 146.145L188.698 144.856L186.22 145.987L185.015 145.956L183.679 147.361L182.771 146.738L179.508 147.97L179.691 149.212L178.867 151.354L179.991 152.023L183.525 152.117L184.344 155.505L183.01 155.66L181.889 157.059L182.613 158.179L180.38 158.689L180.646 159.561L182.227 160.032L182.232 163.757L181.93 165.906L182.117 168.621L181.92 172.154L181.321 174.05L180.509 174.867L175.58 178.881L171.297 182.133L168.144 181.954L163.897 184.817L159.028 187.525L155.685 189.736L151.45 191.879L149.94 192.291L147.974 191.262L145.48 189.537L142.434 188.355L138.674 189.677L133.217 192.176L129.858 193.116L129.247 193.64L127 194.307L125.859 195.161L125.796 196.486L126.6 201.996L126.809 203.641L126.962 207.068L125.651 208.326L122.068 209.507L124.581 210.812L124.824 211.816L124.169 212.492L127.263 217.222L130.325 220.331L129.48 220.446L125.671 218.918L125.617 217.958L123.43 217.783L122.975 219.723L125.576 223.651L125.039 224.283L123.348 224.819L123.131 227.911L121.637 227.807L120.337 226.235L120.08 224.29L117.868 224.205L117.365 222.012L115.537 220.989L115.329 221.821L116.41 223.196L117.446 223.853L117.83 225.129L117.301 226.213L118.476 226.525L119.067 227.337L117.333 230.812L116.571 229.258L116.336 227.854L112.85 222.415L112.93 220.921L113.692 219.465L113.782 217.178L112.847 216.785L112.327 218.621L111.64 223.774L113.978 227.29L114.44 230.327L114.091 231.9L112.954 231.653L112.167 229.64L110.144 228.925L109.233 228.152L109.471 226.461L108.824 225.243L108.913 222.824L107.483 223.2L107.032 220.134L105.607 219.354L104.798 220.51L103.305 221.347L100.619 219.865L100.681 218.909L99.7511 218.176L100.137 217.206L102.051 216.746L102.31 214.228L97.6651 214.188L96.9066 214.027L96.4718 211.671L95.9358 211.439L94.1195 208.419L91.8055 204.051L90.5721 202.102L88.8254 200.051L85.8696 198.056L83.4296 196.637L80.9645 195.751L77.9913 193.862L75.4746 191.372L72.7508 187.28L71.0782 182.864L70.2228 179.135L69.9662 177.065L68.919 173.978L67.9921 169.996L67.794 168.04L66.5624 160.964L65.4108 159.509L62.7294 158.559L61.961 157.504L59.9709 156.531L57.2113 154.395L56.5008 152.615L56.264 150.19L54.6706 147.558L53.2302 144.603L52.0299 143.684L49.4035 141.02L48.1105 139.313L45.4586 137.147L42.1384 136.622L40.6245 135.491L39.088 131.451L37.2014 129.196L34.9122 127.818L33.5581 125.082L33.1374 122.938L32.3233 122.116L30.5371 121.668L24.7302 122.727L22.2999 121.852L20.1667 120.624L18.665 121.098L16.6377 120.831L14.6071 120.164L10.8017 120.449L7.34448 119.303L5.81844 117.661L5.51628 115.244L3.25927 111.117L2.81641 109.368L3.14608 106.659L3.87613 103.529L4.10273 100.227L3.91758 98.1134L5.6622 96.9023L7.56434 96.2006L8.81816 95.3927L11.3842 94.3624L14.3416 92.4848L14.7012 91.303L14.6197 87.7602L15.5228 86.6552L17.5598 85.823L20.3507 85.3616L26.806 85.326L29.3164 85.8738L33.0741 87.1681L36.5248 89.1141L38.5945 89.4408L40.0655 86.3133L40.6969 84.3235L41.5729 82.6103L41.7947 79.9178L40.8327 76.5122L39.549 73.9785L38.8287 73.481L35.2997 72.8205L34.1543 71.1115L32.3507 65.4229L31.0253 63.5538L31.4855 62.0302L31.0678 61.0388L29.2308 58.3257L28.5095 56.4497L26.2674 53.3001L25.4186 49.9016L24.5921 48.1904L23.995 47.7483L19.3693 47.0701L16.2337 45.9041L12.6258 42.3491L10.1559 40.4199L7.75425 40.839L6.8264 41.8894L5.38046 41.7881L5.1433 37.9077L6.37332 35.4524L7.70828 33.8251L9.17001 30.7281L12.8304 30.6978L13.5465 32.5622L13.4008 34.4182L13.7539 36.5633L15.0148 38.0324L18.2545 39.1538L21.8361 39.7377L25.3363 39.1218L27.1288 39.2923L28.542 40.6364L29.4849 40.6351L31.8661 38.6051L30.1626 36.4277L29.4757 35.2261L30.8053 34.103L32.1445 35.1451L34.4632 37.4412L36.37 39.7901L38.008 39.8635L39.8915 37.9021L41.0593 35.9466L39.9979 34.5049L38.2876 33.6688L36.7814 31.814L35.369 28.4417L34.4419 27.0209L31.402 24.5935L30.1618 22.5315L29.1642 19.9077L27.8237 18.1591L26.0357 16.9501L26.9566 15.2643L28.4168 14.2019L29.5133 14.2525L32.1308 15.7055L33.5761 18.1447L34.8658 19.428L37.0149 20.8174L37.79 22.3924L39.2533 23.138L40.2255 26.0686L42.4868 29.7677L42.6669 30.4514L45.1318 33.9872L46.5916 35.5141L49.8575 37.6186L51.7822 38.0856L53.7114 38.1664L56.1315 37.6131L58.6249 36.2865L61.427 32.5122L63.2229 31.9033L67.6222 32.0377L68.7259 30.9164L70.5005 30.7115L76.4627 31.2916L77.9759 30.928L77.7381 29.7188L77.6434 25.0605L78.3288 22.0007L77.6706 19.5136L76.1942 16.0522L76.925 13.6639L76.3944 10.8087L74.86 7.49696L73.9947 5.15047L74.37 4.3838L76 3.43187L78.2984 3.35938L82.8334 3.99378L86.5786 4.34598L96.2988 4.12839L97.2605 3.79368L99.0582 4.08732L100.107 8.41399L100.415 10.918L99.9231 14.0747L98.3394 17.6767L98.3201 20.4974L99.3268 23.3602L101.511 28.0677L102.117 30.2413L102.349 33.4902L103 36.1695L103.834 38.1996L104.288 41.2565L104.218 43.9636L104.737 44.7169L106.199 45.1245L109.427 44.8913L112.032 45.0077L116.418 44.4293L117.638 44.7321L120.692 46.1642L122.993 46.2543L124.812 47.0893L124.596 45.9711L124.934 41.5868L125.963 40.0732L129.534 40.1771L130.025 40.7794L134.007 40.709L136.469 40.3113L135.597 36.3874L134.878 34.5324L134.598 32.5311L135.017 30.2397L136.628 28.7697L139.212 28.1215L143.068 28.7403L147.473 28.3306L151.722 27.6432L157.492 27.4191L164.615 28.2161L168.812 29.3275L171.727 30.9624L172.941 32.1221L176.127 34.4318L177.734 35.3205L179.769 36.9016L181.254 37.137L182.306 36.0879L184.04 33.534L186.127 30.947L186.207 29.5014L185.23 28.2152L186.254 27.424L187.358 27.593L190.803 29.3054L194.082 28.8662L198.371 29.3529L200.256 27.6444L202.361 27.8756L203.886 28.7148L205.517 29.0607L208.032 28.8981L210.228 30.1011L212.262 32.07L213.932 32.4759L217.32 32.2345L220.382 33.6221L222.18 33.6578L222.227 32.6017L219.455 29.188L219.15 27.5412L223.718 26.7969L228.801 25.5894L230.808 24.7132Z" fill="#1E1E1E"/>
<path d="M126.809 203.641L129.305 205.774L129.198 204.351L127.336 202.46L126.882 201.048L126.6 201.996M126.809 203.641L126.6 201.996M126.809 203.641L126.962 207.068L125.651 208.326L122.068 209.507L124.581 210.812L124.824 211.816L124.169 212.492L127.263 217.222L130.325 220.331L129.48 220.446L125.671 218.918L125.617 217.958L123.43 217.783L122.975 219.723L125.576 223.651L125.039 224.283L123.348 224.819L123.131 227.911L121.637 227.807L120.337 226.235L120.08 224.29L117.868 224.205L117.365 222.012L115.537 220.989L115.329 221.821L116.41 223.196L117.446 223.853L117.83 225.129L117.301 226.213L118.476 226.525L119.067 227.337L117.333 230.812L116.571 229.258L116.336 227.854L112.85 222.415L112.93 220.921L113.692 219.465L113.782 217.178L112.847 216.785L112.327 218.621L111.64 223.774L113.978 227.29L114.44 230.327L114.091 231.9L112.954 231.653L112.167 229.64L110.144 228.925L109.233 228.152L109.471 226.461L108.824 225.243L108.913 222.824L107.483 223.2L107.032 220.134L105.607 219.354L104.798 220.51L103.305 221.347L100.619 219.865L100.681 218.909L99.7511 218.176L100.137 217.206L102.051 216.746L102.31 214.228L97.6651 214.188L96.9066 214.027L96.4718 211.671L95.9358 211.439L94.1195 208.419L91.8055 204.051L90.5721 202.102L88.8254 200.051L85.8696 198.056L83.4296 196.637L80.9645 195.751L77.9913 193.862L75.4746 191.372L72.7508 187.28L71.0782 182.864L70.2228 179.135L69.9662 177.065L68.919 173.978L67.9921 169.996L67.794 168.04L66.5624 160.964L65.4108 159.509L62.7294 158.559L61.961 157.504L59.9709 156.531L57.2113 154.395L56.5008 152.615L56.264 150.19L54.6706 147.558L53.2302 144.603L52.0299 143.684L49.4035 141.02L48.1105 139.313L45.4586 137.147L42.1384 136.622L40.6245 135.491L39.088 131.451L37.2014 129.196L34.9122 127.818L33.5581 125.082L33.1374 122.938L32.3233 122.116L30.5371 121.668L24.7302 122.727L22.2999 121.852L20.1667 120.624L18.665 121.098L16.6377 120.831L14.6071 120.164L10.8017 120.449L7.34448 119.303L5.81844 117.661L5.51628 115.244L3.25927 111.117L2.81641 109.368L3.14608 106.659L3.87613 103.529L4.10273 100.227L3.91758 98.1134L5.6622 96.9023L7.56434 96.2006L8.81816 95.3927L11.3842 94.3624L14.3416 92.4848L14.7012 91.303L14.6197 87.7602L15.5228 86.6552L17.5598 85.823L20.3507 85.3616L26.806 85.326L29.3164 85.8738L33.0741 87.1681L36.5248 89.1141L38.5945 89.4408L40.0655 86.3133L40.6969 84.3235L41.5729 82.6102L41.7947 79.9178L40.8327 76.5122L39.549 73.9785L38.8287 73.481L35.2997 72.8205L34.1543 71.1115L32.3507 65.4229L31.0253 63.5538L31.4855 62.0302L31.0678 61.0388L29.2308 58.3257L28.5095 56.4497L26.2674 53.3001L25.4186 49.9016L24.5921 48.1904L23.995 47.7483L19.3693 47.0701L16.2337 45.9041L12.6258 42.3491L10.1559 40.4199L7.75425 40.839L6.8264 41.8894L5.38046 41.7881L5.1433 37.9077L6.37332 35.4524L7.70828 33.8251L9.17001 30.7281L12.8304 30.6978L13.5465 32.5622L13.4008 34.4182L13.7539 36.5633L15.0148 38.0324L18.2545 39.1538L21.8361 39.7377L25.3363 39.1218L27.1288 39.2923L28.542 40.6364L29.4849 40.6351L31.8661 38.6051L30.1626 36.4277L29.4757 35.2261L30.8053 34.103L32.1445 35.1451L34.4632 37.4412L36.37 39.7901L38.008 39.8635L39.8915 37.9021L41.0593 35.9466L39.9979 34.5049L38.2876 33.6688L36.7814 31.814L35.369 28.4417L34.4419 27.0209L31.402 24.5935L30.1618 22.5315L29.1642 19.9077L27.8237 18.1591L26.0357 16.9501L26.9566 15.2643L28.4168 14.2019L29.5133 14.2525L32.1308 15.7055L33.5761 18.1447L34.8658 19.428L37.0149 20.8174L37.79 22.3924L39.2533 23.138L40.2255 26.0685L42.4868 29.7677L42.6669 30.4514L45.1318 33.9872L46.5916 35.5141L49.8575 37.6186L51.7822 38.0856L53.7114 38.1664L56.1315 37.6131L58.6249 36.2865L61.427 32.5122L63.2229 31.9033L67.6222 32.0377L68.7259 30.9164L70.5005 30.7115L76.4627 31.2916L77.9759 30.928L77.7381 29.7188L77.6434 25.0605L78.3288 22.0007L77.6706 19.5136L76.1942 16.0522L76.925 13.6639L76.3944 10.8087L74.86 7.49696L73.9947 5.15047L74.37 4.3838L76 3.43187L78.2984 3.35938L82.8334 3.99378L86.5786 4.34598L96.2988 4.12839L97.2605 3.79368L99.0582 4.08732L100.107 8.41399L100.415 10.918L99.9231 14.0747L98.3394 17.6767L98.3201 20.4974L99.3268 23.3602L101.511 28.0677L102.117 30.2413L102.349 33.4902L103 36.1695L103.834 38.1996L104.288 41.2565L104.218 43.9636L104.737 44.7169L106.199 45.1245L109.427 44.8913L112.032 45.0077L116.418 44.4293L117.638 44.7321L120.692 46.1642L122.993 46.2543L124.812 47.0893L124.596 45.9711L124.934 41.5868L125.963 40.0732L129.534 40.1771L130.025 40.7794L134.007 40.709L136.469 40.3113L135.597 36.3874L134.878 34.5324L134.598 32.5311L135.017 30.2397L136.628 28.7697L139.212 28.1215L143.068 28.7403L147.473 28.3306L151.722 27.6432L157.492 27.4191L164.615 28.2161L168.812 29.3275L171.727 30.9624L172.941 32.1221L176.127 34.4318L177.734 35.3205L179.769 36.9016L181.254 37.137L182.306 36.0879L184.04 33.534L186.127 30.947L186.207 29.5014L185.231 28.2152L186.254 27.424L187.358 27.593L190.803 29.3054L194.082 28.8662L198.371 29.3529L200.256 27.6444L202.361 27.8756L203.886 28.7148L205.517 29.0607L208.032 28.8981L210.228 30.1011L212.261 32.07L213.932 32.4759L217.32 32.2345L220.382 33.6221L222.18 33.6578L222.227 32.6017L219.455 29.188L219.15 27.5412L223.718 26.7969L228.801 25.5894L230.808 24.7132L232.771 27.1731L233.407 27.4059L238.554 25.9099L244.544 26.2098L248.566 27.268L252.259 27.5465L252.785 27.9211L253.053 29.5829L252.764 34.163L253.005 37.4127L253.378 38.9018L254.04 39.6352L256.621 44.1517L255.09 46.094L255.957 48.3842L256.949 49.1712L264.267 51.9534L262.114 54.2656L261.454 55.0824L262.069 55.8938L264.084 57.0902L261.535 64.2554L261.645 65.2898L262.565 68.103L260.78 70.0708L259.837 71.7261L259.275 73.7147L260.121 75.0927L261.475 78.4818L261.578 80.5002L260.877 83.7547L261.435 85.4764L262.986 86.8323L263.823 88.8513L263.811 93.1565L263.439 94.8656L261.649 98.7471L260.269 100.353L259.174 102.571L258.958 103.903L259.473 105.002L261.009 106.135L261.99 107.362L262.095 111.163L262.375 113.726L263.382 115.528L263.956 117.676L263.753 120.104L264.36 123.141L265.774 123.549L267.975 121.84L269.833 121.133L271.118 122.009L272.809 124.299L274.191 125.712L276.097 127.093L277.647 127.657L279.81 129.616L282.719 131.09L286.036 133.467L287.763 134.464L291.189 136.071L295.184 137.743L299.761 138.815L304.235 140.065L308.258 140.729L310.935 141.408L314.211 141.502L315.49 141.944L317.012 143.096L321.168 144.366L322.847 145.082L323.809 144.81L328.068 146.099L330.043 147.766L330.761 148.974L330.989 153.069L330.602 154.477L329.499 156.356L327.873 161.28L327.786 163.403L326.511 165.959L324.254 166.818L323.903 168.552L324.68 170.774L323.79 172.298L321.049 173.512L320.292 174.375L320.627 176.128L322.62 179.052L323.424 180.675L325.207 181.928L327.758 182.822L329.482 183.833L331.116 184.343L335.3 186.495L337.43 188.329L342.236 191.503L344.418 193.709L347.03 197.006L348.111 199.251L348.242 201.724L347.25 203.489L345.375 205.715L343.832 208.444L342.281 210.286L339.554 212.165L338.117 214.721L335.098 218.303L332.124 222.667L330.175 224.245L328.146 225.431L328.487 226.781L328.398 229.01L329.82 230.098L333.869 230.343L339.116 231.968L342.364 233.915L343.087 236.128L343.956 236.189L339.777 238.267L337.916 238.868L337.316 240.321L338.959 242.008L339.41 243.952L339.132 246.412L338.674 247.749L337.45 248.095L332.799 247.186L329.426 245.447L327.064 249.955L326.927 251.667L327.241 252.562L328.821 253.477L328.366 257.93L328.891 262.004L328.485 264.689L328.976 266.578L331.001 269.717L331.104 270.494L330.067 273.662L331.224 275.928L332.316 276.999L335.538 278.305L336.57 280.69L336.425 282.025L335.805 283.026L333.417 284.061L330.043 284.865L327.925 285.769L325.599 291.098L325.003 294.577L323.744 297.009L320.22 298.865L319.341 300.436L316.393 304.392L314.529 307.686L311.316 309.975L310.276 311.788L309.943 315.659L308.235 316.251L306.544 314.371L305.069 310.744L304.706 308.124L304.782 306.562L304.16 304.502L303.355 303.841L299.575 303.693L298.023 304.018L296.212 305.447L294.667 305.818L293.938 304.686L295.517 302.19L295.759 300.022L293.741 297.539L292.134 294.601L291.13 292.234L288.528 288.468L287.117 285.484L285.698 281.68L286.304 281.365L288.176 281.646L290.05 281.477L292.497 281.615L291.801 280.458L289.828 279.789L287.903 278.705L284.634 278.753L283.114 278.217L281.347 276.971L280.425 277.302L281.375 279.243L282.016 282.869L281.972 284.803L279.034 285.452L278.188 286.119L276.438 290.801L275.557 293.743L275.865 294.615L275.256 295.786L275.208 297.546L273.337 297.551L270.444 299.102L268.217 299.958L265.832 300.499L265.362 302.427L265.03 306.687L265.531 309.949L264.844 311.724L265.791 312.249L268.018 312.448L270.241 313.76L270.761 315.814L272.28 317.651L272.507 319.048L272.826 323.782L272.303 325.395L270.405 326.228L267.628 326.433L266.306 325.383L265.149 323.21L264.54 323.079L259.956 325.075L257.03 326.604L254.948 327.96L253.559 327.587L252.994 326.798L250.262 325.209L248.798 323.633L248.466 322.295L246.974 319.196L243.879 316.883L241.762 315.94L239.77 315.634L236.744 314.828L232.476 314.652L230.828 314.199L230.86 313.452L229.329 311.7L228.738 310.293L227.251 309.264L224.247 308.453L222.502 308.245L217.077 308.127L211.727 308.358L207.143 309.315L203.253 310.519L197.131 313.21L197.76 311.66L198.792 310.16L199.159 308.401L200.004 307.321L200.903 304.921L202.798 301.982L203.739 299.831L204.143 297.649L202.298 296.264L201.887 295.359L201.459 292.882L199.952 291.316L198.553 290.752L198.341 289.711L197.276 288.56L196.973 286.842L196.315 285.548L196.427 283.81L195.339 281.101L194.417 279.693L191.402 277.437L187.032 276.34L186.257 275.4L185.014 271.265L185.869 269.409L186.102 267.672L185.265 264.107L184.233 261.735L184.333 260.311L183.888 258.701L182.302 255.984L180.728 253.836L178.645 252.003L177.09 251.033L172.007 249.526L170.62 248.812L166.428 248.241L163.339 248.362L162.443 248.025L161.101 246.078L161.139 244.893L162.167 242.662L161.994 238.322L162.793 236.575L161.868 231.556L163.938 230.284L165.418 228.745L167.617 228.198L171.294 227.992L172.158 228.541L178.352 228.649L179.331 229.632L182.031 230.558L182.965 231.765L188.304 231.925L193.723 231.625L201.946 230.418L205.85 229.588L212.45 227.533L217.255 225.538L221.664 223.409L229.045 218.712L229.941 217.563L232.301 216.425L238.38 210.493L241.441 206.121L240.624 204.405L242.374 202.008L242.472 200.573L241.708 198.697L239.58 196.387L237.386 194.682L235.761 193.78L233.725 192.159L231.711 191.23L230.227 190.186L228.949 187.458L227.904 186.394L224.794 184.177L223.97 184.084L221.247 181.897L220.13 179.401L221.352 177.576L223.901 175.869L226.374 173.634L227.842 171.225L226.812 170.559L227.43 163.149L228.018 157.987L227.887 154.822L226.139 153.252L225.856 151.656L221.215 147.901L219.944 148.048L218.404 146.679L216.858 145.78L213.603 145.547L214.491 147.21L211.211 146.915L209.909 143.988L208.326 143.927L208.334 143.126L205.909 141.153L204.406 141.249L202.712 141.857L200.063 141.1L198.435 141.521L198.202 143.286L197.344 143.903L194.499 143.862L192.17 144.933L190.44 146.145L188.698 144.856L186.22 145.987L185.015 145.956L183.679 147.361L182.771 146.738L179.508 147.97L179.691 149.212L178.867 151.354L179.991 152.023L183.525 152.117L184.344 155.505L183.01 155.66L181.889 157.059L182.613 158.179L180.38 158.689L180.646 159.561L182.227 160.032L182.232 163.757L181.93 165.906L182.117 168.621L181.92 172.154L181.321 174.05L180.509 174.867L175.58 178.881L171.297 182.133L168.144 181.954L163.897 184.817L159.028 187.525L155.685 189.736L151.45 191.879L149.94 192.291M126.6 201.996L125.796 196.486L125.859 195.161L127 194.307L129.247 193.64L129.858 193.116L133.217 192.176L138.674 189.677L142.434 188.355L145.48 189.537L147.974 191.262M147.974 191.262L147.305 191.772L148.978 193.097L149.94 192.291M147.974 191.262L149.94 192.291M127.66 216.785L129.387 217.384L130.113 219.176L131.463 220.335L130.923 220.884L129.003 218.434L127.753 217.441L127.66 216.785ZM128.601 205.535L130.071 207.425L130.982 207.947L131.693 209.213L130.956 210.39L128.875 208.972L129.191 207.377L128.601 205.535ZM140.961 189.54L143.078 192.282L140.657 192.814L140.451 192.041L139.259 192.043L138.075 190.209L139.914 189.523L140.961 189.54Z" stroke="white" stroke-width="5"/>
</svg>
