<svg width="315" height="320" viewBox="0 0 315 320" fill="none" xmlns="http://www.w3.org/2000/svg">
<path d="M205.974 312.364L205.74 313.964L204.39 313.432L204.438 312.346L205.298 311.656L205.974 312.364ZM208.785 311.651L206.748 310.543L209.782 309.569L209.735 311.378L208.785 311.651ZM220.006 307.958L218.155 310.169L216.571 311.322L214.128 311.855L211.473 312.008L211.381 309.537L212.082 308.481L215.44 306.877L218.95 305.508L222.889 304.247L222.878 304.945L221.06 306.387L220.006 307.958ZM210.032 293.33L210.566 293.171L211.799 294.65L213.446 295.866L214.637 295.05L215.722 295.078L213.731 298.216L208.847 302.814L207.91 304.34L206.771 305.478L206.109 304.496L205.342 304.572L204.841 303.394L204.828 301.443L205.869 299.647L206.469 299.304L207.285 297.621L207.468 301.429L208.76 301.59L209.702 299.556L208.396 298.687L209.373 296.63L208.523 295.032L207.284 296.857L206.494 295.071L205.956 294.735L206.081 293.219L207.467 292.47L209.484 292.465L210.032 293.33ZM201.498 289.879L203.135 293.114L202.871 294.664L201.498 289.879ZM248.963 307.193L246.126 307.631L243.293 309.246L239.837 309.644L237.085 311.226L235.985 311.546L232.274 311.733L231.059 312.757L231.031 314.212L229.929 314.956L225.786 316.6L224.807 316.818L222.859 316.537L219.463 315.723L217.092 315.922L210.896 315.178L207.379 315.091L207.7 314.195L209.082 314.387L210.568 314.029L211.473 312.008L216.571 311.322L220.015 312.283L221.733 313.888L222.962 314.506L223.968 313.963L224.298 312.14L225.691 310.274L222.669 309.376L220.022 311.071L219.492 311.899L217.069 311.385L218.708 310.03L221.06 306.387L222.878 304.945L224.293 303.39L228.077 302.607L231.465 301.305L237.754 298.37L239.81 297.695L246.612 293.748L248.745 292.2L250.883 290.24L250.932 291.961L251.435 294.255L250.827 296.306L251.027 299.866L250.426 301.768L249.648 303.188L249.526 306.783L248.963 307.193ZM207.065 286.935L210.507 288.765L207.552 290.919L207.148 288.876L206.054 288.17L207.065 286.935ZM229.117 281.244L227.364 282.942L225.47 283.57L224.521 282.478L222.856 281.312L230.449 279.03L229.117 281.244ZM198 274.997L201.042 279.508L201.737 283.517L202.327 286.005L201.796 286.356L200.976 282.144L196.983 274.976L198 274.997ZM256.65 273.689L255.707 274.384L255.674 272.052L256.989 271.509L256.65 273.689ZM268.624 258.97L262.883 262.731L264.061 265.079L264.406 266.65L263.679 268.319L261.636 270.24L260.163 273.162L257.84 275.197L258.056 277.836L257.62 278.879L256.058 280.771L255.226 283.226L254.137 284.22L252.82 284.272L252.177 286.604L249.994 290.728L247.27 292.899L248.038 290.864L249.994 290.728L250.128 286.732L250.62 284.822L251.295 284.344L251.894 282.57L253.711 281.172L257.422 273.86L258.894 272.511L259.067 271.706L261.128 269.012L259.522 269.526L261.385 265.558L261.665 262.058L264.454 260.947L268.624 258.97ZM289.933 233.39L290.66 234.135L292.634 233.772L292.676 235.598L293.325 236.988L292.106 237.117L288.33 235.527L288.443 233.974L289.423 232.01L289.933 233.39ZM207.806 40.6731L208.131 41.5902L208.122 45.9117L209.09 48.371L208.723 49.7726L206.562 52.8689L203.859 52.2003L200.873 52.2376L200.33 53.3235L200.057 55.9715L198.972 55.9552L196.387 54.5576L193.332 54.7311L191.701 55.083L190.497 55.8108L189.567 57.5058L189.934 58.5009L189.83 61.1328L190.585 62.7688L190.292 63.5544L189.071 64.3963L187.482 66.2223L186.611 67.7529L188.263 73.0388L188.332 77.2763L187.478 78.1608L184.344 78.8166L182.887 78.841L179.444 75.9263L178.402 77.1214L178.881 78.5508L180.042 80.4531L180.526 85.3292L180.459 88.7686L180.999 90.3081L182.681 90.7807L183.557 92.2878L186.226 93.6036L187.505 93.9242L187.917 95.6354L188.71 96.3798L190.488 95.2445L191.1 95.3442L192.348 96.674L193.31 95.6662L194.633 95.722L195.745 96.6397L199.62 98.0554L200.195 97.7082L202.336 98.1091L204.151 97.5988L205.38 97.627L206.279 96.6352L208.649 97.7024L209.754 97.2675L212.036 98.0439L214.412 100.576L216.646 103.611L216.119 105.687L214.409 106.354L212.788 108.401L212.835 109.706L213.489 110.282L218.058 110.749L220.002 110.623L222.648 110.782L224.795 111.673L226.177 113.519L227.796 113.437L230.661 116.245L233.305 117.74L235.659 120.839L237.014 120.58L238.359 121.967L241.017 122.783L246.363 128.946L249.502 129.353L252.627 130.798L254.14 132.093L255.646 135.05L256.985 136.753L258.265 139.758L261.549 141.975L264.16 144.947L265.814 148.165L266.938 149.606L268.997 150.486L270.354 149.747L270.818 152.012L272.406 151.339L273.994 152.033L274.251 153.752L275.86 154.278L276.382 154.969L278.194 155.52L278.41 157.319L279.309 158.11L280.704 160.221L280.595 161.111L279.665 162.309L279.471 163.434L279.651 167.3L278.927 168.993L278.306 171.852L277.661 173.123L277.858 176.24L278.807 177.573L280.183 181.114L281.999 181.413L285.451 183.032L286.837 184.806L286.703 186.336L288.082 188.787L288.34 192.383L288.835 193.445L289.969 194.145L291.901 194.697L293.91 197.064L295.281 197.682L303.797 205.064L307.159 206.514L311.024 219.28L310.025 219.532L306.289 217.513L306.901 212.883L307.332 212.233L307.257 209.551L306.706 209.532L306.576 211.476L306.047 213.559L305.714 216.874L302.6 216.387L301.272 217.077L299.965 218.46L298.926 216.883L301.174 216.21L301.489 215.111L301.079 212.953L300.476 212.486L297.503 213.881L296.741 215.369L296.554 218.337L296.806 218.949L297.798 223.96L297.892 225.349L297.583 228.691L296.626 229.439L293.83 229.286L292.305 228.63L289.43 228.498L287.982 230.281L287.739 231.113L287.844 235.446L287.56 238.474L287.647 241.013L289.26 242.292L290.419 243.722L287.766 248.15L286.38 249.374L281.828 251.326L279.064 252.756L277.162 253.379L272.553 255.736L262.267 260.491L261.58 261.155L258.14 266.672L256.746 268.706L254.711 272.141L251.865 276.523L249.666 279.582L246.62 284.437L245.607 285.697L241.36 286.923L241.205 287.852L243.608 287.781L246.252 286.517L246.992 287.255L244.745 289.67L243.648 292.533L241.912 293.521L241.412 296.066L238.62 297.653L234.586 299.242L233.025 300.149L229.056 301.692L227.246 302.579L224.209 302.459L224.497 301.327L224.46 297.891L225.636 296.892L227.032 297.399L228.906 299.254L230.056 297.273L231.617 296.423L231.481 294.692L232.419 293.358L233.404 293.176L235.253 293.972L237.041 295.765L238.548 295.506L238.881 293.268L239.412 292.131L239.013 291.401L239.327 290.11L238.443 289.674L238.238 287.89L235.103 290.822L232.83 292.544L231.79 292.877L228.953 292.891L227.956 291.517L226.038 291.852L223.333 292.659L222.213 293.376L220.723 294.943L221.254 297.004L222.333 297.524L222.365 298.488L224.02 299.099L224.497 301.327L223.107 303.46L221.405 304.221L212.082 308.481L208.326 309.464L206.357 310.053L205.602 309.558L205.741 308.36L206.918 307.635L207.295 306.548L208.45 305.33L209.895 303.018L211.777 300.722L213.384 299.455L214.793 297.457L216.61 294.038L218.806 294.006L220.543 293.017L220.949 291.659L218.617 292.302L218.873 291.01L219.894 290.261L222.102 287.902L223.16 286.224L223.575 284.73L224.607 284.116L227.896 282.929L229.124 281.919L230.449 279.03L225.389 280.396L222.856 281.312L223.801 282.252L224.607 284.116L223.575 284.73L222.464 286.84L220.135 289.523L217.419 291.602L215.256 292.948L214.295 292.168L212.831 292.265L211.902 293.46L210.566 293.171L209.176 290.536L212.031 291.326L214.435 290.964L217.525 289.849L218.964 288.661L220.897 287.65L222.147 285.94L221.683 284.854L223.146 283.181L223.193 282.361L219.279 281.646L218.874 282.017L216.301 281.242L214.585 282.827L213.985 284.769L214.113 285.982L213.682 286.99L215.418 287.274L216.603 288.074L215.048 289.31L214.585 288.107L212.736 289.729L211.93 289.47L208.723 286.999L207.618 285.801L211.176 282.748L214.773 279.399L218.367 277.5L221.289 274.49L225.905 271.541L232.697 266.964L231.982 266.833L227.663 269.975L221.289 274.49L219.293 275.757L218.367 277.5L216.086 278.091L213.96 279.669L211.176 282.748L206.405 286.233L205.554 284.675L205.162 282.083L204.41 282.126L203.309 280.647L202.812 279.403L201.741 279.118L201.026 276.499L200.522 276.173L200.12 274.284L198.775 273.324L196.203 273.669L193.95 274.367L194.546 275.17L193.636 275.784L190.091 274.974L191.475 273.55L193.355 272.646L198.088 272.379L199.816 272.003L201.426 272.312L202.307 271.72L205.119 273.203L208.354 274.21L209.633 273.679L210.053 275.485L208.77 275.853L208.88 277.077L210.053 275.485L210.403 274.844L209.633 273.679L208.717 272.685L208.354 274.21L206.739 273.095L204.457 272.567L201.797 270.97L200.471 271.072L198.088 272.379L194.634 272.157L191.841 272.614L188.912 275.108L188.182 273.744L189.107 273.379L189.478 272.42L190.589 271.968L190.897 271.002L192.77 269.74L193.022 268.27L195.027 269.2L195.965 269.164L194.745 266.628L194.471 263.395L193.992 262.554L195.067 261.681L195.834 258.495L195.369 257.86L193.398 256.932L191.869 257.895L191.76 256.171L190.741 256.276L190.993 261.474L191.868 262.603L191.866 263.602L190.083 263.31L188.993 262.255L188.661 264.133L186.617 261.143L187.104 260.654L185.222 258.237L183.351 256.962L180.683 254.056L174.836 250.141L168.152 246.629L166.474 245.491L165.254 243.865L162.882 244.436L159.239 243.947L149.663 241.65L145.152 240.943L144.43 241.028L143.391 242.227L141.487 243.275L139.037 243.094L136.073 241.964L134.02 242.286L132.327 242.101L129.294 243.106L126.966 244.833L124.179 244.643L121.888 243.602L120.434 243.242L118.795 242.401L114.248 241.093L111.838 240.668L108.399 241.092L105.983 240.192L99.4698 238.713L96.4653 239.158L94.758 238.892L93.69 239.262L91.0872 239.043L89.0873 239.651L84.5717 238.779L80.5953 238.73L74.4596 240.135L73.6579 240.748L71.8076 240.803L69.0724 240.377L67.1858 240.608L65.9481 241.385L60.3831 241.215L58.9471 241.585L58.1246 242.572L56.4945 241.828L53.2347 241.038L49.1074 240.286L47.2587 240.133L46.6766 240.711L44.8629 240.53L41.5504 239.808L39.9774 239.066L33.0556 236.977L30.2148 236.466L28.6314 235.512L27.101 235.329L23.8934 234.339L22.0193 234.447L20.4821 233.514L17.0307 232.594L14.5911 231.719L12.9362 231.946L10.9403 231.231L9.79687 231.287L9.25616 225.159L8.68363 222.202L8.28082 217.378L7.80023 216.514L7.69715 214.638L8.47607 212.77L8.39342 210.326L7.455 207.377L6.30299 205.725L7.12324 202.886L7.39371 200.388L6.5138 198.575L5.95149 196.517L4.60561 194.521L4.53202 193.776L5.92734 191.062L5.33671 189.177L5.28749 184.425L5.09781 182.62L4.31146 180.06L3.48773 175.891L3.42969 172.764L4.05445 168.064L4.56382 166.706L5.63783 165.605L8.69036 164.105L10.4653 163.774L13.3639 163.831L15.3461 163.155L16.712 163.332L18.0107 164.032L19.3287 164.002L20.1622 164.521L22.2591 166.954L23.2294 169.332L24.7429 171.254L27.5284 172.205L31.479 175.006L33.7844 176.365L36.6981 177.451L38.45 177.138L40.4641 174.553L42.0198 173.262L42.8319 171.79L42.1443 169.952L40.5258 169.046L38.2104 166.842L36.6317 165.842L35.6271 164.533L33.38 163.412L31.8688 161.956L31.5451 161.097L33.6082 157.669L34.6982 157.273L37.0294 157.695L41.8055 156.808L44.329 157.417L47.332 157.526L48.6117 157.877L50.1731 158.954L51.8897 158.381L53.4171 157.021L54.9267 156.85L57.9073 157.074L60.6011 155.417L64.8579 152.314L66.0308 150.796L67.7444 149.605L68.9273 147.149L70.5365 146.108L72.8662 145.571L75.0347 143.778L76.5584 143.72L78.0162 144.882L78.767 147.374L80.5468 148.642L81.7515 148.718L85.8098 147.576L91.9009 145.531L94.696 145.211L95.9381 145.677L98.8878 146.103L102.61 145.877L104.052 144.568L103.653 142.097L103.907 140.432L103.622 137.883L102.562 135.764L102.963 133.713L101.635 132.098L102.025 128.033L103.774 125.201L105.8 123.695L107.612 123.344L111.253 124.14L115.069 123.419L118.799 121.681L120.607 119.862L122.53 114.795L120.567 113.646L120.342 112.798L120.009 107.963L120.637 106.832L124.777 101.933L126.782 97.2594L127.137 95.6709L128.38 92.1791L128.526 89.9855L128.077 88.3113L128.986 86.7775L130.471 85.1329L131.11 83.9052L131.268 81.7891L130.959 78.007L131.827 76.3007L133.66 76.0538L136.308 74.6489L138.432 74.3197L141.149 74.4611L143.548 74.284L147.848 74.7603L149.607 75.279L151.466 76.3692L152.642 77.3959L154.032 77.1545L155.219 76.3509L159.667 75.4015L162.415 75.1016L164.077 75.2469L166.894 74.8973L169.839 75.7434L170.718 75.557L170.667 73.9713L168.431 72.4L163.423 71.0451L158.981 68.0557L155.178 64.3199L153.718 61.3047L150.943 57.9007L150.564 56.7225L150.496 54.0639L151.187 50.967L151.484 48.7025L151.507 46.3805L151.182 44.7717L149.872 42.8011L147.75 40.5755L144.462 35.7363L143.01 34.6209L141.14 31.5802L140.921 29.6105L140.23 28.2914L140.862 26.7433L139.591 25.2344L138.837 22.8385L141.787 23.2194L146.898 21.5165L149.091 21.3582L150.486 20.9052L154.846 20.9745L157.685 20.6419L159.027 20.1308L159.915 19.1292L161.233 18.4088L162.232 16.7719L164.687 13.5912L166.468 12.0317L168.07 11.0718L176.981 7.33469L183.913 4.05531L188.234 2.93447L188.844 3.64046L191.09 3.44259L192.53 2.92902L197.394 2.71094L198.953 2.79524L201.224 3.85691L205.211 6.10801L207.654 9.08172L207.964 10.519L205.196 10.4065L203.667 11.7642L201.638 12.2782L199.913 14.2694L200.57 16.0263L200.689 17.7223L202.186 19.5671L204.269 19.2231L205.487 20.1063L205.565 21.8557L207.097 23.7216L207.647 25.2273L208.428 28.689L208.438 29.7618L207.346 32.1048L206.838 34.5357L207.536 36.614L207.067 37.344L207.806 40.6731Z" fill="#1E1E1E"/>
<path d="M216.571 311.322L218.155 310.169L220.006 307.958L221.06 306.387M216.571 311.322L214.128 311.855L211.473 312.008M216.571 311.322L211.473 312.008M216.571 311.322L220.015 312.283L221.733 313.888L222.962 314.506L223.968 313.963L224.298 312.14L225.691 310.274L222.669 309.376L220.022 311.071L219.492 311.899L217.069 311.385L218.708 310.03L221.06 306.387M211.473 312.008L211.381 309.537L212.082 308.481M211.473 312.008L210.568 314.029L209.082 314.387L207.7 314.195L207.379 315.091L210.896 315.178L217.092 315.922L219.463 315.723L222.859 316.537L224.807 316.817L225.786 316.6L229.929 314.956L231.031 314.212L231.059 312.757L232.274 311.733L235.985 311.546L237.085 311.226L239.837 309.644L243.293 309.246L246.126 307.631L248.963 307.193L249.526 306.783L249.648 303.188L250.426 301.768L251.027 299.866L250.827 296.306L251.435 294.255L250.932 291.961L250.883 290.24L248.745 292.2L246.612 293.748L239.81 297.696L237.754 298.37L231.465 301.305L228.077 302.607L224.293 303.39L222.878 304.945M212.082 308.481L215.44 306.877L218.95 305.508L222.889 304.247L222.878 304.945M212.082 308.481L221.405 304.221L223.107 303.46L224.497 301.327M212.082 308.481L208.326 309.464L206.357 310.053L205.602 309.558L205.741 308.36L206.918 307.635L207.295 306.548L208.45 305.33L209.895 303.018L211.777 300.722L213.384 299.455L214.793 297.457L216.61 294.038L218.806 294.006L220.543 293.017L220.949 291.659L218.617 292.302L218.873 291.01L219.894 290.261L222.102 287.902L223.16 286.224L223.575 284.73M222.878 304.945L221.06 306.387M210.566 293.171L210.032 293.33L209.484 292.465L207.467 292.47L206.081 293.219L205.956 294.735L206.494 295.071L207.284 296.857L208.523 295.032L209.373 296.63L208.396 298.687L209.702 299.556L208.76 301.59L207.468 301.429L207.285 297.621L206.469 299.304L205.869 299.647L204.828 301.443L204.841 303.394L205.342 304.572L206.109 304.496L206.771 305.478L207.91 304.34L208.847 302.814L213.731 298.216L215.722 295.078L214.637 295.05L213.446 295.866L211.799 294.65L210.566 293.171ZM210.566 293.171L211.902 293.459L212.831 292.265L214.295 292.168L215.256 292.948L217.419 291.602L220.135 289.523L222.464 286.84L223.575 284.73M210.566 293.171L209.176 290.536L212.031 291.326L214.435 290.964L217.525 289.849L218.964 288.661L220.897 287.65L222.147 285.94L221.683 284.854L223.146 283.181L223.193 282.361L219.279 281.646L218.874 282.017L216.301 281.242L214.585 282.827L213.985 284.769L214.113 285.982L213.682 286.99L215.418 287.274L216.603 288.074L215.048 289.31L214.585 288.107L212.736 289.729L211.93 289.47L208.723 286.999L207.618 285.801L211.176 282.748M222.856 281.312L224.521 282.478L225.47 283.57L227.364 282.942L229.117 281.244L230.449 279.03M222.856 281.312L230.449 279.03M222.856 281.312L225.389 280.396L230.449 279.03M222.856 281.312L223.801 282.252L224.607 284.116M230.449 279.03L229.124 281.919L227.896 282.929L224.607 284.116M249.994 290.728L252.177 286.604L252.82 284.272L254.137 284.22L255.226 283.226L256.058 280.771L257.62 278.879L258.056 277.836L257.84 275.197L260.163 273.162L261.636 270.24L263.679 268.319L264.407 266.65L264.061 265.079L262.883 262.731L268.624 258.97L264.454 260.947L261.665 262.058L261.385 265.558L259.522 269.526L261.128 269.012L259.067 271.706L258.894 272.511L257.422 273.86L253.711 281.172L251.894 282.57L251.295 284.344L250.62 284.822L250.128 286.732L249.994 290.728ZM249.994 290.728L247.27 292.899L248.038 290.864L249.994 290.728ZM224.497 301.327L224.209 302.459L227.246 302.579L229.056 301.692L233.025 300.149L234.586 299.242L238.62 297.653L241.412 296.066L241.912 293.521L243.648 292.533L244.744 289.67L246.992 287.255L246.252 286.517L243.608 287.781L241.205 287.852L241.36 286.923L245.607 285.697L246.62 284.437L249.666 279.582L251.865 276.523L254.711 272.141L256.746 268.706L258.14 266.672L261.58 261.155L262.267 260.491L272.553 255.736L277.162 253.379L279.064 252.756L281.828 251.326L286.38 249.374L287.766 248.15L290.419 243.722L289.26 242.292L287.647 241.013L287.56 238.474L287.844 235.446L287.739 231.113L287.982 230.281L289.43 228.498L292.305 228.63L293.83 229.286L296.626 229.439L297.583 228.691L297.892 225.349L297.798 223.96L296.806 218.949L296.554 218.337L296.741 215.369L297.503 213.881L300.476 212.486L301.079 212.953L301.489 215.111L301.174 216.21L298.926 216.883L299.965 218.46L301.272 217.077L302.6 216.387L305.714 216.874L306.047 213.559L306.575 211.476L306.706 209.532L307.257 209.551L307.332 212.233L306.901 212.883L306.289 217.513L310.025 219.532L311.024 219.28L307.159 206.514L303.797 205.064L295.281 197.682L293.91 197.064L291.901 194.697L289.969 194.145L288.835 193.445L288.34 192.383L288.082 188.787L286.703 186.336L286.837 184.806L285.451 183.032L281.999 181.413L280.183 181.114L278.807 177.573L277.858 176.24L277.661 173.123L278.306 171.852L278.927 168.993L279.651 167.3L279.471 163.434L279.665 162.309L280.595 161.111L280.704 160.221L279.309 158.11L278.41 157.319L278.194 155.52L276.382 154.969L275.86 154.278L274.251 153.752L273.994 152.033L272.406 151.339L270.818 152.012L270.354 149.747L268.997 150.486L266.938 149.606L265.814 148.165L264.16 144.947L261.549 141.975L258.265 139.758L256.985 136.753L255.646 135.05L254.14 132.093L252.627 130.798L249.502 129.353L246.363 128.946L241.017 122.783L238.359 121.967L237.014 120.58L235.659 120.839L233.305 117.74L230.661 116.245L227.796 113.437L226.177 113.519L224.795 111.673L222.648 110.782L220.002 110.623L218.058 110.749L213.489 110.282L212.835 109.706L212.788 108.401L214.409 106.354L216.119 105.687L216.646 103.611L214.412 100.576L212.036 98.0439L209.754 97.2675L208.649 97.7024L206.279 96.6352L205.38 97.627L204.151 97.5988L202.336 98.1091L200.195 97.7082L199.62 98.0554L195.745 96.6397L194.633 95.722L193.31 95.6662L192.348 96.674L191.1 95.3442L190.488 95.2445L188.71 96.3798L187.917 95.6354L187.505 93.9242L186.226 93.6036L183.557 92.2878L182.681 90.7807L180.999 90.3081L180.459 88.7686L180.526 85.3292L180.042 80.4531L178.881 78.5508L178.402 77.1214L179.444 75.9263L182.887 78.841L184.344 78.8166L187.478 78.1608L188.332 77.2763L188.263 73.0388L186.611 67.7529L187.482 66.2223L189.071 64.3963L190.292 63.5544L190.585 62.7688L189.83 61.1328L189.934 58.5009L189.567 57.5058L190.497 55.8108L191.701 55.083L193.332 54.7311L196.387 54.5576L198.972 55.9552L200.057 55.9715L200.33 53.3235L200.873 52.2376L203.859 52.2003L206.562 52.8689L208.723 49.7726L209.09 48.371L208.122 45.9117L208.131 41.5902L207.806 40.6731L207.067 37.344L207.536 36.614L206.838 34.5357L207.346 32.1048L208.438 29.7618L208.428 28.689L207.647 25.2273L207.097 23.7216L205.565 21.8557L205.487 20.1063L204.269 19.2231L202.186 19.5671L200.689 17.7223L200.57 16.0263L199.913 14.2694L201.638 12.2782L203.667 11.7642L205.196 10.4065L207.964 10.519L207.654 9.08172L205.211 6.10801L201.224 3.85691L198.953 2.79524L197.394 2.71094L192.53 2.92902L191.09 3.44259L188.844 3.64046L188.234 2.93447L183.913 4.05531L176.981 7.33469L168.07 11.0718L166.468 12.0317L164.687 13.5912L162.232 16.7719L161.233 18.4088L159.915 19.1292L159.027 20.1308L157.685 20.6419L154.846 20.9745L150.486 20.9052L149.091 21.3582L146.898 21.5165L141.787 23.2194L138.837 22.8385L139.591 25.2344L140.862 26.7433L140.23 28.2914L140.921 29.6105L141.14 31.5802L143.01 34.6209L144.462 35.7363L147.75 40.5755L149.872 42.8011L151.182 44.7717L151.507 46.3805L151.484 48.7025L151.187 50.967L150.496 54.0639L150.564 56.7225L150.943 57.9007L153.718 61.3047L155.178 64.3199L158.981 68.0557L163.423 71.0451L168.431 72.4L170.667 73.9713L170.718 75.557L169.839 75.7434L166.894 74.8973L164.077 75.2469L162.415 75.1016L159.667 75.4015L155.219 76.3509L154.032 77.1545L152.642 77.3959L151.466 76.3692L149.607 75.279L147.848 74.7603L143.548 74.284L141.149 74.4611L138.432 74.3197L136.308 74.6489L133.66 76.0538L131.827 76.3007L130.959 78.007L131.268 81.7891L131.11 83.9052L130.471 85.1329L128.986 86.7775L128.077 88.3113L128.526 89.9855L128.38 92.1791L127.137 95.6709L126.782 97.2594L124.777 101.933L120.637 106.832L120.009 107.963L120.342 112.798L120.567 113.646L122.53 114.795L120.607 119.862L118.799 121.681L115.069 123.419L111.253 124.14L107.612 123.344L105.8 123.695L103.774 125.201L102.025 128.033L101.635 132.098L102.963 133.713L102.562 135.764L103.622 137.883L103.907 140.432L103.653 142.097L104.052 144.568L102.61 145.877L98.8878 146.103L95.9381 145.677L94.696 145.211L91.9009 145.531L85.8098 147.576L81.7515 148.718L80.5468 148.642L78.767 147.374L78.0162 144.882L76.5584 143.72L75.0347 143.778L72.8663 145.571L70.5365 146.108L68.9273 147.149L67.7444 149.605L66.0308 150.796L64.8579 152.314L60.6011 155.417L57.9073 157.074L54.9267 156.85L53.4171 157.021L51.8897 158.381L50.1731 158.954L48.6117 157.877L47.332 157.526L44.329 157.417L41.8055 156.808L37.0294 157.695L34.6982 157.273L33.6082 157.669L31.5451 161.097L31.8688 161.956L33.38 163.412L35.6271 164.533L36.6317 165.842L38.2104 166.842L40.5258 169.046L42.1443 169.952L42.8319 171.79L42.0198 173.262L40.4641 174.553L38.45 177.138L36.6981 177.451L33.7844 176.365L31.479 175.006L27.5284 172.205L24.7429 171.254L23.2294 169.332L22.2591 166.954L20.1622 164.521L19.3287 164.002L18.0107 164.032L16.712 163.332L15.3461 163.155L13.3639 163.831L10.4653 163.774L8.69036 164.105L5.63783 165.605L4.56382 166.706L4.05445 168.064L3.42969 172.764L3.48773 175.891L4.31146 180.06L5.09781 182.62L5.28749 184.425L5.33671 189.177L5.92734 191.062L4.53202 193.776L4.60561 194.521L5.95149 196.517L6.5138 198.575L7.39371 200.388L7.12324 202.886L6.30299 205.725L7.455 207.377L8.39342 210.326L8.47607 212.77L7.69715 214.638L7.80023 216.514L8.28082 217.378L8.68363 222.202L9.25616 225.159L9.79687 231.287L10.9403 231.231L12.9362 231.946L14.5911 231.719L17.0307 232.594L20.4821 233.514L22.0193 234.447L23.8934 234.339L27.101 235.329L28.6314 235.512L30.2148 236.466L33.0556 236.977L39.9774 239.066L41.5504 239.808L44.8629 240.53L46.6766 240.711L47.2587 240.133L49.1074 240.286L53.2347 241.038L56.4945 241.828L58.1246 242.572L58.9471 241.585L60.3831 241.215L65.9481 241.385L67.1858 240.608L69.0724 240.377L71.8076 240.803L73.6579 240.748L74.4596 240.135L80.5953 238.73L84.5717 238.779L89.0873 239.651L91.0872 239.043L93.69 239.262L94.758 238.892L96.4654 239.158L99.4698 238.713L105.983 240.192L108.399 241.092L111.838 240.668L114.248 241.093L118.795 242.401L120.434 243.242L121.888 243.602L124.179 244.643L126.966 244.833L129.294 243.106L132.327 242.101L134.02 242.286L136.073 241.964L139.037 243.094L141.487 243.275L143.391 242.227L144.43 241.028L145.152 240.943L149.663 241.65L159.239 243.947L162.882 244.436L165.254 243.865L166.474 245.491L168.152 246.629L174.836 250.141L180.683 254.056L183.351 256.962L185.222 258.237L187.104 260.654L186.617 261.143L188.661 264.133L188.993 262.255L190.083 263.31L191.866 263.602L191.868 262.603L190.993 261.474L190.741 256.276L191.76 256.171L191.869 257.895L193.398 256.932L195.369 257.86L195.834 258.495L195.067 261.681L193.992 262.554L194.471 263.395L194.745 266.628L195.965 269.164L195.027 269.2L193.022 268.27L192.77 269.74L190.897 271.002L190.589 271.968L189.478 272.42L189.107 273.379L188.182 273.744L188.912 275.108L191.841 272.614L194.634 272.157L198.088 272.379M224.497 301.327L224.46 297.891L225.636 296.892L227.032 297.399L228.906 299.254L230.056 297.273L231.617 296.423L231.481 294.692L232.419 293.359L233.404 293.176L235.253 293.972L237.041 295.765L238.548 295.506L238.881 293.268L239.412 292.131L239.013 291.401L239.327 290.11L238.443 289.674L238.238 287.89L235.103 290.822L232.83 292.544L231.79 292.877L228.953 292.891L227.956 291.517L226.038 291.852L223.333 292.659L222.213 293.376L220.723 294.943L221.254 297.004L222.333 297.524L222.365 298.488L224.02 299.099L224.497 301.327ZM223.575 284.73L224.607 284.116M211.176 282.748L214.773 279.399L218.367 277.5M211.176 282.748L213.96 279.669L216.086 278.091L218.367 277.5M211.176 282.748L206.405 286.233L205.554 284.675L205.162 282.083L204.41 282.126L203.309 280.647L202.812 279.403L201.741 279.118L201.026 276.499L200.522 276.173L200.12 274.284L198.775 273.324L196.203 273.669L193.95 274.367L194.546 275.17L193.636 275.784L190.091 274.974L191.475 273.55L193.355 272.646L198.088 272.379M218.367 277.5L221.289 274.49M218.367 277.5L219.293 275.757L221.289 274.49M221.289 274.49L225.905 271.541L232.697 266.964L231.982 266.833L227.663 269.975L221.289 274.49ZM198.088 272.379L199.816 272.003L201.426 272.312L202.307 271.72L205.119 273.203L208.354 274.21M198.088 272.379L200.471 271.072L201.797 270.97L204.457 272.567L206.739 273.095L208.354 274.21M208.354 274.21L209.633 273.679M208.354 274.21L208.717 272.685L209.633 273.679M209.633 273.679L210.053 275.485M209.633 273.679L210.403 274.844L210.053 275.485M210.053 275.485L208.77 275.853L208.88 277.077M210.053 275.485L208.88 277.077M208.88 277.077L210.794 277.862L212.976 279.288M205.974 312.364L205.74 313.964L204.39 313.432L204.438 312.346L205.298 311.656L205.974 312.364ZM208.785 311.651L206.748 310.543L209.782 309.569L209.735 311.378L208.785 311.651ZM201.498 289.879L203.135 293.114L202.871 294.664L201.498 289.879ZM207.065 286.935L210.507 288.765L207.552 290.919L207.148 288.876L206.054 288.17L207.065 286.935ZM198 274.997L201.042 279.508L201.737 283.517L202.327 286.005L201.796 286.356L200.976 282.144L196.983 274.976L198 274.997ZM256.65 273.689L255.707 274.384L255.674 272.052L256.989 271.509L256.65 273.689ZM289.933 233.39L290.66 234.135L292.634 233.772L292.676 235.598L293.325 236.988L292.106 237.117L288.33 235.527L288.443 233.974L289.423 232.01L289.933 233.39Z" stroke="white" stroke-width="5"/>
</svg>
