<svg width="195" height="196" viewBox="0 0 195 196" fill="none" xmlns="http://www.w3.org/2000/svg">
<path d="M141.659 8.47624L142.082 9.63342L141.541 13.1034L142.294 17.0439L141.668 20.3093L141.645 23.1758L142.301 24.9154L144.248 27.3602L144.656 28.429L144.074 30.3351L144.233 31.2048L145.791 33.3044L146.572 34.7589L146.565 35.9203L145.035 38.5513L143.541 42.3974L142.574 43.6776L137.978 46.3025L137.298 47.5066L138.552 50.6436L137.322 52.4861L135.127 53.9987L135.623 54.9658L137.342 56.456L140.026 59.7122L142.661 61.4877L146.145 62.9376L148.713 63.2272L151.313 64.1886L152.624 68.1832L154.245 70.5508L153.758 72.7241L153.176 73.6661L150.221 76.4003L149.585 77.7722L149.87 80.6337L151.208 84.4847L150.95 87.4237L151.143 89.8233L150.75 91.8863L151.12 96.2481L150.771 97.8213L149.519 99.7812L147.696 101.936L146.812 103.578L147.533 104.696L148.965 105.282L152.246 106.184L158.362 110.521L161.164 113.353L163.293 116.26L166.581 118.99L167.892 120.843L168.859 122.721L170.049 127.064L170.978 128.694L173.157 131.071L174.869 132.214L177.217 133.046L178.723 133.941L179.753 135.635L180.171 137.339L180.094 138.891L179.563 140.086L177.119 142.696L175.972 144.645L175.562 147.924L175.834 150.119L176.616 151.72L178.255 153.499L180.309 155.332L182.613 159.424L182.892 162.208L183.692 166.146L185.74 167.971L187.157 169.619L188.111 171.327L187.902 175.214L188.047 176.8L189.107 179.08L190.366 180.388L189.991 181.155L190.856 183.501L191.279 186.192L191.772 192.086L187.165 193.461L184.779 193.347L180.51 192.072L178.076 190.697L174.802 188.552L172.415 187.508L167.727 187.514L164.926 185.957L162.678 184.065L160.81 183.059L157.205 183.255L154.962 183.051L153.611 182.195L152.082 180.063L149.607 178.187L147.616 178.234L145.934 177.744L142.759 175.511L139.497 174.509L135.619 174.562L132.159 175.404L130.349 175.454L128.362 175.093L126.33 174.129L124.399 172.866L123.288 174.73L121.801 173.565L119.813 171.039L119.264 169.947L116.39 167.176L115.84 167.446L114.672 170.652L113.439 170.087L108.934 165.462L106.854 166.116L104.077 168.888L100.917 172.813L100.193 173.283L98.3724 175.947L97.4433 179.153L99.8325 180.887L99.791 181.875L97.1678 182.836L94.3722 182.562L91.9529 181.91L90.3385 180.851L89.2001 178.286L88.4091 175.096L87.2176 173.312L86.0945 173.026L83.8839 171.029L78.2288 166.448L74.987 163.014L71.3914 160.6L68.9884 157.789L66.9615 156.747L65.2704 155.388L60.1325 154.007L59.0783 153.38L57.4445 149.111L56.5636 145.38L55.7987 143.369L55.3001 141.184L55.804 139.307L56.4123 135.394L56.3426 134.629L54.9918 131.519L54.0813 127.225L53.6 126.019L52.2027 124.06L48.8976 120.48L47.773 120.45L45.5067 121.273L44.2776 121.11L41.743 118.14L39.6673 117.696L37.4006 117.711L32.5173 114.992L30.1225 114.523L27.2328 111.735L26.0435 110.954L23.1795 111.278L20.8476 110.251L19.3976 109.89L17.903 111.383L16.0343 115.224L15.0909 116.69L11.9857 118.781L9.58055 119.209L7.17878 117.86L6.28482 116.948L5.73795 115.615L5.78195 113.755L6.64619 109.416L4.85455 105.158L5.60469 102.445L5.53887 100.722L3.41303 98.5615L2.59766 96.1263L2.76911 94.2123L3.54269 91.6649L3.72599 90.0144L3.48221 87.751L4.13716 84.4429L4.72756 83.2642L6.65722 81.59L9.36231 80.1238L11.3209 79.562L16.159 79.6905L17.5437 80.453L18.7268 81.6942L22.2301 80.5508L24.348 81.6455L26.8684 80.8675L28.945 81.0851L30.073 80.8317L30.8597 78.2738L31.1043 75.5804L31.1237 72.5338L32.4879 70.9975L34.9048 71.0143L35.9835 70.3044L37.5283 67.1001L39.1563 65.4559L39.2884 63.9746L40.3262 63.3486L41.4939 61.6046L41.8109 60.4401L41.3019 58.8166L39.5605 58.103L38.7297 56.5169L36.3264 53.3676L36.0032 50.9282L36.3876 49.2876L37.4634 46.4554L39.2519 43.6184L40.9667 41.3549L42.1427 38.4323L42.0591 36.0284L41.2703 31.5983L41.5553 30.0141L42.8416 26.36L43.1074 25.0593L43.2073 21.4277L43.5942 20.3649L43.3855 19.2334L42.0912 17.8219L41.8451 17.0085L42.5972 14.2419L43.2191 13.33L42.6594 9.95394L46.2554 7.89544L47.8477 8.14297L48.5341 6.42823L50.1091 6.31865L50.3088 5.21942L52.446 5.07652L54.4537 5.56258L57.3683 6.75265L59.0743 4.593L60.2931 3.54648L62.3601 3.47974L65.0747 5.26901L65.9456 6.50296L69.9205 6.8879L70.4068 6.61876L71.5572 4.4068L73.5903 3.35156L75.6218 3.49776L77.7696 4.23407L76.5606 6.18949L76.2405 8.97835L77.7607 10.2494L80.6155 11.5309L82.0416 12.9983L82.519 14.5772L84.2095 15.365L86.8263 15.1379L88.6071 14.3453L90.6155 13.9864L91.3213 15.3983L92.8197 15.4833L94.2252 15.0351L96.0986 15.0392L97.3971 15.5255L99.1137 14.6772L100.322 13.7064L103.06 14.0989L106.983 16.6363L107.709 16.5122L109.187 15.0163L114.217 14.4861L116.323 15.0334L118.785 13.6983L122.17 12.8482L124.507 11.8617L128.099 10.6825L131.096 10.2401L135.176 9.35076L141.095 8.38835L141.659 8.47624Z" fill="#1E1E1E" stroke="white" stroke-width="5"/>
</svg>
