<svg width="275" height="209" viewBox="0 0 275 209" fill="none" xmlns="http://www.w3.org/2000/svg">
<path d="M270.596 35.2411L269.844 38.0077L270.09 38.8211L271.384 40.2325L271.593 41.3641L271.206 42.4269L271.106 46.0585L270.84 47.3592L269.554 51.0133L269.269 52.5975L270.058 57.0275L270.141 59.4315L268.965 62.3541L267.25 64.6176L265.462 67.4546L264.386 70.2868L264.002 71.9273L264.325 74.3668L266.728 77.5161L267.559 79.1021L269.3 79.8157L269.809 81.4393L269.492 82.6038L268.325 84.3478L267.287 84.9738L267.155 86.4551L265.527 88.0992L263.982 91.3036L262.903 92.0134L260.486 91.9966L259.122 93.533L259.103 96.5796L258.858 99.273L258.072 101.831L256.944 102.084L254.867 101.867L252.347 102.645L250.229 101.55L246.725 102.693L245.542 101.452L244.158 100.69L239.319 100.561L237.361 101.123L234.656 102.589L232.726 104.263L232.136 105.442L231.481 108.75L231.725 111.014L231.541 112.664L230.768 115.211L230.596 117.126L231.412 119.561L233.537 121.721L233.603 123.445L232.853 126.157L234.645 130.415L233.78 134.754L233.736 136.614L234.283 137.948L235.177 138.859L237.579 140.208L238.062 141.386L237.248 144.525L237.228 147.146L237.708 150.795L238.578 151.804L239.109 154.66L240.667 158.634L241.145 161.766L242.017 164.237L243.05 166.007L240.495 166.095L235.358 167.362L231.93 168.588L229.578 168.895L227.334 170.379L223.303 175.13L222.724 175.656L221.002 175.671L218.811 175.214L217.441 175.842L215.386 175.741L213.736 176.194L209.524 181.5L207.759 183.114L204.969 184.547L203.928 184.674L200.534 184.432L198.725 185.416L197.15 185.665L195.91 186.555L194.67 188.248L194.023 193.576L192.653 197.757L192.651 200.335L191.648 201.703L185.727 202.641L184.492 203.161L181.925 205.38L179.085 206.072L178.008 205.931L175.896 204.895L173.941 202.971L172.893 201.102L173.388 198.715L173.144 196.947L171.793 194.973L170.542 194.13L167.746 190.165L164.848 187.64L162.448 186.399L158.733 181.069L156.917 183.411L155.916 186.645L153.823 189.27L152.87 191.796L151.671 193.315L148.052 195.656L146.487 195.576L144.586 193.366L143.007 192.228L137.668 191.65L135.389 191.122L134.833 190.685L132.376 186.617L131.049 185.139L125.212 177.586L123.48 175.656L121.599 174.789L118.201 177.007L117.129 176.86L115.398 174.318L114.643 173.864L111.004 173.688L107.449 174.203L106.743 172.895L106.991 170.447L106.411 169.03L105.362 169.071L101.832 170.818L100.548 171.26L96.8571 173.212L95.0954 173.366L87.8948 173.612L85.1892 173.938L80.6645 175.167L76.4597 176.495L75.34 177.102L73.1828 179.827L71.7956 180.314L69.44 178.814L68.2785 178.587L66.6562 182.755L63.7885 184.336L61.5123 185.923L59.0902 186.724L56.8986 188.644L55.9444 188.91L54.2294 187.066L52.5633 183.602L51.3328 181.524L49.0321 178.444L46.3763 175.896L42.9393 173.562L42.1282 173.659L40.8652 175.04L39.62 177.06L36.612 180.317L35.0635 180.881L33.2558 181.028L31.2941 180.212L27.7734 177.057L25.6 175.972L25.152 176.418L25.5673 174.995L24.7496 173.782L24.3562 171.475L22.0865 171.254L19.223 170.209L16.5176 168.745L14.1123 169.494L13.4697 168.449L10.3234 160.63L8.84648 158.562L7.73463 157.589L4.97266 155.787L5.86685 155.181L5.99164 153.153L6.85391 151.584L8.524 150.095L11.2617 149.031L13.3518 147.209L12.5408 145.536L13.5041 143.664L13.7993 142.212L12.757 139.69L11.912 138.993L11.3895 136.709L11.6931 135.483L11.8811 131.557L11.5359 128.153L12.4932 126.711L13.7364 125.822L14.8631 124.435L16.2525 123.609L17.9161 121.488L20.8388 119.717L23.5816 119.32L25.11 117.976L26.6852 116.172L31.7581 115.327L33.1008 114.433L34.6023 112.625L35.2634 110.022L34.6534 107.828L35.692 106.356L37.5001 103.091L39.7284 101.873L40.4123 99.9802L41.8689 99.453L43.5163 98.1718L45.2108 98.5314L46.9054 98.0787L47.4623 97.3788L46.8858 95.7166L49.1315 94.9704L50.2825 94.262L51.4638 94.7027L52.2778 93.9539L52.1042 91.8157L51.3837 89.2359L51.0787 86.9121L51.2836 86.0062L53.7718 86.6788L55.0202 86.5117L57.9151 87.2378L59.0555 86.8789L59.9751 85.2724L60.7696 85.9085L62.4892 84.5463L63.2791 83.4607L64.6534 82.6473L65.1679 80.8847L66.4914 79.9639L64.8675 77.0819L64.8032 74.6723L63.9965 70.4182L61.9991 68.3633L63.3213 65.5261L63.7692 62.3206L64.9575 60.7279L64.8129 58.2086L65.7782 57.5422L64.6909 53.7324L65.6494 53.1291L67.4594 52.8718L70.4167 51.8611L74.1857 48.3489L74.7647 47.0253L75.8478 45.8844L78.274 44.1888L82.9918 41.6391L84.7156 41.7393L85.4165 40.8563L85.8959 38.803L86.6867 37.7607L87.8029 37.9609L89.8964 37.5178L91.3863 35.3497L93.0088 34.4485L94.0446 33.026L94.9247 30.7348L96.2655 29.5885L97.2844 29.6767L97.9463 31.0144L100.046 30.5889L102.653 30.5351L104.1 31.9465L105.828 31.0521L107.986 30.617L109.753 30.5684L111.049 29.2805L112.351 28.7735L113.825 28.7345L116.99 27.6852L121.312 27.4081L122.366 27.5476L123.257 26.9185L123.897 25.2396L125.265 24.0564L127.831 23.5474L128.966 22.4869L129.563 20.563L130.894 19.91L131.59 17.9067L134.423 17.9728L135.977 17.5267L138.12 15.5403L138.583 13.5137L138.628 10.049L140.263 10.3993L141.469 12.5666L143.139 12.9391L144.719 12.8789L146.382 14.1497L147.702 15.7685L148.102 17.2929L147.063 18.9287L146.981 19.963L148.816 20.6897L149.692 21.4L151.091 23.7866L152.485 24.0281L154.584 24.9552L155.574 23.9729L156.768 24.0129L157.89 24.9584L159.837 25.809L163.417 26.7534L165.128 28.5674L166.937 31.1946L168.187 32.0004L171.071 33.2548L172.645 32.1603L176.21 32.6456L176.923 32.5048L181.226 30.3836L182.789 26.8041L183.517 24.7381L184.874 23.1366L186.928 21.7494L187.666 20.773L188.641 17.3634L190.489 15.6346L192.043 12.3073L193.521 11.4559L195.158 11.1789L197.449 10.2479L201.793 8.98025L205.048 9.23403L207.659 9.12648L208.919 9.57279L209.424 7.02263L210.55 5.80992L213.973 3.86719L215.202 5.45265L217.397 6.82999L218.809 7.29072L221.073 6.89919L223.053 7.31718L224.064 8.3982L225.223 8.29784L228.301 6.28875L229.382 7.58584L230.152 6.75538L232.331 6.4148L235.535 6.6347L236.548 7.65874L238.651 7.78616L240.936 8.79397L241.346 9.74415L241.574 12.1194L242.201 13.1025L244.403 14.1865L246.453 13.7833L247.999 14.2109L251.489 15.8938L253.773 16.5877L256.138 18.4185L256.483 18.9954L258.182 19.3887L259.704 18.7334L261.115 18.6921L262.814 16.9835L265.754 15.9294L264.722 18.6605L264.658 19.3282L265.716 22.1169L266.442 22.7352L267.184 24.9007L267.055 26.0415L267.943 28.393L266.947 30.6115L267.683 33.0373L267.992 34.9164L270.596 35.2411Z" fill="#1E1E1E" stroke="white" stroke-width="5"/>
</svg>
