<svg width="463" height="215" viewBox="0 0 463 215" fill="none" xmlns="http://www.w3.org/2000/svg">
<path d="M456.857 76.5019L458.392 79.8136L458.922 82.6688L458.192 85.0571L459.668 88.5185L460.326 91.0056L459.641 94.0654L459.736 98.7237L459.973 99.9329L458.46 100.297L452.498 99.7164L450.723 99.9213L449.62 101.043L445.22 100.908L443.424 101.517L440.622 105.291L438.129 106.618L435.709 107.171L433.78 107.091L431.855 106.624L428.589 104.519L427.129 102.992L424.664 99.4563L424.484 98.7727L422.223 95.0735L421.251 92.143L419.787 91.3973L419.012 89.8224L416.863 88.4329L415.574 87.1496L414.128 84.7104L411.511 83.2574L410.414 83.2069L408.954 84.2693L408.033 85.955L409.821 87.1641L411.162 88.9126L412.159 91.5364L413.399 93.5984L416.439 96.0258L417.366 97.4466L418.779 100.819L420.285 102.674L421.995 103.51L423.057 104.952L421.889 106.907L420.005 108.868L418.367 108.795L416.461 106.446L414.142 104.15L412.803 103.108L411.473 104.231L412.16 105.433L413.987 107.116L411.482 109.64L410.539 109.641L409.126 108.297L407.334 108.127L403.834 108.743L400.252 108.159L397.012 107.037L395.751 105.568L395.398 103.423L395.544 101.567L394.828 99.7027L391.167 99.7331L389.706 102.83L388.371 104.457L387.141 106.913L387.378 110.793L388.824 110.894L389.752 109.844L392.153 109.425L394.623 111.354L398.231 114.909L401.367 116.075L405.992 116.753L406.589 117.195L407.416 118.907L408.265 122.305L410.507 125.455L411.228 127.331L413.065 130.044L413.483 131.035L413.023 132.559L414.348 134.428L416.152 140.116L417.297 141.825L420.826 142.486L421.546 142.983L422.83 145.517L423.792 148.923L423.57 151.615L422.694 153.329L422.063 155.318L420.592 158.446L418.522 158.119L415.071 156.173L411.314 154.879L408.803 154.331L402.348 154.367L399.557 154.828L397.52 155.66L396.617 156.765L396.699 160.308L396.339 161.49L393.382 163.367L390.816 164.398L389.562 165.206L387.66 165.907L385.915 167.118L385.146 165.198L383.475 163.104L382.427 162.501L381.198 162.848L379.073 164.787L373.383 167.814L372.883 168.756L372.681 171.734L371.771 175.963L370.871 177.444L369.571 178.579L364.654 181.463L359.627 185.107L357.83 185.845L353.933 184.693L351.825 184.813L348.119 183.38L345.634 183.027L343.039 183.109L340.097 182.261L339.304 181.486L338.93 178.803L338.092 176.035L336.394 168.635L335.294 167.061L334.454 167.348L331.199 173.292L327.511 179.364L323.83 185.176L322.99 186.187L318.615 189.575L317.376 190.799L316.258 192.47L312.701 194.259L311.294 195.304L310.419 196.401L309.602 198.579L307.547 200.106L304.426 203.28L301.821 207.6L300.64 211.018L298.932 212.329L297.382 212.107L295.239 210.366L292.379 208.524L286.982 204.517L285.986 203.553L280.014 199.424L277.998 197.695L273.49 193.313L272.446 191.82L272.022 190.275L272.24 187.104L271.456 183.621L270.481 181.381L269.35 179.521L268.005 178.489L267.851 177.191L266.772 177.015L264.374 178.115L260.788 180.163L259.202 180.443L258.518 180.042L257.392 176.017L255.535 174.255L253.76 173.768L252.093 173.898L249.221 174.603L246.564 173.744L245.006 174.179L242.211 175.987L237.991 176.954L236.761 176.799L233.716 175.763L232.182 175.915L231.152 176.577L228.645 175.888L225.567 174.421L222.322 172.483L219.48 171.184L216.614 170.217L210.596 168.899L204.872 169.687L203.212 169.479L202.471 168.437L201.36 165.188L199.472 163.28L197.988 162.314L194.882 159.666L193.386 158.631L189.336 156.55L188.282 155.483L185.974 153.886L183.542 152.809L181.341 152.422L178.172 153.175L176.311 154.099L173.162 156.351L172.961 157.949L173.812 159.277L176.931 161.9L178.346 162.75L180.352 162.257L181.228 162.41L181.945 163.956L182.046 167.695L181.497 168.649L179.305 169.56L176.528 170.233L173.946 171.414L170.285 172.43L165.888 172.676L162.095 173.032L154.666 173.976L147.862 175.991L146.238 176.763L144.797 178.672L142.411 180.674L141.706 180.873L137.967 180.806L136.02 178.866L135.067 178.51L132.784 178.805L130.497 178.114L128.347 179.308L125.945 181.199L124.802 181.749L123.3 183.603L122.567 185.153L122.103 187.964L121.111 188.911L119.94 188.412L117.786 185.888L116.167 185.531L114.121 186.354L113.08 186.124L110.441 184.369L108.549 183.953L107.137 184.272L103.003 185.74L99.5388 185.83L96.0788 184.236L93.927 183.801L88.4064 183.338L85.9906 182.143L80.761 180.067L79.7307 179.396L77.7992 177.415L76.7029 176.918L75.1681 174.189L72.3508 170.505L71.3934 170.019L68.4346 171.11L67.5412 175.245L65.9594 176.142L63.244 176.265L60.2709 177.125L59.2015 176.914L57.8864 176.168L56.2035 173.078L55.6741 171.126L56.9349 167.765L55.9803 165.938L55.2724 163.833L55.6519 162.03L55.3866 159.237L53.5423 157.045L51.4467 155.547L47.2911 152.962L44.8518 150.986L43.2648 150.173L39.4434 147.703L39.3861 146.561L41.3163 143.489L41.232 141.22L40.6963 136.866L39.837 132.005L38.1976 125.001L36.2088 124.093L33.8991 124.637L31.5481 126.21L29.4188 126.284L28.0072 125.221L27.157 125.297L26.034 126.384L24.6307 126.766L21.9749 125.223L16.5791 120.144L17.4355 118.932L19.5791 117.081L19.6668 115.989L20.7146 114.789L20.4859 112.799L17.8583 108.698L17.4847 106.631L19.7549 104.485L20.618 102.038L20.4979 101.048L19.445 99.808L17.9271 99.4692L17.1416 99.8068L14.5671 99.9844L13.6786 99.3294L13.9216 98.0189L15.6186 95.7529L16.0629 94.1826L14.4327 94.6277L11.6606 95.9433L11.4641 94.7613L13.0402 91.3485L13.0672 89.7117L12.0387 87.5701L9.1782 83.6795L7.16101 80.7198L6.60962 77.9882L4.06947 74.7618L3.24609 72.1231L3.65018 69.4755L4.90516 67.9013L7.25713 66.7993L11.5781 66.8879L13.4267 67.1378L16.7271 68.2086L17.3363 69.7146L15.1977 71.9233L14.573 73.3294L14.8432 74.1662L16.4967 76.1346L17.5446 76.1163L18.4612 75.2118L18.9819 73.837L20.9172 71.4221L22.8867 70.2764L24.56 70.7771L28.4606 68.7788L33.6528 67.5805L34.6154 67.6306L37.1988 66.9105L41.497 64.3798L43.9902 62.1636L48.4644 60.9078L49.4045 60.4468L51.3109 58.606L51.7998 56.4629L53.0886 54.8836L55.9783 53.359L58.46 51.0066L61.9395 49.2533L63.1549 48.4197L63.6028 47.9739L65.7763 49.059L69.297 52.2135L71.2587 53.0295L73.0663 52.8825L74.6149 52.3185L77.6228 49.062L78.8681 47.0411L80.131 45.6605L80.9421 45.5637L84.3791 47.8978L87.0349 50.4453L89.3357 53.525L90.5661 55.6036L92.2322 59.0676L93.9472 60.9117L94.9014 60.6458L97.0931 58.7258L99.5152 57.9246L101.791 56.3376L104.659 54.7567L106.281 50.5881L107.443 50.8153L109.798 52.316L111.186 51.8286L113.343 49.1037L114.463 48.4969L118.667 47.1689L123.192 45.9397L125.898 45.6139L133.098 45.368L134.86 45.2132L138.55 43.2611L139.834 42.8199L143.365 41.072L144.414 41.0311L144.993 42.4481L144.745 44.8965L145.452 46.2048L149.007 45.6896L152.646 45.8651L153.4 46.32L155.132 48.8612L156.204 49.0088L159.602 46.7904L161.483 47.658L163.215 49.5874L169.052 57.1408L170.379 58.6189L172.836 62.6865L173.392 63.1233L175.671 63.651L181.01 64.2292L182.589 65.3676L184.49 67.5773L186.055 67.6577L189.674 65.3167L190.873 63.7977L191.826 61.2715L193.919 58.6463L194.92 55.4126L196.736 53.071L200.451 58.4004L202.851 59.642L205.748 62.1661L208.545 66.1313L209.795 66.9744L211.147 68.9481L211.391 70.7163L210.896 73.1038L211.943 74.9724L213.899 76.8962L216.011 77.933L217.088 78.0735L219.928 77.3814L222.495 75.1629L223.73 74.6423L229.651 73.7041L230.654 72.3361L230.656 69.7589L232.025 65.5774L232.673 60.2494L233.913 58.5563L235.153 57.6669L236.728 57.4172L238.537 56.4333L241.931 56.6757L242.972 56.5486L245.762 55.116L247.527 53.5012L251.738 48.1958L253.389 47.7421L255.444 47.8438L256.814 47.2156L259.004 47.6722L260.727 47.6578L261.306 47.1314L265.336 42.3801L267.581 40.8968L269.933 40.59L273.361 39.3639L278.498 38.0961L281.053 38.009L280.02 36.2385L279.148 33.7671L278.67 30.6357L277.112 26.6617L276.581 23.806L275.711 22.7962L275.231 19.1472L275.251 16.5267L276.064 13.3873L275.582 12.2097L277.987 11.7821L281.092 9.69056L282.036 8.2248L283.904 4.38418L285.399 2.89062L286.849 3.25153L289.181 4.27906L292.045 3.95495L293.234 4.73581L296.124 7.52358L298.519 7.9926L303.402 10.7114L305.669 10.697L307.744 11.1411L310.279 14.111L311.508 14.2738L313.774 13.4504L314.899 13.4808L318.204 17.0603L319.601 19.0194L320.083 20.2261L320.993 24.5198L322.344 27.6297L322.414 28.395L321.805 32.3079L321.301 34.185L321.8 36.3697L322.565 38.3807L323.446 42.1115L325.08 46.3805L326.134 47.0075L331.272 48.3889L332.963 49.7481L334.99 50.7894L337.393 53.6003L340.988 56.0151L344.23 59.4491L349.885 64.03L352.096 66.0271L353.219 66.3131L354.41 68.0968L355.201 71.2865L356.34 73.8521L357.954 74.9104L360.374 75.5628L363.169 75.8367L365.792 74.8753L365.834 73.8877L363.445 72.1533L364.374 68.9476L366.194 66.2841L366.919 65.8137L370.078 61.8884L372.855 59.1169L374.935 58.463L379.44 63.0878L380.673 63.653L381.841 60.4464L382.392 60.1766L385.266 62.9479L385.814 64.0397L387.802 66.566L389.289 67.7306L390.4 65.8668L392.331 67.1299L394.363 68.0939L396.35 68.4551L398.16 68.4047L401.621 67.563L405.499 67.5099L408.76 68.5114L411.935 70.7445L413.618 71.2346L415.609 71.1876L418.084 73.0637L419.612 75.1956L420.963 76.0518L423.207 76.2557L426.811 76.0602L428.68 77.0656L430.927 78.9575L433.728 80.5146L438.416 80.5087L440.803 81.5522L444.078 83.6975L446.511 85.0725L450.781 86.3474L453.166 86.462L458.192 85.0571L457.281 79.1929L456.857 76.5019Z" fill="#1E1E1E"/>
<path d="M458.192 85.0571L458.922 82.6688L458.392 79.8136L456.857 76.5019L457.281 79.1929L458.192 85.0571ZM458.192 85.0571L459.668 88.5185L460.326 91.0056L459.641 94.0654L459.736 98.7237L459.973 99.9329L458.46 100.297L452.498 99.7164L450.723 99.9213L449.62 101.043L445.22 100.908L443.424 101.517L440.622 105.291L438.129 106.618L435.709 107.171L433.78 107.091L431.855 106.624L428.589 104.519L427.129 102.992L424.664 99.4563L424.484 98.7727L422.223 95.0735L421.251 92.143L419.787 91.3973L419.012 89.8224L416.863 88.4329L415.574 87.1496L414.128 84.7104L411.511 83.2574L410.414 83.2069L408.954 84.2693L408.033 85.955L409.821 87.1641L411.162 88.9126L412.159 91.5364L413.399 93.5984L416.439 96.0258L417.366 97.4466L418.779 100.819L420.285 102.674L421.995 103.51L423.057 104.952L421.889 106.907L420.005 108.868L418.367 108.795L416.461 106.446L414.142 104.15L412.803 103.108L411.473 104.231L412.16 105.433L413.987 107.116L411.482 109.64L410.539 109.641L409.126 108.297L407.334 108.127L403.834 108.743L400.252 108.159L397.012 107.037L395.751 105.568L395.398 103.423L395.544 101.567L394.828 99.7027L391.167 99.7331L389.706 102.83L388.371 104.457L387.141 106.913L387.378 110.793L388.824 110.894L389.752 109.844L392.153 109.425L394.623 111.354L398.231 114.909L401.367 116.075L405.992 116.753L406.589 117.195L407.416 118.907L408.265 122.305L410.507 125.455L411.228 127.331L413.065 130.044L413.483 131.035L413.023 132.559L414.348 134.428L416.152 140.116L417.297 141.825L420.826 142.486L421.546 142.983L422.83 145.517L423.792 148.923L423.57 151.615L422.694 153.329L422.063 155.318L420.592 158.446L418.522 158.119L415.071 156.173L411.314 154.879L408.803 154.331L402.348 154.367L399.557 154.828L397.52 155.66L396.617 156.765L396.699 160.308L396.339 161.49L393.382 163.367L390.816 164.398L389.562 165.206L387.66 165.907L385.915 167.118L385.146 165.198L383.475 163.104L382.427 162.501L381.198 162.848L379.073 164.787L373.383 167.814L372.883 168.756L372.681 171.734L371.771 175.963L370.871 177.444L369.571 178.579L364.654 181.463L359.627 185.107L357.83 185.845L353.933 184.693L351.825 184.813L348.119 183.38L345.634 183.027L343.039 183.109L340.097 182.261L339.304 181.486L338.93 178.803L338.092 176.035L336.394 168.635L335.294 167.061L334.454 167.348L331.199 173.292L327.511 179.364L323.83 185.176L322.99 186.187L318.615 189.575L317.376 190.799L316.258 192.47L312.701 194.259L311.294 195.304L310.419 196.401L309.602 198.579L307.547 200.106L304.426 203.28L301.821 207.6L300.64 211.018L298.932 212.329L297.382 212.107L295.239 210.366L292.379 208.524L286.982 204.517L285.986 203.553L280.014 199.424L277.998 197.695L273.49 193.313L272.446 191.82L272.022 190.275L272.24 187.104L271.456 183.621L270.481 181.381L269.35 179.521L268.005 178.489L267.851 177.191L266.772 177.015L264.374 178.115L260.788 180.163L259.202 180.443L258.518 180.042L257.392 176.017L255.535 174.255L253.76 173.768L252.093 173.898L249.221 174.603L246.564 173.744L245.006 174.179L242.211 175.987L237.991 176.954L236.761 176.799L233.716 175.763L232.182 175.915L231.152 176.577L228.645 175.888L225.567 174.421L222.322 172.483L219.48 171.184L216.614 170.217L210.596 168.899L204.872 169.687L203.212 169.479L202.471 168.437L201.36 165.188L199.472 163.28L197.988 162.314L194.882 159.666L193.386 158.631L189.336 156.55L188.282 155.483L185.974 153.886L183.542 152.809L181.341 152.422L178.172 153.175L176.311 154.099L173.162 156.351L172.961 157.949L173.812 159.277L176.931 161.9L178.346 162.75L180.352 162.257L181.228 162.41L181.945 163.956L182.046 167.695L181.497 168.649L179.305 169.56L176.528 170.233L173.946 171.414L170.285 172.43L165.888 172.676L162.095 173.032L154.666 173.976L147.862 175.991L146.238 176.763L144.797 178.672L142.411 180.674L141.706 180.873L137.967 180.806L136.02 178.866L135.067 178.51L132.784 178.805L130.497 178.114L128.347 179.308L125.945 181.199L124.802 181.749L123.3 183.603L122.567 185.153L122.103 187.964L121.111 188.911L119.94 188.412L117.786 185.888L116.167 185.531L114.121 186.354L113.08 186.124L110.441 184.369L108.549 183.953L107.137 184.272L103.003 185.74L99.5388 185.83L96.0788 184.236L93.927 183.801L88.4064 183.338L85.9906 182.143L80.761 180.067L79.7307 179.396L77.7992 177.415L76.7029 176.918L75.1681 174.189L72.3508 170.505L71.3934 170.019L68.4346 171.11L67.5412 175.245L65.9594 176.142L63.244 176.265L60.2709 177.125L59.2015 176.914L57.8864 176.168L56.2035 173.078L55.6741 171.126L56.9349 167.765L55.9803 165.938L55.2724 163.833L55.6519 162.03L55.3866 159.237L53.5423 157.045L51.4467 155.547L47.2911 152.962L44.8518 150.986L43.2648 150.173L39.4434 147.703L39.3861 146.561L41.3163 143.489L41.232 141.22L40.6963 136.866L39.837 132.005L38.1976 125.001L36.2088 124.093L33.8991 124.637L31.5481 126.21L29.4188 126.284L28.0072 125.221L27.157 125.297L26.034 126.384L24.6307 126.766L21.9749 125.223L16.5791 120.144L17.4355 118.932L19.5791 117.081L19.6668 115.989L20.7146 114.789L20.4859 112.799L17.8583 108.698L17.4847 106.631L19.7549 104.485L20.618 102.038L20.4979 101.048L19.445 99.808L17.9271 99.4692L17.1416 99.8068L14.5671 99.9844L13.6786 99.3294L13.9216 98.0189L15.6186 95.7529L16.0629 94.1826L14.4327 94.6277L11.6606 95.9433L11.4641 94.7613L13.0402 91.3485L13.0672 89.7117L12.0387 87.5701L9.1782 83.6795L7.16101 80.7198L6.60962 77.9882L4.06947 74.7618L3.24609 72.1231L3.65018 69.4755L4.90516 67.9013L7.25713 66.7993L11.5781 66.8879L13.4267 67.1378L16.7271 68.2086L17.3363 69.7146L15.1977 71.9233L14.573 73.3294L14.8432 74.1662L16.4967 76.1346L17.5446 76.1163L18.4612 75.2118L18.9819 73.837L20.9172 71.4221L22.8867 70.2764L24.56 70.7771L28.4606 68.7788L33.6528 67.5805L34.6154 67.6306L37.1988 66.9105L41.497 64.3798L43.9902 62.1636L48.4644 60.9078L49.4045 60.4468L51.3109 58.606L51.7998 56.4629L53.0886 54.8836L55.9783 53.359L58.46 51.0066L61.9395 49.2533L63.1549 48.4197L63.6028 47.9739L65.7763 49.059L69.297 52.2135L71.2587 53.0295L73.0663 52.8825L74.6149 52.3185L77.6228 49.062L78.8681 47.0411L80.131 45.6605L80.9421 45.5637L84.3791 47.8978L87.0349 50.4453L89.3357 53.525L90.5661 55.6036L92.2322 59.0676L93.9472 60.9117L94.9014 60.6458L97.0931 58.7258L99.5152 57.9246L101.791 56.3376L104.659 54.7567L106.281 50.5881L107.443 50.8153L109.798 52.316L111.186 51.8286L113.343 49.1037L114.463 48.4969L118.667 47.1689L123.192 45.9397L125.898 45.6139L133.098 45.368L134.86 45.2132L138.55 43.2611L139.834 42.8199L143.365 41.072L144.414 41.0311L144.993 42.4481L144.745 44.8965L145.452 46.2048L149.007 45.6896L152.646 45.8651L153.4 46.32L155.132 48.8612L156.204 49.0088L159.602 46.7904L161.483 47.658L163.215 49.5874L169.052 57.1408L170.379 58.6189L172.836 62.6865L173.392 63.1233L175.671 63.651L181.01 64.2292L182.589 65.3676L184.49 67.5773L186.055 67.6577L189.674 65.3167L190.873 63.7977L191.826 61.2715L193.919 58.6463L194.92 55.4126L196.736 53.071L200.451 58.4004L202.851 59.642L205.748 62.1661L208.545 66.1313L209.795 66.9744L211.147 68.9481L211.391 70.7163L210.896 73.1038L211.943 74.9724L213.899 76.8962L216.011 77.933L217.088 78.0735L219.928 77.3814L222.495 75.1629L223.73 74.6423L229.651 73.7041L230.654 72.3361L230.656 69.7589L232.025 65.5774L232.673 60.2494L233.913 58.5563L235.153 57.6669L236.728 57.4172L238.537 56.4333L241.931 56.6757L242.972 56.5486L245.762 55.116L247.527 53.5012L251.738 48.1958L253.389 47.7421L255.444 47.8438L256.814 47.2156L259.004 47.6722L260.727 47.6578L261.306 47.1314L265.336 42.3801L267.581 40.8968L269.933 40.59L273.361 39.3639L278.498 38.0961L281.053 38.009L280.02 36.2385L279.148 33.7671L278.67 30.6357L277.112 26.6617L276.581 23.806L275.711 22.7962L275.231 19.1472L275.251 16.5267L276.064 13.3873L275.582 12.2097L277.987 11.7821L281.092 9.69056L282.036 8.2248L283.904 4.38418L285.399 2.89062L286.849 3.25153L289.181 4.27906L292.045 3.95495L293.234 4.73581L296.124 7.52358L298.519 7.9926L303.402 10.7114L305.669 10.697L307.744 11.1411L310.279 14.111L311.508 14.2738L313.774 13.4504L314.899 13.4808L318.204 17.0603L319.601 19.0194L320.083 20.2261L320.993 24.5198L322.344 27.6297L322.414 28.395L321.805 32.3079L321.301 34.185L321.8 36.3697L322.565 38.3807L323.446 42.1115L325.08 46.3805L326.134 47.0075L331.272 48.3889L332.963 49.7481L334.99 50.7894L337.393 53.6003L340.988 56.0151L344.23 59.4491L349.885 64.03L352.096 66.0271L353.219 66.3131L354.41 68.0968L355.201 71.2865L356.34 73.8521L357.954 74.9104L360.374 75.5628L363.169 75.8367L365.792 74.8753L365.834 73.8877L363.445 72.1533L364.374 68.9476L366.194 66.2841L366.919 65.8137L370.078 61.8884L372.855 59.1169L374.935 58.463L379.44 63.0878L380.673 63.653L381.841 60.4464L382.392 60.1766L385.266 62.9479L385.814 64.0397L387.802 66.566L389.289 67.7306L390.4 65.8668L392.331 67.1299L394.363 68.0939L396.35 68.4551L398.16 68.4047L401.621 67.563L405.499 67.5099L408.76 68.5114L411.935 70.7445L413.618 71.2346L415.609 71.1876L418.084 73.0637L419.612 75.1956L420.963 76.0518L423.207 76.2557L426.811 76.0602L428.68 77.0656L430.927 78.9575L433.728 80.5146L438.416 80.5087L440.803 81.5522L444.078 83.6975L446.511 85.0725L450.781 86.3474L453.166 86.462L458.192 85.0571Z" stroke="white" stroke-width="5"/>
</svg>
