<svg width="216" height="157" viewBox="0 0 216 157" fill="none" xmlns="http://www.w3.org/2000/svg">
<path d="M212.387 63.1069L212.184 64.7124L211.687 65.2539L208.764 65.719L202.253 67.5521L198.629 67.8769L190.932 68.0728L188.119 67.7818L183.436 67.5424L182.691 66.8963L179.763 66.4251L178.196 66.6994L174.179 68.3099L173.053 68.5441L170.919 68.2407L169.17 67.5665L166.27 65.8684L164.796 64.6482L162.653 62.0742L161.473 61.2599L159.581 61.204L157.503 61.5838L155.199 63.0725L153.269 63.8728L152.352 65.4249L154.39 66.7505L156.02 69.5462L155.691 72.2303L155.258 73.1259L154.742 75.9541L155.439 80.1848L154.852 83.4749L153.835 86.7624L153.92 88.8631L154.835 91.9938L154.906 93.1824L153.342 94.2784L151.576 95.0955L149.81 94.5139L145.969 89.138L144.668 87.9692L141.822 86.0343L140.898 84.9722L137.337 81.6308L136.544 81.3614L134.691 83.6684L132.79 86.8375L132.355 91.984L131.86 94.3458L133.021 98.884L132.566 101.371L130.871 103.632L128.133 104.379L126.755 103.701L125.132 101.919L122.142 99.7738L120.132 99.3588L118.645 100.123L116.511 100.245L113.845 100.01L112.055 101.613L110.251 102.027L108.659 101.372L106.967 101.111L101.903 102.098L100.684 102.651L99.3274 105.069L96.2361 105.76L93.855 105.317L90.8081 104.425L89.475 104.4L88.0652 104.963L85.5327 107.167L84.3122 108.581L83.0612 110.72L79.7283 113.545L77.0762 115.301L75.7579 116.631L75.3183 119.007L75.3423 121.392L74.8218 123.686L74.4366 127.828L74.8988 131.125L74.3278 132.736L73.1636 132.659L71.6553 133.763L71.5647 135.561L69.0191 134.019L67.0512 133.291L65.3535 133.578L63.4632 134.625L62.4464 136.37L61.4979 138.814L59.7951 146.601L58.2588 153.232L55.6923 153.886L51.8375 154.219L45.3566 154.039L41.3267 153.216L27.4707 152.208L26.4768 149.336L26.1302 146.481L25.8003 141.817L24.9944 140.552L22.1112 138.88L21.0175 137.487L20.3373 135.882L18.334 133.14L15.9355 131.04L13.8972 128.293L11.1555 125.812L10.7742 124.792L11.0125 122.778L10.4222 118.407L8.9986 116.459L9.16251 115.837L11.3456 115.17L12.4132 113.094L13.667 112.312L14.9185 112.205L16.688 111.396L18.8936 109.934L20.2383 107.88L20.3938 105.565L20.0405 104.166L16.9496 101.238L14.9854 100.398L13.9469 99.6305L12.6545 97.7875L10.2127 95.2282L7.40175 94.4771L5.77635 92.3591L5.42102 90.5855L5.84716 89.3225L7.22519 87.868L7.65435 86.3646L7.6273 80.8303L6.58058 75.7923L4.28305 74.6087L3.83984 73.8899L4.4133 72.9037L6.20899 71.934L6.92001 71.1047L7.74873 69.1227L7.73085 67.7014L7.00231 66.1056L6.00364 64.805L5.30923 62.7621L5.81686 60.9909L7.44946 60.1595L11.5798 59.8123L12.7143 59.4393L14.8348 57.5584L16.5444 55.1666L16.816 53.3009L16.6805 51.073L18.53 47.205L19.2643 44.0126L19.3355 42.4549L18.9458 40.1701L18.0082 36.7397L22.142 35.2721L23.5549 34.9529L25.4461 35.3691L28.086 37.1235L29.1269 37.3538L31.1722 36.5309L32.7914 36.8879L34.9459 39.4122L36.1166 39.9114L37.1085 38.9645L37.5728 36.1533L38.3055 34.6033L39.8075 32.7493L40.9509 32.1994L43.3528 30.3077L45.5021 29.114L47.79 29.8053L50.073 29.5098L51.0254 29.8656L52.9721 31.8063L56.7118 31.8728L57.4161 31.6738L59.8027 29.6717L61.2439 27.7626L62.8673 26.9908L69.6711 24.9756L77.1004 24.0317L80.8937 23.6758L85.2905 23.4298L88.9516 22.4138L91.5331 21.2331L94.311 20.5602L96.5029 19.6485L97.0514 18.6955L96.9505 14.9562L96.234 13.41L95.3572 13.2575L93.3513 13.7503L91.9366 12.9004L88.8174 10.2772L87.9667 8.94865L88.1679 7.35096L91.3164 5.09929L93.1779 4.17473L96.3464 3.42188L98.5476 3.80867L100.979 4.88579L103.287 6.48333L104.342 7.55038L108.391 9.63124L109.887 10.666L112.993 13.3139L114.478 14.2804L116.366 16.188L117.477 19.4367L118.217 20.4793L119.878 20.6871L125.601 19.8994L131.62 21.2172L134.486 22.1841L137.327 23.4835L140.572 25.4211L143.651 26.8877L146.157 27.5767L147.188 26.9147L148.721 26.763L151.766 27.7988L152.997 27.9538L157.217 26.9865L160.012 25.179L161.57 24.7441L164.226 25.6028L167.098 24.8983L168.765 24.7675L170.541 25.2553L172.397 27.0173L173.524 31.0423L174.207 31.4434L175.794 31.1629L179.38 29.1149L181.778 28.0147L182.857 28.1906L183.01 29.4891L184.355 30.5209L185.486 32.3808L186.461 34.6214L187.246 38.1043L187.028 41.2751L187.452 42.82L188.495 44.3127L193.003 48.6952L195.02 50.4237L200.991 54.5526L201.987 55.5173L207.384 59.5239L210.244 61.3655L212.387 63.1069Z" fill="#1E1E1E" stroke="white" stroke-width="5"/>
</svg>
