<svg width="373" height="274" viewBox="0 0 373 274" fill="none" xmlns="http://www.w3.org/2000/svg">
<path d="M369.932 121.443L370.234 123.28L367.399 125.311L365.626 125.698L360.772 126.386L359.467 127.507L358.26 127.946L358.097 130.543L356.587 130.197L356.64 133.26L357.628 134.309L356.268 137.07L356.982 137.52L357.284 139.884L358.265 142.02L358.505 143.198L360.118 145.376L363.326 148.512L364.335 149.011L367.384 149.389L363.242 149.551L360.314 149.304L356.37 149.446L353.494 149.353L349.889 148.71L347.199 147.33L345.555 146.022L344.108 143.333L342.158 142.067L339.195 137.147L335.746 132.893L334.859 131.299L333.833 127.88L333.269 124.719L332.696 123.389L331.206 121.227L329.877 119.735L325.797 116.933L321.895 116.295L319.231 115.113L316.497 114.519L315.823 115.231L315.866 117.061L314.682 118.067L308.92 117.546L305.498 118.045L304.472 117.85L301.779 115.935L300.148 115.645L297.54 114.343L294.02 113.395L292.669 113.595L291.532 112.635L289.747 111.973L287.073 114.449L286.397 115.522L282.287 120.503L279.067 122.045L277.781 123.214L277.062 124.391L276.148 124.878L274.069 124.525L270.33 127.31L269.613 127.516L265.627 127.062L261.961 124.513L255.219 122.829L252.162 123.16L250.872 123.83L249.217 125.281L248.787 127.325L249.877 128.936L250.722 132.629L251.161 137.158L249.309 139.488L246.809 143.036L246.187 144.429L246.277 146.558L244.45 148.679L243.84 150.444L244.244 152.914L245.535 155.028L246.801 156.204L248.454 157.23L247.162 158.157L245.395 160.485L243.948 163.226L243.676 164.724L242.447 166.371L241.804 168.47L242.236 170.648L240.554 171.96L239.338 170.477L236.364 171.74L234.179 171.994L232.733 173.834L232.984 174.968L231.227 176.115L231.783 177.192L230.685 177.721L231.065 179.268L229.923 180.799L228.456 181.269L227.516 183.586L227.625 185.129L226.472 185.155L226.316 185.948L224.425 188.328L223.18 189.146L223.689 190.124L221.461 191.343L221.341 193.863L219.052 195.375L217.204 195.003L215.578 195.107L213.097 195.674L212.051 196.766L210.905 196.964L209.293 198.731L208.923 200.139L207.645 201.794L207.934 203.416L204.571 204.58L201.55 206.053L200.611 206.748L199.707 209.051L199.193 209.639L196.349 211.543L193.359 215.23L192.392 216.762L191.296 220.104L190.663 220.928L186.506 223.468L185.26 224.653L182.363 228.201L179.401 230.893L179.396 231.594L182.431 234.771L182.635 235.825L181.982 238.973L182.971 240.05L183.368 241.378L183.213 244.107L182.226 246.606L181.469 246.301L180.456 243.062L178.278 240.292L177.809 238.708L177.797 236.637L178.252 234.534L177.945 233.044L175.822 232.739L174.437 233.117L172.074 235.08L171.22 236.79L171.231 238.798L170.295 239.734L164.966 240.983L162.397 242.261L161.207 243.815L160.172 244.602L158.963 244.134L153.248 242.536L151.321 242.532L150.545 242.939L147.455 246.119L146.114 248.941L144.069 251.554L141.86 253.99L141.08 255.533L139.941 259.026L139.967 263.436L139.47 265.054L138.369 266.999L137.342 267.795L135.273 268.575L130.954 268.863L128.316 268.265L126.903 268.677L126.067 268.199L123.024 268.434L121.322 269.104L119.354 270.403L118.217 270.472L117.179 269.601L116.21 267.733L112.769 264.158L107.438 260.759L106.238 260.201L104.919 258.727L102.428 257.354L100.564 253.689L101.034 251.934L100.777 249.011L101.326 247.185L101.498 245.468L102.317 243.929L103.486 242.66L107.041 240.961L108.244 239.983L110.616 236.701L111.751 235.458L112.509 232.628L112.052 231.161L110.997 231.741L109.39 231.271L105.582 233.044L103.909 233.163L99.8158 232.714L98.3564 231.506L95.7936 228.423L94.4573 226.042L92.527 223.286L90.9927 222.769L89.2533 223.035L87.489 222.527L84.5982 220.163L83.6494 217.946L83.487 215.933L83.3996 211.001L83.8911 209.5L85.5208 206.916L86.1245 203.937L87.4897 202.649L88.1652 201.124L87.4163 198.173L87.494 195.391L89.717 189.165L90.1828 187.167L89.3808 186.106L85.1787 186.287L81.6295 184.962L80.2868 183.967L78.8991 182.392L77.0013 181.933L73.4205 180.474L69.807 180.09L66.1627 180.553L60.0645 181.98L57.102 183.164L55.5187 183.531L49.9432 183.277L49.0131 180.967L47.33 180.301L48.036 178.918L51.9296 177.292L52.9304 175.956L52.2489 175.248L50.0199 174.056L48.9764 172.477L47.1942 170.532L44.9375 166.953L43.5871 165.922L38.7438 164.895L38.07 165.972L33.5388 159.077L31.5132 156.909L28.7581 155.173L26.482 155.336L23.9947 154.272L21.1906 155.114L17.8541 154.542L16.1013 154.614L12.6069 153.167L9.9579 152.373L7.51793 152.702L6.47411 152.214L5.39128 150.735L3.00391 148.728L3.31176 146.707L5.01471 144.339L5.03491 143.234L4.46366 142.207L18.3196 143.215L22.3495 144.038L28.8304 144.218L32.6852 143.885L35.2517 143.231L36.7881 136.6L38.4908 128.813L39.4393 126.369L40.4561 124.624L42.3464 123.577L44.0441 123.29L46.0121 124.018L48.5577 125.56L48.6482 123.762L50.1565 122.658L51.3207 122.735L51.8917 121.124L51.4296 117.827L51.8147 113.685L52.3353 111.391L52.3112 109.006L52.7508 106.63L54.0691 105.3L56.7213 103.544L60.0541 100.719L61.3052 98.5802L62.5257 97.166L65.0581 94.962L66.468 94.399L67.8011 94.4241L70.8479 95.3158L73.229 95.7587L76.3203 95.0678L77.6774 92.6499L78.8964 92.0971L83.9597 91.1096L85.6517 91.3707L87.2442 92.0259L89.0481 91.6124L90.8383 90.0094L93.5044 90.2443L95.6382 90.1216L97.1246 89.3578L99.135 89.7729L102.125 91.9179L103.748 93.7L105.126 94.3776L107.864 93.6307L109.559 91.3696L110.014 88.883L108.853 84.3448L109.348 81.9831L109.783 76.8365L111.684 73.6674L113.537 71.3604L114.33 71.6298L117.891 74.9712L118.815 76.0333L121.661 77.9682L122.961 79.137L126.803 84.5129L128.569 85.0945L130.335 84.2774L131.899 83.1814L131.828 81.9928L130.913 78.8621L130.828 76.7614L131.845 73.4739L132.432 70.1838L131.735 65.9531L132.251 63.1249L132.684 62.2293L133.013 59.5452L131.383 56.7495L129.345 55.4239L130.262 53.8718L132.192 53.0715L134.496 51.5829L136.574 51.203L138.466 51.259L139.646 52.0732L141.788 54.6473L143.263 55.8675L146.163 57.5655L147.912 58.2397L150.046 58.5431L151.172 58.3089L155.188 56.6984L156.756 56.4242L159.684 56.8953L160.429 57.5414L165.112 57.7809L167.925 58.0718L175.622 57.8759L179.246 57.5511L185.757 55.718L188.68 55.2529L189.177 54.7114L189.38 53.1059L190.931 53.3278L192.638 52.0166L193.819 48.5988L196.424 44.2786L199.545 41.1045L201.601 39.5783L202.418 37.4004L203.292 36.3028L204.7 35.258L208.256 33.4694L209.374 31.7981L210.614 30.5736L214.988 27.1856L215.828 26.1747L219.51 20.3629L223.198 14.291L226.453 8.34743L227.293 8.06034L228.393 9.63366L230.091 17.0344L230.929 19.8024L231.303 22.4845L232.096 23.2597L235.038 24.1075L237.633 24.0264L240.118 24.3795L243.823 25.8121L245.932 25.6916L249.829 26.8439L251.625 26.1056L256.653 22.4615L261.57 19.5779L262.869 18.4426L263.769 16.9623L264.68 12.733L264.882 9.75457L265.382 8.81335L271.072 5.78589L273.196 3.84713L274.425 3.5L275.473 4.1028L277.144 6.19676L277.913 8.11735L278.099 10.2309L277.872 13.533L277.142 16.6634L276.812 19.3722L277.255 21.121L279.512 25.2475L279.814 27.6652L281.34 29.307L284.798 30.4528L288.603 30.1684L290.634 30.8352L292.661 31.1017L294.163 30.6275L296.296 31.8564L298.726 32.7314L304.533 31.6716L306.319 32.1201L307.133 32.942L307.554 35.0863L308.908 37.8217L311.197 39.2003L313.084 41.4553L314.62 45.4952L316.134 46.6264L319.454 47.1508L322.106 49.3165L323.399 51.0236L326.026 53.6878L327.226 54.607L328.667 57.5619L330.26 60.1942L330.497 62.6191L331.207 64.3985L333.967 66.5348L335.957 67.5076L336.725 68.5625L339.407 69.5132L340.558 70.9684L341.79 78.0435L341.988 79.9999L342.915 83.9818L343.962 87.0693L344.219 89.1392L345.074 92.8677L346.747 97.2843L349.471 101.376L351.987 103.866L354.96 105.754L357.426 106.641L359.866 108.06L362.821 110.055L364.568 112.106L365.801 114.055L368.115 118.423L369.932 121.443Z" fill="#1E1E1E" stroke="white" stroke-width="5"/>
</svg>
