<svg width="287" height="389" viewBox="0 0 287 389" fill="none" xmlns="http://www.w3.org/2000/svg">
<path d="M271.37 50.447L272.81 50.797L273.424 52.1265L274.599 53.4389L274.686 54.4388L273.153 54.7338L272.402 53.7097L271.37 50.447ZM282.386 40.3888L282.681 41.2311L278.712 41.6396L277.117 42.2414L276.124 41.8388L272.836 42.864L273.463 45.3576L271.822 45.3567L270.822 46.3761L270.695 47.405L272.181 48.1347L274.186 50.533L276.074 51.7489L276.118 52.4576L273.921 51.913L272.81 50.797L269.011 48.1144L269.678 49.4229L271.196 51.2478L271.891 53.2225L268.973 51.2502L269.015 52.4081L267.737 52.6593L266.403 51.6242L265.35 49.2602L264.267 48.9594L264.018 50.0073L262.242 51.116L260.713 51.6688L260.373 49.4056L258.993 49.7788L258.676 48.9628L256.851 48.7278L256.134 46.7394L258.622 46.3746L258.373 45.7777L256.711 45.9467L255.83 45.0106L255.073 45.031L253.241 47.72L252.645 48.9679L252.648 51.3079L251.847 51.658L250.643 51.3365L249.13 50.1015L247.279 49.5815L247.043 48.7384L246.049 48.325L245.275 49.3757L243.255 49.3132L241.732 50.6934L239.003 55.5342L238.477 58.6578L239.515 60.9612L240.515 61.7405L242.998 62.7881L244.688 64.0686L245.794 65.6074L245.868 66.6704L247.414 68.3595L249.148 70.7409L248.669 72.3962L248.83 73.2376L248.239 75.3523L248.796 77.921L248.448 80.8386L249.597 83.0834L250.357 83.7523L251.142 85.3706L251.501 86.9898L250.899 89.8856L251.488 91.0951L251.371 93.1995L252.196 94.6341L254.85 97.7137L254.59 101.8L255.262 104.73L256.837 106.362L259.482 110.1L258.391 110.54L257.651 111.613L258.431 112.187L259.511 111.132L261.008 111.435L265.104 113.81L268.711 115.534L274.637 117.458L275.643 118.552L276.112 121.698L275.637 124.981L274.13 127.655L271.29 131.38L267.801 136.445L265.869 138.883L264.118 141.453L259.813 148.549L256.525 154.544L253.971 159.894L252.714 163.787L250.14 168.867L248.678 171.491L246.479 176.944L245.34 180.191L243.213 188.061L240.882 195.238L240.008 198.997L239.242 203.289L238.881 206.307L238.93 208.881L239.395 212.372L240.427 214.953L242.43 216.884L241.93 218.588L239.216 220.096L237.606 221.532L231.852 228.971L229.428 232.5L227.734 235.265L223.883 242.471L223.299 244.48L222.162 247.342L221.149 251.333L220.358 257.287L220.356 259.931L220.741 262.016L221.39 263.407L222.027 266.269L223.545 271.771L224.122 272.983L225.378 278.35L226.428 281.877L227.587 284.671L228.193 284.821L228.756 287.255L230.407 289.085L230.479 292.709L230.244 296.892L229.802 301.165L230.059 304.353L230.121 309.007L231.208 314.731L232.056 316.883L234.563 320.568L235.565 321.018L236.794 322.248L238.203 324.798L238.5 325.863L239.626 327.793L240.245 334.032L242.031 341.699L242.901 343.496L244.635 345.357L245.806 345.879L246.217 346.671L250.993 350.87L251.603 351.747L256.101 354.899L258.596 355.916L259.493 356.56L260.8 358.425L265.206 361.765L267.591 362.804L268.482 363.514L273.304 365.312L276.821 366.787L279.97 368.362L280.044 369.957L280.58 371.459L282.673 373.439L283.161 375.555L283.905 376.259L283.406 377.786L284.014 378.798L283.749 379.78L281.516 381.57L280.324 383.894L278.012 385.485L276.273 385.356L274.642 383.436L273.529 381.012L272.931 377.428L271.439 373.391L268.79 371.46L267.903 371.13L264.716 371.242L261.888 371.96L260.095 369.868L259.28 369.414L256.9 369.5L253.495 370.957L250.965 373.878L250.003 375.647L248.399 377.666L243.712 380.329L241.592 380.153L237.282 381.169L235.955 381.204L232.219 380.243L229.094 381.964L224.316 381.804L221.475 381.269L219.534 381.627L216.219 383.009L214.385 384.172L212.213 384.013L210.644 382.572L209.672 381.054L208.684 380.868L205.834 379.076L204.955 377.694L203.39 376.51L200.298 377.495L199.951 376.865L199.597 373.164L197.695 372.337L197.01 370.933L196.064 371.178L195.55 370.268L195.484 368.69L195.862 363.56L195.911 358.326L195.68 357.564L192.411 356.163L191.071 354.463L190.526 352.193L190.526 350.273L191.128 349.436L193.907 346.751L194.252 346.004L193.403 344.13L192.331 342.767L190.581 342.471L189.041 343.226L188.12 343.142L185.273 341.569L182.947 340.773L180.225 340.159L179.053 339.579L174.876 335.746L170.726 333.805L169.32 332.553L166.542 330.7L163.361 325.2L162.017 324.903L160.178 326.186L158.266 327.05L153.887 328.464L152.079 328.161L150.742 325.382L149.863 322.846L148.538 320.489L147.56 319.663L146.569 319.987L144.301 322.297L141.804 324.242L138.719 325.763L137.964 325.605L136.552 323.465L136.376 319.823L135.604 319.051L133.195 319.235L130.866 316.984L130.432 316.03L131.131 313.617L131.011 312.401L129.742 309.815L128.025 308.708L126.125 308.031L122.656 307.272L121.849 305.622L122.84 302.368L124.29 299.162L126.729 298.948L127.932 297.773L128.322 295.417L127.951 293.241L128.731 291.717L130.226 290.399L130.65 289.507L131.19 286.05L131.324 282.283L132.374 278.295L131.372 275.759L131.247 273.438L131.638 270.405L133.537 266.333L134.397 265.219L134.753 263.985L134.525 262.533L133.769 261.846L132.88 262.051L131.247 263.208L129.458 263.187L126.817 262.263L124.403 267.689L123.033 269.248L122.059 267.555L121.161 261.516L121.717 259.901L124.951 256.059L126.023 254.208L126.092 252.441L125.319 250.553L122.173 248.372L121.084 247.162L120.058 244.698L116.142 243.407L114.182 242.028L112.003 237.909L110.369 235.929L109.308 235.294L108.115 235.417L102.8 238.522L100.765 239.856L98.563 240.597L95.197 239.606L93.4314 240.289L92.3251 241.163L89.7814 244.842L87.2309 246.497L85.0769 248.619L84.149 250.013L84.0816 252.085L82.6241 258.516L82.4309 260.751L81.2401 262.66L78.1535 265.526L76.7456 267.682L75.2295 270.573L74.7717 272.007L73.2097 274.146L71.698 278.65L70.9449 279.643L68.8812 281.278L67.4092 281.842L64.5366 281.742L62.1419 282.771L60.085 284.429L59.1224 285.592L58.3879 284.574L58.8053 282.394L58.8272 280.595L58.3858 278.91L56.1179 274.095L54.0871 268.04L53.9709 266.924L54.4375 263.911L55.5756 261.548L56.1881 257.628L55.7059 255.578L53.2215 255.433L48.3392 257.217L47.1311 256.784L46.7258 255.917L46.9489 252.794L47.5019 250.841L48.9268 247.078L50.8384 244.562L53.4346 242.075L55.6007 240.667L61.7021 238.782L60.5533 236.07L56.7848 229.993L54.9267 228.54L53.0481 228.28L50.6334 226.907L48.8881 226.365L46.0591 226.686L44.8717 226.513L43.4721 225.677L42.292 226.271L39.9798 226.887L38.3705 226.921L37.8897 227.371L33.2288 228.139L31.1868 228.737L26.3692 229.735L25.0293 230.37L23.7095 230.18L21.8925 230.484L19.5887 229.906L17.3852 229.803L13.4383 228.971L11.1097 229.927L8.98131 228.871L4.19553 225.191L3.50391 224.133L3.53003 223.02L5.92924 220.537L7.89744 219.022L8.97446 217.506L11.522 216.542L13.2195 214.976L16.0298 213.569L19.4417 213.334L20.1445 212.753L21.1891 210.66L22.6309 208.948L23.7789 208.452L28.3487 207.301L31.6406 204.743L34.2449 203.674L35.2834 202.837L36.6819 199.87L37.7738 195.772L38.6331 193.216L38.0294 192.614L41.1253 183.256L41.9662 181.642L42.1085 178.447L42.5274 175.981L43.294 174.037L45.1055 171.669L46.1095 171.202L48.9356 169.01L48.7447 167.181L48.0388 165.158L45.8116 163.281L44.3718 161.746L41.9053 159.677L43.3185 159.265L45.9561 159.863L50.2751 159.575L52.3436 158.795L53.3712 157.999L54.4721 156.054L54.969 154.436L54.9427 150.026L56.0819 146.533L56.8618 144.989L59.0711 142.553L61.1165 139.941L62.4572 137.119L65.5469 133.939L66.3228 133.532L68.2501 133.536L73.9654 135.133L75.1737 135.602L76.209 134.814L77.3989 133.261L79.9682 131.983L85.297 130.734L86.2334 129.798L86.2216 127.79L87.0765 126.08L89.4389 124.117L90.8241 123.738L92.947 124.043L93.2536 125.534L92.7992 127.636L92.8115 129.707L93.28 131.292L95.4582 134.062L96.4708 137.3L97.2279 137.606L98.2146 135.107L98.37 132.378L97.9728 131.05L96.9843 129.973L97.6372 126.825L97.4326 125.771L94.3979 122.594L94.4034 121.893L97.365 119.201L100.262 115.653L101.508 114.467L105.665 111.928L106.298 111.103L107.394 107.761L108.361 106.23L111.351 102.543L114.195 100.638L114.709 100.051L115.613 97.7482L116.552 97.0526L119.573 95.5799L122.936 94.4157L122.647 92.7934L123.925 91.139L124.295 89.7304L125.907 87.9641L127.053 87.7655L128.1 86.6733L130.58 86.1068L132.206 86.0024L134.054 86.3746L136.343 84.8623L136.463 82.3427L138.691 81.1234L138.182 80.1457L139.427 79.3277L141.318 76.9475L141.474 76.1552L142.627 76.1284L142.518 74.5857L143.458 72.2686L144.925 71.7986L146.068 70.2675L145.687 68.7211L146.785 68.192L146.229 67.115L147.986 65.9676L147.735 64.8336L149.181 62.9939L151.366 62.7399L154.34 61.4765L155.556 62.9594L157.238 61.6478L156.806 59.4701L157.449 57.3703L158.678 55.7235L158.95 54.2255L160.397 51.485L162.164 49.1565L163.456 48.2297L161.803 47.2034L160.537 46.0273L159.246 43.9134L158.842 41.4433L159.452 39.6789L161.279 37.5581L161.189 35.4287L161.811 34.0359L164.311 30.4874L166.163 28.1576L165.724 23.6284L164.879 19.936L163.789 18.3247L164.22 16.2804L165.874 14.8294L167.164 14.1602L170.222 13.8289L176.963 15.5132L180.629 18.0614L184.616 18.516L185.332 18.3095L189.071 15.5245L191.15 15.878L192.064 15.3904L192.783 14.2139L194.069 13.0449L197.289 11.5027L201.399 6.52175L202.075 5.44903L204.749 2.97266L206.534 3.63504L207.671 4.59435L209.022 4.39448L212.542 5.34289L215.15 6.64425L216.781 6.9349L219.474 8.85012L220.5 9.04492L223.922 8.54561L229.684 9.06702L230.868 8.06092L230.825 6.23088L231.499 5.51914L234.233 6.113L236.897 7.29459L240.799 7.93313L244.879 10.7347L246.208 12.227L247.698 14.389L248.271 15.7188L248.835 18.8795L249.861 22.299L250.748 23.8927L254.197 28.1468L257.16 33.0667L259.11 34.3323L260.557 37.0218L262.201 38.3296L264.891 39.7099L268.496 40.3527L271.372 40.4462L275.316 40.3034L278.244 40.551L282.386 40.3888Z" fill="#1E1E1E"/>
<path d="M272.81 50.797L271.37 50.447L272.402 53.7097L273.153 54.7338L274.686 54.4388L274.599 53.4389L273.424 52.1265L272.81 50.797ZM272.81 50.797L273.921 51.913L276.118 52.4576L276.074 51.7489L274.186 50.533L272.181 48.1347L270.695 47.405L270.822 46.3761L271.822 45.3567L273.463 45.3576L272.836 42.864L276.124 41.8388L277.117 42.2414L278.712 41.6396L282.681 41.2311L282.386 40.3888L278.244 40.551L275.316 40.3034L271.372 40.4462L268.496 40.3527L264.891 39.7099L262.201 38.3296L260.557 37.0218L259.11 34.3323L257.16 33.0667L254.197 28.1468L250.748 23.8927L249.861 22.299L248.835 18.8795L248.271 15.7188L247.698 14.389L246.208 12.227L244.879 10.7347L240.799 7.93313L236.897 7.29459L234.233 6.113L231.499 5.51914L230.825 6.23088L230.868 8.06092L229.684 9.06702L223.922 8.54561L220.5 9.04492L219.474 8.85012L216.781 6.9349L215.15 6.64425L212.542 5.34289L209.022 4.39448L207.671 4.59435L206.534 3.63504L204.749 2.97266L202.075 5.44903L201.399 6.52175L197.289 11.5027L194.069 13.0449L192.783 14.2139L192.064 15.3904L191.15 15.878L189.071 15.5245L185.332 18.3095L184.616 18.516L180.629 18.0614L176.963 15.5132L170.222 13.8289L167.164 14.1602L165.874 14.8294L164.22 16.2804L163.789 18.3247L164.879 19.936L165.724 23.6284L166.163 28.1576L164.311 30.4874L161.811 34.0359L161.189 35.4287L161.279 37.5581L159.452 39.6789L158.842 41.4433L159.246 43.9134L160.537 46.0273L161.803 47.2034L163.456 48.2297L162.164 49.1565L160.397 51.485L158.95 54.2255L158.678 55.7235L157.449 57.3703L156.806 59.4701L157.238 61.6478L155.556 62.9594L154.34 61.4765L151.366 62.7399L149.181 62.9939L147.735 64.8336L147.986 65.9676L146.229 67.115L146.785 68.192L145.687 68.7211L146.068 70.2675L144.925 71.7986L143.458 72.2686L142.518 74.5857L142.627 76.1284L141.474 76.1552L141.318 76.9475L139.427 79.3277L138.182 80.1457L138.691 81.1234L136.463 82.3427L136.343 84.8623L134.054 86.3746L132.206 86.0024L130.58 86.1068L128.1 86.6733L127.053 87.7655L125.907 87.9641L124.295 89.7304L123.925 91.139L122.647 92.7934L122.936 94.4157L119.573 95.5799L116.552 97.0526L115.613 97.7482L114.709 100.051L114.195 100.638L111.351 102.543L108.361 106.23L107.394 107.761L106.298 111.103L105.665 111.928L101.508 114.467L100.262 115.653L97.365 119.201L94.4034 121.893L94.3979 122.594L97.4326 125.771L97.6372 126.825L96.9843 129.973L97.9728 131.05L98.37 132.378L98.2146 135.107L97.2279 137.606L96.4708 137.3L95.4582 134.062L93.28 131.292L92.8115 129.707L92.7992 127.636L93.2536 125.534L92.947 124.043L90.8241 123.738L89.4389 124.117L87.0765 126.08L86.2216 127.79L86.2334 129.798L85.297 130.734L79.9682 131.983L77.3989 133.261L76.209 134.814L75.1737 135.602L73.9654 135.133L68.2501 133.536L66.3228 133.532L65.5469 133.939L62.4572 137.119L61.1165 139.941L59.0711 142.553L56.8618 144.989L56.0819 146.533L54.9427 150.026L54.969 154.436L54.4721 156.054L53.3712 157.999L52.3436 158.795L50.2751 159.575L45.9561 159.863L43.3185 159.265L41.9053 159.677L44.3718 161.746L45.8116 163.281L48.0388 165.158L48.7447 167.181L48.9356 169.01L46.1095 171.202L45.1055 171.669L43.294 174.037L42.5274 175.981L42.1085 178.447L41.9662 181.642L41.1253 183.256L38.0294 192.614L38.6331 193.216L37.7738 195.772L36.6819 199.87L35.2834 202.837L34.2449 203.674L31.6406 204.743L28.3487 207.301L23.7789 208.452L22.6309 208.948L21.1891 210.66L20.1445 212.753L19.4417 213.334L16.0298 213.569L13.2195 214.976L11.522 216.542L8.97446 217.506L7.89744 219.022L5.92924 220.537L3.53003 223.02L3.50391 224.133L4.19553 225.191L8.98131 228.871L11.1097 229.927L13.4383 228.971L17.3852 229.803L19.5887 229.906L21.8925 230.484L23.7095 230.18L25.0293 230.37L26.3692 229.735L31.1868 228.737L33.2288 228.139L37.8897 227.371L38.3705 226.921L39.9798 226.887L42.292 226.271L43.4721 225.677L44.8717 226.513L46.0591 226.686L48.8881 226.365L50.6334 226.907L53.0481 228.28L54.9267 228.54L56.7848 229.993L60.5533 236.07L61.7021 238.782L55.6007 240.667L53.4346 242.075L50.8384 244.562L48.9268 247.078L47.5019 250.841L46.9489 252.794L46.7258 255.917L47.1311 256.784L48.3392 257.217L53.2215 255.433L55.7059 255.578L56.1881 257.628L55.5756 261.548L54.4375 263.911L53.9709 266.924L54.0871 268.04L56.1179 274.095L58.3858 278.91L58.8272 280.595L58.8053 282.394L58.3879 284.574L59.1224 285.592L60.085 284.429L62.1419 282.771L64.5366 281.742L67.4092 281.842L68.8812 281.278L70.9449 279.643L71.698 278.65L73.2097 274.146L74.7717 272.007L75.2295 270.573L76.7456 267.682L78.1535 265.526L81.2401 262.66L82.4309 260.751L82.6241 258.516L84.0816 252.085L84.149 250.013L85.0769 248.619L87.2309 246.497L89.7814 244.842L92.3251 241.163L93.4314 240.289L95.197 239.606L98.563 240.597L100.765 239.856L102.8 238.522L108.115 235.417L109.308 235.294L110.369 235.929L112.003 237.909L114.182 242.028L116.142 243.407L120.058 244.698L121.084 247.162L122.173 248.372L125.319 250.553L126.092 252.441L126.023 254.208L124.951 256.059L121.717 259.901L121.161 261.516L122.059 267.555L123.033 269.248L124.403 267.689L126.817 262.263L129.458 263.187L131.247 263.208L132.88 262.051L133.769 261.846L134.525 262.533L134.753 263.985L134.397 265.219L133.537 266.333L131.638 270.405L131.247 273.438L131.372 275.759L132.374 278.295L131.324 282.283L131.19 286.05L130.65 289.507L130.226 290.399L128.731 291.717L127.951 293.241L128.322 295.417L127.932 297.773L126.729 298.948L124.29 299.162L122.84 302.368L121.849 305.622L122.656 307.272L126.125 308.031L128.025 308.708L129.742 309.815L131.011 312.401L131.131 313.617L130.432 316.03L130.866 316.984L133.195 319.235L135.604 319.051L136.376 319.823L136.552 323.465L137.964 325.605L138.719 325.763L141.804 324.242L144.301 322.297L146.569 319.987L147.56 319.663L148.538 320.489L149.863 322.846L150.742 325.382L152.079 328.161L153.887 328.464L158.266 327.05L160.178 326.186L162.017 324.903L163.361 325.2L166.542 330.7L169.32 332.553L170.726 333.805L174.876 335.746L179.053 339.579L180.225 340.159L182.947 340.773L185.273 341.569L188.12 343.142L189.041 343.226L190.581 342.471L192.331 342.767L193.403 344.13L194.252 346.004L193.907 346.751L191.128 349.436L190.526 350.273L190.526 352.193L191.071 354.463L192.411 356.163L195.68 357.564L195.911 358.326L195.862 363.56L195.484 368.69L195.55 370.268L196.064 371.178L197.01 370.933L197.695 372.337L199.597 373.164L199.951 376.865L200.298 377.495L203.39 376.51L204.955 377.694L205.834 379.076L208.684 380.868L209.672 381.054L210.644 382.572L212.213 384.013L214.385 384.172L216.219 383.009L219.534 381.627L221.475 381.269L224.316 381.804L229.094 381.964L232.219 380.243L235.955 381.204L237.282 381.169L241.592 380.153L243.712 380.329L248.399 377.666L250.003 375.647L250.965 373.878L253.495 370.957L256.9 369.5L259.28 369.414L260.095 369.868L261.888 371.96L264.716 371.242L267.903 371.13L268.79 371.46L271.439 373.391L272.931 377.428L273.529 381.012L274.642 383.436L276.273 385.356L278.012 385.485L280.324 383.894L281.516 381.57L283.749 379.78L284.014 378.798L283.406 377.786L283.905 376.259L283.161 375.555L282.673 373.439L280.58 371.459L280.044 369.957L279.97 368.362L276.821 366.787L273.304 365.312L268.482 363.514L267.591 362.804L265.206 361.765L260.8 358.425L259.493 356.56L258.596 355.916L256.101 354.899L251.603 351.747L250.993 350.87L246.217 346.671L245.806 345.879L244.635 345.357L242.901 343.496L242.031 341.699L240.245 334.032L239.626 327.793L238.5 325.863L238.203 324.798L236.794 322.248L235.565 321.018L234.563 320.568L232.056 316.883L231.208 314.731L230.121 309.007L230.059 304.353L229.802 301.165L230.244 296.892L230.479 292.709L230.407 289.085L228.756 287.255L228.193 284.821L227.587 284.671L226.428 281.877L225.378 278.35L224.122 272.983L223.545 271.771L222.027 266.269L221.39 263.407L220.741 262.016L220.356 259.931L220.358 257.287L221.149 251.333L222.162 247.342L223.299 244.48L223.883 242.471L227.734 235.265L229.428 232.5L231.852 228.971L237.606 221.532L239.216 220.096L241.93 218.588L242.43 216.884L240.427 214.953L239.395 212.372L238.93 208.881L238.881 206.307L239.242 203.289L240.008 198.997L240.882 195.238L243.213 188.061L245.34 180.191L246.479 176.944L248.678 171.491L250.14 168.867L252.714 163.787L253.971 159.894L256.525 154.544L259.813 148.549L264.118 141.453L265.869 138.883L267.801 136.445L271.29 131.38L274.13 127.655L275.637 124.981L276.112 121.698L275.643 118.552L274.637 117.458L268.711 115.534L265.104 113.81L261.008 111.435L259.511 111.132L258.431 112.187L257.651 111.613L258.391 110.54L259.482 110.1L256.837 106.362L255.262 104.73L254.59 101.8L254.85 97.7137L252.196 94.6341L251.371 93.1995L251.488 91.0951L250.899 89.8856L251.501 86.9898L251.142 85.3706L250.357 83.7523L249.597 83.0834L248.448 80.8386L248.796 77.921L248.239 75.3523L248.83 73.2376L248.669 72.3962L249.148 70.7409L247.414 68.3595L245.868 66.6704L245.794 65.6074L244.688 64.0686L242.998 62.7881L240.515 61.7405L239.515 60.9612L238.477 58.6578L239.003 55.5342L241.732 50.6934L243.255 49.3132L245.275 49.3757L246.049 48.325L247.043 48.7384L247.279 49.5815L249.13 50.1015L250.643 51.3365L251.847 51.658L252.648 51.3079L252.645 48.9679L253.241 47.72L255.073 45.031L255.83 45.0106L256.711 45.9467L258.373 45.7777L258.622 46.3746L256.134 46.7394L256.851 48.7278L258.676 48.9628L258.993 49.7788L260.373 49.4056L260.713 51.6688L262.242 51.116L264.018 50.0073L264.267 48.9594L265.35 49.2602L266.403 51.6242L267.737 52.6593L269.015 52.4081L268.973 51.2502L271.891 53.2225L271.196 51.2478L269.678 49.4229L269.011 48.1144L272.81 50.797Z" stroke="white" stroke-width="5"/>
</svg>
