<svg width="434" height="274" viewBox="0 0 434 274" fill="none" xmlns="http://www.w3.org/2000/svg">
<path d="M409.97 10.7887L412.732 12.59L413.844 13.5633L415.321 15.6316L418.467 23.4505L419.11 24.4957L421.515 23.7467L424.22 25.2101L427.084 26.2549L429.354 26.4765L429.747 28.7836L430.565 29.9963L430.149 31.4195L428.934 32.2532L425.455 34.0064L422.973 36.3588L420.083 37.8834L418.794 39.4628L418.305 41.6058L416.399 43.4466L415.459 43.9076L410.985 45.1634L408.492 47.3796L404.193 49.9103L401.61 50.6304L400.647 50.5803L395.455 51.7786L391.555 53.7769L389.881 53.2762L387.912 54.4219L385.976 56.8368L385.456 58.2117L384.539 59.1161L383.491 59.1344L381.838 57.166L381.568 56.3292L382.192 54.9231L384.331 52.7144L383.722 51.2084L380.421 50.1376L378.573 49.8877L374.252 49.7991L371.9 50.9011L370.645 52.4753L370.241 55.1229L371.064 57.7616L373.604 60.988L374.156 63.7196L376.173 66.6793L379.033 70.5699L380.062 72.7115L380.035 74.3483L378.459 77.7611L378.655 78.9431L381.427 77.6275L383.057 77.1824L382.613 78.7527L380.916 81.0187L380.673 82.3292L381.562 82.9842L384.136 82.8066L384.922 82.469L386.44 82.8078L387.492 84.0479L387.613 85.0374L386.749 87.485L384.479 89.6311L384.853 91.6981L387.48 95.7983L387.709 97.7889L386.661 98.9884L386.574 100.08L384.43 101.932L383.574 103.143L388.969 108.223L391.625 109.765L393.029 109.384L394.152 108.297L395.002 108.221L396.413 109.283L398.543 109.209L400.894 107.637L403.203 107.092L405.192 108.001L406.832 115.004L407.691 119.865L408.227 124.22L408.311 126.489L406.381 129.56L406.438 130.703L410.259 133.173L411.846 133.986L414.286 135.962L418.441 138.547L420.537 140.045L422.381 142.236L422.646 145.03L422.267 146.833L422.975 148.938L423.929 150.765L422.669 154.125L423.198 156.077L424.881 159.168L426.196 159.914L425.273 160.96L421.489 161.723L417.643 163.492L417.092 163.986L416.911 165.75L417.92 170.541L418.093 172.751L416.992 174.792L416.005 177.628L414.284 180.237L410.685 183.502L411.057 185.581L413.361 187.963L413.807 189.087L413.738 191.194L414.296 192.651L416.007 194.084L415.775 195.709L414.729 197.002L413.33 199.943L411.682 202.358L410.34 208.71L407.882 211.02L407.194 212.539L406.278 215.937L403.172 216.075L401.186 216.609L395.974 218.768L391.509 219.963L391.175 218.664L388.661 219.28L387.024 220.109L384.648 222.338L382.69 220.872L381.21 221.05L379.933 219.018L378.341 218.378L377.509 220.416L377.985 222.826L378.041 225.628L377.461 227.348L376.181 227.718L370.659 228.004L368.329 227.73L363.079 226.31L358.67 225.59L356.939 224.983L351.452 226.772L349.67 227.111L348.837 226.747L346.036 224.63L344.851 224.713L341.684 223.887L340.689 224.08L339.605 225.018L339.558 226.247L340.006 228.22L339.331 229.857L337.379 229.934L333.783 229.307L330.109 228.936L328.394 228.982L326.305 230.014L321.411 231.144L319.21 231.261L315.466 230.968L313.899 231.325L311.338 232.934L307.002 234.82L305.103 235.459L301.921 238.098L300.123 239.025L298.181 242.445L295.707 244.115L293.772 244.901L293.119 246.264L290.098 247.912L285.233 249.961L285.173 250.812L286.28 252.266L287.913 255.404L288.434 258.376L288.191 260.342L285.615 263.374L285.294 265.033L282.477 267.292L281.516 268.288L277.865 269.655L275.565 268.853L273.759 268.958L270.39 271.072L268.362 270.094L266.993 266.374L267.435 264.394L267.298 262.836L266.641 260.732L267.825 255.759L268.487 251.787L268.433 250.442L266.96 246.782L267.462 243.393L267.153 242.06L265.826 241.628L263.166 242.533L261.755 243.423L258.638 243.537L255.032 242.691L254.449 242.324L253.897 240.309L252.742 238.589L250.824 237.374L248.768 235.514L247.413 231.62L246.725 230.289L247.855 227.016L248.041 225.192L247.514 223.751L246.347 221.894L245.33 219.166L244.488 218.344L243.143 217.879L241.385 218.273L239.684 219.409L238.382 219.281L233.054 217.465L228.878 215.138L227.249 215.575L226.903 216.829L227.209 219.18L226.563 222.331L226.955 226.078L226.414 227.676L225.321 226.801L222.401 225.273L221.128 225.116L219.179 226.403L218.673 226.358L216.692 224.669L214.854 222.718L214.032 221.467L212.157 217.618L212.091 215.749L213.226 212.69L212.607 210.691L213.647 207.506L213.855 204.845L213.686 203.151L212.487 200.518L211.994 197.415L212.614 194.777L214.187 190.363L214.191 189.276L215.868 186.48L215.581 184.487L213.826 181.392L212.663 178.912L211.829 177.91L210.492 177.075L207.446 175.735L205.598 174.228L204.386 172.405L203.815 170.729L203.432 166.993L202.339 165.476L199.626 164.324L196.34 163.682L194.15 162.563L189.017 157.787L186.469 156.399L184.36 154.607L184.182 155.605L185.426 159.122L185.797 161.903L185.394 163.914L184.123 165.754L183.718 167.566L182.758 168.187L181.146 167.375L175.175 167.016L172.269 167.23L170.936 166.447L169.492 163.362L167.732 161.649L166.625 160.018L164.947 158.373L164.369 156.066L163.108 153.485L162.815 151.783L165.628 152.074L166.365 151.886L166.621 150.436L165.611 147.353L165.932 146.656L167.573 146.057L168.713 144.595L170.814 143.861L171.067 142.847L168.66 140.944L166.501 139.634L163.634 138.447L162.239 136.645L159.08 134.843L157.608 130.876L155.415 127.697L152.532 125.679L148.53 124.739L147.722 124.037L146.151 124.796L145.674 126.821L144.768 129.263L144.391 131.729L144.076 135.815L143.298 137.956L143.128 140.092L142.713 141.06L141.759 144.854L138.907 150.932L137.909 153.4L137.035 154.174L133.807 155.731L133.094 158.251L132.99 160.451L131.62 164.598L131.836 167.137L131.448 169.511L130.597 172.218L128.907 175.75L127.793 177.592L126.959 180.087L124.827 182.92L123.996 184.348L119.565 190.22L118.477 191.036L113.421 192.75L111.723 193.044L105.92 193.373L104.025 193.711L101.42 194.996L98.7905 197.32L96.1939 200.748L95.0154 201.924L91.3138 204.223L88.2528 205.675L86.1822 206.861L84.2762 208.631L81.3759 210.97L79.061 214.799L75.8149 214.57L69.1436 215.659L66.5008 216.941L62.9912 217.409L60.3575 218.045L59.3119 217.471L56.0155 212.446L54.2214 210.307L53.8179 207.926L53.6577 203.864L52.0001 198.771L52.8426 193.12L54.0627 181.905L54.3822 180.77L54.4752 178.004L49.4238 170.997L47.8017 168.457L46.8268 166.184L44.8589 162.42L43.3782 161.177L43.3953 159.818L41.1527 156.21L38.9471 152.122L36.3681 149.315L35.8426 148.446L33.0914 145.407L32.3064 144.922L31.4264 143.473L28.5944 140.894L26.8347 139.704L25.3808 139.479L23.4861 138.056L21.3932 137.278L19.7973 135.699L18.7243 134.091L18.3073 132.498L18.3992 131.019L19.0161 129.09L19.438 126.737L19.3862 123.564L18.8841 120.521L17.9918 118.126L14.2517 118.165L12.2734 117.412L11.241 115.714L9.61653 114.18L7.24743 113.349L6.07812 112.674L8.1115 111.657L11.547 109.24L15.8036 105.456L17.4843 101.838L18.79 100.706L19.2173 98.8986L19.2753 93.4397L21.4879 93.3471L23.6224 92.4279L24.7069 91.2356L26.5451 86.6485L27.5102 85.6834L31.6571 84.7192L33.0573 84.1885L33.6579 82.4808L36.1207 81.9572L36.2562 80.72L35.6562 78.1004L34.1983 74.4973L35.2047 73.3365L34.2848 70.948L35.3141 70.1553L36.7642 71.3419L37.0178 72.6318L38.7106 74.614L39.7879 76.4225L41.4645 77.4787L42.1866 76.2789L39.9316 73.672L38.7155 71.525L38.4335 69.8728L40.6194 68.681L41.8221 68.5348L42.8692 67.5758L46.0056 67.668L46.752 69.3561L47.8834 70.0419L49.0887 71.6174L49.6667 73.1483L51.4298 74.3993L53.3128 76.799L54.3013 79.1142L57.2167 81.9059L58.061 83.488L60.7772 86.8786L63.2415 85.753L67.724 83.1739L71.7725 80.2348L74.1412 78.112L75.2014 76.793L75.2519 75.1696L79.6495 70.2292L80.6012 68.3448L81.6381 67.2326L83.9181 63.9435L85.3955 61.1096L85.0175 59.7234L88.0442 59.233L89.8126 58.4433L91.1647 59.0515L93.2794 59.1574L94.3262 58.7974L96.848 58.7674L98.9546 57.6697L101.517 57.7301L103.292 56.7577L104.467 54.5577L105.965 53.1025L108.176 52.0906L109.421 51.8533L110.324 49.1588L111.758 48.0662L112.885 46.274L117.276 45.5276L119.539 45.0009L121.538 45.0604L123.019 43.7835L124.892 41.7307L127.059 40.5524L128.036 40.47L131.973 41.5127L134.095 42.8559L134.545 43.9115L136.33 43.7982L138.763 44.3711L144.519 46.8595L146.338 48.2814L147.506 51.0622L148.448 51.7365L148.752 53.9808L149.178 54.3852L153.154 55.8919L154.648 55.1449L157.692 52.7941L159.381 52.3558L162.091 53.2304L163.292 53.3336L168.076 52.4687L170.236 52.5341L173.533 52.2016L177.375 51.4439L179.385 51.4055L181.932 49.4234L182.992 49.1938L185.378 49.3819L191.522 47.9579L194.135 47.0241L197.555 45.0424L199.522 44.6974L201.419 43.9171L202.783 44.0937L203.285 43.3265L208.739 38.2332L230.117 19.1637L241.278 19.8L252.916 26.2545L255.328 25.7335L260.158 24.4142L264.91 22.8431L268.016 23.1239L270.093 23.6886L277.92 24.7521L278.943 25.1667L282.28 23.9747L283.478 25.1854L285.417 25.8891L285.914 26.4673L286.247 28.3943L288.486 32.2704L290.008 34.4847L292.863 36.9881L293.636 38.1565L295.12 41.7106L295.96 42.6684L299.172 44.3157L301.244 45.088L301.795 45.7964L302.703 50.7711L303.117 51.6492L304.33 52.0363L310.757 50.347L311.361 50.0445L313.58 50.5274L315.126 51.8066L316.151 51.3125L318.497 48.7746L318.787 46.839L319.649 44.7248L320.758 43.2274L321.744 42.8517L323.659 43.5779L325.893 41.2093L327.526 38.6282L329.758 37.71L332.73 38.0678L334.651 36.4718L335.492 32.9112L337.761 31.6692L339.323 31.7105L340.906 30.3954L342.284 29.7066L345.178 29.8843L347.913 31.1046L349.414 31.2908L351.572 30.7933L352.685 31.4619L353.692 31.2265L354.204 28.9305L353.981 26.325L352.762 23.9374L353.18 22.768L352.872 21.8981L351.758 21.1923L351.227 20.2282L351.397 19.1311L352.265 17.3034L352.653 15.6371L354.108 13.3878L355.476 12.0303L356.975 10.0517L358.683 9.24603L359.33 7.35848L359.828 4.79126L361.896 3.99056L362.285 4.75553L365.789 3.9976L367.919 4.24528L369.109 2.94725L370.029 2.70312L371.712 3.40309L372.544 4.75727L374.024 5.01358L375.04 5.82534L376.998 6.23526L379.242 7.60465L381.33 9.48731L382.685 11.3059L385.938 10.4731L388.155 11.2001L390.945 11.272L391.603 12.0789L393.086 12.7648L393.786 14.3802L395.406 14.4335L397.005 13.7465L399.271 12.2304L401.741 12.4168L404.837 11.7925L407.681 12.2188L409.97 10.7887Z" fill="#1E1E1E" stroke="white" stroke-width="5"/>
</svg>
