<svg width="359" height="485" viewBox="0 0 359 485" fill="none" xmlns="http://www.w3.org/2000/svg">
<path d="M216.999 18.7361L217.936 22.1665L218.326 24.4513L218.255 26.009L217.521 29.2014L215.671 33.0695L215.807 35.2974L215.535 37.1631L213.825 39.5548L211.705 41.4357L210.57 41.8087L206.44 42.1559L204.807 42.9873L204.3 44.7585L204.994 46.8015L205.993 48.102L206.721 49.6979L206.739 51.1191L205.911 53.1011L205.2 53.9304L203.404 54.9001L202.83 55.8863L203.274 56.6051L205.571 57.7888L206.618 62.8267L206.645 68.361L206.216 69.8644L204.838 71.3189L204.412 72.582L204.767 74.3555L206.392 76.4735L209.203 77.2246L211.645 79.7839L212.937 81.6269L213.976 82.3946L215.94 83.2348L219.031 86.1625L219.384 87.5616L219.229 89.8764L217.884 91.9304L215.679 93.3927L213.909 94.2012L212.658 94.3081L211.404 95.0901L210.336 97.1665L208.153 97.8333L207.989 98.4551L209.413 100.403L210.003 104.775L209.765 106.788L210.146 107.809L212.888 110.29L214.926 113.036L217.325 115.136L219.328 117.878L220.008 119.484L221.102 120.877L223.985 122.548L224.791 123.814L225.121 128.477L225.467 131.332L226.461 134.204L227.033 135.232L227.012 136.337L225.309 138.705L225.002 140.726L227.389 142.732L228.472 144.212L229.516 144.699L231.956 144.371L234.605 145.165L238.099 146.611L239.852 146.539L243.188 147.112L245.992 146.269L248.48 147.334L250.756 147.17L253.511 148.907L255.536 151.075L260.068 157.969L260.742 156.893L265.585 157.919L266.935 158.95L269.192 162.53L270.974 164.475L272.018 166.053L274.247 167.245L274.928 167.954L273.927 169.289L270.034 170.915L269.328 172.298L271.011 172.964L271.941 175.275L277.516 175.528L279.1 175.161L282.062 173.977L288.16 172.55L291.805 172.087L295.418 172.472L298.999 173.93L300.897 174.39L302.284 175.964L303.627 176.959L307.176 178.285L311.378 178.103L312.18 179.164L311.715 181.162L309.492 187.389L309.414 190.171L310.163 193.121L309.487 194.646L308.122 195.934L307.518 198.913L305.889 201.497L305.397 202.998L305.485 207.931L305.647 209.944L306.596 212.16L309.487 214.524L311.251 215.033L312.99 214.767L314.525 215.283L316.455 218.04L317.791 220.42L320.354 223.504L321.813 224.711L325.907 225.16L327.579 225.042L331.387 223.269L332.995 223.738L334.05 223.159L334.506 224.625L333.749 227.456L332.613 228.698L330.242 231.98L329.039 232.958L325.484 234.658L324.315 235.927L323.496 237.466L323.324 239.183L322.774 241.008L323.032 243.932L322.562 245.687L324.425 249.352L326.916 250.724L328.235 252.198L329.435 252.757L334.766 256.155L338.208 259.731L339.177 261.599L340.215 262.47L341.352 262.4L343.319 261.101L345.022 260.431L348.065 260.197L348.901 260.674L351.367 262.744L352.807 264.279L355.034 266.156L355.74 268.178L355.931 270.008L353.105 272.2L352.101 272.667L350.29 275.035L349.523 276.979L349.104 279.445L348.962 282.64L348.121 284.254L345.025 293.611L345.629 294.214L344.769 296.769L343.677 300.868L342.279 303.835L341.241 304.672L338.636 305.741L335.344 308.298L330.775 309.449L329.626 309.946L328.185 311.658L327.14 313.751L326.437 314.332L323.025 314.567L320.215 315.973L318.518 317.54L315.97 318.504L314.893 320.02L312.925 321.535L310.526 324.018L310.499 325.131L311.191 326.189L315.977 329.869L318.105 330.925L320.73 335.032L322.067 339.449L322.102 341.11L321.767 342.937L321.481 346.587L320.895 348.594L319.383 348.194L317.108 346.648L315.524 344.488L312.729 340.179L311.605 338.699L310.774 338.542L309.157 339.369L306.626 341.526L304.7 344.016L303.723 345.913L303.092 347.921L303.409 349.834L304.416 352.487L305.963 354.473L306.196 355.278L309.579 360.366L308.862 362.026L307.175 363.73L304.964 365.376L301.874 368.272L300.685 370.123L299.795 372.365L298.574 376.325L296.675 379.893L295.747 381.292L290.023 384.767L286.236 388.932L283.678 390.644L281.822 392.365L280.537 394.939L278.634 397.252L276.642 398.775L273.487 401.612L271.687 404.198L271.052 408.297L271.149 411.321L269.312 412.504L266.685 413.169L263.507 412.9L260.512 412.867L258.686 413.766L257.256 413.544L256.433 414.427L256.395 417.263L256.779 419.909L257.925 422.42L258.153 423.991L257.849 424.808L255.18 427.66L252.438 427.988L250.391 428.596L249.079 429.418L245.169 430.7L242.775 432.345L241.141 434.543L240.334 438.332L239.872 439.461L239.177 442.852L239.202 445.858L238.769 448.088L236.912 450.82L236.191 452.402L237.051 452.974L236.633 454.531L235.081 457.147L232.943 459.64L230.217 461.806L228.647 462.778L226.321 463.636L224.257 463.664L221.658 463.084L219.027 463.08L217.161 464.142L215.88 466.475L215.53 470.677L214.436 472.493L214.897 473.507L214.413 474.396L211.626 476.902L207.366 479.901L204.44 481.158L201.922 481.693L195.793 480.129L194.903 478.763L193.534 479.359L193.037 479.357L192.173 477.784L189.846 475.535L190.188 472.826L189.995 471.792L187.556 472.718L184.749 474.946L181.854 478.532L180.216 479.072L179.202 478.557L177.479 476.957L176.682 476.773L174.432 477.311L171.26 476.657L170.366 475.761L167.627 474.638L167.061 474.678L164.576 476.181L160.462 477.03L159.42 473.726L157.403 470.632L155.589 468.397L152.36 462.868L151.569 460.248L151.813 459.446L153.188 458.554L154.283 457.296L155.572 456.675L157.769 457.132L161.069 459.267L162.414 458.604L163.016 457.594L163.339 455.649L164.802 453.056L164.575 451.751L165.064 449.977L167.702 446.882L168.157 445.363L170.131 443.398L170.139 442.38L168.484 442.286L167.335 441.302L166.622 438.767L165.665 437.584L166.427 433.906L165.83 432.205L164.367 430.59L163.691 427.409L162.88 426.25L161.483 425.621L160.667 424.786L159.323 422.342L158.119 421.608L157.847 420.108L158.748 418.812L158.865 417.771L158.305 415.565L158.466 411.393L159.098 407.021L158.172 405.204L157.86 403.624L158.944 401.518L156.718 399.542L156.438 398.514L156.527 395.348L156.135 392.977L156.863 391.326L158.856 391.774L160.336 391.431L162.305 391.82L163.445 391.377L161.158 388.052L159.008 386.364L156.364 385.291L153.768 383.617L150.769 382.353L148.824 383.22L147.467 382.71L145.558 384.626L143.124 385.663L139.758 389.416L137.222 390.167L135.446 391.845L133.011 394.733L131.273 394.331L128.808 392.73L127.974 389.084L125.158 386.092L122.507 382.593L120.793 381.619L116.61 381.283L113.514 380.88L111.031 380.198L110.284 379.225L112.28 377.94L112.631 377.373L115.472 374.785L117.205 372.423L116.68 368.361L116.957 364.898L116.473 361.461L116.825 359.249L117.812 356.079L117.522 354.313L116.882 352.84L115.755 351.53L115.46 349.93L114.518 348.353L108.14 343.724L106.741 341.913L105.857 341.255L106.5 341.138L107.946 339.513L109.929 337.808L112.224 334.67L111.964 332.958L110.22 330.509L108.36 328.312L103.685 321.966L103.564 321.177L104.443 316.837L103.214 313.937L100.811 311.086L99.7721 309.422L98.6863 308.478L98.5061 306.16L97.1455 304.185L93.166 303.06L91.2919 302.366L89.0315 301.184L85.7667 300.596L83.2787 300.368L82.187 299.138L80.6064 296.394L80.0732 294.621L80.6984 293.568L80.2568 291.764L78.4182 288.781L78.3764 287.309L77.7082 285.11L75.6164 281.879L72.5425 277.628L71.133 274.663L70.965 273.692L71.4727 271.521L72.9927 267.456L76.995 258.449L77.344 254.653L75.8 252.289L74.0541 250.722L72.8798 249.286L72.0325 247.081L71.3814 243.809L71.9466 242.155L73.2728 240.142L73.8013 238.337L73.1627 237.082L71.9036 236.08L68.1915 232.445L66.8765 229.274L64.547 225.979L62.5438 223.767L61.8207 222.142L59.7861 216.628L58.9708 212.649L59.7959 205.95L59.2904 204.088L57.8594 202.473L53.7337 200.481L51.5888 198.348L50.9616 196.255L49.2149 194.844L45.5855 194.592L42.4543 193.892L41.4986 193.403L38.8614 191.394L35.4877 187.228L33.375 186.498L32.3242 185.586L30.2307 179.609L29.9002 177.009L29.3805 175.468L27.7891 173.172L26.7283 170.828L26.2394 168.902L25.2576 167.162L23.886 166.712L18.9483 166.424L16.3743 166.566L13.1995 167.056L11.2432 166.911L7.8151 164.886L5.75625 163.38L5.40103 162.4L3.33521 160.554L2.76953 158.952L3.23549 153.486L7.53302 148.493L8.39494 145.316L9.14264 144.159L10.1781 144.302L11.8805 145.798L13.0307 145.963L13.609 144.15L13.5233 142.851L12.5845 139.877L12.8428 137.47L13.7032 136.516L15.0795 136.185L16.9585 136.59L17.9241 136.405L19.6338 135.347L18.5824 134.742L18.538 132.544L19.019 131.595L20.7596 130.35L23.2509 128.979L24.5236 127.184L24.3827 126.158L22.0587 121.535L21.7697 119.624L19.3788 120.006L17.3914 121.069L20.7605 118.954L22.5667 118.849L24.8664 119.651L28.5178 118.285L29.4782 117.288L32.2957 115.03L32.6164 113.371L35.1931 110.338L35.4359 108.372L34.9146 105.401L33.2812 102.263L32.1749 100.809L32.2344 99.9578L37.0999 97.9088L40.1211 96.2604L40.774 94.8979L42.7087 94.1121L45.1825 92.442L47.1246 89.0218L48.9224 88.0942L52.1044 85.4554L54.0035 84.817L58.3391 82.9308L60.9002 81.3221L62.4681 80.9648L66.2115 81.2579L68.4121 81.1411L73.307 80.0107L75.3956 78.9791L77.1106 78.933L80.7843 79.3036L84.3804 79.9311L86.3324 79.8534L87.0075 78.2165L86.5598 76.2433L86.6071 75.0149L87.6906 74.0765L88.6857 73.8841L91.8527 74.7096L93.0372 74.6268L95.8385 76.7437L96.6719 77.1079L98.4536 76.7691L103.94 74.9801L105.672 75.5869L110.081 76.3069L115.331 77.7262L117.66 78.0005L123.183 77.7147L124.463 77.3442L125.042 75.6245L124.987 72.8228L124.511 70.4123L125.342 68.3743L126.935 69.0142L128.211 71.0466L129.692 70.8684L131.65 72.3342L134.025 70.1054L135.663 69.277L138.176 68.661L138.51 69.9596L142.976 68.7651L148.187 66.6054L150.174 66.0719L153.279 65.9339L154.196 62.5356L154.884 61.0167L157.341 58.707L158.684 52.3548L160.332 49.9396L161.731 46.9986L162.776 45.7054L163.009 44.0807L161.297 42.6474L160.739 41.191L160.808 39.084L160.362 37.9596L158.058 35.5772L157.686 33.4984L161.286 30.2336L163.007 27.625L163.994 24.7888L165.095 22.7477L164.921 20.5381L163.912 15.7463L164.094 13.9826L164.644 13.4885L168.491 11.7198L172.275 10.957L173.198 9.91024L174.267 10.1213L177.24 9.26164L179.956 9.13793L181.537 8.24108L182.431 4.10607L185.39 3.01562L186.347 3.50145L189.164 7.18576L190.699 9.91455L191.795 10.4114L193.727 12.3927L194.757 13.063L199.987 15.1395L202.403 16.3345L207.923 16.7975L210.075 17.2325L213.535 18.8267L216.999 18.7361Z" fill="#1E1E1E" stroke="white" stroke-width="5"/>
</svg>
