<svg width="315" height="324" viewBox="0 0 315 324" fill="none" xmlns="http://www.w3.org/2000/svg">
<path d="M308.533 130.195L305.964 130.087L303.317 132.395L302.757 135.583L301.8 136.724L298.92 138.027L297.787 138.158L295.364 139.021L292.788 144.541L290.19 148.623L287.074 151.593L284.608 154.348L282.771 157.923L282.192 161L280.687 162.136L279.887 163.18L278.963 165.437L277.832 166.884L275.679 167.34L274.779 167.187L272.72 167.871L271.878 167.591L268.712 167.651L266.554 169.091L265.226 171.301L263.525 172.725L261.283 174.036L259.608 176.678L257.603 180.785L252.369 181.09L250.244 179.544L248.343 178.518L246.204 178.817L245.632 181.523L243.286 182.911L242.243 183.794L240.744 184.137L237.467 181.972L235.978 180.704L234.438 177.886L233.525 176.773L231.728 177.15L230.521 177.897L227.975 178.291L225.163 179.617L220.324 184.229L218.61 187.123L218.391 188.349L217.111 190.688L217.691 192.084L217.236 194.075L217.814 196.733L217.103 198.08L217.44 199.756L221.001 202.577L222.132 204.118L221.343 205.867L221.235 208.638L220.278 209.563L216.087 211.434L214.549 212.825L214.417 214.619L214.728 216.547L215.42 218.553L215.511 220.835L214.846 223.877L213.854 223.272L211.3 222.583L210.49 221.97L210.552 220.383L209.189 219.174L208.906 217.84L209.055 216.118L207.045 212.924L206.149 212.292L204.892 213.026L203.055 215.273L201.323 216.766L199.263 219.075L196.97 220.828L195.065 221.924L193.694 224.388L192.008 225.826L191.347 227.853L190.539 231.27L189.297 233.149L187.916 234.269L186.695 234.791L183.815 234.602L179.831 235.071L178.222 236.868L177.169 238.674L176.857 242.185L177.003 244.625L176.764 248.032L176.958 249.049L178.305 251.837L178.287 253.371L177.313 254.449L173.377 257.146L172.731 259.988L171.308 265.118L169.32 267.753L168.642 269.689L166.658 272.132L163.589 274.787L160.941 276.14L160.003 276.857L157.51 279.723L155.223 280.099L152.43 279.152L150.457 277.88L149.916 277.121L146.736 274.899L146.804 273.77L146.248 272.749L144.287 271.551L142.462 271.165L140.168 271.408L137.785 273.844L136.683 274.634L133.752 275.719L131.93 276.158L130.03 276.213L124.213 277.815L122.495 277.817L118.132 278.257L116.44 279.068L113.623 280.917L110.323 283.671L107.304 284.944L104.021 285.673L101.679 287L98.5739 289.494L96.0104 290.917L91.7758 292.389L89.5968 292.989L88.6625 293.774L87.3962 296.245L86.2064 297.579L85.2782 297.862L80.7906 298.434L79.965 299.179L78.1569 302.172L76.5635 303.28L74.2466 305.444L71.3451 308.973L69.5239 310.536L67.467 311.146L65.5838 312.631L63.1542 316.536L61.5817 320.331L60.3823 320.667L58.8767 317.615L57.9902 316.662L55.152 315.834L52.4977 313.163L50.461 309.928L49.6505 306.869L49.2782 304.157L48.6455 302.34L47.9039 299.136L45.4393 297.185L45.0812 293.551L42.9138 291.41L42.4325 290.277L42.7177 288.725L45.0377 285.919L45.5071 284.464L44.3829 281.967L42.0708 280.51L40.0125 277.153L36.6835 273.343L33.9945 270.725L33.556 268.778L35.5477 262.95L36.9084 260.813L37.6241 260.224L40.7674 259.081L41.6022 258.029L42.5291 255.439L43.5303 253.656L44.5183 252.532L47.3149 250.622L49.0342 249.172L49.7762 247.982L50.7954 245.009L51.4674 242.09L52.1724 240.277L53.4919 238.347L54.8174 237.253L56.6648 236.335L58.1693 236.195L59.44 236.893L62.3491 237.633L65.9342 237.761L70.7078 237.155L72.2569 237.83L73.3061 237.406L74.6781 238.036L76.1007 237.681L77.9922 238.583L79.0065 238.58L81.9646 239.527L84.3987 238.5L84.4743 236.338L82.6794 234.911L79.5206 233.525L78.4324 232.697L77.2243 232.801L76.7225 231.222L76.0717 230.541L74.3465 231.003L71.578 230.124L71.075 231.014L69.2759 230.505L68.1238 229.301L67.2311 227.473L65.9647 226.266L64.18 226.815L62.31 226.961L58.31 226.614L54.5229 226.002L50.9752 224.957L45.7675 224.793L41.6161 224.263L37.8303 224.165L33.3938 222.867L32.228 222.9L29.4948 226.362L28.631 226.62L27.8947 224.666L31.2844 221.494L32.8592 218.883L32.3914 216.348L31.8638 215.01L30.0683 212.471L29.1483 210.445L29.0066 208.96L30.5801 206.446L29.6992 203.992L28.3982 197.815L27.7002 196.166L25.1455 192.951L24.5808 192.627L23.447 190.497L25.0486 187.93L27.8027 185.247L28.4778 182.191L28.1432 178.468L26.9008 176.34L23.7699 173.276L22.41 170.971L20.618 168.439L18.5393 166.242L15.8477 164.741L12.5621 165.183L10.9899 165.143L8.74413 163.652L7.52838 161.13L6.67041 158.836L4.43359 156.847L5.91494 155.768L6.80483 157.134L12.9335 158.698L15.452 158.163L18.3772 156.906L22.6374 153.907L25.4246 151.401L25.9089 150.512L25.448 149.498L26.5418 147.682L26.8916 143.48L28.1726 141.147L30.0384 140.084L32.6692 140.089L35.2683 140.669L37.3321 140.64L39.6588 139.782L41.2291 138.81L43.9545 136.645L46.0922 134.152L47.6448 131.536L48.063 129.979L47.2023 129.406L47.9232 127.825L49.7801 125.093L50.2132 122.863L50.1885 119.857L50.884 116.466L51.3459 115.336L52.1524 111.547L53.7869 109.35L56.1811 107.705L60.0902 106.423L61.4029 105.6L63.4493 104.993L66.192 104.665L68.8609 101.812L69.1649 100.996L68.9361 99.4248L67.7903 96.9133L67.407 94.2673L67.4447 91.4315L68.2673 90.549L69.6976 90.7712L71.5232 89.8718L74.519 89.9046L77.6971 90.1738L80.3238 89.5086L82.1607 88.3262L82.064 85.3017L82.6988 81.2025L84.4984 78.6165L87.6539 75.7802L89.6459 74.2571L91.549 71.9437L92.8331 69.3693L94.6899 67.6492L97.2474 65.9368L101.035 61.7716L106.759 58.2971L107.687 56.8981L109.586 53.3297L110.806 49.3698L111.696 47.1279L112.886 45.2771L115.976 42.3813L118.186 40.7347L119.874 39.0307L120.59 37.3704L117.207 32.2823L116.974 31.4778L115.428 29.4914L114.42 26.8384L114.104 24.9257L114.734 22.9182L115.711 21.0206L117.638 18.5304L120.168 16.3736L121.786 15.5466L122.616 15.7033L123.74 17.184L126.536 21.4927L128.12 23.6532L130.394 25.1984L131.907 25.5983L132.492 23.592L132.778 19.9415L133.114 18.115L133.079 16.4537L131.742 12.0365L129.117 7.92985L131.446 6.97364L135.392 7.80577L137.596 7.9082L139.9 8.48632L141.717 8.18219L143.036 8.37199L144.376 7.73763L149.194 6.7391L151.236 6.14183L155.897 5.37338L156.378 4.92291L157.987 4.88982L160.299 4.2731L161.479 3.67969L162.879 4.51499L164.066 4.68813L166.895 4.36735L168.641 4.90974L171.055 6.28257L172.934 6.5421L174.792 7.99504L178.561 14.0726L179.709 16.7844L173.608 18.6693L171.442 20.0776L168.846 22.5646L166.934 25.0808L165.509 28.843L164.956 30.7967L164.733 33.9194L165.138 34.7866L166.346 35.2196L171.229 33.4357L173.713 33.58L174.195 35.63L173.583 39.55L172.445 41.9131L171.978 44.9263L172.094 46.0425L174.125 52.0977L176.393 56.9124L176.834 58.597L176.813 60.3969L176.395 62.5766L177.13 63.5945L178.092 62.431L180.149 60.7734L182.544 59.7443L185.416 59.8444L186.888 59.2802L188.952 57.6458L189.705 56.6525L191.217 52.1484L192.779 50.0092L193.237 48.5756L194.753 45.6849L196.161 43.5289L199.247 40.662L200.438 38.7534L200.631 36.5183L202.089 30.0875L202.156 28.0151L203.084 26.6209L205.238 24.4993L207.789 22.8449L210.332 19.1654L211.439 18.2916L213.204 17.6081L216.57 18.599L218.772 17.8588L220.807 16.5241L226.122 13.4192L227.315 13.2964L228.376 13.9315L230.01 15.9116L232.189 20.0301L234.149 21.4094L238.065 22.7006L239.091 25.1645L240.18 26.3744L243.326 28.5558L244.1 30.4438L244.03 32.2102L242.958 34.061L239.724 37.9031L239.168 39.5183L240.066 45.5577L241.04 47.2504L242.41 45.6915L244.526 40.5L247.466 41.1894L249.254 41.2108L250.888 40.0536L251.776 39.8485L252.532 40.5355L252.761 41.9874L252.405 43.2212L251.544 44.3355L249.646 48.407L249.255 51.4409L249.38 53.7615L250.381 56.2978L249.331 60.285L249.197 64.0522L248.657 67.5094L248.233 68.4012L246.738 69.719L245.958 71.2439L246.33 73.4198L245.939 75.7757L244.736 76.9509L242.297 77.1649L240.847 80.3702L239.856 83.6242L240.663 85.2741L244.132 86.0336L246.032 86.7108L247.749 87.8176L249.019 90.4033L249.138 91.6198L248.439 94.0328L248.873 94.9861L251.202 97.2376L253.611 97.0533L254.384 97.8258L254.559 101.467L255.971 103.607L256.726 103.765L259.812 102.244L262.308 100.299L264.577 97.9895L265.567 97.6656L266.545 98.4919L267.871 100.848L268.75 103.384L270.086 106.164L271.894 106.466L276.273 105.052L278.185 104.188L280.024 102.906L281.368 103.202L284.549 108.702L287.327 110.556L288.733 111.807L292.884 113.749L297.06 117.581L298.232 118.162L300.954 118.776L303.281 119.571L306.127 121.144L307.048 121.229L308.588 120.473L310.338 120.769L311.411 122.133L312.259 124.007L311.915 124.753L309.135 127.438L308.533 128.275L308.533 130.195Z" fill="#1E1E1E" stroke="white" stroke-width="5"/>
</svg>
