<svg width="402" height="557" viewBox="0 0 402 557" fill="none" xmlns="http://www.w3.org/2000/svg">
<path d="M230.521 3.19367L231.066 5.46449L232.405 7.16394L235.675 8.56471L235.906 9.32748L235.857 14.5608L235.479 19.691L235.544 21.2691L236.059 22.1787L237.005 21.9339L237.69 23.3385L239.592 24.1647L239.946 27.8664L240.293 28.4957L243.384 27.5113L244.95 28.6952L245.829 30.0767L248.679 31.8688L249.667 32.0555L250.639 33.5728L252.208 35.0145L254.38 35.1732L256.214 34.0101L259.528 32.6283L261.47 32.2704L264.311 32.8049L269.088 32.965L272.214 31.2439L275.95 32.2054L277.277 32.1699L281.587 31.1544L283.707 31.3297L288.393 28.6668L289.998 26.6476L290.96 24.8788L293.49 21.9584L296.895 20.5008L299.275 20.4154L300.09 20.8691L301.883 22.9614L304.711 22.2429L307.898 22.1312L308.785 22.461L311.434 24.392L312.926 28.4289L313.523 32.0132L314.637 34.4368L316.268 36.3576L318.007 36.486L320.319 34.8949L321.511 32.5713L323.744 30.7814L324.009 29.799L323.401 28.7867L323.9 27.2602L323.156 26.556L322.668 24.4405L320.575 22.4605L320.039 20.958L319.965 19.3627L323.093 21.0611L327.354 24.1077L329.289 25.8014L334.87 29.2355L337.424 30.6344L339.165 32.154L340.073 34.2407L340.428 35.7519L341.179 36.9369L341.556 40.2816L342.365 41.2712L343.771 41.8775L341.699 43.7127L343.069 44.4767L341.403 46.2545L340.803 47.6364L339.804 51.5876L339.575 54.9839L339.869 57.3571L341.116 60.7293L340.502 61.1701L339.018 63.5177L340.686 64.0341L342.253 62.5581L344.289 67.1749L346.879 72.1788L348.05 74.0044L349.329 77.5223L350.636 82.413L352.184 85.7812L353.956 87.2581L355.664 87.7461L357.054 87.4661L358.567 89.3931L360.189 89.479L361.752 90.6244L364.569 91.9098L365.396 93.2057L368.239 93.7127L368.927 95.7517L370.55 96.084L371.364 97.8552L372.386 99.0198L374.494 102.45L376.657 103.619L378.183 105.046L379.473 105.294L381.121 107.16L382.186 107.707L382.901 109.614L383.548 110.215L384.779 113.239L386.781 116.299L388.029 116.746L389.349 118.871L390.838 119.59L392.863 119.74L394.067 121.572L398.081 123.499L397.032 126.26L394.335 129.042L393.869 132.384L392.703 134.285L392.589 135.923L390.819 138.724L391.28 141.411L390.736 142.468L389.475 142.959L385.718 143.479L383.375 143.01L379.531 141.073L375.993 142.501L374.517 142.73L370.351 142.26L368.034 143.543L365.692 143.893L361.108 142.978L357.294 145.541L355.411 148.3L352.32 150.34L349.845 152.378L349.788 153.618L351.087 155.576L351.378 156.828L351.362 160.193L350.711 161.51L349.468 162.967L349.405 164.166L350.687 167.189L351.149 169.471L350.953 171.952L349.066 173.964L347.103 174.776L345.406 174.815L339.986 176.215L338.152 176.965L335.878 179.367L334.228 179.846L327.947 182.565L325.397 183.08L321.011 184.456L319.352 185.342L316.855 186.275L313.976 186.627L309.382 185.564L307.884 185.955L303.968 186.562L301.874 186.437L298.66 187.175L297.258 187.878L295.711 189.395L294.176 191.971L292.958 195.483L292.73 198.508L293.06 201.444L294.101 203.562L297.429 203.282L306.98 203.399L310.232 204.963L310.716 205.86L310.707 208.028L311.841 209.822L313.703 211.273L314.43 213.563L315.314 215.463L317.84 218.181L320.551 219.078L320.012 221.127L320.089 223.526L321.872 229.636L324.325 234.243L324.83 237.203L325.605 239.566L326.905 242.013L328.048 243.112L329.895 246.847L331.47 251.505L333.304 255.08L336.382 256.563L338.75 257.304L339.893 258.349L340.469 261.613L341.261 262.709L341.837 265.507L343.03 267.064L345.557 269.294L349.976 271.84L353.297 273.595L354.638 273.994L358.872 281.983L360.077 282.984L361.736 283.699L362.439 284.848L365.318 287.721L368.747 290.589L372.547 292.179L378.448 298.481L378.826 299.309L379.907 299.686L382.232 298.871L383.834 298.755L384.483 299.35L383.744 300.63L383.4 302.346L383.018 306.399L383.288 309.449L383.074 310.607L382.21 311.037L379.681 310.238L374.656 307.669L373.785 307.589L371.59 306.114L368.781 304.997L364.303 302.329L362.381 302.402L362.364 304.485L363.346 309.375L363.96 310.754L363.622 312.839L362.637 314.426L361.529 317.126L361.301 321.524L360.818 322.921L359.742 324.192L358.279 324.779L353.659 327.391L348.774 330.959L345.229 334.469L342.78 337.929L342.27 339.135L342.101 341.249L341.706 342.502L339.606 345.351L339.371 348.985L338.423 350.023L335.047 352.172L334.328 353.376L334.81 354.052L336.897 354.918L339.808 356.546L341.957 357.986L342.6 358.715L344.794 365.009L345.354 368.844L345.309 370.201L343.314 369.889L340.135 369.726L337.383 370.624L334.793 371.932L328.922 375.68L326.883 378.62L325.1 382.274L323.73 386.615L323.019 388.305L322.216 388.228L321.448 386.403L321.037 382.072L320.438 381.005L320.088 378.875L320.238 377.314L320.865 375.259L321.994 373.325L321.991 371.894L319.801 369.884L317.673 368.277L316.058 368.341L314.33 369.511L312.787 371.145L311.358 372.105L308.268 372.681L306.02 373.551L304.526 374.735L299.665 377.359L298.152 378.441L294.895 380.24L293.326 380.747L289.465 382.727L288.677 384.743L288.837 387.367L290.468 390.466L293.092 394.199L294.783 395.463L294.916 396.894L293.422 398.159L293.426 399.298L294.635 400.489L296.145 404.366L297.701 406.659L299.518 408.153L303.887 409.855L307.484 410.927L311.267 411.825L316.457 412.423L319.631 411.525L320.302 412.388L319.954 413.206L317.977 416.045L315.987 418.461L313.368 420.875L311.877 424.385L310.37 427.232L313.085 429.509L313.578 430.394L313.92 432.635L312.479 435.403L312.154 437.354L313.356 441.267L312.439 444.766L311.6 446.907L310.004 448.422L307.664 449.671L304.294 450.849L300.878 452.813L299.915 453.76L295.456 455.386L290.999 456.533L289.006 457.437L287.081 459.507L286.103 461.125L285.907 464.232L286.158 466.655L285.324 467.97L282.532 468.228L279.341 468.064L273.876 467.258L270.743 466.41L268.312 465.43L266.151 465.705L264.546 466.478L262.954 467.909L261.505 469.689L259.171 470.156L258.183 470.624L256.552 470.608L255.219 471.368L252.168 473.673L251.606 475.705L255.637 479.084L255.306 482.594L255.823 483.458L257.275 483.881L257.748 485.012L257.174 487.945L255.801 488.961L255.376 489.852L256.046 490.802L257.655 490.541L258.105 491.255L257.736 493.842L259.663 494.677L260.367 496.031L264.152 500.109L264.426 500.938L263.197 503.198L263.413 504.508L264.734 504.12L264.065 505.959L264.078 507.507L265.012 508.891L266.564 512.03L266.315 512.81L264.836 512.699L264.473 513.552L261.527 514.081L261.395 515.565L263.155 516.546L262.628 517.92L261.019 517.743L260.663 519.843L259.172 519.707L258.658 520.934L259.686 523.547L262.138 526.016L262.503 528.92L263.085 530.828L263.884 531.977L264.236 534.735L263.038 538.583L261.837 543.469L261.192 544.481L259.538 545.203L255.955 545.13L254.374 544.721L252.347 545.052L251.208 545.96L249.419 546.568L248.158 547.842L247.171 549.506L246.269 551.716L244.595 552.362L244.083 553.518L243.183 553.853L241.645 553.538L240.423 554.388L239.179 554.418L238.414 553.4L237.078 554.058L235.632 553.747L234.843 554.259L233.378 554.203L231.508 551.136L229.021 548.992L228.201 547.427L226.289 545.823L225.069 547.391L221.967 548.157L218.408 551.208L215.966 551.213L214.673 550.938L212.574 549.612L210.517 547.362L209.55 543.487L211.944 539.577L213.13 534.512L213.242 532.038L212.489 527.988L211.597 526.628L209.188 520.109L208.15 518.221L206.322 516.66L204.063 515.669L200.44 515.089L197.217 513.575L195.044 512.744L193.446 511.431L192.344 509.991L191.871 508.311L190.698 506.67L190.215 505.408L190.585 503.665L191.501 501.159L191.614 500.019L191.093 498.44L190.459 497.81L187.81 496.204L186.282 494.744L184.479 492.29L182.651 491.825L180.194 492.793L178.743 493.646L177.304 493.59L174.956 492.585L170.669 491.891L169.244 491.325L166.151 491.142L162.51 490.725L160.065 490.862L157.82 490.561L155.835 490.566L152.697 489.869L150.507 488.749L148.707 488.136L145.21 487.736L143.033 487.966L137.525 486.892L134.782 486.976L133.539 486.625L133.12 482.135L132.799 481.1L131.693 479.651L130.506 478.792L130.248 476.279L129.663 473.879L128.988 472.255L125.774 467.868L124.759 465.925L124.582 464.941L123.364 463.786L122.175 463.443L120.665 464.48L118.086 464.499L118.356 460.189L117.437 458.769L115.467 458.753L114.823 459.716L112.776 459.79L111.181 458.717L110.565 456.898L106.809 455.273L103.679 452.425L102.497 451.879L102.035 450.847L102.896 449.122L101.896 447.983L102.106 445.47L101.189 444.166L99.1863 443.211L98.0999 441.026L97.2007 440.352L96.6579 438.269L96.9981 432.368L96.6814 426.529L97.4516 423.95L102.162 423.244L104.305 422.609L108.139 422.47L108.333 421.625L106.182 413.471L104.861 412.329L104.133 411.22L103.691 409.214L103.146 404.879L103.619 404.046L110.959 401.062L112.636 400.84L116.199 399.763L120.386 398.774L121.427 397.77L120.924 394.103L121.166 392.949L120.626 391.674L117.056 389.292L114.994 386.703L112.429 386.596L109.31 385.273L109.57 383.491L110.594 382.761L110.643 381.547L114.247 379.333L115.726 378.698L118.527 374.632L118.296 371.844L120.062 368.868L119.313 368.631L114.414 368.956L113.365 369.978L112.25 370.054L108.94 369.413L105.531 369.272L102.93 368.379L101.946 367.395L101.703 366.261L102.819 359.358L104.068 356.218L103.913 351.986L103.413 349.344L103.354 347.531L103.749 345.372L108.459 338.615L111.134 336.442L112.751 334.342L113.013 331.807L112.612 329.352L111.939 326.959L110.507 322.924L110.039 320.951L109.398 320.349L108.831 316.999L108.787 313.013L108.979 310.782L108.797 308.29L108.031 308.171L105.78 309.506L102.827 311.862L101.18 313.577L99.0308 316.238L98.2038 316.789L93.6878 317.086L89.9225 317.142L88.1918 316.997L85.7734 316.093L84.8316 314.622L84.0766 311.015L84.1241 308.239L84.5631 307.223L84.4099 305.813L83.4205 304.182L81.5613 302.36L79.4578 299.205L79.899 294.486L80.0577 290.504L80.4665 287.391L80.7207 286.173L81.8984 285.325L84.7858 279.281L85.8538 275.348L85.6609 271.553L86.2076 269.934L88.567 267.483L89.8428 267.162L93.1486 267.994L94.116 267.662L94.9316 266.576L97.9069 265.976L98.7361 264.583L97.6555 260.934L98.4069 260.215L100.259 261.328L101.463 260.168L102.203 257.407L101.993 255.952L101.167 254.675L99.0302 252.2L99.4454 251.525L101.02 251.325L102.596 251.654L104.387 252.906L105.651 252.017L102.543 249.481L100.469 248.601L99.1393 247.729L98.5891 246.554L99.2036 242.844L99.1998 241.483L98.6708 240.695L96.964 239.41L94.1249 238.572L93.119 237.588L92.6603 236.47L91.9021 236.157L90.367 236.388L88.8206 237.621L85.9105 241.001L84.5894 242.891L83.4958 243.216L79.8092 245.64L78.4866 247.376L76.5913 248.982L73.157 249.493L71.4947 249.551L69.0125 247.96L67.2167 247.382L64.9441 247.086L65.1501 244.736L65.1828 241.313L64.5821 238.459L64.3977 229.397L64.2064 228.674L61.1321 221.844L61.0679 220.357L59.8839 219.395L57.8523 218.808L54.1502 219.567L52.8688 217.691L51.2711 216.592L49.9034 216.072L48.6111 216.088L45.7216 216.876L45.15 218.725L43.3908 219.351L41.2721 221.371L40.4482 222.687L39.3234 223.258L37.1948 222.702L33.4196 223.502L32.2931 223.077L32.2726 219.701L31.6261 217.899L31.3402 215.693L29.9377 213.392L26.4978 212.743L24.9023 211.459L24.0471 209.944L23.4274 207.156L22.3065 205.43L20.3173 199.869L19.2959 196.192L18.5024 194.196L18.4015 191.76L17.7286 189.352L16.3409 187.414L14.9254 184.705L14.2983 181.9L13.5101 179.867L12.9105 176.106L10.1727 173.017L8.71226 171.676L7.26562 170.861L8.19383 170.577L9.38369 169.244L10.6499 166.773L11.5843 165.988L13.7633 165.388L17.9979 163.916L20.5614 162.492L23.666 159.999L26.0085 158.672L29.2917 157.943L32.3108 156.67L35.61 153.915L38.4279 152.067L40.119 151.255L44.4828 150.816L46.2006 150.814L52.0171 149.211L53.9176 149.157L55.7392 148.718L58.6702 147.632L59.7722 146.842L62.1554 144.407L64.4492 144.164L66.2749 144.549L68.2355 145.748L68.7911 146.769L68.7236 147.897L71.9038 150.12L72.4448 150.879L74.4173 152.151L77.2109 153.098L79.497 152.722L81.9908 149.856L82.928 149.138L85.5761 147.786L88.6457 145.131L90.6297 142.688L91.3075 140.752L93.2955 138.117L94.7186 132.987L95.3644 130.145L99.3004 127.448L100.274 126.37L100.293 124.836L98.9454 122.048L98.7513 121.03L98.9902 117.624L98.8441 115.184L99.1565 111.673L100.209 109.867L101.818 108.069L105.803 107.601L108.682 107.79L109.903 107.268L111.285 106.148L112.527 104.269L113.334 100.852L113.996 98.8246L115.682 97.3867L117.052 94.9223L118.957 93.8264L121.251 92.0736L123.31 89.7647L125.043 88.2719L126.88 86.0248L128.137 85.291L129.032 85.923L131.042 89.1168L130.893 90.8391L131.177 92.1725L132.539 93.3822L132.478 94.9683L133.287 95.582L135.841 96.271L136.834 96.8756L137.498 93.8332L137.408 91.552L136.715 89.5454L136.404 87.6175L136.536 85.8241L138.074 84.4328L142.265 82.5618L143.222 81.6367L143.331 78.8653L144.119 77.1166L142.988 75.5761L139.427 72.7546L139.091 71.0789L139.801 69.7322L139.224 67.074L139.678 65.0828L139.099 63.6863L140.379 61.3475L140.597 60.1216L142.312 57.2281L147.151 52.616L149.963 51.2897L152.508 50.8955L153.715 50.149L155.513 49.772L156.426 50.8849L157.966 53.7026L159.454 54.9707L162.731 57.1354L164.231 56.7929L165.274 55.9096L167.619 54.5215L168.191 51.816L170.33 51.5162L172.232 52.5426L174.356 54.0885L179.59 53.7841L181.595 49.6766L183.27 47.0343L185.513 45.7236L187.214 44.2995L188.541 42.09L190.7 40.6494L193.865 40.5898L194.707 40.8694L196.766 40.1861L197.667 40.3389L199.82 39.883L200.951 38.4353L201.874 36.179L202.675 35.1349L204.179 33.9983L204.759 30.9213L206.595 27.3472L209.062 24.5918L212.178 21.6221L214.776 17.5401L217.352 12.0198L219.774 11.1568L220.908 11.0256L223.788 9.72291L224.745 8.5822L225.304 5.39416L227.951 3.08594L230.521 3.19367Z" fill="#1E1E1E" stroke="white" stroke-width="5"/>
</svg>
