<svg width="452" height="318" viewBox="0 0 452 318" fill="none" xmlns="http://www.w3.org/2000/svg">
<path d="M421.993 28.7786L423.606 30.561L425.094 32.85L427.427 39.479L428.769 41.7334L430.77 45.7841L431.341 47.9961L429.85 52.1079L429.322 53.1032L429.083 56.473L428.707 59.1477L427.736 61.5291L423.338 67.9177L422.17 70.7212L422.378 73.2999L421.805 75.9789L419.91 77.3481L419.342 78.8403L420.741 79.76L420.511 80.6989L421.965 81.78L423.321 81.4632L423.814 82.2347L422.774 84.9666L424.257 86.1685L424.969 87.7628L424.448 88.8069L422.452 88.2689L421.056 89.7718L420.262 91.3964L418.02 91.9716L416.946 94.0765L416.043 97.0604L417.09 98.9077L416.071 100.247L415.955 101.409L416.834 102.849L417.589 105.245L418.859 106.754L418.228 108.302L418.918 109.621L419.138 111.591L421.007 114.632L422.46 115.747L425.747 120.586L427.87 122.812L429.179 124.782L429.504 126.391L429.482 128.713L429.185 130.978L428.493 134.075L428.561 136.733L428.941 137.911L431.716 141.316L433.175 144.331L436.978 148.066L441.42 151.056L446.428 152.411L448.664 153.982L448.715 155.568L447.837 155.754L444.891 154.908L442.074 155.258L440.412 155.112L437.664 155.412L433.216 156.362L432.03 157.165L430.639 157.407L429.463 156.38L427.605 155.29L425.845 154.771L421.546 154.295L419.146 154.472L416.429 154.331L414.305 154.66L411.657 156.065L409.824 156.312L408.957 158.018L409.266 161.8L409.108 163.916L408.469 165.144L406.983 166.788L406.074 168.322L406.523 169.996L406.378 172.19L405.134 175.682L404.779 177.27L402.774 181.944L398.635 186.842L398.007 187.973L398.34 192.809L398.564 193.657L400.528 194.805L398.604 199.873L396.796 201.692L393.067 203.43L389.251 204.151L385.609 203.354L383.797 203.706L381.771 205.211L380.023 208.044L379.633 212.109L380.961 213.724L380.56 215.775L381.62 217.894L381.905 220.443L381.651 222.108L382.05 224.579L380.607 225.888L376.885 226.114L373.935 225.687L372.693 225.222L369.898 225.542L363.807 227.587L359.749 228.729L358.544 228.653L356.764 227.385L356.014 224.892L354.556 223.731L353.032 223.789L350.864 225.582L348.534 226.119L346.925 227.16L345.742 229.616L344.028 230.806L342.855 232.325L338.598 235.428L335.905 237.085L332.924 236.861L331.414 237.032L329.887 238.392L328.17 238.965L326.609 237.888L325.329 237.537L322.326 237.428L319.803 236.819L315.027 237.705L312.696 237.283L311.605 237.68L309.542 241.108L309.866 241.966L311.377 243.422L313.624 244.543L314.629 245.853L316.208 246.852L318.523 249.056L320.142 249.963L320.829 251.801L320.017 253.273L318.461 254.564L316.447 257.149L314.695 257.461L311.782 256.376L309.476 255.017L305.526 252.216L302.74 251.265L301.227 249.343L300.256 246.965L298.16 244.532L297.326 244.013L296.008 244.043L294.709 243.343L293.343 243.166L291.361 243.842L288.463 243.785L286.688 244.116L283.635 245.616L282.561 246.717L282.052 248.075L281.427 252.775L281.485 255.902L282.309 260.07L283.095 262.631L283.285 264.436L283.334 269.188L283.925 271.073L282.529 273.787L282.603 274.532L283.949 276.528L284.511 278.586L285.391 280.399L285.121 282.897L284.3 285.736L285.452 287.388L286.391 290.337L286.473 292.781L285.694 294.649L285.798 296.525L286.278 297.389L286.681 302.213L287.254 305.17L287.794 311.298L285.942 310.558L284.417 310.306L283.515 311.182L282.489 310.683L280.075 311.162L279.002 309.893L277.355 309.699L276.277 309.165L273.979 308.717L272.907 309.007L268.652 307.889L267.363 307.891L265.457 308.529L264.791 309.696L263.173 309.63L262.21 311.217L259.184 311.461L255.959 313.348L255.103 314.486L254.06 314.885L251.763 314.273L250.882 313.591L249.014 313.712L247.633 312.458L244.337 311.508L243.722 310.759L242.068 310.945L239.3 309.49L238.48 308.311L237.016 307.236L234.379 306.261L230.757 305.607L228.542 304.359L228.957 303.528L228.874 301.687L228.117 300.295L225.655 298.726L222.518 297.592L216.822 296.354L213.389 295.284L211.642 294.093L208.093 293.239L206.061 292.201L203.877 290.243L200.482 288.522L196.315 287.702L193.993 287.029L190.187 286.681L189.238 286.102L185.408 285.406L181.758 284.414L174.861 283.498L172.002 282.518L169.423 281.985L168.33 282.177L164.854 281.421L163.788 280.867L162.858 278.942L161.879 278.561L160.721 276.4L161.222 274.248L158.79 272.045L157.538 269.672L157.262 268.469L155.879 265.127L149.468 262.362L145.029 261.225L143.293 260.933L143.469 259.302L142.229 259.404L140.783 260.629L138.497 259.293L134.623 258.549L133.36 258.519L127.004 259.417L122.813 261.226L121.358 262.964L120.81 264.561L119.609 265.696L116.132 265.345L112.702 266.38L111.066 267.867L110.778 270.477L111.576 270.74L110.931 272.565L109.524 272.871L108.701 272.281L106.301 271.729L105.454 270.996L105.053 269.609L105.624 268.092L104.663 266.44L103.378 265.217L101.629 265.024L97.884 265.157L96.6781 264.705L91.902 263.68L90.2541 263.692L88.0594 263.141L87.1168 262.561L84.9839 261.934L83.1992 262.035L80.4243 261.734L76.2841 261.844L72.4719 261.621L68.0103 261.884L65.112 262.472L62.508 260.876L62.0618 259.257L60.1547 256.52L57.7783 255.464L54.062 254.455L47.1868 253.379L45.4846 253.311L43.3064 252.791L42.7487 252.307L42.8246 250.926L42.1838 249.456L40.8305 248.967L42.0222 247.646L42.1448 244.884L43.3999 241.708L44.4807 240.578L46.6103 239.607L47.8589 236.831L48.3567 233.047L48.2306 231.656L52.1758 230.84L54.8186 229.893L55.6298 228.917L56.1043 226.915L55.852 224.169L57.2536 220.38L57.4405 218.406L56.8712 216.196L55.314 213.787L53.144 211.619L51.4731 210.239L50.5107 208.979L46.0571 204.393L42.6718 200.749L41.2677 198.749L39.1352 195.06L37.5033 191.627L37.0792 190.209L34.9567 180.442L32.5454 173.658L31.5034 171.409L30.0549 169.786L27.4363 167.877L25.7513 167.141L21.6038 166.449L18.5357 165.639L17.2839 164.637L14.7326 160.73L10.6985 155.418L9.84735 153.231L9.97295 151.127L8.78031 148.439L6.35904 146.153L7.02489 144.685L6.05606 143.581L6.59886 140.764L6.4057 139.992L4.54906 139.698L3.55469 139.054L3.63409 138.206L5.58963 135.426L6.51946 130.454L6.71123 127.336L8.20987 124.716L8.55696 122.658L10.4556 123.018L13.4991 122.074L15.7616 120.257L17.1107 118.357L19.5635 114.413L25.8813 110.758L28.1372 108.741L28.5298 107.107L27.196 102.972L26.0823 98.7531L29.2753 97.3626L32.9146 97.0621L34.1975 96.7464L36.3353 95.7121L37.3689 94.8185L39.7175 91.8821L39.7275 90.3405L38.7034 87.6302L37.3408 85.5077L35.4575 83.0669L38.3452 78.4868L38.4905 77.1186L37.2057 74.5767L36.4377 71.9326L36.9368 69.0785L38.2491 66.6782L39.8668 64.974L40.6671 62.1152L40.4999 60.1366L41.6842 60.3834L43.151 59.1264L44.3455 58.6612L46.8815 60.041L46.7176 62.2556L46.9435 63.1595L48.171 63.5958L48.7795 64.7478L49.7163 65.3921L50.8193 67.4658L48.5965 69.7053L48.5064 70.7853L50.4497 72.724L52.3423 73.5352L54.3629 77.1712L55.2664 78.0411L56.5659 78.2326L60.6186 77.7453L61.4219 78.5082L60.8705 80.1027L59.1374 83.8555L59.1097 84.7533L60.5139 86.3993L59.4763 87.607L59.2293 88.7221L60.1666 90.239L61.4816 90.1992L62.505 89.4404L64.6618 86.9834L65.5659 85.0618L64.685 82.6245L65.1897 80.2486L65.2274 77.6376L68.6839 72.4236L69.4556 70.6091L70.5976 69.2572L71.8135 68.3982L75.3303 67.7735L77.6755 66.9072L77.9729 65.627L79.0151 63.3529L82.4581 60.657L85.5369 59.578L87.5526 58.0985L89.226 55.8592L91.0197 57.3399L92.5428 59.0659L92.6823 60.6667L93.5132 61.3562L93.9908 62.9418L93.1531 65.6302L93.1738 66.686L94.7539 66.8883L96.5254 68.1258L101.732 67.4642L103.59 67.5877L106.586 68.62L108.609 68.689L110.621 69.2041L111.819 70.0794L116.044 72.2428L117.692 73.7855L119.81 74.4198L120.919 73.8983L121.201 71.9688L122.625 69.8101L124.697 68.7307L127.328 69.0211L129.693 68.9845L131.79 69.3389L134.102 69.2417L136.758 70.1023L139.016 71.2631L141.169 70.1028L143.53 71.1481L144.656 69.1744L145.799 68.1477L146.352 66.4342L147.745 66.7128L150.643 66.4996L152.349 64.6036L153.728 64.9566L155.016 63.5148L155.66 61.6112L158.042 60.4581L158.692 59.3269L160.587 58.5325L161.635 59.5213L165.47 60.5851L167.59 60.8528L169.982 59.9494L172.371 60.193L173.92 59.0562L176.959 57.4884L178.347 58.1169L180.246 57.6123L180.75 55.8899L183.025 55.0483L186.423 56.044L189.013 55.9914L189.385 55.3882L189.438 52.5717L190.208 49.6581L192.567 48.6382L194.593 49.0859L196.042 48.8865L197.148 47.6747L200.174 45.848L202.256 45.9166L204.192 45.2507L205.089 44.0671L206.665 44.6481L208.309 44.7155L209.783 43.5502L210.661 41.2823L211.813 40.9297L215.362 41.996L216.513 41.8266L218.055 40.986L221.134 42.3795L224.208 41.8195L226.063 42.6549L227.424 42.578L232.133 44.2318L234.933 47.8497L236.372 48.3836L237.649 47.7507L239.061 47.6036L239.172 45.9037L240.246 42.8848L240.073 42.0094L241.026 40.7131L240.605 39.1069L240.911 38.2456L242.197 36.9952L242.488 35.2669L243.607 33.1098L244.751 32.6693L245.237 31.4222L245.705 27.0742L247.678 26.4338L248.981 24.8807L250.338 23.8406L251.887 23.7821L253.141 21.7049L256.663 22.7369L260.142 21.5747L261.546 23.6391L262.934 24.4076L264.523 24.4018L265.426 25.2989L265.215 26.9484L266.034 27.0603L267.738 28.2923L268.907 28.4936L271.862 28.1323L272.918 29.4071L274.725 29.5972L276.924 30.6441L279.444 31.1335L280.874 30.7564L283.984 31.171L285.746 30.1824L287.505 28.4673L291.56 26.0654L293.494 26.376L294.568 25.804L295.646 24.537L297.348 25.2209L298.458 25.1473L300.7 24.3714L302.055 26.4848L303.858 28.0519L307.804 28.7014L309.897 29.2846L313.086 29.1508L313.925 30.6227L314.65 30.7395L318.416 32.6479L319.088 35.5611L322.096 37.9444L323.996 38.5531L327.063 38.8842L328.049 38.1654L327.432 36.2771L326.918 33.3584L327.044 32.0565L328.32 30.3881L328.517 29.2049L329.338 27.7994L329.242 26.1586L329.777 25.1765L329.885 23.4082L330.842 22.44L332.564 21.627L333.828 22.5384L336.105 21.4475L337.042 22.1352L338.531 21.7068L340.267 21.8583L341.997 22.4616L342.531 23.5619L344.417 22.9671L344.964 21.525L346.573 21.3367L347.976 21.7679L348.641 21.4779L351.551 17.9235L353.523 19.6047L354.151 20.6985L355.266 20.7809L357.273 19.8716L358.478 20.5852L360.35 19.9536L360.626 18.0543L361.616 17.2477L362.312 15.2339L363.35 14.6686L364.455 13.0121L368.045 11.9581L370.284 13.0706L370.888 11.5814L373.087 10.1419L375.06 9.92497L376.972 10.5735L377.853 10.2427L378.738 9.05963L380.06 4.29612L380.654 3.33594L385.928 5.71904L386.076 6.76894L387.504 8.05137L392.548 10.1131L395.041 12.7652L394.804 14.4906L395.548 15.8448L396.25 16.2256L398.889 16.2383L400.383 15.3231L401.877 15.0143L403.921 15.1263L404.991 15.6523L405.272 16.5507L404.987 21.1581L404.272 23.1851L403.48 24.2752L403.762 25.7713L406.742 27.4363L408.363 29.5386L409.911 30.6814L411.085 30.8752L414.253 29.9048L415.239 29.2137L417.675 29.9954L420.424 29.843L421.993 28.7786Z" fill="#1E1E1E" stroke="white" stroke-width="5"/>
</svg>
