<svg width="153" height="184" viewBox="0 0 153 184" fill="none" xmlns="http://www.w3.org/2000/svg">
<path d="M149.296 134.638L146.124 136.471L145.581 137.081L143.711 137.842L141.08 140.144L139.889 140.25L138.258 141.749L136.197 141.961L133.389 144.726L130.88 147.51L127.688 148.846L124.918 150.87L121.982 154.283L120.306 155.833L117.81 157.713L116.357 158.425L113.626 160.219L112.884 161.362L112.136 163.778L111.594 164.34L110.103 169.541L108.978 171.129L105.1 174.07L101.75 177.121L100.114 178.116L94.4876 180.343L93.8379 179.748L92.2363 179.864L89.9115 180.679L88.8303 180.302L88.4528 179.474L82.5517 173.172L78.7512 171.582L75.3225 168.714L72.443 165.841L71.7401 164.692L70.081 163.977L68.876 162.975L64.6419 154.987L63.3011 154.588L59.9798 152.833L55.5616 150.287L53.0344 148.057L51.8411 146.5L51.2657 143.702L50.4732 142.606L49.8972 139.341L48.7547 138.296L46.3863 137.556L43.3085 136.073L41.4746 132.497L39.8998 127.84L38.052 124.105L36.9097 123.006L35.6097 120.559L34.8343 118.195L34.3297 115.236L31.8767 110.629L30.0931 104.519L30.0163 102.119L30.5553 100.071L27.8446 99.1736L25.3186 96.4562L24.4342 94.5556L23.7074 92.2661L21.8449 90.8151L20.7113 89.0212L20.7202 86.8525L20.2366 85.9558L16.9846 84.3915L7.43355 84.2749L4.10555 84.5553L3.06452 82.4373L2.73438 79.5013L2.96213 76.4764L4.1802 72.9642L5.71575 70.3883L7.2621 68.8709L8.66427 68.1683L11.878 67.4294L13.9724 67.5546L17.8879 66.9484L19.3864 66.5566L23.9807 67.6201L26.8593 67.2677L29.3558 66.3348L31.0149 65.4489L35.4013 64.0734L37.9517 63.5578L44.2323 60.8392L45.8823 60.3602L48.156 57.9582L49.9903 57.2078L55.4103 55.8078L57.1078 55.7691L59.0699 54.9572L60.9571 52.9447L61.1532 50.4643L60.6911 48.182L59.4092 45.1591L59.4719 43.9594L60.7151 42.5026L61.3665 41.1859L61.3825 37.8211L61.0918 36.5693L59.7924 34.6108L59.849 33.3712L62.3243 31.3332L65.4153 29.2925L67.2987 26.5336L71.1126 23.971L75.6962 24.8855L78.0385 24.5355L80.3555 23.2532L84.5212 23.7225L85.9972 23.4935L89.5348 22.0663L93.3792 24.0027L95.7222 24.4719L99.4789 23.9523L100.74 23.4606L101.284 22.4034L100.823 19.7173L102.593 16.9157L102.707 15.2777L103.873 13.3768L104.339 10.0347L107.037 7.25255L108.085 4.49219L110.008 5.88032L113.186 7.55538L116.294 8.53642L118.304 9.7664L118.51 11.5719L119.601 14.0641L121.198 21.5108L121.455 23.6618L122.086 26.3546L122.521 32.2599L123.88 42.3191L124.438 47.0985L125.694 54.3696L127.555 61.6789L128.407 64.655L130.829 71.6196L132.097 76.293L132.922 78.2481L135.11 85.0186L136.613 86.3502L136.202 87.8432L136.585 90.1187L137.11 91.6256L136.968 93.1553L137.335 95.1649L138.283 96.6037L138.391 99.7267L138.681 101.465L140.163 105.484L140.355 108.812L140.646 110.288L141.786 112.854L143.994 113.605L143.51 114.215L143.469 115.883L143.858 117.927L143.676 120.161L145.147 123.264L145.864 125.745L146.072 127.645L149.047 130.97L148.717 132.402L149.296 134.638Z" fill="#1E1E1E" stroke="white" stroke-width="5"/>
</svg>
