<svg width="373" height="339" viewBox="0 0 373 339" fill="none" xmlns="http://www.w3.org/2000/svg">
<path d="M234.755 281.501L233.975 283.02L234.384 283.608L238.146 281.418L241.842 281.225L242.434 280.633L244.351 280.831L243.409 282.837L241.419 284.308L241.014 286.461L239.688 286.873L237.258 289.985L235.532 289.413L234.392 290.003L233.335 291.305L232.06 290.385L230.811 290.578L229.867 288.977L230.525 288.327L230.34 287.173L233.022 286.361L233.22 285.019L232.679 283.998L231.362 283.989L230.985 283.189L232.114 282.533L231.777 281.738L234.323 281.045L234.755 281.501ZM300.324 284.44L299.983 286.048L297.072 287.911L295.338 290.456L294.071 290.064L294.867 287.842L296.433 287.713L297.649 286.163L297.504 284.711L298.831 284.341L298.616 282.151L299.157 279.651L300.156 278.881L300.053 282.605L300.324 284.44ZM224.842 273.679L225.485 274.7L224.244 275.374L224.085 273.704L222.321 273.815L224.275 271.954L225.248 272.035L224.842 273.679ZM109.262 218.698L100.072 218.117L97.8853 218.384L94.7708 218.24L88.9458 217.269L88.5801 215.641L87.5287 214.785L86.2404 212.485L85.8855 210.436L85.3349 209.763L84.1417 209.933L80.5105 211.397L78.655 210.633L77.7444 209.711L76.6264 209.446L74.6057 207.72L72.9273 205.778L72.3907 204.464L70.6527 202.855L69.1801 199.834L68.5524 199.379L65.0998 202.155L62.4433 206.145L60.65 209.507L59.9296 210.41L57.3994 212.4L54.0446 213.413L51.6663 213.817L51.4033 214.911L51.6148 218.47L51.4201 220.247L50.0248 221.718L46.5382 223.68L43.6433 224.636L38.9134 226.422L37.3104 226.581L33.694 225.788L31.8913 225.755L29.2749 225.242L22.2666 220.725L21.1119 219.455L18.5805 219.371L11.6354 220.159L5.82555 220.052L4.56755 219.614L3.32812 217.965L4.16149 216.65L3.91121 214.228L4.1067 211.12L5.08505 209.503L7.01006 207.432L9.00322 206.529L13.4601 205.381L17.9193 203.756L18.8822 202.808L22.2979 200.845L25.6681 199.666L28.0075 198.417L29.6036 196.903L30.4432 194.761L31.3599 191.262L30.1578 187.349L30.4825 185.399L31.924 182.63L31.5821 180.389L31.0889 179.504L28.4841 177.758L29.8804 174.381L31.3715 170.871L33.9911 168.456L35.9806 166.04L37.9577 163.201L38.3054 162.383L37.635 161.521L34.461 162.418L29.271 161.821L25.4877 160.922L21.8911 159.85L17.5219 158.149L15.705 156.654L14.1489 154.361L12.6388 150.484L11.4299 149.293L11.4258 148.154L12.9193 146.889L12.7867 145.458L11.0959 144.194L8.47191 140.461L6.84081 137.362L6.68097 134.738L7.46906 132.723L11.3297 130.743L12.8988 130.235L16.1557 128.436L17.6685 127.355L22.5293 124.731L24.0234 123.546L26.2717 122.677L29.3621 122.101L30.7912 121.141L32.3334 119.507L34.0621 118.336L35.677 118.272L37.8048 119.879L39.9952 121.89L39.998 123.32L38.8687 125.254L38.2422 127.309L38.0918 128.871L38.4418 131L39.0403 132.067L39.4522 136.398L40.2195 138.224L41.0231 138.3L41.7341 136.61L43.1036 132.27L44.8867 128.615L46.9258 125.676L52.797 121.927L55.3864 120.619L58.1385 119.721L61.3176 119.884L63.3129 120.196L63.3575 118.839L62.7981 115.005L60.6033 108.71L59.9603 107.981L57.8114 106.542L54.9012 104.913L52.8135 104.048L52.332 103.371L53.0508 102.167L56.4264 100.018L57.375 98.9802L57.6096 95.346L59.7097 92.4974L60.1045 91.2442L60.2737 89.1303L60.7835 87.9241L63.2332 84.4642L66.7774 80.9545L71.6622 77.3858L76.2825 74.7743L77.7453 74.1874L78.8214 72.9162L79.3046 71.519L79.5329 67.1212L80.6405 64.4218L81.626 62.8345L81.964 60.7498L81.35 59.3707L80.3674 54.4804L80.3847 52.3972L82.307 52.3247L86.7851 54.9922L89.5934 56.1094L91.7884 57.5844L92.6594 57.664L97.6847 60.2336L100.214 61.032L101.078 60.6026L101.291 59.4439L101.022 56.3947L101.404 52.341L101.748 50.6255L102.487 49.3451L108.113 47.1183L109.749 46.1238L113.099 43.0724L116.977 40.1317L118.102 38.5433L119.593 33.3424L120.136 32.7802L120.884 30.3643L121.625 29.2217L124.356 27.4274L125.809 26.7154L128.305 24.8351L129.981 23.2858L132.917 19.8721L135.688 17.8484L138.88 16.512L141.389 13.7281L144.197 10.9634L146.257 10.7518L147.889 9.25235L149.079 9.14605L151.71 6.84464L153.581 6.08316L154.123 5.47324L157.295 3.64062L159.633 6.27304L159.499 7.40474L161.704 12.0846L161.475 12.9772L162.787 14.4035L163.977 16.8096L165.246 17.8272L165.108 18.7788L166.134 19.4788L166.808 20.8442L166.784 22.4495L167.792 23.2587L170.762 23.3349L172.138 23.7622L172.139 24.4516L174.526 25.296L175.214 26.3552L177.812 27.1659L179.475 28.8545L182.509 30.8221L185.785 31.0589L187.437 33.2516L187.365 34.3969L190.096 37.0322L192.038 37.9486L193.754 37.1651L195.036 37.3194L196.221 37.9527L198.206 37.1553L200.244 37.2867L201.248 38.3884L200.167 39.9226L201.03 41.7957L203.144 42.3243L203.058 44.0477L203.73 45.7769L204.899 46.5451L204.543 48.1713L206.683 49.5954L207.804 51.0623L208.754 51.7357L210.167 51.7545L211.616 52.391L215.462 51.9372L216.414 52.4763L219.024 51.7757L220.885 52.1934L222.277 51.8124L224.935 53.5008L224.373 55.0919L225.328 56.2576L227.139 57.2771L230.442 58.301L231.636 59.7306L232.939 62.2319L235.807 62.886L238.05 65.3864L239.366 65.6704L240.512 67.032L245.37 69.9868L245.442 71.3507L246.309 71.7712L246.987 73.7213L247.137 75.6483L249.045 78.041L248.994 78.9342L250.368 81.1695L251.964 84.4668L253.214 89.4442L254.264 91.2707L254.25 91.9862L257.185 97.4736L258.549 99.5031L260.671 101.442L262.379 101.946L263.232 103.037L264.768 106.615L267.739 109.763L270.332 111.289L271.475 112.894L272.358 113.275L273.591 114.817L274.243 117.509L274.905 118.759L276.095 119.686L277.82 122.943L279.283 123.925L280.027 124.951L280.859 127.152L281.598 128.19L282.767 128.359L283.541 129.03L286.712 128.906L286.212 130.127L287.03 131.215L288.567 131.774L289.097 132.905L290.165 133.596L290.572 134.877L292.279 136.338L293.371 140.368L292.584 142.235L294.252 144.678L295.258 144.488L296.403 143.637L296.748 147.256L298.166 150.156L298.099 152.011L299.19 155.547L299.586 155.964L302.021 155.441L302.947 157.033L302.415 158.036L303.627 158.42L305.686 161.009L306.551 162.698L306.167 163.728L308.812 166.017L309.599 166.952L312.227 167.876L311.559 168.869L312.109 170.304L314.998 171.761L316.735 171.655L317.272 173.21L318.706 172.617L319.939 172.847L320.219 174.249L322.416 173.948L322.43 175.161L324.05 175.825L325.235 177.635L324.671 178.744L325.866 179.427L325.797 180.211L326.997 181.595L329.412 182.685L328.963 184.949L330.122 184.619L330.419 185.819L331.579 187.312L332.842 188.148L332.499 190.864L333.364 193.889L332.473 196.003L332.575 199.312L333.885 201.199L337.508 203.716L336.829 204.597L337.205 205.773L336.176 206.806L336.759 208.403L336.155 209.518L335.883 211.103L337.214 213.636L337.27 214.491L339.119 216.671L339.867 216.963L342.185 220.836L343.78 222.46L345.561 223.15L347.641 225.331L349.288 225.484L350.374 228.08L351.602 228.923L351.88 230.532L353.016 231.479L353.284 234.198L351.884 235.419L352.759 237.221L354.274 238.168L354.739 240.224L356.181 241.816L357.805 242.951L360.003 243.959L360.284 245.138L359.361 246.018L360.159 246.859L360.532 248.161L360.01 251.052L360.816 253.507L361.352 253.543L362.267 255.539L361.953 256.402L362.695 258.202L365.032 260.228L365.65 261.806L365.465 263.278L365.85 264.766L367.077 265.069L368.81 266.576L369.571 267.967L368.884 269.986L368.774 271.623L368.174 272L367.279 275.306L366.185 275.954L366.535 276.687L366.057 278.7L365.036 279.199L361.573 282.158L361.241 283.508L361.979 284.089L361.511 285.377L359.868 285.613L358.595 286.953L359.169 288.13L356.959 288.605L356.402 289.333L356.103 291.767L354.769 291.308L352.022 294.013L350.681 293.995L350.091 294.835L349.121 294.728L347.927 295.976L347.739 296.896L345.884 297.346L345.505 298.393L344.109 297.88L342.481 298.517L341.427 297.258L340.42 297.426L339.426 298.358L338.125 298.365L335.96 299.37L333.837 298.783L332.367 297.705L330.565 297.734L327.091 300.229L325.957 301.701L324.091 302.191L323.215 304.098L319.317 306.852L318.4 306.857L317.819 305.583L316.544 306.535L314.752 306.041L313.696 306.576L311.748 306.879L308.9 306.824L307.977 305.97L307.289 304.483L307.751 303.758L306.641 302.94L305.902 303.396L305.465 304.685L304.422 305.583L302.283 306.753L301.536 306.364L300.583 307.088L300.757 308.437L299.219 310.022L298.876 312.797L302.353 313.628L303.038 314.443L305.603 314.475L306.759 315.793L308.398 316.045L308.045 316.843L306.37 317.985L304.916 319.46L304.227 319.5L302.626 320.719L301.35 320.979L299.818 320.658L297.026 322.05L296.137 323.117L296.032 323.988L297.653 326.114L296.609 326.615L294.895 325.683L294.689 324.575L295.011 322.584L294.098 321.275L291.857 321.888L290.459 320.991L289.274 321.348L288.006 322.592L286.875 322.008L285.628 322.574L284.321 321.702L282.938 322.153L281.852 323.508L280.989 323.905L279.914 323.171L277.952 324.448L277.952 326.339L276.894 327.414L277.802 328.862L276.075 329.453L273.571 328.61L272.945 327.302L271.74 326.55L270.303 327.745L269.627 326.364L266.803 326.654L265.874 327.293L264.222 326.665L263.254 327.773L262.4 327.392L261.607 328.212L261.821 329.836L261.282 332.402L259.516 331.172L258.571 332.365L257.865 333.989L256.181 332.128L255.266 332.014L253.772 332.945L252.714 332.177L250.735 331.527L247.548 331.204L243.772 331.906L242.422 331.866L241.883 331.159L240.054 331.278L239.41 332.784L238.358 332.291L236.984 333.389L234.833 333.503L233.662 333.221L233.424 331.472L232.619 330.693L232.771 329.089L229.345 328.281L228.079 329.399L227.042 328.643L227.705 327.895L226.723 326.629L224.879 327.432L223.438 327.03L223.01 326.013L224.22 325.002L223.051 323.672L223.754 322.943L225.18 319.237L226.886 318.012L227.611 318.419L228.488 317.334L229.422 315.098L229.636 313.422L231.177 313.145L231.106 312.299L229.979 311.435L229.46 310.396L230.163 306.74L231.207 306.323L231.661 305.36L230.759 304.557L230.935 301.92L232.181 298.31L233.131 298.432L234.511 297.304L236.552 294.59L237.906 293.864L238.133 295.573L238.941 295.628L240.63 293.848L242.358 293.501L243.095 294.152L243.376 296.701L244.212 296.598L245.88 293.966L246.844 293.132L247.31 290.913L248.206 290.12L248.298 289.054L249.465 288.233L249.018 286.455L250.134 285.617L250.821 286.574L250.916 287.763L249.682 288.872L250.102 290.845L250.952 291.36L252.482 290.947L253.022 291.934L252.143 292.63L251.092 294.306L250.762 296.87L252.17 295.434L253.164 296.706L252.038 299.547L252.622 300.105L254.367 299.815L254.487 301.772L255.979 301.88L254.93 303.979L255.369 305.016L253.781 306.763L251.384 307.94L251.701 309.579L253.277 309.555L252.554 311.062L251.035 312.831L249.495 313.496L248.054 313.553L246.462 315.303L247.104 316.347L246.905 317.448L244.584 319.182L245.281 322.875L244.287 324.636L245.368 325.163L248.168 324.5L249.028 323.552L249.922 323.976L251.244 323.822L253.403 321.045L254.576 320.636L255.652 319.658L257.092 319.441L258.637 317.188L259.741 316.101L260.503 315.979L261.354 317.05L262.137 316.504L262.758 314.518L264.084 314.07L264.436 313.04L266.054 311.902L267.088 310.387L268.026 310.264L269.48 310.842L273.137 311.239L273.985 311.558L274.864 310.668L273.898 308.96L272.24 308.286L272.055 306.926L270.296 304.64L272.224 303.356L273.974 304.464L275.807 307.12L276.485 307.202L278.527 305.975L280.29 307.916L281.469 307.333L282.42 307.793L284.102 307.12L285.239 305.713L283.025 302.231L283.932 299.639L284.717 299.337L285.542 297.543L284.256 296.394L284.461 295.147L283.781 294.633L283.189 292.95L283.743 291.162L283.373 290.527L283.946 289.24L285.271 288.241L285.933 288.426L286.856 287.062L287.622 288.05L286.794 289.157L287.351 290.208L288.289 289.89L288.488 288.601L289.599 287.695L290.859 285.7L291.581 285.107L292.73 285.612L292.104 288.133L290.765 288.274L290.265 289.134L291.702 289.879L291.506 292.299L292.549 291.511L293.236 292.629L294.054 291.964L296.045 294.484L296.15 295.65L297.632 296.395L298.722 295.919L298.91 294.327L299.921 294.163L300.799 292.753L301.881 293.865L303.267 292.188L304.007 292.018L303.674 289.984L302.525 289.531L301.426 288.43L301.533 286.432L301.971 285.344L303.654 282.719L304.895 281.807L305.127 279.816L306.531 276.076L305.398 273.078L306.522 272.771L306.576 271.969L304.875 269.864L305.144 269.114L303.927 266.413L302.06 266.24L300.382 264.364L299.335 264.195L296.04 260.619L294.522 259.966L293.807 257.103L292.642 256.81L292.486 256.028L290.923 255.118L291.101 254.143L290.19 252.048L290.113 251.019L289.292 248.706L289.238 245.553L287.696 244.362L287.222 242.965L284.91 241.735L285.862 240.133L285.337 238.882L285.685 237.817L284.493 236.434L284.715 235.085L286.3 233.559L286.218 232.53L287.084 230.697L286.69 228.546L285.228 226.894L283.134 223.23L281.819 221.303L279.873 221.355L279.208 219.75L279.277 217.129L277.862 214.029L275.603 212.605L274.971 210.983L274.26 210.2L272.465 209.751L271.746 210.201L270.658 206.981L267.522 202.914L263.849 202.151L261.498 200.231L260.576 199.813L258.9 198.047L258.416 195.225L256.794 193.238L255.171 193.366L253.645 191.83L252.493 192.073L251.198 190.856L248.616 190.461L245.446 192.221L244.61 190.175L242.724 190.132L241.101 189.416L239.472 189.553L238.609 188.926L237.164 188.89L235.985 187.463L234.958 186.918L233.712 186.888L231.473 187.933L229.285 189.521L225.134 189.467L223.988 188.435L221.683 187.072L217.633 187.379L213.724 187.258L210.759 186.529L208.631 186.63L205.722 184.258L205.06 179.261L204.17 177.975L204.161 176.473L204.958 174.687L205.019 173.771L203.793 171.521L200.288 171.551L198.207 169.517L197.733 167.549L195.297 164.775L194.264 164.412L191.819 164.265L189.653 164.707L186.411 166.647L184.09 166.668L182.057 165.241L181.428 165.345L178.271 164.355L176.857 161.908L175.293 160.51L174.268 160.471L172.307 159.223L171.536 159.367L170.304 157.442L168.838 158.114L169.401 160.96L168.719 161.306L168.166 159.496L166.685 159.891L165.391 159.612L164.356 160.188L164.46 161.537L163.898 162.52L164.848 163.484L164.805 165.553L163.976 165.918L164.906 167.228L166.37 167.531L167.863 166.981L168.588 166.08L170.588 167.427L171.118 168.582L170.957 169.734L170.111 171.624L168.591 172.792L165.506 176.703L164.917 179.191L163.505 180.384L162.477 182.422L162.118 184.341L163.522 186.719L164.527 187.019L165.689 186.701L167.725 187.744L168.298 189.111L167.422 189.737L167.858 191.196L169.1 193.101L170.19 193.403L169.728 194.708L171.324 194.629L172.471 196.366L171.609 196.705L169.979 198.39L167.821 200.201L165.674 199.846L162.821 200.187L160.597 201.023L159.876 200.64L156.594 200.757L154.126 201.794L151.437 200.571L151.487 202.307L150.616 202.306L149.842 203.729L147.713 204.986L146.939 204.873L146.971 203.444L142.499 204.742L142.308 202.856L141.057 203.063L139.809 201.846L138.232 201.622L137.949 203.357L135.95 202.924L134.784 203.932L133.749 205.679L131.406 205.8L130.784 204.006L129.147 204.459L128.199 205.939L126.807 206.795L126.032 207.769L124.916 208.061L122.006 207.581L121.113 206.585L118.796 208.175L117.432 210.058L116.04 211.252L113.586 211.156L111.279 212.002L110.44 213.377L109.654 216.249L109.262 218.698Z" fill="#1E1E1E" stroke="white" stroke-width="5"/>
</svg>
