<svg width="367" height="393" viewBox="0 0 367 393" fill="none" xmlns="http://www.w3.org/2000/svg">
<path d="M356.391 150.074L358.379 149.011L360.77 148.629L361.059 150.54L363.383 155.163L363.523 156.189L362.251 157.983L359.759 159.355L358.019 160.6L357.538 161.549L357.582 163.747L358.634 164.352L356.924 165.41L355.958 165.595L354.079 165.19L352.703 165.521L351.843 166.475L351.584 168.882L352.523 171.856L352.609 173.155L352.031 174.968L350.88 174.803L349.178 173.307L348.143 173.164L347.395 174.321L346.533 177.498L342.235 182.491L341.769 187.956L342.335 189.559L344.401 191.405L344.756 192.385L343.584 194.283L341.836 196.567L341.336 200.789L342.112 206.791L341.892 208.982L341.149 210.697L338.829 214.03L338.062 215.871L337.79 220.221L336.963 221.812L333.376 224.421L330.851 226.89L329.432 227.941L326.272 228.879L323.767 231.568L322.83 231.962L318.61 229.021L317.074 228.96L315.99 229.964L313.501 234.198L312.89 236.05L313.022 237.384L312.638 238.64L311.633 240.228L311.858 242.441L310.695 243.817L309.284 244.367L308.352 245.327L307.376 247.415L305.754 247.365L304.745 246.219L303.375 245.805L301.283 246.519L299.824 244.568L298.986 243.961L295.254 245.682L293.205 245.765L291.653 245.211L288.391 245.219L288.544 243.97L289.976 243.544L291.686 242.098L293.8 242.807L293.515 241.171L292.707 239.576L289.885 236.07L288.505 235.081L287.218 234.945L286.525 234.154L285.812 232.25L286.403 231.045L288.059 230.653L289.394 231.176L290.597 231.132L290.117 229.936L286.778 227.213L285.86 226.027L286.66 225.085L288.56 223.69L287.655 222.387L284.275 222.021L282.645 221.593L280.2 220.104L280.357 218.566L277.768 215.632L276.211 217.306L277.869 220.543L278.233 221.854L277.37 222.835L275.739 222.952L274.421 221.582L272.683 218.205L271.505 217.065L270.904 217.735L272.541 221.327L271.554 226.917L271.061 228.674L269.081 233.033L267.835 234.229L262.928 235.076L261.666 235.72L259.898 237.871L260.142 240.097L259.244 242.101L258.119 243.34L253.95 245.175L250.64 249.409L249.655 251.075L247.539 251.961L245.657 251.061L244.312 249.97L239.646 249.047L240.73 245.815L240.822 242.778L240.508 240.494L239.771 237.453L238.893 237.246L236.001 237.57L234.442 237.098L232.279 235.706L230.968 234.554L229.896 230.846L229.087 228.683L227.37 227.481L225.972 229.401L225.033 232.534L224.111 234.585L222.775 235.728L220.152 236.854L218.979 237.703L218.381 239.85L219.262 241.441L220.782 241.339L224.175 242.094L224.583 243.051L224.297 244.556L223.693 245.307L222.329 248.519L223.238 250.132L225.156 251.362L225.242 253.013L223.008 254.232L222.256 255.071L220.949 258.213L221.002 261.326L220.284 262.51L218.592 262.677L212.843 261.179L207.315 260.856L202.837 260.26L201.23 259.287L196.024 255.008L194.755 254.986L192.737 256.924L190.324 257.387L186.311 256.667L184.253 256.967L181.24 258.363L180.14 261.336L177.917 262.389L174.439 262.925L173.356 264.204L172.683 266.203L171.841 267.766L170.933 268.539L169.518 268.325L166.51 267.402L165.313 267.518L162.958 268.59L160.658 269.186L157.105 269.291L156.339 269.64L155.412 271.275L155.174 274.566L155.394 276.501L155.127 277.333L153.185 279.185L151.329 282.232L149.155 283.382L148.622 285.03L149.196 287.108L149.906 288.397L149.983 292.879L149.727 294.561L147.667 299.3L145.573 302.804L145.733 307.084L145.207 309.432L144.368 311.625L144.364 315.144L144.964 316.096L146.986 317.763L147.698 319.81L147.199 322.979L146.344 323.376L145.971 325.57L146.027 327.814L146.644 328.706L149.887 329.912L152.205 331.157L152.913 331.997L152.341 334.007L153.995 336.587L154.254 337.631L154.266 340.219L153.588 344.569L154.092 349.492L153.835 351.036L152.507 354.947L149.756 357.283L148.22 359.828L146.766 362.771L147.074 363.481L147.172 364.571L146.578 365.872L144.832 367.737L142.178 369.742L140.33 370.341L135.022 372.697L133.593 372.816L135.264 374.313L138.592 374.76L140.168 375.912L140.584 376.774L140.339 378.767L138.294 380.734L137.766 383.563L136.883 385.16L136.168 387.858L131.933 389.744L128.808 390.389L126.716 390.233L125.175 389.57L123.192 387.768L121.908 387.116L120.242 386.889L116.966 387.017L115.868 386.719L114.495 383.285L114.157 380.613L113.502 377.778L112.882 376.126L111.96 374.772L111.653 373.267L111.534 370.408L111.883 367.089L111.917 364.791L111.603 361.284L111.043 359.741L110.438 359.275L108.113 359.114L105.69 359.557L104.243 359.466L103.1 358.083L105.153 354.818L108.118 353.216L108.698 352.264L108.539 349.449L107.879 348.133L103.67 342.704L102.77 342.083L99.6117 340.609L96.9017 338.236L95.627 335.94L94.9668 333.36L93.869 331.338L92.455 325.477L91.8771 324.298L91.7041 321.556L90.9501 320.409L87.3886 318.566L84.0426 316.474L83.0476 315.404L82.6252 313.05L82.3254 306.671L81.6719 304.769L78.2848 301.688L75.1208 297.024L74.4606 294.565L73.2446 291.243L70.9913 289.377L67.7949 287.048L65.8876 285.287L62.9914 282.088L60.8729 280.503L60.2954 279.325L56.1387 274.203L52.3918 270.739L51.6476 269.135L51.5056 267.327L51.7543 263.995L50.8858 258.668L50.5161 253.161L49.6937 246.452L48.5583 242.937L47.0042 242.045L45.0812 242.113L43.4786 243.437L42.1929 245.725L41.545 247.887L38.5935 250.993L38.3029 252.67L38.433 254.865L37.6377 259.107L37.5202 263.69L36.732 264.198L32.9018 264.97L29.7411 265.415L27.2767 265.348L25.9958 266.047L24.0752 267.606L21.1303 266.399L20.127 266.252L16.6184 264.628L14.2997 264.723L10.9904 264.316L7.92693 261.979L6.93343 260.814L4.16257 259.247L3.45312 255.661L3.97707 254.606L6.074 254.416L8.86523 253.328L10.5379 250.968L10.6984 249.904L10.2454 248.407L10.9079 245.683L10.6177 242.261L10.968 238.842L11.6461 237.004L10.3093 234.487L9.81689 233.061L9.69256 230.231L8.76656 227.121L10.0582 222.713L11.235 221.315L11.3335 217.684L10.4385 215.372L8.22962 211.911L8.18156 210.488L8.81236 208.904L11.8919 206.295L13.7069 205.02L17.0707 203.78L20.6631 201.377L21.4823 201.307L22.4509 202.199L23.4993 202.359L25.5525 201.819L26.1947 200.855L25.7848 198.164L26.0457 197.545L28.0279 196.542L30.4401 191.942L30.8645 190.391L31.2321 187.535L30.8181 186.305L30.99 185.19L32.064 183.77L32.9945 181.383L33.8792 180.713L34.0348 179.667L36.3736 176.786L38.312 176.554L39.5939 177.157L42.4053 177.269L43.2256 177.583L44.793 179.713L46.2282 180.855L50.0631 182.057L51.0028 181.91L52.146 180.428L54.7173 180.014L57.203 180.027L58.4979 178.977L59.3816 178.923L61.3751 179.934L62.7 179.299L64.2023 179.975L67.0731 178.765L69.5474 180.581L71.7559 181.679L72.9271 184.07L74.2747 184.852L75.9364 186.476L77.2453 187.011L78.905 187.068L83.9168 185.293L85.9966 184.87L87.5114 184.895L88.4997 183.776L90.9359 182.477L89.8898 181.378L89.7557 180.189L90.2507 178.943L91.5515 177.465L92.9136 174.727L93.6671 173.734L96.2907 172.165L97.3615 170.739L97.0409 170.198L97.738 164.425L97.4092 163.232L95.2665 159.316L95.8461 157.405L95.576 156.376L96.3206 155.862L97.003 154.345L97.2355 151.514L98.3627 150.666L100.145 151.601L101.529 151.273L102.208 149.033L107.183 145.177L109.138 144.064L112.397 141.879L113.031 140.311L112.537 138.7L111.825 137.672L112.861 135.858L113.765 135.186L113.696 134.042L114.675 132.876L115.254 130.497L117.57 130.661L119.118 128.77L120.287 128.322L121.555 128.433L123.602 127.647L124.881 127.81L126.127 128.875L128.173 128.814L129.831 128.147L130.947 127.26L133.357 126.673L132.874 125.211L133.44 123.218L133.177 121.74L134.819 119.817L135.467 117.762L134.744 115.898L135.125 114.398L133.594 109.527L133.07 108.635L132.363 105.247L133.383 104.157L134.943 103.525L135.242 101.521L136.193 99.2669L136.173 98.4038L135.268 96.8095L135.485 94.3539L134.54 91.5511L137.598 89.7101L138.507 89.8228L140.223 89.3081L142.017 91.4479L145.313 96.4724L146.359 97.047L148.993 96.4106L152.502 95.943L155.145 94.6603L161.816 93.5718L165.062 93.8001L167.377 89.972L170.278 87.6322L172.184 85.8627L174.254 84.677L177.315 83.2248L181.017 80.9256L182.195 79.7492L184.792 76.3219L187.422 73.9977L190.027 72.7127L191.921 72.3744L197.724 72.0457L199.422 71.7512L204.479 70.0372L205.567 69.2218L209.997 63.3495L210.828 61.9218L212.96 59.0886L213.794 56.5939L214.908 54.7511L216.598 51.2199L217.449 48.5131L217.837 46.1384L217.621 43.5996L218.991 39.4522L219.095 37.2523L219.808 34.733L223.037 33.1757L223.911 32.4018L224.908 29.9338L227.76 23.8553L228.714 20.0615L229.13 19.0933L229.299 16.9572L230.077 14.8164L230.392 10.7308L230.769 8.26504L231.675 5.82289L232.152 3.79733L233.723 3.03906L234.531 3.74043L238.534 4.6801L241.417 6.69877L243.61 9.87719L245.082 13.8446L248.24 15.6465L249.635 17.4483L252.503 18.6359L254.661 19.9455L257.069 21.8482L256.815 22.8628L254.715 23.5963L253.575 25.0585L251.933 25.6579L251.613 26.3542L252.622 29.438L252.367 30.8874L251.629 31.0759L248.816 30.7847L249.11 32.4862L250.371 35.0673L250.949 37.3749L252.626 39.0195L253.734 40.6502L255.493 42.3639L256.938 45.4488L258.27 46.2318L261.177 46.0173L267.148 46.3764L268.759 47.1884L269.72 46.5672L270.124 44.756L271.395 42.9156L271.798 40.9041L271.427 38.1238L270.184 34.6062L270.362 33.6082L272.47 35.4008L275.018 36.7883L280.151 41.5649L282.341 42.6833L285.627 43.3258L288.341 44.4774L289.434 45.995L289.816 49.7305L290.387 51.4068L291.599 53.2299L293.448 54.7366L296.493 56.0763L297.831 56.9118L298.664 57.914L299.827 60.3938L301.582 63.4882L301.87 65.4818L300.192 68.2772L300.188 69.3643L298.616 73.7784L297.995 76.4167L298.489 79.5198L299.687 82.1529L299.856 83.8469L299.649 86.5073L298.608 89.693L299.227 91.6912L298.093 94.7509L298.159 96.6195L300.034 100.468L300.856 101.72L302.694 103.671L304.675 105.36L305.181 105.405L307.129 104.118L308.402 104.275L311.323 105.802L312.415 106.677L312.956 105.08L312.564 101.333L313.211 98.1817L312.904 95.8309L313.25 94.5767L314.88 94.14L319.056 96.4667L324.383 98.2826L325.686 98.4107L327.386 97.2746L329.144 96.8806L330.489 97.3452L331.331 98.1675L332.348 100.896L333.516 102.753L334.042 104.193L333.856 106.018L332.727 109.291L333.415 110.621L334.769 114.515L336.825 116.375L338.743 117.59L339.898 119.311L340.451 121.326L341.034 121.692L344.639 122.539L347.756 122.425L349.168 121.535L351.828 120.63L353.154 121.061L353.464 122.394L352.961 125.784L354.434 129.443L354.488 130.789L353.827 134.76L352.643 139.734L353.299 141.838L353.436 143.395L352.995 145.376L354.363 149.096L356.391 150.074Z" fill="#1E1E1E" stroke="white" stroke-width="5"/>
</svg>
