<svg width="313" height="203" viewBox="0 0 313 203" fill="none" xmlns="http://www.w3.org/2000/svg">
<path d="M303.859 182.25L300.403 181.654L298.067 180.545L292.839 174.862L288.725 171.04L287.617 170.858L285.134 172.503L279.125 177.142L276.675 178.435L275.558 178.771L272.513 181.27L267.558 187.616L265.888 188.877L265.29 191.047L263.346 192.527L263.164 193.882L262.016 195.169L260.022 195.909L257.275 195.884L252.19 196.437L250.323 197.189L249.461 196.844L249.368 194.183L249.739 191.492L249.091 190.747L246.16 191.302L245.11 189.652L245.163 188.234L244.539 186.936L240.448 185.672L239.389 185.144L241.08 182.671L240.958 181.734L240.085 181.266L236.081 179.903L234.822 178.525L234.762 177.28L235.404 174.951L234.718 172.987L234.66 171.653L235.059 169.554L234.984 167.531L234.231 165.303L233.122 163.932L231.444 164.728L231.274 166.387L231.575 168.752L231.269 170.291L229.964 169.944L229.482 168.622L229.335 166.787L230.745 165.171L231.039 163.784L230.125 162.139L232.116 161.266L231.722 159.435L229.333 157.341L227.31 157.103L226.084 158.304L225.553 158.071L225.06 156.365L225.738 155.376L226.89 155.044L227.826 153.928L227.301 152.269L226.009 151.37L224.698 153.017L223.355 151.999L221.261 151.128L220.086 150.312L219.196 149.127L217.463 148.417L215.775 148.388L215.376 147.867L215.983 146.128L215.922 145.174L214.847 144.558L213.204 142.756L212.109 143.088L212.204 144.778L213.102 145.911L213.179 147.631L210.869 148.251L209.875 147.63L209.638 144.539L208.621 142.763L207.382 142.275L205.078 143.367L204.104 143.289L197.253 141.439L195.558 141.262L194.236 142.512L194.107 145.374L191.542 144.821L188.144 144.358L186.957 143.197L185.716 140.423L183.778 140.182L181.476 139.542L178.96 138.096L176.805 135.816L176.134 135.59L174.599 136.85L173.578 139.949L174.177 142.869L173.65 144.887L173.044 145.534L169.939 145.358L166.97 145.834L165.172 145.73L163.239 144.994L161.628 145.116L161.061 146.374L158.305 147.534L156.367 148.732L155.044 148.797L152.21 147.288L151.207 146.477L149.497 144.385L147.846 144.82L147.448 145.43L147.41 149.084L148.475 151.163L146.985 151.227L144.564 152.043L141.449 154.416L140.993 155.76L139.649 155.568L138.712 155.945L138.725 157.441L137.295 157.595L136.261 159.091L134.738 159.903L133.633 159.894L131.274 158.234L129.103 155.099L128.93 153.053L128.418 152.024L127.209 152.049L126.465 150.602L125.432 150.061L123.798 150.099L122.111 151.789L122.106 152.479L123.128 154.719L121.283 160.945L121.088 164.66L120.59 167.539L117.084 173.109L115.196 175.04L113.756 175.945L112.281 175.807L110.479 173.765L109.528 173.311L107.216 173.027L106.231 171.951L105.152 171.778L104.408 172.682L103.427 175.455L102.068 176.664L100.923 178.996L100.741 182.048L100.951 182.879L100.434 184.205L98.6869 185.266L96.7291 184.809L93.2929 182.727L90.8997 181.872L89.8158 183.213L89.8859 184.944L90.3534 186.554L89.9147 188.138L88.7838 189.12L87.6023 191.863L84.838 191.823L82.494 192.591L82.4255 191.629L81.3609 191.451L77.2887 191.902L75.2175 193.829L71.8489 193.969L70.7592 193.486L68.9735 191.268L69.2134 190.403L66.7057 186.658L66.0785 185.427L67.5143 183.785L65.3659 182.141L64.0355 181.608L63.8098 182.733L62.7027 183.681L60.7644 184.58L57.5538 188.321L54.5167 191.481L52.3882 194.472L51.7237 195.881L50.5513 196.588L50.1224 195.483L49.2868 195.344L46.9702 196.791L45.8444 199.424L39.4266 196.977L36.0995 196.546L34.6159 195.888L31.1768 193.654L26.4017 189.822L18.8984 187.275L17.7135 186.516L16.3693 185.104L15.1749 183.089L12.2887 181.562L11.3171 179.601L8.95656 178.24L6.07716 175.471L5.76896 174.761L7.22319 171.818L8.75939 169.273L11.5102 166.937L12.8376 163.027L13.0953 161.482L12.5913 156.559L13.2694 152.209L13.2566 149.621L12.9983 148.577L11.3438 145.997L11.9164 143.987L11.2076 143.147L8.88981 141.902L5.64666 140.696L5.03014 139.804L4.97361 137.561L5.34682 135.366L6.20172 134.969L6.70093 131.8L5.98934 129.753L3.96653 128.086L3.36719 127.134L3.3705 123.615L4.2103 121.422L4.73645 119.074L4.57579 114.795L6.66977 111.29L8.72955 106.551L8.98627 104.87L8.90855 100.387L8.19911 99.0978L7.62461 97.0202L8.15842 95.3722L10.332 94.2223L12.1881 91.175L14.13 89.3234L14.3969 88.4909L14.1767 86.556L14.4154 83.2646L15.3417 81.6296L16.1075 81.2812L19.6613 81.1762L21.9613 80.5804L24.316 79.5081L25.5126 79.3918L28.5205 80.3149L29.9363 80.5292L30.8444 79.756L31.6862 78.1927L32.3589 76.1944L33.4424 74.915L36.9199 74.3791L39.1431 73.3262L40.2426 70.3532L43.2555 68.9575L45.3139 68.6568L49.3273 69.3774L51.7403 68.9139L53.7583 66.9759L55.027 66.9984L60.2325 71.2774L61.8405 72.2502L66.3181 72.8461L71.8458 73.1692L77.5952 74.6672L79.2869 74.4997L80.0046 73.3159L79.9516 70.2028L81.2587 67.0612L82.0112 66.2225L84.2448 65.0027L84.1591 63.3522L82.2414 62.1222L81.3318 60.5089L82.6958 57.297L83.3001 56.5458L83.586 55.0409L83.1776 54.0841L79.7854 53.3294L78.2646 53.4314L77.384 51.8402L77.9816 49.6933L79.1553 48.8442L81.7777 47.7179L83.1135 46.575L84.0364 44.5238L84.9754 41.3911L86.3734 39.4711L88.0897 40.6733L88.8992 42.8361L89.971 46.5441L91.2822 47.696L93.4449 49.0876L95.0045 49.5597L97.8962 49.2357L98.7742 49.443L99.5109 52.4837L99.8245 54.7679L99.7328 57.8055L98.6493 61.0369L103.315 61.9598L104.66 63.051L106.542 63.9514L108.658 63.0655L109.643 61.3991L112.953 57.1646L117.122 55.3297L118.247 54.0912L119.145 52.0873L118.901 49.8609L120.669 47.7105L121.931 47.0658L126.838 46.219L128.084 45.0229L130.064 40.664L130.557 38.9072L131.544 33.317L129.907 29.7252L130.508 29.0549L131.686 30.195L133.424 33.5721L134.742 34.9425L136.373 34.8249L137.236 33.8436L136.872 32.533L135.214 29.2964L136.771 27.6221L139.36 30.5563L139.203 32.0941L141.648 33.5826L143.278 34.0115L146.658 34.3769L147.563 35.68L145.663 37.0753L144.863 38.0173L145.781 39.2027L149.12 41.9264L149.6 43.122L148.397 43.1664L147.062 42.6426L145.406 43.0352L144.815 44.2399L145.528 46.1436L146.221 46.9353L147.508 47.0715L148.888 48.0601L151.71 51.5659L152.518 53.1609L152.803 54.7972L150.689 54.0877L148.979 55.5343L147.547 55.9603L147.394 57.2091L150.656 57.2007L152.208 57.7553L154.257 57.6717L157.989 55.9509L158.827 56.5583L160.286 58.5089L162.378 57.7951L163.748 58.2096L164.757 59.3555L166.379 59.4052L167.355 57.317L168.287 56.3572L169.698 55.8068L170.861 54.4312L170.636 52.2182L171.641 50.6299L172.025 49.3745L171.893 48.0396L172.504 46.1883L174.993 41.9539L176.077 40.9498L177.613 41.0109L181.833 43.9518L182.77 43.5585L185.275 40.8687L188.435 39.9309L189.854 38.8802L192.379 36.4106L195.966 33.802L196.793 32.2108L197.065 27.861L197.832 26.0198L200.152 22.6869L200.895 20.9724L201.115 18.7808L200.339 12.779L200.839 8.55718L202.587 6.27333L203.759 4.375L205.818 5.88101L209.246 7.906L211.202 8.05076L214.377 7.56054L216.951 7.41927L221.889 7.70659L223.26 8.15721L224.242 9.89746L224.731 11.823L225.792 14.1675L227.383 16.4628L227.903 18.0043L228.234 20.6037L230.327 26.5807L231.378 27.4926L233.491 28.2233L236.864 32.3887L239.502 34.3981L240.457 34.8866L243.588 35.5867L247.218 35.8387L248.965 37.2495L249.592 39.3434L251.737 41.4756L255.862 43.4682L257.293 45.0825L257.799 46.9452L256.974 53.6438L257.789 57.6234L259.824 63.1373L260.547 64.7624L262.55 66.9735L264.879 70.2686L266.194 73.4396L269.906 77.0752L271.166 78.0767L271.804 79.3325L271.276 81.1374L269.95 83.1496L269.384 84.8039L270.035 88.0758L270.883 90.2813L272.057 91.7171L273.803 93.2835L275.347 95.6478L274.998 99.4444L270.996 108.451L269.476 112.516L268.968 114.687L269.136 115.658L270.545 118.623L273.619 122.874L275.711 126.105L276.379 128.304L276.421 129.776L278.26 132.759L278.701 134.563L278.076 135.616L278.609 137.389L280.19 140.133L281.282 141.363L283.77 141.591L287.034 142.179L289.295 143.361L291.169 144.055L295.148 145.18L296.509 147.155L296.689 149.473L297.775 150.417L298.814 152.081L301.217 154.932L302.446 157.832L301.567 162.172L301.688 162.961L306.362 169.307L308.223 171.504L309.967 173.953L310.227 175.665L307.932 178.803L305.949 180.508L304.503 182.133L303.859 182.25Z" fill="#1E1E1E" stroke="white" stroke-width="5"/>
</svg>
