<svg width="476" height="271" viewBox="0 0 476 271" fill="none" xmlns="http://www.w3.org/2000/svg">
<path d="M356.86 50.2579L357.745 50.9157L359.144 52.727L365.521 57.3555L366.463 58.9331L366.758 60.533L367.885 61.8426L368.525 63.3164L368.815 65.0825L367.828 68.2517L367.476 70.4635L367.96 73.9008L367.684 77.3637L368.209 81.4262L366.476 83.7881L363.634 86.3762L363.284 86.9431L361.287 88.2276L362.034 89.2011L364.517 89.8832L367.614 90.2865L371.796 90.6219L373.511 91.5961L376.162 95.0951L378.977 98.0866L379.811 101.733L382.276 103.334L384.014 103.736L386.45 100.848L388.226 99.1696L390.762 98.4187L394.127 94.6663L396.562 93.6295L398.47 91.7134L399.828 92.2228L401.773 91.3559L404.772 92.6195L407.367 94.294L410.011 95.3666L412.161 97.0552L414.448 100.38L413.308 100.823L411.34 100.434L409.859 100.777L407.866 100.329L407.139 101.98L407.531 104.351L407.441 107.517L407.721 108.545L409.948 110.521L408.863 112.628L409.175 114.207L410.101 116.024L409.469 120.396L409.309 124.568L409.869 126.774L409.751 127.815L408.85 129.111L409.122 130.611L410.326 131.345L411.67 133.789L412.487 134.624L413.883 135.253L414.695 136.412L415.37 139.593L416.833 141.208L417.43 142.909L416.668 146.587L417.625 147.77L418.338 150.305L419.488 151.289L421.142 151.383L421.135 152.401L419.16 154.366L418.705 155.885L416.068 158.98L415.579 160.754L415.806 162.059L414.343 164.652L414.019 166.597L413.418 167.607L412.073 168.27L408.773 166.135L406.575 165.678L405.287 166.299L404.192 167.557L402.816 168.449L402.572 169.251L403.364 171.871L406.592 177.4L408.407 179.635L410.423 182.729L411.465 186.033L415.579 185.184L418.065 183.681L418.63 183.641L421.369 184.764L422.264 185.66L425.436 186.314L427.685 185.776L428.483 185.96L430.206 187.56L431.22 188.075L432.858 187.535L435.752 183.949L438.559 181.721L440.998 180.795L441.191 181.829L440.85 184.538L443.177 186.787L444.041 188.36L444.538 188.362L446.662 190.834L447.52 193.128L448.736 195.651L450.982 197.142L452.554 197.181L455.84 196.74L458.531 198.241L460.61 200.437L462.402 202.969L463.762 205.274L466.893 208.339L468.135 210.466L468.47 214.189L467.795 217.246L465.04 219.928L463.439 222.495L464.573 224.625L465.137 224.949L467.692 228.165L468.39 229.813L469.691 235.99L470.572 238.444L468.998 240.959L469.14 242.443L470.06 244.47L471.856 247.008L472.383 248.346L472.851 250.881L471.276 253.492L467.887 256.665L467.037 255.595L465.027 255.104L462.601 255.11L460.487 255.718L458.109 255.854L454.905 254.969L452.431 252.914L450.795 251.903L447.079 251.18L443.983 251.065L441.305 250.629L438.101 250.503L434.671 249.09L431.28 249.41L426.563 250.083L424.558 251.454L421.645 253.125L419.623 253.807L416.523 255.202L413.745 256.732L411.168 259.091L409.732 259.552L407.562 259.163L406.516 257.968L405.452 256.055L403.749 254.472L399.016 253.338L397.191 252.382L390.411 253.5L388.511 252.865L387.617 250.899L387.405 249.657L387.429 245.183L386.85 244.182L385.739 243.649L381.293 243.379L379.185 243.544L376.229 243.451L374.292 241.31L372.385 243.979L370.724 246.802L368.434 249.594L366.04 252.104L364.712 252.599L362.575 251.627L361.779 253.573L358.658 253.337L354.528 252.469L351.485 250.292L351.071 248.635L350.55 248.237L348.31 248.43L345.754 247.693L344.258 246.236L344.054 242.248L343.525 240.663L342.314 238.524L341.553 238.587L340.868 241.966L337.151 242.365L334.784 241.344L331.493 244.132L329.299 244.577L326.337 244.333L322.409 241.509L319.888 240.987L316.157 236.917L310.066 229.524L308.092 228.162L307.365 228.619L305.965 230.774L305.026 231.552L302.954 232.201L295.975 232.576L290.039 229.959L287.302 228.467L286.018 228.251L282.5 226.111L281.051 226.303L278.015 229.291L276.619 229.934L273.032 228.092L270.466 228.301L268.239 227.136L266.774 227.203L264.564 227.929L262.313 230.754L260.565 231.87L259.765 231.692L258.257 229.687L258.252 227.725L257.602 226.327L256.014 224.956L254.748 224.495L249.096 224.415L247.373 224.702L244.536 225.584L241.923 226.967L240.238 229.495L238.848 229.218L237.294 228.453L236.298 227.518L233.731 227.99L232.716 229.052L232.41 231.921L231.74 232.776L229.123 234.316L226.511 237.075L223.831 239.038L223.43 240.695L224.324 242.48L225.628 242.882L228.27 242.351L231.638 241.355L231.921 242.162L231.166 242.993L229.48 246.369L229.078 247.805L229.417 250.847L229.139 251.988L229.66 255.097L227.357 256.706L224.302 259.644L220.455 261.243L219.455 261.859L217.569 261.869L215.862 260.683L215.131 260.75L214.015 262.585L213.49 266.359L211.96 267.563L209.379 267.942L206.472 267.53L205.851 265.741L205.011 264.387L203.559 263.38L201.726 263.188L199.733 263.605L198.825 264.37L194.96 266.37L193.095 266.712L190.006 266.412L188.431 266.016L185.854 264.503L184.709 263.525L183.705 260.809L182.084 257.368L182.144 255.049L181.808 254.49L180.146 254.262L180.634 252.042L181.153 251.314L181.373 249.216L180.694 247.518L181.289 246.024L181.161 245.066L180.058 244.379L178.881 244.583L177.416 246.161L176.417 248.176L174.698 249.97L172.489 251.053L169.166 251.337L167.572 250.607L165.118 248.047L164.649 246.829L162.301 244.303L162.059 243.006L160.877 240.517L156.969 238.617L154.502 238.55L152.411 239.112L150.704 240.037L150.032 239.797L148.626 238.019L148.113 236.773L146.801 235.458L142.454 234.168L139.525 232.937L137.607 231.455L134.528 232.452L130.637 232.917L129.135 233.614L125.982 236.853L123.116 238.211L120.083 238.933L117.783 238.857L114.957 238.057L113.538 237.93L110.48 241.829L109.713 243.489L107.47 245.034L106.426 249.092L105.341 250.705L102.954 250.201L99.6576 247.8L96.2857 245.932L94.7429 245.63L92.035 245.723L88.8139 247.248L87.7398 246.962L85.6673 245.496L82.7366 243.06L80.6232 242.01L75.4224 238.337L74.412 237.87L72.9308 238.293L71.8272 237.73L72.3577 236.615L72.9176 234.166L71.6316 232.617L71.8737 228.842L70.5302 226.932L66.324 224.942L65.7735 224.205L66.4888 222.854L67.6767 221.934L68.4884 220.764L68.845 219.096L67.7044 216.361L65.5328 213.592L64.7267 210.552L63.7955 208.972L63.4855 207.51L63.8274 206.297L65.8144 202.261L65.4467 200.649L64.0694 199.058L62.8252 193.921L58.0462 189.113L56.2861 189.246L53.3806 187.111L50.9029 184.261L50.2042 183.964L49.1864 181.326L47.7758 181.545L49.9894 178.642L48.2194 177.588L46.9299 173.733L46.2484 172.849L44.201 171.95L44.0783 171.216L42.1481 169.184L40.5796 168.693L38.8285 168.565L38.3873 166.976L38.9471 165.283L36.8762 165.175L40.4539 162.19L41.0729 159.618L43.2005 160.276L44.5522 159.593L45.8632 161.743L48.9091 164.442L52.0159 165.663L53.6258 165.576L55.1685 164.858L57.7988 162.789L58.3448 160.995L60.5205 156.598L60.9887 155.089L62.2846 153.248L64.832 151.07L65.0065 150.278L63.1236 147.085L63.3267 142.576L62.8049 139.466L63.8369 135.068L63.7534 133.786L64.7092 131.701L65.3984 129.39L65.7793 126.995L65.4188 125.908L62.1393 121.989L60.0204 120.897L56.136 119.947L54.046 119.905L51.1979 118.403L49.9976 118.721L46.9296 120.745L43.0312 122.791L40.1613 123.997L33.3518 125.741L30.3779 125.927L28.7631 125.355L26.6971 121.752L25.1531 119.796L23.8197 117.03L23.177 113.962L20.9045 109.388L19.2144 108.339L18.8427 105.757L19.2891 100.199L19.2673 97.3305L18.3218 95.3403L16.2001 93.8764L15.8135 93.0658L11.8841 90.122L11.0917 86.7854L9.89065 83.3454L7.33635 80.8099L4.27633 78.5235L3.42578 76.7793L3.68453 76.1927L5.37848 75.7685L8.4179 75.6073L10.3727 74.7053L12.5289 69.649L13.177 69.0406L16.1577 67.795L20.7115 66.3847L24.0302 64.7534L25.0793 64.5378L26.4982 63.2827L27.8721 66.7173L28.9701 67.015L32.2455 66.8874L33.9119 67.1146L35.1956 67.7664L37.1787 69.5677L38.7201 70.2311L40.8113 70.387L43.9371 69.7421L48.1712 67.8562L48.8871 65.158L49.7697 63.5612L50.2981 60.7319L52.3431 58.7648L52.5876 56.7717L52.1721 55.9102L50.5954 54.7583L47.2673 54.3113L45.5964 52.8138L47.026 52.6946L52.3336 50.3386L54.1812 49.7396L56.8355 47.7354L58.5821 45.8699L59.1753 44.5689L59.0778 43.4795L61.9572 46.2476L64.3178 47.6086L65.2893 49.5703L68.1756 51.0972L69.37 53.1118L70.7141 54.5236L71.8991 55.2828L79.4023 57.8295L84.1774 61.6617L87.6165 63.8957L89.1001 64.5542L92.4272 64.9845L98.8451 67.4324L99.9708 64.7991L102.287 63.3518L103.123 63.491L103.552 64.5957L104.724 63.8889L105.389 62.4804L107.517 59.4892L110.554 56.3289L113.765 52.5885L115.703 51.6888L116.81 50.7413L117.036 49.6158L118.367 50.1485L120.515 51.7935L119.079 53.435L119.706 54.6656L122.214 58.4106L121.974 59.2763L123.76 61.4939L124.849 61.9773L128.218 61.8371L130.289 59.9099L134.361 59.4591L135.426 59.6375L135.495 60.5993L137.839 59.831L140.603 59.8707L141.784 57.128L142.915 56.1461L143.354 54.5621L142.887 52.952L142.816 51.2207L143.9 49.8798L146.293 50.7352L149.73 52.817L151.687 53.2742L153.435 52.2134L153.952 50.8875L153.742 50.0558L153.924 47.0039L155.068 44.6717L156.428 43.4629L157.409 40.6896L158.153 39.7857L159.232 39.9585L160.217 41.0353L162.529 41.319L163.48 41.7733L165.282 43.8149L166.757 43.9528L168.196 43.0479L170.085 41.1168L173.591 35.5468L174.088 32.6685L174.284 28.9526L176.128 22.7266L175.106 20.4866L175.111 19.7971L176.798 18.107L178.432 18.0689L179.466 18.6097L180.21 20.0574L181.418 20.0324L181.931 21.061L182.104 23.1066L184.274 26.242L186.633 27.9015L187.738 27.9111L189.261 27.0989L190.295 25.6033L191.726 25.4489L191.712 23.9533L192.65 23.5763L193.994 23.7677L194.449 22.424L197.564 20.0512L199.986 19.2354L201.475 19.171L200.41 17.0918L200.448 13.4379L200.847 12.8282L202.498 12.3929L204.207 14.4846L205.211 15.2958L208.045 16.8051L209.368 16.7402L211.305 15.5418L214.061 14.3821L214.628 13.124L216.24 13.0019L218.173 13.7378L219.971 13.8424L222.939 13.3665L226.045 13.5418L226.651 12.8948L227.177 10.8772L226.578 7.95699L227.6 4.85806L229.135 3.59766L229.806 3.8241L231.961 6.10416L234.477 7.55013L236.779 8.18995L238.717 8.43146L239.958 11.2046L241.145 12.366L244.543 12.8289L247.107 13.3817L247.236 10.5204L248.558 9.26972L250.254 9.4471L257.105 11.2969L258.079 11.375L260.382 10.2827L261.622 10.771L262.639 12.5472L262.876 15.6383L263.869 16.2595L266.18 15.6393L266.102 13.9195L265.205 12.7863L265.11 11.0957L266.205 10.7644L267.848 12.5659L268.923 13.1821L268.984 14.1357L268.376 15.8748L268.776 16.3956L270.464 16.4253L272.196 17.1346L273.087 18.3195L274.261 19.1361L276.356 20.0071L277.698 21.0251L279.01 19.378L280.302 20.2772L280.827 21.936L279.89 23.052L278.739 23.3845L278.061 24.3731L278.553 26.0785L279.085 26.3125L280.31 25.1112L282.333 25.3494L284.723 27.4426L285.116 29.2738L283.126 30.1472L284.04 31.7923L283.745 33.1793L282.335 34.7946L282.482 36.6298L282.965 37.9522L284.269 38.2993L284.575 36.7604L284.275 34.3946L284.444 32.7365L286.122 31.9404L287.232 33.3113L287.985 35.5387L288.059 37.5619L287.66 39.6611L287.719 40.9953L288.404 42.9586L287.762 45.2877L287.823 46.5332L289.082 47.9113L293.086 49.2738L293.958 49.7417L294.081 50.6794L292.39 53.1518L293.448 53.6804L297.539 54.9436L298.163 56.2422L298.11 57.6596L299.161 59.3099L302.091 58.7547L302.739 59.5004L302.369 62.1911L302.462 64.8517L303.323 65.1971L305.191 64.4452L310.276 63.8919L313.022 63.9174L315.017 63.1767L316.165 61.8899L316.347 60.5349L318.29 59.0549L318.888 56.8848L320.559 55.624L325.513 49.2776L328.559 46.7788L329.675 46.4428L332.126 45.1501L338.135 40.5106L340.618 38.8657L341.726 39.048L345.84 42.8696L351.068 48.5532L353.403 49.6619L356.86 50.2579Z" fill="#1E1E1E" stroke="white" stroke-width="5"/>
</svg>
