<svg width="447" height="232" viewBox="0 0 447 232" fill="none" xmlns="http://www.w3.org/2000/svg">
<path d="M387.883 35.6593L388.619 37.613L389.483 37.3552L392.216 33.8927L393.382 33.8597L397.818 35.1579L401.604 35.2559L405.756 35.7864L410.963 35.9496L414.511 36.9954L418.298 37.6069L422.298 37.9536L424.168 37.8081L425.953 37.2585L427.219 38.4657L428.112 40.2937L429.264 41.4978L431.063 42.0065L431.566 41.117L434.335 41.996L436.06 41.5339L436.711 42.2145L437.212 43.7938L438.421 43.6897L439.509 44.5178L442.668 45.9036L444.462 47.3314L444.387 49.4929L441.953 50.5196L438.995 49.573L437.98 49.5755L436.089 48.6738L434.666 49.0289L433.294 48.3989L432.245 48.8229L430.696 48.1483L425.922 48.7539L422.337 48.6263L419.428 47.8856L418.157 47.188L416.653 47.3282L414.806 48.2458L413.48 49.3404L412.161 51.2702L411.456 53.0829L410.784 56.002L409.764 58.9749L409.022 60.1649L407.303 61.6149L404.507 63.5247L403.518 64.6489L402.517 66.4315L401.59 69.0219L400.756 70.074L397.612 71.217L396.897 71.8058L395.536 73.9431L393.544 79.7712L393.983 81.7177L396.672 84.3356L400.001 88.146L397.583 89.83L395.81 90.2346L393.834 91.548L393.019 92.7801L391.994 95.2214L390.341 96.7563L386.195 98.5558L382.855 98.9922L380.854 100.581L376.882 102.341L375.297 103.325L374.758 104.445L374.696 106.157L375.356 108.825L374.649 110.358L372.352 111.397L368.64 114.404L368.677 115.395L369.936 118.052L370.765 121.593L369.929 124.829L369.694 127.12L368.776 129.228L366.71 131.5L366.202 131.667L364.116 130.607L361.54 131.81L360.457 131.776L359.141 130.781L356.482 126.571L354.925 123.851L352.878 120.846L350.984 118.434L349.284 115.595L347.313 114.032L346.514 113.909L344.335 116.277L342.262 119.36L340.238 121.607L337.96 124.752L336.801 125.316L333.253 124.474L331.878 124.825L329.261 126.99L327.319 127.828L325.887 127.812L323.309 127.339L320.96 126.528L318.523 127.172L316.507 128.344L313.495 128.32L311.349 128.838L309.819 130.012L310.695 131.349L315.732 135.233L319.611 138.58L321.161 139.313L323.098 140.97L326.94 145.417L328.076 147.423L328.887 149.871L328.762 153.107L329.599 159.555L329.46 160.559L325.945 162.621L321.108 164.366L319.739 164.601L317.309 165.554L315.461 166.722L314.769 168.17L314.394 170.68L318.002 177.618L319.106 181.73L319.299 185.73L318.875 190.885L318.503 191.895L317.104 193.309L313.247 193.993L310.074 194.01L309.627 193.701L305.196 193.593L299.971 193.703L298.029 192.823L294.221 189.659L292.701 188.728L290.28 187.883L287.858 187.379L285.601 187.306L282.74 187.772L280.312 187.277L278.404 186.285L277.651 186.548L276.544 187.956L275.575 188.101L274.062 185.385L273.357 183.453L272.776 182.841L273.354 180.927L274.518 179.475L272.803 178.833L272.382 178.04L269.939 175.292L268.332 174.547L266.587 174.954L265.025 174.64L263.882 171.904L261.323 170.767L259.156 171.17L256.059 172.334L253.876 172.861L251.27 173.104L247.564 173.095L245.854 172.874L244.121 172.088L240.153 171.774L238.563 171.085L236.317 168.736L234.994 167.831L233.512 167.611L230.29 167.558L228.665 167.748L226.476 168.625L223.095 168.949L220.529 170.312L218.141 171.828L215.718 172.046L213.141 171.848L212.543 172.9L213.799 178.547L214.427 180.232L215.768 185.891L216.464 189.342L216.407 190.576L215.029 194.493L213.606 198.039L213.196 200.591L213.722 205.992L214.879 208.724L215.262 212.017L214.659 215.598L214.05 217.237L208.421 224.884L206.692 228.282L205.832 228.48L204.539 227.735L202.421 228.309L201.664 227.992L200.922 225.836L199.743 223.646L197.854 218.4L195.837 216.159L192.669 215.407L189.686 216.523L187.989 216.863L186.595 215.042L184.154 211.392L182.823 210.623L176.176 209.541L173.026 207.951L170.084 209.685L168.191 210.177L163.908 210.771L162.404 211.741L160.005 212.345L158.421 211.395L156.56 209.529L155.762 207.415L153.674 206.065L152.727 206.373L150.516 208.036L148.316 209.204L146.964 209.294L144.01 208.511L142.281 207.726L137.293 205.022L134.353 206.413L131.345 204.859L125.849 204.114L123.092 203.583L121.867 202.982L118.499 200.481L117.075 199.863L113.508 200.072L111.45 201.289L110.328 203.763L108.987 205.427L108.512 207.284L107.624 209.344L106.77 210.208L103.761 211.6L102.092 211.893L100.586 212.825L97.7498 215.151L94.2092 213.945L92.1437 213.795L89.7593 214.245L87.2243 216.004L85.8917 216.66L82.8189 217.369L79.0295 217.525L77.2957 216.305L75.2271 213.485L74.947 212.303L73.3543 210.126L71.7165 209.15L69.3596 207.269L66.9457 203.584L66.3854 201.734L65.7382 201.462L65.1791 200.092L63.4779 198.631L59.6158 194.766L57.1253 192.804L53.6937 192.367L52.0151 192.657L48.0558 194.251L45.4046 195.799L40.0466 197.143L37.924 197.836L36.7722 198.771L36.1678 196.936L33.8726 192.083L33.8634 188.033L33.3167 187.086L29.8402 185.806L27.8861 185.596L23.4434 186.176L22.7723 185.922L20.8944 184.157L19.6464 183.654L18.2285 181.511L17.8853 178.79L18.1015 175.533L17.7749 174.54L18.7075 172.385L19.4795 168.988L19.4188 164.424L18.3786 162.306L17.438 162.067L14.3624 160.149L12.4529 157.876L10.129 156.378L8.48138 153.977L5.64099 151.883L4.40087 149.74L4.27457 147.642L3.34375 145.158L4.07537 142.219L4.86572 140.606L6.30046 140.019L10.849 139.043L12.857 138.232L13.7801 137.032L14.0619 134.277L15.0211 132.009L17.8586 131.129L20.1863 130.928L21.3119 130.229L22.0568 128.846L22.7004 126.234L22.9276 123.278L23.3539 120.541L25.1765 119.424L26.586 119.382L29.1718 119.886L31.5424 121.158L33.3175 122.887L34.2035 123.068L36.2974 121.986L37.3432 120.909L39.4557 119.973L41.642 119.712L42.9623 120.148L45.1726 122.808L46.7112 124.118L51.9023 126.787L53.0785 127.735L53.605 129.157L53.4818 131.109L54.4946 131.798L57.8749 132.889L59.2861 134.161L61.1474 134.469L63.5133 133.955L66.1259 132.564L67.5311 132.484L68.4358 131.034L69.0119 128.11L68.902 125.842L67.167 124.637L64.3887 121.762L64.2411 117.902L64.6308 116.72L64.4593 115.284L60.847 111.319L57.6017 110.116L54.2687 110.185L54.8847 108.956L54.5499 104.779L55.4122 102.921L56.965 100.504L57.8813 99.5398L58.2222 98.3541L59.5108 97.0753L58.6224 94.1509L57.0333 91.5201L55.878 88.2922L55.5392 85.4912L55.5107 81.7187L55.3248 80.4945L54.3667 77.867L56.0828 75.4679L56.2812 71.6028L55.7988 69.2293L55.6245 65.0612L56.5546 62.0202L58.1689 62.4534L61.3655 64.342L66.1256 63.4335L66.4448 58.0659L65.3952 57.1659L67.9362 55.5198L68.1947 54.8195L70.3046 52.3859L72.125 49.6723L71.9815 48.9982L73.4738 44.2015L73.8327 41.6789L73.4584 39.5536L72.5148 38.1325L72.3369 36.0097L72.9236 33.1683L73.9589 32.2468L76.0896 31.5034L78.876 31.1118L80.182 31.3378L81.5973 32.1326L84.0704 32.1714L87.1307 33.426L89.1621 30.3314L92.4855 30.0474L94.6941 28.9649L96.4131 27.1708L97.4126 25.1554L98.8769 23.578L100.054 23.3736L101.158 24.0612L101.285 25.0185L100.69 26.5125L101.37 28.2111L101.15 30.3088L100.63 31.0368L100.142 33.2569L101.804 33.4843L102.14 34.0435L102.08 36.3623L103.701 39.8034L104.705 42.5193L105.851 43.4975L108.428 45.0106L110.002 45.4068L113.091 45.7064L114.956 45.3647L118.821 43.3646L119.729 42.5995L121.722 42.1828L123.556 42.3744L125.008 43.3813L125.847 44.7353L126.468 46.5247L129.375 46.9367L131.956 46.5575L133.487 45.3539L134.012 41.5797L135.128 39.7448L135.859 39.6776L137.566 40.8633L139.451 40.8539L140.452 40.2382L144.298 38.6384L147.353 35.7004L149.656 34.0916L149.135 30.9831L149.413 29.8421L149.075 26.7998L149.476 25.3636L151.163 21.9878L151.917 21.1564L151.635 20.3493L148.267 21.3453L145.625 21.8769L144.32 21.4744L143.427 19.6898L143.828 18.0332L146.508 16.07L149.119 13.311L151.736 11.7704L152.407 10.9157L152.712 8.04629L153.727 6.98424L156.294 6.51249L157.291 7.44773L158.844 8.21247L160.234 8.48994L161.92 5.96141L164.533 4.57911L167.369 3.69687L169.092 3.41016L174.745 3.48927L176.011 3.95102L177.598 5.32197L178.248 6.71948L178.253 8.68171L179.762 10.6871L180.562 10.8646L182.309 9.74831L184.56 6.9242L186.771 6.19822L188.235 6.13122L190.462 7.29586L193.029 7.0866L196.615 8.92845L198.011 8.28598L201.047 5.29789L202.497 5.10589L206.014 7.24528L207.298 7.46143L210.035 8.95336L215.971 11.5702L222.95 11.1959L225.023 10.5471L225.961 9.7692L227.361 7.61421L228.088 7.15678L230.062 8.51909L236.154 15.9119L239.884 19.982L242.405 20.5035L246.334 23.3274L249.296 23.5714L251.489 23.1267L254.78 20.3386L257.147 21.3599L260.865 20.9611L261.549 17.5816L262.311 17.5186L263.522 19.6579L264.05 21.2431L264.255 25.2311L265.751 26.6879L268.306 27.4244L270.546 27.2312L271.067 27.6295L271.481 29.2864L274.524 31.4639L278.654 32.3316L281.776 32.5681L282.571 30.6222L284.708 31.5938L286.037 31.0988L288.43 28.5882L290.72 25.7972L292.381 22.9739L294.288 20.3045L296.225 22.4461L299.181 22.5392L301.289 22.3738L305.735 22.6439L306.846 23.1764L307.425 24.1773L307.402 28.652L307.613 29.8939L308.507 31.8594L310.407 32.495L317.187 31.3771L319.012 32.3325L323.745 33.4669L325.449 35.0493L326.512 36.9623L327.559 38.1578L329.728 38.5472L331.165 38.0853L333.741 35.7272L336.519 34.1966L339.62 32.8014L341.641 32.1194L344.555 30.4488L346.56 29.0781L351.276 28.4051L354.668 28.0852L358.097 29.4982L361.302 29.6239L363.98 30.06L367.075 30.1744L370.791 30.8979L372.427 31.9087L374.901 33.9638L378.105 34.8489L380.483 34.7124L382.598 34.1046L385.023 34.0988L387.034 34.5893L387.883 35.6593Z" fill="#1E1E1E" stroke="white" stroke-width="5"/>
</svg>
