<svg width="518" height="269" viewBox="0 0 518 269" fill="none" xmlns="http://www.w3.org/2000/svg">
<path d="M415.262 24.8579L416.709 25.6727L418.169 27.0136L420.907 30.103L421.507 33.8633L422.295 35.8972L422.922 38.7013L424.337 41.4109L425.725 43.3486L426.398 45.7571L426.499 48.1924L427.292 50.189L428.314 53.8657L430.303 59.4269L431.424 61.1532L432.044 63.9406L432.899 65.4554L434.494 66.7396L437.934 67.3889L439.337 69.6902L439.622 71.8954L440.269 73.6976L440.29 77.0736L441.416 77.4984L445.191 76.6992L447.32 77.2543L448.445 76.6839L449.268 75.3673L451.387 73.3481L453.146 72.7213L453.718 70.8724L456.608 70.0844L457.9 70.0686L459.267 70.5888L460.865 71.688L462.147 73.5636L465.849 72.8048L467.88 73.3916L469.064 74.3538L469.129 75.8405L472.203 82.6707L472.394 83.3935L472.579 92.4559L473.179 95.3096L473.147 98.7324L472.94 101.083L475.213 101.379L477.009 101.957L479.491 103.547L481.153 103.49L484.588 102.979L486.483 101.372L487.806 99.6371L491.492 97.2129L492.586 96.8875L493.907 94.9981L496.817 91.6174L498.363 90.3845L499.898 90.1533L500.657 90.4669L501.115 91.585L502.121 92.5687L504.96 93.4071L506.667 94.6919L507.196 95.4794L507.2 96.8412L506.585 100.55L507.136 101.726L508.466 102.598L510.539 103.478L513.647 106.013L512.383 106.903L510.592 105.651L509.017 105.322L507.442 105.522L507.027 106.197L509.163 108.672L509.989 109.949L510.199 111.404L509.46 114.165L508.256 115.325L506.403 114.212L505.652 114.931L506.733 118.58L505.903 119.972L502.928 120.573L502.112 121.659L501.145 121.991L497.839 121.159L496.563 121.48L494.204 123.931L493.657 125.549L493.85 129.345L492.782 133.278L489.895 139.322L488.717 140.17L488.463 141.388L483.983 140.664L480.305 140.574L474.434 142.364L471.315 145.493L470.04 145.336L467.504 142.934L465.961 141.908L463.604 141.543L458.391 141.541L454.343 140.185L450.336 138.067L447.87 137.642L445.097 137.845L442.814 139.276L444.017 140.443L443.906 141.112L442.576 142.102L443.557 143.368L442.587 144.688L439.127 145.609L436.314 147.449L434.058 149.644L432.334 150.093L431.177 149.309L429.897 150.069L426.959 152.897L425.833 153.179L424.144 152.821L421.618 151.243L420.899 150.438L415.606 146.532L413.779 143.517L411.427 140.585L409.82 139.571L408.024 138.922L406.099 139.274L401.224 137.97L399.785 137.865L396.264 139.855L393.881 141.9L391.975 143.085L389.912 145.08L387.182 148.893L385.881 149.781L383.669 150.627L382.054 150.197L380.091 151.527L378.483 152.282L376.251 152.639L375.501 153.844L375.177 155.279L372.943 154.458L372.222 157.089L371.277 157.157L368.867 156.529L366.805 155.232L363.672 154.387L362.369 154.495L362.207 155.288L362.822 156.696L364.255 158.945L366.028 161.247L369.359 167.129L369.848 168.708L370.007 171.883L370.711 174.278L370.66 175.739L369.477 176.304L364.108 175.854L362.773 176.036L360.209 177.06L357.834 177.52L355.75 177.537L354.062 176.547L353.412 173.741L351.541 172.043L350.576 169.525L350.592 167.891L352.2 165.09L352.545 163.849L351.855 162.48L348.593 161.11L347.088 162.107L345.081 161.499L344.485 163.038L345.009 164.745L343.751 166.709L343.959 167.803L343.386 169.066L341.128 168.654L339.726 167.795L335.077 167.935L332.219 166.39L330.136 166.726L326.725 165.901L324.611 164.894L324.137 165.409L324.244 168.058L323.24 169.276L318.559 173.692L316.694 176.716L315.238 177.624L313.801 180.314L313.001 182.29L311.303 184.847L309.291 188.461L304.833 196.881L302.646 197.711L299.821 197.346L297.739 197.369L294.14 197.893L293.397 197.829L292.459 198.776L290.961 198.467L288.053 200.197L287.43 202.307L286.283 202.865L285.65 204.508L280.264 205.493L279.808 205.07L280.338 202.428L280.787 198.654L281.431 197.136L283.272 195.631L283.614 194.715L282.572 193.7L283.063 192.335L283.26 190.109L282.842 189.13L281.004 188.361L280.477 187.722L279.818 184.872L279.04 183.808L275.712 183.912L274.06 184.166L272.232 186.143L271.487 187.452L270.166 191.737L269.158 193.522L268.713 194.95L265.843 197.958L264.214 200.111L258.999 205.309L257.958 206.194L255.881 207.346L252.392 207.928L247.579 206.122L246.128 206.366L240.806 206.699L237.51 206.559L235.035 207.474L233.771 209.201L231.351 208.927L229.529 209.318L228.106 210.795L226.794 213.124L224.867 215.189L223.155 218.75L222.232 217.814L216.724 215.28L216.273 214.519L212.855 212.136L213.257 209.199L211.88 207.822L209.502 206.072L206.16 201.78L205.012 201.911L203.815 204.117L202.457 205.233L200.01 207.802L200.132 208.528L202.174 210.839L202.663 212.193L202.304 213.813L202.886 215.892L200.336 217.214L197.951 217.871L195.986 217.938L193.112 218.752L192.043 219.625L191.213 220.992L189.997 226.924L188.673 230.608L186.852 232.185L181.915 234.575L180.859 235.58L179.982 237.529L179.067 238.796L176.786 240.733L172.579 241.564L171.892 243.122L171.05 245.929L169.667 248.337L168.279 249.717L166.438 250.512L163.183 250.831L161.583 250.324L158.516 248.281L157.708 247.143L155.989 246.281L154.857 246.525L152.951 245.62L152.191 244.889L150.182 241.364L149.167 238.286L148.142 236.83L147.21 236.15L142.918 234.67L141.098 233.686L139.416 233.204L137.346 234.553L136.188 234.112L132.325 231.602L129.741 228.841L127.916 227.531L123.65 227.608L120.873 228.727L115.879 231.815L114.15 234.143L112.144 234.559L110.438 236.004L108.749 240.499L106.605 241.62L105.471 242.632L103.206 245.367L100.482 247.447L101.643 250.199L98.844 252.341L98.1547 253.623L99.195 254.293L100.234 255.985L100.437 259.472L99.314 261.776L100.072 264.049L98.5212 263.413L95.9013 263.267L92.679 263.711L90.5857 263.702L87.5202 264.905L82.7293 263.388L80.8779 263.215L77.9478 264.186L75.9898 264.242L71.8231 263.423L69.4836 262.223L68.7323 262.56L69.0353 264.416L68.1404 264.829L66.7081 264.441L65.2896 263.588L63.6869 263.499L63.2147 261.233L59.1739 260.025L58.3793 259.263L58.3489 257.736L57.5471 257.065L55.0929 257.509L52.4269 255.084L50.948 254.397L49.3887 253.094L47.4881 250.784L47.0135 248.933L47.4647 247.189L49.5491 243.131L49.594 240.518L48.6671 239.159L48.0812 234.491L47.3604 233.375L47.5554 231.644L46.4382 230.399L44.9071 229.385L44.7614 228.58L45.3229 227.043L44.6458 226.023L41.703 223.979L39.8256 223.894L38.8677 223.305L36.5173 220.217L35.0953 218.624L33.6942 217.884L30.1353 217.94L28.47 216.501L25.4867 213.061L24.6619 212.62L23.53 210.75L21.9418 209.003L18.8148 204.158L16.0587 201.095L13.2777 197.214L9.98782 190.077L12.2616 189.196L18.633 187.177L20.1211 185.918L19.8779 184.343L19.0382 182.702L18.8314 180.443L19.298 176.569L19.7716 175.473L19.2094 174.887L17.0727 174.662L12.664 175.576L10.7069 176.55L9.24965 175.137L6.92176 174.715L3.71565 175.457L3.05078 173.856L3.6417 169.295L4.03639 168.745L3.63747 166.866L4.19241 165.441L8.1779 161.317L11.3915 158.584L12.0712 157.384L13.3321 152.999L13.0677 150.907L11.0843 147.185L10.2356 143.862L10.3393 142.474L9.43288 139.702L9.70678 132.588L10.1892 130.508L9.51768 128.192L9.46121 126.989L8.66035 123.358L8.18905 122.046L6.97087 117.087L6.76772 114.773L7.91956 113.839L10.0421 113.146L15.4002 111.801L18.0514 110.254L22.0107 108.66L23.6893 108.37L27.1208 108.806L29.6113 110.768L33.4735 114.634L35.1747 116.094L35.7337 117.464L36.3809 117.736L36.9412 119.587L39.3552 123.271L41.712 125.152L43.3499 126.129L44.9426 128.305L45.2227 129.487L47.2912 132.307L49.0251 133.527L52.8145 133.371L55.8872 132.662L57.2199 132.007L59.7549 130.248L62.1393 129.798L64.2048 129.947L67.7453 131.153L70.5813 128.828L72.0872 127.896L73.7565 127.602L76.7653 126.211L77.6192 125.347L78.5076 123.286L78.9825 121.43L80.3237 119.765L81.4459 117.291L83.5032 116.074L87.0707 115.865L88.4941 116.484L91.8625 118.984L93.0876 119.586L95.8446 120.116L101.341 120.861L104.349 122.415L107.288 121.025L112.276 123.728L114.005 124.513L116.96 125.297L118.311 125.206L120.512 124.038L122.723 122.375L123.669 122.067L125.757 123.418L126.556 125.531L128.417 127.397L130.001 128.347L132.399 127.744L133.904 126.774L138.187 126.179L140.08 125.687L143.022 123.953L146.171 125.543L152.819 126.625L154.15 127.394L156.591 131.045L157.985 132.865L159.681 132.525L162.665 131.409L165.832 132.162L167.85 134.403L169.738 139.648L170.918 141.838L171.659 143.995L172.417 144.311L174.535 143.738L175.827 144.483L176.687 144.285L178.416 140.887L184.046 133.239L184.655 131.601L185.258 128.02L184.875 124.726L183.718 121.994L183.192 116.593L183.602 114.042L185.025 110.495L186.403 106.579L186.459 105.344L185.763 101.893L184.422 96.2343L183.795 94.5493L182.538 88.9024L183.137 87.8504L185.714 88.0486L188.137 87.8305L190.525 86.3147L193.09 84.9516L196.471 84.6277L198.661 83.7501L200.286 83.5601L203.507 83.6131L204.99 83.8334L206.312 84.7389L208.558 87.0871L210.149 87.7766L214.117 88.0907L215.85 88.8767L217.56 89.097L221.266 89.1068L223.871 88.8631L226.055 88.336L229.152 87.1725L231.318 86.7691L233.878 87.9061L235.021 90.6422L236.583 90.956L238.328 90.5497L239.935 91.2942L242.378 94.0425L242.799 94.8353L244.514 95.4772L243.35 96.9293L242.772 98.844L243.353 99.4552L244.058 101.388L245.571 104.103L246.54 103.958L247.647 102.55L248.4 102.288L250.308 103.279L252.735 103.774L255.597 103.308L257.854 103.382L260.275 103.886L262.696 104.73L264.217 105.661L268.024 108.825L269.966 109.705L275.192 109.595L279.623 109.703L280.07 110.012L283.243 109.995L287.1 109.312L288.498 107.898L288.87 106.887L289.295 101.733L289.102 97.7326L287.998 93.6206L284.39 86.6823L284.764 84.1726L285.456 82.7247L287.305 81.5568L289.735 80.6033L291.103 80.3688L295.94 78.6232L299.456 76.5618L299.595 75.557L298.757 69.1096L298.883 65.8738L298.072 63.4251L296.935 61.4194L293.093 56.9722L291.157 55.3157L289.607 54.5821L285.728 51.2351L280.691 47.3512L279.814 46.0145L281.345 44.8401L283.491 44.3226L286.503 44.3469L288.519 43.1748L290.956 42.5302L293.305 43.3411L295.883 43.8146L297.315 43.8305L299.256 42.9927L301.873 40.8278L303.249 40.4762L306.796 41.3184L307.956 40.7548L310.233 37.6091L312.258 35.3624L314.33 32.279L316.51 29.9113L317.309 30.0349L319.28 31.5974L320.979 34.4368L322.874 36.8481L324.921 39.8537L326.478 42.5738L329.137 46.7836L330.452 47.7788L331.536 47.8128L334.112 46.6094L336.197 47.6694L336.706 47.5027L338.771 45.2303L339.69 43.1229L339.925 40.8315L340.761 37.5959L339.932 34.054L338.672 31.3979L338.635 30.4061L342.348 27.3994L344.645 26.3605L345.351 24.8274L344.691 22.1597L344.753 20.4475L345.293 19.3276L346.877 18.3431L350.85 16.5839L352.63 15.5462L356.191 14.5583L360.337 12.7588L361.99 11.2238L363.015 8.78252L363.829 7.55051L365.806 6.2371L367.579 5.83244L369.996 4.14844L372.055 7.50508L374.367 8.96211L375.491 11.4594L375.022 12.9149L372.702 15.7207L372.416 17.2721L372.898 18.4052L375.065 20.5465L375.423 24.1801L377.888 26.1316L378.629 29.3358L379.262 31.1522L379.634 33.8642L380.445 36.9238L382.482 40.1584L385.136 42.8299L387.974 43.6577L388.861 44.6101L390.366 47.6627L391.565 47.3266L393.138 43.5317L395.568 39.626L397.451 38.1415L399.508 37.5316L401.329 35.9687L404.23 32.4389L406.547 30.2758L408.141 29.1674L409.949 26.1748L410.774 25.4296L415.262 24.8579Z" fill="#1E1E1E" stroke="white" stroke-width="5"/>
</svg>
