<svg width="320" height="343" viewBox="0 0 320 343" fill="none" xmlns="http://www.w3.org/2000/svg">
<path d="M275.476 6.39017L275.067 9.50273L274.909 13.4855L274.381 17.6095L276.571 21.3593L278.43 23.181L279.419 24.8116L279.573 26.2219L279.134 27.2379L279.086 30.014L279.841 33.6207L280.783 35.092L283.201 35.9957L284.932 36.1409L288.697 36.085L293.213 35.7882L294.04 35.2368L296.19 32.5759L297.837 30.8608L300.79 28.5047L303.041 27.1696L303.807 27.2889L303.988 29.7807L303.796 32.0123L303.841 35.9976L304.408 39.3478L305.049 39.9501L305.516 41.9234L306.949 45.9579L307.621 48.3508L308.023 50.8062L307.76 53.3407L306.144 55.441L303.469 57.6138L298.758 64.3706L298.363 66.5298L298.423 68.3427L298.923 70.9848L299.077 75.2165L297.828 78.3567L296.712 85.2598L296.955 86.3936L297.939 87.3782L300.541 88.2706L303.95 88.4119L307.26 89.0533L308.375 88.977L309.424 87.9549L314.322 87.6301L315.071 87.8672L313.306 90.8429L313.536 93.6313L310.735 97.6969L309.256 98.3324L305.653 100.546L305.603 101.76L304.579 102.49L304.32 104.272L307.439 105.595L310.003 105.702L312.066 108.291L315.635 110.673L316.176 111.948L315.933 113.102L316.437 116.769L315.396 117.773L311.208 118.762L307.646 119.839L305.969 120.061L298.629 123.045L298.156 123.878L298.701 128.213L299.142 130.219L299.871 131.328L301.191 132.47L303.342 140.624L303.149 141.469L299.315 141.608L297.171 142.243L292.461 142.949L291.691 145.528L292.008 151.367L291.667 157.268L292.21 159.351L293.109 160.025L294.196 162.21L296.199 163.165L297.115 164.469L296.906 166.982L297.906 168.121L297.045 169.846L297.507 170.878L298.689 171.424L301.819 174.272L305.574 175.897L306.191 177.716L307.786 178.789L309.832 178.715L310.476 177.752L312.446 177.768L313.365 179.188L313.095 183.498L313.096 184.874L312.537 190.052L312.053 191.921L311.318 193.028L309.363 194.314L308.995 195.283L308.693 198.038L307.997 198.338L306.233 200.069L304.661 202.149L302.193 203.997L299.145 207.171L298.203 209.189L298.054 211.793L297.725 213.061L295.053 217.143L293.587 218.403L291.838 223.762L290.088 225.076L289.205 226.479L289.08 227.889L288.407 228.652L286.915 228.834L284.633 231.094L281.016 234.023L278.648 237.001L277.587 240.252L278.313 243.391L277.985 244.679L276.131 246.622L274.839 247.187L271.468 249.19L269.815 251.249L269.091 253.207L268.181 253.758L264.617 252.87L263.367 252.984L262.497 253.926L261.088 257.712L260.81 258.934L261.69 261.168L263.588 264.456L264.425 268.121L265.393 270.209L267.613 273.185L268.946 275.644L268.906 276.314L264.481 279.152L262.187 280.976L259.096 283.029L256.105 284.367L254.152 285.761L251.157 289.892L248.948 291.055L248.573 292.919L247.476 294.585L245.792 294.855L243.728 294.501L241.933 293.726L240.156 293.635L239.097 294.264L235.723 297.24L234.165 298.36L233.517 298.131L233.003 295.75L229.091 291.347L228.543 289.843L227.004 287.57L226.689 288.346L226.726 290.5L226.195 292.125L224.61 295.126L222.551 300.564L221.668 302.056L220.711 302.855L216.988 303.723L215.453 304.637L214.384 304.729L211.723 304.029L210.014 303.099L210.022 305.86L209.469 308.01L209.644 310.083L210.878 313.423L212.246 314.75L212.906 315.977L212.917 317.307L214.33 319.5L216.448 321.619L217.784 321.942L218.09 322.657L216.478 323.656L213.622 323.652L212.507 324.043L210.378 326.661L207.124 327.417L204.574 330.059L202.073 330.492L199.971 327.909L198.801 327.875L197.276 329.991L196.275 332.068L195.16 333.675L193.235 334.991L188.312 334.631L186.456 332.605L186.455 331.5L185.588 330.844L182.687 332.163L180.548 333.779L176.304 335.554L170.098 336.645L168.031 337.694L166.085 339.884L164.376 339.777L162.552 337.55L161.924 334.658L161.672 332.338L160.607 328.703L160.567 325.774L159.096 320.106L159.137 317.358L159.032 315.123L159.553 313.958L159.656 312.228L159.038 308.911L159.041 307.186L159.556 303.129L158.909 301.696L156.165 297.33L155.166 293.239L154.524 292.17L148.191 288.789L146.42 288.327L143.064 288.397L140.775 287.896L140.239 285.451L140.349 284.306L139.697 282.018L140.001 281.187L138.526 278.767L133.861 277.215L129.676 278.064L126.895 277.918L127.313 273.948L126.533 270.477L124.614 269.544L122.49 267.486L119.891 262.67L120.18 260.108L118.435 259.641L117.871 259.079L115.804 259.367L115.339 259.072L110.963 258.82L108.093 259.627L103.288 263.543L101.451 264.627L100.244 266.585L97.5089 268.668L97.1599 269.924L98.2672 271.995L100.146 274.186L100.125 275.122L98.3694 277.663L96.4603 279.626L94.2421 281.171L92.2467 281.675L90.4685 281.599L88.393 284.554L86.7626 285.435L84.7526 286.933L81.9989 288.323L81.238 288.19L79.1579 289.063L76.9914 290.43L75.8515 289.477L76.2706 287.633L74.5141 286.238L74.4053 283.614L72.77 283.715L71.2252 284.243L67.9955 284.53L66.5752 284.277L63.19 282.846L61.1121 282.678L59.1495 283.486L58.1105 283.513L56.8984 282.39L56.3133 281.018L56.249 279.597L58.3303 277.502L57.9675 276.701L56.3436 275.55L56.5458 273.23L55.1446 270.476L55.5879 269.069L55.2883 266.499L54.0767 263.388L52.7581 261.565L53.0064 260.489L53.9336 259.795L56.4376 259.26L60.5617 260.03L60.8579 259.29L59.3663 256.962L58.8542 253.668L58.9585 250.126L59.5169 247.792L61.3667 246.815L63.9149 244.207L64.3975 243.042L63.7766 241.745L60.2322 240.129L54.8786 239.207L51.8671 239.235L46.5246 240.49L44.9877 240.292L43.6243 239.495L42.0723 237.26L41.5603 236.095L41.196 234.018L41.2115 232.098L40.9131 229.654L40.0609 228.306L38.4269 226.594L37.7383 225.033L37.9635 220.684L36.8337 217.812L36.7207 215.833L37.7835 214.732L41.9587 214.13L43.7062 213.221L45.1265 212.065L45.1728 210.499L44.0471 208.563L41.0684 208.777L39.2134 208.376L38.2834 206.943L37.6097 201.082L37.2784 199.671L36.1594 196.911L34.8193 196.391L33.5441 196.552L31.8286 197.87L29.5573 198.762L27.8138 198.916L25.3885 198.038L19.6514 200.071L16.6571 200.428L15.1537 199.306L13.3551 196.097L11.4037 193.717L10.7343 193.392L7.64307 194.435L7.07855 192.224L6.09718 189.621L5.04628 187.687L4.48281 186.037L5.26242 183.676L5.68114 180.314L5.70354 178.374L5.03803 176.146L3.24129 173.794L3.09375 172.433L4.54967 166.664L7.3445 163.179L10.3145 160.634L13.6423 157.989L14.6689 156.64L15.9208 154L18.2193 151.82L18.9592 150.227L21.0413 147.426L22.5277 146.48L25.4452 145.227L26.56 144.486L33.9243 140.832L35.7686 139.754L38.2246 137.145L39.6458 133.234L39.6965 130.873L40.4277 126.957L41.5088 123.522L43.4989 120.879L45.9396 118.979L48.0712 117.917L51.2924 115.389L52.0129 112.252L52.3624 108.956L53.7057 106.564L53.5845 101.698L54.7515 99.7256L56.7799 97.6342L58.4674 95.251L59.1843 92.4778L61.3962 87.9557L63.0904 82.2682L62.7812 78.9632L62.6196 73.9093L63.2696 70.7144L66.8216 70.0725L67.2774 70.4958L72.6633 69.5106L73.2962 67.8668L74.4434 67.3089L75.0659 65.199L77.9745 63.4698L79.4719 63.7785L80.4101 62.8311L81.1534 62.8956L84.7521 62.3713L86.8345 62.3481L89.6596 62.713L91.8463 61.8837L96.3041 53.4632L98.3165 49.8491L100.014 47.2927L100.814 45.3164L102.251 42.6263L103.707 41.7182L105.572 38.6945L110.253 34.278L111.257 33.0607L111.15 30.4112L111.624 29.8962L113.738 30.9036L117.149 31.7281L119.233 31.3919L122.09 32.9369L126.739 32.7969L128.142 33.6561L130.399 34.0687L130.972 32.8048L130.764 31.7113L132.022 29.7474L131.498 28.0404L132.094 26.5014L134.101 27.1089L135.606 26.112L138.868 27.4825L139.558 28.851L139.213 30.0922L137.605 32.8937L137.589 34.5277L138.554 37.0453L140.426 38.7435L141.075 41.5491L142.764 42.5392L144.847 42.5218L147.222 42.0627L149.786 41.0387L151.121 40.8559L156.49 41.3062L157.673 40.741L157.724 39.2807L157.02 36.8852L156.861 33.7105L156.372 32.1312L153.041 26.2493L151.268 23.9474L149.835 21.6978L149.22 20.2904L149.382 19.497L150.686 19.3893L153.819 20.2347L155.88 21.5314L158.291 22.1593L159.236 22.0917L159.956 19.4602L162.19 20.2812L162.514 18.8462L163.264 17.6416L165.496 17.2841L167.104 16.529L169.067 15.1995L170.682 15.629L172.894 14.783L174.195 13.8951L176.925 10.0824L178.988 8.08727L180.895 6.90257L183.277 4.85751L186.798 2.86712L188.238 2.97205L193.112 4.27607L195.037 3.92417L196.833 4.5736L198.44 5.5878L200.792 8.51957L202.619 11.5345L207.912 15.4402L208.631 16.2455L211.157 17.8236L212.846 18.1814L213.973 17.8993L216.91 15.0714L218.19 14.3112L219.348 15.0957L221.072 14.6463L223.327 12.4516L226.14 10.6113L229.6 9.68988L230.571 8.37027L229.59 7.10381L230.919 6.11398L231.03 5.44502L229.828 4.27788L232.11 2.84698L234.883 2.64453L237.35 3.06971L241.356 5.1873L245.404 6.54341L250.617 6.54507L252.974 6.91044L254.517 7.93676L257.053 10.3384L258.328 10.495L261.447 7.36591L267.318 5.57645L270.997 5.66669L275.476 6.39017Z" fill="#1E1E1E" stroke="white" stroke-width="5"/>
</svg>
