<svg width="206" height="208" viewBox="0 0 206 208" fill="none" xmlns="http://www.w3.org/2000/svg">
<path d="M139.634 148.43L138.43 149.014L137.466 151.111L136.577 151.847L135.162 152.288L131.787 155.451L130.154 156.098L127.584 156.247L124.934 156.639L121.685 155.674L119.033 155.72L116.252 156.819L112.816 158.889L110.442 160.699L107.68 165.495L107.441 166.72L106.212 170.327L105.331 171.221L101.7 172.536L99.228 172.87L97.2126 172.797L96.4693 171.75L94.3029 169.724L89.9753 167.086L84.4379 163.026L81.0294 159.957L80.2545 159.744L79.312 160.872L78.568 162.686L77.9028 165.24L77.3351 166.3L74.8251 167.821L72.8852 168.347L70.4644 169.62L68.2119 171.231L66.5144 171.822L65.3282 172.969L62.8577 174.029L61.7516 174.769L60.209 176.839L58.7462 178.405L58.3287 181.326L54.4846 179.385L53.4443 178.33L53.2273 176.975L52.3484 176.98L49.3081 178.58L48.872 179.852L49.032 181.615L49.5526 183.342L51.298 186.839L51.4408 188.704L50.2998 190.264L47.4394 192.729L43.4319 194.252L41.3664 196.565L38.6268 197.998L36.2946 198.403L33.8651 199.72L33.1874 200.996L32.1269 202.014L28.8759 203.25L27.6585 203.923L27.1399 205.088L21.6447 203.853L18.7672 203.7L16.7314 201.682L15.9737 199.859L16.0422 198.667L15.3806 196.101L14.3172 195.159L11.4454 194.575L11.1658 192.861L10.0242 190.875L8.75758 190.174L6.93303 189.702L6.1342 188.684L7.34141 186.749L5.25847 185.394L4.00895 184.21L4.03222 183.245L4.86802 180.735L4.9032 179.629L3.50781 177.43L5.95561 174.637L6.6856 171.428L10.0971 169.179L9.78335 167.604L10.7226 163.651L12.2844 163.001L12.7198 161.724L14.2772 160.17L16.1942 159.513L18.1798 158.442L18.9867 157.614L19.4411 154.883L21.8438 153.923L23.7476 155.166L25.2471 155.125L26.7437 151.151L28.3624 148.726L32.2619 145.855L36.1666 141.528L37.3784 138.726L38.5547 135.405L39.4739 133.971L41.6314 131.986L42.0733 129.628L43.0397 126.029L43.1771 123.874L42.7875 122.538L41.6085 121.456L37.4765 121.132L35.3132 120.093L34.583 116.287L34.4494 114.32L35.2575 112.463L34.9327 110.389L35.6774 108.276L33.8777 105.688L33.239 103.97L33.5781 102.258L32.66 101.79L29.672 101.619L29.0543 100.279L29.6278 98.1935L27.5847 97.3433L26.7356 94.9995L26.8816 93.253L27.6532 90.9075L27.1847 90.0973L24.3202 89.3599L23.7512 86.9163L24.2699 85.9284L23.0947 84.5669L20.8627 84.9869L19.0757 83.0457L18.318 80.7735L19.441 78.4689L19.2377 74.9819L18.199 73.2903L17.1587 72.6201L17.848 71.3382L20.6472 69.1962L19.4857 66.4439L22.2103 64.3643L24.4747 61.6289L25.609 60.6175L27.7529 59.4964L29.4417 55.0015L31.1479 53.5558L33.1539 53.1398L34.8825 50.8125L39.8767 47.7242L42.6536 46.6055L46.9196 46.5284L48.7452 47.8378L51.3287 50.5987L55.1919 53.1086L56.3504 53.5505L58.4202 52.2013L60.1018 52.6827L61.9216 53.6666L66.214 55.1469L67.1456 55.8272L68.1705 57.2829L69.1864 60.361L71.1952 63.8861L71.955 64.617L73.8611 65.5218L74.9928 65.2783L76.7117 66.1397L77.5201 67.2785L80.5867 69.3212L82.1867 69.8286L85.4416 69.5089L87.2827 68.714L88.6706 67.3336L90.0536 64.9265L90.8959 62.1195L91.5834 60.5614L95.7895 59.7299L98.0711 57.7931L98.9855 56.5263L99.8634 54.5768L100.919 53.5723L105.856 51.1824L107.677 49.605L109.001 45.9212L110.217 39.989L111.047 38.6218L112.116 37.7487L114.99 36.9353L116.955 36.8676L119.34 36.2108L121.89 34.8889L121.308 32.8101L121.667 31.19L121.178 29.8359L119.136 27.5253L119.014 26.7991L121.461 24.2296L122.819 23.1144L124.016 20.9078L125.164 20.7768L128.506 25.0696L130.884 26.8195L132.261 28.1959L131.859 31.1333L135.277 33.5164L135.728 34.2769L141.236 36.8107L142.159 37.7475L143.871 34.186L145.798 32.121L147.11 29.792L148.533 28.3154L150.355 27.924L152.775 28.1979L154.039 26.4709L156.514 25.5564L159.81 25.696L165.132 25.3627L166.583 25.1189L171.396 26.9252L174.885 26.343L176.962 25.1908L178.003 24.3058L183.218 19.1082L184.846 16.9553L187.717 13.9468L188.162 12.5192L189.17 10.7342L190.491 6.44933L191.236 5.14017L193.064 3.16264L194.716 2.90901L198.044 2.80469L198.822 3.86931L199.481 6.71931L200.008 7.35829L201.846 8.12735L202.264 9.10657L202.067 11.3317L201.576 12.6972L202.618 13.7123L202.276 14.6277L200.435 16.1331L199.791 17.6514L199.342 21.4248L198.812 24.0673L195.26 24.7092L194.61 27.9041L194.772 32.958L195.081 36.263L193.387 41.9505L191.175 46.4726L190.458 49.2458L188.771 51.629L186.742 53.7204L185.575 55.6927L185.696 60.5589L184.353 62.9505L184.004 66.2466L183.283 69.3834L180.062 71.9121L177.93 72.9738L175.49 74.8734L173.5 77.5167L172.418 80.9519L171.687 84.8673L171.637 87.2288L170.215 91.1393L167.759 93.749L165.915 94.827L158.551 98.4806L157.436 99.2221L154.518 100.474L153.032 101.42L150.95 104.222L150.21 105.815L147.911 107.995L146.66 110.634L145.633 111.983L142.305 114.629L139.335 117.174L136.54 120.659L135.084 126.428L135.232 127.788L137.029 130.141L137.694 132.369L137.672 134.309L137.253 137.67L136.474 140.031L137.037 141.681L138.088 143.616L139.069 146.219L139.634 148.43Z" fill="#1E1E1E" stroke="white" stroke-width="5"/>
</svg>
