<svg width="283" height="376" viewBox="0 0 283 376" fill="none" xmlns="http://www.w3.org/2000/svg">
<path d="M194.991 100.429L195.031 101.533L196.192 101.993L196.837 101.582L197.295 103.39L198.85 104.273L199.274 107.006L198.119 107.939L198.005 108.88L198.719 109.618L198.497 111.285L196.593 111.965L196.855 114.004L196.488 115.195L197.161 116.955L196.895 117.903L195.104 118.56L195.158 120.655L193.934 121.942L192.048 122.59L191.395 122.36L189.638 122.876L189.214 124.251L188.84 126.953L188.18 128.114L188.12 131.123L189.109 132.302L191.479 132.632L191.381 134.068L192.466 135.84L191.271 137.089L192.069 138.497L192.169 139.455L191.137 141.269L191.292 143.24L192.146 144.54L192.246 145.459L190.816 146.576L189.465 146.713L187.063 146.047L186.145 146.716L186.015 147.732L185.221 148.319L185.144 151.705L185.692 154.667L186.642 156.188L185.722 158.391L185.67 159.451L186.146 162.306L186.037 164.037L184.665 166.746L185.412 167.534L185.547 169.491L185.118 171.421L189.993 170.667L192.313 172.663L193.412 174.12L195.123 174.584L196.483 173.872L197.789 175.018L200.512 175.72L201.432 176.968L201.45 181.611L201.121 183.29L200.09 185.255L199.553 187.38L199.705 190.91L198.567 192.643L197.017 193.926L196.019 195.37L194.771 198.749L195.098 199.247L196.964 199.207L198.722 198.49L201.71 196.637L205.2 196.599L206.796 196.354L208.91 196.528L212.261 197.166L216.102 199.367L219.072 200.588L220.57 200.729L220.408 202.034L221.17 202.642L225.634 203.158L226.542 203.479L229.278 203.53L232.258 204.142L234.373 206.051L236.065 208.683L239.768 212.268L241.288 212.853L243.999 213.171L244.86 214.095L245.954 217.062L247.649 219.805L250.496 223.833L249.25 227.624L248.685 228.376L247.877 231.208L248.322 234.587L248.264 236.446L247.798 237.724L245.689 240.112L245.554 241.454L246.1 242.523L246.455 245.913L245.871 247.538L245.492 250.921L246.416 253.974L247.014 254.512L250.823 255.907L252.107 257.476L253.387 259.921L252.437 262.921L252.431 264.141L256.472 268.698L257.614 269.406L258.62 271.348L259.133 273.313L260.931 275.025L263.376 275.082L264.809 275.658L269.84 279.001L271.563 282.363L272.835 283.549L275.395 284.174L276.281 285.378L276.142 288.5L276.715 290.533L278.394 293.458L279.486 295.98L279.837 297.4L278.91 300.022L278.76 302.036L279.058 303.137L278.829 305.151L279.258 308.938L279.068 310.007L279.391 312.686L279.332 314.41L279.733 317.124L279.788 320.728L278.866 323.645L278.87 325.021L279.416 325.632L279.914 327.612L279.565 328.848L277.765 330.494L274.632 332.163L271.777 332.813L270.255 333.452L267.63 336.024L264.502 337.657L262.371 338.49L257.894 337.731L256.374 338.49L253.081 339.492L249.249 336.655L246.033 334.674L245.484 333.932L243.429 333.154L241.671 333.007L240.563 333.606L239.509 335.37L238.246 336.245L236.729 335.794L235.426 334.435L234.306 333.864L232.008 334.068L229.285 333.324L226.334 332.854L224.15 333.13L223.66 333.963L223.341 337.05L224.079 339.641L223.243 343.012L223.186 345.308L223.371 348.568L222.493 350.395L221.319 351.737L219.721 354.465L218.491 355.805L218.606 358.549L218.381 360.125L217.618 361.363L213.692 364.122L209.724 365.77L206.76 367.437L201.408 368.05L199.251 369.262L197.437 371.456L195.718 372.434L194.194 372.755L193.367 370.607L194.174 367.454L195.238 364.618L196.11 363.723L196.009 362.93L194.302 359.994L193.887 358.826L194.458 356.471L196.123 355.165L195.789 352.707L191.234 347.939L190.389 347.62L188.835 348.414L186.953 348.825L181.783 350.565L180.754 351.352L177.068 352.35L174.943 353.491L173.141 353.199L170.585 353.146L168.04 353.472L167.051 354.638L165.628 355.047L163.679 353.663L162.017 353.677L161.018 354.312L159.555 354.338L157.98 355.014L155.87 355.177L154.665 354.847L153.765 353.735L153.16 351.13L152.458 350.066L149.394 349.602L146.678 348.113L145.126 346.763L143.262 347.123L141.177 346.772L138.486 347.752L135.293 347.498L133.894 347.915L132.209 347.567L130.91 346.54L129.211 345.884L128.043 344.361L126.423 344.453L125.009 343.641L122.595 343.55L121.564 342.756L117.664 341.924L116.027 340.397L114.096 340.369L111.477 341.031L109.725 339.779L104.63 337.107L102.569 335.374L98.7062 333.207L97.5786 331.947L96.7241 328.156L97.705 326.027L97.121 323.865L95.6378 321.728L94.1932 320.14L93.5571 317.608L93.3229 315.632L93.4892 312.537L93.3776 310.065L93.6812 308.615L93.3983 305.375L93.3936 302.718L91.9476 299.91L91.1315 299.32L89.5631 299.126L88.1312 296.381L87.2852 293.214L85.2136 291.028L86.138 289.984L88.0908 290.794L91.2851 289.222L93.2178 287.676L94.2118 286.39L95.042 284.262L96.416 282.668L97.3025 280.018L97.3074 278.461L96.1591 277.554L94.4447 273.303L94.8773 271.869L96.2907 270.81L96.9814 269.031L97.4838 265.939L98.3901 263.735L99.5205 262.236L100.857 262.171L105.858 262.402L108.47 261.585L109.708 261.455L113.615 262.586L115.633 262.103L119.743 260.577L121.177 260.627L122.134 261.22L122.626 262.291L122.585 263.743L121.808 265.374L121.848 267.376L122.659 267.137L122.55 264.805L123.583 263.571L124.122 262.332L125.631 260.286L126.374 258.129L127.56 255.649L128.668 251.803L129.835 249.037L129.784 246.838L128.165 246.24L126.057 245.855L124.757 246.988L123.239 247.598L121.542 247.334L120.23 246.456L119.561 245.455L118.6 242.74L117.98 240.053L117.455 239.452L112.672 240.555L110.244 240.698L108.111 239.854L107.287 239.115L101.814 237.609L98.8587 237.189L97.2792 237.798L94.7284 239.653L93.2261 239.951L92.3249 239.535L90.6567 237.998L88.5819 235.308L86.9462 234.681L80.8869 237.829L78.2531 238.076L73.1361 236.804L67.4984 236.568L66.8984 236.039L68.2379 234.293L67.8016 232.981L66.5182 232.442L63.0436 229.363L62.3326 230.144L61.3303 228.567L61.507 227.638L62.5239 226.843L63.2394 227.223L64.0187 225.991L64.2316 224.755L63.2908 221.628L62.5986 221.682L61.9661 220.226L63.3214 218.49L63.1781 216.971L63.4743 215.569L62.5419 214.749L62.1359 213.481L59.8725 210.472L59.3128 208.697L60.6697 206.044L60.6831 203.817L62.8474 202.613L63.7484 201.051L64.1091 199.03L65.1815 196.869L64.5553 195.001L64.7717 193.641L66.1561 192.298L66.8827 192.054L68.9137 189.088L68.0716 186.737L65.2355 184.201L64.2196 183.806L59.8744 184.228L59.002 184.502L55.9877 182.375L53.1954 178.808L51.1575 178.042L48.5394 176.354L45.9936 174.406L44.7663 174.223L43.5717 175.902L39.9614 175.33L38.0514 174.592L37.0274 173.757L32.9398 171.394L29.855 171.273L27.7905 169.897L26.7827 168.464L26.6165 166.171L25.99 164.699L22.2922 162.099L19.643 160.473L17.6108 159.534L13.9693 159.814L10.9356 159.585L10.2831 159.996L8.8958 159.767L5.10044 157.644L3.55757 155.858L2.76809 153.693L2.55078 152.209L2.7833 150.637L2.79885 147.261L5.06794 143.984L7.4812 142.558L9.75563 139.974L10.8881 138.03L11.9416 136.786L12.1635 134.7L13.4849 134.584L15.3246 133.615L17.4161 133.488L20.8694 132.793L23.2306 132.788L24.7604 132.109L24.2566 131.167L21.1848 129.099L20.2259 127.45L20.6595 127.075L22.8013 127.256L22.7195 125.905L21.6205 123.971L21.2629 122.7L21.8892 121.383L21.5468 117.591L22.0258 116.996L24.7562 115.452L25.81 114.266L26.3896 110.897L26.4258 109.519L27.3165 108.347L28.5548 108.045L29.5297 107.03L29.0774 105.284L29.3038 104.45L30.3737 103.967L31.2311 102.615L31.3969 101.269L32.3056 99.7406L31.9488 98.003L30.3802 97.2612L27.8714 96.9815L25.6611 96.4502L24.6945 95.6914L23.5721 93.9758L19.032 89.9561L18.033 88.2857L17.8159 86.7242L17.0822 84.3739L15.695 82.3087L14.2788 80.9825L12.8634 78.8208L13.0067 77.0687L13.7704 74.2574L13.4011 72.9405L12.2205 71.4416L11.8464 69.6757L12.3203 68.7668L12.3123 66.6469L13.4249 64.2628L13.6582 62.4308L13.1489 61.0924L13.6675 59.9273L14.8849 59.2539L18.1359 58.0179L19.1964 57L19.8741 55.7245L22.3036 54.4068L24.6358 54.0018L27.3754 52.5695L29.4409 50.2557L33.4484 48.733L36.3088 46.2679L37.4498 44.7077L37.307 42.8436L35.5616 39.3462L35.041 37.6188L34.881 35.856L35.3171 34.584L38.3574 32.9837L39.2363 32.9787L39.4533 34.3342L40.4936 35.3888L44.3377 37.3305L44.7552 34.4092L46.218 32.8427L47.7606 30.7734L48.8668 30.0327L51.3372 28.9729L52.5234 27.8265L54.2209 27.2349L56.4734 25.6237L58.8942 24.3512L60.8342 23.8247L63.3441 22.3039L63.9118 21.2438L64.577 18.6904L65.321 16.876L66.2635 15.7482L67.0384 15.9611L70.4469 19.0302L75.9844 23.0903L80.3119 25.7285L82.4783 27.7543L83.2216 28.8009L85.237 28.8742L87.7088 28.5402L91.3404 27.2248L92.2211 26.3311L93.4505 22.7242L93.6894 21.4989L96.4515 16.7032L98.8247 14.8934L102.262 12.8232L105.042 11.7238L107.694 11.6779L110.943 12.6431L113.593 12.2515L116.163 12.1023L117.796 11.455L121.171 8.29219L122.586 7.85111L123.475 7.11507L124.439 5.01822L125.643 4.4339L128.734 3.39062L129.403 3.71617L131.355 6.09632L133.153 9.30458L134.657 10.4264L137.651 10.07L143.388 8.03705L145.814 8.91498L147.557 8.76068L149.828 7.86898L151.544 6.55133L152.819 6.38947L154.159 6.90974L155.278 9.6701L155.609 11.0806L156.283 16.9424L157.213 18.3745L159.068 18.7758L162.047 18.5617L163.173 20.4982L163.126 22.0643L161.706 23.2195L159.958 24.1286L155.783 24.7314L154.721 25.8318L154.833 27.8114L155.963 30.6832L155.738 35.0319L156.427 36.5934L158.061 38.3049L158.913 39.6532L159.211 42.0974L159.196 44.0174L159.56 46.0937L160.072 47.2593L161.624 49.4938L162.988 50.2911L164.524 50.4892L169.867 49.2338L172.878 49.2056L178.232 50.1281L181.776 51.7435L182.397 53.041L181.915 54.2062L179.366 56.8141L177.517 57.7907L176.958 60.1252L176.854 63.6668L177.366 66.9611L178.858 69.2893L178.562 70.0291L174.437 69.2586L171.933 69.7943L171.006 70.4875L170.758 71.5638L172.077 73.387L173.288 76.4974L173.588 79.0676L173.144 80.4751L174.546 83.2287L174.343 85.5486L175.967 86.7003L176.33 87.5007L174.249 89.5964L174.313 91.0167L174.898 92.3894L176.11 93.5116L177.149 93.4852L179.112 92.6773L181.19 92.845L184.575 94.2759L185.995 94.5291L189.225 94.242L190.77 93.714L192.405 93.613L192.514 96.2367L194.27 97.6318L193.851 99.4762L194.991 100.429Z" fill="#1E1E1E" stroke="white" stroke-width="5"/>
</svg>
