<svg width="306" height="356" viewBox="0 0 306 356" fill="none" xmlns="http://www.w3.org/2000/svg">
<path d="M302.217 93.8486L300.543 96.0878L298.528 97.5674L295.449 98.6463L292.006 101.342L290.964 103.616L290.666 104.897L288.321 105.763L284.804 106.388L283.588 107.247L282.446 108.598L281.675 110.413L278.218 115.627L278.181 118.238L277.676 120.614L278.557 123.051L277.653 124.973L275.496 127.43L274.472 128.189L273.157 128.228L272.22 126.711L272.467 125.596L273.505 124.389L272.101 122.743L272.128 121.845L273.861 118.092L274.413 116.498L273.609 115.735L269.557 116.222L268.257 116.03L267.354 115.161L265.333 111.524L263.441 110.713L261.497 108.775L261.587 107.695L263.81 105.455L262.707 103.381L261.77 102.737L261.162 101.585L259.934 101.149L259.708 100.245L259.872 98.0303L257.336 96.6505L256.142 97.1158L254.675 98.3727L253.491 98.1259L253.658 100.105L252.858 102.963L251.24 104.668L249.928 107.068L249.429 109.922L250.197 112.566L251.481 115.108L251.336 116.476L248.443 120.421L250.332 123.497L251.694 125.62L252.718 128.33L252.708 129.871L250.36 132.808L249.326 133.701L247.188 134.736L245.905 135.051L242.266 135.352L239.073 136.742L240.187 140.961L241.521 145.096L241.128 146.731L238.872 148.748L232.554 152.403L230.102 156.346L228.752 158.246L226.49 160.063L223.447 161.008L221.548 160.647L221.201 162.706L219.702 165.325L219.51 168.443L218.581 173.415L216.625 176.195L216.546 177.044L217.54 177.688L219.397 177.981L219.59 178.753L219.047 181.57L220.016 182.674L219.35 184.142L221.771 186.428L222.964 189.117L222.838 191.221L223.689 193.407L227.723 198.719L230.275 202.626L231.527 203.628L234.595 204.438L238.742 205.13L240.427 205.866L243.046 207.775L244.494 209.398L245.536 211.648L247.948 218.431L250.07 228.198L250.494 229.616L252.126 233.05L254.259 236.738L255.663 238.738L259.048 242.383L263.502 246.968L264.464 248.228L266.135 249.608L268.305 251.776L269.862 254.185L270.431 256.395L270.244 258.369L268.843 262.158L269.095 264.905L268.621 266.906L267.809 267.883L265.167 268.829L261.221 269.645L261.573 268.414L261.004 267.285L258.683 265.499L259.13 263.617L257.832 263.992L255.344 262.982L254.53 261.25L255.406 259.224L255.98 259.169L259.31 257.192L260.416 257.34L262.18 258.273L262.932 259.541L264.093 259.831L265.047 261.016L267.052 262.158L268.665 261.22L266.099 259.471L265.949 258.016L264.214 257.078L263.038 255.815L261.436 255.225L257.734 254.903L258.571 256.808L254.818 258.027L252.235 257.894L251.021 258.305L251.213 259.437L253.842 259.55L254.213 260.625L252.063 261.029L249.689 260.539L248.372 259.561L248.341 258.677L245.333 258.15L240.195 257.806L234.502 258.393L231.932 257.635L231.534 258.549L230.097 259.238L226.607 259.378L224.779 261.041L221.709 262.397L220.158 263.363L219.103 264.56L216.755 266.517L214.518 267.343L214.525 268.061L212.05 270.704L210.148 272.361L209.912 273.774L208.819 275.472L205.625 278.118L202.886 280.6L200.825 281.924L195.902 284.762L193.38 286.816L191.721 289.744L191.549 292.957L192.304 294.716L190.787 296.57L191.099 297.583L189.511 299.567L188.363 301.54L187.49 302.111L186.902 303.397L187.497 304.442L187.523 306.482L186.676 306.158L183.993 306.792L183.334 306.184L179.807 306.751L177.97 304.766L175.768 304.375L168.74 305.847L166.69 306.606L163.201 307.467L161.621 306.809L161.244 306.202L158.53 306.577L162.307 307.154L162.093 307.75L160.173 308.219L156.751 309.407L155.643 309.59L150.96 311.692L147.486 312.821L144.836 314.175L142.566 314.896L140.134 316.073L135.607 318.579L130.818 322.333L127.517 326.277L126.426 327.84L123.798 330.483L122.137 332.684L120.295 334.268L117.343 337.269L114.198 340.005L112.21 341.474L107.477 345.606L104.008 349.69L102.466 351.984L99.9974 350.248L98.3639 347.187L97.2142 345.546L96.3194 342.952L96.9486 341.238L97.1455 339.504L95.5516 337.141L96.2175 334.492L95.8825 333.379L94.5224 331.614L95.1544 329.711L94.5517 327.726L94.6798 324.604L94.3611 322.347L90.6387 317.511L89.8071 315.661L86.134 310.002L84.2609 307.617L83.1462 305.07L82.6132 301.075L81.4674 298.061L79.8899 295.442L76.1374 291.104L75.2187 289.643L74.8479 288.144L75.953 282.784L76.0879 280.849L75.638 276.691L74.0406 272.962L71.8771 270.612L71.0007 271.122L69.4475 269.771L68.2578 267.738L67.3403 264.613L67.5472 262.987L66.8767 262.166L65.3068 257.038L65.4372 253.781L65.3527 249.53L63.2277 244.34L62.8432 242.349L62.8599 240.556L63.6837 238.314L64.8482 236.568L68.3981 232.438L70.1981 229.338L73.0642 225.398L74.4047 222.85L75.2228 219.636L75.2681 217.451L78.4154 213.007L81.8166 209.575L82.8656 208.217L83.6141 205.632L83.0049 204.128L84.6867 201.259L86.2044 199.628L87.3199 197.927L87.7508 196.458L87.7186 194.161L87.2955 190.736L86.8695 189.791L84.9277 187.328L83.5746 183.223L81.6922 176.073L81.6469 172.889L83.5839 168.89L85.0693 164.927L88.4745 158.215L94.3283 154.36L96.5917 152.281L96.3587 148.989L95.7894 147.909L94.1605 147.422L92.6825 146.27L93.4723 142.101L91.4081 140.123L90.7811 137.546L89.3532 135.465L88.5376 130.856L89.9631 126.973L92.3176 124.542L92.5504 122.162L92.2219 119.447L92.7373 117.392L88.3463 115.248L88.2623 114.506L88.92 112.127L88.6161 110.565L85.5838 108.559L84.7092 106.537L85.4099 103.409L84.8808 102.303L82.922 100.661L81.0749 96.2826L78.248 94.9222L77.8665 93.8863L79.5372 90.5513L80.37 88.4162L79.8964 86.0494L77.9243 85.0827L75.3027 84.7111L72.861 85.002L71.774 83.534L70.2974 83.6788L70.3037 81.8682L69.6497 79.9377L67.904 78.5185L66.4776 75.7406L66.465 73.804L62.2445 71.0944L60.867 69.2439L58.9992 67.3578L57.9359 67.2376L55.5585 68.1821L52.6889 67.7241L51.6999 68.0136L48.4665 69.7297L46.3884 71.4209L45.5823 72.5186L43.9643 76.9937L43.0266 77.7472L41.6343 77.9308L39.7688 77.5016L37.5955 76.621L36.2355 76.5361L31.8728 78.3621L29.2161 78.7024L26.7106 77.8713L24.4551 79.219L22.2637 78.871L20.9547 76.9879L17.7236 75.9604L16.4105 74.2976L14.0682 72.9478L12.465 71.449L9.58106 70.2301L7.2898 68.7952L5.51024 68.3051L3.77734 66.185L4.64031 63.9571L5.25695 63.2577L7.77596 62.5144L11.7254 62.8941L14.6525 64.3195L15.5933 66.0253L17.2024 67.018L18.3865 66.9608L21.2363 66.0605L23.5663 63.981L24.8505 62.3459L27.1893 58.2558L28.496 57.0156L30.1599 55.9612L33.2691 55.1982L34.1532 55.4537L37.2217 57.5682L39.6783 57.5071L41.0608 58.0212L42.028 59.5934L42.7942 61.5101L44.0672 60.9737L44.4426 58.8429L44.0941 56.6978L45.6002 54.3384L47.2985 50.1615L48.3093 49.0854L48.3623 47.9388L47.6042 45.6589L49.1117 42.822L49.0263 40.6561L49.3253 39.6259L52.4737 39.1048L56.0793 39.4L57.7783 41.7908L59.4359 42.3679L62.091 44.0058L63.5265 46.3832L64.4057 47.3774L65.5909 47.3787L66.6937 45.4429L68.242 44.3518L70.0998 43.8326L72.7695 43.6236L73.9462 42.6011L76.705 42.5161L77.6009 41.9346L79.1655 40.0918L81.1612 39.5943L81.7435 39.0817L83.335 35.9579L84.5311 34.7613L85.2028 32.2243L85.7296 32.7554L88.2295 33.464L90.4207 33.5751L91.2709 34.3578L91.4105 35.3544L93.571 37.8595L97.3328 41.6348L99.8351 41.1228L100.74 40.2301L101.644 40.7618L102.78 38.6614L103.854 37.3842L103.485 33.1246L104.153 30.608L103.176 26.749L104.48 24.5443L104.184 22.5451L104.353 21.4283L105.527 18.742L106.56 18.1595L107.127 16.9863L105.766 12.5659L105.181 10.1121L105.188 7.31194L107.646 7.5322L109.031 7.31919L112.13 8.77565L113.67 9.13345L119.139 8.25034L121.634 8.5976L122.873 9.19882L123.802 11.2701L127.562 13.4835L129.035 13.6667L130.525 13.4125L132.328 12.2434L133.616 12.2132L135.305 13.1425L136.287 11.8538L137.026 9.31551L138.925 7.85296L141.947 4.78583L144.851 3.21935L147.852 3.33304L149.944 3.00564L152.182 2.96875L152.959 3.62324L153.966 5.91908L155.897 6.52847L156.78 7.63034L157.711 9.52218L159.075 10.243L161.3 12.8808L163.064 14.1781L164.194 16.1609L166.033 16.1347L167.427 16.5701L170.183 15.6044L171.805 16.3628L174.341 18.7787L176.282 18.5882L176.791 19.3775L179.935 21.7632L181.877 22.8515L183.671 22.9772L184.447 21.9991L185.385 22.4328L188.4 22.847L191.777 24.4296L194.599 24.5788L196.656 25.4718L198.951 25.8641L201.271 26.543L203.472 28.0271L204.642 28.2495L205.915 27.9096L206.934 28.2304L208.462 29.6555L210.304 29.7314L212.553 29.2458L213.806 28.5169L217.985 30.4486L220.088 30.2134L220.893 30.9438L221.132 32.0593L224.033 33.2755L225.637 38.3318L226.845 39.2588L227.38 40.8442L228.128 40.8876L229.367 42.1698L230.465 44.3026L232.748 45.0656L233.458 46.8105L236.008 47.105L238.265 46.1146L239.69 47.2021L239.185 49.1751L240.683 49.6743L241.71 49.1636L243.008 49.2942L243.902 48.0411L247.754 44.4541L249.576 44.028L251.086 44.5706L253.282 44.0722L254.306 44.4228L254.423 47.213L253.012 49.2802L253.798 51.3582L255.433 52.1971L255.691 53.8536L257.976 56.6631L260.34 57.4916L261.656 56.5217L264.008 57.2043L264.85 58.9143L265.905 59.5916L266.089 61.7306L267.876 61.6195L268.31 60.5783L269.919 59.604L271.392 59.9294L272.638 61.7249L273.232 64.2956L273.887 64.596L276.506 63.3635L281.252 65.7293L281.122 68.3219L280.262 69.5746L280.862 70.6552L282.524 71.6014L282.528 72.7541L285.184 74.0798L285.888 74.6842L287.829 73.861L289.079 73.8836L290.57 76.0748L291.764 76.7118L292.621 76.3716L293.908 76.9041L295.069 76.6882L295.565 78.1767L296.866 79.6905L297.198 81.2396L298.492 82.2357L299.824 82.2941L301.54 84.0597L302.598 87.9672L302.39 88.5822L303.166 90.4636L302.217 93.8486Z" fill="#1E1E1E" stroke="white" stroke-width="5"/>
</svg>
