<svg width="100" height="138" viewBox="0 0 100 138" fill="none" xmlns="http://www.w3.org/2000/svg">
<path d="M96.128 61.3587L93.6041 60.3698L90.8037 59.7365L87.4426 60.1922L85.7873 60.8572L82.8181 63.0753L79.6197 66.2659L76.4398 68.6236L75.5591 70.1264L75.1588 72.7823L74.1949 76.2297L72.9629 78.3931L69.8424 80.4668L68.3722 81.9607L67.4514 83.373L64.4742 85.1718L63.7171 86.1654L61.1372 87.3828L57.645 88.3789L56.2987 89.8388L55.8604 91.1256L58.0942 93.3092L58.521 95.9742L57.7897 98.149L58.7566 100.85L57.1224 103.384L55.013 109.42L53.4868 111.648L52.9964 113.439L53.0586 117.521L52.1622 119.86L51.0064 120.869L48.5518 125.062L47.3166 127.793L45.1473 129.428L42.4866 130.376L41.3918 131.727L39.7407 133.146L39.5613 134.73L38.0626 134.589L35.0933 133.369L31.2516 131.168L27.9008 130.529L25.787 130.355L24.191 130.601L20.7003 130.639L17.7129 132.492L15.9548 133.208L14.0888 133.249L13.762 132.751L15.0099 129.372L16.008 127.928L17.5575 126.645L18.6959 124.912L18.5442 121.382L19.0805 119.257L20.1119 117.292L20.4411 115.613L20.4227 110.97L19.5031 109.722L16.7802 109.02L15.4736 107.874L14.1138 108.586L12.4033 108.122L11.3042 106.665L8.98344 104.668L4.10874 105.423L4.53814 103.493L4.40278 101.536L3.65625 100.748L5.02766 98.0386L5.13643 96.3077L4.6613 93.4529L4.71296 92.393L5.63234 90.1898L4.68313 88.6687L4.13475 85.7071L4.21148 82.3205L5.00537 81.734L5.13585 80.718L6.05384 80.0483L8.45573 80.7147L9.80636 80.5779L11.237 79.4606L11.1367 78.5418L10.2828 77.2414L10.1276 75.2712L11.1595 73.4572L11.0594 72.4984L10.2619 71.0907L11.4565 69.8421L10.3722 68.0696L10.4697 66.6337L8.10028 66.304L7.11101 65.1243L7.17033 62.1158L7.83038 60.9549L8.20475 58.2533L8.62846 56.8779L10.3856 56.3619L11.0385 56.5916L12.9253 55.9435L14.1486 54.6571L14.0947 52.5613L15.8861 51.9044L16.1518 50.9564L15.4784 49.1966L15.846 48.0057L15.5838 45.9667L17.4881 45.287L17.7099 43.6193L16.9955 42.8817L17.1094 41.9405L18.265 41.0076L17.8407 38.2745L16.2856 37.3919L15.8276 35.5836L15.1825 35.9946L14.0221 35.5343L13.982 34.4309L16.1485 33.0637L18.2286 32.1908L18.9895 32.3236L21.7432 30.9334L23.7532 29.436L25.3836 28.5546L27.4591 25.5994L29.2372 25.6759L31.2327 25.1719L33.4508 23.6269L35.36 21.6633L37.1155 19.1226L37.137 18.1866L35.2578 15.9952L34.1505 13.9252L34.4995 12.6692L37.2347 10.5854L38.4413 8.62751L40.2782 7.54411L45.0834 3.62798L47.954 2.82031L52.3295 3.07242L52.7947 3.36739L54.8617 3.08015L55.4259 3.64161L57.1704 4.10904L56.8821 6.67088L59.4803 11.4867L61.6045 13.5447L63.5232 14.4774L64.3033 17.9491L63.886 21.9189L66.6664 22.0645L70.8519 21.2157L75.517 22.7679L76.9919 25.188L76.6871 26.0191L77.3391 28.3071L77.2297 29.4516L77.7652 31.8963L80.0543 32.3976L83.4107 32.3277L85.182 32.7898L91.5146 36.1704L92.1569 37.2398L93.1553 41.331L95.8996 45.6966L96.5461 47.1294L96.0314 51.1869L96.0291 52.9121L96.6469 56.2282L96.5437 57.9587L96.023 59.1238L96.128 61.3587Z" fill="#1E1E1E" stroke="white" stroke-width="5"/>
</svg>
