<svg width="217" height="261" viewBox="0 0 217 261" fill="none" xmlns="http://www.w3.org/2000/svg">
<path d="M148.47 12.5815L148.584 13.7092L149.987 15.4852L150.499 17.0338L150.08 19.5776L151.877 21.949L153.296 22.9035L154.378 25.9452L156.783 29.6689L158.262 33.329L159.55 38.2092L160.049 39.3748L161.678 41.1693L162.647 41.4983L163.187 43.919L162.621 47.6789L161.844 49.4519L160.022 51.5325L158.989 54.6154L158.435 56.8902L159.229 58.6275L161.418 58.831L165.96 57.7099L167.355 58.8601L169.477 59.8351L171.837 60.0613L174.935 61.6804L177.15 62.4764L178.794 64.6976L180.485 66.0452L182.877 66.7837L186.038 66.6769L186.827 66.3005L190.125 63.5762L190.958 63.2933L193.186 63.8696L197.358 65.4947L199.171 65.7648L207.122 67.7163L208.171 68.0762L210.826 69.7524L213.899 71.3117L213.965 72.2204L213.23 74.1603L213.602 75.1544L212.572 78.382L211.835 79.5237L211.031 79.88L210.844 83.1484L210.064 85.6672L208.46 89.0377L208.799 95.0684L207.557 99.6335L207.195 102.528L207.219 104.024L207.753 105.395L209.033 106.257L210.406 107.681L210.762 109.805L209.762 110.437L205.118 111.456L202.251 112.911L199.414 115.594L196.837 118.658L195.467 119.647L193.617 120.382L186.148 120.429L185.172 121.141L183.287 125.465L180.977 130.258L179.2 134.778L177.474 138.192L175.774 140.96L173.073 144.273L171.718 147.102L171.371 148.838L172.746 154.329L172.918 156.294L172.608 158.114L171.815 160.34L170.395 162.981L168.364 165.718L166.032 167.102L163.744 167.392L162.707 168.103L162.18 169.883L160.499 179.239L159.373 181.354L158.537 182.296L155.958 186.61L155.25 189.197L155.844 190.129L156.639 189.952L158.74 188.143L160.44 186.348L163.365 184.29L164.816 184.074L165.345 185.025L165.665 187.639L165.776 191.322L165.639 192.593L164.824 195.022L164.426 197.041L163.414 198.893L163.183 200.437L163.569 202.867L164.892 205.209L169.327 206.921L170.931 208.828L172.287 211.424L173.18 212.613L175.371 218.245L175.627 220.744L176.279 223.074L177.291 224.882L180.438 227.241L180.877 228.057L180.761 228.814L182.498 231.492L182.952 233.022L180.448 234.314L179.276 236.204L177.199 238.449L176.676 240.234L176.656 242.801L175.464 244.908L174.914 246.659L173.082 249.575L171.65 250.199L168.385 248.755L166 248.621L163.872 249.048L161.794 250.479L159.434 253.913L155.172 257.292L154.031 256.197L152.083 253.29L150.84 248.901L149.766 246.38L148.482 244.456L145.568 241.776L143.54 240.917L140.235 240.835L137.022 241.527L134.379 239.323L132.636 238.63L128.848 238.46L127.453 238.798L123.632 240.589L123.353 238.821L124.02 236.54L123.565 233.918L124.885 233.423L122.425 232.412L121.573 231.74L118.761 228.027L117.943 227.55L113.264 226.736L110.893 227.077L108.984 225.982L106.78 223.287L105.535 222.067L103.793 221.092L102.351 220.986L99.1288 222.027L96.8739 220.796L92.5422 220.065L89.6961 220.094L88.4228 219.313L87.7162 217.374L86.5583 216.991L84.516 217.412L81.1929 219.42L79.8057 220.001L77.5571 220.275L74.8185 219.974L73.6961 219.184L72.329 216.994L70.6937 215.678L68.084 214.187L66.1086 213.623L64.9801 212.879L63.5145 211.204L62.0521 211.135L61.7547 210.034L61.9049 208.019L62.8313 205.397L62.48 203.978L61.3881 201.456L59.7097 198.53L59.1364 196.498L59.275 193.376L58.3894 192.172L55.8298 191.547L54.5571 190.361L52.8347 186.999L47.8032 183.656L46.3702 183.08L43.9253 183.023L42.1271 181.311L41.6144 179.346L40.608 177.404L39.4667 176.695L35.4257 172.138L35.4311 170.919L36.3812 167.919L35.1014 165.474L33.8178 163.905L30.0085 162.51L29.4104 161.972L28.4865 158.919L28.865 155.536L29.4499 153.911L29.094 150.52L28.5486 149.452L28.6833 148.11L30.7925 145.722L31.2581 144.444L31.3164 142.585L30.8711 139.205L31.6798 136.374L32.2445 135.622L33.4901 131.831L30.6438 127.803L28.9483 125.06L27.8544 122.093L26.9935 121.169L24.2824 120.85L22.7628 120.266L19.0592 116.681L17.3679 114.049L15.2522 112.14L12.2719 111.528L9.53667 111.477L8.62878 111.156L4.16408 110.64L3.40234 110.032L3.56486 108.726L3.74433 107.143L5.39538 105.724L6.49017 104.372L9.15092 103.424L11.3202 101.789L12.5554 99.0582L15.01 94.8649L16.1659 93.8556L17.0622 91.517L17 87.4352L17.4904 85.6439L19.0166 83.4156L21.126 77.3797L22.7602 74.8457L21.7934 72.1451L22.5246 69.9703L22.0978 67.3053L19.864 65.1217L20.3023 63.835L21.6486 62.375L25.1409 61.379L27.7207 60.1616L28.4778 59.1679L31.455 57.3691L32.3758 55.9568L33.846 54.4629L36.9665 52.3892L38.1985 50.2258L39.1624 46.7784L39.5627 44.1226L40.4435 42.6197L43.6233 40.262L46.8217 37.0714L49.7909 34.8533L51.4462 34.1883L54.8073 33.7327L57.6077 34.3659L60.1316 35.3548L60.0906 38.1025L61.5615 43.7707L61.6013 46.6995L62.666 50.3345L62.9182 52.6547L63.5466 55.5472L65.37 57.7743L67.079 57.881L69.0253 55.6906L71.0917 54.642L77.298 53.5511L81.5419 51.7757L83.6811 50.1596L86.5824 48.8412L87.4492 49.497L87.45 50.6014L89.3065 52.628L94.2289 52.9878L96.1537 51.6717L97.2688 50.0648L98.2698 47.9883L99.795 45.8716L100.965 45.9057L103.068 48.4887L105.568 48.0559L108.118 45.4134L111.372 44.6583L113.501 42.0396L114.617 41.649L117.473 41.6526L119.085 40.6534L118.778 39.939L117.442 39.6162L115.324 37.4963L113.911 35.3041L113.9 33.9739L113.241 32.7465L111.872 31.4202L110.639 28.0798L110.463 26.0065L111.016 23.857L111.009 21.0962L112.717 22.0259L115.378 22.7261L116.448 22.634L117.983 21.7194L121.705 20.852L122.663 20.0529L123.545 18.5604L125.604 13.1228L127.189 10.1215L127.72 8.49651L127.683 6.34273L127.998 5.56641L129.537 7.8395L130.085 9.34415L133.997 13.7466L134.511 16.1275L135.16 16.3569L136.718 15.2364L140.091 12.2606L141.151 11.6316L142.927 11.7228L144.722 12.4974L146.786 12.8516L148.47 12.5815Z" fill="#1E1E1E" stroke="white" stroke-width="5"/>
</svg>
