<svg width="445" height="490" viewBox="0 0 445 490" fill="none" xmlns="http://www.w3.org/2000/svg">
<path d="M190.182 94.4198L189.988 95.1469L188.182 98.7566L185.434 102.03L184.459 103.452L184.115 105.002L185.237 107.296L187.176 108.227L186.762 111.298L186.95 114.019L186.434 114.941L184.612 116.102L184.555 116.761L186.005 117.165L187.757 118.5L189.273 118.558L189.753 119.211L188.749 121.466L188.56 122.748L189.174 124.7L188.81 126.643L189.571 128.762L189.842 132.229L189.828 134.601L190.159 136.263L190.079 138.877L189.326 140.532L188.48 141.17L187.484 141.115L186.552 142.158L186.267 144.309L184.806 147.266L185.179 147.952L186.398 148.212L189.994 147.643L191.536 146.386L194.142 146.011L195.891 146.548L198.902 148.03L204.686 148.767L205.768 149.33L208.775 152.331L210.812 153.108L213.433 151.746L217.447 153.344L222.444 153.882L225.876 153.243L228.376 151.896L229.523 151.926L232.178 152.694L235.348 151.874L237.527 152.398L238.883 152.031L240.562 148.511L242.067 147.32L245.156 148.071L247.499 146.312L250.216 144.579L251.963 144.484L254.203 144.773L257.965 145.852L262.924 144.706L266.127 144.195L268.527 142.265L269.764 142.701L271.929 145.553L272.808 146.041L275.076 145.149L276.579 145.072L278.248 145.723L279.446 146.824L279.548 148.826L279.222 150.404L277.78 154.283L278.451 156.027L279.442 157.157L281.471 158.701L284.089 161.879L286.243 163.853L289.326 165.657L292.027 165.767L298.259 168.238L301.214 168.757L302.059 168.159L303.349 166.495L305.574 165.179L307.046 164.869L308.323 165.118L309.172 167.008L309.896 172.123L311.785 176.343L314.339 177.681L319.301 177.564L322.78 176.549L327.538 176.527L332.809 177.317L337.007 176.657L340.726 175.658L343.129 175.6L344.544 176.002L352.242 176.877L355.93 176.881L359.071 176.697L361.124 177.435L362.402 177.172L362.987 175.543L365.594 173.28L367.559 173.756L369.343 176.137L368.796 178.179L369.724 179.889L371.861 182.106L372.558 183.391L373.034 186.781L373.994 188.735L375.405 190.191L379.355 192.757L381.365 193.49L382.839 193.664L386.433 192.667L387.971 192.48L391.868 193.153L395.55 195.67L398.143 196.635L402.455 196.847L404.123 195.969L406.778 195.136L408.101 193.201L413.103 194.147L414.403 193.737L416.96 192.248L418.961 190.611L420.114 188.809L424.051 185.792L426.624 184.3L428.674 183.553L430.617 181.589L430.865 180.201L430.723 177.884L431.207 176.177L433.061 175.103L435.105 174.479L437.379 174.237L440.844 174.221L439.723 176.434L438.643 180.134L438.965 182.24L438.028 185.518L437.738 187.407L436.858 189.056L436.907 190.292L436.019 192.15L436.287 192.982L434.5 194.141L432.577 195.908L431.737 195.906L429.844 196.983L428.888 199.518L428.368 200.059L428.778 201.324L429.48 201.557L428.984 203.299L429.723 205.657L428.632 209.959L427.126 212.669L426.483 212.956L424.065 212.042L423.353 210.542L421.166 210.67L421.406 209.437L420.485 209.222L420.501 207.882L419.168 208.676L418.116 207.569L414.985 207.608L413.57 208.016L412.234 209.013L411.144 210.557L409.402 211.544L408.134 213.554L407.482 215.344L407.204 217.47L402.917 216.76L403.675 214.376L402.365 212.709L400.567 212.69L400.051 213.889L398.69 215.565L398.498 216.54L400.001 218.391L401.079 218.753L401.717 220.654L402.529 221.549L401.831 223.002L400.295 223.358L398.373 225.212L396.383 225.179L393.998 223.965L393.82 225.896L391.976 228.457L390.84 228.928L389.672 227.3L388.543 227.522L386.693 227.182L384.601 228.134L382.644 228.353L380.352 227.359L379.057 228.534L378.483 227.122L377.58 226.936L376.353 227.538L375.618 226.016L374.821 225.517L372.352 226.209L370.026 226.512L368.302 226.208L364.425 224.039L361.654 224.046L359.938 224.967L358.57 227.13L356.496 228.679L354.639 232.46L352.746 234.311L352.299 236.265L352.326 242.07L353.592 242.755L353.09 243.589L353.887 244.534L352.453 245.597L351.479 245.604L349.45 247.556L348.655 247.389L347.741 248.196L346.831 248.12L345.109 247.018L344.173 247.276L343.508 248.696L341.798 249.468L339.987 249.666L339.381 249.291L336.17 249.125L335.008 249.947L333.837 252.372L333.141 253L331.572 253.044L330.592 253.761L329.498 253.578L327.273 255.434L326.146 255.555L323.443 253.417L321.113 253.315L319.036 255.18L316.143 256.803L314.465 258.059L313.968 259.319L312.364 260.188L309.483 260.031L306.582 258.117L301.551 257.756L299.738 256.838L298.286 257.044L297.078 256.386L295.626 255.053L293.938 252.342L290.575 248.525L288.665 248.589L285.959 249.971L285.221 251L283.027 255.189L278.917 253.184L275.663 252.49L272.087 252.26L271.356 252.872L270.428 252.511L269.034 250.546L266.543 248.608L264.668 245.581L263.122 244.451L262.606 242.839L261.372 240.537L260.064 238.74L258.9 237.985L256.782 237.662L256.025 237.985L254.231 237.907L252.88 236.728L251.158 236.489L248.815 237.168L248.033 235.973L248.122 234.916L246.876 233.599L245.824 233.326L244.262 233.765L241.625 233.84L239.783 234.415L237.297 236.228L235.582 238.856L231.588 241.245L230.185 243.05L229.367 244.731L227.143 245.819L224.823 247.722L222.781 248.438L220.919 249.632L218.908 249.662L216.327 250.144L214.978 250.858L214.445 250.211L213.387 251.127L211.399 251.234L211.295 254.059L210.635 254.831L210.643 255.881L215.278 256.095L215.247 257.152L216.258 257.722L215.966 258.679L213.687 261.08L211.686 262.314L210.427 263.808L208.598 264.836L207.47 266.016L205.763 267.223L204.79 267.377L202.734 266.154L201.521 266.469L202.294 268.244L205.124 269.185L206.768 269.155L209.04 268.395L210.48 266.975L211.91 266.416L213.567 263.917L214.29 264.489L215.539 264.349L216.258 262.913L217.978 262.152L219.366 262.299L220.387 260.623L221.332 262.239L223.624 262.648L226.609 262.092L227.345 262.38L226.872 264.133L225.664 263.952L223.941 264.901L221.565 265.053L220.164 266.424L220.196 267.611L219.056 270.058L219.25 271.509L217.124 271.36L216.079 273.711L216.067 274.945L216.596 276.19L214.742 277.421L213.586 277.346L213.587 280.387L214.422 282.251L214.498 283.303L215.8 283.33L216.964 282.344L218.025 283.409L219.03 283.141L219.007 281.419L222.129 281.068L222.007 279.076L223.787 279.07L225.231 281.445L224.858 282.172L223.469 282.363L224.12 284.771L224.861 286.327L225.483 289.167L226.218 289.364L227.724 287.873L230.198 288.002L231.466 288.529L232.562 286.569L233.616 284L234.803 279.88L233.283 277.758L234.169 277.415L235.829 278.614L237.167 277.094L236.609 280.596L237.039 281.654L235.775 282.795L236.163 285.842L236.93 287.75L237.203 289.28L238.71 290.896L239.721 291.164L241.811 290.745L242.493 289.922L245.791 287.083L246.236 286.204L248.441 283.26L251.542 280.792L253.171 280.918L254.971 283.915L257.466 284.813L259.423 284.575L261.211 283.875L262.957 282.493L264.154 283.253L266.368 283.792L269.887 281.328L270.81 278.899L272.394 278.987L274.521 279.748L276.303 279.021L278.068 278.677L279.728 277.151L280.994 275.058L283.343 272.176L284.498 271.221L284.488 273.788L285.227 278.243L286.896 280.772L288.032 283.073L289.939 285.861L292.616 288.452L294.767 289.477L296.929 289.366L298.606 291.263L299.966 292.073L301.807 295.003L303.5 295.923L305.608 298.621L307.211 300.97L309.358 305.247L309.528 306.684L311.087 309.369L313.581 313.194L314.71 314.429L317.116 316.333L316.132 315.972L314.414 317.996L311.088 322.978L309.133 324.548L307.901 326.591L308.303 328.525L312.377 332.964L314.254 336.2L313.472 339.419L312.42 341.076L311.078 342.562L309.685 345.111L310.44 347.267L310.601 351.94L310.527 358.311L310.769 360.614L311.524 362.292L312.984 363.571L316.287 364.675L319.043 365.029L324.956 366.697L326.446 367.581L329.739 371.96L330.863 376.873L330.74 379.035L329.644 380.329L326.26 382.066L323.277 382.71L319.046 381.778L315.509 380.213L312.454 380.833L311.125 380.013L309.407 378.289L308.545 377.909L303.32 377.896L299.741 375.66L297.863 375.132L294.094 371.013L293.493 373.017L293.438 375.53L293.573 381.154L296.648 388.927L296.949 392.629L296.63 394.822L295.826 397.418L296.172 400.334L297.909 403.415L300.121 406.588L301.105 407.624L302.784 408.688L304.298 410.392L305.029 412.133L305.529 414.432L305.765 416.999L305.712 419.89L305.186 427.125L305.315 429.665L306.077 431.033L307.458 432.087L309.508 432.479L312.299 434.192L313.464 435.128L316.699 436.941L318.519 438.478L318.794 440.077L317.279 443.125L315.094 447.949L314.667 449.357L313.449 450.561L311.298 449.747L310.194 448.6L307.481 449.233L306.353 449.976L305.19 451.506L305.152 454.485L303.819 457.617L301.852 458.707L298.813 458.77L296.912 459.169L295.482 461.876L294.537 465.309L293.957 466.128L292.656 466.572L289.113 466.844L287.348 467.233L283.183 468.973L280.903 470.082L278.038 472.493L274.43 475.299L271.952 476.752L268.949 477.781L265.8 479.671L262.943 482.037L261.056 484.249L259.092 486.078L256.294 487.051L254.732 486.862L253.521 485.759L251.788 483.556L250.571 481.383L248.176 479.462L245.939 476.936L244.001 475.123L241.844 472.787L236.913 466.119L231.152 459.639L228.05 456.76L224.091 453.212L223.067 450.561L223.086 446.294L224.19 441.183L223.623 439.224L222.583 437.077L221.705 433.296L221.738 431.15L222.199 427.004L222.31 423.755L222.085 418.25L221.428 415.453L219.027 412.201L214.331 407.63L213.144 405.72L213.033 403.393L214.209 400.564L214.502 397.758L211.781 392.428L209.005 387.88L206.924 387.356L205.006 387.653L204.131 388.368L203.242 390.123L202.766 391.973L202.369 395.231L201.59 396.245L199.599 395.416L197.333 394.879L196.076 395.022L194.672 396.096L192.486 397.208L190.33 397.029L189.159 396.271L187.238 393.93L185.057 391.898L185.615 388.993L185.561 385.964L185.702 382.407L186.199 377.334L185.474 377.015L181.385 377.527L179.314 377.213L175.711 374.613L172.944 373.192L169.574 370.205L167.692 367.968L166.996 367.525L163.162 367.065L161.935 366.056L159.404 362.337L158.459 358.969L156.083 354.752L153.527 352.726L152.46 351.368L151.863 348.228L151.167 346.947L149.371 346.572L146.539 347.626L144.472 346.533L142.756 345.954L141.677 346.239L139.61 349.192L138.776 349.993L136.667 350.83L135.03 351.148L132.833 350.913L131.463 350.03L129.368 347.219L127.722 346.289L125.563 347.021L120.27 350.248L117.709 352.206L113.428 353.518L106.988 353.881L102.599 355.282L98.3318 356.186L94.5069 355.783L93.1604 354.695L91.7178 351.735L90.1466 344.697L88.8986 341.165L88.7827 339.776L90.6818 335.937L92.0995 331.919L93.1541 329.779L95.4339 328.574L95.69 327.96L92.4378 320.012L93.1962 317.711L94.5485 315.431L95.7565 314.186L97.7527 312.821L98.3683 311.571L97.2687 310.164L94.8413 308.556L92.756 305.919L91.1535 301.403L89.9659 300.301L88.0966 299.782L85.7131 300.528L83.7262 300.775L82.8149 301.239L79.9245 304.908L78.8919 305.629L77.2232 305.261L76.1757 304.614L75.2077 304.699L73.8399 306.004L72.6282 308.019L71.1775 311.67L70.7724 313.821L70.2568 314.967L69.078 315.516L67.1642 314.529L65.6032 314.86L65.3591 319.595L64.5436 320.987L61.6143 321.394L60.6088 321.805L58.6129 323.624L56.9376 324.564L54.6791 325.087L51.9409 326.721L50.5866 327.909L48.6659 330.955L47.2093 331.267L43.6829 330.262L39.634 331.101L36.9384 330.589L35.8755 331.063L35.4374 330.248L32.2896 327.888L31.2782 326.08L30.6264 323.75L30.3703 321.252L28.1791 315.62L27.286 314.43L25.9299 311.834L24.3261 309.927L19.8911 308.216L18.5683 305.874L18.1817 303.444L18.4127 301.9L19.4251 300.048L19.8227 298.028L20.6382 295.599L20.7754 294.329L20.664 290.646L20.3443 288.031L19.8152 287.081L18.3638 287.297L15.4394 289.354L13.7384 291.149L11.6379 292.958L10.8427 293.135L10.2494 292.203L10.9571 289.616L13.5356 285.302L14.3723 284.361L15.498 282.246L17.1787 272.889L17.7055 271.11L18.7434 270.399L21.0314 270.108L23.3627 268.724L25.3937 265.987L26.8135 263.346L27.6074 261.121L27.9174 259.3L27.7454 257.335L26.3698 251.844L26.7166 250.109L28.0719 247.28L30.7725 243.966L32.4733 241.199L34.1993 237.785L35.9761 233.265L38.2863 228.471L40.1712 224.147L41.1469 223.435L48.6158 223.388L50.4657 222.653L51.8358 221.664L54.4132 218.601L57.2495 215.918L60.1169 214.462L64.7605 213.444L65.761 212.812L65.4049 210.687L64.0315 209.263L62.7521 208.401L62.2176 207.03L62.1941 205.534L62.5562 202.64L63.7977 198.075L63.4588 192.044L65.0634 188.674L65.8424 186.155L66.0304 182.886L66.8338 182.53L67.5705 181.388L68.6014 178.161L68.229 177.167L68.9643 175.227L68.8981 174.318L65.8247 172.759L63.1704 171.083L62.1213 170.723L54.1695 168.771L52.357 168.501L48.185 166.876L45.9571 166.3L45.1237 166.583L41.826 169.307L41.0373 169.683L37.8757 169.79L35.4837 169.052L33.7929 167.704L32.1494 165.483L29.9336 164.687L26.8355 163.068L24.4757 162.841L22.3544 161.866L20.9591 160.716L16.4173 161.837L14.2281 161.634L13.4344 159.896L13.9881 157.622L15.0208 154.539L16.8429 152.458L17.6198 150.685L18.1863 146.925L17.6457 144.505L16.6766 144.176L15.0482 142.381L14.5485 141.216L13.2607 136.335L11.7816 132.675L9.37706 128.952L8.29539 125.91L6.87546 124.955L5.07906 122.584L5.49778 120.04L4.98585 118.492L3.58286 116.716L3.46875 115.588L4.56644 113.923L4.94104 112.058L7.15034 110.896L10.1455 106.764L12.0984 105.37L15.0887 104.032L18.1804 101.98L20.4743 100.155L24.8991 97.3175L24.9393 96.6472L23.6062 94.1881L21.386 91.2125L20.4179 89.1238L19.5816 85.4589L17.6834 82.1707L16.8029 79.9371L17.0814 78.7153L18.4904 74.9295L19.36 73.9874L20.6098 73.8729L24.1746 74.7607L25.0837 74.21L25.8081 72.2523L27.4608 70.1927L30.8321 68.1897L32.1246 67.6254L33.9777 65.6821L34.3066 64.3937L33.5798 61.2555L34.6411 58.0037L37.0087 55.0259L40.6262 52.0973L42.9085 49.8368L44.3999 49.6551L45.0731 48.8919L45.1984 47.4817L46.0813 46.0792L47.8308 44.7653L49.5806 39.4057L51.0465 38.146L53.7179 34.0644L54.0475 32.7961L54.1964 30.1923L55.1378 28.1738L58.1861 25.0005L60.6542 23.152L62.2264 21.0724L63.9903 19.3411L64.6858 19.0413L64.9883 16.2858L65.3562 15.3173L67.3116 14.0314L68.0461 12.9243L68.5299 11.055L69.0888 5.87679L69.0884 4.5007L71.6679 4.48177L73.1778 3.44531L74.3668 3.78843L75.5851 4.9436L75.7613 5.92736L76.7769 7.87021L79.9909 12.2573L80.6656 13.8809L81.2512 16.2815L81.509 18.7945L82.696 19.6527L83.8014 21.1021L84.1225 22.1372L84.5417 26.627L85.785 26.9779L88.5278 26.894L94.0358 27.968L96.2126 27.738L99.7096 28.1383L101.51 28.7511L103.699 29.8716L106.837 30.5683L108.823 30.5627L111.067 30.8643L113.513 30.7274L117.153 31.1437L120.246 31.3271L121.672 31.8932L125.959 32.5873L128.307 33.5918L129.746 33.6486L131.196 32.7955L133.654 31.8269L135.482 32.2917L137.285 34.7458L138.812 36.2061L141.462 37.8125L142.096 38.4421L142.617 40.0208L142.504 41.1615L141.588 43.6671L141.217 45.4103L141.701 46.6721L142.874 48.3135L143.346 49.9932L144.449 51.4329L146.047 52.7463L148.219 53.5775L151.442 55.0914L155.066 55.6714L157.325 56.6618L159.153 58.2235L160.19 60.1111L162.599 66.6298L163.492 67.9906L164.244 72.0406L164.133 74.5145L162.947 79.5794L160.552 83.4895L161.52 87.364L163.577 89.6142L165.676 90.9399L166.969 91.215L169.411 91.2102L172.97 88.1591L176.072 87.3935L177.292 85.8248L179.204 87.429L180.024 88.9943L182.511 91.1383L184.38 94.2054L185.845 94.2608L186.635 93.7496L188.08 94.0602L189.417 93.4026L190.182 94.4198Z" fill="#1E1E1E" stroke="white" stroke-width="5"/>
</svg>
