<svg width="268" height="308" viewBox="0 0 268 308" fill="none" xmlns="http://www.w3.org/2000/svg">
<path d="M225.505 144.279L224.086 145.534L223.037 145.749L219.719 147.381L215.165 148.791L212.184 150.037L211.536 150.645L209.38 155.701L207.425 156.603L204.386 156.764L202.692 157.189L202.433 157.775L203.283 159.519L206.343 161.806L208.898 164.341L210.099 167.781L210.891 171.118L214.821 174.062L215.207 174.872L217.329 176.336L218.274 178.326L218.296 181.194L217.85 186.753L218.221 189.335L219.912 190.384L222.184 194.958L222.827 198.026L224.16 200.792L225.704 202.748L227.77 206.351L229.385 206.923L232.359 206.737L239.168 204.993L242.038 203.787L245.937 201.741L249.005 199.716L250.205 199.399L253.053 200.901L255.143 200.943L259.027 201.893L261.146 202.985L264.426 206.904L264.786 207.991L264.406 210.386L263.716 212.697L262.76 214.782L262.844 216.063L261.812 220.462L262.334 223.572L262.131 228.08L264.014 231.274L263.839 232.066L261.292 234.244L259.996 236.085L259.528 237.594L257.352 241.991L256.806 243.785L254.176 245.854L252.633 246.572L251.023 246.659L247.916 245.438L244.87 242.739L243.559 240.589L242.208 241.272L240.08 240.613L239.461 243.186L235.883 246.171L234.842 246.018L234.221 243.842L232.997 243.474L230.537 243.679L228.997 242.842L227.598 241.387L226.589 241.089L224.459 241.144L223.911 239.961L223.98 238.697L225.382 236.419L224.343 234.449L221.916 234.402L220.489 232.96L219.846 233.443L219.283 234.958L218.396 234.616L217.757 232.735L215.804 233.199L214.533 232.153L213.093 230.257L211.615 229.818L209.585 226.598L207.184 227.346L205.807 226.118L204.234 226.795L202.549 225.3L200.933 226.133L200.781 227.843L197.762 226.631L196.207 224.794L194.101 225.061L191.979 224.419L189.903 225.089L188.255 224.745L186.723 226.686L185.575 227.395L183.146 227.173L182.249 227.539L181.649 228.544L179.64 227.822L178.363 226.828L177.114 227.644L176.125 227.644L174.371 225.912L171.711 227.155L170.109 227.091L168.846 227.787L167.504 226.69L166.649 227.123L165.813 228.634L164.581 229.416L161.727 229.433L160.997 227.399L159.544 225.26L156.981 224.346L155.808 223.684L154.496 223.605L154.275 225.24L152.721 226.213L151.586 226.405L151.999 224.955L150.965 225.043L150.733 226.038L149.39 225.239L149.058 227.021L147.799 226.362L145.904 226.85L146.927 227.746L146.393 228.812L144.904 229.323L141.587 229.332L138.476 230.822L136.08 230.23L134.332 231.239L130.044 231.619L125.682 230.238L124.554 230.436L123.985 233.809L123.538 238.124L124.206 240.11L121.841 248.605L121.125 250.015L118.792 253.214L116.635 254.986L115.391 256.833L112.617 260.329L109.798 261.544L108.251 262.475L106.214 264.535L104.055 268.332L103.144 269.412L101.707 269.782L99.4985 269.889L98.2291 270.659L95.2572 269.787L92.9948 271.552L93.137 272.743L92.8178 274.631L92.029 276.576L91.2567 279.762L90.2013 282.364L88.7532 284.09L86.2533 286.377L83.0141 288.53L77.0322 290.811L76.1552 292.011L75.3333 294.001L74.3541 295.367L73.3768 295.838L71.4136 296.115L69.3384 294.379L67.7519 294.392L66.4389 295.331L64.0291 298.133L61.7372 297.881L59.8235 296.457L58.6501 296.584L56.8681 297.601L55.1688 297.948L52.0934 297.932L46.5843 296.765L44.577 297.324L41.6692 298.756L40.1366 300.282L36.2597 302.451L35.292 303.561L34.6325 302.25L35.081 300.434L34.9732 298.425L35.1821 295.674L33.4596 291.575L30.9724 287.02L31.5091 286.693L33.1772 286.935L34.4691 287.509L37.8872 288.303L40.7083 287.764L45.4332 286.48L48.6269 284.769L53.7356 283.349L55.814 283.122L56.5135 280.848L54.9942 278.231L56.4064 276.415L56.269 274.702L55.2998 273.846L53.7575 273.655L50.539 274.02L49.4408 274.41L48.7737 273.921L49.5312 270.671L51.2923 268.709L52.3593 266.592L53.3635 265.681L56.326 261.98L56.5255 260.568L57.6035 258.263L56.939 254.75L56.8778 252.753L56.1815 248.617L56.1123 246.163L54.8317 243.394L53.7426 242.514L52.8766 238.611L51.1772 235.998L50.7648 233.92L49.869 231.371L49.6381 228.128L49.2153 227.172L46.9383 226.091L46.5055 225.232L44.3864 223.651L43.5679 221.66L42.1435 220.144L42.3841 218.742L41.311 218.01L39.9457 218.683L38.5393 219.983L36.7598 222.291L35.5096 223.328L34.6033 224.678L33.8082 224.8L32.5464 222.391L32.4017 220.941L34.2938 216.467L34.079 215.629L32.141 217.033L29.1223 219.642L28.3459 220.873L26.8598 221.505L24.8211 218.635L22.7304 216.762L20.1408 215.58L14.8407 214.223L13.4487 213.988L11.6883 213.026L10.7702 212.006L9.46705 209.629L8.8666 207.089L7.99807 205.301L6.26099 202.732L4.96875 201.63L7.76219 200.64L11.9577 200.634L15.4922 200.398L17.1975 199.806L18.4323 198.934L20.3895 198.667L22.9666 197.558L24.3866 197.449L25.6089 196.636L26.8449 197.369L29.2575 197.005L30.3253 196.178L31.5442 194.178L35.9764 190.61L38.1064 189.248L39.5416 187.36L39.6802 185.427L40.6935 184.753L42.2734 184.713L44.8171 185.243L47.0943 185.079L48.5853 183.824L52.6482 184.469L55.7877 183.995L58.283 183.038L60.3184 181.065L61.4616 181.045L63.4484 179.989L65.316 180.983L67.0569 181.304L66.4552 176.936L66.8372 175.22L67.7269 172.879L67.1867 168.162L66.6519 166.612L66.8414 164.772L65.8365 162.121L66.47 160.21L68.144 157.484L69.8182 152.124L73.5809 148.52L74.6715 145.185L73.9475 144.133L71.948 142.798L71.051 141.768L68.2524 140.162L67.6549 139.097L66.2373 137.683L65.8995 134.982L65.965 132.499L66.6265 130.115L66.7342 128.607L68.1727 124.863L67.2512 122.298L68.951 120.818L70.9921 120.571L73.6209 118.181L75.5868 117.436L78.3617 117.044L79.731 116.492L81.5446 115.104L83.0177 111.694L84.3121 109.873L84.0471 108.856L84.5346 107.619L87.4836 105.388L88.1772 104.201L89.5989 100.053L89.0258 97.3681L88.1301 95.4764L87.778 91.3966L87.9588 90.2516L88.9098 88.3745L88.4528 87.193L87.9931 83.9523L88.205 82.0397L87.7372 80.7613L84.5735 78.8049L83.013 76.9866L81.6125 73.3376L81.6482 71.3027L82.578 67.6387L83.3182 65.9066L84.4739 62.1371L85.5768 60.8721L87.1513 59.6554L88.4793 57.8787L91.3854 55.5662L92.21 54.5004L93.4125 50.7665L93.6733 47.7996L94.0221 46.5654L96.4415 44.1167L98.2867 44.3692L98.9122 43.6082L100.547 42.7188L101.978 43.2812L104.633 42.1199L105.2 40.5776L107.088 39.0813L108.277 38.4801L108.666 36.6698L106.178 32.9167L105.734 31.6374L107.667 26.7674L107.948 25.696L110.296 23.4337L111.49 22.7581L113.56 20.7349L115.173 20.241L117.944 21.8081L118.938 22.9734L122.001 25.3105L125.31 25.7171L127.629 25.6218L131.138 27.2458L132.141 27.3927L135.086 28.5996L137.007 27.0406L138.287 26.3425L140.752 26.4087L143.913 25.964L147.743 25.1923L148.531 24.6838L148.648 20.1005L149.444 15.8592L149.314 13.6644L149.604 11.9866L152.556 8.88139L153.204 6.71899L154.489 4.43105L156.092 3.1072L158.015 3.03906L159.569 3.93077L160.704 7.44587L161.527 14.1553L161.897 19.6623L162.765 24.9888L162.516 28.321L162.658 30.1293L163.402 31.7334L167.149 35.1966L171.306 40.3191L171.884 41.4972L174.002 43.0819L176.898 46.2813L178.806 48.0424L182.002 50.3707L184.255 52.2372L185.471 55.5586L186.131 58.0183L189.296 62.6822L192.683 65.7626L193.336 67.665L193.636 74.0443L194.058 76.398L195.053 77.4677L198.399 79.5604L201.961 81.403L202.715 82.5497L202.888 85.2924L203.466 86.4711L204.88 92.3318L205.978 94.3536L206.638 96.9338L207.912 99.2298L210.622 101.603L213.781 103.077L214.681 103.698L218.89 109.127L219.55 110.443L219.708 113.258L219.129 114.21L216.163 115.812L214.111 119.077L215.254 120.46L216.7 120.551L219.124 120.108L221.449 120.27L222.054 120.735L222.614 122.278L222.928 125.785L222.893 128.083L222.545 131.402L222.663 134.261L222.97 135.766L223.892 137.12L224.513 138.772L225.167 141.607L225.505 144.279Z" fill="#1E1E1E" stroke="white" stroke-width="5"/>
</svg>
