<svg width="182" height="199" viewBox="0 0 182 199" fill="none" xmlns="http://www.w3.org/2000/svg">
<path d="M55.9305 4.73047L57.22 8.58626L58.99 9.64014L56.7764 12.5426L58.1871 12.3241L59.2048 14.9619L59.9035 15.2591L62.3812 18.1088L65.2867 20.2438L67.0469 20.1113L71.8258 24.9194L73.07 30.0558L74.4474 31.6467L74.8151 33.2594L72.8281 37.2948L72.4861 38.5075L72.7961 39.9704L73.7274 41.5501L74.5334 44.59L76.705 47.3592L77.8456 50.0936L77.489 51.7614L76.6773 52.9322L75.4894 53.8521L74.7741 55.2029L75.3246 55.9399L79.5308 57.9303L80.8743 59.84L80.6322 63.6151L81.9182 65.1635L81.3583 67.6131L80.8278 68.7281L81.9314 69.2906L83.4126 68.8676L84.4231 69.3352L89.6238 73.0076L91.7372 74.0574L94.6679 76.494L96.7405 77.9602L97.8145 78.2459L101.036 76.7204L103.744 76.6275L105.286 76.9298L108.658 78.7983L111.954 81.1985L114.342 81.703L115.427 80.0895L116.47 76.0315L118.713 74.487L119.481 72.8265L122.539 68.9278L123.958 69.0545L126.784 69.8547L129.084 69.9307L132.116 69.2087L134.982 67.8514L138.136 64.6116L139.638 63.9152L143.529 63.4503L146.608 62.4532L148.525 63.9352L151.454 65.1658L155.802 66.4556L157.114 67.7709L157.627 69.0165L159.032 70.7952L159.704 71.0348L161.411 70.1097L163.503 69.5476L165.97 69.6148L169.878 71.5145L171.06 74.0041L171.302 75.3012L173.649 77.8268L174.119 79.0453L176.572 81.605L178.166 82.3346L176.135 85.4292L173.075 84.1746L170.602 84.1358L169.186 83.341L167.88 83.115L165.094 83.5065L162.963 84.25L161.928 85.1715L161.341 88.0129L161.519 90.1357L162.463 91.5568L162.837 93.6821L162.478 96.2047L160.986 101.001L161.129 101.675L159.309 104.389L157.199 106.823L156.94 107.523L154.4 109.169L155.449 110.069L155.13 115.437L150.37 116.345L147.173 114.457L145.559 114.023L144.629 117.064L144.803 121.233L145.286 123.606L145.087 127.471L143.371 129.87L144.329 132.498L144.515 133.722L144.544 137.494L144.882 140.295L146.038 143.523L147.627 146.154L148.515 149.079L147.226 150.357L146.886 151.543L145.969 152.507L144.417 154.924L143.554 156.782L143.889 160.959L143.273 162.189L146.606 162.119L149.851 163.323L153.464 167.287L153.635 168.724L153.245 169.905L153.393 173.765L156.171 176.64L157.906 177.845L158.016 180.113L157.44 183.037L156.535 184.487L155.13 184.567L152.518 185.958L150.152 186.472L148.29 186.164L146.879 184.892L143.499 183.802L142.486 183.112L142.609 181.16L142.083 179.738L140.907 178.791L135.715 176.121L134.177 174.811L131.967 172.151L130.646 171.715L128.46 171.976L126.348 172.912L125.302 173.989L123.208 175.071L122.322 174.89L120.547 173.161L118.176 171.889L115.59 171.385L114.181 171.427L112.358 172.544L111.932 175.281L111.705 178.237L111.061 180.849L110.316 182.232L109.191 182.931L106.863 183.132L104.025 184.012L103.066 186.28L102.784 189.035L101.861 190.235L99.8532 191.046L95.3047 192.022L93.87 192.609L93.0797 194.222L91.5045 194.045L88.6134 194.908L84.6775 195.35L81.9512 194.695L79.6918 194.758L77.3899 195.728L75.6682 195.433L73.958 193.747L72.2468 192.473L70.5178 190.007L68.3823 188.529L67.5842 187.186L64.4556 185.632L63.8468 184.883L63.1058 181.189L62.2649 180.542L60.442 178.219L59.9093 178.592L58.6422 177.444L58.359 175.499L57.3209 174.561L56.1538 174.471L55.5726 173.767L55.6437 171.619L54.8771 170L54.7542 164.987L54.045 163.231L54.9895 162.899L55.7912 161.48L57.0164 160.289L55.7645 159.052L54.8266 157.284L54.1749 155.315L53.3274 154.714L51.1612 153.985L48.9852 154.615L46.0923 154.106L45.1495 153.228L42.6006 152.469L40.2467 152.748L36.9757 152.587L35.2776 153.219L33.6695 154.732L30.8976 152.969L29.016 152.752L25.9238 152.849L23.5716 152.505L21.867 152.537L19.9859 153.05L16.0464 152.032L14.6064 151.947L11.454 152.569L10.0512 151.922L10.0034 148.583L9.42204 147.651L7.11673 145.304L6.89205 143.155L4.41019 141.478L2.86244 138.76L2.71484 136.697L6.1385 135.269L7.20333 134.357L9.20844 136.6L10.553 136.648L10.9059 135.798L10.7625 133.357L12.6653 132.219L13.5273 130.413L14.7945 129.397L14.7942 128.253L16.296 127.727L17.279 126.266L17.8121 123.711L18.1338 120.997L19.026 119.545L20.0421 117.067L19.973 115.591L20.4045 114.04L21.2974 113.094L21.8656 109.411L21.0219 108.181L21.7272 106.449L21.2168 106.081L21.4527 104.657L22.4772 103.381L23.145 101.23L23.0445 98.8561L22.4542 97.8436L19.6515 96.2114L18.4828 93.3994L18.5072 92.1428L19.1949 90.3946L18.5813 89.2142L18.3238 86.6171L20.3896 84.8449L20.6511 83.8233L19.993 80.7337L20.8566 78.1213L20.4562 74.2306L20.0993 72.7067L19.1538 70.3992L19.4252 69.4946L20.9728 67.451L19.8343 64.5408L19.1069 61.9312L17.6813 60.4639L17.2239 59.507L16.5436 55.4828L16.1368 54.0179L13.9464 51.6587L13.1613 50.1839L14.4258 48.3815L16.7286 47.2759L18.6661 46.8522L21.6208 46.5283L22.5346 45.9738L25.6072 46.2326L26.4727 44.6271L29.7984 40.3468L32.9009 38.1796L33.6507 38.2086L34.9203 37.1674L36.8242 33.6651L40.3028 29.941L41.2922 27.8626L42.7041 24.0881L44.396 22.0034L45.1054 18.2783L44.5597 16.8378L43.1944 14.704L42.5364 11.6798L42.6607 10.2769L44.251 7.62635L45.7252 6.8018L48.7406 6.69512L54.7569 5.73922L55.9305 4.73047Z" fill="#1E1E1E" stroke="white" stroke-width="5"/>
</svg>
