<svg width="440" height="515" viewBox="0 0 440 515" fill="none" xmlns="http://www.w3.org/2000/svg">
<path d="M119.959 16.6296L121.251 17.7315L122.988 20.3011L123.857 22.0893L124.457 24.6287L125.76 27.0064L126.679 28.0262L128.439 28.9877L129.831 29.2227L135.131 30.5799L137.721 31.7616L139.811 33.6346L141.85 36.5052L143.336 35.8733L144.113 34.6423L147.131 32.0327L149.069 30.6287L149.284 31.4671L147.392 35.9411L147.537 37.3914L148.798 39.8L149.594 39.6781L150.5 38.3278L151.75 37.2906L153.53 34.9833L154.936 33.6827L156.301 33.0101L157.374 33.7415L157.134 35.1436L158.558 36.6597L159.377 38.6507L161.496 40.2321L161.929 41.0909L164.206 42.1716L164.628 43.128L164.859 46.3713L165.755 48.9202L166.168 50.9982L167.867 53.6111L168.733 57.514L169.822 58.3939L171.103 61.1629L171.172 63.6171L171.868 67.7525L171.929 69.7494L172.594 73.2625L171.516 75.5684L171.316 76.9802L168.354 80.6814L167.35 81.5917L166.283 83.7085L164.521 85.6713L163.764 88.9205L164.431 89.4101L165.529 89.0196L168.748 88.655L170.29 88.8457L171.259 89.7016L171.397 91.4154L169.985 93.2304L171.504 95.8475L170.804 98.1219L168.726 98.349L163.617 99.7691L160.424 101.48L155.699 102.764L152.877 103.303L149.459 102.509L148.168 101.935L146.499 101.693L145.963 102.019L148.45 106.575L150.172 110.674L149.963 113.425L150.071 115.434L149.623 117.25L150.282 118.561L151.25 117.451L155.127 115.282L156.66 113.756L159.567 112.324L161.575 111.765L167.084 112.932L170.159 112.948L171.858 112.601L173.64 111.584L174.814 111.457L176.727 112.881L179.019 113.132L181.429 110.331L182.742 109.392L184.329 109.379L186.404 111.115L188.367 110.838L189.344 110.367L190.324 109.001L191.146 107.011L192.022 105.811L198.004 103.53L201.244 101.376L203.743 99.0903L205.192 97.3637L206.247 94.762L207.019 91.5759L207.808 89.6305L208.127 87.7424L207.985 86.552L210.248 84.787L213.219 85.6589L214.489 84.8887L216.697 84.7821L218.135 84.412L219.045 83.3319L221.205 79.5346L223.241 77.4753L224.788 76.5437L227.608 75.3285L230.382 71.8327L231.625 69.9856L233.782 68.2141L236.116 65.0149L236.831 63.6047L239.196 55.1101L238.528 53.1235L238.975 48.8084L239.544 45.4357L240.672 45.2377L245.035 46.6193L249.322 46.2394L251.07 45.2299L253.466 45.8221L256.577 44.3323L259.895 44.3227L261.383 43.812L261.918 42.7461L260.894 41.8501L262.789 41.3622L264.048 42.021L264.381 40.2388L265.723 41.0378L265.956 40.0427L266.989 39.9545L266.577 41.405L267.711 41.2132L269.266 40.24L269.486 38.6047L270.798 38.6841L271.972 39.3463L274.534 40.2597L275.987 42.3994L276.718 44.4331L279.571 44.4155L280.804 43.6343L281.639 42.1234L282.495 41.69L283.836 42.787L285.099 42.0907L286.702 42.1546L289.361 40.9118L291.115 42.644L292.105 42.6437L293.354 41.828L294.63 42.8217L296.64 43.5441L297.239 42.5393L298.136 42.173L300.565 42.3952L301.714 41.6862L303.246 39.7453L304.893 40.0887L306.969 39.4192L309.092 40.061L311.198 39.794L312.752 41.6311L315.771 42.8431L315.924 41.1331L317.539 40.2997L319.225 41.7951L320.797 41.1177L322.174 42.3463L324.575 41.5979L326.605 44.8179L328.083 45.2568L329.523 47.1527L330.794 48.1993L332.748 47.7354L333.387 49.6159L334.273 49.9576L334.836 48.4426L335.48 47.9603L336.906 49.4022L339.333 49.4489L340.372 51.4189L338.971 53.6973L338.901 54.9611L339.45 56.1439L341.579 56.0892L342.589 56.3869L343.987 57.8415L345.528 58.6792L347.987 58.4735L349.211 58.8415L349.832 61.0174L350.874 61.1713L352.945 61.2792L352.385 62.9713L352.826 64.5612L354.577 64.6886L356.146 65.1796L358.076 67.2119L358.198 67.9457L360.246 68.8443L360.927 69.7284L359.754 70.7371L353.737 71.6931L350.722 71.7997L349.248 72.6243L347.658 75.2749L347.533 76.6777L348.191 79.702L349.556 81.8357L350.102 83.2762L349.393 87.0013L347.701 89.086L346.289 92.8605L345.3 94.939L341.821 98.663L339.917 102.165L338.648 103.206L337.898 103.177L334.795 105.345L331.469 109.625L330.604 111.231L327.531 110.972L326.618 111.526L323.663 111.85L321.725 112.274L319.423 113.379L318.158 115.182L318.943 116.657L321.134 119.016L321.54 120.481L322.221 124.505L322.678 125.462L324.104 126.929L324.831 129.539L325.97 132.449L324.422 134.492L324.151 135.397L325.096 137.705L325.453 139.228L325.853 143.119L324.99 145.732L325.648 148.821L325.386 149.843L323.321 151.615L323.578 154.212L324.192 155.393L323.504 157.141L323.48 158.397L324.648 161.209L327.451 162.842L328.041 163.854L328.142 166.228L327.474 168.378L326.449 169.655L326.214 171.079L326.724 171.447L326.019 173.179L326.862 174.409L326.294 178.092L325.401 179.038L324.97 180.589L325.039 182.065L324.023 184.543L323.131 185.995L322.809 188.709L322.276 191.264L321.293 192.725L319.791 193.251L319.791 194.395L318.524 195.411L317.662 197.217L315.759 198.355L315.903 200.796L315.55 201.646L314.205 201.598L312.2 199.355L311.135 200.267L307.712 201.695L307.859 203.758L309.407 206.476L311.889 208.153L312.114 210.302L314.419 212.648L315 213.581L315.048 216.92L316.451 217.567L319.603 216.945L321.043 217.03L324.983 218.048L326.864 217.535L328.568 217.503L330.921 217.846L334.013 217.75L335.894 217.967L338.666 219.73L340.274 218.217L341.973 217.585L345.243 217.746L347.597 217.467L350.146 218.225L351.089 219.104L353.982 219.613L356.158 218.983L358.324 219.712L359.172 220.313L359.823 222.282L360.761 224.05L362.013 225.287L360.788 226.478L359.986 227.897L359.042 228.229L359.751 229.985L359.874 234.998L360.64 236.617L360.569 238.765L361.151 239.469L362.318 239.559L363.356 240.497L363.639 242.442L364.906 243.59L365.439 243.217L367.262 245.54L368.103 246.187L368.844 249.881L369.452 250.63L372.581 252.183L373.379 253.527L375.515 255.005L377.244 257.471L378.955 258.745L380.665 260.431L382.387 260.726L384.689 259.756L386.948 259.693L389.674 260.348L393.61 259.906L396.501 259.042L398.076 259.22L397.345 262.159L398.276 264.643L398.402 266.741L399.642 268.884L402.482 270.978L404.13 273.379L406.454 274.877L408.363 277.15L411.439 279.068L412.38 279.307L413.42 281.425L413.481 285.989L412.709 289.386L411.776 291.541L412.103 292.535L411.886 295.791L412.23 298.512L413.648 300.655L414.896 301.158L416.773 302.923L417.445 303.177L421.887 302.598L423.841 302.807L427.318 304.087L427.865 305.034L427.874 309.084L430.169 313.938L430.773 315.772L430.976 318.086L432.195 323.045L432.666 324.357L433.467 327.988L433.523 329.19L434.195 331.506L433.712 333.587L433.438 340.701L434.345 343.473L434.241 344.861L435.09 348.184L437.073 351.906L437.338 353.997L436.077 358.383L435.397 359.582L432.183 362.315L428.198 366.44L427.643 367.865L428.042 369.743L427.647 370.293L427.056 374.855L424.807 371.296L424.024 369.759L423.736 368.215L423.835 365.932L422.956 364.721L422.617 362.246L421.017 360.114L419.571 359.199L417.737 358.508L416.108 356.194L413.614 354.626L413.873 353.173L413.581 351.807L411.308 351.59L411.195 349.471L410.707 348.852L406.99 351.148L405.68 352.415L404.749 354.038L403.216 355.483L402.31 356.983L402.69 361.121L403.115 362.475L403.616 365.677L399.952 371.487L398.209 372.965L396.293 374.95L397.265 375.404L394.39 377.795L392.66 378.892L390.202 379.435L389.211 380.037L387.444 379.35L384.131 378.469L382.625 376.647L382.376 375.511L380.711 372.556L379.87 369.466L376.216 363.647L375.221 361.196L373.791 359.873L372.521 359.901L371.196 358.071L370.848 356.606L371.144 355.075L370.769 354.186L368.072 354.2L366.334 353.494L365.697 354.456L366.651 355.718L367.186 357.242L367.524 359.84L366.876 364.993L366.309 366.533L366.65 367.789L367.981 369.776L368.132 370.621L367.128 372.691L365.087 375.227L363.672 378.569L362.529 379.09L360.775 385.084L360.419 387.127L360.7 389.758L360.075 390.342L358.641 393.336L358.601 395.039L357.487 398.466L355.958 400.765L355.588 401.925L355.609 403.844L355.134 405.902L353.421 407.306L353.04 410.162L351.982 411.499L349.885 411.967L349.716 414.138L350.828 416.14L350.937 418.394L352.644 421.732L352.487 423.239L351.356 424.47L350.919 425.548L350.843 428.678L349.309 431.606L345.658 435.476L340.67 438.49L338.598 439.546L337.918 441.328L335.999 441.739L333.94 441.354L332.41 440.281L329.938 435.911L327.207 433.564L324.21 434.564L322.769 434.767L321.271 436.663L318.583 442.041L317.242 442.487L314.52 443.868L310.516 447.163L309.133 447.86L308.647 447.09L308.428 445.123L308.542 442.102L308.02 440.984L304.75 442.287L302.883 442.568L300.838 442.55L296.4 442.106L295.236 443.599L294.943 445.766L293.957 448.85L293.973 450.248L294.821 451.005L294.917 452.249L293.309 453.972L287.464 455.792L286.155 456.518L283.941 456.999L284.157 458.216L280.065 459.08L275.912 458.613L273.321 457.706L271.886 457.896L269.731 460.221L267.367 460.396L265.075 461.584L263.402 463.788L261.84 468.272L259.766 468.465L256.024 469.671L253.029 470.41L249.094 471.025L247.651 470.962L246.136 469.3L243.254 469.297L242.332 468.498L242.243 465.538L241.816 463.634L239.05 459.791L237.21 456.139L236.17 454.449L235.063 454.074L229.97 453.508L227.633 453.942L225.084 456.097L223.66 455.771L222.552 454.735L219.594 452.62L217.701 452.14L216.748 452.404L214.007 451.875L211.097 452.024L210.228 452.456L208.955 455.086L207.248 462.989L207.146 464.614L206.519 466.983L203.939 466.703L203.199 467.674L202.937 472.003L200.792 473.655L200.523 475.118L200.746 477.607L201.818 478.969L201.367 480.021L197.397 479.756L195.751 480.168L195.236 481.738L195.456 486.61L195.405 489.226L194.935 491.317L193.506 493.847L193.371 496.804L192.379 498.494L194.066 499.607L194.71 501.108L193.767 504.678L193.22 505.328L191.144 506.632L190.663 507.413L190.986 509.166L189.355 508.926L188.529 509.243L187.97 510.8L186.039 511.438L184.483 510.652L183.457 509.297L184.273 506.73L185.074 500.916L184.334 497.971L184.054 494.178L184.228 491.68L184.093 488.455L184.548 485.724L183.69 482.758L181.946 478.844L180.827 477.55L178.172 477.029L176.79 468.705L177.79 467.277L176.304 465.846L174.912 465.011L176.417 464.071L176.65 463.161L176.005 461.643L176.141 460.263L174.851 458.577L173.468 456.081L174.996 453.346L174.831 452.039L174.046 450.355L174.18 449.175L175.283 446.871L175.302 444.899L172.957 442.075L171.232 440.55L170.932 439.511L170.889 437.084L169.995 433.64L168.952 431.591L166.791 428.48L168.679 426.595L169.571 424.726L169.252 422.06L168.042 419.746L165.831 417.941L165.623 416.819L166.067 415.358L165.833 414.063L163.166 409.515L162.707 407.093L161.831 406.642L160.937 404.905L163.199 402.701L163.83 401.33L164.617 397.393L164.029 395.727L162.836 394.725L158.411 393.374L156.936 392.16L155.279 388.118L153.364 382.77L152.094 378.631L152.01 377.579L152.502 375.423L153.066 375.245L152.221 371.996L151.562 365.368L151.775 363.298L152.557 359.795L152.678 358.269L153.657 353.146L154.387 350.167L154.536 347.653L153.363 345.495L151.812 344.945L149.538 345.755L148.755 346.537L145.849 348.055L144.926 349.225L142.316 350.549L141.822 352.705L140.111 352.347L138.308 353.354L136.689 353.222L133.785 350.628L131.306 349.65L128.337 350.44L122.128 350.085L118.61 348.851L116.237 347.493L115.076 346.308L114.003 343.412L114.306 341.561L113.871 339.273L112.701 338.495L110.045 335.658L108.67 334.816L106.971 334.659L105.442 335.411L103.121 335.007L102.283 335.203L96.0526 334.687L94.1387 335.057L94.4531 333.274L94.2995 332.056L94.9678 330.699L97.3876 328.127L99.292 326.946L100.04 325.386L100.704 322.154L100.809 318.875L100.311 315.742L99.184 313.444L98.7077 311.689L98.7943 309.792L100.033 306.146L99.7819 304.279L99.0667 302.743L98.8854 299.22L99.2514 293.119L97.9683 289.271L94.6436 287.151L94.124 285.856L96.3216 283.71L98.9136 280.694L99.5131 279.143L100.828 279.658L100.907 281.559L101.635 281.76L103.631 280.392L104.977 279.775L105.893 278.644L109.202 277.94L109.868 276.501L109.354 275.408L105.808 273.894L106.081 271.583L107.745 271.601L108.39 271.136L108.86 269.75L110.107 269.464L110.281 268.571L109.707 267.089L108.02 264.726L103.633 259.22L101.648 256.283L98.9794 251.108L97.7077 247.463L97.515 246.309L96.6346 244.413L97.3078 239.178L96.7003 236.823L93.4425 236.582L90.4914 234.118L89.7592 233.87L86.0583 233.753L85.4919 233.115L86.104 231.56L84.485 230.4L84.731 229.498L85.9152 228.934L86.0353 227.782L87.1108 226.475L86.9564 224.825L87.3856 223.538L87.254 220.852L87.4257 219.367L88.3641 217.359L88.188 214.4L90.055 212.107L90.4484 211.29L89.5134 209.946L91.1482 209.009L91.2272 208.273L86.9448 207.247L83.2411 206.627L80.4998 206.636L77.1263 205.251L74.2345 204.411L68.225 206.734L67.2689 206.574L62.2799 202.301L59.9021 196.554L59.4248 195.669L57.853 194.319L53.5185 193.836L51.7697 194.859L51.0307 194.643L48.986 192.1L47.6548 190.958L44.658 191.964L42.0415 191.22L42.8393 188.591L44.1272 186.488L45.2983 185.554L47.1043 182.355L49.3856 181.187L51.1521 178.012L52.1677 176.673L53.3239 174.301L53.4694 173.062L53.5135 168.053L53.917 166.895L52.828 164.482L52.2618 162.632L53.5119 161.005L54.691 158.487L54.5455 157.597L53.3237 157.015L51.4465 155.615L50.3079 154.088L47.8897 149.861L44.8178 145.664L42.414 142.773L40.8176 139.757L40.3171 137.244L38.3489 132.762L38.7927 127.876L38.4174 127.011L34.7153 125.628L33.6785 125.891L33.0596 124.157L29.927 119.961L29.0341 115.184L25.2499 111.924L23.6541 111.492L20.5172 109.868L16.8127 106.735L16.137 105.415L16.7697 99.5291L17.9096 95.9042L19.6124 92.3334L19.6846 91.664L17.4729 86.098L15.3249 82.4086L11.6216 78.8551L10.5637 75.2867L8.66708 74.5758L7.57297 73.6317L6.32225 70.8178L5.52368 67.7021L4.5962 65.3983L3.90234 62.6872L5.5204 62.4341L12.0754 62.0624L14.35 62.3859L30.4068 63.6646L33.7841 64.1071L34.6376 63.4945L36.438 60.9814L43.0138 59.6439L43.6381 59.1409L44.5933 57.3575L45.2332 54.0768L46.1531 51.7686L45.3051 50.2929L45.1215 48.2183L45.8745 46.16L47.5041 45.13L48.7809 43.7341L49.7889 41.8256L51.2112 40.1407L52.2903 36.788L52.0455 34.6443L53.8061 32.3222L51.6558 29.3518L51.4471 28.5051L51.7848 25.6029L54.8412 21.8642L56.0961 20.0032L56.2782 18.4943L60.3632 16.8625L63.0088 14.8455L64.8969 13.9059L70.4484 10.7517L73.1673 9.95377L77.2501 9.80795L77.9355 10.0037L79.0498 12.0814L80.1696 13.2724L82.5574 15.0364L86.9133 16.5395L90.5593 16.3694L92.5405 15.6189L93.5906 14.8424L94.9215 11.5752L99.3251 9.62261L99.4018 7.21143L101.145 4.42578L102.803 6.47425L106.283 7.53599L109.282 9.12604L110.68 10.0895L111.458 11.1088L114.046 12.535L115.684 14.416L119.959 16.6296Z" fill="#1E1E1E" stroke="white" stroke-width="5"/>
</svg>
