<svg width="338" height="346" viewBox="0 0 338 346" fill="none" xmlns="http://www.w3.org/2000/svg">
<path d="M115.199 267.406L117.692 267.444L117.167 268.682L115.195 270.238L113.929 267.618L115.199 267.406ZM103.046 262.256L105.91 262.398L107.61 263.964L108.68 264.354L109.221 263.518L110.216 264.366L110.914 266.387L110.064 267.813L108.527 268.064L107.338 267.379L106.736 266.147L105.416 265.902L105.263 265.188L103.392 264.138L103.046 262.256ZM110.119 260.643L112.151 260.811L114.83 262.151L114.202 263.519L113.761 265.482L111.688 266.423L110.366 262.818L110.119 260.643ZM105.368 237.71L103.381 236.787L104.589 236.19L105.368 237.71ZM77.6825 198.793L77.1036 198.766L76.2209 197.248L77.7003 197.127L78.9148 197.944L77.6825 198.793ZM192.056 20.2241L194.672 20.9682L197.669 19.9629L199 21.1046L201.045 23.6475L201.784 23.8636L203.533 22.8406L207.867 23.3237L209.439 24.6734L209.916 25.558L212.294 31.3057L217.283 35.5789L218.239 35.738L224.249 33.4159L227.141 34.2559L230.514 35.6405L233.255 35.6318L236.959 36.2516L241.241 37.2779L241.162 38.0132L239.528 38.9501L240.463 40.2946L240.069 41.111L238.202 43.4043L238.378 46.3633L237.44 48.371L237.268 49.8566L237.4 52.5427L236.971 53.8296L237.125 55.4796L236.05 56.7864L235.929 57.9381L234.745 58.5026L234.499 59.4047L236.118 60.5647L235.506 62.1192L236.073 62.7574L239.773 62.8743L240.506 63.1228L243.457 65.5862L246.715 65.827L247.322 68.1828L246.649 73.4176L247.529 75.3135L247.722 76.4672L248.994 80.1126L251.662 85.2877L253.647 88.2247L258.034 93.7305L259.722 96.093L260.296 97.5751L260.122 98.4686L258.874 98.7546L258.404 100.14L257.759 100.606L256.095 100.588L255.822 102.898L259.369 104.413L259.882 105.505L259.216 106.944L255.908 107.648L254.991 108.78L253.646 109.396L251.649 110.764L250.922 110.564L250.843 108.662L249.527 108.147L248.928 109.698L246.336 112.715L244.138 114.86L244.658 116.156L247.982 118.276L249.266 122.124L248.9 128.225L249.081 131.747L249.796 133.284L250.047 135.15L248.809 138.797L248.722 140.694L249.198 142.448L250.325 144.747L250.823 147.879L250.718 151.158L250.054 154.391L249.306 155.95L247.402 157.132L244.982 159.704L244.314 161.06L244.467 162.278L244.153 164.061L246.067 163.691L252.297 164.208L253.135 164.012L255.456 164.416L256.986 163.664L258.684 163.821L260.059 164.662L262.715 167.499L263.886 168.277L264.321 170.566L264.017 172.417L265.09 175.313L266.251 176.497L268.625 177.855L272.143 179.089L278.352 179.444L281.321 178.655L283.799 179.632L286.704 182.226L288.322 182.359L290.126 181.352L291.836 181.71L292.33 179.554L294.94 178.23L295.863 177.059L298.769 175.541L299.552 174.759L301.826 173.949L303.378 174.499L304.55 176.657L304.401 179.171L303.671 182.151L302.692 187.274L302.571 188.8L301.789 192.302L301.577 194.372L302.236 201L303.08 204.249L302.516 204.428L302.024 206.583L302.108 207.636L303.378 211.775L305.293 217.122L306.95 221.164L308.425 222.378L312.85 223.73L314.044 224.732L314.632 226.397L313.844 230.334L313.213 231.705L310.952 233.91L311.846 235.647L312.721 236.097L313.18 238.52L315.847 243.067L316.081 244.363L315.637 245.824L315.845 246.946L318.056 248.751L319.267 251.065L319.586 253.73L318.693 255.6L316.806 257.484L318.966 260.595L320.009 262.644L320.903 266.089L320.947 268.516L321.246 269.554L322.971 271.08L325.316 273.904L325.297 275.875L324.194 278.179L324.06 279.36L324.845 281.044L325.011 282.351L323.552 284.519L324.865 287.582L326.156 289.267L326.019 290.648L326.664 292.166L326.431 293.075L324.926 294.016L326.318 294.85L327.804 296.282L326.804 297.71L328.186 306.033L330.842 306.555L331.96 307.849L333.704 311.763L334.563 314.728L334.108 317.46L334.242 320.684L334.068 323.182L334.348 326.976L335.088 329.921L334.287 335.734L333.471 338.302L332.821 337.708L331.08 337.195L330.404 335.032L328.92 333.554L328.181 332.289L326.187 329.852L325.124 329.557L323.416 326.4L323.286 325.032L321.51 322.759L321.193 321.844L319.367 320.823L318.162 319.132L316.726 315.539L314.901 312.63L313.868 309.84L313.163 309.025L308.67 312.556L307.348 313.45L305.957 313.511L304.373 312.601L303.422 313.77L301.492 314.249L299.591 313.34L298.728 313.353L297.899 314.372L298.207 315.616L297.75 316.854L295.18 318.634L294.134 319.775L293.271 321.662L291.552 321.693L291.407 322.88L290.463 326.394L285.514 329.944L284.225 330.008L282.213 329.35L279.634 327.236L278.187 324.797L277.545 322.908L276.788 322.151L274.695 321.11L273.334 321.043L271.147 323.204L269.04 323.963L267.526 324.803L267.056 326.277L267.467 328.566L268.747 331.254L269.491 333.674L269.493 334.989L268.606 335.601L266.317 336.402L265.225 336.207L264.634 337.801L262.5 335.907L259.372 332.542L257.121 328.356L255.904 327.651L254.398 327.916L253.418 330.795L252.047 332.751L251.9 335.794L249.87 338.319L244.176 341.706L241.434 343.038L238.814 342.812L236.57 343.121L234.18 341.101L228.742 341.316L225.2 342.67L223.592 338.749L221.392 336.646L219.689 334.348L218.21 330.88L218.905 329.86L220.68 329.566L220.698 328.204L218.66 325.419L217.723 323.449L216.962 322.959L208.957 323.056L207.162 324.226L206.175 324.455L204.633 322.975L199.919 319.772L197.028 317.12L196.376 315.774L193.193 310.837L192.805 308.542L192.922 306.372L191.552 304.133L189.885 302.945L187.127 300.065L185.591 297.628L183.312 295.364L177.025 294.562L174.974 295.498L174.407 297.183L173.518 297.837L171.033 298.105L168.113 298.92L166.488 299.982L165.93 300.834L164.345 302.026L159.459 306.263L157.187 308.511L153.64 314.918L150.646 319.21L148.816 321.09L148.271 320.953L146.414 318.893L145.318 318.026L144.238 314.811L143.069 314.854L141.66 313.102L140.749 309.387L142.061 308.22L141.361 305.212L139.758 303.262L139.706 301.411L138.779 299.305L139.506 298.502L139.579 297.438L141.522 297.208L142.072 295.915L141.702 293.72L140.77 292.883L138.816 292.69L137.298 291.244L136.092 289.092L136.404 288.058L135.773 286.951L137.038 284.118L137.061 283.239L138.202 282.628L138.69 281.693L138.565 280.256L137.035 278.853L136.972 277.96L135.148 277.648L134.782 274.971L132.406 274.482L131.929 273.85L132.649 271.932L130.927 271.318L126.94 268.453L123.143 268.587L122.192 269.076L121.671 267.185L120.686 267.266L118.548 266.081L117.949 266.673L116.424 266.671L114.376 265.505L114.919 264.212L116.058 263.36L116.304 262.503L118.097 262.691L118.298 261.332L116.938 260.898L116.781 259.717L115.786 258.498L114.226 258.252L114.353 256.963L113.889 255.229L113.925 253.626L113.094 253.45L112.471 250.91L112.594 248.251L111.543 246.156L110.536 245.504L109.78 244.169L108.432 242.808L107.21 240.451L105.368 237.71L106.94 237.989L109.148 239.471L113.276 240.097L114.788 238.291L115.688 237.907L117.869 238.424L118.821 238.08L120.341 238.497L121.999 238.198L123.201 238.408L124.151 239.397L125.465 239.356L126.187 238.823L126.811 237.338L128.87 237.8L129.998 239.034L131.647 239.234L134.127 238.967L134.786 238.593L135.576 236.364L136.148 233.548L135.004 232.389L132.654 231.458L129.95 229.807L127.538 229.247L126.343 228.417L126.262 227.468L125.305 226.521L124.213 226.581L123.24 225.65L122.118 223.1L121.202 221.943L119.244 220.553L118.646 220.524L117.378 222.402L115.933 220.967L115.783 218.394L113.784 217.04L112.534 214.021L110.648 213.944L109.134 212.378L107.459 211.597L106.64 210.001L105.525 208.613L109.201 208.36L111.518 205.699L112.625 205.371L113.312 206.978L114.36 207.912L116.072 206.51L117.24 206.843L118.087 208.243L120.89 209.129L121.504 210.39L123.053 211.383L124.024 213.047L125.908 213.968L126.597 213.742L127.881 211.294L127.863 210.263L128.566 207.339L129.083 206.802L130.551 203.663L129.95 202.53L129.827 199.515L128.831 197.266L126.499 197.029L125.092 195.612L123.693 195.211L121.244 193.149L117.153 192.083L115.888 191.591L113.801 191.782L111.634 193.842L109.353 194.496L108.485 191.847L107.86 193.887L105.499 193.024L105.406 194.043L108.126 195.332L109.631 196.901L109.224 197.39L107.18 195.366L105.406 194.043L103.563 194.259L98.9128 192.581L95.9067 192.086L92.561 192.001L91.3973 193.154L90.259 192.843L89.9519 194.48L88.5361 194.693L87.3128 195.792L85.5918 195.203L85.4665 192.903L83.7864 192.612L81.5665 191.438L79.6461 191.174L77.6128 189.907L79.1556 188.89L80.2161 190.049L82.2435 190.553L82.8198 189.533L84.6862 189.85L84.9565 191.658L87.3952 192.236L88.0652 191.052L88.2612 188.701L89.5014 188.371L90.2233 189.59L90.4189 190.857L91.5249 191.141L93.0062 190.002L94.2591 191.287L98.9128 192.581L99.1469 191.035L98.2794 190.329L96.3761 187.993L95.0238 187.634L92.7544 188.391L89.8632 185.681L89.2193 186.249L86.3682 183.086L83.7047 181.021L82.9996 180.902L81.0868 182.135L77.59 182.643L74.9051 184.178L75.1117 185.247L79.0238 184.62L78.6209 185.922L72.8299 186.579L71.7029 186.261L70.9604 186.762L68.6416 186.72L67.7574 186.329L69.3422 182.505L70.8342 179.718L72.2878 177.456L73.5568 174.589L74.9176 173.581L75.8092 171.412L75.7727 169.471L74.9669 168.545L74.3131 166.22L76.8159 166.575L77.3084 167.835L76.4255 169.174L78.7978 170.73L80.1476 170.818L79.734 169.572L79.7393 167.93L81.3922 167.335L81.459 166.263L82.6552 163.937L82.2044 162.418L83.2326 161.91L83.4202 160.484L84.4345 160.246L83.9157 157.954L84.2572 156.641L84.9399 155.985L85.7945 154.107L85.7657 152.361L86.5428 152.084L85.5983 150.1L83.5043 150.733L82.4763 148.927L81.3753 147.871L79.7472 147.312L76.951 146.775L77.2037 145.851L79.9813 145.211L81.5893 146.486L83.5075 146.938L84.3683 146.477L84.2614 145.467L83.1205 144.732L82.9837 143.86L84.276 143.647L85.4818 144.33L85.8448 143.039L86.845 142.53L87.2054 139.757L90.842 139.255L91.6938 138.1L91.1323 136.408L91.4012 135.728L90.8348 134.462L93.0851 133.796L92.7704 132.291L91.8232 130.241L92.0264 126.226L92.5389 125.022L92.0569 123.999L90.8544 123.456L90.0251 124.069L87.2163 121.11L86.2321 119.213L84.9539 117.932L80.5142 115.756L79.0566 115.738L77.7129 115.276L74.8026 115.365L73.6681 115.706L72.6933 115.385L72.2124 116.647L69.768 115.875L69.6882 115.1L70.7797 114.043L69.6059 112.601L68.623 112.327L67.381 111.216L66.003 110.644L63.4758 108.035L62.3182 107.273L62.0934 106.433L60.8137 105.276L58.9527 104.783L58.1882 104.018L57.3952 102.145L54.018 101.761L51.8374 104.616L51.6342 107.926L49.7661 105.9L48.1663 105.31L46.8576 104.043L45.6413 102.077L45.7487 101.197L44.7045 100.328L45.522 99.274L46.8811 99.8892L48.9619 99.9921L49.7223 100.951L48.8995 101.659L50.1581 103.134L51.4771 100.405L48.1701 98.7572L45.4066 96.2818L44.3714 96.5704L42.5091 95.1996L40.3219 94.9413L39.1426 95.6054L38.5513 94.2302L37.4418 93.178L34.5942 93.8073L33.796 93.2478L33.6886 91.0962L32.1397 88.0216L30.4591 87.2124L29.0152 87.6939L27.6742 87.6076L26.021 88.2873L23.8736 86.5554L22.1974 87.4623L22.4451 88.9984L19.0073 88.6654L15.3611 89.5375L13.7929 90.3397L13.2872 88.9466L9.64324 88.1803L9.58334 86.8732L8.82462 86.2037L8.55902 83.882L11.2713 83.1113L10.3577 82.5716L9.13357 82.7665L7.72058 81.7232L6.21094 81.6222L7.79528 80.1783L9.54721 79.8738L10.4639 78.7088L13.034 79.2716L14.2178 79.127L14.8037 78.4603L15.2673 76.6749L17.3834 75.9342L18.4405 76.8106L18.1749 77.6891L18.4137 80.6413L20.8876 82.1296L23.1052 81.6791L24.2649 80.1347L25.1742 81.7215L26.6091 82.2869L29.7881 82.1658L30.7724 83.2204L32.0517 83.6184L34.2673 83.4803L36.8142 86.6766L39.0352 88.4547L40.2756 89.0405L42.8554 87.5083L44.0767 87.4573L45.6861 88.1015L48.1341 91.3372L50.1007 95.3634L52.1535 95.8139L52.7527 96.9632L53.7331 97.6751L55.1201 97.5973L56.3499 98.1327L56.8923 99.0414L59.4478 101.075L60.2654 102.137L63.5175 104.115L68.1514 105.506L72.5428 105.164L75.5339 104.763L77.7372 105.557L79.6849 106.539L82.4633 107.575L86.144 109.227L88.5958 109.184L90.3715 108.833L91.6105 109.195L92.4783 110.05L94.7254 111.344L96.4457 111.605L100.363 110.859L102.937 111.147L104.794 110.976L106.973 110.011L108.629 110.576L112.044 109.63L112.529 109.155L112.861 107.116L111.732 105.339L110.759 104.385L109.63 101.241L108.258 98.5022L109.12 96.4291L110.15 94.9582L112.082 93.8838L112.826 93.1058L113.27 91.5883L114.591 90.1022L113.51 87.9859L114.443 86.3075L116.168 85.977L117.807 86.5598L119.978 86.8198L123.517 88.8755L123.983 90.3173L125.325 91.991L127.252 92.5361L128.628 94.1772L130.646 94.4413L130.372 92.159L130.607 90.0356L130.071 88.0304L130.323 85.7259L130.766 84.5434L131.298 80.0222L132.086 79.3599L134.04 78.9518L135.421 77.8843L137.132 75.9964L137.299 74.1618L138.176 72.4234L139.288 71.0814L139.799 69.0952L144.341 67.3867L146.155 67.9032L147.345 67.8078L150.33 65.0809L152.806 61.6519L153.495 60.1904L157.806 58.7591L158.797 56.4499L158.604 54.21L157.097 52.6021L154.846 51.3426L152.113 49.4482L150.76 47.9714L150.393 44.3229L149.887 43.6748L147.707 42.1066L146.212 40.1926L144.629 37.7475L144.193 36.0468L144.352 34.1296L146.026 32.1121L149.42 29.268L151.034 26.2522L150.828 23.4179L150.003 21.5904L147.574 18.2079L144.205 14.5388L143.433 13.2926L142.861 10.6567L142.892 9.66011L144.392 8.37048L147.986 6.30445L148.659 5.62148L149.57 2.97234L150.406 2.82031L152.443 3.97405L155.717 6.69246L157.207 6.99106L158.935 6.58776L159.966 6.72244L162.088 7.83014L165.236 8.98721L169.992 9.95538L173.857 11.9159L174.644 12.5443L178.805 17.3989L179.908 18.8381L183.357 21.5087L185.58 22.2789L187.55 22.5761L189.074 20.9382L192.056 20.2241Z" fill="#1E1E1E"/>
<path d="M105.368 237.71L103.381 236.787L104.589 236.19L105.368 237.71ZM105.368 237.71L107.21 240.451L108.432 242.808L109.78 244.169L110.536 245.504L111.543 246.156L112.594 248.251L112.471 250.91L113.094 253.45L113.925 253.626L113.889 255.229L114.353 256.963L114.226 258.252L115.786 258.498L116.781 259.717L116.938 260.898L118.298 261.332L118.097 262.691L116.304 262.503L116.058 263.36L114.919 264.212L114.376 265.505L116.424 266.671L117.949 266.673L118.548 266.081L120.686 267.266L121.671 267.185L122.192 269.076L123.143 268.587L126.94 268.453L130.927 271.318L132.649 271.932L131.929 273.85L132.406 274.482L134.782 274.971L135.148 277.648L136.972 277.96L137.035 278.853L138.565 280.256L138.69 281.693L138.202 282.628L137.061 283.239L137.038 284.118L135.773 286.951L136.404 288.058L136.092 289.092L137.298 291.244L138.816 292.69L140.77 292.883L141.702 293.72L142.072 295.915L141.522 297.208L139.579 297.438L139.506 298.502L138.779 299.305L139.706 301.411L139.758 303.262L141.361 305.212L142.061 308.22L140.749 309.387L141.66 313.102L143.069 314.854L144.238 314.811L145.318 318.026L146.414 318.893L148.271 320.953L148.816 321.09L150.646 319.21L153.64 314.918L157.187 308.511L159.459 306.263L164.345 302.026L165.93 300.834L166.488 299.982L168.113 298.92L171.033 298.105L173.518 297.837L174.407 297.183L174.974 295.498L177.025 294.562L183.312 295.364L185.591 297.628L187.127 300.065L189.885 302.945L191.552 304.133L192.922 306.372L192.805 308.542L193.193 310.837L196.376 315.774L197.028 317.12L199.919 319.772L204.633 322.975L206.175 324.455L207.162 324.226L208.957 323.056L216.962 322.959L217.723 323.449L218.66 325.419L220.698 328.204L220.68 329.566L218.905 329.86L218.21 330.88L219.689 334.348L221.392 336.646L223.592 338.749L225.2 342.67L228.742 341.316L234.18 341.101L236.57 343.121L238.814 342.812L241.434 343.038L244.176 341.706L249.87 338.319L251.9 335.794L252.047 332.751L253.418 330.795L254.398 327.916L255.904 327.651L257.121 328.356L259.372 332.542L262.5 335.907L264.634 337.801L265.225 336.207L266.317 336.402L268.606 335.601L269.493 334.989L269.491 333.674L268.747 331.254L267.467 328.566L267.056 326.277L267.527 324.803L269.04 323.963L271.147 323.204L273.334 321.043L274.695 321.11L276.788 322.151L277.545 322.908L278.187 324.797L279.634 327.236L282.213 329.35L284.225 330.008L285.514 329.944L290.463 326.394L291.407 322.88L291.552 321.693L293.271 321.662L294.134 319.775L295.18 318.634L297.75 316.854L298.207 315.616L297.899 314.372L298.728 313.353L299.591 313.34L301.493 314.249L303.422 313.77L304.373 312.601L305.957 313.511L307.348 313.45L308.67 312.556L313.163 309.025L313.868 309.84L314.901 312.63L316.726 315.539L318.162 319.132L319.367 320.823L321.193 321.844L321.51 322.759L323.286 325.032L323.416 326.4L325.124 329.557L326.187 329.852L328.181 332.289L328.92 333.554L330.404 335.032L331.08 337.195L332.821 337.708L333.471 338.302L334.287 335.734L335.088 329.921L334.348 326.976L334.068 323.182L334.242 320.684L334.108 317.46L334.563 314.728L333.704 311.763L331.96 307.849L330.842 306.555L328.186 306.033L326.804 297.71L327.804 296.282L326.318 294.85L324.926 294.016L326.431 293.075L326.664 292.166L326.019 290.648L326.156 289.267L324.865 287.582L323.552 284.519L325.011 282.351L324.845 281.044L324.06 279.36L324.194 278.179L325.297 275.875L325.316 273.904L322.971 271.08L321.246 269.554L320.947 268.516L320.903 266.089L320.009 262.644L318.966 260.595L316.806 257.484L318.693 255.6L319.586 253.73L319.267 251.065L318.056 248.751L315.845 246.946L315.637 245.824L316.081 244.363L315.847 243.067L313.18 238.52L312.721 236.097L311.846 235.647L310.952 233.91L313.213 231.705L313.844 230.334L314.632 226.397L314.044 224.732L312.85 223.73L308.425 222.378L306.95 221.164L305.293 217.122L303.378 211.775L302.108 207.636L302.024 206.583L302.516 204.428L303.08 204.249L302.236 201L301.577 194.372L301.789 192.302L302.571 188.8L302.692 187.274L303.671 182.151L304.401 179.171L304.55 176.657L303.378 174.499L301.826 173.949L299.552 174.759L298.769 175.541L295.863 177.059L294.94 178.23L292.33 179.554L291.836 181.71L290.126 181.352L288.322 182.359L286.704 182.226L283.799 179.632L281.321 178.655L278.352 179.444L272.143 179.089L268.625 177.855L266.251 176.497L265.09 175.313L264.017 172.417L264.321 170.566L263.886 168.277L262.715 167.499L260.059 164.662L258.684 163.821L256.986 163.664L255.456 164.416L253.135 164.012L252.297 164.208L246.067 163.691L244.153 164.061L244.467 162.278L244.314 161.06L244.982 159.704L247.402 157.132L249.306 155.95L250.054 154.391L250.718 151.158L250.823 147.879L250.325 144.747L249.198 142.448L248.722 140.694L248.809 138.797L250.047 135.15L249.796 133.284L249.081 131.747L248.9 128.225L249.266 122.124L247.982 118.276L244.658 116.156L244.138 114.86L246.336 112.715L248.928 109.698L249.527 108.147L250.843 108.662L250.922 110.564L251.649 110.764L253.646 109.396L254.991 108.78L255.908 107.648L259.216 106.944L259.882 105.505L259.369 104.413L255.822 102.898L256.095 100.588L257.759 100.606L258.404 100.14L258.874 98.7546L260.122 98.4686L260.296 97.575L259.722 96.093L258.034 93.7305L253.647 88.2247L251.662 85.2877L248.994 80.1126L247.722 76.4672L247.529 75.3135L246.649 73.4176L247.322 68.1828L246.715 65.827L243.457 65.5862L240.506 63.1228L239.773 62.8743L236.073 62.7574L235.506 62.1192L236.118 60.5647L234.499 59.4047L234.745 58.5026L235.929 57.9381L236.05 56.7864L237.125 55.4796L236.971 53.8296L237.4 52.5427L237.268 49.8566L237.44 48.371L238.378 46.3633L238.202 43.4043L240.069 41.111L240.463 40.2946L239.528 38.9501L241.162 38.0132L241.241 37.2779L236.959 36.2516L233.255 35.6318L230.514 35.6405L227.141 34.2559L224.249 33.4159L218.239 35.738L217.283 35.5789L212.294 31.3057L209.916 25.558L209.439 24.6734L207.867 23.3237L203.533 22.8406L201.784 23.8636L201.045 23.6475L199 21.1046L197.669 19.9629L194.672 20.9682L192.056 20.2241L189.074 20.9382L187.55 22.5761L185.58 22.2789L183.357 21.5087L179.908 18.8381L178.805 17.3989L174.644 12.5443L173.857 11.9159L169.992 9.95538L165.236 8.98721L162.088 7.83014L159.966 6.72244L158.935 6.58776L157.207 6.99106L155.717 6.69246L152.443 3.97405L150.406 2.82031L149.57 2.97234L148.659 5.62148L147.986 6.30445L144.392 8.37048L142.892 9.66011L142.861 10.6567L143.433 13.2926L144.205 14.5388L147.574 18.2079L150.003 21.5904L150.828 23.4179L151.034 26.2522L149.42 29.268L146.026 32.1121L144.352 34.1296L144.193 36.0468L144.629 37.7475L146.212 40.1926L147.707 42.1066L149.887 43.6748L150.393 44.3229L150.76 47.9714L152.113 49.4482L154.846 51.3426L157.097 52.6021L158.604 54.21L158.797 56.4499L157.806 58.7591L153.495 60.1904L152.806 61.6519L150.33 65.0809L147.345 67.8078L146.155 67.9032L144.341 67.3867L139.799 69.0952L139.288 71.0814L138.176 72.4234L137.299 74.1618L137.132 75.9964L135.421 77.8843L134.04 78.9518L132.086 79.3599L131.298 80.0222L130.766 84.5434L130.323 85.7259L130.071 88.0304L130.607 90.0356L130.372 92.159L130.646 94.4413L128.628 94.1772L127.252 92.5361L125.325 91.991L123.983 90.3173L123.517 88.8754L119.978 86.8198L117.807 86.5598L116.168 85.977L114.443 86.3075L113.51 87.9859L114.591 90.1022L113.27 91.5883L112.826 93.1058L112.082 93.8838L110.15 94.9582L109.12 96.4291L108.258 98.5022L109.63 101.241L110.759 104.385L111.732 105.339L112.861 107.116L112.529 109.155L112.044 109.63L108.629 110.576L106.973 110.011L104.794 110.976L102.937 111.147L100.363 110.859L96.4457 111.605L94.7254 111.344L92.4783 110.05L91.6105 109.195L90.3715 108.833L88.5958 109.184L86.144 109.227L82.4633 107.575L79.6849 106.539L77.7372 105.557L75.5339 104.763L72.5428 105.164L68.1514 105.506L63.5175 104.115L60.2654 102.137L59.4478 101.075L56.8923 99.0414L56.3499 98.1327L55.1201 97.5973L53.7331 97.6751L52.7527 96.9632L52.1535 95.8139L50.1007 95.3634L48.1341 91.3372L45.6861 88.1015L44.0767 87.4573L42.8554 87.5083L40.2756 89.0405L39.0352 88.4547L36.8142 86.6766L34.2673 83.4803L32.0517 83.6184L30.7724 83.2204L29.7881 82.1658L26.6091 82.2869L25.1742 81.7215L24.2649 80.1347L23.1052 81.6791L20.8876 82.1296L18.4137 80.6413L18.1749 77.6891L18.4405 76.8106L17.3834 75.9342L15.2673 76.6749L14.8037 78.4603L14.2178 79.127L13.034 79.2716L10.4639 78.7088L9.54721 79.8738L7.79528 80.1783L6.21094 81.6222L7.72058 81.7232L9.13357 82.7665L10.3577 82.5716L11.2713 83.1113L8.55902 83.882L8.82462 86.2037L9.58334 86.8732L9.64324 88.1803L13.2872 88.9466L13.7929 90.3397L15.3611 89.5375L19.0073 88.6654L22.4451 88.9984L22.1974 87.4623L23.8736 86.5554L26.021 88.2873L27.6742 87.6076L29.0152 87.6939L30.4591 87.2124L32.1397 88.0216L33.6886 91.0962L33.796 93.2478L34.5942 93.8073L37.4418 93.178L38.5513 94.2302L39.1426 95.6054L40.3219 94.9413L42.5091 95.1996L44.3714 96.5704L45.4066 96.2818L48.1701 98.7572L51.4771 100.405L50.1581 103.134L48.8995 101.659L49.7223 100.951L48.9619 99.9921L46.8811 99.8892L45.522 99.274L44.7045 100.328L45.7487 101.197L45.6413 102.077L46.8576 104.043L48.1663 105.31L49.7661 105.9L51.6342 107.926L51.8374 104.616L54.018 101.761L57.3952 102.145L58.1882 104.018L58.9527 104.783L60.8137 105.276L62.0934 106.433L62.3182 107.273L63.4758 108.035L66.003 110.644L67.381 111.216L68.623 112.327L69.6059 112.601L70.7797 114.043L69.6882 115.1L69.768 115.875L72.2124 116.647L72.6933 115.385L73.6681 115.706L74.8026 115.365L77.7129 115.276L79.0566 115.738L80.5142 115.756L84.9539 117.932L86.2321 119.213L87.2163 121.11L90.0251 124.069L90.8544 123.456L92.0569 123.999L92.5389 125.022L92.0264 126.226L91.8232 130.241L92.7704 132.291L93.0851 133.796L90.8348 134.462L91.4012 135.728L91.1323 136.408L91.6938 138.1L90.842 139.255L87.2054 139.757L86.845 142.53L85.8448 143.039L85.4818 144.33L84.276 143.647L82.9837 143.86L83.1205 144.732L84.2614 145.467L84.3683 146.477L83.5075 146.938L81.5893 146.486L79.9813 145.211L77.2037 145.851L76.951 146.775L79.7472 147.312L81.3753 147.871L82.4763 148.927L83.5043 150.733L85.5983 150.1L86.5428 152.084L85.7657 152.361L85.7945 154.107L84.9399 155.985L84.2572 156.641L83.9157 157.954L84.4345 160.246L83.4203 160.484L83.2326 161.91L82.2044 162.418L82.6552 163.937L81.459 166.263L81.3922 167.335L79.7393 167.93L79.734 169.572L80.1476 170.818L78.7978 170.73L76.4255 169.174L77.3084 167.835L76.8159 166.575L74.3131 166.22L74.9669 168.545L75.7727 169.471L75.8092 171.412L74.9176 173.581L73.5568 174.589L72.2877 177.456L70.8342 179.718L69.3422 182.505L67.7574 186.329L68.6416 186.72L70.9604 186.763L71.7029 186.261L72.8299 186.579L78.6209 185.922L79.0238 184.62L75.1117 185.247L74.9051 184.178L77.59 182.643L81.0868 182.135L82.9996 180.902L83.7047 181.021L86.3682 183.086L89.2193 186.249L89.8632 185.681L92.7544 188.391L95.0238 187.634L96.3761 187.993L98.2794 190.329L99.1469 191.035L98.9128 192.581M105.368 237.71L106.94 237.989L109.148 239.471L113.276 240.097L114.788 238.291L115.688 237.907L117.869 238.424L118.821 238.08L120.341 238.497L121.999 238.198L123.201 238.408L124.151 239.397L125.465 239.356L126.187 238.823L126.811 237.338L128.87 237.8L129.998 239.034L131.647 239.234L134.127 238.967L134.786 238.593L135.576 236.364L136.148 233.548L135.004 232.389L132.654 231.458L129.95 229.807L127.538 229.247L126.343 228.417L126.262 227.468L125.305 226.521L124.213 226.581L123.24 225.65L122.118 223.1L121.202 221.943L119.244 220.553L118.646 220.524L117.378 222.402L115.933 220.967L115.783 218.394L113.784 217.04L112.534 214.021L110.648 213.944L109.134 212.378L107.459 211.597L106.64 210.001L105.525 208.613L109.201 208.36L111.518 205.699L112.625 205.371L113.312 206.978L114.36 207.912L116.072 206.51L117.24 206.843L118.087 208.243L120.89 209.129L121.504 210.39L123.053 211.383L124.024 213.047L125.908 213.968L126.597 213.742L127.88 211.294L127.863 210.263L128.566 207.339L129.083 206.802L130.551 203.663L129.95 202.53L129.827 199.515L128.831 197.266L126.499 197.029L125.092 195.612L123.693 195.211L121.244 193.149L117.153 192.083L115.888 191.591L113.801 191.782L111.634 193.842L109.353 194.496L108.485 191.847L107.86 193.887L105.499 193.024L105.406 194.043M105.406 194.043L108.126 195.332L109.631 196.901L109.224 197.39L107.18 195.366L105.406 194.043ZM105.406 194.043L103.563 194.259L98.9128 192.581M98.9128 192.581L95.9067 192.086L92.561 192.001L91.3973 193.154L90.259 192.843L89.9519 194.48L88.5361 194.693L87.3128 195.792L85.5918 195.203L85.4665 192.903L83.7864 192.612L81.5665 191.438L79.6461 191.174L77.6128 189.907L79.1556 188.89L80.2161 190.049L82.2435 190.553L82.8198 189.533L84.6862 189.85L84.9565 191.658L87.3952 192.236L88.0652 191.052L88.2612 188.701L89.5013 188.371L90.2233 189.59L90.4189 190.857L91.5249 191.141L93.0062 190.002L94.2591 191.287L98.9128 192.581ZM115.199 267.406L117.692 267.444L117.167 268.682L115.195 270.238L113.929 267.618L115.199 267.406ZM103.046 262.256L105.91 262.398L107.61 263.964L108.68 264.354L109.221 263.518L110.216 264.366L110.914 266.387L110.064 267.813L108.527 268.064L107.338 267.379L106.736 266.147L105.416 265.902L105.263 265.188L103.392 264.138L103.046 262.256ZM110.119 260.643L112.151 260.811L114.83 262.151L114.202 263.519L113.761 265.482L111.688 266.423L110.366 262.818L110.119 260.643ZM77.6825 198.793L77.1036 198.766L76.2209 197.248L77.7003 197.127L78.9148 197.944L77.6825 198.793Z" stroke="white" stroke-width="5"/>
</svg>
