<svg width="344" height="300" viewBox="0 0 344 300" fill="none" xmlns="http://www.w3.org/2000/svg">
<path d="M222.623 258.192L222.183 257.416L221.688 255.008L222.286 255.003L222.623 258.192ZM339.003 11.7419L337.409 13.635L335.419 20.4474L333.443 24.2158L332.15 26.0446L330.182 29.7271L328.565 32.2849L327.972 33.8097L326.67 39.9212L327.68 41.4774L330.583 41.6535L332.6 41.502L333.661 41.8238L336.529 41.5838L337.354 41.7332L336.496 45.3523L334.844 48.0913L332.113 50.5379L330.632 52.5819L329.178 54.1331L325.608 56.7688L323.931 59.7464L323.285 63.2269L323.01 67.0008L322.449 68.782L321.444 70.853L320.92 74.6696L319.319 76.3463L318.326 76.0684L316.214 76.8387L312.174 79.8204L308.626 81.0265L306.3 82.8859L305.277 85.2038L305.653 89.0841L305.47 91.03L301.288 91.9209L300.089 91.2357L297.375 90.5687L295.001 91.6323L293.907 92.4913L291.748 94.7545L289.866 95.8756L289.267 97.7216L285.137 100.331L283.483 97.5344L282.752 97.0794L278.476 97.152L277.672 97.8839L276.48 100.334L272.436 105.92L273.129 106.517L276.497 108.066L278.449 110.394L279.093 113.513L279.983 114.142L280.637 115.472L281.186 119.79L282.147 122.305L284.512 124.542L286.659 127.416L288.416 129.034L291.351 131.212L292.399 132.646L294.033 137.572L294.256 139.492L293.86 143.422L293.323 145.194L292.419 145.747L290.51 145.95L289.861 147.678L290.624 148.418L292.569 149.371L292.92 150.131L293.152 155.258L291.933 157.435L291.267 159.22L290.266 160.305L289.43 159.95L287.468 157.767L286.545 157.579L285.429 156.637L284.778 154.689L283.045 154.323L282.476 155.118L280.091 156.795L280.427 158.322L279.928 158.98L276.433 161.071L275.548 162.801L275.414 165.77L272.351 168.555L268.814 172.65L266.875 175.313L266.196 177.337L265.129 178.836L263.644 180.316L262.129 180.247L260.273 178.502L258.883 176.079L256.724 173.318L255.562 172.45L254.007 172.302L252.615 173.677L251.631 177.167L249.48 179.209L249.836 182.409L249.527 184.168L248.029 186.395L246.144 188.213L244.853 187.687L243.896 189.578L241.296 189.142L240.528 189.648L239.413 191.295L240.717 192.341L242.737 191.396L243.316 192.56L245.117 194.1L247.394 194.556L248.828 194.096L249.836 194.452L250.675 195.569L248.313 196.145L246.085 197.035L245.316 197.854L244.263 196.931L245.011 195.317L243.033 194.323L242.266 193.041L241.219 192.618L239.52 194.847L240.251 195.51L241.543 193.539L244.149 195.951L243.577 197.038L244.263 196.931L244.1 198.951L242.73 201.122L240.972 201.674L237.706 200.279L236.078 199.041L235.512 197.311L234.018 195.695L232.77 196.435L231.11 196.409L230.681 197.005L228.829 197.747L227.194 198.802L226.815 200.332L226.802 203.393L226.536 206.887L226.944 209.04L228.266 211.647L229.304 216.335L229.558 219.138L231.398 223.568L231.377 224.404L230.308 228.13L230.949 229.706L233.839 231.93L234.489 232.865L233.067 235.21L232.106 236.3L230.193 237.067L228.016 237.547L225.644 240.476L224.335 243.598L224.047 245.148L222.823 247.738L222.451 250.558L222.286 255.003L221.647 254.326L221.48 250.319L219.801 250.503L219.064 250.109L216.566 250.706L215.275 249.895L214.226 249.991L214.747 252.709L215.571 255.437L216.272 256.859L217.461 258.074L218.961 258.832L219.681 259.619L223.013 259.949L222.623 258.192L225.364 262.873L227.306 264.496L229.288 265.586L230.157 265.305L231.054 264.212L232.966 264.517L235.242 266.386L237.343 267.666L239.504 269.339L240.415 269.536L242.627 271.736L244.26 272.679L245.753 275.026L246.98 275.734L247.601 277.643L248.77 278.917L250.528 279.309L251.333 278.282L252.426 278.649L253.028 279.835L255.111 279.472L258.05 281.396L257.422 283.137L258.454 284.762L258.692 286.591L259.287 287.313L257.948 289.043L253.832 290.877L252.273 289.877L251.789 288.733L250.175 289.059L250.401 287.14L249.412 286.403L248.297 286.294L246.517 287.582L245.055 286.805L244.395 284.883L242.113 284.476L240.383 281.34L239.045 280.292L237.533 279.751L233.739 280.466L231.899 281.339L230.288 281.202L228.482 280.427L226.048 279.72L224.417 280.048L223.29 279.411L223.22 276.713L224.132 275.355L224.372 274.111L222.046 273.629L222.668 275.531L222.615 276.5L221.071 278.916L223.335 280.542L223.484 281.829L222.544 284.538L222.413 286.871L222.635 288.185L222.453 290.817L223.171 293.535L221.862 294.151L221.51 295.105L218.097 296.328L217.521 296.93L214.798 296.663L212.816 296.048L210.852 294.058L208.726 293.778L208.017 293.149L207.235 291.009L206.712 290.391L206.628 288.852L205.574 287.286L205.285 285.654L203.836 283.23L203.308 281.219L202.122 279.34L202.093 278.503L201.195 276.811L200.247 275.876L199.944 274.531L198.393 271.528L197.448 268.845L197.341 267.396L196.59 265.665L195.5 264.031L196.192 260.645L197.46 261.522L199.666 261.858L200.635 261.087L201.797 258.665L202.869 254.56L202.979 252.422L202.867 248.814L202.255 242.829L201.135 238.585L198.355 232.314L197.175 230.845L195.229 227.421L191.284 222.021L189.446 219.809L186.592 217.057L186.3 216.356L182.394 212.162L177.058 206.906L173.801 204.213L172.309 203.511L169.606 201.776L167.385 202.52L166.881 203.363L165.37 203.125L164.382 202.556L164.41 201.494L159.76 196.103L157.424 193.571L154.944 191.542L153.164 191.501L151.289 189.627L148.516 187.951L146.949 185.488L145.613 184.786L144.797 183.341L142.83 181.208L141.801 179.645L140.854 179.258L138.183 175.33L136.398 175.204L136.775 173.794L136.561 172.695L135.664 171.339L134.815 170.788L134.181 169.568L132.069 166.552L131.33 166.557L129.809 164.699L129.893 163.24L128.619 162.194L128.503 161.26L127.354 159.411L126.003 158.173L125.014 156.469L123.938 156.013L124.006 154.529L122.845 152.302L118.141 146.429L113.037 141.21L112.037 140.971L110.68 139.345L109.899 139.364L107.573 136.594L105.918 136.733L105.048 136.086L104.188 134.372L103.006 133.466L101.781 133.093L101.038 131.506L100.249 132.172L99.1849 132.048L98.7776 130.216L96.8925 129.575L95.8534 128.057L94.9324 127.49L93.3491 128.047L93.444 129.719L91.6587 129.275L91.1626 128.245L90.0495 127.656L90.3373 126.55L91.7676 125.993L91.5826 124.533L90.5904 124.088L89.23 125.489L87.8315 124.048L86.2716 123.421L86.8362 122.114L86.6712 120.979L87.8578 118.576L86.1439 117.739L85.8959 116.064L86.1043 114.949L85.8074 113.416L86.2341 112.421L88.538 112.319L88.9554 110.549L88.2001 108.98L86.7607 109.191L86.0145 110.505L84.6895 107.892L85.4673 107.375L85.5735 106.04L86.407 105.573L87.2422 104.021L86.424 101.402L84.8604 100.048L84.4059 97.0679L84.6226 96.3558L83.859 94.9014L85.6657 93.5028L86.2524 92.0495L87.2753 91.131L88.0229 88.7273L87.5942 87.134L86.789 86.7424L84.5052 84.8335L81.6389 85.1013L81.121 89.707L80.4383 90.8181L78.6853 90.593L76.7181 89.3612L75.7707 89.1929L74.6147 88.0376L74.2194 86.7004L72.5796 86.6113L71.4065 85.3823L70.4499 83.5213L69.128 83.145L66.9253 83.7822L65.846 84.6634L66.1488 87.6517L65.677 88.277L64.23 88.2233L61.5132 87.0966L59.5897 86.8647L58.3857 87.9743L58.0522 86.6462L55.8335 86.6096L55.6527 85.8131L54.349 84.2152L52.897 83.3756L51.8697 83.3455L49.7258 82.0305L49.0153 83.1775L47.8009 83.281L47.4392 81.3678L46.134 81.1488L43.4034 82.3778L43.7713 83.7101L43.1287 85.5123L41.9885 85.0179L41.626 84.0602L38.4089 83.1353L35.4915 83.8747L34.4818 83.0634L30.5037 82.9195L29.2616 81.4801L27.3434 81.261L25.788 82.7949L24.829 82.1906L20.7148 82.036L19.8636 81.6591L19.1943 79.4699L18.4226 78.4834L17.8724 75.6115L16.5274 74.6142L15.4887 74.6484L14.4501 73.1209L12.1456 72.3866L11.1522 71.1519L10.3858 69.413L9.34131 68.7926L8.62017 67.0519L7.87657 67.1342L6.03113 64.8022L4.92395 63.8727L1.26172 61.9509L1.80627 62.0886L3.63624 60.2078L6.63029 55.9166L10.1777 49.509L12.4495 47.2615L17.3356 43.0244L18.9199 41.8324L19.4785 40.9799L21.1032 39.9179L24.0233 39.1031L26.5086 38.8354L27.3972 38.1813L27.964 36.4963L30.0155 35.5601L36.3028 36.362L38.5818 38.6261L40.1177 41.0635L42.8753 43.9434L44.5425 45.1314L45.9125 47.3698L45.7952 49.5398L46.1834 51.8351L49.3668 56.772L50.0182 58.1185L52.9095 60.7706L57.6234 63.973L59.1656 65.4528L60.1521 65.2243L61.9469 64.054L69.9521 63.9568L70.7138 64.4471L71.65 66.4176L73.6888 69.2024L73.67 70.5645L71.8951 70.8584L71.2004 71.8785L72.6795 75.3463L74.3819 77.644L76.5827 79.7475L78.1901 83.668L81.732 82.3146L87.1707 82.0994L89.5607 84.1188L91.804 83.8102L94.4247 84.0358L97.1666 82.7039L102.86 79.3171L104.89 76.7921L105.037 73.7487L106.409 71.793L107.388 68.9144L108.894 68.6497L110.112 69.3544L112.363 73.5401L115.49 76.9052L117.624 78.7988L118.215 77.2056L119.307 77.4006L121.597 76.5996L122.483 75.9876L122.481 74.6719L121.737 72.2522L120.457 69.5644L120.046 67.275L120.517 65.8008L122.03 64.9613L124.138 64.2019L126.324 62.0407L127.685 62.1084L129.779 63.149L130.536 63.9064L131.178 65.7952L132.625 68.2337L135.204 70.3485L137.216 71.0064L138.504 70.9426L143.454 67.3923L144.398 63.878L144.542 62.6912L146.262 62.6599L147.124 60.7735L148.171 59.6324L150.74 57.8527L151.198 56.6139L150.889 55.3698L151.718 54.3516L152.581 54.3387L154.483 55.2477L156.413 54.7683L157.363 53.5995L158.947 54.5092L160.338 54.4479L161.66 53.554L166.153 50.0236L166.859 50.8379L167.891 53.6279L169.716 56.5368L171.153 60.1298L172.357 61.8209L174.183 62.8422L174.501 63.7571L176.276 66.0303L176.407 67.3984L178.114 70.5551L179.177 70.8501L181.172 73.287L181.91 74.5524L183.395 76.0301L184.07 78.1932L185.811 78.7062L186.461 79.2997L187.488 80.6546L189.043 81.4406L190.974 80.8025L191.533 79.2458L192.36 78.929L193.99 79.1689L193.667 77.4161L194.148 76.6344L196.224 75.3304L196.772 74.681L197.715 71.1105L197.071 69.6098L195.383 68.4966L196.375 66.8066L196.511 63.8496L197.94 61.3197L198.41 59.2284L198.461 56.6122L198.241 51.7405L198.755 50.171L200.401 49.7584L204.371 50.024L204.822 48.972L203.75 47.6098L203.528 45.1208L203.797 43.6578L205.942 42.0056L206.204 37.6767L206.943 36.7057L209.523 36.9857L210.151 34.617L210.252 32.9914L211.959 25.0884L213.232 22.4589L214.102 22.0266L217.012 21.8773L219.752 22.4065L220.705 22.1429L222.599 22.6232L225.556 24.738L226.664 25.7734L228.089 26.0993L230.637 23.9445L232.974 23.5109L238.068 24.0765L239.175 24.4513L240.215 26.1415L242.054 29.7939L244.821 33.6363L245.247 35.5404L245.336 38.5006L246.258 39.3L249.14 39.3025L250.655 40.9646L252.099 41.0275L256.033 40.4123L259.029 39.6735L262.771 38.4679L264.845 38.2742L266.407 33.7909L268.079 31.5864L270.372 30.3984L272.735 30.2235L274.891 27.8992L276.325 27.7086L278.917 28.6159L283.07 29.0824L287.161 28.2185L286.946 27.0017L289.159 26.5211L290.469 25.7946L296.314 23.9752L297.922 22.2517L297.826 21.008L296.977 20.2508L296.962 18.8526L297.948 15.7689L298.24 13.602L299.404 12.1085L303.842 12.5529L305.887 12.571L307.754 12.2893L311.025 10.9867L311.547 12.1044L311.433 15.1261L311.652 17.0925L312.137 17.8624L313.521 17.1656L317.524 13.8704L320.246 12.4901L321.588 12.0439L324.276 6.66594L325.773 4.76988L327.215 4.56637L330.212 3.56641L332.942 5.91385L335.414 10.2841L336.945 11.3566L339.003 11.7419Z" fill="#1E1E1E"/>
<path d="M222.623 258.192L222.183 257.416L221.688 255.008L222.286 255.003M222.623 258.192L222.286 255.003M222.623 258.192L223.013 259.949L219.681 259.619L218.961 258.832L217.461 258.074L216.272 256.859L215.571 255.437L214.747 252.709L214.226 249.991L215.275 249.895L216.566 250.706L219.064 250.109L219.801 250.503L221.48 250.319L221.647 254.326L222.286 255.003M222.623 258.192L225.364 262.873L227.306 264.496L229.288 265.586L230.157 265.305L231.054 264.212L232.966 264.517L235.242 266.386L237.343 267.666L239.504 269.339L240.415 269.536L242.627 271.736L244.26 272.679L245.753 275.026L246.98 275.734L247.601 277.643L248.77 278.917L250.528 279.309L251.333 278.282L252.426 278.649L253.028 279.835L255.111 279.472L258.05 281.396L257.422 283.137L258.454 284.762L258.692 286.591L259.287 287.313L257.948 289.043L253.832 290.877L252.273 289.877L251.789 288.733L250.175 289.059L250.401 287.14L249.412 286.403L248.297 286.294L246.517 287.582L245.055 286.805L244.395 284.883L242.113 284.476L240.383 281.34L239.045 280.292L237.533 279.751L233.739 280.466L231.899 281.339L230.288 281.202L228.482 280.427L226.048 279.72L224.417 280.048L223.29 279.411L223.22 276.713L224.132 275.355L224.372 274.111L222.046 273.629L222.668 275.531L222.615 276.5L221.071 278.916L223.335 280.542L223.484 281.829L222.544 284.538L222.413 286.871L222.635 288.185L222.453 290.817L223.171 293.535L221.862 294.151L221.51 295.105L218.097 296.328L217.521 296.93L214.798 296.663L212.816 296.048L210.852 294.058L208.726 293.778L208.017 293.149L207.235 291.009L206.712 290.391L206.628 288.852L205.574 287.286L205.285 285.654L203.836 283.23L203.308 281.219L202.122 279.34L202.093 278.503L201.195 276.811L200.247 275.876L199.944 274.531L198.393 271.528L197.448 268.845L197.341 267.396L196.59 265.665L195.5 264.031L196.192 260.645L197.46 261.522L199.666 261.858L200.635 261.087L201.797 258.665L202.869 254.56L202.979 252.422L202.867 248.814L202.255 242.829L201.135 238.585L198.355 232.314L197.175 230.845L195.229 227.421L191.284 222.021L189.446 219.809L186.592 217.057L186.3 216.356L182.394 212.162L177.058 206.906L173.801 204.213L172.309 203.511L169.606 201.776L167.385 202.52L166.881 203.363L165.37 203.125L164.382 202.556L164.41 201.494L159.76 196.103L157.424 193.571L154.944 191.542L153.164 191.501L151.289 189.627L148.516 187.951L146.949 185.488L145.613 184.786L144.797 183.341L142.83 181.208L141.801 179.645L140.854 179.258L138.183 175.33L136.398 175.204L136.775 173.794L136.561 172.695L135.664 171.339L134.815 170.788L134.181 169.568L132.069 166.552L131.33 166.557L129.809 164.699L129.893 163.24L128.619 162.194L128.503 161.26L127.354 159.411L126.003 158.173L125.014 156.469L123.938 156.013L124.006 154.529L122.845 152.302L118.141 146.429L113.037 141.21L112.037 140.971L110.68 139.345L109.899 139.364L107.573 136.594L105.918 136.733L105.048 136.086L104.188 134.372L103.006 133.466L101.781 133.093L101.038 131.506L100.249 132.172L99.1849 132.048L98.7776 130.216L96.8925 129.575L95.8534 128.057L94.9324 127.49L93.3491 128.047L93.444 129.719L91.6587 129.275L91.1626 128.245L90.0495 127.656L90.3373 126.55L91.7676 125.993L91.5826 124.533L90.5904 124.088L89.23 125.489L87.8315 124.048L86.2716 123.421L86.8362 122.114L86.6712 120.979L87.8578 118.576L86.1439 117.739L85.8958 116.064L86.1043 114.949L85.8075 113.416L86.2341 112.421L88.538 112.319L88.9554 110.549L88.2001 108.98L86.7607 109.191L86.0145 110.505L84.6895 107.892L85.4673 107.375L85.5735 106.04L86.407 105.573L87.2422 104.021L86.424 101.402L84.8604 100.048L84.4059 97.0679L84.6226 96.3558L83.859 94.9014L85.6657 93.5028L86.2524 92.0495L87.2753 91.131L88.0228 88.7273L87.5942 87.134L86.789 86.7424L84.5052 84.8335L81.6389 85.1013L81.121 89.707L80.4383 90.8181L78.6853 90.593L76.7181 89.3612L75.7707 89.1929L74.6147 88.0376L74.2194 86.7004L72.5796 86.6113L71.4065 85.3823L70.4499 83.5213L69.128 83.145L66.9253 83.7822L65.846 84.6634L66.1488 87.6517L65.677 88.277L64.23 88.2233L61.5132 87.0966L59.5897 86.8647L58.3857 87.9743L58.0522 86.6462L55.8335 86.6096L55.6527 85.8131L54.349 84.2152L52.897 83.3756L51.8697 83.3455L49.7258 82.0305L49.0153 83.1775L47.8009 83.281L47.4392 81.3678L46.134 81.1488L43.4034 82.3778L43.7713 83.7101L43.1287 85.5123L41.9885 85.0179L41.626 84.0602L38.4089 83.1353L35.4915 83.8747L34.4818 83.0634L30.5037 82.9195L29.2616 81.4801L27.3434 81.261L25.788 82.7949L24.829 82.1906L20.7148 82.036L19.8636 81.6591L19.1943 79.4699L18.4226 78.4834L17.8724 75.6115L16.5274 74.6142L15.4887 74.6484L14.4501 73.1209L12.1456 72.3866L11.1522 71.1519L10.3858 69.413L9.34131 68.7926L8.62017 67.0519L7.87657 67.1342L6.03113 64.8022L4.92395 63.8727L1.26172 61.9509L1.80627 62.0886L3.63624 60.2078L6.63029 55.9166L10.1777 49.509L12.4495 47.2615L17.3356 43.0244L18.9199 41.8324L19.4785 40.9799L21.1032 39.9179L24.0233 39.1031L26.5086 38.8354L27.3972 38.1813L27.964 36.4963L30.0155 35.5601L36.3028 36.362L38.5818 38.6261L40.1177 41.0635L42.8753 43.9434L44.5425 45.1314L45.9125 47.3698L45.7952 49.5398L46.1834 51.8351L49.3668 56.772L50.0182 58.1185L52.9095 60.7706L57.6234 63.973L59.1656 65.4528L60.1521 65.2243L61.9469 64.054L69.9521 63.9568L70.7138 64.4471L71.65 66.4176L73.6888 69.2024L73.67 70.5645L71.8951 70.8584L71.2004 71.8785L72.6795 75.3463L74.3819 77.644L76.5827 79.7475L78.1901 83.668L81.732 82.3146L87.1707 82.0994L89.5607 84.1188L91.804 83.8102L94.4247 84.0358L97.1666 82.7039L102.86 79.3171L104.89 76.7921L105.037 73.7487L106.409 71.793L107.388 68.9144L108.894 68.6497L110.112 69.3544L112.363 73.5401L115.49 76.9052L117.624 78.7988L118.215 77.2056L119.307 77.4006L121.597 76.5996L122.483 75.9876L122.481 74.6719L121.737 72.2522L120.457 69.5644L120.046 67.275L120.517 65.8008L122.03 64.9613L124.138 64.2019L126.324 62.0407L127.685 62.1084L129.779 63.149L130.536 63.9064L131.178 65.7952L132.625 68.2338L135.204 70.3485L137.216 71.0064L138.504 70.9426L143.454 67.3923L144.398 63.878L144.542 62.6912L146.262 62.6599L147.124 60.7735L148.171 59.6324L150.74 57.8527L151.198 56.6139L150.889 55.3698L151.718 54.3516L152.581 54.3387L154.483 55.2476L156.413 54.7683L157.363 53.5995L158.947 54.5092L160.338 54.4479L161.66 53.554L166.153 50.0236L166.859 50.8379L167.891 53.6279L169.716 56.5368L171.153 60.1298L172.357 61.8209L174.183 62.8422L174.501 63.7571L176.276 66.0303L176.407 67.3984L178.114 70.5551L179.177 70.8501L181.172 73.287L181.91 74.5524L183.395 76.0301L184.07 78.1932L185.811 78.7062L186.461 79.2997L187.488 80.6546L189.043 81.4406L190.974 80.8025L191.533 79.2458L192.36 78.929L193.99 79.1689L193.667 77.4161L194.148 76.6344L196.224 75.3304L196.772 74.681L197.715 71.1106L197.071 69.6098L195.383 68.4966L196.375 66.8066L196.511 63.8496L197.94 61.3197L198.41 59.2284L198.461 56.6122L198.241 51.7405L198.755 50.171L200.401 49.7584L204.371 50.024L204.822 48.972L203.75 47.6098L203.528 45.1208L203.797 43.6578L205.942 42.0057L206.204 37.6767L206.943 36.7057L209.523 36.9857L210.151 34.617L210.252 32.9914L211.959 25.0884L213.232 22.4589L214.102 22.0266L217.012 21.8773L219.752 22.4065L220.705 22.1429L222.599 22.6232L225.556 24.738L226.664 25.7734L228.089 26.0993L230.637 23.9445L232.974 23.5109L238.068 24.0765L239.175 24.4513L240.215 26.1415L242.054 29.7939L244.821 33.6363L245.247 35.5404L245.336 38.5006L246.258 39.3L249.14 39.3025L250.655 40.9646L252.099 41.0275L256.033 40.4123L259.029 39.6735L262.771 38.4679L264.845 38.2742L266.407 33.7909L268.079 31.5864L270.372 30.3984L272.735 30.2235L274.891 27.8992L276.325 27.7086L278.917 28.6159L283.07 29.0824L287.161 28.2185L286.946 27.0017L289.159 26.5211L290.469 25.7946L296.314 23.9752L297.922 22.2517L297.826 21.008L296.977 20.2508L296.962 18.8526L297.948 15.7689L298.24 13.602L299.404 12.1085L303.842 12.5529L305.887 12.571L307.754 12.2893L311.025 10.9867L311.547 12.1044L311.433 15.1261L311.652 17.0925L312.137 17.8624L313.521 17.1656L317.524 13.8704L320.246 12.4901L321.588 12.0439L324.276 6.66594L325.773 4.76988L327.215 4.56637L330.212 3.56641L332.942 5.91385L335.414 10.2841L336.945 11.3566L339.003 11.7419L337.409 13.635L335.419 20.4474L333.443 24.2158L332.15 26.0446L330.182 29.7271L328.565 32.2849L327.972 33.8097L326.67 39.9212L327.68 41.4774L330.583 41.6535L332.6 41.502L333.662 41.8238L336.529 41.5838L337.354 41.7332L336.496 45.3523L334.844 48.0913L332.113 50.5379L330.631 52.5819L329.178 54.1331L325.608 56.7688L323.931 59.7464L323.285 63.2269L323.01 67.0008L322.449 68.782L321.444 70.853L320.92 74.6696L319.319 76.3463L318.326 76.0684L316.214 76.8387L312.174 79.8204L308.626 81.0265L306.3 82.8859L305.277 85.2038L305.653 89.0841L305.47 91.03L301.288 91.9209L300.089 91.2357L297.375 90.5687L295.001 91.6323L293.907 92.4913L291.748 94.7545L289.866 95.8756L289.267 97.7216L285.137 100.331L283.483 97.5344L282.752 97.0794L278.476 97.152L277.672 97.8839L276.48 100.334L272.436 105.92L273.129 106.517L276.497 108.066L278.449 110.394L279.093 113.513L279.983 114.142L280.637 115.472L281.186 119.79L282.147 122.305L284.512 124.542L286.659 127.416L288.416 129.034L291.351 131.212L292.399 132.646L294.033 137.572L294.256 139.492L293.86 143.422L293.323 145.194L292.419 145.747L290.51 145.95L289.861 147.678L290.624 148.418L292.569 149.371L292.92 150.131L293.152 155.258L291.933 157.435L291.267 159.22L290.266 160.305L289.43 159.95L287.468 157.767L286.545 157.579L285.429 156.637L284.778 154.689L283.045 154.323L282.476 155.118L280.091 156.795L280.427 158.322L279.928 158.981L276.433 161.071L275.548 162.801L275.414 165.77L272.351 168.555L268.814 172.65L266.875 175.313L266.196 177.337L265.129 178.836L263.644 180.316L262.129 180.247L260.273 178.502L258.883 176.079L256.724 173.318L255.562 172.45L254.007 172.302L252.615 173.677L251.631 177.167L249.48 179.209L249.836 182.409L249.527 184.168L248.029 186.395L246.144 188.213L244.853 187.687L243.896 189.578L241.296 189.142L240.528 189.648L239.413 191.295L240.717 192.341L242.737 191.396L243.316 192.56L245.117 194.1L247.394 194.556L248.828 194.096L249.836 194.452L250.675 195.569L248.313 196.145L246.085 197.035L245.316 197.854L244.263 196.931M222.286 255.003L222.451 250.558L222.823 247.738L224.047 245.148L224.335 243.598L225.644 240.476L228.016 237.547L230.193 237.067L232.106 236.3L233.067 235.21L234.489 232.865L233.839 231.93L230.949 229.706L230.308 228.13L231.377 224.404L231.398 223.568L229.558 219.138L229.304 216.335L228.266 211.647L226.944 209.04L226.536 206.887L226.802 203.393L226.815 200.332L227.194 198.802L228.829 197.747L230.681 197.005L231.11 196.409L232.77 196.435L234.018 195.695L235.512 197.311L236.078 199.041L237.706 200.279L240.972 201.674L242.73 201.122L244.1 198.951L244.263 196.931M244.263 196.931L245.011 195.317L243.033 194.323L242.266 193.041L241.219 192.618L239.52 194.847L240.251 195.51L241.543 193.539L244.149 195.951L243.577 197.038L244.263 196.931Z" stroke="white" stroke-width="5"/>
</svg>
