<svg width="330" height="361" viewBox="0 0 330 361" fill="none" xmlns="http://www.w3.org/2000/svg">
<path d="M79.1876 355.993L78.7526 356.789L76.6862 355.856L76.4963 353.726L78.1237 354.614L79.1876 355.993ZM152.732 339.893L152.56 341.008L151.035 341.027L150.346 340.397L151.647 339.579L152.732 339.893ZM81.493 340.417L81.7815 342.759L80.5934 344.339L78.5553 344.183L76.6263 343.228L77.3787 341.941L78.5013 342.406L79.3759 342.158L79.6865 343.575L80.7892 343.451L81.2595 342.648L80.2212 341.239L81.493 340.417ZM83.6334 336.265L84.8284 333.926L85.2887 334.265L83.6334 336.265ZM76.4214 335.646L77.9567 335.613L78.6445 336.828L80.5919 338.449L79.7312 338.816L79.2232 340.264L77.2003 338.981L75.8281 336.164L73.676 332.932L75.1848 333.781L76.3859 334.998L76.4214 335.646ZM44.3799 319.586L43.107 319.728L43.395 317.988L44.3799 319.586ZM33.6919 317.604L35.5467 319.924L35.8455 321.43L35.4887 322.481L36.2702 323.849L39.2158 325.578L37.0339 325.75L34.1613 324.542L33.9349 320.328L32.7121 318.005L33.6919 317.604ZM32.8733 316.87L31.7578 315.036L32.4322 314.906L33.2497 316.442L32.8733 316.87ZM22.0267 307.794L25.4755 308.288L28.9724 309.66L24.6904 308.316L22.0267 307.794ZM18.8024 292.388L16.2878 290.953L16.9409 290.281L18.0402 290.868L18.8024 292.388ZM10.4919 317.865L9.84229 316.931L6.95192 314.706L6.31166 313.13L7.3805 309.405L7.40157 308.569L5.56136 304.138L5.30702 301.336L4.26923 296.648L2.94773 294.041L2.53906 291.887L2.80524 288.394L2.81842 285.332L3.19685 283.803L4.83195 282.748L6.68377 282.006L6.4393 284.595L7.47308 285.859L8.99 285.189L11.2451 283.566L12.0073 284.345L10.8788 287.115L12.3687 286.386L13.0815 285.308L15.1367 286.086L14.6083 287.504L15.408 289.641L13.4972 290.51L11.982 291.872L8.21926 293.003L6.66316 294.19L8.19994 295.161L10.1271 294.562L11.1535 295.89L13.2182 294.946L14.2278 295.507L14.814 297.077L17.6392 296.457L18.9681 296.87L19.998 296.001L20.6758 296.74L23.0191 297.486L24.723 297.537L24.5292 298.877L20.2927 298.988L19.6412 298.328L18.2045 298.199L15.6148 299.15L14.1255 300.628L14.5746 302.772L14.2106 304.433L14.9846 305.927L14.8906 306.6L13.1349 307.12L11.0658 311.36L12.8643 311.696L13.718 313.158L12.907 314.103L11.603 316.667L10.4919 317.865ZM206.064 29.8583L206.729 31.4592L209.935 30.7171L212.263 31.1387L213.72 32.5517L215.677 31.5776L220.086 30.6641L222.223 30.889L222.785 31.475L222.311 32.5711L221.845 36.4447L222.052 38.7038L222.891 40.3453L223.134 41.9196L221.646 43.1791L215.275 45.1982L213.001 46.0793L216.291 53.2161L219.072 57.0966L221.828 60.1598L224.955 65.0054L226.543 66.7523L227.675 68.6223L228.5 69.0629L231.483 72.503L233.149 73.9418L236.708 73.8859L238.109 74.6265L239.531 76.2188L241.881 79.3074L242.839 79.8959L244.716 79.9811L247.659 82.0248L248.336 83.0453L247.775 84.5816L247.92 85.3867L249.451 86.4011L250.569 87.6456L250.374 89.3766L251.095 90.493L251.68 95.1609L252.607 96.5201L252.562 99.1333L250.478 103.191L250.027 104.935L250.501 106.786L252.402 109.096L253.961 110.399L255.44 111.086L258.106 113.511L260.56 113.067L261.362 113.738L261.393 115.265L262.187 116.027L266.228 117.235L266.7 119.501L268.303 119.59L269.721 120.443L271.154 120.831L272.049 120.418L271.746 118.562L272.497 118.225L274.836 119.425L279.003 120.244L280.961 120.188L283.891 119.217L285.743 119.39L290.534 120.907L293.599 119.704L295.692 119.713L298.915 119.269L301.535 119.415L303.085 120.051L304.872 121.992L307.104 121.572L308.279 122.933L307.76 123.921L308.329 126.365L311.194 127.102L311.662 127.912L310.891 130.258L310.745 132.004L311.594 134.348L313.637 135.198L313.064 137.283L313.681 138.624L316.669 138.795L317.587 139.263L317.248 140.975L317.887 142.693L319.687 145.281L318.942 147.394L319.267 149.467L318.459 151.325L318.592 153.292L319.322 157.098L321.486 158.137L325.618 158.461L326.797 159.543L327.186 160.879L327.049 163.034L326.083 166.633L325.641 168.991L323.483 170.976L322.564 172.41L321.388 175.731L320.176 178.533L316.271 182.86L312.372 185.731L310.753 188.156L309.256 192.13L307.757 192.171L305.853 190.928L303.45 191.888L302.996 194.619L302.189 195.447L300.204 196.518L298.286 197.175L296.729 198.728L296.294 200.006L294.732 200.656L293.793 204.609L294.106 206.184L290.695 208.433L289.965 211.642L287.517 214.435L288.912 216.634L288.877 217.739L288.042 220.25L288.018 221.215L289.268 222.399L291.351 223.754L290.143 225.689L290.942 226.706L292.767 227.179L294.034 227.88L295.175 229.866L295.455 231.579L298.326 232.164L299.39 233.106L298.352 234.91L296.841 236.21L295.111 237.266L290.993 238.557L289.027 239.608L287.009 241.668L281.144 245.095L279.641 245.604L277.496 245.722L275.891 246.185L275.731 248.933L276.567 253.763L276.105 254.606L271.701 257.333L268.688 260.022L266.69 260.714L264.95 261.702L262.355 262.624L261.55 263.407L260.728 265.183L259.225 266.985L257.638 268.026L254.041 269.932L251.059 272.108L248.729 273.08L243.671 269.874L239.138 267.536L238.772 266.735L235.684 265.302L230.953 264.121L229.039 264.307L225.213 265.235L224.064 266.581L221.293 268.487L218.68 268.706L217.81 267.998L215.21 267.905L213.537 266.524L212.462 264.361L211.667 261.608L210.882 260.809L209.257 260.748L208.319 261.908L207.367 261.632L207.071 262.997L205.543 263.649L206.048 265.035L205.159 265.669L204.507 267.02L202.651 266.979L198.357 266.271L195.949 266.064L194.943 266.313L192.605 267.672L191.244 267.885L188.919 269.1L187.508 269.137L186.406 268.486L184.73 268.637L179.211 268.027L177.005 270.009L175.887 270.237L175.313 271.997L174.642 272.989L171.553 275.689L169.776 277.869L167.598 280.183L164.619 282.748L164.292 283.723L164.95 285.189L168.284 289.229L170.64 292.431L170.315 293.091L168.274 293.051L166.585 293.744L165.786 294.602L164.293 294.402L163.387 295.104L161.844 294.628L161.061 295.749L161.004 296.938L162.278 299.019L163.001 300.958L165.138 305.22L165.283 306.622L164.379 307.988L168.506 313.083L169.656 315.037L170.184 317.454L166.514 316.6L161.719 316.37L157.273 317.868L155.174 319.759L154.375 321.636L154.191 324.457L155.253 326.986L154.666 329.903L153.624 329.019L153.853 331.569L153.16 331.46L152.685 329.973L152.961 328.66L152.257 325.568L152.692 324.784L151.744 323.722L151.818 321.577L151.471 320.364L150.455 319.759L149.901 320.928L150.855 321.523L150.697 322.381L148.599 320.338L146.814 320.772L145.521 321.858L144.273 322.42L144.096 324.44L145.236 325.055L145.676 324.285L146.902 325.44L146.549 326.897L145.445 328.624L143.976 329.556L140.537 330.013L139.291 330.755L138.54 331.832L139.471 333.787L140.224 334.497L142.901 335.25L145.03 336.607L147.883 337.452L147.663 336.521L149.078 335.853L151.58 337.862L154.655 337.959L152.061 338.959L148.874 338.838L143.968 337.232L141.008 335.933L139.266 334.898L137.242 333.329L137.002 333.926L139.266 334.898L145.025 338.453L149.192 340.853L146.793 341.578L145.353 340.315L142.774 339.817L140.691 338.473L139.073 336.495L137.802 335.676L136.084 335.613L134.12 334.382L133.202 335.159L133.676 336.113L134.882 336.628L135.846 337.637L138.822 338.406L141.973 340.988L143.709 341.606L145.377 343.072L141.172 341.243L140.253 340.667L137.016 339.315L135.126 338.099L135.172 339.036L140.425 341.345L140.799 342.414L138.237 342.756L140.951 345.504L139.825 345.427L138.614 344.5L137.471 345.35L134.87 344.338L133.336 342.87L132.643 343.176L131.55 341.831L129.242 341.787L128.501 342.75L125.761 341.574L118.102 339.036L117.41 339.056L115.555 340.083L112.646 343.053L111.004 344.227L110.559 343.484L109.878 340.408L110.75 340.762L111.646 342.883L112.424 342.422L115.555 340.083L118.048 338.391L115.987 336.283L113.541 337.324L111.917 337.754L110.609 337.048L109.362 335.402L108.892 334.114L109.446 333.114L108.393 332.354L107.048 333.146L105.976 333.117L105.871 331.624L104.577 330.315L104.207 328.582L104.414 327.036L102.932 325.307L100.82 324.432L100.2 323.701L99.0903 323.627L96.9565 324.595L95.993 325.947L91.6639 328.122L90.5087 328.062L89.9122 325.156L91.1572 325.242L91.5572 326.441L92.529 325.687L90.7549 323.891L89.3195 323.978L88.0086 320.501L86.659 318.161L86.4408 317.131L85.1738 316.064L85.3228 314.546L86.1608 314.434L88.1383 312.687L87.7593 311.058L85.7915 312.633L84.6691 313.075L85.4815 310.953L86.7297 311.153L88.0277 309.507L87.7989 308.682L89.7658 305.975L91.282 306.315L92.0255 304.496L89.1931 305.37L87.7458 306.172L87.3198 307.469L85.5287 308.726L84.3801 308.843L83.0054 309.92L82.3938 309.288L81.5305 307.373L80.8987 307.111L80.2357 308.413L77.4415 305.549L75.801 305.926L75.4071 306.84L75.946 307.683L75.2887 308.509L74.3778 308.115L73.9922 305.553L72.921 303.802L70.0947 302.278L68.4253 302.451L68.1395 301.631L66.0317 298.818L64.9075 299.569L63.2003 299.66L64.6871 302.724L63.3831 303.21L62.4959 305.927L62.6897 306.812L64.0358 306.94L64.6606 307.505L64.7818 309.088L65.5863 310.653L64.4018 310.861L64.2611 309.873L63.1032 308.695L61.8276 307.961L61.6366 309.135L60.0944 308.705L59.2694 309.229L57.6546 307.784L57.3996 309.537L55.2114 311.176L54.3599 310.645L52.4915 312.373L52.5891 313.765L53.7833 315.093L51.6179 315.753L52.2058 318.899L50.4505 319.65L51.5511 320.372L53.7212 321.212L53.9942 322.1L55.0396 322.524L56.3519 325.076L55.2562 327.071L52.1575 327.611L50.5089 326.928L49.1824 325.479L49.318 324.484L48.4395 321.952L49.2464 319.735L47.1805 318.286L48.3617 317.718L49.4171 318.691L49.967 316.861L49.6713 314.5L48.1162 314.889L47.7956 314.342L48.546 313.123L49.7019 312.928L50.5062 311.578L50.9363 309.561L51.0777 307.336L49.4877 308.485L47.9727 307.848L46.917 307.86L45.6237 306.655L45.7499 305.092L45.3917 304.212L44.3896 304.093L43.6259 302.678L41.4318 302.844L40.5948 303.658L40.8987 304.688L40.7046 306.277L41.6837 307.65L42.4711 309.75L41.6197 309.96L40.5153 307.399L38.2874 304.091L39.0257 301.41L37.944 299.572L36.3261 300.216L36.2151 299.385L32.1003 300.357L31.4323 301.94L32.6223 303.488L31.9797 304.195L31.0267 303.654L31.0481 302.457L30.5013 301.421L29.4505 301.447L29.4015 299.369L28.0964 298.909L26.2886 299.22L26.3617 297.721L27.3782 297.451L29.8466 297.649L30.8022 297.334L32.6982 297.375L32.6238 298.171L34.4602 297.851L35.9569 296.081L37.207 295.479L36.3979 294.057L38.1438 290.772L40.209 288.848L40.1988 288.059L39.317 286.354L35.4481 283.135L35.01 282.032L32.9518 280.137L31.1555 276.892L29.6821 275.345L28.5241 277.357L27.8728 277.44L27.3088 278.911L26.3443 279.612L25.0574 278.571L26.1306 277.809L23.7454 277.127L23.4273 275.442L22.1476 273.214L24.0324 271.396L25.5305 269.168L25.8394 267.409L25.4836 264.21L27.6338 262.168L28.618 258.677L30.0105 257.303L31.5648 257.451L32.7268 258.319L34.8859 261.08L36.2766 263.502L38.1321 265.247L39.6477 265.317L41.132 263.837L42.1993 262.337L42.8787 260.314L44.8177 257.651L48.354 253.556L51.4175 250.77L51.5512 247.802L52.436 246.072L55.9314 243.981L56.4304 243.323L56.0947 241.796L58.4796 240.119L59.0482 239.324L60.7808 239.69L61.4324 241.638L62.5484 242.58L63.4709 242.768L65.4334 244.951L66.2692 245.305L67.2705 244.22L67.9367 242.435L69.1554 240.259L68.9236 235.132L68.5725 234.372L66.6273 233.418L65.8642 232.678L66.5129 230.951L68.4225 230.747L69.3267 230.195L69.8634 228.423L70.259 224.493L70.036 222.573L68.4019 217.647L67.354 216.213L64.4193 214.035L62.6625 212.417L60.5152 209.543L58.1507 207.306L57.1894 204.79L56.6406 200.473L55.9858 199.143L55.0962 198.513L54.4527 195.395L52.5005 193.066L49.1321 191.517L48.4396 190.921L52.4832 185.335L53.6756 182.885L54.4795 182.153L58.7554 182.08L59.4863 182.535L61.1406 185.332L65.2698 182.722L65.8693 180.876L67.7515 179.755L69.9102 177.492L71.0042 176.633L73.3783 175.569L76.0926 176.236L77.2909 176.922L81.4733 176.031L81.6559 174.085L81.28 170.205L82.3034 167.887L84.6293 166.027L88.1769 164.821L92.2171 161.839L94.3294 161.069L95.3225 161.347L96.9233 159.67L97.4477 155.854L98.4527 153.783L99.0137 152.001L99.2887 148.228L99.9344 144.747L101.611 141.77L105.181 139.134L106.635 137.583L108.116 135.539L110.847 133.092L112.5 130.353L113.358 126.734L112.533 126.585L109.665 126.825L108.604 126.503L106.586 126.654L103.683 126.478L102.674 124.922L103.975 118.81L104.568 117.286L106.185 114.728L108.153 111.045L109.446 109.217L111.422 105.448L113.412 98.6357L115.006 96.7427L116.926 96.3319L117.606 94.5497L119.678 93.4931L124.666 90.4794L128.317 86.6099L129.851 83.681L129.927 80.5518L130.363 79.4731L131.495 78.2425L131.652 76.7356L129.945 73.397L129.836 71.1437L128.724 69.1412L128.893 66.9702L130.989 66.5026L132.048 65.1657L132.428 62.3097L134.142 60.9053L134.617 58.847L134.596 56.9282L134.965 55.7688L136.495 53.4695L137.609 50.0428L137.648 48.3395L139.083 45.3455L139.708 44.7612L139.427 42.1303L139.783 40.0875L141.537 34.0937L142.68 33.5724L144.095 30.2303L146.136 27.6942L147.139 25.6243L146.989 24.7797L145.658 22.7926L145.317 21.5368L145.884 19.9962L146.532 14.843L146.194 12.2453L145.659 10.7212L144.705 9.45977L145.342 8.4975L147.08 9.20387L149.777 9.18934L150.152 10.078L149.856 11.6096L150.204 13.0741L151.529 14.9042L152.799 14.8768L154.229 16.1999L155.224 18.6503L158.878 24.469L159.718 27.5594L161.383 30.5144L161.633 31.6504L163.139 33.472L166.452 34.3537L168.219 35.0401L169.21 34.4385L171.667 33.8954L173.397 32.798L176.273 30.4079L175.301 29.953L177.217 27.9689L178.96 26.4909L182.624 20.6802L182.122 17.4781L181.698 16.1245L181.318 11.986L182.224 10.4865L183.757 9.04125L184.687 7.41804L185.998 6.15158L189.715 3.85547L190.203 4.47492L190.316 6.59372L192.589 6.80995L192.88 8.17665L192.622 9.62951L195.116 11.1976L196.745 13.5113L198.579 14.2023L200.024 15.1175L201.625 17.2493L201.964 19.7244L202.843 20.9352L202.744 23.2183L203.032 24.7624L203.815 26.2995L206.064 29.8583Z" fill="#1E1E1E"/>
<path d="M139.266 334.898L141.008 335.933L143.968 337.232L148.874 338.838L152.061 338.959L154.655 337.959L151.58 337.862L149.078 335.853L147.663 336.521L147.883 337.452L145.03 336.607L142.901 335.25L140.224 334.497L139.471 333.787L138.54 331.832L139.291 330.755L140.537 330.013L143.976 329.556L145.445 328.624L146.549 326.897L146.902 325.44L145.676 324.285L145.236 325.055L144.096 324.44L144.273 322.42L145.521 321.858L146.814 320.772L148.599 320.338L150.697 322.381L150.855 321.523L149.901 320.928L150.455 319.759L151.471 320.364L151.818 321.577L151.744 323.722L152.692 324.784L152.257 325.568L152.961 328.66L152.685 329.973L153.16 331.46L153.853 331.569L153.624 329.019L154.666 329.903L155.253 326.986L154.191 324.457L154.375 321.636L155.174 319.759L157.273 317.868L161.719 316.37L166.514 316.6L170.184 317.454L169.656 315.037L168.506 313.083L164.379 307.988L165.283 306.622L165.138 305.22L163.001 300.958L162.278 299.019L161.004 296.938L161.061 295.749L161.844 294.628L163.387 295.104L164.293 294.402L165.786 294.602L166.585 293.744L168.274 293.051L170.315 293.091L170.64 292.431L168.284 289.229L164.95 285.189L164.292 283.723L164.619 282.748L167.599 280.183L169.776 277.869L171.553 275.689L174.642 272.989L175.313 271.997L175.887 270.237L177.005 270.009L179.211 268.027L184.73 268.637L186.406 268.486L187.508 269.137L188.919 269.1L191.244 267.885L192.605 267.672L194.943 266.313L195.949 266.064L198.357 266.271L202.651 266.979L204.507 267.02L205.159 265.669L206.048 265.035L205.543 263.649L207.071 262.997L207.367 261.632L208.319 261.908L209.257 260.748L210.882 260.809L211.667 261.608L212.462 264.361L213.537 266.524L215.21 267.905L217.81 267.998L218.68 268.706L221.293 268.487L224.064 266.581L225.213 265.235L229.039 264.307L230.953 264.121L235.684 265.302L238.772 266.735L239.138 267.536L243.671 269.874L248.729 273.08L251.059 272.108L254.041 269.932L257.638 268.026L259.225 266.985L260.728 265.183L261.55 263.407L262.355 262.624L264.95 261.702L266.69 260.714L268.688 260.022L271.701 257.333L276.105 254.606L276.567 253.763L275.731 248.933L275.891 246.185L277.496 245.722L279.641 245.604L281.144 245.095L287.009 241.668L289.027 239.608L290.993 238.557L295.111 237.266L296.841 236.21L298.352 234.91L299.39 233.106L298.326 232.164L295.455 231.579L295.175 229.866L294.034 227.88L292.767 227.179L290.942 226.706L290.143 225.689L291.351 223.754L289.268 222.399L288.018 221.215L288.042 220.25L288.877 217.739L288.912 216.634L287.517 214.435L289.965 211.642L290.695 208.433L294.106 206.184L293.793 204.609L294.732 200.656L296.294 200.006L296.729 198.728L298.286 197.175L300.204 196.518L302.189 195.447L302.996 194.619L303.45 191.888L305.853 190.928L307.757 192.171L309.256 192.13L310.753 188.156L312.372 185.731L316.271 182.86L320.176 178.533L321.388 175.731L322.564 172.41L323.483 170.976L325.641 168.991L326.083 166.633L327.049 163.034L327.186 160.879L326.797 159.543L325.618 158.461L321.486 158.137L319.322 157.098L318.592 153.292L318.459 151.325L319.267 149.467L318.942 147.394L319.687 145.281L317.887 142.693L317.248 140.975L317.587 139.263L316.669 138.795L313.681 138.624L313.064 137.283L313.637 135.198L311.594 134.348L310.745 132.004L310.891 130.258L311.662 127.912L311.194 127.102L308.329 126.365L307.76 123.921L308.279 122.933L307.104 121.572L304.872 121.992L303.085 120.051L301.535 119.415L298.915 119.269L295.692 119.713L293.599 119.704L290.534 120.907L285.743 119.39L283.891 119.217L280.961 120.188L279.003 120.244L274.836 119.425L272.497 118.225L271.746 118.562L272.049 120.418L271.154 120.831L269.721 120.443L268.303 119.59L266.7 119.501L266.228 117.235L262.187 116.027L261.393 115.265L261.362 113.738L260.56 113.067L258.106 113.511L255.44 111.086L253.961 110.399L252.402 109.096L250.501 106.786L250.027 104.935L250.478 103.191L252.562 99.1333L252.607 96.5201L251.68 95.1609L251.095 90.493L250.374 89.3766L250.569 87.6456L249.451 86.4011L247.92 85.3867L247.775 84.5816L248.336 83.0454L247.659 82.0248L244.716 79.9811L242.839 79.8958L241.881 79.3074L239.531 76.2188L238.109 74.6265L236.708 73.8859L233.149 73.9418L231.483 72.503L228.5 69.0629L227.675 68.6223L226.543 66.7523L224.955 65.0054L221.828 60.1598L219.072 57.0966L216.291 53.2161L213.001 46.0793L215.275 45.1982L221.646 43.1791L223.134 41.9196L222.891 40.3453L222.052 38.7038L221.845 36.4447L222.311 32.5711L222.785 31.475L222.223 30.889L220.086 30.6641L215.677 31.5776L213.72 32.5517L212.263 31.1387L209.935 30.7171L206.729 31.4592L206.064 29.8583L203.815 26.2995L203.032 24.7624L202.744 23.2183L202.843 20.9352L201.964 19.7244L201.625 17.2493L200.024 15.1175L198.579 14.2023L196.745 13.5113L195.116 11.1976L192.622 9.62951L192.88 8.17665L192.589 6.80995L190.316 6.59372L190.203 4.47492L189.715 3.85547L185.998 6.15158L184.687 7.41804L183.757 9.04125L182.224 10.4865L181.318 11.986L181.698 16.1245L182.122 17.4781L182.624 20.6802L178.96 26.4909L177.217 27.9689L175.301 29.953L176.273 30.4079L173.397 32.798L171.667 33.8954L169.21 34.4385L168.219 35.0401L166.452 34.3537L163.139 33.472L161.633 31.6504L161.383 30.5144L159.718 27.5594L158.878 24.469L155.224 18.6503L154.229 16.1999L152.799 14.8768L151.529 14.9042L150.204 13.0741L149.856 11.6096L150.152 10.078L149.777 9.18934L147.08 9.20387L145.342 8.4975L144.705 9.45977L145.659 10.7212L146.194 12.2453L146.532 14.843L145.884 19.9962L145.317 21.5368L145.658 22.7926L146.989 24.7797L147.139 25.6243L146.136 27.6942L144.095 30.2303L142.68 33.5724L141.537 34.0937L139.783 40.0875L139.427 42.1303L139.708 44.7612L139.083 45.3455L137.648 48.3395L137.609 50.0428L136.495 53.4695L134.965 55.7688L134.596 56.9282L134.617 58.847L134.142 60.9052L132.428 62.3097L132.048 65.1657L130.989 66.5026L128.893 66.9702L128.724 69.1412L129.836 71.1437L129.945 73.397L131.652 76.7356L131.495 78.2425L130.363 79.4731L129.927 80.5518L129.851 83.681L128.317 86.6099L124.666 90.4794L119.678 93.4931L117.606 94.5497L116.926 96.3319L115.006 96.7427L113.412 98.6357L111.422 105.448L109.446 109.217L108.153 111.045L106.185 114.728L104.568 117.286L103.975 118.81L102.674 124.922L103.683 126.478L106.586 126.654L108.604 126.503L109.665 126.825L112.533 126.585L113.358 126.734L112.5 130.353L110.847 133.092L108.116 135.539L106.635 137.583L105.181 139.134L101.611 141.77L99.9344 144.747L99.2887 148.228L99.0137 152.001L98.4527 153.783L97.4477 155.854L96.9233 159.67L95.3225 161.347L94.3294 161.069L92.2171 161.839L88.1769 164.821L84.6293 166.027L82.3034 167.887L81.28 170.205L81.6559 174.085L81.4733 176.031L77.2909 176.922L76.0926 176.236L73.3783 175.569L71.0042 176.633L69.9102 177.492L67.7515 179.755L65.8693 180.876L65.2698 182.722L61.1406 185.332L59.4863 182.535L58.7554 182.08L54.4794 182.153L53.6756 182.885L52.4832 185.335L48.4396 190.921L49.1321 191.517L52.5005 193.066L54.4527 195.395L55.0962 198.513L55.9858 199.143L56.6406 200.473L57.1894 204.79L58.1507 207.306L60.5152 209.543L62.6625 212.417L64.4193 214.035L67.354 216.213L68.4019 217.647L70.036 222.573L70.259 224.493L69.8634 228.423L69.3267 230.195L68.4225 230.747L66.5129 230.951L65.8642 232.678L66.6273 233.418L68.5725 234.372L68.9236 235.132L69.1554 240.259L67.9367 242.435L67.2705 244.22L66.2692 245.305L65.4334 244.951L63.4709 242.768L62.5484 242.58L61.4324 241.638L60.7808 239.69L59.0482 239.324L58.4796 240.119L56.0947 241.796L56.4304 243.323L55.9314 243.981L52.436 246.072L51.5512 247.802L51.4175 250.77L48.3539 253.556L44.8177 257.651L42.8787 260.314L42.1993 262.337L41.132 263.837L39.6477 265.317L38.1322 265.247L36.2766 263.502L34.8859 261.08L32.7268 258.319L31.5648 257.451L30.0105 257.303L28.618 258.677L27.6338 262.168L25.4836 264.21L25.8394 267.409L25.5305 269.168L24.0324 271.396L22.1476 273.214L23.4273 275.442L23.7454 277.127L26.1306 277.809L25.0574 278.571L26.3443 279.612L27.3088 278.911L27.8728 277.44L28.5241 277.357L29.6821 275.345L31.1555 276.892L32.9518 280.137L35.01 282.032L35.4481 283.135L39.317 286.354L40.1988 288.059L40.209 288.848L38.1438 290.772L36.3979 294.057L37.207 295.479L35.9569 296.081L34.4602 297.851L32.6238 298.171L32.6982 297.375L30.8022 297.334L29.8466 297.649L27.3782 297.451L26.3617 297.721L26.2886 299.22L28.0964 298.909L29.4015 299.369L29.4505 301.447L30.5013 301.421L31.0481 302.457L31.0267 303.654L31.9797 304.195L32.6223 303.488L31.4323 301.94L32.1003 300.357L36.2151 299.385L36.3261 300.216L37.944 299.572L39.0257 301.41L38.2874 304.091L40.5153 307.399L41.6197 309.96L42.4711 309.75L41.6837 307.65L40.7046 306.277L40.8987 304.688L40.5948 303.658L41.4318 302.844L43.6259 302.678L44.3896 304.093L45.3917 304.212L45.7499 305.092L45.6237 306.655L46.917 307.86L47.9727 307.848L49.4877 308.485L51.0777 307.336L50.9363 309.561L50.5062 311.578L49.7019 312.928L48.546 313.123L47.7956 314.342L48.1162 314.889L49.6713 314.5L49.967 316.861L49.4171 318.691L48.3617 317.718L47.1805 318.286L49.2464 319.735L48.4395 321.952L49.318 324.484L49.1824 325.479L50.5089 326.928L52.1575 327.611L55.2562 327.071L56.3519 325.076L55.0396 322.524L53.9942 322.1L53.7212 321.212L51.5511 320.372L50.4505 319.65L52.2058 318.899L51.6179 315.753L53.7833 315.093L52.5891 313.765L52.4915 312.373L54.3599 310.645L55.2114 311.176L57.3996 309.537L57.6546 307.784L59.2694 309.229L60.0944 308.705L61.6366 309.135L61.8276 307.961L63.1032 308.695L64.2611 309.873L64.4018 310.861L65.5863 310.653L64.7818 309.088L64.6606 307.505L64.0358 306.94L62.6897 306.812L62.4959 305.927L63.3831 303.21L64.6871 302.724L63.2003 299.66L64.9075 299.569L66.0317 298.818L68.1395 301.631L68.4253 302.451L70.0947 302.278L72.921 303.802L73.9922 305.553L74.3778 308.115L75.2887 308.509L75.946 307.683L75.4071 306.84L75.801 305.926L77.4415 305.549L80.2357 308.413L80.8987 307.111L81.5305 307.373L82.3938 309.288L83.0054 309.92L84.3801 308.843L85.5287 308.726L87.3198 307.469L87.7458 306.172L89.1931 305.37L92.0255 304.496L91.282 306.315L89.7658 305.975L87.7989 308.682L88.0277 309.507L86.7297 311.153L85.4815 310.953L84.6691 313.075L85.7915 312.633L87.7593 311.058L88.1383 312.687L86.1608 314.434L85.3228 314.546L85.1738 316.064L86.4408 317.131L86.659 318.161L88.0086 320.501L89.3195 323.978L90.7549 323.891L92.529 325.687L91.5572 326.441L91.1572 325.242L89.9122 325.156L90.5087 328.062L91.6639 328.122L95.993 325.947L96.9565 324.595L99.0903 323.627L100.2 323.701L100.82 324.432L102.932 325.307L104.414 327.037L104.207 328.582L104.577 330.315L105.871 331.624L105.976 333.117L107.048 333.146L108.393 332.354L109.446 333.114L108.892 334.114L109.362 335.402L110.609 337.048L111.917 337.754L113.541 337.324L115.987 336.283L118.048 338.391L115.555 340.083M139.266 334.898L137.242 333.329L137.002 333.926L139.266 334.898ZM139.266 334.898L145.025 338.453L149.192 340.853L146.793 341.578L145.353 340.315L142.774 339.817L140.691 338.473L139.073 336.495L137.802 335.676L136.084 335.613L134.12 334.382L133.202 335.159L133.676 336.113L134.882 336.628L135.846 337.637L138.822 338.406L141.973 340.988L143.709 341.606L145.377 343.072L141.172 341.243L140.253 340.667L137.016 339.315L135.126 338.099L135.172 339.036L140.425 341.345L140.799 342.414L138.237 342.756L140.951 345.504L139.825 345.427L138.614 344.5L137.471 345.35L134.87 344.338L133.336 342.87L132.643 343.176L131.55 341.831L129.242 341.787L128.501 342.75L125.761 341.574L118.102 339.036L117.41 339.056L115.555 340.083M115.555 340.083L112.646 343.053L111.004 344.227L110.559 343.484L109.878 340.408L110.75 340.762L111.646 342.883L112.424 342.422L115.555 340.083ZM79.1876 355.993L78.7526 356.789L76.6862 355.856L76.4963 353.726L78.1237 354.614L79.1876 355.993ZM152.732 339.893L152.56 341.008L151.035 341.027L150.346 340.397L151.647 339.579L152.732 339.893ZM81.493 340.417L81.7815 342.759L80.5934 344.339L78.5553 344.183L76.6263 343.228L77.3787 341.941L78.5013 342.406L79.3759 342.158L79.6865 343.575L80.7892 343.451L81.2595 342.648L80.2212 341.239L81.493 340.417ZM83.6334 336.265L84.8284 333.926L85.2887 334.265L83.6334 336.265ZM76.4214 335.646L77.9567 335.613L78.6445 336.828L80.5919 338.449L79.7312 338.816L79.2232 340.264L77.2003 338.981L75.8281 336.164L73.676 332.932L75.1848 333.781L76.3859 334.998L76.4214 335.646ZM44.3799 319.586L43.107 319.728L43.395 317.988L44.3799 319.586ZM33.6919 317.605L35.5467 319.924L35.8455 321.43L35.4887 322.481L36.2702 323.849L39.2158 325.578L37.0339 325.75L34.1613 324.542L33.9349 320.328L32.7121 318.005L33.6919 317.605ZM32.8733 316.87L31.7578 315.036L32.4322 314.906L33.2497 316.442L32.8733 316.87ZM22.0267 307.794L25.4755 308.288L28.9724 309.66L24.6904 308.316L22.0267 307.794ZM18.8024 292.388L16.2878 290.953L16.9409 290.281L18.0402 290.868L18.8024 292.388ZM10.4919 317.865L9.84229 316.931L6.95192 314.706L6.31166 313.13L7.3805 309.405L7.40157 308.569L5.56136 304.138L5.30702 301.336L4.26923 296.648L2.94773 294.041L2.53906 291.887L2.80524 288.394L2.81842 285.332L3.19685 283.803L4.83195 282.748L6.68377 282.006L6.4393 284.595L7.47308 285.859L8.99 285.189L11.2451 283.566L12.0073 284.345L10.8788 287.115L12.3687 286.386L13.0815 285.308L15.1367 286.086L14.6083 287.504L15.408 289.641L13.4972 290.51L11.982 291.872L8.21927 293.003L6.66316 294.19L8.19994 295.161L10.1271 294.562L11.1535 295.89L13.2182 294.946L14.2278 295.507L14.814 297.077L17.6392 296.457L18.9681 296.87L19.998 296.001L20.6758 296.74L23.0191 297.486L24.723 297.537L24.5292 298.877L20.2927 298.988L19.6412 298.328L18.2045 298.199L15.6148 299.15L14.1255 300.628L14.5746 302.772L14.2106 304.433L14.9846 305.927L14.8906 306.6L13.1349 307.12L11.0658 311.36L12.8643 311.696L13.718 313.158L12.907 314.102L11.603 316.667L10.4919 317.865Z" stroke="white" stroke-width="5"/>
</svg>
