<svg width="389" height="494" viewBox="0 0 389 494" fill="none" xmlns="http://www.w3.org/2000/svg">
<path d="M87.8794 169.314L87.5734 166.564L88.3152 166.658L88.4268 167.996L87.8794 169.314ZM330.145 16.0931L330.654 17.4314L330.421 19.2635L329.308 21.6475L329.316 23.7674L328.842 24.6764L329.216 26.4422L330.397 27.9411L330.766 29.258L330.003 32.0694L329.859 33.8214L331.275 35.9831L332.691 37.3094L334.078 39.3746L334.812 41.7249L335.029 43.2863L336.028 44.9568L340.568 48.9765L341.69 50.692L342.657 51.4508L344.867 51.9821L347.376 52.2618L348.945 53.0036L349.301 54.7413L348.393 56.2694L348.227 57.6158L347.37 58.968L346.3 59.4507L346.073 60.2844L346.526 62.0304L345.551 63.0455L344.312 63.3473L343.422 64.52L343.385 65.8972L342.806 69.2668L341.752 70.453L339.022 71.9968L338.543 72.5914L338.885 76.3835L338.259 77.7005L338.616 78.9718L339.715 80.9055L339.797 82.2563L337.655 82.0752L337.222 82.451L338.181 84.0998L341.252 86.168L341.756 87.1095L340.226 87.7883L337.865 87.7936L334.412 88.4888L332.32 88.6154L330.481 89.5845L329.159 89.7001L328.937 91.7865L327.884 93.0301L326.751 94.9744L324.477 97.5583L322.064 98.9851L319.795 102.262L319.779 105.638L319.547 107.21L319.764 108.694L320.553 110.859L322.096 112.645L325.892 114.768L327.279 114.997L327.931 114.586L330.965 114.815L334.607 114.534L336.639 115.474L339.288 117.1L342.986 119.699L343.612 121.172L343.779 123.464L344.786 124.897L346.851 126.274L349.936 126.394L354.023 128.758L355.047 129.593L356.957 130.331L360.568 130.903L361.762 129.224L362.989 129.407L365.535 131.354L368.153 133.043L370.191 133.809L372.984 137.375L375.998 139.502L376.87 139.229L381.215 138.807L382.231 139.202L385.067 141.738L385.91 144.089L383.879 147.055L383.152 147.299L381.768 148.642L381.551 150.002L382.177 151.869L381.105 154.03L380.744 156.052L379.843 157.613L377.679 158.818L377.666 161.044L376.309 163.697L376.868 165.473L379.132 168.482L379.538 169.749L380.47 170.57L380.174 171.972L380.317 173.49L378.962 175.227L379.594 176.683L380.287 176.629L381.227 179.755L381.015 180.992L380.235 182.224L379.52 181.843L378.503 182.638L378.326 183.567L379.328 185.144L380.039 184.363L383.514 187.442L381.855 188.893L380.967 190.632L378.645 192.35L376.63 195.042L376.196 196.261L373.882 198.28L373.363 199.82L371.45 201.653L369.109 201.496L367.267 202.5L365.659 202.912L364.04 202.926L362.755 203.787L362.325 205.166L362.587 206.778L364.037 209.693L363.891 211.205L362.835 211.297L361.808 210.216L360.691 208.054L359.456 203.898L357.572 203.379L355.579 203.373L353.234 201.929L352.308 202.242L351.227 203.734L351.16 204.689L351.901 206.703L351.648 208.838L349.336 210.855L346.043 212.254L345.139 214.503L344.237 215.673L343.263 218.734L338.899 223.051L338.936 224.386L340.028 225.608L340.241 226.554L340.075 229.546L342.189 236.171L343.246 238.395L343.573 241.198L343.318 243.24L341.72 248.478L341.16 250.749L339.757 252.904L336.721 253.372L334.606 253.402L333.681 253.714L328.004 254.34L326.411 255.242L325.319 255.116L324.041 251.692L320.442 246.539L319.135 245.467L317.391 245.39L315.342 246.689L312.882 247.745L309.998 248.102L309.336 248.883L309.31 250.154L309.883 253.919L310.302 255.54L311.025 263.478L311.839 266.947L313.66 268.639L314.031 269.661L314.383 273.335L314.163 275.47L314.318 277.643L315.071 280.619L314.751 282.036L315.025 284.088L314.054 286.028L308.882 287.639L306.431 289.394L304.259 292.731L301.926 298.002L301.028 299.316L300.601 300.725L300.95 302.268L302.39 305.441L302.625 306.767L302.149 308.363L301.148 309.864L298.722 311.801L295.533 313.475L294.422 314.879L294.09 317.095L294.31 322.887L294.7 324.612L295.182 328.872L295.114 332.182L295.348 334.684L295.122 335.592L295.801 337.969L296.853 340.218L296.448 341.755L294.731 342.699L292.434 342.804L291.294 343.15L290.833 343.971L290.922 345.854L290.173 347.31L288.883 348.69L287.712 349.212L286.001 349.063L283.543 347.923L281.814 345.907L280.596 345.429L279.216 345.562L276.722 346.31L274.546 347.494L271.342 348.521L265.198 349.764L264.706 350.165L263.137 354.579L261.47 358.398L261.28 360.175L261.482 362.171L264.432 367.26L265.352 369.535L265.441 371.031L260.96 371.074L259.337 371.655L257.489 373.941L256.481 374.338L254.34 374.344L252.194 374.787L250.367 375.582L248.403 377.617L246.361 380.395L245.762 381.864L245.158 385.854L243.456 389.194L242.212 390.374L241.186 392.317L238.055 400.528L235.162 412.088L235.83 413.832L236.67 414.882L238.192 416.019L240.002 416.271L240.952 416.027L243.692 416.52L245.651 419.464L246.142 421.394L245.592 422.981L244.252 423.93L242.414 424.416L240.186 426.751L238.716 429.973L237.153 434.596L236.918 436.417L235.961 439.431L234.885 439.765L234.346 441.541L234.299 442.982L232.554 444.08L229.461 447.413L228.204 449.198L227.176 452.045L227.285 459.36L227.577 463.413L227.377 466.704L226.995 467.846L225.88 469.506L223.012 472.549L219.859 476.934L217.1 480.531L212.062 486.238L210.197 487.942L208.3 489.23L204.474 491.014L201.322 490.045L199.718 489.08L198.568 488.92L196.345 489.852L195.843 489.213L194.312 489.391L193.853 490.055L191.921 489.233L192.129 487.166L193.389 487.269L194.462 485.037L195.509 484.729L195.927 483.909L194.013 483.172L193.56 482.451L193.772 481.011L193.314 479.283L193.724 477.6L192.078 476.462L191.905 477.564L190.656 479.272L189.938 478.499L190.874 470.776L189.634 469.532L190.805 468.53L187.584 468.004L186.835 468.097L186.105 466.544L187.486 465.349L185.799 464.529L186.601 463.962L186.419 463.046L183.581 462.389L182.796 463.361L181.46 461.728L181.051 458.923L182.779 457.025L184.38 458.074L185.542 457.582L185.868 456.215L186.769 455.514L187.219 452.455L186.602 450.976L185.512 450.413L184.005 451.767L181.912 452.178L181.87 454.439L179.966 455.167L178.141 455.161L177.762 453.889L179.241 453.552L179.787 452.37L178.903 452.052L177.153 450.521L177.438 448.008L176.74 448.134L175.463 450.187L174.26 449.954L174.113 448.137L175.843 447.737L174.899 446.841L175.414 445.471L178.387 446.461L180.352 446.755L182.092 447.692L184.433 445.616L184.435 444.655L181.824 445.286L181.605 444.206L180.598 444.61L178.785 443.699L177.118 443.433L177.741 441.828L178.601 441.631L180.111 440.106L178.328 439.342L178.06 437.718L178.353 436.489L178.086 435.156L178.621 434.607L178.381 433.01L179.283 431.467L180.152 428.601L181.586 427.53L180.768 426.918L181.389 425.273L182.244 424.819L181.943 423.496L183.192 421.882L183.964 420.169L183.765 419.051L181.713 417.593L180.285 417.25L179.467 416.515L177.485 416.231L177.196 416.93L174.158 418.493L172.733 420.605L171.511 421.67L171.208 423.041L170.356 424.236L168.836 424.787L167.957 426.289L167.058 426.75L165.894 428.204L164.856 428.833L163.22 431.21L161.611 431.778L160.387 433.523L160.06 434.556L158.413 436.916L157.793 437.045L154.866 434.784L154.253 435.342L152.522 434.584L152.004 435.062L152.949 436.673L153.016 438.161L152.408 438.57L150.303 437.759L149.386 436.27L149.427 435.416L148.792 433.077L147.953 431.397L148.577 430.724L147.759 428.977L147.009 428.601L146.491 426.31L147.018 425.168L146.813 424.051L147.702 422.633L146.192 421.219L145.328 421.866L143.679 419.303L142.781 418.632L141.73 418.687L140.912 417.06L143.767 415.924L143.41 414.7L143.436 412.737L144.436 410.995L142.997 410.803L142.204 409.525L143.982 407.746L143.459 405.687L144.981 405.659L144.542 403.571L144.766 402.19L144.436 399.334L145.236 396.21L146.188 394.83L146.965 391.821L145.976 390.681L146.35 388.989L145.941 387.275L146.187 385.887L147.113 384.893L146.769 382.798L147.707 380.836L146.837 380.021L146.965 378.521L147.589 376.154L145.984 375.197L147.152 374.718L146.947 373.621L147.923 372.63L147.701 371.602L146.197 367.955L144.135 366.127L142.227 363.914L140.738 362.598L139.373 358.753L139.418 355.974L135.969 352.894L134.998 350.847L133.986 350.428L132.365 348.741L131.914 346.836L131.313 346.407L131.539 345.215L130.868 344.474L131.071 341.269L131.468 339.341L132.168 337.968L131.198 331.143L129.58 330.173L126.829 328.976L125.175 328.677L121.122 328.385L119.041 328.607L115.602 329.321L113.633 330.089L111.971 331.087L109.728 332.925L108.698 329.874L107.5 327.884L105.143 326.022L103.522 325.757L102.267 326.541L101.174 328.466L98.9688 330.439L96.4596 329.18L95.5898 327.422L95.2572 325.314L94.7629 324.195L93.008 321.612L91.2039 318.313L91.3618 317.121L90.2518 315.752L89.3693 315.233L88.3043 313.264L88.5984 312.51L87.6564 311.739L86.8427 308.786L85.5364 307.347L85.6982 306.32L85.0762 305.575L85.3 303.959L84.7588 302.416L85.4842 297.82L84.8066 296.418L84.5471 294.8L85.5377 292.969L84.9266 289.365L83.8435 287.463L82.4093 286.944L82.7501 285.427L82.3135 284.081L81.4002 283.183L80.7917 280.622L80.2876 280.009L79.8388 277.65L79.9536 275.99L78.7735 274.151L78.9474 273.393L77.7357 271.195L78.0799 268.045L77.8107 264.639L78.6466 263.191L78.2074 261.146L77.0135 260.696L77.6912 257.983L77.1573 257.444L76.8735 255.489L76.0304 253.384L74.9778 252.119L72.3759 250.694L67.5416 250.523L62.9333 251.106L61.2117 252.697L60.5758 254.024L57.775 254.271L56.2138 254.944L54.9852 257.434L55.0257 258.451L52.7145 260.289L52.5992 261.214L51.3984 263.213L50.6941 263.273L48.6126 266.239L46.2651 268.765L45.9839 269.836L44.8887 270.313L43.6484 271.808L42.6357 272.379L41.4956 273.924L40.9942 273.702L41.8462 271.955L43.0316 270.654L41.7896 269.288L39.5931 268.923L39.1836 269.945L38.1158 270.195L36.8697 269.819L35.3133 270.303L32.7577 271.806L30.6692 275.994L29.3688 277.165L29.0322 276.047L30.3613 274.309L27.6883 274.697L27.4579 275.786L26.6481 276.619L25.3559 276.843L24.2889 276.513L23.8475 275.29L21.995 275.706L21.0576 271.515L19.9551 270.994L19.8972 269.154L19.3322 268.185L19.246 266.623L18.4227 265.92L20.085 263.277L20.0717 262.548L18.5327 261.911L17.1883 259.992L17.2893 258.355L16.5724 256.553L15.3275 256.65L15.501 255.585L14.3182 254.143L12.3399 254.201L11.6484 253.399L10.1462 253.228L8.98402 252.644L7.74668 253.353L5.11327 251.424L5.08906 250.412L6.47824 248.147L6.02017 243.861L5.20132 243.359L5.3694 241.72L4.10938 239.32L6.20526 237.547L5.95203 235.957L7.38543 235.081L8.30052 233.285L7.57494 231.71L5.81894 230.753L7.85104 228.633L9.20492 228.404L10.3123 227.522L11.263 225.171L10.7077 223.812L9.71116 223.674L9.18577 220.223L7.49286 220.279L6.37498 221.281L6.09081 220.113L8.34875 216.469L9.97845 214.627L11.0141 213.912L12.6935 214.291L11.3412 215.587L12.4904 215.806L13.6927 214.758L14.6834 212.128L17.4568 209.841L20.134 208.592L22.9332 207.718L27.0593 206.954L28.8281 207.451L29.4161 207.069L31.2677 207.649L33.1862 207.718L34.0132 206.398L34.4785 203.775L36.1764 204.177L36.1669 205.173L37.4672 206.277L38.9754 206.858L38.686 205.346L39.6752 204.89L39.6263 202.91L37.678 201.558L36.2077 201.041L35.7663 200.064L32.8113 199.175L31.9548 198.385L31.1477 198.74L31.2908 201.627L29.7534 199.176L29.3716 196.933L28.4122 194.839L27.1948 193.796L26.5665 192.305L25.1899 191.045L22.3283 189.956L21.2601 188.761L21.0325 187.771L19.858 185.977L19.478 184.718L17.9079 181.88L16.7383 181.496L16.486 178.939L15.6493 177.417L15.0272 173.094L14.0104 171.412L13.5913 168.049L15.4898 167.791L16.1861 167.082L18.127 166.416L19.5631 164.247L20.0258 163.112L20.5559 159.231L20.1615 155.635L21.6867 153.812L22.8805 151.944L21.7927 148.073L23.3359 148.423L23.5555 149.265L24.6566 150.278L25.8536 152.389L26.7025 156.065L28.0306 160.014L29.862 164.13L31.3442 166.866L34.4202 170.451L36.0438 171.774L38.3688 172.421L43.335 172.878L45.4883 172.841L47.8016 171.889L49.5027 172.195L50.5122 171.618L55.4942 171.593L56.4227 170.322L57.4289 171.771L58.6505 170.5L57.5306 169.101L58.3341 167.359L60.4532 167.356L61.0428 166.663L62.7512 166.102L63.2405 162.712L62.7254 162.026L61.4922 161.972L60.7713 161.148L63.3901 158.876L63.7455 159.913L67.8128 160.034L68.5761 159.137L67.5891 157.587L67.4983 155.511L67.8636 153.982L67.8875 152.078L69.0095 149.977L69.4641 148.502L70.0375 148.318L71.1662 149.314L72.2048 150.828L72.4991 152.612L73.2492 153.641L71.6576 154.506L70.8456 154.518L70.6493 156.567L71.683 158.301L73.618 159.012L75.1429 160.706L75.1903 162.164L74.4345 162.974L72.7445 162.412L70.7468 161.212L70.0111 162.651L70.39 163.905L71.5659 163.747L73.7386 164.134L74.5638 164.817L75.6279 167.469L76.5909 168.294L77.5018 168.379L77.8841 169.73L75.5134 169.905L73.7295 170.565L71.7946 170.922L68.0877 172.173L68.688 173.079L71.3539 173.06L73.3235 173.703L73.7417 172.87L75.1283 172.333L76.2479 171.381L77.6401 171.106L79.0438 169.781L81.2411 171.364L84.9583 171.466L86.4876 171.107L87.8282 170.111L88.3917 171.144L90.1647 171.5L91.5649 171.132L91.6114 169.01L92.0346 168.217L91.8034 166.686L92.469 165.637L93.0215 163.841L94.0312 163.288L97.2724 163.285L97.8359 161.509L98.3085 161.296L99.0978 158.994L98.1599 157.816L97.4311 157.636L95.9411 156.182L96.3651 154.34L96.9482 153.722L98.2773 154.036L98.0189 155.018L99.9722 155.92L101.477 158.978L103.403 160.319L104.18 159.638L106.064 160.577L106.23 162.731L107.194 163.757L108.85 163.786L110.913 163.046L113.86 161.063L114.961 159.738L115.968 159.338L118.241 160.276L120.084 159.295L121.284 157.607L121.559 156.628L123.399 155.79L124.065 156.028L126.4 155.743L128.154 158.201L130.071 158.649L131.018 159.664L131.028 161.909L131.651 163.504L132.615 164.496L133.364 166.759L133.723 169.531L133.696 170.47L134.91 171.605L136.611 171.462L138.295 168.911L140.363 168.101L142.055 168.256L147.142 167.314L148.377 167.347L148.735 169.544L150.548 171.944L151.268 174.388L151.801 174.943L151.203 176.425L150.864 178.873L149.824 180.189L146.453 181.483L145.812 183.415L145.643 185.876L146.956 186.956L149.489 187.444L153.648 188.762L154.517 190.65L156.424 192.163L157.214 192.397L159.258 194.178L160.293 195.754L161.834 196.19L163.385 195.672L164.229 196.557L166.029 197.033L168.511 198.748L170.126 200.394L171.351 202.772L172.831 203.481L173.022 204.442L174.294 205.262L174.239 206.436L175.508 207.691L177.18 207.765L176.848 204.955L175.879 202.017L174.808 200.919L175.427 199.886L177.077 198.948L178.052 199.028L179.769 199.911L181.264 198.466L180.743 194.135L179.871 192.366L180.36 191.232L181.093 191.397L181.803 190.387L180.418 189.528L180.661 187.838L179.446 186.101L180.141 185.583L178.857 183.648L179.365 182.836L180.479 182.614L180.437 181.294L182.067 179.687L183.675 180.041L182.804 178.425L182.728 177.148L183.814 176.764L184.204 175.996L185.45 176.222L186.365 177.537L187.534 177.176L189.144 177.893L190.24 176.444L192.154 176.182L192.706 177.126L191.271 178.451L192.417 181.79L192.983 182.278L195.384 181.514L198.079 181.999L198.568 182.753L196.703 183.749L198.047 184.3L198.686 185.713L199.982 185.923L200.995 186.723L200.527 187.654L201.363 188.162L202.797 187.672L204.211 189.867L205.921 189.475L206.972 187.96L208.12 187.774L209.98 188.936L210.682 189.715L210.875 191.105L211.75 193.729L212.11 195.672L213.286 197.768L214.353 202.67L215.719 204.451L216.058 205.742L217.694 207.564L218.953 207.155L221.311 205.771L222.156 204.777L221.945 201.805L222.339 199.613L221.909 198.025L221.065 196.958L220.711 194.933L219.814 193.388L219.742 191.347L219.106 190.429L218.783 187.724L217.944 184.532L217.589 182.255L216.779 180.235L215.169 180.466L213.085 179.477L210.767 176.79L208.789 175.694L208.102 175.645L205.875 173.37L204.608 170.249L204.877 168.899L204.786 166.665L206.087 163.362L206.537 160.988L205.473 158.066L205.577 152.29L206.266 150.365L206.433 148.995L205.951 148.439L205.063 145.832L205.664 144.346L208.26 143.708L209.234 142.272L209.152 140.707L210.251 138.469L210.812 137.93L211.54 135.845L211.589 133.363L212.784 134.338L215.173 134.994L216.028 135.665L216.272 136.996L217.428 137.119L216.95 135.212L216.018 133.651L214.991 130.288L214.609 128.398L213.087 128.669L211.671 129.552L211.747 126.978L211.076 124.782L209.355 121.319L207.741 118.967L207.617 118.03L206.209 116.973L205.716 114.332L204.938 114.205L204.435 111.724L203.523 111.203L200.457 107.148L199.995 106.164L198.426 105.328L196.857 102.684L197.192 101.586L196.491 100.378L195.252 99.8945L194 98.7792L194.455 97.7747L193.934 97.0533L194.15 95.4129L193.169 94.4005L191.594 93.596L190.591 92.095L189.179 91.454L188.652 89.0366L187.501 87.0829L183.375 81.9875L184.278 80.6222L184.133 79.2194L181.997 74.9577L181.274 73.0188L179.999 70.9376L180.056 69.7486L180.84 68.6274L182.382 69.1036L183.288 68.4018L184.781 68.6023L185.581 67.7437L187.27 67.051L189.311 67.0908L189.636 66.4309L187.279 63.2289L183.945 59.189L183.287 57.7228L183.614 56.7482L186.594 54.1825L188.772 51.8692L190.549 49.689L193.638 46.9888L194.309 45.9973L194.883 44.2366L196.001 44.0089L198.206 42.027L203.726 42.6364L205.402 42.4855L206.504 43.1367L207.914 43.1002L210.24 41.8845L211.601 41.6723L213.939 40.3134L214.945 40.064L217.352 40.2707L221.647 40.9785L223.503 41.02L224.154 39.6691L225.044 39.0346L224.539 37.6487L226.066 36.997L226.362 35.6316L227.314 35.9077L228.253 34.7481L229.877 34.8085L230.662 35.6077L231.457 38.3605L232.533 40.5238L234.205 41.9046L236.805 41.9977L237.675 42.7058L240.289 42.4868L243.06 40.5809L244.208 39.235L248.034 38.3065L249.948 38.1211L254.68 39.3022L257.767 40.7346L258.133 41.5358L262.666 43.8738L267.725 47.0802L270.054 46.108L273.037 43.9315L276.633 42.0256L278.22 40.9847L279.724 39.1826L280.546 37.4069L281.351 36.6243L283.946 35.7019L285.686 34.7139L287.684 34.0215L290.697 31.3332L295.1 28.6063L295.562 27.7629L294.727 22.9331L294.886 20.1848L296.491 19.722L298.636 19.6034L300.14 19.0951L306.004 15.6677L308.022 13.6081L309.988 12.5571L314.106 11.2654L315.836 10.2102L317.347 8.90977L318.385 7.10547L319.047 9.67216L318.979 10.8641L319.736 12.6872L321.772 14.7044L324.65 14.8575L330.145 16.0931Z" fill="#1E1E1E" stroke="white" stroke-width="5"/>
</svg>
