<svg width="175" height="145" viewBox="0 0 175 145" fill="none" xmlns="http://www.w3.org/2000/svg">
<path d="M78.792 3.19354L80.5249 5.31365L82.3045 5.80375L84.5957 7.23859L87.4797 8.45751L89.0828 9.95635L91.4251 11.3061L92.7383 12.9689L95.9694 13.9964L97.2783 15.8795L99.4697 16.2275L101.725 14.8799L104.231 15.711L106.887 15.3706L111.25 13.5446L112.61 13.6295L114.783 14.5101L116.649 14.9394L118.041 14.7557L118.979 14.0022L120.597 9.52711L121.403 8.42938L123.481 6.73825L126.715 5.02217L127.704 4.73263L130.573 5.19064L132.951 4.24609L134.014 4.36635L135.882 6.25238L137.259 8.10296L141.48 10.8126L141.492 12.7491L142.919 15.5271L144.664 16.9462L145.318 18.8767L145.312 20.6873L146.789 20.5425L147.876 22.0105L150.317 21.7197L152.939 22.0912L154.911 23.0579L155.385 25.4247L154.552 27.5599L152.881 30.8949L153.263 31.9308L156.09 33.2911L157.937 37.6693L159.895 39.3112L160.425 40.4171L159.724 43.5459L160.598 45.5673L163.631 47.5735L163.935 49.1351L163.277 51.5148L163.361 52.2564L167.525 53.9612L167.237 56.4557L167.565 59.1703L167.332 61.5509L164.978 63.9812L163.552 67.8643L164.368 72.474L165.796 74.5548L166.423 77.1319L168.487 79.1098L167.697 83.2788L169.175 84.4306L170.804 84.9173L171.373 85.9979L171.606 89.2895L169.343 91.3686L163.489 95.2235L160.084 101.935L158.599 105.898L156.662 109.897L156.707 113.081L158.589 120.232L159.942 124.337L161.884 126.8L162.31 127.745L162.733 131.169L162.765 133.467L162.335 134.936L161.219 136.637L159.701 138.268L158.02 141.136L155.993 140.235L153.728 140.181L151.723 140.53L150.304 140.028L149.945 137.897L148.908 138.008L147.07 139.58L146.988 136.116L146.297 134.651L144.867 134.982L144.876 136.667L144.373 137.973L143.2 138.083L142.751 135.491L142.294 134.423L140.933 134.474L139.776 135.903L137.549 136.64L136.493 136.342L135.908 135.302L137.882 134.103L139.776 133.555L140.429 132.983L138.911 131.866L136.909 132.493L133.943 132.651L131.19 131.519L128.742 129.912L127.532 127.419L124.943 127.707L124.274 124.61L123.655 123.772L122.077 123.031L120.882 124.923L120.062 125.578L119.16 124.83L118.92 122.837L118.148 121.198L116.27 118.797L115.199 115.725L116.419 114.076L118.24 113.378L119.29 112.462L119.153 109.655L117.929 105.961L116.235 103.125L114.115 102.385L110.663 101.76L108.739 101.139L107.369 99.0348L106.929 97.5841L107.508 95.9152L108.687 94.4281L110.316 93.1677L112.766 92.4399L116.607 91.6487L119.028 91.5018L119.747 90.9868L120.95 86.803L121.157 83.578L120.695 81.0229L120.979 77.8358L120.555 75.1637L120.647 72.9963L120.357 72.0901L119.143 70.6761L117.424 70.1764L112.438 70.1949L109.071 69.3796L106.591 68.9689L102.017 69.478L97.5393 69.1788L94.1378 69.523L89.2314 70.8176L86.7122 72.1641L83.485 74.5669L81.7709 75.147L80.0257 75.2893L75.9375 74.546L70.9085 75.6188L68.6059 77.3253L66.2975 77.5502L62.8686 78.483L60.5318 78.7338L58.7537 78.1903L57.4767 77.2753L56.6902 75.637L56.4519 71.7768L55.2196 71.3599L53.1417 71.8672L50.5972 72.0029L49.3061 70.8335L47.2588 69.9197L44.2362 70.6162L41.8493 71.6801L39.5462 72.4414L33.3713 75.9488L30.0891 72.9205L29.3176 72.6786L26.6531 73.4357L24.6091 73.1952L22.9363 71.6869L21.3039 70.7281L21.0411 70.1832L19.2797 69.0578L17.9408 67.8262L15.9543 66.5596L14.8114 63.6558L13.2756 61.691L12.672 60.2346L12.482 56.9613L11.6353 55.5952L8.26705 53.0516L5.33594 51.832L6.49074 50.8083L8.55354 51.2711L14.2864 51.5792L17.3689 52.2768L19.0359 54.1052L22.432 55.0251L24.2655 56.7288L24.5125 57.9201L28.171 57.5577L30.0504 56.4816L30.8351 54.9386L31.4155 51.9386L31.2648 47.9818L30.2563 45.29L31.1994 43.9569L30.11 41.2989L28.9042 39.8103L29.1449 39.0165L28.6641 37.3376L29.7632 35.17L29.4683 32.9601L30.1377 31.9256L33.5013 30.352L34.2814 30.2336L36.1854 31.4348L37.6847 31.4808L42.3004 30.2243L44.0605 30.6355L45.3488 31.573L46.6136 33.0196L48.2534 33.5989L49.9343 33.2433L50.8098 34.3042L50.602 35.4814L51.5502 37.8157L52.1211 38.2627L54.8052 38.4169L55.7079 38.8375L57.0814 40.634L59.9951 41.6425L61.8777 43.9687L63.1737 46.2055L64.1269 46.0858L65.1408 44.7253L66.8008 44.9851L67.2271 43.3175L66.7028 41.1144L66.7922 39.8936L68.6224 38.2582L68.4998 36.7013L69.7774 35.1967L71.9048 31.9503L72.6092 30.2445L73.1819 29.8394L77.3846 28.5924L78.2884 27.4974L77.4673 26.0215L75.6666 24.5789L72.2858 22.6709L71.6721 22.0346L72.5253 20.0896L73.054 17.2472L74.5673 13.2301L76.2338 10.9389L76.5337 10.0772L76.397 7.72784L75.3659 5.79005L73.6314 3.51568L74.4433 3.06641L77.4552 3.67057L78.792 3.19354Z" fill="#1E1E1E" stroke="white" stroke-width="5"/>
</svg>
