<svg width="287" height="293" viewBox="0 0 287 293" fill="none" xmlns="http://www.w3.org/2000/svg">
<path d="M277.378 131.125L279.175 135.368L280.038 136.961L280.787 139.148L282.61 141.928L283.64 144.298L283.569 146.883L281.622 148.539L280.282 149.364L278.632 149.327L277.998 151.27L276.771 150.302L273.995 152.521L272.333 154.19L270.853 154.309L267.741 156.216L266.107 156.457L264.631 158.213L262.419 158.344L261.098 159.622L257.835 161.23L254.793 161.506L252.971 163.734L252.868 166.387L251.333 166.09L249.786 166.549L248.25 166.138L248.185 167.427L249.432 169.379L248.225 170.122L247.304 171.69L246.194 171.981L245.441 173.488L243.403 175.456L243.257 177.688L242.183 178.943L241.398 181.243L238.454 183.76L237.487 183.999L236.174 182.799L235.019 183.138L233.889 182.852L233.001 185.967L232.217 186.37L229.409 184.301L228.654 184.687L228.162 185.89L228.277 187.56L228.947 188.928L230.348 189.491L231.485 191.067L230.657 193.411L231.022 197.565L231.688 199.439L233.369 200.484L232.972 202.251L232.659 205.904L233.501 207.13L234.112 208.817L235.317 208.884L236.089 208.178L237.077 208.794L237.536 211.801L238.066 212.937L239.069 213.422L241.261 212.611L242.591 213.098L242.763 214.593L239.821 218.782L239.726 220.057L240.935 223.154L242.236 223.671L241.714 226.903L238.716 232.861L238.752 235.372L237.061 237.598L236.522 239.305L236.924 240.54L238.604 243.264L239.295 243.834L240.845 246.833L242.468 251.339L243.011 255.38L242.202 255.752L241.939 257.827L240.802 258.626L240.626 260.516L240.914 263.816L239.931 265.692L237.287 269.112L237.098 271.577L235.688 272.717L233.354 277.337L231.973 278.894L230.696 281.033L229.159 282.105L225.383 283.946L223.156 283.325L222.655 284.345L220.03 285.127L217.688 287.419L216.098 287.86L214.718 288.932L213.586 288.057L213.11 286.704L211.452 285.868L210.769 286.264L210.194 285.254L209.677 280.429L208.952 279.203L208.34 276.647L206.443 275.142L203.814 272.57L202.588 271.105L201.737 270.612L196.473 268.578L195.017 267.557L194.127 265.627L192.188 262.856L190.236 261.691L188.378 261.434L188.169 260.175L186.187 255.824L186.044 250.746L186.567 247.07L186.548 245.88L185.001 240.204L184.861 238.331L182.092 234.45L178.993 230.707L175.972 227.675L172.149 224.601L170.332 222.707L160.267 216.042L156.297 213.711L147.685 210.246L139.571 207.418L137.744 207.002L133.25 206.531L126.453 205.666L124.811 205.718L121.707 206.439L117.409 209.337L111.82 212.762L103.855 218.468L99.1525 220.97L95.7133 221.732L92.1839 221.918L82.8108 223.08L80.4589 222.836L78.6225 222.253L66.852 217.817L62.1225 215.892L56.9551 214.015L54.2154 212.86L49.9884 211.931L46.7965 211.016L45.4915 210.402L44.8372 207.738L43.0368 207.937L42.0655 207.105L38.0272 205.574L35.9291 203.505L33.0931 202.363L30.6934 201.897L30.913 197.802L29.0284 195.984L25.153 194.667L19.8387 192.316L16.3622 189.517L11.1674 187.323L7.4425 187.03L7.35323 185.534L6.43385 183.259L3.48335 178.171L3.28125 176.174L3.47192 174.397L5.13876 170.579L6.70763 166.165L7.19896 165.764L13.3435 164.521L16.5479 163.494L18.7237 162.309L21.2177 161.561L22.5974 161.428L23.8153 161.906L25.5442 163.923L28.0027 165.062L29.7138 165.211L30.8847 164.689L32.1747 163.309L32.9237 161.853L32.834 159.97L33.2956 159.15L34.4358 158.804L36.7329 158.698L38.4491 157.754L38.8545 156.217L37.8021 153.968L37.1233 151.591L37.3489 150.683L37.1158 148.181L37.1831 144.872L36.7019 140.612L36.3111 138.887L36.0915 133.094L36.4238 130.878L37.5345 129.475L40.7235 127.8L43.1498 125.863L44.1502 124.363L44.6263 122.766L44.391 121.44L42.9517 118.267L42.6021 116.724L43.0295 115.315L43.9275 114.001L46.2602 108.731L48.4322 105.393L50.8834 103.638L56.0555 102.027L57.0264 100.087L56.7527 98.0354L57.0728 96.618L56.3194 93.6421L56.1648 91.4696L56.3845 89.3344L56.032 85.66L55.661 84.638L53.8401 82.9465L53.0264 79.4772L52.3039 71.5394L51.8846 69.9182L51.3112 66.1529L51.3373 64.8819L51.9998 64.1013L54.8838 63.7444L57.3435 62.6878L59.3919 61.3888L61.1369 61.4663L62.4432 62.5381L66.042 67.6913L67.3204 71.1158L68.4129 71.2413L70.0057 70.3394L75.6823 69.7138L76.6072 69.401L78.7222 69.3713L81.7588 68.9029L83.1617 66.7483L83.7213 64.4777L85.3193 59.239L85.574 57.1975L85.2477 54.3945L84.1901 52.1704L82.0765 45.5453L82.2428 42.5537L82.0297 41.6072L80.9372 40.3855L80.9001 39.0506L85.2644 34.7334L86.2386 31.6728L87.1407 30.5025L88.044 28.2534L91.3378 26.8545L93.6495 24.8371L93.902 22.7023L93.1617 20.6883L93.2289 19.7337L94.3093 18.2409L95.2352 17.9284L97.5801 19.372L99.5738 19.3782L101.457 19.8968L102.692 24.0531L103.81 26.2157L104.836 27.2966L105.892 27.2038L106.038 25.692L104.588 22.7777L104.326 21.1657L104.756 19.786L106.041 18.9256L107.66 18.9114L109.269 18.4997L111.111 17.495L113.451 17.6522L115.365 15.819L115.884 14.2793L118.197 12.2605L118.631 11.0409L120.647 8.34948L122.968 6.63104L123.857 4.89245L125.515 3.44141L126.799 3.98076L127.235 5.29325L125.896 7.03911L126.496 7.56832L132.133 7.80362L137.25 9.07554L139.884 8.82842L145.944 5.68073L147.579 6.30836L149.654 8.99816L151.322 10.5348L152.223 10.9509L153.726 10.6524L156.276 8.79783L157.856 8.18853L160.811 8.60917L166.284 10.115L167.108 10.8539L169.241 11.6978L171.67 11.5553L176.453 10.4518L176.977 11.0529L177.597 13.7401L178.558 16.4554L179.227 17.4561L180.54 18.3339L182.237 18.5978L183.755 17.988L185.054 16.855L187.162 17.2397L188.781 17.8378L188.832 20.0367L187.665 22.8027L186.558 26.6487L185.372 29.1291L184.628 31.286L183.12 33.3316L182.58 34.5705L181.548 35.8053L181.657 38.137L180.845 38.3759L180.805 36.3743L181.582 34.7429L181.624 33.2913L181.131 32.22L180.175 31.6273L178.74 31.5769L174.63 33.1028L172.612 33.5859L168.706 32.4547L167.468 32.5852L164.856 33.4023L159.855 33.1712L158.518 33.236L157.387 34.7345L156.481 36.9391L155.979 40.0312L155.288 41.8095L153.875 42.8693L153.442 44.303L155.156 48.5537L156.305 49.461L156.3 51.0175L155.413 53.668L154.039 55.2618L153.209 57.3901L152.215 58.676L150.282 60.2221L147.088 61.7943L145.135 60.9838L144.211 62.0276L146.282 64.214L147.128 67.3809L148.56 70.1255L150.129 70.3202L150.945 70.9101L152.391 73.7174L152.396 76.3753L152.678 79.6153L152.375 81.0652L152.486 83.5369L152.32 86.6315L152.554 88.6078L153.19 91.1396L154.635 92.7283L156.118 94.8653L156.702 97.0268L155.721 99.1563L156.576 102.947L157.703 104.207L161.566 106.374L163.628 108.107L168.722 110.779L170.475 112.031L173.093 111.369L175.024 111.397L176.661 112.924L180.561 113.756L181.592 114.55L184.006 114.64L185.42 115.453L187.04 115.361L188.208 116.884L189.908 117.54L191.207 118.567L192.892 118.915L194.291 118.498L197.483 118.752L200.174 117.771L202.26 118.123L204.123 117.763L205.675 119.113L208.391 120.602L211.455 121.066L212.157 122.13L212.762 124.735L213.663 125.847L214.867 126.177L216.977 126.014L218.552 125.338L220.016 125.312L221.014 124.677L222.676 124.663L224.625 126.047L226.049 125.638L227.038 124.471L229.582 124.146L232.138 124.199L233.94 124.491L236.065 123.35L239.751 122.352L240.78 121.565L245.951 119.825L247.832 119.414L249.387 118.62L250.232 118.939L254.786 123.707L255.12 126.165L253.455 127.471L252.884 129.826L253.299 130.994L255.006 133.93L255.108 134.723L254.235 135.617L253.171 138.454L252.364 141.607L253.191 143.755L254.715 143.434L256.434 142.456L258.248 140.262L260.406 139.05L265.758 138.437L268.721 136.77L272.689 135.122L276.615 132.363L277.378 131.125Z" fill="#1E1E1E" stroke="white" stroke-width="5"/>
</svg>
