<svg width="295" height="208" viewBox="0 0 295 208" fill="none" xmlns="http://www.w3.org/2000/svg">
<path d="M211.113 201.087L210.725 201.928L209.202 200.665L210.28 200.14L211.113 201.087ZM93.2045 188.937L94.9341 189.542L96.8309 190.589L98.1054 189.847L99.8225 189.749L99.5862 190.54L95.0209 190.902L93.352 191.416L89.0931 193.13L87.6068 194.022L87.0648 193.335L89.0931 193.13L89.083 191.814L91.0491 191.314L92.6456 191.323L95.0209 190.902L94.9341 189.542L93.2045 188.937L91.86 189.619L91.8772 188.765L93.2045 188.937ZM76.2557 189.088L77.7515 189.048L76.7578 191.916L76.2557 189.088ZM114.652 191.839L113.153 193.95L109.926 195.425L108.592 195.225L107.388 193.991L105.217 192.557L103.666 191.923L103.422 190.98L105.715 191.735L107.505 192.923L108.438 192.855L110.626 193.413L111.347 193.317L112.461 191.996L114.586 190.634L114.652 191.839ZM70.584 187.692L69.408 187.605L69.2585 186.697L70.6194 186.735L70.584 187.692ZM89.2656 186.533L87.6661 187.24L87.3527 188.108L85.7505 187.561L87.4225 186.32L89.2656 186.533ZM83.2434 182.74L84.9608 182.681L85.7473 184.191L84.3471 184.451L81.3261 183.468L81.7673 182.493L83.2434 182.74ZM127.167 180.778L128.859 181.93L128.87 182.605L124.571 181.399L126.008 180.818L127.167 180.778ZM103.34 180.082L104.518 180.681L105.093 181.808L103.08 181.686L102.329 180.347L103.34 180.082ZM104.052 178.555L103.892 179.847L102.777 179.469L102.677 177.698L103.703 177.427L104.052 178.555ZM88.9878 178.722L87.8333 178.852L86.1978 179.668L85.9512 180.371L84.442 179.401L85.8156 178.329L87.8419 177.284L88.9878 178.722ZM94.6578 179.062L94.3664 177.486L95.6085 178.015L94.6578 179.062ZM184.618 174.975L183.319 174.797L184.279 173.159L185.476 172.393L186.672 173.006L184.618 174.975ZM191.414 172.844L196.411 180.701L196.735 196.105L196.953 197.057L195.145 197.669L193.701 197.546L191.661 196.221L188.198 191.177L184.645 188.714L182.77 187.737L178.704 183.963L175.562 183.117L173.08 181.892L168.126 182.597L164.933 181.976L162.863 182.127L163.291 179.537L163.806 178.858L163.556 177.226L164.902 176.758L166.399 177.307L167.457 176.353L167.976 177.849L170.529 178.027L171.291 178.793L170.951 181.406L172.108 180.809L172.972 181.019L173.817 180.165L172.934 179.246L173.975 178.227L175.282 177.706L176.602 178.252L177.349 179.739L176.791 181.022L177.92 181.903L178.171 180.411L180.583 181.066L181.595 183.378L181.305 184.553L181.608 185.638L182.932 186.204L185.417 185.307L186.616 185.411L188.42 187.454L188.356 189.278L191.877 191.219L193.411 192.458L195.417 195.223L196.111 194.534L195.762 192.684L196.06 190.956L195.379 188.578L195.405 186.348L194.439 185.465L195.64 183.543L194.491 181.02L193.448 179.722L193.328 176.612L191.84 174.952L189.358 173.777L188.754 172.681L189.854 171.148L191.414 172.844ZM91.7678 171.791L92.3978 171.938L91.4572 173.712L90.6785 172.674L91.7678 171.791ZM95.6354 170.529L96.8844 170.686L97.2047 172.221L95.0228 172.779L93.5735 172.397L92.739 171.424L94.1632 170.482L95.6354 170.529ZM101.564 170.59L101.183 172.404L99.7475 172.562L98.3027 173.493L97.2047 172.221L97.6655 171.646L99.0685 172.829L100.874 171.836L101.564 170.59ZM93.1997 169.799L91.6749 170.892L91.018 170.289L92.2141 169.051L93.1997 169.799ZM104.504 168.705L104.206 170.923L103.549 170.834L103.124 169.182L102.027 167.658L104.504 168.705ZM90.5728 161.553L92.4534 161.216L94.6883 162.138L96.0716 162.159L97.7721 162.639L98.6462 163.363L100.147 163.443L98.7712 164.858L97.2013 163.426L95.7057 163.726L94.1853 165.294L94.3787 166.124L92.1383 167.96L90.734 167.342L90.0621 165.829L88.198 163.605L87.5949 161.074L89.7517 159.266L91.4617 160.588L90.5728 161.553ZM112.629 153.057L114.412 151.725L116.159 153.47L116.964 155.048L116.862 155.864L115.379 155.218L113.334 156.59L110.545 156.504L108.719 154.725L108.51 153.447L108.943 152.126L110.005 151.393L111.995 151.972L112.629 153.057ZM113.693 148.974L113.652 149.759L110.932 150.831L109.433 150.252L112.131 148.975L113.693 148.974ZM160.078 146.325L158.26 150.423L158.003 149.658L159.214 146.894L160.078 146.325ZM157.587 147.227L156.013 146.614L155.884 145.977L156.962 143.926L158.068 144.815L157.618 145.641L157.587 147.227ZM131.557 125.63L133.895 126.728L133.794 128.831L133.116 128.668L130.076 126.194L131.557 125.63ZM132.475 122.718L131.725 124.377L130.288 124.66L129.702 124.248L130.918 122.867L132.475 122.718ZM134.856 123.644L134.325 123.665L134.05 120.532L134.805 120.55L134.856 123.644ZM88.4341 3.03125L92.159 3.32394L97.3538 5.518L100.83 8.31666L106.145 10.6682L110.02 11.9851L111.905 13.8026L111.685 17.8975L114.085 18.3636L116.921 19.5062L119.019 21.575L123.057 23.1057L124.028 23.9381L125.829 23.7386L126.483 26.403L127.788 27.0165L130.98 27.9322L135.207 28.8605L137.947 30.0158L143.114 31.893L147.844 33.8177L159.614 38.2542L161.45 38.8364L163.802 39.0805L173.176 37.9193L176.705 37.7327L180.144 36.9711L184.847 34.4689L192.811 28.7624L198.4 25.3382L202.698 22.4401L205.803 21.7184L207.445 21.6671L214.241 22.5317L218.736 23.0029L220.563 23.419L228.676 26.2469L237.289 29.7121L241.259 32.0424L251.323 38.7074L253.141 40.6015L256.963 43.6755L259.984 46.7081L263.084 50.4513L265.853 54.3321L265.993 56.2053L267.539 61.8813L267.559 63.071L267.035 66.7471L267.178 71.8249L269.161 76.1759L269.37 77.4351L271.227 77.6924L273.18 78.8571L275.119 81.6274L276.009 83.5583L277.464 84.5789L282.728 86.6132L283.579 87.1061L284.805 88.5706L287.434 91.1433L289.332 92.6478L289.944 95.2042L290.668 96.4303L291.185 101.255L291.76 102.265L290.13 104.19L289.026 103.766L288.784 102.021L287.997 101.358L287.269 102.289L285.853 102.2L284.618 101.062L283.87 101.791L282.34 101.856L281.549 103.394L279.195 103.072L277.974 101.681L277.375 101.66L274.258 103.312L271.887 104.874L270.617 107.568L270.174 109.505L267.315 111.681L265.895 114.768L265.628 116.979L265.372 121.626L262.62 125.187L260.633 125.168L258.548 126.408L256.973 127.054L255.395 128.97L254.826 130.705L253.633 131.234L251.869 132.795L250.248 133.559L247.93 134.174L246.548 135.638L243.535 135.339L242.253 135.828L241.762 137.215L242.541 139.045L242.798 140.569L243.393 141.406L244.877 144.691L243.77 149.089L244.531 151.023L247.411 154.96L247.977 157.323L250.535 160.047L251.371 162.711L254.31 169.694L254.477 172.208L253.978 171.509L252.752 171.473L250.551 169.872L248.703 169.541L246.575 169.895L245.898 170.371L244.841 172.114L243.49 173.423L242.796 175.084L242.504 176.706L241.697 178.09L241.695 179.205L238.884 180.26L238.339 181.362L237.01 181.209L235.83 182.148L233.702 183.235L231.992 183.236L230.211 183.614L228.912 183.317L226.621 183.832L225.698 184.518L223.488 188.037L220.853 188.899L219.287 188.891L218.492 189.299L216.814 191.19L215.852 192.796L214.888 195.057L213.319 197.498L212.203 200.636L211.713 199.319L212.028 196.08L210.815 196.798L209.213 198.324L208.272 200.553L208.398 202.092L207.313 201.828L206.586 200.895L206.799 199.724L205.979 198.646L206.105 197.114L202.915 196.951L202.326 197.431L199.12 197.463L198.055 198.789L197.247 198.774L196.953 197.057L197.16 180.308L192.034 172.52L192.241 169.916L193.632 168.181L196.748 163.487L196.54 162.583L187.459 164.758L186.675 164.273L185.144 158.113L185.577 157.171L188.875 155.674L187.213 154.144L179.55 156.014L180.594 157.307L179.636 158.286L177.623 158.017L174.904 158.678L174.776 156.968L173.857 155.092L172.817 155.734L172.145 154.98L170.301 155.519L169.56 156.757L168.74 156.823L167.747 158.225L167.955 160.865L166.16 160.336L167.22 158.835L164.876 157.695L163.787 158.029L162.989 159.466L164.767 163.183L162.302 179.966L161.193 179.915L159.695 180.782L159.073 180.087L159.968 179.203L162.158 164.222L160.616 161.726L160.441 158.95L161.579 157.704L162.132 155.822L163.927 154.623L165.143 154.74L166.319 149.139L165.653 146.382L164.457 145.478L163.147 143.527L162.234 144.38L160.745 144.097L160.211 140.542L159.42 139.881L157.66 142.012L157.113 142.182L155.288 145.456L154.023 146.686L153.182 146.032L151.81 142.507L148.789 142.87L147.699 141.794L147.287 139.878L145.725 139.668L144.15 138.158L142.032 138.818L140.535 137.517L137.865 132.786L136.493 128.351L136.582 126.594L136.271 124.198L135.691 122.169L136.487 119.413L137.918 116.948L137.939 115.485L137.054 112.493L135.34 110.729L135.415 109.854L136.422 107.416L136.977 104.696L136.151 102.809L134.226 99.9783L134.078 96.9699L133.273 95.2598L128.805 90.9227L127.499 90.3634L127.558 87.3774L126.714 85.2509L122.007 79.5167L119.542 77.882L118.747 76.192L118.468 73.7369L117.381 72.6677L116.758 71.4933L115.31 71.4049L112.559 72.0107L110.672 73.4892L109.064 75.1711L108.322 76.91L107 78.1915L106.119 80.0204L105.89 82.1186L106.947 84.1183L107.735 84.4322L108.67 85.7545L109.393 87.5038L110.235 90.4598L111.277 91.7333L112.264 92.2329L113.644 92.1029L114.697 93.3303L116.437 96.8032L117.29 97.3615L120.463 97.5273L122.582 99.0351L124.152 102.954L125.332 104.63L126.277 108.17L127.456 110.012L129.358 110.98L129.64 111.924L129.276 116.078L128.434 115.88L126.367 113.926L125.379 113.784L123.968 115.136L125.194 116.302L125.145 117.748L125.936 118.566L126.604 123.229L125.453 127.587L125.459 129.463L124.791 130.988L123.429 132.831L123.324 136.794L123.84 137.725L123.147 142.178L124.555 143.69L119.048 143.278L119.179 144.493L117.767 144.515L117.95 142.942L117.657 141.551L115.34 142.247L116.736 143.865L116.759 145.753L116.104 146.791L113.939 146.807L113.693 148.974L111.719 148.601L110.886 149.21L109.682 148.817L108.101 147.033L109.076 145.427L109.313 144.221L106.166 146.676L107.117 147.961L107.582 149.369L106.653 150.561L102.584 151.47L100.777 150.77L102.626 154.988L101.747 156.125L102.521 157.009L101.909 158.355L100.238 160.021L98.6707 159.774L97.7188 158.873L96.485 159.328L94.0708 158.683L91.1807 158.848L90.0655 158.562L86.3828 161.87L90.0621 165.829L90.1311 167.586L89.6498 171.166L89.8202 172.431L89.4445 173.421L88.3734 173.588L87.3342 174.581L81.1201 176.725L76.0491 178.594L75.1229 179.799L75.4771 181.224L73.7344 181.758L74.1528 182.978L72.513 185.355L71.7161 186.106L71.1578 184.907L71.308 183.718L70.5545 182.099L69.1919 181.775L69.6865 183.145L69.471 184.21L68.5941 184.683L68.0659 182.096L66.7665 182.454L63.0398 189.407L70.8261 192.82L72.3902 194.291L76.2074 194.597L78.582 194.736L81.0683 195.309L79.3111 196.032L75.4852 198.035L73.0127 197.791L70.7174 196.671L64.6073 194.838L59.3159 194.003L57.1803 194.273L55.0461 195.015L54.4629 195.625L51.0623 197.219L46.9892 198.285L42.831 198.502L38.2862 198.276L36.0221 197.421L33.4704 196.76L30.0377 195.104L29.2764 195.369L28.2918 194.187L27.8487 192.979L28.0696 190.263L29.1585 190.961L28.4943 192.461L30.0377 195.104L34.4325 196.472L36.9875 196.984L38.2698 193.868L41.1898 191.161L41.0787 188.981L41.7838 187.94L44.9606 187.786L45.6279 185.719L43.79 184.258L43.101 184.88L41.4837 184.339L39.4866 184.557L39.629 186.953L39.1959 187.504L39.4412 189.322L39.4162 191.726L37.9683 192.773L36.2941 192.151L35.4303 192.295L34.2274 193.641L30.9985 191.454L31.5596 189.786L28.6544 187.958L27.0663 188.244L25.8702 185.309L26.2377 184.136L24.3635 183.623L24.1847 180.725L25.5792 176.953L25.1443 175.934L22.4453 173.783L19.7973 173.141L18.6023 173.205L15.6737 172.838L12.6941 172.791L11.7204 173.068L12.9332 169.868L13.1758 165.746L12.1864 166.45L12.0604 169.458L10.6072 172.646L10.4963 174.117L9.79182 174.461L8.65211 176.597L7.64241 176.006L5.91306 171.974L5.85548 169.049L8.45685 167.783L9.71746 166.561L11.5992 163.951L12.2664 161.947L12.3404 160.257L11.2427 156.942L9.71317 154.969L7.76952 153.686L6.64073 153.726L5.75106 154.387L5.52505 155.644L4.72361 157.272L3.98363 157.151L3.32422 155.415L3.68245 153.338L4.5781 152.351L5.94277 151.671L5.34413 149.539L5.9141 148.459L7.44698 147.454L7.19021 146.779L7.35998 144.439L8.64433 144.672L8.79123 143.709L10.1888 143.32L10.2408 145.896L9.35621 149.372L8.50213 149.812L8.24605 151.645L9.45836 152.645L10.799 152.916L10.6905 151.713L15.0428 148.646L14.2424 147.885L16.1298 145.575L18.2262 145.894L19.6923 144.88L21.1335 144.774L21.6395 143.871L21.0025 143.193L21.139 140.102L22.7303 137.058L22.2575 135.783L23.3246 134.628L21.8855 132.731L20.3066 134.072L19.5649 135.652L18.7043 134.984L19.8128 133.261L19.1333 130.221L19.0032 127.633L17.1595 127.072L15.1113 127.029L14.3383 125.906L16.6205 126.234L19.3255 126.055L19.7541 124.13L22.9645 124.425L24.5012 124.305L25.3535 125.144L25.6192 127.488L26.8869 126.623L28.0996 127.257L30.7187 125.866L32.1701 129.662L33.3791 128.974L33.539 126.266L35.2473 126.028L35.0722 124.827L33.7599 125.352L32.6096 125.128L30.7187 125.866L30.657 124.4L28.1504 123.676L27.4675 123.014L31.2934 121.23L33.1902 119.943L35.0549 118.238L40.0932 112.532L42.852 108.934L46.0051 104.549L48.8731 101.506L49.9876 99.8464L50.3705 98.7043L50.5704 95.4136L50.2784 91.3602L50.169 84.0451L51.1967 81.1977L52.4538 79.4131L55.5474 76.0805L57.2925 74.9818L57.3388 73.5414L57.8784 71.765L58.9544 71.4311L59.9114 68.4172L60.1457 66.596L61.7089 61.9727L63.1786 58.7513L65.4073 56.4161L67.2446 55.9301L68.5851 54.9816L69.1351 53.394L68.6441 51.4637L66.685 48.5202L63.9446 48.0274L62.9951 48.2715L61.1854 48.0187L59.6635 46.8817L58.8228 45.8321L58.1548 44.0878L61.0485 32.528L64.1786 24.3169L65.2045 22.3739L66.4489 21.1937L68.1514 17.8538L68.7552 13.864L69.3543 12.395L71.3961 9.61674L73.3597 7.58213L75.1869 6.78764L77.3335 6.34383L79.4736 6.33823L80.4825 5.94106L82.3305 3.65555L83.9527 3.0738L88.4341 3.03125Z" fill="#1E1E1E"/>
<path d="M93.2045 188.937L94.9341 189.542M93.2045 188.937L91.86 189.619L91.8772 188.765L93.2045 188.937ZM94.9341 189.542L96.8309 190.589L98.1054 189.847L99.8225 189.749L99.5862 190.54L95.0209 190.902M94.9341 189.542L95.0209 190.902M95.0209 190.902L93.352 191.416L89.0931 193.13M95.0209 190.902L92.6456 191.323L91.0491 191.314L89.083 191.814L89.0931 193.13M89.0931 193.13L87.6068 194.022L87.0648 193.335L89.0931 193.13ZM196.953 197.057L196.735 196.105L196.411 180.701L191.414 172.844L189.854 171.148L188.754 172.681L189.358 173.777L191.84 174.952L193.328 176.612L193.448 179.722L194.491 181.02L195.64 183.543L194.439 185.465L195.405 186.348L195.379 188.578L196.06 190.956L195.762 192.684L196.111 194.534L195.417 195.223L193.411 192.458L191.877 191.219L188.356 189.278L188.42 187.454L186.616 185.411L185.417 185.307L182.932 186.204L181.608 185.638L181.305 184.553L181.595 183.378L180.583 181.066L178.171 180.411L177.92 181.903L176.791 181.022L177.349 179.739L176.602 178.252L175.282 177.706L173.975 178.227L172.934 179.246L173.817 180.165L172.972 181.019L172.108 180.809L170.951 181.406L171.291 178.793L170.529 178.027L167.976 177.849L167.457 176.353L166.399 177.307L164.902 176.758L163.556 177.226L163.806 178.858L163.291 179.537L162.863 182.127L164.933 181.976L168.126 182.597L173.08 181.892L175.562 183.117L178.704 183.963L182.77 187.737L184.645 188.714L188.198 191.177L191.661 196.221L193.701 197.546L195.145 197.669L196.953 197.057ZM196.953 197.057L197.247 198.774L198.055 198.789L199.12 197.463L202.326 197.431L202.915 196.951L206.105 197.114L205.979 198.646L206.799 199.724L206.586 200.895L207.313 201.828L208.398 202.092L208.272 200.554L209.213 198.324L210.815 196.798L212.028 196.08L211.713 199.319L212.203 200.636L213.319 197.498L214.888 195.057L215.852 192.796L216.814 191.19L218.492 189.299L219.287 188.891L220.853 188.899L223.488 188.037L225.698 184.518L226.621 183.832L228.912 183.317L230.211 183.614L231.992 183.236L233.702 183.235L235.83 182.148L237.01 181.209L238.339 181.362L238.884 180.26L241.695 179.205L241.697 178.09L242.504 176.706L242.796 175.084L243.49 173.423L244.841 172.114L245.898 170.371L246.575 169.895L248.703 169.541L250.551 169.872L252.752 171.473L253.978 171.509L254.477 172.208L254.31 169.694L251.371 162.711L250.535 160.047L247.977 157.323L247.411 154.96L244.531 151.023L243.77 149.089L244.877 144.691L243.393 141.406L242.798 140.569L242.541 139.045L241.762 137.215L242.253 135.828L243.535 135.339L246.548 135.638L247.93 134.174L250.248 133.559L251.869 132.795L253.633 131.234L254.826 130.705L255.395 128.97L256.973 127.054L258.548 126.408L260.633 125.168L262.62 125.187L265.372 121.626L265.628 116.979L265.895 114.768L267.315 111.681L270.174 109.505L270.617 107.568L271.887 104.874L274.258 103.312L277.375 101.66L277.974 101.681L279.195 103.072L281.549 103.394L282.34 101.857L283.87 101.791L284.618 101.062L285.853 102.2L287.269 102.289L287.997 101.358L288.784 102.021L289.026 103.766L290.13 104.19L291.76 102.265L291.185 101.255L290.668 96.4303L289.944 95.2042L289.332 92.6478L287.434 91.1433L284.805 88.5706L283.579 87.1061L282.728 86.6132L277.464 84.5789L276.009 83.5583L275.119 81.6274L273.18 78.8571L271.227 77.6924L269.37 77.4351L269.161 76.1759L267.178 71.8249L267.035 66.7471L267.559 63.071L267.539 61.8813L265.993 56.2053L265.853 54.3321L263.084 50.4513L259.984 46.7081L256.963 43.6755L253.141 40.6015L251.323 38.7074L241.259 32.0424L237.289 29.7121L228.676 26.2469L220.563 23.419L218.736 23.0029L214.241 22.5317L207.445 21.6671L205.803 21.7184L202.698 22.4401L198.4 25.3382L192.811 28.7624L184.847 34.4689L180.144 36.9711L176.705 37.7327L173.175 37.9193L163.802 39.0805L161.45 38.8364L159.614 38.2542L147.844 33.8177L143.114 31.893L137.947 30.0158L135.207 28.8605L130.98 27.9322L127.788 27.0165L126.483 26.403L125.829 23.7386L124.028 23.9381L123.057 23.1057L119.019 21.575L116.921 19.5062L114.085 18.3636L111.685 17.8975L111.905 13.8026L110.02 11.9851L106.145 10.6682L100.83 8.31666L97.3538 5.518L92.159 3.32394L88.4341 3.03125L83.9527 3.0738L82.3305 3.65555L80.4825 5.94106L79.4737 6.33823L77.3335 6.34383L75.1869 6.78764L73.3597 7.58213L71.3961 9.61674L69.3543 12.395L68.7552 13.864L68.1514 17.8538L66.4489 21.1937L65.2045 22.3739L64.1786 24.3169L61.0485 32.528L58.1548 44.0878L58.8228 45.8321L59.6635 46.8817L61.1854 48.0187L62.9951 48.2715L63.9446 48.0274L66.685 48.5202L68.6441 51.4637L69.1351 53.394L68.5851 54.9816L67.2446 55.9301L65.4073 56.4161L63.1786 58.7513L61.7089 61.9727L60.1457 66.596L59.9114 68.4172L58.9544 71.4311L57.8784 71.765L57.3388 73.5414L57.2925 74.9818L55.5474 76.0805L52.4538 79.4131L51.1967 81.1977L50.169 84.0451L50.2784 91.3602L50.5704 95.4136L50.3705 98.7043L49.9876 99.8464L48.8731 101.506L46.0051 104.549L42.852 108.934L40.0932 112.532L35.0549 118.238L33.1902 119.943L31.2934 121.23L27.4675 123.014L28.1504 123.676L30.657 124.4L30.7187 125.866M196.953 197.057L197.16 180.308L192.034 172.52L192.241 169.916L193.632 168.181L196.748 163.487L196.54 162.583L187.459 164.758L186.675 164.273L185.144 158.113L185.577 157.171L188.875 155.674L187.213 154.144L179.55 156.014L180.594 157.307L179.636 158.286L177.623 158.017L174.904 158.678L174.776 156.968L173.857 155.092L172.817 155.734L172.145 154.98L170.301 155.519L169.56 156.757L168.74 156.823L167.747 158.225L167.955 160.865L166.16 160.336L167.22 158.835L164.876 157.695L163.787 158.029L162.989 159.466L164.767 163.183L162.302 179.966L161.193 179.915L159.695 180.782L159.073 180.087L159.968 179.203L162.158 164.222L160.616 161.726L160.441 158.95L161.579 157.704L162.132 155.822L163.927 154.623L165.143 154.74L166.319 149.139L165.653 146.382L164.457 145.478L163.147 143.527L162.234 144.38L160.745 144.097L160.211 140.542L159.42 139.881L157.66 142.012L157.113 142.182L155.288 145.456L154.023 146.686L153.182 146.032L151.81 142.507L148.789 142.87L147.699 141.794L147.287 139.878L145.725 139.668L144.15 138.158L142.032 138.818L140.535 137.517L137.865 132.786L136.493 128.351L136.582 126.594L136.271 124.198L135.691 122.169L136.487 119.413L137.918 116.948L137.939 115.485L137.054 112.493L135.34 110.729L135.415 109.854L136.422 107.416L136.977 104.696L136.151 102.809L134.226 99.9783L134.078 96.9699L133.273 95.2598L128.805 90.9227L127.499 90.3634L127.558 87.3774L126.714 85.2509L122.007 79.5167L119.542 77.882L118.747 76.192L118.468 73.7369L117.381 72.6677L116.758 71.4933L115.31 71.4049L112.559 72.0107L110.672 73.4892L109.064 75.1711L108.322 76.91L107 78.1915L106.119 80.0204L105.89 82.1186L106.947 84.1183L107.735 84.4322L108.67 85.7545L109.393 87.5038L110.235 90.4598L111.277 91.7333L112.264 92.2329L113.644 92.1029L114.697 93.3303L116.437 96.8032L117.29 97.3615L120.463 97.5273L122.582 99.0351L124.152 102.954L125.332 104.63L126.277 108.17L127.456 110.012L129.358 110.98L129.64 111.924L129.276 116.078L128.434 115.88L126.367 113.926L125.379 113.784L123.968 115.136L125.194 116.302L125.145 117.748L125.936 118.566L126.604 123.229L125.453 127.587L125.459 129.463L124.791 130.988L123.429 132.831L123.324 136.794L123.84 137.725L123.147 142.178L124.555 143.69L119.048 143.278L119.179 144.493L117.767 144.515L117.95 142.942L117.657 141.551L115.34 142.247L116.736 143.865L116.759 145.753L116.104 146.791L113.939 146.807L113.693 148.974M97.2047 172.221L96.8844 170.686L95.6354 170.529L94.1632 170.482L92.739 171.424L93.5735 172.397L95.0228 172.779L97.2047 172.221ZM97.2047 172.221L98.3027 173.493L99.7475 172.562L101.183 172.404L101.564 170.59L100.874 171.836L99.0685 172.829L97.6655 171.646L97.2047 172.221ZM90.0621 165.829L90.734 167.342L92.1383 167.96L94.3787 166.124L94.1853 165.294L95.7057 163.726L97.2013 163.426L98.7712 164.858L100.147 163.443L98.6462 163.363L97.7721 162.639L96.0716 162.159L94.6883 162.138L92.4534 161.216L90.5728 161.553L91.4617 160.588L89.7517 159.266L87.5949 161.074L88.198 163.605L90.0621 165.829ZM90.0621 165.829L86.3828 161.87L90.0655 158.562L91.1807 158.848L94.0708 158.683L96.485 159.328L97.7188 158.873L98.6707 159.774L100.238 160.021L101.909 158.355L102.521 157.009L101.747 156.125L102.626 154.988L100.777 150.77L102.584 151.47L106.653 150.561L107.582 149.369L107.117 147.961L106.166 146.676L109.313 144.221L109.076 145.427L108.101 147.033L109.682 148.817L110.886 149.21L111.719 148.601L113.693 148.974M90.0621 165.829L90.1311 167.586L89.6498 171.166L89.8202 172.431L89.4445 173.421L88.3734 173.588L87.3342 174.581L81.1201 176.725L76.0491 178.594L75.1229 179.799L75.4771 181.224L73.7344 181.758L74.1528 182.978L72.513 185.355L71.7161 186.106L71.1578 184.907L71.308 183.718L70.5545 182.099L69.1919 181.775L69.6865 183.145L69.471 184.21L68.5941 184.683L68.0659 182.096L66.7665 182.454L63.0398 189.407L70.8261 192.82L72.3902 194.291L76.2074 194.597L78.582 194.736L81.0683 195.309L79.3111 196.032L75.4852 198.035L73.0127 197.791L70.7174 196.671L64.6073 194.838L59.3159 194.003L57.1803 194.273L55.0461 195.015L54.4629 195.625L51.0623 197.219L46.9892 198.285L42.831 198.502L38.2862 198.276L36.0221 197.421L33.4704 196.76L30.0377 195.104M113.693 148.974L113.652 149.759L110.932 150.831L109.433 150.252L112.131 148.975L113.693 148.974ZM30.0377 195.104L29.2764 195.369L28.2918 194.187L27.8487 192.979L28.0696 190.263L29.1585 190.961L28.4943 192.461L30.0377 195.104ZM30.0377 195.104L34.4325 196.472L36.9875 196.984L38.2698 193.868L41.1898 191.161L41.0787 188.981L41.7838 187.94L44.9606 187.786L45.6279 185.719L43.79 184.258L43.101 184.88L41.4837 184.339L39.4866 184.557L39.629 186.953L39.1959 187.504L39.4412 189.322L39.4162 191.726L37.9683 192.773L36.2941 192.151L35.4303 192.295L34.2274 193.641L30.9985 191.454L31.5596 189.786L28.6544 187.958L27.0663 188.244L25.8702 185.309L26.2377 184.136L24.3635 183.623L24.1847 180.725L25.5792 176.953L25.1443 175.934L22.4453 173.783L19.7973 173.141L18.6023 173.205L15.6737 172.838L12.6941 172.791L11.7204 173.068L12.9332 169.868L13.1758 165.746L12.1864 166.45L12.0604 169.458L10.6072 172.646L10.4963 174.117L9.79182 174.461L8.65211 176.597L7.64241 176.006L5.91306 171.974L5.85548 169.049L8.45685 167.783L9.71746 166.561L11.5992 163.951L12.2664 161.947L12.3404 160.257L11.2427 156.942L9.71317 154.969L7.76952 153.686L6.64073 153.726L5.75106 154.387L5.52505 155.644L4.72361 157.272L3.98363 157.151L3.32422 155.415L3.68245 153.338L4.5781 152.351L5.94277 151.671L5.34413 149.539L5.9141 148.459L7.44698 147.454L7.19021 146.779L7.35998 144.439L8.64433 144.672L8.79123 143.709L10.1888 143.32L10.2408 145.896L9.35621 149.372L8.50213 149.812L8.24605 151.645L9.45837 152.645L10.799 152.916L10.6905 151.713L15.0428 148.646L14.2424 147.885L16.1298 145.575L18.2262 145.894L19.6923 144.88L21.1335 144.774L21.6395 143.871L21.0025 143.193L21.139 140.102L22.7303 137.058L22.2574 135.783L23.3246 134.628L21.8855 132.731L20.3066 134.072L19.5649 135.652L18.7043 134.984L19.8128 133.261L19.1333 130.221L19.0032 127.633L17.1595 127.072L15.1113 127.029L14.3383 125.906L16.6205 126.234L19.3255 126.055L19.7541 124.13L22.9645 124.425L24.5012 124.305L25.3535 125.144L25.6192 127.488L26.8869 126.623L28.0996 127.257L30.7187 125.866M30.7187 125.866L32.1701 129.662L33.3791 128.974L33.539 126.266L35.2473 126.028L35.0722 124.827L33.7599 125.352L32.6096 125.128L30.7187 125.866ZM211.113 201.087L210.725 201.928L209.202 200.665L210.28 200.14L211.113 201.087ZM76.2557 189.088L77.7515 189.048L76.7578 191.916L76.2557 189.088ZM114.652 191.839L113.153 193.95L109.926 195.425L108.592 195.225L107.388 193.991L105.217 192.557L103.666 191.922L103.422 190.98L105.715 191.735L107.505 192.923L108.438 192.855L110.626 193.413L111.347 193.317L112.461 191.996L114.586 190.634L114.652 191.839ZM70.584 187.692L69.408 187.605L69.2585 186.697L70.6194 186.735L70.584 187.692ZM89.2656 186.533L87.6661 187.24L87.3527 188.108L85.7505 187.561L87.4225 186.32L89.2656 186.533ZM83.2434 182.74L84.9608 182.681L85.7473 184.191L84.3471 184.451L81.3261 183.468L81.7673 182.493L83.2434 182.74ZM127.167 180.778L128.859 181.93L128.87 182.605L124.571 181.399L126.008 180.818L127.167 180.778ZM103.34 180.082L104.518 180.681L105.093 181.808L103.08 181.686L102.329 180.347L103.34 180.082ZM104.052 178.555L103.892 179.847L102.777 179.469L102.677 177.698L103.703 177.427L104.052 178.555ZM88.9878 178.722L87.8333 178.852L86.1978 179.668L85.9512 180.371L84.442 179.401L85.8156 178.33L87.8419 177.284L88.9878 178.722ZM94.6578 179.062L94.3664 177.486L95.6085 178.015L94.6578 179.062ZM184.618 174.975L183.319 174.797L184.279 173.159L185.476 172.393L186.672 173.006L184.618 174.975ZM91.7678 171.791L92.3978 171.938L91.4572 173.712L90.6785 172.674L91.7678 171.791ZM93.1997 169.799L91.6749 170.892L91.018 170.289L92.2141 169.051L93.1997 169.799ZM104.504 168.705L104.206 170.923L103.549 170.834L103.124 169.182L102.027 167.658L104.504 168.705ZM112.629 153.057L114.412 151.725L116.159 153.47L116.964 155.048L116.862 155.864L115.379 155.218L113.334 156.59L110.545 156.504L108.719 154.725L108.51 153.447L108.943 152.126L110.005 151.393L111.995 151.972L112.629 153.057ZM160.078 146.325L158.261 150.423L158.003 149.658L159.214 146.894L160.078 146.325ZM157.587 147.227L156.013 146.614L155.884 145.977L156.962 143.926L158.068 144.815L157.618 145.641L157.587 147.227ZM131.557 125.63L133.895 126.728L133.794 128.831L133.116 128.668L130.076 126.194L131.557 125.63ZM132.475 122.718L131.725 124.377L130.288 124.66L129.702 124.248L130.918 122.867L132.475 122.718ZM134.856 123.644L134.325 123.665L134.05 120.532L134.805 120.55L134.856 123.644Z" stroke="white" stroke-width="5"/>
</svg>
