<svg width="223" height="299" viewBox="0 0 223 299" fill="none" xmlns="http://www.w3.org/2000/svg">
<path d="M207.698 12.0996L207.63 13.6148L209.872 16.0656L212.255 20.1699L212.486 21.2379L215.478 25.2945L218.102 31.0363L218.956 32.3164L219.722 34.3969L220.327 38.4008L220.209 40.521L219.868 41.4009L216.523 42.5879L214.877 42.7473L212.574 43.3477L210.842 44.2447L208.011 46.8944L206.882 46.2814L203.465 49.2878L202.894 51.1827L203.338 54.8988L204.846 59.5632L204.568 60.5537L203.017 61.567L200.115 61.9384L198.902 63.2074L200.135 67.2312L201.834 68.246L202.513 70.9437L202.294 71.7179L200.81 71.9058L199.206 72.8087L197.975 74.6391L196.721 75.9835L196.096 77.9662L197.071 79.332L198.496 83.7377L200.261 86.3075L200.854 89.0926L200.483 91.0437L201.007 92.1393L203.242 93.9433L207.311 95.6921L208.002 97.2704L209.587 103.281L209.695 104.257L207.635 104.97L207.299 104.085L205.946 103.219L203.994 102.988L201.848 103.946L198.674 105.079L195.872 107.137L194.441 108.445L192.692 110.905L190.937 112.407L190.51 113.158L190.14 117.06L191.121 118.878L191.935 118.808L196.267 119.199L198.472 118.978L201.375 120.495L205.694 123.3L207.305 123.413L209.09 125.653L210.997 126.507L214.894 127.922L212.603 132.534L211.702 134.92L210.602 136.41L209.875 139.33L209.478 143.465L208.664 146.113L207.311 146.372L205.383 145.13L203.636 146.394L202.864 150.869L202.591 155.725L202.609 158.057L201.2 162.206L201.381 163.661L203.097 167.7L203.688 170.007L204.604 171.689L205.112 173.724L208.348 173.085L209.786 172.435L210.444 173.365L209.569 176.852L208.35 176.985L203.659 176.815L201.491 176.42L199.867 177.287L198.45 176.932L197.582 177.409L196.563 179.164L194.874 179.702L192.567 180.845L191.233 182.208L192.701 184.421L193.8 184.525L192.219 186.143L189.774 186.041L188.223 186.268L184.152 185.857L183.373 187.32L181.45 187.933L179.66 189.07L178.022 188.848L175.891 189.824L174.661 190.865L172.399 193.575L170.122 195.951L165.497 198.233L164.04 198.745L162.812 198.161L160.237 200.012L156.536 200.811L154.464 202.703L151.971 203.551L151.9 205.848L150.059 206.08L148.773 207.369L150.234 211.106L150.569 215.141L151.187 217.044L151.273 219.15L149.671 223.889L149.192 226.224L148.966 229.497L149.104 231.191L149.94 234.376L149.347 238.393L148.649 241.062L147.853 242.88L144.652 248.227L140.789 252.808L137.831 257.674L136.969 259.652L135.239 262.649L134.577 261.094L134.502 259.427L133.598 257.083L131.623 256.046L130.351 254.139L129.069 253.065L125.836 251.904L122.708 253.336L121.865 254.043L120.131 256.443L119.67 258.285L118.995 258.828L117.759 258.807L116.365 260.146L114.349 261.153L113.507 262.178L111.072 263.388L108.625 263.694L108.011 264.081L106.428 263.445L104.941 263.287L104.12 263.65L103.011 265.523L102.345 267.253L100.924 269.2L100.191 271.556L99.4897 272.62L98.6763 276.2L97.6387 279.453L96.6721 281.892L96.7529 282.989L96.0523 286.889L96.0721 288.205L95.188 289.989L95.0581 291.775L93.5721 294.058L91.2308 291.338L88.9008 291.01L86.6837 291.186L84.5276 289.906L80.5172 289.097L78.6493 289.098L76.3448 288.043L74.1676 285.377L72.6351 283.822L71.3702 283.268L69.6981 281.476L68.1918 280.63L66.8407 281.002L64.7564 280.334L62.3679 278.796L61.348 278.968L58.2952 280.565L55.1872 281.673L52.4126 281.913L48.7179 281.265L46.6952 279.849L43.7532 277.35L41.4254 278.321L39.8275 277.91L38.4006 278.637L37.5997 278.341L33.8495 275.254L32.7285 274.666L31.6229 274.749L30.4202 275.499L28.9943 277.508L25.1623 278.487L23.9221 279.788L22.6671 281.666L22.1377 283.231L20.3989 283.752L20.127 284.584L17.8051 284.061L15.4846 285.211L15.3177 282.697L12.3789 275.714L11.5428 273.05L8.98453 270.326L8.41874 267.963L5.53836 264.026L4.7772 262.092L5.88487 257.693L4.40051 254.409L3.80569 253.572L3.5488 252.048L2.76953 250.218L3.26091 248.831L4.54236 248.342L7.55531 248.641L8.93775 247.176L11.2561 246.562L12.8766 245.798L14.6409 244.237L15.8336 243.708L16.4023 241.973L17.9807 240.057L19.5555 239.411L21.6411 238.171L23.6279 238.19L26.3793 234.629L26.6361 229.982L26.9031 227.771L28.3227 224.684L31.1819 222.508L31.625 220.571L32.895 217.877L35.2657 216.315L38.3826 214.663L38.9818 214.684L40.2025 216.075L42.5564 216.397L43.3479 214.859L44.8776 214.794L45.6259 214.065L46.8609 215.203L48.2766 215.292L49.0051 214.361L49.792 215.024L50.0337 216.769L51.1373 217.192L52.7678 215.268L53.4511 214.872L55.1097 215.708L55.5856 217.06L56.7169 217.935L58.097 216.864L59.6874 216.423L62.0293 214.131L64.6547 213.349L65.1549 212.329L67.3818 212.95L71.158 211.108L72.6953 210.037L73.9718 207.898L75.3532 206.341L77.6873 201.721L79.0972 200.581L79.2863 198.116L81.9303 194.696L82.9132 192.82L82.6256 189.519L82.8016 187.629L83.9384 186.831L84.201 184.756L85.0102 184.384L84.4674 180.343L82.8442 175.837L81.2939 172.837L80.6035 172.268L78.9232 169.544L78.5216 168.309L79.0601 166.602L80.7517 164.376L80.7149 161.865L83.7131 155.907L84.2355 152.675L82.9345 152.158L81.7252 149.061L81.8204 147.785L84.7623 143.597L84.59 142.102L83.2602 141.615L81.0687 142.425L80.0652 141.941L79.535 140.804L79.0765 137.797L78.0883 137.181L77.3164 137.888L76.1109 137.821L75.5 136.134L74.6582 134.908L74.971 131.255L75.3681 129.488L73.6877 128.443L73.0214 126.569L72.6567 122.415L73.4841 120.071L72.347 118.494L70.9464 117.932L70.276 116.564L70.1613 114.893L70.6531 113.691L71.4084 113.305L74.2164 115.374L75.0001 114.971L75.8884 111.855L77.018 112.141L78.1729 111.803L79.4864 113.003L80.4534 112.764L83.3973 110.247L84.1821 107.946L85.2567 106.692L85.4023 104.459L87.4406 102.491L88.1929 100.985L89.303 100.694L90.2246 99.1256L91.4314 98.383L90.1845 96.4312L90.2493 95.1422L91.7855 95.553L93.332 95.0937L94.8675 95.3904L94.97 92.7383L96.7926 90.5098L99.834 90.2341L103.097 88.6254L104.418 87.3482L106.63 87.2165L108.106 85.4605L109.74 85.22L112.852 83.3126L114.332 83.1935L115.994 81.5248L118.77 79.3055L119.997 80.2741L120.631 78.3304L122.282 78.3674L123.621 77.5424L125.568 75.8872L125.639 73.3019L124.609 70.9319L122.787 68.1522L122.037 65.9643L121.175 64.3715L119.377 60.1291L119.602 58.5528L119.487 55.8088L120.717 54.4685L122.315 51.7402L123.49 50.3983L124.367 48.5716L124.183 45.3116L124.239 43.0155L125.075 39.6447L124.338 37.0532L124.657 33.9669L125.146 33.1337L127.331 32.8577L130.282 33.3273L133.005 34.0715L135.303 33.8675L136.423 34.4387L137.726 35.7981L139.242 36.2483L140.506 35.374L141.559 33.6092L142.667 33.0106L144.426 33.1575L146.481 33.9357L147.03 34.6781L150.245 36.6591L154.078 39.4958L157.371 38.4941L158.891 37.7346L163.368 38.494L165.498 37.6603L168.627 36.0281L171.251 33.4552L172.773 32.8162L175.629 32.1666L178.762 30.4979L180.561 28.8515L180.911 27.6159L180.413 25.6361L179.866 25.0247L179.862 23.6486L180.784 20.7318L180.73 17.1279L180.328 14.4133L180.387 12.6894L180.065 10.0102L180.255 8.94147L179.825 5.15434L180.054 3.14062L181.517 3.20997L182.982 4.88466L184.111 5.62843L186.086 6.19277L188.696 7.68409L190.331 9.00022L191.698 11.1896L192.821 11.9795L195.559 12.2809L197.808 12.0069L199.195 11.4262L202.518 9.41738L204.56 8.99674L205.718 9.37997L206.425 11.3184L207.698 12.0996Z" fill="#1E1E1E" stroke="white" stroke-width="5"/>
</svg>
