<svg width="246" height="292" viewBox="0 0 246 292" fill="none" xmlns="http://www.w3.org/2000/svg">
<path d="M125.172 264.422L122.162 265.089L122.43 263.587L124.118 263.422L125.172 264.422ZM106.696 253.167L108.951 253.293L111.451 254.716L113.581 255.44L114.756 258.047L113.216 257.668L113.088 256.95L111.625 257.084L111.437 258.161L111.845 259.211L113.808 259.289L114.609 260.634L115.883 261.64L118.479 264.861L118.038 265.926L116.174 264.481L110.723 262.861L108.961 263.634L107.778 262.003L107.502 259.834L105.523 257.081L105.119 254.028L106.696 253.167ZM123.023 24.528L124.717 25.1908L126.003 26.4911L126.806 28.666L126.103 32.987L126.47 33.9093L125.896 35.8842L123.589 38.783L122.285 41.011L121.814 43.3645L122.315 45.3853L123.742 48.0504L125.713 49.8656L126.951 51.9082L127.165 56.2729L127.817 57.8414L130.84 59.1483L132.45 59.1115L136.029 58.5529L138.47 58.6335L140.52 58.9943L143.784 59.8735L145.243 61.1938L145.777 63.5434L145.916 68.9484L147.843 72.9631L150.144 72.8843L155.336 71.5157L158.066 71.3139L159.848 72.8255L160.688 74.4938L162.232 76.6113L164.677 77.2112L166.37 77.1712L168.283 78.0625L170.544 77.1671L172.717 74.7743L174.244 71.3901L178.77 71.1164L183.489 69.403L187.341 67.3925L189.213 66.5972L192.996 65.9906L195.781 66.4426L197.199 67.5795L199.815 68.1751L200.813 68.1185L201.8 68.8518L201.482 70.3374L200.761 71.3816L201.128 73.343L200.765 75.7909L201.334 76.8728L200.771 78.9383L199.633 80.1078L197.963 82.6498L197.626 84.6851L197.028 85.9415L194.543 86.7483L193.239 87.6724L192.763 90.111L192.171 91.0125L189.979 93.216L188.234 96.2033L187.707 98.9664L188.912 101.632L187.954 102.927L186.839 105.075L189.29 108.366L191.529 113.278L192.221 116.366L190.916 120.329L190.671 122.3L191.35 123.935L192.18 124.946L192.435 129.299L192.891 131.044L194.72 133.569L197.421 135.287L200.92 138.19L203.035 141.273L203.981 142.059L208.261 140.975L209.99 139.562L210.886 138.32L211.733 135.663L212.434 134.205L213.796 134.908L215.311 138.519L217.791 143.405L218.835 144.615L221.838 144.762L223.896 145.687L225.526 146.735L227.723 148.92L229.436 149.277L231.546 148.925L233.319 150.512L233.784 151.725L233.79 154.432L233.262 155.183L230.47 157.524L229.79 160.23L229.813 162.086L230.717 166.88L230.755 170.63L230.353 172.049L229.721 172.481L226.319 171.89L221.964 170.787L219.176 171.856L214.936 171.336L214.009 172.089L213.49 173.507L210.978 174.476L207.606 176.338L206.412 177.191L206.03 178.629L206.558 180.779L206.315 183.056L203.862 186.817L203.206 189.597L203.256 192.492L203.911 197.315L204.153 202.61L203.82 205.592L203.217 208.257L203.156 210.33L203.966 213.135L204.1 215.339L203.866 219.527L204.231 221.643L205.679 224.877L203.808 228.919L204.226 231.244L205.041 232.598L206.481 233.172L207.627 233.118L207.407 234.596L206.141 236.191L205.844 238.32L207.346 239.49L210.123 239.594L212.069 240.401L213.252 241.895L216.707 241.309L218.386 241.285L220.562 241.67L222.297 242.361L227.98 246.257L228.884 247.637L228.339 250.091L227.511 252.038L227.179 253.816L228.873 255.24L230.857 255.724L233.58 257.645L237.119 262.174L239.893 263.7L241.526 265.678L242.079 267.568L242.54 271.231L240.682 271.535L238.99 272.55L233.827 273.762L232.448 273.53L231.097 272.517L228.555 272.413L226.174 271.055L224.785 269.845L223.911 269.533L221.019 265.95L219.569 266.756L218.719 268.744L220.145 269.481L220.601 270.857L219.211 271.273L217.594 272.837L217.008 273.893L218.097 277.02L217.207 277.449L215.237 277.386L212.686 276.276L210.271 275.584L208.824 273.122L205.937 271.744L204.902 271.941L204.038 269.486L202.789 269.078L202.023 267.061L200.29 265.214L199.537 262.84L197.551 261.705L195.186 262.753L194.045 263.988L193.905 265.15L194.487 265.903L193.79 267.115L193.514 268.606L191.99 268.641L190.703 267.087L190.402 265.01L188.27 263.669L187.302 263.955L186.408 265.283L186.437 266.39L185.013 266.652L183.563 267.995L181.737 268.818L180.391 270.968L179.539 271.628L177.788 273.769L176.7 274.544L174.218 275.065L173.51 274.853L170.392 277.211L169.006 279.771L169.158 281.027L168.809 282.76L167.682 285.186L167.45 287.071L165.938 288.758L165.37 288.681L164.341 287.285L164.249 286.346L162.688 284.091L160.37 283.133L158.989 280.789L159.196 279.417L158.531 278.444L157.448 277.833L157.165 276.468L157.574 275.235L156.539 273.694L154.266 274.107L153.85 272.601L152.569 270.525L150.924 269.62L149.858 270.572L150.518 271.871L149.503 272.748L149.505 273.804L148.727 274.366L146.665 274.025L145.367 273.514L141.569 270.749L144.269 270.527L143.665 269.383L143.676 267.841L142.141 264.044L138.047 263.877L137.63 261.705L138.201 261.198L137.368 259.461L136.363 258.841L134.642 258.731L132.707 259.049L131.594 258.569L130.651 259.948L129.898 259.686L129.127 258.06L128.055 257.078L127.15 259.063L126.3 259.385L125.097 259.018L124.337 256.994L122.375 256.643L122.39 255.261L118.402 255.065L114.212 252.911L113.849 251.812L112.636 250.764L110.875 250.768L108.806 250.254L107.019 249.48L107.018 247.703L105.893 244.926L102.784 244.118L101.279 242.514L100.463 241.181L99.4135 241.444L95.9132 241.689L94.0328 242.353L90.3862 242.659L87.8218 242.066L86.4898 241.297L84.1026 242.217L81.517 244.097L78.9109 244.784L77.5437 244.88L75.9473 243.965L74.0181 241.09L73.6099 239.611L71.2227 239.204L68.4548 238.155L66.6712 238.55L64.7365 238.359L62.1306 236.956L60.8555 235.966L59.7875 236.202L58.613 235.522L52.7081 234.958L50.4379 235.273L48.8606 234.731L47.5579 234.869L46.4112 234.123L43.7887 234.3L42.5648 235.588L42.4102 238.782L41.4482 238.12L40.6655 238.43L38.8551 240.017L37.2191 242.97L35.633 245.302L32.9136 249.174L29.0136 251.181L27.8691 252.536L25.4243 256.092L22.6694 256.646L20.3734 257.647L19.0711 257.595L16.7301 258.24L14.578 257.913L10.5737 255.882L8.09063 254.773L4.37502 255.586L3.05469 254.667L3.23752 253.644L4.96751 250.647L5.83001 248.67L8.78806 243.803L12.6507 239.222L15.8524 233.876L16.6478 232.057L17.3462 229.388L17.939 225.371L17.1028 222.186L16.9648 220.493L17.1907 217.22L17.6701 214.885L19.2723 210.146L19.186 208.039L18.5675 206.137L18.2325 202.102L16.7716 198.365L18.0578 197.076L19.8988 196.843L19.9699 194.547L22.4626 193.698L24.5347 191.807L28.2355 191.008L30.8112 189.157L32.0393 189.74L33.4959 189.229L38.1215 186.947L40.3981 184.571L42.6599 181.86L43.89 180.819L46.0208 179.843L47.659 180.066L49.4494 178.929L51.3715 178.316L52.151 176.853L56.2223 177.264L57.7734 177.037L60.2181 177.139L61.7986 175.521L60.6998 175.417L59.232 173.204L60.5661 171.84L62.8729 170.698L64.5624 170.159L65.5814 168.405L66.4493 167.928L67.8661 168.282L69.49 167.416L71.6583 167.811L76.3487 167.981L77.5682 167.848L78.4427 164.36L77.7849 163.431L76.3472 164.081L73.111 164.72L72.6029 162.685L71.6869 161.003L71.0962 158.696L69.3802 154.657L69.1994 153.202L70.6081 149.052L70.59 146.721L70.8626 141.865L71.6346 137.39L73.3816 136.126L75.3099 137.367L76.6628 137.109L77.4768 134.461L77.8737 130.326L78.6008 127.406L79.7006 125.916L80.602 123.53L82.9995 119.413L78.9962 117.502L77.0891 116.649L75.304 114.408L73.6934 114.296L69.3743 111.491L66.4709 109.974L64.266 110.195L59.9341 109.804L59.1198 109.874L58.1388 108.056L58.5088 104.154L58.9363 103.403L60.6908 101.901L62.4403 99.4406L63.8712 98.1322L66.6731 96.0747L69.8467 94.9418L71.9933 93.9838L73.9452 94.2149L75.2978 95.0802L75.6342 95.9656L77.6938 95.253L77.5858 94.2768L76.0009 88.2661L75.3101 86.6879L71.2409 84.939L69.0064 83.135L68.4821 82.0395L68.8531 80.0883L68.2602 77.3032L66.4952 74.7334L65.0701 70.3277L64.0953 68.9619L64.7201 66.9792L65.9743 65.6348L67.2053 63.8044L68.809 62.9015L70.293 62.7136L70.5124 61.9394L69.8332 59.2417L68.1339 58.2269L66.9009 54.2031L68.1143 52.9341L71.0155 52.5627L72.5666 51.5494L72.8453 50.559L71.3368 45.8945L70.893 42.1784L71.4638 40.2836L74.8812 37.2771L76.0101 37.8901L78.8408 35.2404L80.5728 34.3434L82.8759 33.743L84.5215 33.5836L87.8666 32.3966L88.2079 31.5167L88.3264 29.3966L87.7212 25.3926L86.955 23.3121L86.1012 22.032L83.4773 16.2902L80.4845 12.2336L80.2541 11.1656L77.8713 7.06128L75.6289 4.61057L75.6971 3.09533L78.5433 3.06641L82.8749 3.797L85.1299 5.02894L88.3516 3.98794L89.7944 4.09348L91.5364 5.06801L92.7806 6.28829L94.985 8.98384L96.8941 10.0781L99.2645 9.73745L103.944 10.5513L104.762 11.0286L107.574 14.7418L108.426 15.4131L110.886 16.4244L109.566 16.9192L110.021 19.5419L109.354 21.8223L109.633 23.5903L113.454 21.7999L114.849 21.461L118.637 21.6318L120.38 22.3243L123.023 24.528Z" fill="#1E1E1E" stroke="white" stroke-width="5"/>
</svg>
