<svg width="264" height="342" viewBox="0 0 264 342" fill="none" xmlns="http://www.w3.org/2000/svg">
<path d="M157.764 272.361L156.844 270.878L157.428 270.278L158.93 271.293L157.764 272.361ZM245.054 159.756L243.908 160.621L241.456 161.341L238.978 161.44L237.217 161.065L234.018 159.351L231.163 155.86L229.977 155.347L226.623 155.458L224.549 155.272L220.33 153.655L218.37 152.528L214.557 151.134L211.296 149.635L208.918 149.17L204.632 147.396L201.734 145.719L201.039 146.014L199.807 148.364L198.09 153.332L197.215 157.614L197.572 158.34L199.035 158.696L201.15 161.238L203.715 163.322L205.363 164.347L207.109 167.463L209.091 170.574L211.044 172.291L211.77 173.618L212.596 176.986L212.954 179.627L213.957 183.668L215.062 185.639L216.355 186.931L216.935 188.009L217.347 190.103L218.011 195.363L217.458 198.926L217.619 199.721L219.974 202.066L220.897 203.379L222.787 205.403L224.592 206.384L226.399 208.212L228.212 210.929L228.168 212.69L227.432 216.302L228.228 220.839L226.196 222.792L224.093 225.868L224.342 226.868L226.402 227.779L228.772 230.13L230.63 232.512L232.602 236.644L234.288 238.663L237.7 240.437L239.992 241.854L242.25 242.986L243.293 243.158L246.854 241.56L250.537 238.411L252.275 238.015L254.528 238.395L255.038 240.155L254.605 244.46L256.193 248.888L258.501 252.504L259.066 253.871L259.695 258.128L259.614 260.233L259.158 261.911L257.991 264.124L257.025 268.586L257.034 270.389L258.081 276.322L258.272 278.817L260.514 280.608L260.062 283.334L257.725 287.018L256.145 287.04L254.961 287.474L255.633 289.051L255.56 291.671L254.704 292.952L253.877 292.369L252.772 290.386L251.391 290.728L250.938 291.448L251.049 293.126L250.505 295.653L249.26 298.528L249.203 302.49L248.037 305.57L247.275 306.177L247.049 307.866L248.075 309.478L251.147 310.249L254.026 312.256L254.811 314.163L256.079 314.127L257.183 313.58L257.349 314.751L254.948 315.275L254.542 317.041L251.754 319.751L248.648 321.142L248.367 322.921L250.126 324.003L248.829 325.941L249.848 327.576L249.15 328.858L247.301 329.8L248.365 331.325L248.245 332.732L245.354 331.968L243.863 332.378L245.002 334.809L245.254 336.708L246.262 338.189L245.607 338.62L244.068 338.126L242.719 336.854L241.007 336.555L240.066 337.386L236.441 336.745L234.542 337.577L233.542 337.181L231.35 335.613L229.749 332.895L229.683 331.74L228.727 330.688L229.96 330.276L230.63 329.209L230.139 328.27L228.13 326.311L228.069 324.743L227.356 324.3L227.796 323.145L226.85 322.305L225.501 319.528L223.82 318.665L223.3 317.409L223.665 315.414L222.427 314.516L220.884 312.741L219.584 311.701L216.572 310.703L215.784 309.972L214.379 307.619L214.203 305.239L214.984 303.749L216.288 302.509L217.323 303.09L219.218 302.549L220.298 302.958L223.95 302.163L224.546 300.605L223.428 298.4L223.242 296.514L220.73 294.091L218.997 292.964L217.288 290.545L216.244 290.448L212.139 287.064L211.027 285.4L210.421 282.188L210.739 279.985L210.437 278.528L209.637 277.906L208.664 275.796L207.869 274.973L207.25 273.02L205.74 271.638L204.764 270.203L202.582 269.104L201.009 266.806L197.456 264.683L192.171 258.431L189.112 254.319L187.497 252.762L186.445 248.562L185.723 247.896L185.135 246.049L183.474 243.874L181.41 242.788L178.751 242.951L176.053 243.616L173.724 244.423L172.258 244.397L170.595 242.375L168.452 241.932L165.034 240.695L164.853 240.098L165.942 238.997L166.557 236.74L166.212 235.681L165.323 235.668L164.813 233.68L164.907 232.528L163.386 232.263L162.027 234.09L160.134 233.943L159.063 232.903L158.334 230.003L156.565 229.805L155.856 230.594L155.747 232.83L156.616 235.121L156.35 235.987L156.768 237.731L156.466 239.579L155.55 240.32L156.64 241.697L157.927 241.708L159.117 242.474L160.466 246.448L160.785 249.275L160.758 251.834L162.028 251.084L164.306 252.864L162.499 254.604L161.026 255.346L159.126 254.727L158.532 255.925L155.069 255.409L154.079 253.555L151.722 255.935L148.656 257.801L148.49 258.803L146.928 261.578L145.04 263.652L143.579 265.811L143.113 267.94L144.188 269.666L145.198 270.477L147.526 270.123L148.231 271.215L148.192 272.464L149.469 273.019L148.575 274.394L150.372 274.41L151.098 276.312L152 274.524L153.594 273.3L154.991 274.179L153.755 276.287L155.491 276.193L155.811 277.552L155.197 278.387L156.311 279.578L155.824 280.047L156.848 281.803L157.507 284.253L156.161 285.375L155.01 285.359L152.485 283.75L152.497 285.029L150.989 285.382L149.631 283.918L148.161 283.776L148.136 284.744L148.725 286.945L148.742 288.888L148.098 290.075L146.829 290.742L146.622 292.125L147.556 293.92L148.284 291.42L149.07 291.406L150.624 292.877L151.846 292.369L153.127 292.953L154.016 294.067L153.583 294.876L151.502 296.004L149.2 296.714L146.798 298.661L146.338 300.068L146.18 303.536L144.963 304.096L141.936 304.326L140.052 303.398L138.265 301.597L136.874 302.149L135.791 301.419L134.816 299.771L135.388 299.091L134.763 297.305L134.884 296.13L136.224 294.955L135.298 293.575L131.14 293.26L128.543 294.232L128.081 290.569L127.529 288.679L125.895 286.7L123.121 285.175L119.583 280.645L116.859 278.725L114.875 278.241L113.181 276.816L113.513 275.039L114.342 273.091L114.886 270.638L113.983 269.258L108.299 265.362L106.565 264.671L104.388 264.286L102.71 264.309L99.2542 264.896L98.0713 263.402L96.1253 262.595L93.3489 262.491L91.8462 261.321L92.1435 259.192L93.4091 257.597L93.629 256.119L92.4829 256.172L91.0438 255.599L90.2286 254.244L89.8104 251.92L91.6816 247.878L90.2331 244.644L89.8681 242.528L90.102 238.339L89.9684 236.136L89.1587 233.33L89.2191 231.257L89.8223 228.593L90.1557 225.611L89.9129 220.316L89.2583 215.492L89.2082 212.598L89.8641 209.818L92.3173 206.056L92.5607 203.779L92.0325 201.629L92.4149 200.191L93.6085 199.338L96.9802 197.477L99.4923 196.507L100.012 195.089L100.938 194.336L105.178 194.856L107.966 193.788L112.321 194.89L115.723 195.481L116.355 195.049L116.758 193.631L116.719 189.88L115.815 185.087L115.793 183.23L116.473 180.525L119.264 178.183L119.792 177.432L119.786 174.726L119.322 173.512L117.549 171.926L115.438 172.277L113.725 171.92L111.528 169.736L109.898 168.688L107.84 167.762L104.838 167.616L103.793 166.405L101.313 161.52L99.7987 157.909L98.4359 157.205L97.7358 158.664L96.8883 161.321L95.9926 162.563L94.2636 163.975L89.9834 165.06L89.0374 164.274L86.9229 161.19L83.4233 158.288L80.7226 156.569L78.8931 154.044L78.4374 152.299L78.182 147.946L77.3522 146.935L76.673 145.3L76.9183 143.33L78.2238 139.367L77.5316 136.279L75.2923 131.367L73.0229 128.665L73.9568 125.928L74.9148 124.633L73.7094 121.967L74.2364 119.204L75.9815 116.216L78.1729 114.013L78.765 113.111L79.2416 110.673L80.5454 109.749L83.0301 108.942L83.6281 107.686L83.9656 105.65L85.6349 103.108L86.7732 101.939L87.3363 99.8732L86.7676 98.7914L87.1303 96.3435L86.7636 94.382L87.4846 93.3379L87.8025 91.8523L86.8151 91.119L85.8176 91.1756L83.2017 90.5799L81.783 89.4431L78.9983 88.9911L75.2152 89.5977L73.3429 90.3929L69.4919 92.4035L64.7727 94.1169L60.2464 94.3905L58.7191 97.7747L56.5462 100.168L54.2853 101.063L52.3728 100.172L50.6791 100.212L48.2342 99.6117L46.6907 97.4943L45.8506 95.826L44.0688 94.3144L41.3382 94.5162L36.1465 95.8847L33.845 95.9636L31.9181 91.9489L31.7799 86.5439L31.2452 84.1943L29.7867 82.8739L26.5223 81.9948L24.4727 81.634L22.0318 81.5534L18.4522 82.112L16.8425 82.1488L13.8192 80.8419L13.1675 79.2734L12.9532 74.9087L11.7159 72.8661L9.74432 71.0509L8.31696 68.3858L7.81641 66.3649L8.28782 64.0114L9.59098 61.7835L11.8983 58.8847L12.4724 56.9098L12.1058 55.9875L12.8083 51.6664L12.0055 49.4916L10.7197 48.1912L9.02542 47.5285L12.2386 46.8371L15.543 46.919L17.5716 47.7776L20.4853 50.4575L21.7694 52.382L22.8435 54.9032L24.0867 59.2923L26.0346 62.1988L27.1757 63.2937L31.4376 59.9148L33.7977 56.4809L35.8753 55.0503L38.003 54.623L40.3886 54.7572L43.6535 56.2011L45.0855 55.5768L46.9171 52.661L47.4677 50.91L48.659 48.8027L48.6791 46.2357L49.2022 44.451L51.2796 42.2057L52.4517 40.3164L54.9551 39.0239L54.5015 37.4937L52.7646 34.8163L52.8799 34.0586L53.9429 33.585L56.6385 34.097L60.6874 33.2574L64.2138 34.2627L65.6704 33.9505L67.5911 30.9048L68.9453 29.7164L71.6836 28.0826L73.942 27.56L75.6174 26.6199L77.6133 24.8009L78.6188 24.3892L81.5481 23.9826L82.3635 22.5903L82.6077 17.8557L84.1686 17.5247L86.0825 18.5118L87.2612 17.9625L87.7769 16.8164L88.182 14.6654L89.6327 11.0148L90.8444 8.99989L92.2122 7.69436L93.1802 7.60987L94.2276 8.25627L95.8963 8.62482L96.929 7.90392L99.8194 4.23444L100.731 3.77065L102.718 3.52384L105.101 2.77734L106.97 3.29686L108.158 4.39888L109.76 8.91509L111.846 11.5511L114.273 13.1592L115.373 14.5663L114.757 15.8169L112.761 17.1821L111.553 18.4267L110.201 20.707L109.442 23.0076L112.694 30.9551L112.438 31.5694L110.159 32.7741L109.104 34.9144L107.686 38.9329L105.787 42.7717L105.903 44.1602L107.151 47.6931L108.722 54.7308L110.165 57.6909L111.511 58.7786L115.336 59.1815L119.604 58.2774L123.992 56.8764L130.432 56.514L134.714 55.2019L137.275 53.2436L142.568 50.0167L144.726 49.2851L146.372 50.2142L148.467 53.026L149.837 53.9083L152.034 54.1435L153.671 53.8252L155.78 52.9891L156.614 52.1873L158.682 49.2347L159.761 48.9494L161.476 49.5284L163.543 50.6221L166.376 49.5676L168.171 49.9424L168.867 51.2235L169.465 54.3635L170.531 55.7211L173.087 57.748L175.464 61.9644L176.408 65.333L178.94 69.0519L180.166 70.0608L184.001 70.5209L184.696 70.964L186.579 73.2007L189.948 76.1876L192.715 77.6084L196.318 80.2084L198.39 80.5224L202.479 80.0102L203.203 80.33L202.706 85.4029L202.565 88.9593L202.62 91.9887L202.062 94.8938L204.242 96.926L206.163 99.2662L207.335 100.025L209.49 100.204L211.677 99.0915L213.081 98.0181L214.337 97.8742L216.604 98.4119L218.595 99.2405L219.374 98.2263L219.771 94.9691L220.246 93.1185L221.136 91.3641L222.01 90.6488L223.928 90.3514L226.01 90.8755L228.786 95.4232L231.506 100.753L231.214 103.559L230.038 106.388L230.148 108.716L231.335 110.625L236.031 115.197L238.433 118.449L239.089 121.246L239.314 126.75L239.203 130L238.742 134.145L238.71 136.292L239.587 140.072L240.628 142.219L241.195 144.179L240.091 149.29L240.071 153.557L241.095 156.207L245.054 159.756Z" fill="#1E1E1E" stroke="white" stroke-width="5"/>
</svg>
