<svg width="332" height="194" viewBox="0 0 332 194" fill="none" xmlns="http://www.w3.org/2000/svg">
<path d="M192.073 76.8493L190.334 77.3218L191.809 78.7521L192.104 80.0655L189.875 80.7602L188.927 82.0203L189.79 82.9816L187.638 84.5515L184.349 84.3158L184.902 83.3258L184.56 80.9428L185.95 80.4651L185.474 79.5799L185.427 78.0265L185.807 76.8752L185.372 75.3315L186.563 73.6682L188.016 73.127L189.008 74.3991L191.94 75.9693L192.073 76.8493ZM324.929 172.165L322.248 172.132L321.257 172.431L318.042 172.314L310.879 170.147L309.294 170.187L307.507 172.45L305.188 174.092L303.818 174.065L300.249 172.521L299.292 172.619L296.794 176.27L292.877 177.822L287.303 180.819L281.828 182.098L279.428 182.995L273.47 186.369L271.996 186.896L269.82 186.204L269.361 186.966L266.077 188.868L264.595 188.448L263.519 189.198L261.749 188.555L260.622 188.99L257.813 188.282L257.258 189.611L256.469 189.744L255.804 188.279L254.84 189.177L253.853 187.113L252.458 186.496L249.906 187.333L248.795 186.104L245.548 185.354L243.171 185.904L243.614 183.877L243.757 181.286L244.656 177.398L244.978 173.841L244.895 170.736L243.951 168.266L242.665 166.558L240.036 165.262L238.822 165.078L235.515 165.411L233.742 165.853L229.985 166.128L228.252 164.636L225.767 163.165L223.632 161.485L222.401 161.007L221.312 159.818L219.424 158.499L217.968 156.069L216.081 154.504L214.831 153.866L213.053 153.96L208.856 156.808L207.759 156.232L205.681 155.794L206.169 152.389L205.535 151.646L205.073 147.721L205.142 142.558L205.696 140.933L207.858 138.222L207.95 137.254L206.769 136.404L203.934 135.733L202.147 136.42L198.074 138.936L195.967 139.248L192.879 138.924L190.459 138.224L189.025 138.073L187.25 138.423L183.115 138.362L178.62 139.295L175.718 139.018L173.356 139.549L172.41 140.492L173.069 143.871L172.623 145.893L171.869 146.856L171.309 148.402L171.71 152.126L171.263 153.725L170.073 156.236L169.783 158.193L168.457 161.698L167.105 163.516L165.586 163.64L162.281 165.161L157.717 166.537L155.977 166.548L152.526 164.779L148.564 163.824L146.65 164.151L144.001 163.147L142.097 160.962L139.881 159.779L135.242 158.263L133.53 157.436L127.446 156.332L126.224 155.341L124.714 153.304L122.899 151.422L119.537 148.891L118.045 148.242L116.653 148.845L114.739 150.793L112.694 152.56L108.338 153.613L102.814 153.608L100.83 153.302L96.9659 152.371L92.8249 153.277L88.1799 155.637L82.8619 157.469L81.2333 157.103L78.5853 151.88L77.9919 149.732L76.9043 142.755L74.6583 136.296L73.3476 133.909L72.138 132.986L69.1841 132.194L65.2585 133.712L63.0609 135.083L60.8762 136.084L57.9518 135.833L54.6866 136.588L53.0384 135.574L50.7861 131.912L48.8876 129.139L47.4577 128.809L45.6602 130.143L43.5059 133.389L40.7642 136.96L36.6758 136.797L35.317 137.076L33.107 136.545L30.7936 134.797L28.8017 135.073L28.5263 133.475L26.7068 131.937L23.4714 130.125L22.3062 129.188L19.5151 127.475L17.4654 127.083L16.084 126.03L15.3223 124.661L15.1933 122.122L15.7191 114.886L15.772 111.995L15.5367 109.429L15.0368 107.13L14.3054 105.389L12.7917 103.684L11.1121 102.621L10.1287 101.584L7.91616 98.4109L6.17931 95.3307L5.83304 92.4141L6.63784 89.8186L6.95603 87.625L6.65514 83.9236L3.58078 76.1499L3.44531 70.5261L3.50045 68.0129L4.1013 66.0097L7.87007 70.1282L9.74854 70.6566L13.3274 72.8925L18.5527 72.9049L19.414 73.2849L21.1319 75.0094L22.4614 75.8294L25.5162 75.209L29.0538 76.7742L33.2841 77.7064L36.2673 77.0621L39.6518 75.3252L40.7476 74.0313L40.8702 71.8692L39.7467 66.9567L36.453 62.5774L34.9637 61.6934L29.05 60.0258L26.2942 59.6717L22.9909 58.5671L21.5317 57.2882L20.7767 55.6103L20.5347 53.3074L20.6079 46.9366L20.4473 42.2632L19.6925 40.1075L21.0856 37.5587L22.4271 36.072L23.4791 34.4149L24.2615 31.1964L22.3842 27.9603L18.3105 23.5216L17.9084 21.5872L19.1407 19.544L21.0949 17.9744L24.4213 12.9922L26.1393 10.9682L27.1235 11.3295L29.5033 13.008L31.3424 13.6838L33.5255 13.8114L35.7539 12.8139L36.0452 11.3648L37.0266 9.99233L39.1339 9.48886L41.8275 10.0019L43.6514 9.58532L44.99 9.84788L47.5191 11.5224L50.0298 10.3388L52.8939 8.33218L56.0162 5.30078L57.3291 8.33687L58.5637 10.7001L59.8165 12.4706L61.6981 14.0915L63.745 17.1983L65.5842 18.1732L68.5284 20.3416L70.1849 22.1144L72.2306 23.3388L73.1315 24.3547L74.224 27.2453L76.2789 28.421L79.0024 27.4165L82.5235 23.6495L83.5614 19.8279L85.1864 18.2109L87.5361 16.7109L89.7219 15.0385L91.0884 14.7269L92.48 13.7598L94.1104 14.5782L97.8104 15.8006L101.862 17.3884L103.506 17.2656L104.44 18.2645L105.07 19.7076L105.566 21.9021L106.734 24.1431L109.149 27.076L110.985 28.5708L112.752 29.4426L114.872 29.6952L117.066 30.9944L118.841 31.2082L123.675 33.55L126.253 34.1354L128.698 34.3106L131.36 33.7936L133.679 32.1792L135.038 32.0293L137.546 33.2314L139.672 33.1189L141.062 32.3794L142.323 32.3739L147.128 31.2648L148.295 31.7898L150.921 31.6323L153.046 30.3814L154.937 28.9616L156.838 27.1754L158.383 27.1701L159.544 30.4256L160.529 32.2578L162.911 34.6018L164.159 35.3383L165.046 39.3378L166.387 41.3582L168.417 42.613L169.445 46.0275L170.862 46.4389L172.767 47.9386L173.273 50.5487L174.208 52.7481L173.56 55.5507L172.738 55.6822L172.274 57.052L171.536 57.6178L171.301 61.9298L170.768 63.7581L171.306 67.2694L172.183 69.9101L172.134 71.8136L173.275 74.8865L174.545 77.7319L176.139 79.089L178.493 80.2779L177.541 81.1119L178.213 82.2783L178.781 84.2697L179.696 85.2991L181.729 86.3857L183.793 92.8205L183.151 93.302L182.675 94.7806L182.659 96.8039L184.044 98.0461L183.175 99.686L184.373 101.345L187.097 102.396L189.098 100.473L189.633 104.357L193.448 102.888L194.141 102.28L193.683 101.177L191.666 100.834L191.457 99.239L190.38 98.022L190.322 96.5919L190.982 95.7983L192.034 95.7249L195.085 96.2038L198.702 97.5759L200.716 97.1299L201.512 97.8603L200.343 99.9437L197.835 100.031L196.569 102.636L195.248 104.424L191.739 105.04L191.038 104.32L189.633 104.357L190.711 107.096L190.73 108.312L192.104 109.503L194.709 110.541L195.602 110.584L196.921 109.406L199.453 106.394L201.919 104.979L205.043 105.28L205.658 104.639L205.302 103.358L206.129 103.11L206.814 101.735L207.375 98.1439L209.383 97.973L211.287 96.6355L213.2 96.2395L215.977 96.2934L218.843 96.75L220.311 96.4501L220.796 97.7876L221.916 99.0364L222.098 100.248L223.234 99.9313L224.527 96.6656L225.631 96.2204L226.877 95.0901L228.953 94.7505L231.78 94.9794L233.794 94.8182L235.003 93.1532L235.385 91.5845L235.121 89.9987L233.668 89.0531L233.457 88.3138L230.703 86.3415L229.507 85.9546L228.05 84.3082L226.375 84.0803L226.051 83.4194L224.31 82.6971L222.617 79.4736L221.775 79.0635L222.06 77.859L224.558 77.5412L226.118 76.9085L232.049 76.3507L233.187 75.625L234.756 75.711L237.325 74.7607L238.196 74.9362L240.715 78.1759L243.541 80.5374L245.959 82.1559L249.302 85.7839L251.449 88.8645L253.179 90.8156L257.038 92.9831L257.799 93.984L259.588 95.0562L264.125 98.2289L265.647 98.8171L268.966 97.7109L269.756 96.2736L270.996 95.7885L271.114 94.9834L272.405 94.7811L275.86 95.0678L277.612 94.7674L280.086 95.0109L283.1 96.5466L283.715 96.5418L286.402 98.189L288.402 98.8544L290.622 98.717L291.568 99.1905L293.315 99.3716L294.57 100.687L297.308 101.796L299.261 104.014L299.17 105.139L300.617 106.135L301.63 107.267L301.774 108.562L302.99 109.844L304.555 110.882L304.396 111.931L305.291 112.777L305.305 115.006L306.081 116.506L305.798 117.295L306.348 119.142L306.363 121.148L306.991 122.952L305.503 124.268L304.199 126.739L303.122 127.685L302.537 127.131L300.672 128.259L300.445 129.74L298.777 130.728L298.382 131.487L296.163 131.79L295.379 133.269L293.606 131.972L292.772 133.135L291.629 132.823L290.542 133.309L289.769 134.929L290.625 135.489L288.613 137.491L288.049 138.877L286.06 140.281L284.764 141.985L283.998 142.346L283.186 143.752L281.976 144.062L281.93 145.093L281.107 146.676L281.23 147.611L282.232 148.112L280.699 150.528L279.635 151.698L279.577 153.447L279.931 154.652L283.159 150.549L284.219 148.58L283.971 147.998L285.368 146.911L287.632 146.416L288.881 146.952L291.347 146.667L293.722 147.11L294.895 145.352L295.873 146.189L295.884 147.099L294.97 148.376L294.75 149.795L295.091 151.661L296.35 153.92L296.888 155.879L298.924 157.014L299.126 158.018L300.641 157.442L300.752 163.274L303.375 162.584L302.709 164.841L301.476 165.197L301.165 166.464L302.296 166.424L303.46 167.019L304.375 169.614L305.258 169.585L306.982 167.692L307.8 166.375L309.247 165.139L310.815 166.942L312.429 167.28L313.854 166.176L315.783 167.324L318.157 167.508L321.669 170.808L323.046 171.368L323.767 171.14L324.929 172.165Z" fill="#1E1E1E"/>
<path d="M189.633 104.357L189.098 100.473L187.097 102.396L184.373 101.345L183.175 99.686L184.044 98.0461L182.659 96.8039L182.675 94.7806L183.151 93.302L183.793 92.8205L181.729 86.3857L179.696 85.2991L178.781 84.2697L178.213 82.2783L177.541 81.1119L178.493 80.2779L176.139 79.089L174.545 77.732L173.275 74.8865L172.134 71.8136L172.183 69.9101L171.306 67.2694L170.768 63.7581L171.301 61.9298L171.536 57.6178L172.274 57.052L172.738 55.6822L173.56 55.5507L174.208 52.7481L173.273 50.5487L172.767 47.9386L170.862 46.4389L169.445 46.0275L168.417 42.613L166.387 41.3582L165.046 39.3378L164.159 35.3383L162.911 34.6018L160.529 32.2578L159.544 30.4256L158.383 27.1701L156.838 27.1754L154.937 28.9616L153.046 30.3814L150.921 31.6323L148.295 31.7898L147.128 31.2648L142.323 32.3739L141.062 32.3794L139.672 33.1189L137.546 33.2314L135.038 32.0293L133.679 32.1792L131.36 33.7936L128.698 34.3106L126.253 34.1354L123.675 33.55L118.841 31.2082L117.066 30.9944L114.872 29.6952L112.752 29.4426L110.985 28.5708L109.149 27.076L106.734 24.1431L105.566 21.9021L105.07 19.7076L104.44 18.2645L103.506 17.2656L101.862 17.3884L97.8104 15.8006L94.1104 14.5782L92.48 13.7598L91.0884 14.7269L89.7219 15.0385L87.5361 16.7109L85.1864 18.2109L83.5614 19.8279L82.5235 23.6495L79.0024 27.4165L76.2789 28.421L74.224 27.2453L73.1315 24.3547L72.2306 23.3388L70.1849 22.1144L68.5284 20.3416L65.5842 18.1732L63.745 17.1983L61.6981 14.0915L59.8165 12.4706L58.5637 10.7001L57.3291 8.33687L56.0162 5.30078L52.8939 8.33218L50.0298 10.3388L47.5191 11.5224L44.99 9.84788L43.6514 9.58532L41.8275 10.0019L39.1339 9.48886L37.0266 9.99233L36.0452 11.3648L35.7539 12.8139L33.5255 13.8114L31.3424 13.6838L29.5033 13.008L27.1235 11.3295L26.1393 10.9682L24.4213 12.9922L21.0949 17.9744L19.1407 19.544L17.9084 21.5872L18.3105 23.5216L22.3842 27.9603L24.2615 31.1964L23.4791 34.4149L22.4271 36.072L21.0856 37.5587L19.6925 40.1075L20.4473 42.2632L20.6079 46.9366L20.5347 53.3074L20.7767 55.6103L21.5317 57.2882L22.9909 58.5671L26.2942 59.6717L29.05 60.0258L34.9637 61.6934L36.453 62.5774L39.7467 66.9567L40.8702 71.8692L40.7476 74.0313L39.6518 75.3252L36.2673 77.0621L33.2841 77.7064L29.0538 76.7742L25.5162 75.209L22.4614 75.8294L21.1319 75.0094L19.414 73.2849L18.5527 72.9049L13.3274 72.8925L9.74854 70.6566L7.87007 70.1282L4.1013 66.0097L3.50045 68.0129L3.44531 70.5261L3.58078 76.1499L6.65514 83.9236L6.95603 87.625L6.63784 89.8186L5.83304 92.4141L6.17931 95.3307L7.91616 98.4109L10.1287 101.584L11.1121 102.621L12.7917 103.684L14.3054 105.389L15.0368 107.13L15.5367 109.429L15.772 111.995L15.7191 114.886L15.1933 122.122L15.3223 124.661L16.084 126.03L17.4654 127.083L19.5151 127.475L22.3062 129.188L23.4714 130.125L26.7068 131.937L28.5263 133.475L28.8017 135.073L30.7936 134.797L33.107 136.545L35.317 137.076L36.6757 136.797L40.7642 136.96L43.5059 133.389L45.6602 130.143L47.4577 128.809L48.8876 129.139L50.7861 131.913L53.0384 135.574L54.6866 136.588L57.9518 135.833L60.8762 136.084L63.0609 135.083L65.2585 133.712L69.1841 132.194L72.138 132.986L73.3476 133.909L74.6583 136.296L76.9043 142.755L77.9919 149.732L78.5853 151.88L81.2333 157.103L82.8619 157.469L88.1799 155.638L92.8249 153.277L96.9659 152.371L100.83 153.302L102.814 153.608L108.338 153.613L112.694 152.56L114.739 150.793L116.653 148.845L118.045 148.242L119.537 148.891L122.899 151.422L124.714 153.304L126.224 155.341L127.446 156.332L133.53 157.436L135.242 158.263L139.881 159.779L142.097 160.962L144.001 163.147L146.65 164.151L148.564 163.824L152.526 164.779L155.977 166.548L157.717 166.537L162.281 165.161L165.586 163.64L167.105 163.516L168.457 161.698L169.783 158.193L170.073 156.236L171.263 153.725L171.71 152.126L171.309 148.402L171.869 146.856L172.623 145.893L173.069 143.871L172.41 140.492L173.356 139.549L175.718 139.018L178.62 139.295L183.115 138.362L187.25 138.423L189.025 138.073L190.459 138.224L192.879 138.924L195.967 139.248L198.074 138.936L202.147 136.42L203.934 135.733L206.769 136.404L207.95 137.254L207.858 138.222L205.696 140.933L205.142 142.558L205.073 147.721L205.535 151.646L206.169 152.389L205.681 155.794L207.759 156.232L208.856 156.808L213.053 153.96L214.831 153.866L216.081 154.504L217.968 156.069L219.424 158.499L221.312 159.818L222.401 161.007L223.632 161.485L225.767 163.165L228.252 164.636L229.985 166.128L233.742 165.853L235.515 165.411L238.822 165.078L240.036 165.262L242.665 166.558L243.951 168.266L244.895 170.736L244.978 173.841L244.656 177.398L243.757 181.286L243.614 183.877L243.171 185.904L245.548 185.354L248.795 186.104L249.906 187.333L252.458 186.496L253.853 187.113L254.84 189.177L255.804 188.279L256.469 189.744L257.258 189.611L257.813 188.282L260.622 188.99L261.749 188.555L263.519 189.198L264.595 188.448L266.077 188.868L269.361 186.966L269.82 186.204L271.996 186.896L273.47 186.369L279.428 182.995L281.828 182.098L287.303 180.819L292.877 177.822L296.794 176.27L299.292 172.619L300.249 172.521L303.818 174.065L305.188 174.092L307.507 172.45L309.294 170.187L310.879 170.147L318.042 172.314L321.257 172.431L322.248 172.132L324.929 172.165L323.767 171.14L323.046 171.368L321.669 170.808L318.157 167.508L315.783 167.324L313.854 166.176L312.429 167.28L310.815 166.942L309.247 165.139L307.8 166.375L306.982 167.692L305.258 169.585L304.375 169.614L303.46 167.019L302.296 166.424L301.165 166.464L301.476 165.197L302.709 164.841L303.375 162.584L300.752 163.274L300.641 157.442L299.126 158.017L298.924 157.015L296.888 155.879L296.35 153.92L295.091 151.661L294.75 149.795L294.97 148.376L295.884 147.099L295.873 146.189L294.895 145.352L293.722 147.11L291.347 146.667L288.881 146.952L287.632 146.416L285.368 146.911L283.971 147.998L284.219 148.58L283.159 150.549L279.931 154.652L279.577 153.447L279.635 151.698L280.699 150.528L282.232 148.112L281.23 147.611L281.107 146.676L281.93 145.093L281.976 144.062L283.186 143.752L283.998 142.346L284.764 141.985L286.06 140.281L288.049 138.877L288.613 137.491L290.625 135.489L289.769 134.929L290.542 133.309L291.629 132.823L292.772 133.135L293.606 131.972L295.379 133.269L296.163 131.79L298.382 131.487L298.777 130.728L300.445 129.74L300.672 128.259L302.537 127.131L303.122 127.685L304.199 126.739L305.503 124.268L306.991 122.952L306.363 121.148L306.348 119.142L305.798 117.295L306.081 116.506L305.305 115.006L305.291 112.777L304.396 111.931L304.555 110.882L302.99 109.844L301.774 108.562L301.63 107.267L300.617 106.135L299.17 105.139L299.261 104.014L297.308 101.796L294.57 100.687L293.315 99.3716L291.568 99.1905L290.622 98.717L288.402 98.8544L286.402 98.189L283.715 96.5418L283.1 96.5466L280.086 95.0109L277.612 94.7674L275.86 95.0678L272.405 94.7811L271.114 94.9834L270.996 95.7884L269.756 96.2736L268.966 97.7109L265.647 98.8171L264.125 98.2289L259.588 95.0562L257.799 93.984L257.039 92.9831L253.179 90.8156L251.449 88.8645L249.302 85.7839L245.959 82.1559L243.541 80.5374L240.715 78.1759L238.196 74.9362L237.325 74.7607L234.756 75.711L233.187 75.625L232.049 76.3507L226.118 76.9085L224.558 77.5412L222.06 77.859L221.775 79.0635L222.617 79.4736L224.31 82.6971L226.051 83.4194L226.375 84.0803L228.05 84.3082L229.506 85.9546L230.703 86.3415L233.457 88.3138L233.668 89.0531L235.121 89.9987L235.385 91.5845L235.003 93.1532L233.794 94.8182L231.78 94.9794L228.953 94.7505L226.877 95.0901L225.631 96.2204L224.527 96.6656L223.234 99.9313L222.098 100.248L221.916 99.0364L220.796 97.7876L220.311 96.4501L218.843 96.75L215.977 96.2934L213.2 96.2395L211.287 96.6355L209.383 97.973L207.375 98.1439L206.814 101.735L206.129 103.11L205.302 103.358L205.658 104.639L205.043 105.28L201.919 104.979L199.453 106.394L196.921 109.406L195.602 110.584L194.709 110.541L192.104 109.503L190.73 108.312L190.711 107.096L189.633 104.357ZM189.633 104.357L193.448 102.888L194.141 102.28L193.683 101.177L191.666 100.834L191.457 99.239L190.38 98.022L190.322 96.5919L190.982 95.7983L192.034 95.7249L195.085 96.2038L198.702 97.5759L200.716 97.1299L201.512 97.8603L200.343 99.9437L197.835 100.031L196.569 102.636L195.248 104.424L191.739 105.04L191.038 104.32L189.633 104.357ZM192.073 76.8493L190.334 77.3218L191.809 78.7521L192.104 80.0655L189.875 80.7602L188.927 82.0203L189.79 82.9816L187.638 84.5515L184.349 84.3158L184.902 83.3258L184.56 80.9428L185.95 80.4651L185.474 79.5799L185.427 78.0265L185.807 76.8752L185.372 75.3315L186.563 73.6682L188.016 73.127L189.008 74.3991L191.94 75.9693L192.073 76.8493Z" stroke="white" stroke-width="5"/>
</svg>
