<svg width="332" height="243" viewBox="0 0 332 243" fill="none" xmlns="http://www.w3.org/2000/svg">
<path d="M108.78 194.955L108.019 193.249L108.755 191.447L109.358 192.159L108.78 194.955ZM73.9411 185.974L72.3365 185.555L70.1424 183.8L69.5589 182.933L70.7678 182.234L73.6434 183.724L73.9411 185.974ZM321.849 30.8074L321.27 31.5169L320.981 34.762L321.554 37.0773L323.122 40.273L322.953 42.1118L321.183 43.4938L320.879 44.2037L317.957 46.6128L317.376 47.5284L317.892 51.6786L318.686 53.3421L319.069 54.9667L318.993 56.6816L317.625 61.2907L317.108 62.323L317.133 64.0569L316.062 64.86L315.054 67.9061L314.037 69.3469L309.44 71.939L307.539 73.8637L304.555 75.7993L301.3 76.2899L299.769 75.7959L296.327 75.2899L294.656 73.9047L293.189 73.336L292.292 72.4953L290.191 71.4066L289.599 72.2025L289.289 74.1688L289.25 79.7381L289.378 82.0518L289.44 89.8607L289.592 92.097L290.331 92.4957L294.646 92.6232L298.486 92.3981L302.158 91.9862L305.978 92.1799L310.111 91.9214L313.809 92.2485L318.084 92.1096L323.479 92.4497L323.389 95.8761L323.665 100.756L323.495 103.038L323.666 105.855L323.627 110.586L323.011 116.888L322.736 118.106L321.506 119.744L319.19 121.38L318.787 123.424L319.715 125.027L321.283 126.714L322.14 128.054L323.466 130.977L323.675 131.943L323.199 136.715L322.622 139.127L322.448 141.017L323.049 141.286L324.871 141.017L328.369 139.831L329.222 140.281L329.154 141.852L328.18 143.876L326.462 146.067L325.407 146.515L322.554 146.477L318.67 145.962L316.621 146.148L315.671 147.47L315.294 149.423L315.29 151.77L314.702 153.472L313.649 154.536L312.572 154.629L312.116 155.406L311.01 155.689L308.911 154.857L307.119 153.501L305.964 153.052L299.549 156.957L296.623 160.397L295.816 163.222L293.991 164.127L290.795 164.529L289.899 165.074L289.064 166.327L288.001 167.048L285.753 170.52L284.335 171.642L282.476 172.245L280.528 172.443L275.667 171.959L273.203 173.457L269.95 176.548L267.267 178.091L265.796 178.476L262.56 177.884L257.608 177.418L254.788 177.478L253.616 176.818L251.478 176.736L250.621 178.077L248.517 179.357L244.424 180.645L243.13 180.396L240.273 179.204L236.978 179.176L234.536 178.226L231.474 177.634L228.873 177.848L225.778 180.497L223.844 184.269L223.142 186.163L222.543 188.86L221.655 190.582L219.696 192.505L217.121 194.09L213.919 194.303L212.121 194.766L209.983 196.022L208.53 197.891L207.492 198.133L201.621 195.529L200.7 194.831L200.751 192.93L199.456 191.152L197.66 191.243L194.891 190.401L192.646 189.23L190.77 189.403L188.737 195.109L186.588 199.177L186.29 200.337L186.675 202.77L185.629 204.686L185.547 206.216L184.336 208.188L183.997 209.606L184.689 211.223L187.442 213.583L189.158 214.289L190.494 215.394L190.766 216.781L190.871 220.025L192.594 223.217L192.735 224.286L194.025 227.057L194.988 228.075L195.503 230.003L198.64 230.419L199.249 231.064L198.879 232.162L199.424 233.409L199.442 235.277L196.781 237.754L197.755 238.606L197.733 239.906L197.038 240.092L194.558 239.195L193.399 237.888L192.698 235.295L191.277 234.406L188.587 233.264L186.406 233.586L185.741 234.335L181.111 236.229L179.697 236.307L179.467 237.043L177.568 238.492L175.208 238.308L172.985 238.775L172.314 238.148L171.375 236.22L169.415 236.824L167.483 236.528L165.564 235.595L165.056 236.32L162.539 235.246L161.127 233.873L159.702 234.004L160.579 235.412L161.205 237.647L160.115 238.242L156.361 236.764L154.618 235.585L153.041 232.258L152.359 233.358L150.656 233.968L148.255 233.276L147.349 233.457L146.236 232.757L142.998 227.444L142.659 225.846L141.536 227.301L140.291 227.601L138.878 227.025L138.819 225.108L139.552 223.287L141.086 221.331L142.295 220.594L143.579 218.802L145.694 217.056L146.531 216.701L148.399 217.234L150.098 218.633L150.76 215.313L149.427 214.192L149.09 213.21L149.753 212.645L152.373 211.506L156.197 210.167L155.757 206.329L154.261 205.551L153.13 204.507L151.847 204.146L149.847 202.225L148.041 201.723L146.919 202.064L143.388 200.799L141.836 200.748L141.089 199.682L138.493 198.719L137.253 199.217L135.99 199.134L135.105 199.753L134.416 199.136L134.64 197.871L134.049 196.646L134.36 195.863L133.795 193.831L132.695 192.864L131.004 192.825L126.015 191.684L121.046 188.993L119.474 189.004L117.846 188.12L116.353 187.709L114.314 186.342L112.866 185.804L112.421 184.652L111.657 184.142L108.276 182.763L107.103 182.548L107.287 181.395L104.669 180.022L103.499 178.193L103.519 176.693L101.312 175.541L101.136 174.582L101.774 173.05L100.538 172.31L100.082 171.272L98.6478 169.699L98.7972 168.303L98.2513 167.49L99.457 166.585L98.5563 165.079L98.7725 163.173L95.8424 163.697L95.7165 162.213L97.8435 161.518L99.861 162.682L101.052 163.005L101.804 162.556L102.206 160.971L103.254 159.859L102.784 157.339L103.271 155.884L104.465 154.313L105.62 153.332L106.91 153.118L107.255 152.295L106.269 150.65L104.301 150.091L103.98 149.612L101.756 149.23L101.077 149.801L99.4409 148.746L99.8487 147.326L99.3967 145.553L96.8023 142.495L93.9563 140.305L92.9995 139.232L91.0872 137.932L87.8201 136.226L84.759 136.493L81.8449 137.432L79.9493 139L77.935 140.253L77.2852 141.164L76.1012 141.786L74.5681 142.001L73.5986 143.123L73.4775 144.301L74.491 146.286L75.4423 146.469L77.7081 147.585L82.1837 147.031L83.3828 148.535L82.6388 153.028L81.6478 154.637L80.8921 155.87L78.4314 158.205L77.4459 159.591L73.2897 159.079L70.7461 156.553L69.9107 154.563L70.5752 152.816L70.3849 150.552L69.4738 150.008L68.5253 150.241L68.399 151.55L66.5185 151.988L64.055 155.249L63.161 154.828L63.7204 153.019L66.0579 149.334L66.5095 146.609L64.2678 144.818L64.0771 142.322L63.0302 136.389L63.0205 134.587L63.9867 130.125L65.1535 127.912L65.6102 126.233L65.6904 124.129L65.062 119.872L64.497 118.504L62.1887 114.889L60.601 110.461L61.0343 106.156L60.5235 104.395L58.2705 104.015L56.5329 104.412L52.8503 107.56L49.2886 109.159L48.2459 108.986L45.9881 107.855L43.696 106.438L40.2837 104.664L38.5975 102.645L36.6258 98.5126L34.7678 96.1304L32.3976 93.7793L30.3381 92.8684L30.0893 91.8681L32.1913 88.792L34.1675 87.4352L33.4278 82.3021L34.1642 78.6903L34.2076 76.9298L32.3948 74.212L30.5876 72.3842L28.7824 71.4034L26.8927 69.3796L25.9702 68.0669L23.6146 65.7219L23.4534 64.9262L24.0071 61.363L23.3431 56.1031L22.9303 54.0094L22.3513 52.9316L21.0582 51.6394L19.9525 49.6688L18.9494 45.6278L18.592 42.9867L17.7662 39.6181L17.0402 38.2909L15.087 36.5749L13.105 33.4631L11.3585 30.3475L9.71046 29.322L7.14594 27.2389L5.03055 24.6963L3.56755 24.3405L3.21094 23.6139L4.08574 19.3326L5.80274 14.3647L7.03462 12.0147L7.73019 11.7197L10.628 13.3967L14.9138 15.1709L17.2915 15.635L20.5528 17.1349L24.3662 18.5286L26.3261 19.6554L30.5446 21.272L32.6186 21.4587L35.9732 21.3471L37.159 21.8602L40.0139 25.3512L43.2132 27.0655L44.9742 27.4409L47.4523 27.3413L49.9038 26.6214L51.05 25.7562L54.1521 28.6347L59.9134 35.1146L64.844 41.7826L67.0012 44.1187L68.9392 45.9317L71.176 48.4584L73.5716 50.379L74.7886 52.5524L76.5211 54.7553L77.7324 55.8585L79.294 56.0466L82.0923 55.0743L84.0559 53.2447L85.9435 51.0331L88.8001 48.6667L91.9497 46.7769L94.952 45.748L97.4304 44.295L101.039 41.4891L103.903 39.0779L106.184 37.9687L110.348 36.2286L112.114 35.8398L115.656 35.5684L116.957 35.1236L117.537 34.3055L118.482 30.8723L119.912 28.165L121.813 27.766L124.852 27.703L126.819 26.6135L128.152 23.4815L128.19 20.502L129.353 18.9719L130.482 18.2294L133.194 17.5963L134.298 18.7427L136.449 19.557L137.668 18.3526L138.095 16.9446L140.279 12.1213L141.795 9.07293L143.786 8.79674L146.1 10.545L148.31 11.0757L149.669 10.797L153.757 10.9593L156.499 7.3884L158.653 4.1432L160.451 2.80859L161.881 3.13884L163.779 5.91222L166.031 9.57397L167.679 10.5882L170.945 9.8329L173.869 10.0838L176.054 9.08262L178.251 7.71213L182.177 6.19371L185.131 6.98578L186.34 7.90897L187.651 10.2961L189.897 16.755L190.985 23.7322L191.578 25.8795L194.226 31.1031L195.855 31.4689L201.173 29.6372L205.818 27.2765L209.959 26.3704L213.823 27.3022L215.807 27.6073L221.331 27.6128L225.687 26.5596L227.732 24.7927L229.646 22.8444L231.038 22.2415L232.529 22.8909L235.892 25.4216L237.707 27.3037L239.217 29.3409L240.439 30.3313L246.523 31.4353L248.234 32.263L252.874 33.779L255.09 34.962L256.994 37.1471L259.643 38.1509L261.557 37.8237L265.518 38.779L268.97 40.5472L270.71 40.5371L275.274 39.1604L278.578 37.64L280.098 37.5152L281.45 35.6982L282.776 32.193L283.066 30.2355L284.256 27.7248L284.703 26.1261L284.302 22.4017L284.862 20.8562L285.616 19.8925L286.062 17.8705L285.403 14.492L286.349 13.5492L288.711 13.0181L291.613 13.2945L296.108 12.3613L300.243 12.4223L302.017 12.0725L303.452 12.2241L305.872 12.9238L308.96 13.248L311.067 12.9353L315.14 10.4201L316.927 9.73311L319.762 10.4039L320.943 11.2538L320.85 12.222L318.689 14.9328L318.135 16.5578L318.065 21.7209L318.528 25.6455L319.162 26.3891L318.674 29.7935L320.752 30.2314L321.849 30.8074Z" fill="#1E1E1E" stroke="white" stroke-width="5"/>
</svg>
