<svg width="360" height="261" viewBox="0 0 360 261" fill="none" xmlns="http://www.w3.org/2000/svg">
<path d="M115.836 164.986L116.423 165.043L117.33 168.767L117.454 170.523L116.66 170.676L116.387 168.995L114.759 166.926L114.946 165.993L115.836 164.986ZM191.194 256.977L190.418 257.587L188.274 258.153L185.238 258.403L181.811 258.107L180.042 258.272L177.358 257.874L171.01 256.349L169.337 255.014L168.88 253.039L164.684 251.177L162.985 249.462L158.744 246.962L156.323 247.105L151.694 247.035L146.449 246.422L145.307 246.556L141.498 246.194L140.005 245.896L138.399 246.705L137.392 248.974L135.823 248.469L134.975 247.587L131.946 246.56L128.591 244.786L123.456 242.956L121.746 242.828L119.481 242.096L116.143 239.848L114.674 239.61L112.64 236.909L110.322 234.535L106.653 228.415L103.804 226.451L101.338 225.381L96.3665 222.643L93.8668 220.777L88.4842 218.109L87.0752 217.033L85.4314 215.306L85.209 214.211L83.6398 210.907L82.9844 207.824L81.9726 205.936L82.0088 204.576L85.4233 204.818L86.4964 204.156L88.0549 201.465L91.5226 198.335L93.4417 198.415L94.5428 198.06L95.5488 195.169L97.7546 192.978L101.029 191.072L101.114 190.065L98.2076 190.534L94.0135 190.591L87.5214 191.901L84.4631 190.896L82.7843 188.992L82.5477 188.189L81.0372 187.42L78.3109 188.015L74.902 190.35L73.3666 190.549L71.6718 190.116L68.0516 187.513L66.8181 185.867L62.9827 182.662L60.3606 182.966L54.1964 185.026L48.7689 187.179L42.9425 189.75L38.4453 191.282L32.6352 193.927L29.3677 196.613L28.5405 198.064L28.4262 203.124L28.5382 206.744L27.5659 209.166L25.2055 211.004L21.5262 213.13L19.892 214.791L15.9581 217.778L15.1099 218.225L13.1498 218.458L12.4072 218.083L11.3863 215.404L11.0642 209.924L9.71686 208.753L8.40314 208.494L5.97258 208.577L4.52119 207.95L3.02046 205.845L2.94141 204.443L3.40028 202.407L4.89463 198.838L7.12831 196.974L7.39739 193.06L8.16528 191.712L10.2938 189.875L11.4682 188.526L13.016 187.338L14.9884 184.667L15.2455 182.621L15.1166 180.596L15.3217 178.958L16.0595 176.199L16.9418 174.332L21.6586 168.652L24.811 166.524L28.0734 165.372L31.7694 163.436L32.6383 164.313L34.9598 164.159L36.5533 164.49L40.6282 162.649L42.3618 161.558L43.9455 159.082L44.7487 159.843L45.8241 159.138L47.1965 159.093L48.8569 158.3L49.8553 156.419L52.6173 156.262L53.7641 156.703L56.0978 157.031L56.5187 157.686L59.4654 157.986L61.2944 157.43L63.3702 157.216L65.2317 157.386L66.7406 156.787L68.5181 156.749L70.2175 159.21L70.27 161.17L70.876 161.936L71.1638 164.172L75.6177 164.632L80.34 164.456L81.4781 163.817L85.4621 163.188L85.812 162.676L87.5734 162.201L88.8195 163.281L90.5456 163.714L97.3349 163.081L98.3871 163.604L98.5315 164.762L100.097 165.274L101.49 167.163L101.574 168.121L103.116 170.084L104.782 171.259L106.882 171.384L109.32 170.864L111.326 171.218L112.952 172.211L114.147 171.826L115.977 172.389L118.761 174.01L120.326 174.376L120.975 175.209L122.007 175.137L123.902 174.114L124.143 173.188L125.94 171.582L125.995 168.654L126.244 167.665L127.446 165.664L128.487 165.499L130.205 163.964L132.174 161.579L131.485 159.968L132.416 157.188L133.395 155.966L134.666 157.15L136.049 157.953L138.019 157.94L140.154 158.493L141.982 160.341L143.049 160.602L144.146 161.498L142.938 163.405L143.168 164.245L145.384 164.185L146.45 165.614L147.553 165.981L147.951 168.168L151.224 168.83L150.394 171.161L151.198 172.479L152.958 173.616L154.394 173.815L154.691 174.575L155.98 175.19L155.783 176.968L157.8 178.209L159.321 178.268L160.186 180.127L159.084 182.777L158.104 183.969L158.163 186.341L156.958 186.761L154.385 185.98L152.166 186.114L151.338 186.83L149.477 189.283L149.106 191.812L148.616 192.59L148.547 194.47L149.225 196.467L152.301 196.665L153.746 195.917L155.003 196.787L157.67 197.395L159.588 198.877L162.246 198.937L162.88 199.569L163.538 202.66L161.806 202.353L161.153 201.652L160.219 202.429L160.564 203.566L161.591 203.215L162.119 203.825L163.332 207.472L164.797 208.003L165.352 208.788L164.883 210.524L163.634 210.532L163.677 211.465L161.334 212.801L160.437 211.903L159.69 212.616L160.462 213.403L160.726 215.219L162.351 216.104L164.032 215.284L165.633 214.055L166.072 214.422L170.013 214.671L171.11 214.956L172.835 216.768L178.486 219.297L179.738 220.062L178.802 221.651L177.851 224.217L176.954 229.506L177.212 231.809L178.91 236.014L178.748 239.764L179.668 241.572L181.957 242.59L183.316 242.458L182.873 244.3L183.221 245.633L183.208 247.759L183.615 248.39L185.619 249.827L186.121 251.808L187.317 253.094L188.763 253.816L189.852 254.962L191.194 256.977ZM60.5192 150.461L59.2309 150.482L58.9173 149.674L60.5826 149.459L60.5192 150.461ZM349.334 52.3435L350.248 56.4355L350.602 59.2056L351.499 61.5005L352.493 62.4361L353.445 66.9976L354.091 69.3555L354.597 70.2169L354.384 72.884L354.883 74.0572L356.487 75.903L357.102 77.66L356.779 79.9551L354.019 82.9486L353.099 85.2552L350.303 88.8844L348.513 94.8599L346.552 98.489L345.84 101.059L345.372 104.05L344.592 104.937L342.863 104.437L342.249 108.392L341.64 108.804L339.636 108.419L337.912 108.431L336.073 108.807L333.766 109.83L331.702 111.116L331.41 112.501L332.696 114.395L333.775 116.701L335.561 119.232L334.996 121.376L332.263 123.899L329.725 125.045L328.764 126.282L330.939 128.736L331.171 129.76L330.923 131.904L331.259 134.734L332.746 138.113L332.413 140.794L331.642 143.688L332.326 148.278L332.168 149.214L329.129 153.78L325.899 154.641L324.999 155.592L323.28 158.959L322.667 161.154L323.571 163.609L325.112 164.635L324.844 165.617L323.169 166.568L322.721 167.61L323.261 168.683L326.883 171.994L328.813 174.216L328.637 178.569L329.207 181.453L329.103 182.696L327.461 187.081L326.296 188.862L326.342 189.798L329.544 193.75L329.157 196.91L329.233 200.144L328.458 203.335L327.011 206.848L327.027 208.519L327.993 210.902L329.399 213.125L331.426 216.964L332.914 220.543L332.99 221.493L330.684 225.627L330.505 226.609L330.576 232.627L330.936 233.488L328.474 235.556L327.613 236.035L325.977 235.896L325.251 234.992L323.692 235.417L322.051 236.697L320.547 235.797L319.272 235.87L312.996 235.558L310.678 236.196L309.336 235.963L307.822 236.531L305.844 236.327L302.02 232.008L300.362 232.024L299.054 231.628L296.035 232.709L292.96 230.973L291.419 228.257L290.015 226.974L289.036 226.529L287.534 226.655L285.263 225.319L283.81 225.319L281.579 224.126L278.975 224.317L277.37 224.097L276.657 223.591L275.582 223.888L273.641 223.013L269.68 224.031L268.023 225.778L265.984 228.827L263.024 231.143L261.518 234.085L262.083 235.595L260.83 236.677L261.518 234.085L259.602 232.461L258.1 232.39L256.806 233.563L255.896 233.763L255.326 232.476L254.039 231.587L251.824 231.211L248.719 232.604L247.33 232.044L245.806 230.857L242.878 230.118L242.19 229.175L240.478 228.991L239.44 228.247L238.755 227.018L236.04 225.629L232.559 226.81L230.289 226.816L229.649 225.542L228.577 224.686L227.293 224.779L224.551 220.489L223.273 220.118L221.291 220.341L219.999 219.982L219.402 219.257L217.119 219.073L216.215 219.694L215.189 219.668L212.665 218.3L211.225 218.497L208.482 217.507L206.972 219.029L208.013 220.293L206.768 220.804L205.312 220.36L204.498 220.95L202.531 220.287L202.055 218.969L200.684 219.821L199.477 219.554L197.963 222.842L197.181 225.12L194.454 226.982L192.215 226.916L190.278 224.957L188.691 225.701L188.116 226.868L186.682 226.256L184.896 224.122L184.707 223.305L182.711 221.738L183.594 220.038L183.859 218.254L182.529 214.865L181.531 213.518L179.721 212.433L179.253 210.383L178.16 208.27L177.352 207.692L175.098 208.305L174.45 207.773L174.066 205.94L174.056 203.985L174.358 201.615L174.178 200.448L173.301 198.511L174.257 197.9L174.522 196.337L174.035 195.623L172.021 195.245L169.804 191.872L169.049 191.214L168.665 189.92L166.886 189.827L166.259 190.305L166.803 192.378L166.462 194.233L165.63 194.466L164.272 193.058L162.245 191.931L162.108 192.905L161.239 193.813L161.958 194.84L160.92 196.905L159.982 197.124L158.263 196.285L157.94 194.518L158.88 193.266L159.99 190.877L161.613 190.377L161.427 189.508L159.996 189.752L158.845 188.836L158.163 186.341L159.966 184.844L160.908 182.316L162.056 181.593L165.095 180.532L164.954 179.187L165.551 178.458L167.321 178.853L167.915 179.649L168.876 179.579L169.602 181.765L172.101 181.44L175.54 178.312L175.667 176.7L176.969 174.6L176.883 173.175L176.076 171.645L175.489 171.607L176.972 168.018L177.182 164.872L177.477 163.594L179.668 161.007L180.363 159.642L180.719 157.826L180.693 155.262L180.152 154.162L179.237 153.78L178.262 154.828L177.11 154.378L177.544 151.314L178.16 150.376L178.227 146.816L177.87 144.465L176.938 144.36L176.323 142.651L175.402 142.526L174.693 141.184L176.022 140.417L176.407 138.553L176.482 136.163L175.829 135.184L174.609 134.422L173.065 134.44L172.004 131.772L170.576 130.9L170.154 130.111L168.833 129.193L167.883 125.554L165.976 124.1L165.313 123.966L164.562 122.112L163.707 118.272L162.829 117.266L160.945 116.029L158.675 115.988L157.361 116.555L153.114 116.675L151.147 116.344L148.816 116.521L147.357 115.077L146.489 113.736L144.631 111.602L142.824 110.438L140.397 110.667L137.352 110.685L134.667 111.151L132.034 112.138L130.638 113.063L128.942 113.733L128.172 113.597L124.079 110.588L122.429 108.972L121.27 108.563L119.795 107.329L118.577 105.822L117.162 100.521L116.28 98.6519L114.966 96.9021L114.715 95.7874L114.247 91.1313L113.624 90.2476L112.987 86.4165L113.114 83.5426L112.386 81.8813L112.243 80.5971L111.064 79.1415L111.102 77.7191L110.259 76.7995L106.781 75.5517L105.155 74.6195L103.457 73.2387L102.03 71.6903L100.875 71.3995L98.974 69.9484L97.4958 68.3947L96.4471 68.4898L93.5817 67.2679L92.2435 68.2662L90.6826 68.1814L89.4294 66.6866L88.2922 63.6173L88.5009 61.1265L87.6159 58.7912L87.0146 57.9535L86.1549 54.3102L85.5949 52.6798L83.3851 50.6447L84.7231 48.7904L88.25 47.1001L91.0009 45.1945L94.5168 43.5135L97.2002 42.6016L97.7261 41.9345L98.7458 39.3873L100.869 37.4289L102.149 35.4296L103.976 33.9566L105.199 34.1211L109.273 36.2955L111.648 38.2623L112.467 39.3222L114.191 40.8034L118.19 38.4632L121.467 37.2806L122.725 36.1091L125.394 35.0016L126.404 33.7544L128.998 24.9668L129.938 22.9274L130.909 21.7547L133.264 20.6779L134.959 20.24L137.3 20.3454L139.913 21.683L142.426 24.1973L143.545 24.4837L146.21 23.2887L148.257 24.0229L152.541 23.1869L156.915 22.8546L159.248 21.8022L165.421 18.4178L167.832 18.0008L170.172 16.5312L173.536 13.8383L174.694 14.237L179.868 16.8567L180.41 18.0393L180.937 21.3623L181.299 22.3281L183.043 24.0152L185.387 27.7002L186.543 29.8792L188.492 32.0263L190.128 32.4807L191.304 32.4075L196.489 30.2046L198.793 29.5492L201.371 29.3024L203.168 28.8295L205.294 27.7604L208.397 27.0541L212.025 24.8499L214.229 24.0412L216.512 21.9076L216.468 20.434L215.843 19.3L215.87 18.2239L217.432 13.872L217.507 12.2377L219.005 8.44981L221.381 5.88978L223.413 4.47266L224.402 6.6873L226.21 6.94229L227.383 9.64011L229.608 12.4436L230.594 13.0216L231.219 14.691L230.82 15.7223L231.558 17.1739L232.848 18.2031L234.329 17.993L234.971 18.8267L236.136 18.4399L237.799 21.2971L237.932 22.0835L236.467 24.8463L236.68 26.245L237.623 27.244L238.967 27.6238L239.374 29.6115L238.87 30.2653L240.388 31.7407L241.973 31.8767L244.727 34.1787L245.299 33.1843L246.535 33.015L247.172 35.5832L248.504 36.5242L250.588 35.197L251.648 35.4604L252.625 34.8315L256.389 35.8182L258.215 36.9816L259.023 36.9683L259.166 38.2815L260.604 38.4814L262.21 37.4306L263.193 37.3482L264.275 38.2244L265.906 38.487L266.934 39.6238L268.46 40.1129L270.008 41.2343L270.959 43.1611L272.201 43.6252L274.608 45.369L277.369 45.0003L278.755 44.5571L278.881 46.5629L280.365 46.9036L283.074 48.321L284.069 47.7099L284.608 48.5503L286.204 49.4777L286.556 50.8162L287.373 51.891L289.18 52.2973L290.134 53.4232L293.378 53.4155L296.073 52.1925L297.418 52.1419L298.428 52.6785L303.811 49.8098L305.719 49.5584L306.895 48.2779L307.762 49.2413L307.683 50.5864L309.849 52.0318L311.449 52.1589L315.657 53.2162L316.875 52.9204L319.323 53.7651L323.293 56.1484L325.833 57.1424L328.557 58.6084L331.905 59.6279L333.767 59.4008L334.62 60.004L336.528 60.4581L338.718 58.8487L341.17 57.3825L341.951 57.5082L344.628 55.939L345.223 54.8028L349.334 52.3435Z" fill="#1E1E1E"/>
<path d="M158.163 186.341L158.104 183.969L159.084 182.777L160.186 180.127L159.321 178.268L157.8 178.209L155.783 176.968L155.98 175.19L154.691 174.575L154.394 173.815L152.958 173.616L151.198 172.479L150.394 171.161L151.224 168.83L147.951 168.168L147.553 165.981L146.45 165.614L145.384 164.185L143.168 164.245L142.938 163.405L144.146 161.498L143.049 160.602L141.982 160.341L140.154 158.493L138.019 157.94L136.049 157.953L134.666 157.15L133.395 155.966L132.416 157.188L131.485 159.968L132.174 161.579L130.205 163.964L128.487 165.499L127.446 165.664L126.244 167.665L125.995 168.654L125.94 171.582L124.143 173.188L123.902 174.114L122.007 175.137L120.975 175.209L120.326 174.376L118.761 174.01L115.977 172.389L114.147 171.826L112.952 172.211L111.326 171.218L109.32 170.864L106.882 171.384L104.782 171.259L103.116 170.084L101.574 168.121L101.49 167.163L100.097 165.274L98.5315 164.762L98.3871 163.604L97.3349 163.081L90.5456 163.714L88.8195 163.281L87.5734 162.201L85.812 162.676L85.4621 163.188L81.4781 163.817L80.34 164.456L75.6177 164.632L71.1638 164.172L70.876 161.936L70.27 161.17L70.2175 159.21L68.5181 156.749L66.7406 156.787L65.2317 157.386L63.3702 157.216L61.2944 157.43L59.4654 157.986L56.5187 157.686L56.0978 157.031L53.7641 156.703L52.6173 156.262L49.8553 156.419L48.8569 158.3L47.1965 159.093L45.8241 159.138L44.7487 159.843L43.9455 159.082L42.3618 161.558L40.6282 162.649L36.5533 164.49L34.9598 164.159L32.6383 164.313L31.7694 163.436L28.0734 165.372L24.811 166.524L21.6586 168.652L16.9418 174.332L16.0595 176.199L15.3217 178.958L15.1166 180.596L15.2455 182.621L14.9884 184.667L13.016 187.338L11.4682 188.526L10.2938 189.875L8.16528 191.712L7.39739 193.06L7.12831 196.974L4.89463 198.838L3.40028 202.407L2.94141 204.443L3.02046 205.845L4.52119 207.95L5.97258 208.577L8.40314 208.494L9.71686 208.753L11.0642 209.924L11.3863 215.404L12.4072 218.083L13.1498 218.458L15.1099 218.225L15.9581 217.778L19.892 214.791L21.5262 213.13L25.2055 211.004L27.5659 209.166L28.5382 206.744L28.4262 203.124L28.5405 198.064L29.3677 196.613L32.6352 193.927L38.4453 191.282L42.9425 189.75L48.7689 187.179L54.1964 185.026L60.3606 182.966L62.9827 182.662L66.8181 185.867L68.0516 187.513L71.6718 190.116L73.3666 190.549L74.902 190.35L78.3109 188.015L81.0372 187.42L82.5477 188.189L82.7843 188.992L84.4631 190.896L87.5214 191.901L94.0135 190.591L98.2076 190.534L101.114 190.065L101.029 191.072L97.7546 192.978L95.5488 195.169L94.5428 198.06L93.4417 198.415L91.5226 198.335L88.0549 201.465L86.4964 204.156L85.4233 204.818L82.0088 204.576L81.9726 205.936L82.9844 207.824L83.6398 210.907L85.209 214.211L85.4314 215.306L87.0752 217.033L88.4842 218.109L93.8668 220.777L96.3665 222.643L101.338 225.381L103.804 226.451L106.653 228.415L110.322 234.535L112.64 236.909L114.674 239.61L116.143 239.848L119.481 242.096L121.746 242.828L123.456 242.956L128.591 244.786L131.946 246.56L134.975 247.587L135.823 248.469L137.392 248.974L138.399 246.705L140.005 245.896L141.498 246.194L145.307 246.556L146.449 246.422L151.694 247.035L156.323 247.105L158.744 246.962L162.985 249.462L164.684 251.177L168.88 253.039L169.337 255.014L171.01 256.349L177.358 257.874L180.042 258.272L181.811 258.107L185.238 258.403L188.274 258.153L190.418 257.587L191.194 256.977L189.852 254.962L188.763 253.816L187.317 253.094L186.121 251.808L185.619 249.827L183.615 248.39L183.208 247.759L183.221 245.633L182.873 244.3L183.316 242.458L181.957 242.59L179.668 241.572L178.748 239.764L178.91 236.014L177.212 231.809L176.954 229.506L177.851 224.217L178.802 221.651L179.738 220.062L178.486 219.297L172.835 216.768L171.11 214.956L170.013 214.671L166.072 214.422L165.633 214.055L164.032 215.284L162.351 216.104L160.726 215.219L160.462 213.403L159.69 212.616L160.437 211.903L161.334 212.801L163.677 211.465L163.634 210.532L164.883 210.524L165.352 208.788L164.797 208.003L163.332 207.472L162.119 203.825L161.591 203.215L160.564 203.566L160.219 202.429L161.153 201.652L161.806 202.353L163.538 202.66L162.88 199.569L162.246 198.937L159.588 198.877L157.67 197.395L155.003 196.787L153.746 195.917L152.301 196.665L149.225 196.467L148.547 194.47L148.616 192.59L149.106 191.812L149.477 189.283L151.338 186.83L152.166 186.114L154.385 185.98L156.958 186.761L158.163 186.341ZM158.163 186.341L158.845 188.836L159.996 189.752L161.427 189.508L161.613 190.377L159.99 190.877L158.88 193.266L157.94 194.518L158.263 196.285L159.982 197.124L160.92 196.905L161.958 194.84L161.239 193.813L162.108 192.905L162.245 191.931L164.272 193.058L165.63 194.466L166.462 194.233L166.803 192.378L166.259 190.305L166.886 189.827L168.665 189.92L169.049 191.214L169.804 191.872L172.021 195.245L174.035 195.623L174.522 196.337L174.257 197.9L173.301 198.511L174.178 200.448L174.358 201.615L174.056 203.985L174.066 205.94L174.45 207.773L175.098 208.305L177.352 207.692L178.16 208.27L179.253 210.383L179.721 212.433L181.531 213.518L182.529 214.865L183.859 218.254L183.594 220.038L182.711 221.738L184.707 223.305L184.897 224.122L186.682 226.256L188.116 226.868L188.691 225.701L190.278 224.957L192.215 226.916L194.454 226.982L197.181 225.12L197.963 222.842L199.477 219.554L200.684 219.821L202.055 218.969L202.531 220.287L204.498 220.95L205.312 220.36L206.768 220.804L208.013 220.293L206.972 219.029L208.482 217.507L211.225 218.497L212.665 218.3L215.189 219.668L216.215 219.694L217.119 219.073L219.402 219.257L219.999 219.982L221.291 220.341L223.273 220.118L224.551 220.489L227.293 224.779L228.577 224.686L229.649 225.542L230.289 226.816L232.559 226.81L236.04 225.629L238.755 227.018L239.44 228.247L240.478 228.991L242.19 229.175L242.878 230.118L245.806 230.857L247.33 232.044L248.719 232.604L251.824 231.211L254.039 231.587L255.326 232.476L255.896 233.763L256.806 233.563L258.1 232.39L259.602 232.461L261.518 234.085M158.163 186.341L159.966 184.844L160.908 182.316L162.056 181.593L165.095 180.532L164.954 179.187L165.551 178.458L167.321 178.853L167.915 179.649L168.876 179.579L169.602 181.765L172.101 181.44L175.54 178.312L175.667 176.7L176.969 174.6L176.883 173.175L176.076 171.645L175.489 171.607L176.972 168.018L177.182 164.872L177.477 163.594L179.668 161.007L180.363 159.642L180.719 157.826L180.693 155.262L180.152 154.162L179.237 153.78L178.262 154.828L177.11 154.378L177.544 151.314L178.16 150.376L178.227 146.816L177.87 144.465L176.938 144.36L176.323 142.651L175.402 142.526L174.693 141.184L176.022 140.417L176.407 138.553L176.482 136.163L175.829 135.184L174.609 134.422L173.065 134.44L172.004 131.772L170.576 130.9L170.154 130.111L168.833 129.193L167.883 125.554L165.976 124.1L165.313 123.966L164.562 122.112L163.707 118.272L162.829 117.266L160.945 116.029L158.675 115.988L157.361 116.555L153.114 116.675L151.147 116.344L148.816 116.521L147.357 115.077L146.489 113.736L144.631 111.602L142.824 110.438L140.397 110.667L137.352 110.685L134.667 111.151L132.034 112.138L130.638 113.063L128.942 113.733L128.172 113.597L124.079 110.588L122.429 108.972L121.27 108.563L119.795 107.329L118.577 105.822L117.162 100.521L116.28 98.6519L114.966 96.9021L114.715 95.7874L114.247 91.1313L113.624 90.2476L112.987 86.4165L113.114 83.5426L112.386 81.8813L112.244 80.5971L111.064 79.1415L111.102 77.7191L110.259 76.7995L106.781 75.5517L105.155 74.6195L103.457 73.2387L102.03 71.6903L100.875 71.3995L98.974 69.9484L97.4958 68.3947L96.4471 68.4898L93.5817 67.2679L92.2435 68.2662L90.6826 68.1814L89.4294 66.6866L88.2922 63.6173L88.5009 61.1265L87.6159 58.7912L87.0146 57.9535L86.1549 54.3102L85.5949 52.6798L83.3851 50.6447L84.7231 48.7904L88.25 47.1001L91.0009 45.1945L94.5168 43.5135L97.2002 42.6016L97.7261 41.9345L98.7458 39.3873L100.869 37.4289L102.149 35.4296L103.976 33.9566L105.199 34.1211L109.273 36.2955L111.648 38.2623L112.467 39.3222L114.191 40.8034L118.19 38.4632L121.467 37.2806L122.725 36.1091L125.394 35.0016L126.404 33.7544L128.998 24.9668L129.938 22.9274L130.909 21.7547L133.264 20.6779L134.959 20.24L137.3 20.3454L139.913 21.683L142.426 24.1973L143.545 24.4837L146.21 23.2887L148.257 24.0229L152.541 23.1869L156.915 22.8546L159.248 21.8022L165.421 18.4178L167.832 18.0008L170.172 16.5312L173.536 13.8383L174.694 14.237L179.868 16.8567L180.41 18.0393L180.937 21.3623L181.299 22.3281L183.043 24.0152L185.387 27.7002L186.543 29.8792L188.492 32.0263L190.128 32.4807L191.304 32.4075L196.489 30.2046L198.793 29.5492L201.371 29.3024L203.168 28.8295L205.294 27.7604L208.397 27.0541L212.025 24.8499L214.228 24.0412L216.512 21.9076L216.468 20.434L215.843 19.3L215.87 18.2239L217.432 13.872L217.507 12.2377L219.005 8.44981L221.381 5.88978L223.413 4.47266L224.402 6.6873L226.21 6.94229L227.383 9.64011L229.608 12.4436L230.594 13.0216L231.219 14.691L230.82 15.7223L231.558 17.1739L232.848 18.2031L234.329 17.993L234.971 18.8267L236.136 18.44L237.799 21.2971L237.932 22.0835L236.467 24.8463L236.68 26.245L237.623 27.244L238.967 27.6238L239.374 29.6115L238.87 30.2653L240.388 31.7407L241.973 31.8767L244.727 34.1787L245.299 33.1843L246.535 33.015L247.172 35.5832L248.504 36.5242L250.588 35.197L251.648 35.4604L252.625 34.8315L256.389 35.8182L258.215 36.9816L259.023 36.9683L259.166 38.2815L260.604 38.4814L262.21 37.4306L263.193 37.3482L264.275 38.2244L265.906 38.487L266.934 39.6238L268.46 40.1129L270.008 41.2343L270.959 43.1611L272.201 43.6252L274.608 45.369L277.369 45.0003L278.755 44.5571L278.881 46.5629L280.365 46.9036L283.074 48.321L284.069 47.7099L284.608 48.5503L286.204 49.4777L286.556 50.8162L287.373 51.891L289.18 52.2973L290.134 53.4232L293.378 53.4155L296.073 52.1925L297.418 52.1419L298.428 52.6785L303.811 49.8098L305.719 49.5584L306.895 48.2779L307.762 49.2413L307.683 50.5864L309.849 52.0318L311.449 52.1589L315.657 53.2162L316.875 52.9204L319.323 53.7651L323.293 56.1484L325.833 57.1424L328.557 58.6084L331.905 59.6279L333.767 59.4008L334.62 60.004L336.528 60.4581L338.718 58.8487L341.17 57.3825L341.951 57.5082L344.628 55.939L345.223 54.8028L349.334 52.3435L350.248 56.4355L350.602 59.2056L351.499 61.5005L352.493 62.4361L353.445 66.9976L354.091 69.3555L354.597 70.2169L354.384 72.884L354.883 74.0572L356.487 75.903L357.102 77.66L356.779 79.9551L354.019 82.9486L353.099 85.2552L350.303 88.8844L348.513 94.8599L346.552 98.489L345.84 101.059L345.372 104.05L344.592 104.937L342.863 104.437L342.249 108.392L341.64 108.804L339.636 108.419L337.912 108.431L336.073 108.807L333.766 109.83L331.702 111.116L331.41 112.501L332.696 114.395L333.775 116.701L335.561 119.232L334.996 121.376L332.263 123.899L329.725 125.045L328.764 126.282L330.939 128.736L331.171 129.76L330.923 131.904L331.259 134.734L332.746 138.113L332.413 140.794L331.642 143.688L332.326 148.278L332.168 149.214L329.129 153.78L325.899 154.641L324.999 155.592L323.28 158.959L322.667 161.154L323.571 163.609L325.112 164.635L324.844 165.617L323.169 166.568L322.721 167.61L323.261 168.683L326.883 171.994L328.813 174.216L328.637 178.569L329.207 181.453L329.103 182.696L327.461 187.081L326.296 188.862L326.342 189.798L329.544 193.75L329.157 196.91L329.233 200.144L328.458 203.335L327.011 206.848L327.027 208.519L327.993 210.902L329.399 213.125L331.426 216.964L332.914 220.543L332.99 221.493L330.684 225.627L330.505 226.609L330.576 232.627L330.936 233.488L328.474 235.556L327.613 236.035L325.977 235.896L325.251 234.992L323.692 235.417L322.051 236.697L320.547 235.797L319.272 235.87L312.996 235.558L310.678 236.196L309.336 235.963L307.822 236.531L305.844 236.327L302.019 232.008L300.362 232.024L299.054 231.628L296.035 232.709L292.96 230.973L291.419 228.257L290.015 226.974L289.036 226.529L287.534 226.655L285.263 225.319L283.81 225.319L281.579 224.126L278.975 224.317L277.37 224.097L276.657 223.591L275.582 223.888L273.641 223.013L269.68 224.031L268.023 225.778L265.984 228.827L263.024 231.143L261.518 234.085M261.518 234.085L262.083 235.595L260.83 236.677L261.518 234.085ZM115.836 164.986L116.423 165.043L117.33 168.767L117.454 170.523L116.66 170.676L116.387 168.995L114.759 166.927L114.946 165.993L115.836 164.986ZM60.5192 150.461L59.2309 150.482L58.9173 149.674L60.5826 149.459L60.5192 150.461Z" stroke="white" stroke-width="5"/>
</svg>
