<svg width="410" height="293" viewBox="0 0 410 293" fill="none" xmlns="http://www.w3.org/2000/svg">
<path d="M63.6351 285.106L65.1824 286.605L63.9672 286.902L63.6351 285.106ZM71.8683 282.893L71.6508 285.336L72.8648 286.422L72.3277 288.64L70.0224 287.003L70.0317 284.848L68.2025 283.517L68.605 282.208L68.3233 280.411L71.2451 280.908L72.1121 281.808L71.8683 282.893ZM64.2081 278.225L65.7028 278.011L66.5502 280.113L65.3307 280.044L63.3904 278.263L62.3144 277.614L62.8406 276.896L64.2081 278.225ZM59.0052 242.878L59.3652 244.15L58.3506 244.554L56.7788 243.959L55.7831 244.077L55.845 245.095L53.8906 245.143L53.0679 245.745L51.5017 245.64L50.198 246.551L47.8569 246.381L49.0871 244.898L49.9846 244.977L51.7797 243.699L53.4159 243.111L54.4036 243.257L56.9962 243.013L57.6989 242.618L59.0052 242.878ZM17.779 242.012L16.6004 243.083L15.8467 242.949L15.9006 241.002L17.1061 241.185L17.779 242.012ZM77.6661 239.769L78.7502 240.816L79.7518 241.131L80.9085 242.653L79.778 243.252L78.4545 242.079L76.6391 241.878L76.0164 243.245L74.6521 242.948L73.2139 243.453L70.5407 243.428L69.6155 242.386L69.2206 240.948L70.766 240.178L75.1187 240.192L76.3024 239.584L77.6661 239.769ZM66.4543 239.66L68.1854 240.038L67.7966 242.592L65.418 243.057L64.3624 240.836L65.1234 239.674L66.4543 239.66ZM67.6824 228.053L66.9805 226.097L69.2022 224.988L69.7533 226.418L68.8315 226.686L67.6824 228.053ZM256.925 21.166L257.487 22.2695L256.487 24.3712L255.519 25.162L252.919 25.2805L251.348 26.0784L248.62 26.0607L245.413 26.304L244.479 26.9432L242.764 25.8911L242.156 25.9956L241.271 27.3528L238.841 27.5738L237.288 28.2063L236.58 27.3101L235.663 27.1079L234.447 28.1901L234.146 30.5504L232.912 32.2424L233.225 34.1602L232.498 35.4449L232.463 36.607L233.771 39.436L230.075 41.3726L226.812 42.5249L223.66 44.6523L218.943 50.3322L218.061 52.1992L217.323 54.958L217.118 56.5965L217.247 58.6216L216.99 60.667L215.017 63.3381L213.469 64.5266L212.295 65.8751L210.167 67.7123L209.399 69.0605L209.13 72.9747L206.896 74.8385L205.402 78.4078L204.943 80.4434L205.022 81.8449L206.522 83.9506L207.974 84.577L210.404 84.4945L211.718 84.7529L213.065 85.9242L213.387 91.4048L214.408 94.0838L215.151 94.4586L217.111 94.2257L217.959 93.7782L221.893 90.7915L223.527 89.1304L227.207 87.0047L229.567 85.1668L230.539 82.7441L230.427 79.1247L230.542 74.0643L231.369 72.613L234.636 69.9271L240.447 67.2829L244.944 65.7505L250.77 63.1791L256.198 61.0263L262.362 58.9662L264.984 58.6623L268.819 61.8675L270.053 63.5133L273.673 66.1165L275.368 66.5491L276.903 66.3501L280.312 64.0159L283.038 63.4205L284.549 64.1894L284.786 64.9921L286.464 66.896L289.523 67.9014L296.015 66.591L300.209 66.5344L303.115 66.065L303.03 67.0729L299.756 68.9782L297.55 71.1692L296.544 74.0599L295.443 74.4158L293.524 74.3358L290.056 77.465L288.498 80.1562L287.425 80.8182L284.01 80.5764L283.974 81.936L284.986 83.824L285.641 86.9078L287.21 90.2119L287.433 91.3065L289.076 93.0334L290.485 94.1092L295.868 96.7778L298.368 98.643L303.34 101.381L305.805 102.451L308.654 104.415L312.324 110.535L314.642 112.909L316.676 115.611L318.144 115.849L321.483 118.097L323.747 118.829L325.458 118.957L330.592 120.787L333.948 122.561L336.977 123.587L337.824 124.47L339.393 124.974L340.4 122.705L342.006 121.896L343.499 122.195L347.309 122.557L348.451 122.422L353.696 123.035L358.324 123.105L360.746 122.963L364.986 125.462L366.685 127.177L370.882 129.039L371.338 131.015L373.011 132.35L379.36 133.874L382.043 134.272L383.813 134.108L387.239 134.403L390.275 134.154L392.419 133.587L393.195 132.978L394.359 133.923L398.371 133.925L399.325 135.999L400.26 136.617L401.374 138.422L402.88 139.89L404.152 140.633L404.875 140.392L405.382 144.062L406.406 147.645L406.853 150.03L406.49 151.081L405.165 152.755L402.715 152.62L400.083 151.774L397.525 152.204L396.83 153.063L396.612 155.015L394.906 157.154L394.623 159.367L396.585 164.568L396.54 165.713L395.644 166.374L392.636 167.894L391.077 167.728L390.156 168.098L388.865 171.174L388.845 172.491L388.24 175.515L386.797 177.747L385.048 179.446L384.125 180.889L382.751 186.386L383.36 189.24L383.404 190.619L382.293 194.361L382.107 198.272L380.967 203.287L381.3 204.185L383.185 205.061L383.251 209.448L383.762 211.029L386.314 212.289L386.515 214.312L385.646 214.662L384.098 214.273L383.287 216.38L383.152 217.903L382.308 220.296L381.084 222.63L381.503 223.928L384.698 227.564L384.822 228.399L384.05 229.916L380.483 231.991L378.992 234.124L378.18 236.262L377.859 238.33L377.938 239.995L378.722 241.846L381.182 245.187L381.749 246.304L377.596 248.41L373.599 249.054L371.441 250.323L369.62 251.947L367.403 252.853L365.738 253.839L364.263 255.133L361.9 256.22L358.812 256.392L356.371 256.117L355.14 257.393L353.646 261.685L352.696 263.864L351.626 265.546L350.565 266.301L348.072 266.399L346.762 267.009L345.929 268.138L344.82 268.807L340.026 269.223L337.382 269.053L333.097 269.656L328.889 271.078L326.572 271.196L325.596 269.985L325.047 267.352L325.381 263.667L324.11 263.608L323.456 262.327L322.063 261.776L321.201 258.733L319.329 258.291L318.136 257.035L316.64 257.31L313.753 256.499L312.281 256.493L310.431 256.921L309.075 256.829L303.714 254.962L302.872 253.482L301.426 253.359L299.108 251.979L298.341 250.999L298.308 248.006L297.819 243.741L298.067 239.968L297.631 237.796L296.891 236.237L296.684 234.794L297.582 232.121L296.527 229.013L296.21 226.566L297.497 224.595L296.639 223.97L294.919 223.932L292.863 224.525L290.176 224.001L288.437 223.949L286.181 224.532L281.777 224.154L280.716 224.535L277.882 223.838L276.063 224.82L274.04 225.457L272.196 225.197L270.758 224.543L269.085 223.289L267.193 221.284L264.606 220.589L261.875 221.24L256.965 221.362L256.1 220.235L256.218 218.485L254.972 213.68L253.447 211.651L255.706 209.047L262.382 207.262L264.218 206.033L264.447 205.439L263.449 202.67L263.862 201.113L267.045 197.955L267.483 196.887L266.952 193.646L265.872 190.413L262.695 186.594L261.197 185.817L259.815 185.973L256.976 187.378L255.315 187.953L253.991 188.949L251.226 190.377L249.319 190.439L246.342 189.556L244.979 189.686L242.322 191.385L238.015 191.64L235.692 191.093L233.553 189.544L231.434 189.611L230.259 190.492L229.579 192.095L228.219 193.994L226.728 197.099L224.95 199.731L222.837 202.094L221.838 202.771L217.047 203.055L215.16 204.655L214.427 205.949L213.935 207.924L214.01 209.732L214.595 212.066L216.278 213.129L217.061 214.625L219.114 217.233L219.57 218.678L218.655 221.633L218.583 222.895L219.035 225.662L218.75 228.881L217.781 231.37L217.656 234.565L215.35 237.436L212.327 239.89L210.874 240.222L207.057 240.619L203.802 239.366L200.827 238.758L196.441 239.186L195.09 239.558L192.099 239.194L188.773 238.372L185.229 236.917L183.019 235.605L181.885 235.414L180.894 235.878L177.933 239.796L176.485 240.604L173.024 240.757L170.428 241.41L168.904 241.28L166.553 240.432L162.916 240.682L161.314 241.323L159.685 242.786L157.355 244.075L154.461 244.858L153.071 244.687L150.811 245.143L148.214 245.116L147.306 245.666L146.472 247.165L144.556 247.764L141.734 248.191L137.295 249.854L135.966 250.685L134.478 252.205L134.482 249.952L135.217 248.6L135.314 246.911L136.992 245.672L138.74 245.762L139.848 244.715L139.136 243.251L140.315 242.498L140.03 241.531L142.61 241.595L143.05 239.851L142.068 239.305L140.749 237.806L139.824 237.561L139.308 236.655L136.905 235.153L134.352 233.947L133.68 232.683L133.952 232.02L133.518 230.527L134.165 229.241L133.442 228.476L130.955 227.287L130.26 225.888L128.641 224.92L127.294 224.595L126.074 225.228L123.833 227.829L122.326 229.876L120.742 231.592L119.911 233.303L118.388 234.497L116.717 236.638L116.371 237.78L114.539 240.458L113.234 241.865L111.141 243.386L110.817 244.514L109.699 246.268L108.939 246.393L108.13 247.89L105.948 247.941L104.341 246.341L104.282 244.859L102.686 245.245L102.266 242.771L100.514 244.074L99.4571 244.325L99.1038 243.267L97.0601 242.362L97.2223 244.295L93.8982 243.011L90.5855 242.313L87.9358 242.608L87.2926 242.18L89.1261 240.26L89.3121 239.13L90.0781 238.063L92.8896 237.155L93.2009 235.219L94.3959 235.172L96.7162 236.636L97.5213 236.527L98.2562 235.398L98.5896 233.348L98.3903 232.071L97.692 231.145L95.6959 231.241L94.3193 228.863L92.4673 228.433L91.3165 227.312L90.013 227.959L88.6151 227.047L87.9113 225.95L86.7024 225.837L87.2658 223.844L86.4529 222.025L84.7947 220.317L83.0184 221.166L81.6161 221.459L78.5598 221.132L76.2163 221.876L73.9892 221.984L71.0865 221.61L68.931 222.675L67.8765 222.55L66.5369 221.377L64.7031 222.294L63.1715 222.366L60.9406 221.226L59.7246 220.135L59.114 222.767L57.82 222.658L57.659 221.258L56.1825 221.269L54.9922 220.502L53.8682 222.555L52.0187 222.597L51.5004 222.105L51.4038 220.52L50.7202 219.24L50.5063 217.145L50.7041 215.472L49.9092 214.216L49.1551 215.962L47.2351 218.099L44.5888 218.153L43.3935 219.813L42.6261 219.473L41.742 217.285L38.9807 217.524L36.5194 218.598L35.5534 222.152L34.7277 223.685L34.9557 224.824L33.6781 226.519L33.8486 227.739L34.7667 228.561L35.1127 229.996L40.4247 230.216L40.9165 227.065L41.4501 226.02L42.8759 224.558L43.9142 225.195L45.4554 224.064L47.4513 224.644L50.752 227.219L51.3417 228.093L52.5358 227.762L54.2574 228.726L54.6775 232.771L56.2422 233.677L56.2647 235.145L58.3366 236.555L54.8214 237.5L53.0223 236.556L51.0189 236.239L49.0425 238.717L47.4238 240.325L43.9936 239.93L42.7911 237.157L41.9398 236.297L40.9693 237.61L38.8199 235.804L38.4222 234.681L36.3423 235.445L34.1666 235.164L32.0221 233.33L30.8521 236.097L28.6861 236.63L27.5878 239.757L26.8609 237.245L26.9824 235.326L26.6159 234.512L26.7665 231.783L26.431 230.302L24.8814 227.965L25.241 225.025L24.4375 222.19L23.0021 221.023L22.6676 219.636L23.1876 218.874L22.1225 216.552L21.782 215.145L22.4839 214.215L22.2474 211.742L22.6761 209.439L23.4347 209.035L22.989 207.235L22.4395 206.515L20.5318 205.493L18.2523 206.065L17.6434 205.42L14.5064 205.004L13.9911 203.076L13.0283 202.058L11.7383 199.287L11.5966 198.218L9.87412 195.026L9.7693 191.782L9.4972 190.395L8.16073 189.29L6.44513 188.585L3.69197 186.224L3 184.608L3.33896 183.19L4.5503 181.217L4.63225 179.688L5.67758 177.771L5.29265 175.338L5.59052 174.178L7.73981 170.11L9.77348 164.404L11.6487 164.232L13.8936 165.403L16.663 166.244L18.4591 166.153L19.7538 167.931L19.7034 169.832L20.6239 170.53L26.495 173.134L27.5326 172.892L28.9855 171.023L31.1244 169.767L32.9217 169.304L36.1239 169.091L38.6987 167.507L40.6581 165.583L41.546 163.861L42.1449 161.164L42.8474 159.27L44.7813 155.498L47.8764 152.849L50.4768 152.636L53.5386 153.227L55.9808 154.177L59.2758 154.205L62.1325 155.398L63.4271 155.646L67.5197 154.358L69.6241 153.078L70.4808 151.738L72.6189 151.82L73.7909 152.479L76.6113 152.419L81.5626 152.886L84.7987 153.477L86.2705 153.092L88.9534 151.549L92.2058 148.458L94.6697 146.961L99.5314 147.444L101.479 147.246L103.338 146.643L104.756 145.521L107.004 142.049L108.067 141.328L108.902 140.075L109.798 139.531L112.994 139.129L114.819 138.223L115.626 135.399L118.552 131.958L124.967 128.053L126.122 128.502L127.914 129.858L130.013 130.69L131.119 130.408L131.575 129.631L132.652 129.537L133.705 128.474L134.293 126.771L134.297 124.424L134.674 122.472L135.624 121.149L137.673 120.963L141.557 121.478L144.41 121.517L145.465 121.069L147.183 118.878L148.157 116.854L148.225 115.282L147.372 114.832L143.874 116.019L142.052 116.288L141.451 116.019L141.625 114.128L142.202 111.716L142.678 106.944L142.469 105.979L141.143 103.055L140.286 101.715L138.718 100.028L137.79 98.4256L138.193 96.3813L140.509 94.745L141.739 93.1078L142.014 91.8888L142.63 85.5873L142.669 80.8563L142.498 78.0392L142.668 75.7569L142.392 70.8774L142.482 67.451L137.087 67.1109L132.812 67.2497L129.114 66.9227L124.981 67.1811L121.161 66.9875L117.489 67.3993L113.649 67.6245L109.334 67.497L108.595 67.0983L108.443 64.862L108.381 57.0531L108.253 54.7394L108.292 49.1701L108.602 47.2037L109.194 46.4079L111.295 47.4966L112.192 48.3372L113.659 48.906L115.33 50.2912L118.772 50.7972L120.303 51.2911L123.558 50.8005L126.542 48.8649L128.443 46.9403L133.04 44.3481L134.057 42.9074L135.065 39.8613L136.136 39.0582L136.111 37.3243L136.628 36.2919L137.996 31.6829L138.072 29.9679L137.689 28.3433L136.895 26.6799L136.379 22.5296L136.96 21.614L139.882 19.2049L140.186 18.4951L141.956 17.1131L142.126 15.2743L140.557 12.0786L139.984 9.76324L140.273 6.51819L140.852 5.80864L145.049 2.96122L146.827 2.86719L148.077 3.50496L149.964 5.06972L151.42 7.49984L153.308 8.81869L154.397 10.0076L155.628 10.4855L157.763 12.1656L160.248 13.6365L161.981 15.1289L165.738 14.8544L167.511 14.4121L170.817 14.0791L172.032 14.2629L174.66 15.5588L175.947 17.2674L176.891 19.7373L176.973 22.8416L176.652 26.3985L175.753 30.287L175.61 32.878L175.167 34.9051L177.544 34.3548L180.791 35.1049L181.902 36.3345L184.454 35.4968L185.849 36.1144L186.836 38.1778L187.8 37.2796L188.465 38.745L189.254 38.6122L189.808 37.2825L192.617 37.9914L193.745 37.5555L195.515 38.1989L196.591 37.4487L198.073 37.8686L201.357 35.9671L201.816 35.205L203.992 35.8969L205.466 35.3698L211.424 31.9965L213.824 31.0989L219.299 29.8195L224.872 26.8231L228.79 25.2708L231.288 21.6204L232.245 21.5216L235.814 23.0661L237.183 23.0932L239.503 21.4506L241.29 19.1883L242.875 19.148L250.038 21.3145L253.252 21.432L254.244 21.1331L256.925 21.166Z" fill="#1E1E1E" stroke="white" stroke-width="5"/>
</svg>
