<svg width="420" height="246" viewBox="0 0 420 246" fill="none" xmlns="http://www.w3.org/2000/svg">
<path d="M414.455 204.42L415.322 204.83L415.027 206.233L414.222 207.017L413.616 205.77L414.455 204.42ZM399.943 143.707L396.321 144.552L398.32 142.963L399.625 142.641L399.943 143.707ZM371.095 137.101L372.5 138.248L371.967 138.867L370.861 138.342L371.095 137.101ZM390.063 226.435L387.642 227.303L384.601 228.042L380.709 230.188L377.374 231.318L373.779 230.838L372.748 230.533L369.586 227.816L364.859 224.582L363.625 224.765L361.229 226.987L360.57 228.842L359.141 229.712L357.937 231.019L356.902 235.655L355.087 238.012L352.491 241.903L350.849 242.957L348.473 242.215L344.269 239.21L342.231 236.825L340.79 236.197L338.183 236.942L331.209 241.221L330.033 241.299L329.268 240.282L329.344 239.386L328.569 238.368L324.478 237.875L324.049 235.122L323.44 234.19L319.957 234.352L318.299 234.74L316.686 235.58L315.732 237.459L314.147 238.1L308.388 238.584L306.565 235.8L306.533 233.436L306.885 232.187L306.161 229.006L304.603 226.308L304.075 224.368L305.632 223.046L309.491 218.921L308.925 217.45L305.912 218.225L302.098 216.157L296.311 214.783L291.319 211.568L289.892 210.346L287.738 211.592L286.729 212.718L284.99 213.292L283.452 212.806L280.885 211.048L278.982 210.875L274.671 212.558L274.691 213.716L270.076 217.657L267.078 219.683L263.988 220.295L258.133 220.553L254.586 221.837L252.9 222.238L247.969 222.665L244.921 222.185L242.013 222.334L240.273 223.056L239.509 222.739L238.321 220.941L235.726 220.592L231.672 222.155L228.586 221.876L226.56 222.893L225.747 222.897L224.223 221.902L222.786 220.282L218.585 219.112L212.451 215.878L208.211 212.127L206.714 209.807L206.5 207.811L205.248 205.559L205.012 204.459L204.613 197.292L204.82 195.756L203.073 195.442L200.867 196.924L199.934 197.861L197.961 198.745L195.86 198.739L195.411 198.151L195.12 196.251L193.97 193.331L192.915 193.218L190.63 194.44L187.885 195.05L186.228 196.383L185.513 197.881L183.871 198.353L182.27 197.713L178.698 197.165L178.047 197.368L177.27 199.812L174.212 202.804L170.545 203.774L167.041 203.798L164.663 202.122L162.076 201.455L162.412 199.969L161.659 198.595L160.192 196.841L157.987 195.115L155.482 194.164L152.724 194.519L147.373 194.251L143.798 194.979L143.162 194.322L142.891 190.901L142.143 189.193L140.941 188.371L138.985 190.985L137.11 192.409L134.807 192.312L133.223 191.014L132.484 188.716L131.894 188.153L130.323 187.884L127.399 187.945L125.947 187.6L121.651 185.988L120.254 185.691L117.554 185.976L114.821 186.906L112.867 188.397L111.385 191.416L107.718 192.432L103.801 193.932L102.932 192.468L102.548 189.346L101.57 185.265L101.299 183.05L101.216 179.384L102.622 176.447L105.044 173.005L106.672 168.349L109.363 165.337L111.644 163.251L117.13 160.268L117.349 159.411L116.463 157.027L115.279 152.352L114.55 150.681L112.61 151.081L108.866 153.897L103.526 157.287L99.8801 158.723L97.5117 160.296L96.9891 160.011L94.5355 157.022L96.5322 156.405L95.4642 155.21L93.7405 154.201L91.9697 152.467L90.5978 150.266L89.7796 147.145L87.9676 144.823L85.9035 141.262L83.9054 142.677L83.1102 142.881L81.2298 144.957L80.9043 146.323L79.8102 148.003L76.0363 152.413L74.8895 153.357L70.8827 154.743L68.9765 155.701L67.9918 156.516L67.2281 157.968L66.8418 160.419L65.9787 161.304L63.79 164.386L62.9041 166.385L61.0246 169.619L59.1416 170.539L56.5255 170.548L55.4169 171.091L53.7179 173.011L51.1027 178.338L50.0928 178.47L48.465 177.803L46.8969 178.863L45.6983 180.667L42.5548 181.372L39.4974 181.246L36.4728 179.502L33.6917 178.863L32.1176 177.223L30.1671 176.644L28.8841 176.94L27.173 177.937L22.4153 178.257L19.7216 178.917L18.4054 179.802L16.5328 182.082L15.6264 182.417L13.0751 182.103L9.96155 182.649L5.42756 182.818L3.51172 182.088L5.56605 177.451L5.65033 176.139L5.23451 173.163L5.8919 171.593L7.60877 169.937L9.38369 168.618L10.2469 167.578L10.9733 162.808L11.7928 161.136L13.1557 159.459L14.5084 158.871L16.8412 158.397L18.9428 156.602L19.9034 155.286L20.9541 152.689L21.4116 148.926L21.4781 146.608L20.858 144.21L21.0216 141.579L20.6975 139.528L17.6635 133.181L17.1236 131.608L17.3253 127.889L17.7958 125.675L18.6022 124.301L19.6308 123.493L29.1737 119.431L30.969 119.124L35.2733 119.245L37.8391 118.999L44.9895 116.412L47.7651 115.757L51.0101 113.688L54.4501 110.492L56.7336 109.7L58.4382 108.565L60.4678 107.655L66.3332 104.564L68.7832 104.874L74.6351 103.67L76.9262 101.725L80.6663 98.2427L82.4923 96.2346L85.317 94.2788L85.825 94.1644L87.2881 92.0538L88.039 91.5434L91.1658 90.9423L95.5077 89.2739L98.6329 86.6556L103.134 83.3055L106.137 82.1379L107.486 81.4035L108.802 81.4367L112.298 80.3072L112.602 76.2644L112.227 74.745L111.849 71.2854L111.031 67.8358L111.812 65.3936L114.564 62.0786L116.253 61.0127L117.044 59.552L119.29 56.8891L120.019 55.4554L121.591 54.7407L123.899 52.7124L125.765 51.5641L127.469 51.0021L129.923 49.3553L130.541 48.0034L132.315 45.9955L134.469 44.3879L137.759 42.594L142.44 42.2215L144.544 41.5167L147.978 41.6331L149.253 41.4305L150.086 39.5463L151.092 38.6611L151.598 36.5498L152.425 35.613L154.838 35.0643L155.704 33.7863L157.499 31.9451L158.801 31.3359L160.563 31.2295L161.539 31.8501L162.392 33.8149L162.293 35.5593L162.883 37.4708L163.716 38.8979L164.84 39.3363L166.789 37.7476L167.517 35.8567L168.112 31.9902L168.093 27.4859L167.937 26.1403L167.196 24.5458L165.789 23.2359L163.037 21.2478L162.039 19.6687L161.432 16.7587L162.391 15.3593L164.13 14.9671L164.619 15.5036L166.664 15.8223L168.681 16.6138L171.255 18.2586L172.925 18.7492L176.676 21.9311L178.531 22.5252L183.555 25.3656L187.434 28.3348L188.618 28.6413L190.18 29.7207L193.279 30.8529L195.938 31.522L196.902 32.6903L199.986 38.0987L201.535 40.2119L204.305 42.8346L206.821 44.5254L207.679 44.8025L210.924 48.8356L215.06 52.2674L217.865 53.0275L219.439 54.314L220.359 56.2704L221.388 57.6817L221.488 60.1015L222.191 62.0781L224.198 64.8527L225.174 67.8703L228.005 71.773L229.241 73.8314L231.492 75.7273L232 76.4418L234.875 78.1035L237.852 79.2576L239.758 80.9153L242.502 81.9525L245.266 83.3532L249.136 84.0872L250.871 86.34L253.017 87.7949L254.503 89.7333L256.213 91.4601L259.646 93.3884L261.683 94.3242L265.717 95.3753L266.164 95.8734L269.838 96.5372L272.295 96.026L274.225 95.2036L275.321 95.3131L277.884 96.5294L278.897 97.3642L280.355 97.3435L282.843 96.3773L286.487 95.5634L288.364 94.4046L293.674 89.8622L294.711 90.4137L296.318 89.7936L297.194 90.241L297.66 91.2601L299.707 92.3264L301.372 92.1123L303.815 90.8129L304.831 90.7239L307.239 88.5409L309.194 85.768L310.307 85.0481L311.708 86.0738L329.216 103.079L331.802 105.194L334.16 107.581L333.685 109.423L336.149 112.805L335.853 115.971L338.029 118.108L336.469 119.825L335.523 120.11L334.848 122.298L333.49 122.679L333.02 124.562L331.869 125.234L328.585 126.581L327.491 128.554L326.752 128.197L325.733 129.592L325.676 132.04L326.371 134.3L327.701 135.968L328.381 137.282L329.999 137.139L330.932 138.239L328.472 139.825L328.202 140.881L329.172 144.051L329.673 144.205L330.953 147.071L331.654 149.921L333.552 151.72L337.02 153.651L337.818 153.759L340.705 151.745L342.772 151.24L347.565 150.772L348.58 151.389L348.395 153.029L350.34 152.77L351.213 151.583L352.352 151.099L353.879 152.179L355.634 152.844L356.57 153.689L358.015 153.23L359.16 155.433L360.779 156.404L361.856 155.955L362.209 155.153L361.097 153.871L362.341 153.655L364.109 154.433L366.549 154.105L367.602 154.645L369.826 153.534L371.578 153.202L372.177 152.524L373.383 152.726L375.255 151.055L377.2 150.71L377.723 151.665L378.859 151.906L381.132 151.236L381.972 150.547L384.457 150.757L385.63 151.962L384.381 154.406L385.86 155.624L387.553 155.519L387.282 154.155L389.211 154.44L390.222 153.974L392.105 155.25L391.321 158.368L392.435 158.624L394.184 156.55L395.291 158.047L394.001 159.492L394.025 160.746L395.546 161.103L396.005 160.492L397.769 159.692L398.778 160.274L398.741 161.768L400.242 163.282L399.675 164.796L401.292 167.422L402.593 167.484L403.69 168.644L404.597 168.643L406.342 169.397L407.277 170.712L407.153 172.374L408.153 173.202L409.773 173.114L410.549 173.509L410.851 175.836L410.156 177.213L411.515 177.922L413.12 176.362L414.457 176.766L414.572 177.96L415.917 177.88L416.716 179.174L416.417 181.93L415.521 183.068L415.584 184.257L414.803 186.8L415.553 187.491L414.924 188.27L414.677 190.775L415.349 192.16L416.085 192.395L416.81 194.267L416.471 196.144L415.499 195.753L414.686 196.759L413.163 197.555L411.095 199.437L410.116 200.672L408.55 201.663L408.205 202.702L405.986 202.987L405.313 203.927L403.957 204.716L405.046 206.637L404.225 207.731L402.847 208.562L401.886 207.202L400.425 207.54L395.737 208.021L394.651 207.585L392.322 207.716L392.189 206.883L394.308 204.433L392.327 202.925L391.402 202.639L389.045 206.337L388.868 207.472L386.643 209.124L387.4 211.25L386.706 212.236L386.892 215.434L389.843 219.948L391.744 221.768L392.305 222.92L392.15 224.143L391.494 224.569L388.561 224.399L387.539 223.853L386.989 224.766L387.712 225.65L390.063 226.435ZM387.559 15.5083L388.094 17.5579L388.243 21.4286L386.873 27.3689L385.981 29.404L385.097 33.3448L385.527 35.2552L386.826 36.954L389.99 38.2996L391.544 39.2319L393.102 40.7479L392.079 41.7309L389.497 42.6317L386.173 44.3699L384.87 46.2514L383.278 49.8674L382.096 52.9327L380.936 57.346L382.289 59.3703L385.002 64.3919L387.858 65.6031L389.668 65.8631L392.58 66.6877L394.125 67.6488L396.373 69.6851L400.439 71.2719L403.16 71.7156L407.519 71.6948L410.145 72.0081L411.252 72.4244L413.143 74.0324L414.486 76.3728L416.84 84.9742L415.663 85.755L412.636 85.5851L410.511 86.6292L405.975 90.8958L403.747 93.6726L401.416 97.0889L400.042 100.161L399.183 101.638L397.049 104.091L395.009 104.663L391.594 104.667L388.134 106.226L383.387 107.114L382.156 107.824L380.535 107.483L376.508 108.192L375.306 108.225L374.45 106.487L373.298 105.801L372.28 105.908L369.863 107.893L368.043 108.444L367.014 109.13L363.33 109.892L362.657 109.61L359.828 109.845L359.112 109.612L357.502 110.032L357.029 106.242L356.126 104.715L354.954 103.843L353.699 103.745L351.095 104.788L349.344 106.04L347.723 105.685L345.873 106.426L343.538 106.285L341.653 105.662L339.59 104.537L339.164 103.485L337.622 102.48L335.655 104.073L334.494 106.779L332.955 106.109L331.802 105.194L329.216 103.079L312.942 87.0927L310.69 84.46L312.553 81.7112L315.678 76.1605L316.812 73.2799L318.029 69.5341L318.063 67.7994L315.967 65.8084L313.387 64.4357L310.519 63.6559L307.916 62.5068L305.196 59.5706L304.554 58.0899L303.604 57.789L301.122 55.8777L299.177 54.9561L298.193 54.032L297.257 53.8512L295.777 52.7126L293.958 52.1131L293.518 51.0939L293.733 49.9551L293.294 49.0102L291.16 48.0826L290.05 46.3274L288.096 45.6381L287.004 44.4265L284.973 43.3092L282.527 42.7922L280.751 43.4291L278.892 42.7392L276.92 42.3657L275.785 41.398L274.792 41.4675L271.503 40.6896L268.867 38.7907L265.484 39.3883L263.496 38.1597L261.554 37.5518L258.847 37.5289L258.117 36.9028L256.066 36.514L257.513 35.3536L258.407 35.2136L259.435 33.9155L260.628 33.7029L261.981 32.149L263.71 31.7523L263.91 30.8626L266.034 29.0558L268.621 27.4952L269.753 26.4251L270.228 25.2858L272.6 25.0847L273.676 23.5574L274.152 21.9919L273.794 20.4566L275.973 21.3598L276.896 22.2585L278.119 22.212L280.876 20.3352L283.884 20.3244L285.21 19.6472L285.577 18.7412L286.986 17.0329L288.431 16.0511L287.747 14.1991L288.697 13.1946L290.409 13.1254L290.187 11.8259L292.795 11.7804L295.144 12.4764L298.894 12.5523L299.758 11.3658L299.249 10.1756L299.598 8.13662L299.372 6.85728L300.571 6.70859L301.812 5.82113L303.788 5.44606L304.894 4.42868L306.877 3.72731L310.99 3.47656L311.601 3.85299L313.794 4.0253L315.112 4.51953L316.777 5.67107L318.188 5.95559L318.829 6.5549L318.708 7.66389L320.155 8.27426L321.067 7.22508L323.27 6.80247L324.566 7.34031L324.232 8.77212L325.614 9.04558L326.225 9.94895L325.297 10.9866L327.772 13.5262L330.205 15.5654L332.025 15.4709L334.424 16.3974L335.227 16.0195L337.127 16.1361L338.185 17.7758L339.374 18.9305L341.099 19.5499L342.23 19.2659L341.197 17.2652L342.862 15.9563L343.528 14.5898L345.103 15.0651L347.124 14.2221L349.449 14.5378L350.23 15.5311L349.836 18.6605L351.642 19.7547L354.41 20.3179L356.206 21.0373L357.54 20.9662L358.887 19.4411L360.789 19.9335L363.04 19.4552L364.986 17.343L367.255 16.6186L370.615 17.3598L374.83 17.2915L376.189 16.6368L379.686 15.6517L382.251 16.4133L384.92 16.5472L387.559 15.5083Z" fill="#1E1E1E"/>
<path d="M329.216 103.079L311.708 86.0738L310.307 85.0481L309.194 85.768L307.239 88.5409L304.831 90.7239L303.815 90.8129L301.372 92.1123L299.707 92.3264L297.66 91.2601L297.194 90.241L296.318 89.7936L294.711 90.4137L293.674 89.8622L288.364 94.4046L286.487 95.5634L282.843 96.3773L280.355 97.3435L278.897 97.3642L277.884 96.5294L275.321 95.3131L274.225 95.2036L272.295 96.026L269.838 96.5372L266.164 95.8734L265.717 95.3753L261.683 94.3242L259.646 93.3884L256.213 91.4601L254.503 89.7333L253.017 87.7949L250.871 86.34L249.136 84.0872L245.266 83.3532L242.502 81.9525L239.758 80.9153L237.852 79.2576L234.875 78.1035L232 76.4418L231.492 75.7273L229.241 73.8314L228.005 71.773L225.174 67.8703L224.198 64.8527L222.191 62.0781L221.488 60.1015L221.388 57.6817L220.359 56.2704L219.439 54.314L217.865 53.0275L215.06 52.2674L210.924 48.8356L207.679 44.8025L206.821 44.5254L204.305 42.8346L201.535 40.2119L199.986 38.0987L196.902 32.6903L195.938 31.522L193.279 30.8529L190.18 29.7207L188.618 28.6413L187.434 28.3348L183.555 25.3656L178.531 22.5252L176.676 21.9311L172.925 18.7492L171.255 18.2586L168.681 16.6138L166.664 15.8223L164.619 15.5036L164.13 14.9671L162.391 15.3593L161.432 16.7587L162.039 19.6687L163.037 21.2478L165.789 23.2359L167.196 24.5458L167.937 26.1403L168.093 27.4859L168.112 31.9902L167.517 35.8567L166.789 37.7476L164.84 39.3363L163.716 38.8979L162.883 37.4708L162.293 35.5593L162.392 33.8149L161.539 31.8501L160.563 31.2295L158.801 31.3359L157.499 31.9451L155.704 33.7863L154.838 35.0643L152.425 35.613L151.598 36.5498L151.092 38.6611L150.086 39.5463L149.253 41.4305L147.978 41.6331L144.544 41.5167L142.44 42.2215L137.759 42.594L134.469 44.3879L132.315 45.9955L130.541 48.0034L129.923 49.3553L127.469 51.0021L125.765 51.5641L123.899 52.7124L121.591 54.7407L120.019 55.4554L119.29 56.8891L117.044 59.552L116.253 61.0127L114.564 62.0786L111.812 65.3936L111.031 67.8358L111.849 71.2854L112.227 74.745L112.602 76.2644L112.298 80.3072L108.802 81.4367L107.486 81.4035L106.137 82.1379L103.134 83.3055L98.6329 86.6556L95.5077 89.2739L91.1658 90.9423L88.039 91.5434L87.2881 92.0538L85.825 94.1644L85.317 94.2788L82.4923 96.2346L80.6663 98.2427L76.9262 101.725L74.6351 103.67L68.7832 104.874L66.3332 104.564L60.4678 107.655L58.4382 108.565L56.7336 109.7L54.4501 110.492L51.0101 113.688L47.7651 115.757L44.9895 116.412L37.8391 118.999L35.2733 119.245L30.969 119.124L29.1737 119.431L19.6309 123.493L18.6022 124.301L17.7958 125.675L17.3253 127.889L17.1236 131.608L17.6635 133.181L20.6975 139.528L21.0216 141.579L20.858 144.21L21.4781 146.608L21.4116 148.926L20.9541 152.689L19.9034 155.286L18.9428 156.602L16.8412 158.397L14.5084 158.871L13.1557 159.459L11.7928 161.136L10.9733 162.808L10.2469 167.578L9.38369 168.618L7.60877 169.937L5.8919 171.593L5.23451 173.163L5.65033 176.139L5.56605 177.451L3.51172 182.088L5.42756 182.818L9.96155 182.649L13.0751 182.103L15.6264 182.417L16.5328 182.082L18.4054 179.802L19.7216 178.917L22.4153 178.257L27.173 177.937L28.8841 176.94L30.1671 176.644L32.1176 177.223L33.6917 178.863L36.4728 179.502L39.4974 181.246L42.5548 181.372L45.6983 180.667L46.8969 178.863L48.465 177.803L50.0928 178.47L51.1027 178.338L53.7179 173.011L55.4169 171.091L56.5255 170.548L59.1416 170.539L61.0246 169.619L62.9041 166.385L63.79 164.386L65.9787 161.304L66.8418 160.419L67.2281 157.968L67.9918 156.516L68.9765 155.701L70.8827 154.743L74.8895 153.357L76.0363 152.413L79.8102 148.003L80.9043 146.323L81.2298 144.957L83.1102 142.881L83.9054 142.677L85.9035 141.262L87.9676 144.823L89.7796 147.145L90.5978 150.266L91.9697 152.467L93.7405 154.201L95.4642 155.21L96.5322 156.405L94.5355 157.022L96.9891 160.011L97.5117 160.296L99.8801 158.723L103.526 157.287L108.866 153.897L112.61 151.081L114.55 150.681L115.279 152.352L116.463 157.027L117.349 159.411L117.13 160.268L111.644 163.251L109.363 165.337L106.672 168.349L105.044 173.005L102.622 176.447L101.216 179.384L101.299 183.05L101.57 185.265L102.548 189.346L102.932 192.468L103.801 193.932L107.718 192.432L111.385 191.416L112.867 188.397L114.821 186.906L117.554 185.976L120.254 185.691L121.651 185.988L125.947 187.6L127.399 187.945L130.323 187.884L131.894 188.153L132.484 188.716L133.223 191.014L134.807 192.312L137.11 192.409L138.985 190.985L140.941 188.371L142.143 189.193L142.891 190.901L143.162 194.322L143.798 194.979L147.373 194.251L152.724 194.519L155.482 194.164L157.987 195.115L160.192 196.841L161.659 198.595L162.412 199.969L162.076 201.455L164.663 202.122L167.041 203.798L170.545 203.774L174.212 202.804L177.27 199.812L178.047 197.368L178.698 197.165L182.27 197.713L183.871 198.353L185.513 197.881L186.228 196.383L187.885 195.05L190.63 194.44L192.915 193.218L193.97 193.331L195.12 196.251L195.411 198.151L195.86 198.739L197.961 198.745L199.934 197.861L200.867 196.924L203.073 195.442L204.82 195.756L204.613 197.292L205.012 204.459L205.248 205.559L206.5 207.811L206.714 209.807L208.211 212.127L212.451 215.878L218.585 219.112L222.786 220.282L224.223 221.902L225.747 222.897L226.56 222.893L228.586 221.876L231.672 222.155L235.726 220.592L238.321 220.941L239.509 222.739L240.273 223.056L242.013 222.334L244.921 222.185L247.969 222.665L252.9 222.238L254.586 221.837L258.133 220.553L263.988 220.295L267.078 219.683L270.076 217.657L274.691 213.716L274.671 212.558L278.982 210.875L280.885 211.048L283.452 212.806L284.99 213.292L286.729 212.718L287.738 211.592L289.892 210.346L291.319 211.568L296.311 214.783L302.098 216.157L305.912 218.225L308.925 217.45L309.491 218.921L305.632 223.046L304.075 224.368L304.603 226.308L306.161 229.006L306.885 232.187L306.533 233.436L306.565 235.8L308.388 238.584L314.147 238.1L315.732 237.459L316.686 235.58L318.299 234.74L319.957 234.352L323.44 234.19L324.049 235.122L324.478 237.875L328.569 238.368L329.344 239.386L329.268 240.282L330.033 241.299L331.209 241.221L338.183 236.942L340.79 236.197L342.231 236.825L344.269 239.21L348.473 242.215L350.849 242.957L352.491 241.903L355.087 238.012L356.902 235.655L357.937 231.019L359.141 229.712L360.57 228.842L361.229 226.987L363.625 224.765L364.859 224.582L369.586 227.816L372.748 230.533L373.779 230.838L377.374 231.318L380.709 230.188L384.601 228.042L387.642 227.303L390.063 226.435L387.712 225.65L386.989 224.766L387.539 223.853L388.561 224.399L391.494 224.569L392.15 224.143L392.305 222.92L391.744 221.768L389.843 219.948L386.892 215.434L386.706 212.236L387.399 211.25L386.643 209.124L388.868 207.472L389.045 206.337L391.402 202.639L392.327 202.925L394.308 204.433L392.189 206.883L392.322 207.716L394.651 207.585L395.737 208.021L400.425 207.54L401.886 207.202L402.847 208.562L404.225 207.731L405.046 206.637L403.957 204.716L405.313 203.927L405.986 202.987L408.205 202.702L408.55 201.663L410.116 200.672L411.095 199.437L413.163 197.555L414.686 196.759L415.499 195.753L416.471 196.144L416.81 194.267L416.085 192.395L415.349 192.16L414.677 190.775L414.924 188.27L415.553 187.491L414.803 186.8L415.584 184.257L415.521 183.068L416.417 181.93L416.716 179.174L415.917 177.88L414.572 177.96L414.457 176.766L413.12 176.362L411.515 177.922L410.156 177.213L410.851 175.836L410.549 173.509L409.773 173.114L408.153 173.202L407.153 172.374L407.277 170.712L406.342 169.397L404.597 168.643L403.69 168.644L402.593 167.484L401.292 167.422L399.675 164.796L400.242 163.282L398.741 161.768L398.778 160.274L397.769 159.692L396.005 160.492L395.546 161.103L394.025 160.746L394.001 159.492L395.291 158.047L394.184 156.55L392.435 158.624L391.321 158.368L392.105 155.25L390.222 153.974L389.211 154.44L387.282 154.155L387.553 155.519L385.86 155.624L384.381 154.406L385.63 151.962L384.457 150.757L381.972 150.547L381.132 151.236L378.859 151.906L377.723 151.665L377.2 150.71L375.255 151.055L373.383 152.726L372.177 152.524L371.578 153.202L369.826 153.534L367.602 154.645L366.549 154.105L364.109 154.433L362.341 153.655L361.097 153.871L362.209 155.153L361.856 155.955L360.779 156.404L359.16 155.433L358.015 153.23L356.57 153.689L355.634 152.844L353.879 152.179L352.352 151.099L351.213 151.583L350.34 152.77L348.395 153.029L348.58 151.389L347.565 150.772L342.772 151.24L340.705 151.745L337.818 153.759L337.02 153.651L333.552 151.72L331.654 149.921L330.953 147.071L329.673 144.205L329.172 144.051L328.202 140.881L328.472 139.825L330.932 138.239L329.999 137.139L328.381 137.282L327.701 135.968L326.371 134.3L325.676 132.04L325.733 129.592L326.752 128.197L327.491 128.554L328.585 126.581L331.869 125.234L333.02 124.562L333.49 122.679L334.848 122.298L335.523 120.11L336.469 119.825L338.029 118.108L335.853 115.971L336.149 112.805L333.685 109.423L334.16 107.581L331.802 105.194M329.216 103.079L331.802 105.194M329.216 103.079L312.942 87.0927L310.69 84.46L312.553 81.7112L315.678 76.1605L316.812 73.2799L318.029 69.5341L318.063 67.7994L315.967 65.8084L313.387 64.4357L310.519 63.6559L307.916 62.5068L305.196 59.5706L304.554 58.0899L303.604 57.789L301.122 55.8777L299.177 54.9561L298.193 54.032L297.257 53.8512L295.777 52.7126L293.958 52.1131L293.518 51.0939L293.733 49.9551L293.294 49.0102L291.16 48.0826L290.05 46.3274L288.097 45.6381L287.004 44.4265L284.973 43.3092L282.527 42.7922L280.751 43.4291L278.892 42.7392L276.92 42.3657L275.785 41.398L274.792 41.4675L271.503 40.6896L268.867 38.7907L265.484 39.3883L263.496 38.1597L261.554 37.5518L258.847 37.5289L258.117 36.9028L256.066 36.514L257.513 35.3536L258.407 35.2136L259.435 33.9155L260.628 33.7029L261.981 32.149L263.71 31.7523L263.91 30.8626L266.034 29.0558L268.621 27.4952L269.753 26.4251L270.228 25.2858L272.6 25.0847L273.676 23.5574L274.152 21.9919L273.794 20.4566L275.973 21.3598L276.896 22.2585L278.119 22.212L280.876 20.3352L283.884 20.3244L285.21 19.6472L285.577 18.7412L286.986 17.0329L288.431 16.0511L287.747 14.1991L288.697 13.1946L290.409 13.1254L290.187 11.8259L292.795 11.7804L295.144 12.4764L298.894 12.5523L299.758 11.3658L299.249 10.1756L299.598 8.13662L299.372 6.85728L300.571 6.70859L301.812 5.82113L303.788 5.44606L304.894 4.42868L306.877 3.72731L310.99 3.47656L311.601 3.85299L313.794 4.0253L315.112 4.51953L316.778 5.67107L318.188 5.95559L318.829 6.5549L318.708 7.66389L320.155 8.27426L321.067 7.22508L323.27 6.80247L324.566 7.34031L324.232 8.77212L325.614 9.04558L326.225 9.94895L325.297 10.9866L327.772 13.5262L330.205 15.5654L332.025 15.4709L334.424 16.3974L335.227 16.0195L337.127 16.1361L338.185 17.7758L339.374 18.9305L341.099 19.5499L342.23 19.2659L341.197 17.2652L342.862 15.9563L343.528 14.5898L345.103 15.0651L347.124 14.2221L349.449 14.5378L350.23 15.5311L349.836 18.6605L351.642 19.7547L354.41 20.3179L356.206 21.0373L357.54 20.9662L358.887 19.4411L360.788 19.9335L363.04 19.4552L364.986 17.343L367.255 16.6186L370.615 17.3598L374.83 17.2915L376.189 16.6368L379.686 15.6517L382.251 16.4133L384.92 16.5472L387.559 15.5083L388.094 17.5579L388.243 21.4286L386.873 27.3689L385.981 29.404L385.097 33.3448L385.527 35.2552L386.826 36.954L389.99 38.2996L391.544 39.2319L393.102 40.7479L392.079 41.7309L389.497 42.6317L386.173 44.3699L384.87 46.2514L383.278 49.8674L382.096 52.9327L380.936 57.346L382.289 59.3703L385.002 64.3919L387.858 65.6031L389.668 65.8631L392.58 66.6877L394.125 67.6488L396.373 69.6851L400.439 71.2719L403.16 71.7156L407.519 71.6948L410.145 72.0081L411.252 72.4244L413.143 74.0324L414.486 76.3728L416.84 84.9742L415.663 85.755L412.636 85.5851L410.511 86.6293L405.975 90.8958L403.747 93.6726L401.416 97.0889L400.042 100.161L399.183 101.638L397.049 104.091L395.009 104.663L391.594 104.667L388.134 106.226L383.387 107.114L382.156 107.824L380.535 107.483L376.508 108.192L375.306 108.225L374.45 106.487L373.298 105.801L372.28 105.908L369.863 107.893L368.043 108.444L367.014 109.13L363.33 109.892L362.657 109.61L359.828 109.845L359.112 109.612L357.502 110.032L357.029 106.242L356.126 104.715L354.954 103.843L353.699 103.745L351.095 104.788L349.344 106.04L347.723 105.685L345.873 106.426L343.538 106.285L341.653 105.662L339.59 104.537L339.164 103.485L337.622 102.48L335.655 104.073L334.494 106.779L332.955 106.109L331.802 105.194M414.455 204.42L415.322 204.83L415.027 206.233L414.222 207.017L413.616 205.77L414.455 204.42ZM399.943 143.707L396.321 144.552L398.32 142.963L399.625 142.641L399.943 143.707ZM371.095 137.101L372.5 138.248L371.967 138.867L370.861 138.342L371.095 137.101Z" stroke="white" stroke-width="5"/>
</svg>
