<svg width="471" height="315" viewBox="0 0 471 315" fill="none" xmlns="http://www.w3.org/2000/svg">
<path d="M242.113 217.661L240.532 217.898L239.918 215.658L241.646 215.568L242.396 216.506L242.113 217.661ZM448.019 75.1324L448.628 76.6366L447.88 79.2216L446.831 80.5797L443.429 84.0113L440.282 88.4551L440.237 90.6401L439.419 93.854L438.078 96.4026L435.212 100.343L433.412 103.443L429.862 107.572L428.698 109.319L427.874 111.56L427.857 113.354L428.242 115.345L430.367 120.534L430.451 124.786L430.321 128.043L431.891 133.17L432.561 133.991L432.354 135.617L433.272 138.743L434.462 140.775L436.015 142.127L436.891 141.617L439.055 143.966L440.652 147.696L441.102 151.853L440.967 153.789L439.862 159.148L440.233 160.647L441.151 162.109L444.904 166.446L446.482 169.066L447.627 172.079L448.16 176.074L449.275 178.621L451.148 181.006L454.821 186.666L455.653 188.515L459.375 193.351L459.694 195.608L459.566 198.731L460.168 200.716L459.537 202.618L460.897 204.384L461.232 205.497L460.566 208.145L462.16 210.508L461.963 212.243L461.333 213.956L462.228 216.55L463.378 218.191L465.011 221.253L467.48 222.989L466.51 224.493L463.856 229.375L462.599 229.975L458.485 230.373L456.255 228.414L451.543 226.301L449.466 225.559L447.072 223.604L444.247 221.766L441.134 221.805L437.621 222.673L434.794 224.52L429.899 225.886L426.845 225.978L423.581 226.446L419.698 227.31L415.835 227.474L410.516 226.473L410.09 225.943L407.539 225.594L405.701 224.33L406.074 223.274L409.045 224.107L410.588 223.453L411.648 224.208L412.9 224.444L413.832 223.662L412.614 221.878L411.363 219.417L410.091 217.985L407.34 216.92L405.679 216.02L401.497 214.354L398.432 213.656L396.03 213.552L391.707 214.695L386.989 216.946L384.34 218.574L382.251 220.599L378.661 222.507L376.68 222.656L377.427 221.379L376.865 219.565L374.13 216.081L371.865 211.483L371.01 208.731L368.207 204.091L365.82 201.417L364.915 200.813L362.487 198.5L361.467 197.066L357.74 193.946L355.618 191.666L354.489 189.791L352.741 187.694L352.749 186.73L350.286 183.816L349.405 181.47L347.363 179.052L346.777 176.908L346.741 174.165L345.558 172.352L343.786 170.745L342.823 168.808L342.625 166.429L341.113 163.84L338.318 161.797L334.895 160.838L325.974 159.894L323.256 159.907L319.689 159.4L318.19 160.081L317.234 162.229L315.887 161.844L306.728 162.322L305.479 163.766L303.968 163.039L301.176 164.048L299.605 165.018L300.251 167.259L299.78 168.246L298.411 168.493L297.454 169.458L295.758 168.837L295.485 169.974L294.012 170.198L293.322 168.252L291.995 168.04L291.143 169.108L289.791 168.798L289.763 167.631L288.53 167.619L287.726 167.028L284.206 167.52L280.089 168.501L278.993 169.371L278.471 170.424L279.424 171.996L278.257 173.916L277.523 174.001L275.154 173.266L275.224 174.985L273.851 177.17L272.485 177.718L271.651 174.731L270.797 174.361L266.69 174.451L263.734 175.133L262.335 176.983L261.846 178.903L262.069 179.788L261.632 181.116L261.909 182.213L260.919 182.703L259.961 182.35L258.713 183.034L257.689 184.154L258.443 186.549L256.992 187.169L255.598 187.257L255.853 188.929L256.352 189.66L255.088 191.02L253.483 191.791L251.086 191.043L249.948 191.696L250.464 193.517L249.347 193.384L248.434 194.007L248.42 195.949L247.34 196.634L247.157 197.434L244.649 195.968L244.636 195.247L241.678 195.029L237.477 197.439L235.602 199.422L234.47 201.186L234.694 202.096L233.283 203.707L232.791 206.812L231.767 208.307L228.716 206.888L227.567 207.525L225.715 210.488L224.988 213.223L224.993 216.229L226.099 217.955L227.217 217.604L228.484 218.813L229.258 218.213L230.754 219.711L232.578 220.448L233.24 221.285L235.603 222.298L235.398 223.571L234.613 224.225L234.55 225.292L232.845 225.349L233.229 227.121L233.125 229.209L232.453 230.142L233.067 232.321L230.824 232.79L229.646 231.278L227.976 230.268L228.178 229.236L227.531 228.127L225.389 227.839L223.905 228.477L222.407 229.868L220.76 233.495L220.269 236.486L220.249 239.847L220.978 242.487L221.948 243.474L224.674 244.934L225.582 244.013L227.141 243.478L229.631 243.968L230.629 242.839L231.544 242.47L232.749 240.687L233.96 241.023L234.575 242.33L236.831 242.593L237.261 243.848L235.759 244.42L234.76 243.904L233.569 245.433L231.875 246.362L230.87 246.327L229.246 245.225L228.676 245.398L228.398 247.917L224.78 247.701L225.188 249.072L223.03 249.288L221.71 248.511L219.177 249.741L218.477 249.698L214.076 252.235L211.725 252.754L209.999 254.296L209.208 253.858L207.434 254.742L206.589 255.546L205.392 257.462L203.808 257.818L203.053 258.428L201.576 258.512L197.658 261.183L194.986 262.308L194.288 263.365L193.35 263.179L190.684 265.143L188.889 265.838L185.215 268.417L182.762 270.534L181.075 272.251L177.381 273.887L174.351 276.091L171.73 276.131L170.475 276.537L163.536 281.25L160.623 283.112L157.472 285.754L154.263 288.778L153.251 289.107L148.82 292.738L147.621 293.983L142.048 298.25L141.367 297.926L139.314 299.567L137.562 300.512L136.003 300.978L129.733 302.056L128.465 302.713L127.122 302.851L124.816 304.516L122.673 305.111L120.775 306.402L114.39 309.628L112.251 310.032L111.389 309.622L108.898 310.684L107.708 311.538L105.658 311.582L103.631 312.107L102.905 310.922L100.762 310.904L97.9817 312.023L96.4679 311.299L94.2505 311.941L92.8194 311.394L90.6343 309.685L87.1576 309.097L84.9306 308.375L82.0471 306.452L78.4945 305.831L76.1385 304.457L72.8807 304.812L71.6066 304.346L70.9604 303.527L69.5953 303.147L66.4504 302.741L62.1137 301.432L58.4903 299.876L55.4164 299.285L54.4429 298.496L51.8336 297.173L50.4863 296.203L47.6404 295.335L45.1216 294.175L42.1153 292.258L33.2778 289.936L31.8688 289.114L29.1188 288.124L25.6632 285.681L22.9847 282.952L21.0115 281.867L17.7038 279.703L14.3323 277.94L11.0938 275.352L8.97088 273.931L10.17 271.652L10.2603 270.473L9.75328 269.227L7.33758 265.703L6.85096 264.691L3.87109 262.533L4.27135 261.465L7.83372 260.035L11.0411 257.07L12.8091 256.244L14.3776 255.878L16.3447 254.677L16.5718 253.676L17.6087 252.264L20.2096 250.327L22.441 249.887L26.0505 250.498L29.5181 250.835L34.8132 250.264L36.4502 249.361L38.2318 249.034L40.0009 249.447L41.3266 249.246L43.636 247.871L44.8549 246.786L48.296 245.674L54.0714 244.897L56.6687 244.206L58.6776 243.03L62.8 239.43L64.177 236.955L62.8587 234.556L62.9031 233.534L64.9025 230.442L66.585 226.231L67.0946 224.162L68.734 220.275L70.6575 219.148L71.0633 218.123L72.7391 217.371L74.5268 214.459L76.6729 212.889L79.0626 211.613L80.5478 210.415L82.0395 208.765L84.4821 207.021L84.1315 203.559L84.6316 201.975L88.3205 201.289L90.4218 199.789L92.3653 199.063L93.531 198.989L97.0275 199.663L99.0343 199.55L100.885 198.925L103.408 198.907L103.543 198.063L102.694 195.227L99.3626 187.725L98.8546 185.656L99.5514 185.064L106.965 181.895L108.589 181.879L109.424 182.4L113.271 186.048L115.537 187.195L118.113 187.235L118.903 186.669L119.616 183.449L119.498 181.798L118.579 179.208L116.739 176.503L115.756 174.154L116.119 172.309L116.893 171.051L119.09 169.091L121.885 167.286L123.827 165.143L126.382 161.594L126.74 159.801L123.133 154.793L121.775 151.199L121.803 148.467L123.474 143.054L124.104 141.507L126.359 137.622L127.639 133.639L129.568 128.599L134.667 131.512L137.604 132.08L143.533 131.615L145.919 131.682L152.73 132.921L155.139 135.034L160.179 137.882L165.566 141.109L166.441 139.775L168.532 135.429L176.146 137.803L181.601 139.227L183.805 140.206L182.94 143.493L189.469 144.712L187.89 151.35L188.342 151.774L192.791 153.191L194.316 153.41L195.18 151.347L196.522 144.855L197.509 142.106L197.933 140.105L199.344 135.758L200.33 133.713L200.453 132.086L203.333 129.154L202.956 128.732L200.122 129.507L198.415 129.336L197.173 128.689L196.476 127.754L197.108 125.579L196.726 124.963L194.086 126.057L192.536 125.578L190.055 125.917L188.781 125.11L188.019 123.265L188.685 120.567L189.634 119.182L192.213 117.416L194.601 116.756L199.073 114.343L200.993 113.451L202.417 112.254L202.973 109.818L202.148 106.303L202.891 105.047L205.787 105.576L208.372 104.283L210.213 102.521L212.404 99.5934L213.632 97.0344L214.487 96.2993L217.462 92.6021L218.863 92.5582L221.091 94.5311L222.313 95.0474L223.695 94.9121L225.051 93.295L226.433 94.6272L226.909 96.2995L227.954 96.7238L229.188 96.282L230.366 96.4036L235.299 98.6876L237.169 97.5563L237.723 96.4029L241.079 93.4868L242.67 90.4381L245.424 87.3627L247.204 85.1331L250.616 81.563L252.271 78.7123L254.338 76.015L256.232 76.4322L258.711 75.9137L261.73 74.654L263.906 72.8874L266.65 71.029L268.994 69.9756L271.185 67.8232L271.873 66.6079L272.962 65.6433L276.612 63.9128L279.692 63.7102L280.819 63.0892L283.199 60.7696L286.33 56.9149L290.808 54.4089L293.94 52.0909L296.614 50.3542L297.719 48.2061L297.059 45.7684L297.062 44.3582L297.998 44.2659L299.535 44.8175L304.686 44.9595L307.338 46.1554L309.103 45.6874L309.628 43.6308L311.297 41.4089L312.711 38.6851L312.863 37.4102L310.362 36.7698L309.448 35.1858L309.35 33.6521L308.548 32.9812L306.644 32.4415L306.198 30.72L307.334 28.6352L307.459 27.4288L306.3 26.1467L306.429 25.1348L308.054 24.0653L310.358 21.2949L310.985 19.0758L309.485 17.3713L310.726 16.3141L309.461 14.1703L310.537 11.7078L311.232 7.83007L311.303 4.72406L312.936 5.68284L314.608 7.19116L316.652 7.43158L319.317 6.67456L320.089 6.91645L323.371 9.94471L329.546 6.43729L331.849 5.67599L334.236 4.61216L337.258 3.91564L339.305 4.82937L340.597 5.99878L343.141 5.86314L345.219 5.35578L346.451 5.77267L346.69 9.6329L347.476 11.2712L348.753 12.1862L350.531 12.7297L352.868 12.479L356.297 11.5461L358.605 11.3213L360.908 9.61473L365.937 8.54193L370.025 9.2852L371.77 9.14291L373.484 8.56282L376.712 6.16L379.231 4.81355L384.137 3.51888L387.539 3.17475L392.016 3.47395L396.591 2.96484L399.071 3.37553L402.438 4.1908L407.424 4.17229L409.142 4.67201L410.357 6.08603L410.647 6.9922L410.554 9.15964L410.978 11.8318L410.695 15.0189L411.156 17.574L410.95 20.7989L409.746 24.9828L409.027 25.4977L406.606 25.6446L402.765 26.4358L400.315 27.1636L398.686 28.424L397.507 29.9111L396.928 31.58L397.369 33.0307L398.738 35.1349L400.663 35.7561L404.114 36.3804L406.235 37.1206L407.929 39.9571L409.153 43.6509L409.289 46.458L408.239 47.3737L406.419 48.0717L405.198 49.7213L406.269 52.7931L408.147 55.1934L408.919 56.8328L409.159 58.8255L410.061 59.5735L410.881 58.9192L412.076 57.0264L413.654 57.7684L414.273 58.6057L414.942 61.7032L417.531 61.415L418.742 63.9076L421.189 65.515L423.942 66.6473L426.908 66.4887L428.91 65.8617L430.428 66.9784L429.775 67.5508L427.881 68.0986L425.908 69.2979L426.492 70.3382L427.549 70.6359L429.775 69.8992L430.932 68.4701L432.294 68.4185L432.75 69.4865L433.199 72.0789L434.372 71.9687L434.875 70.6629L434.867 68.978L436.297 68.6468L436.987 70.1115L437.07 73.5762L438.908 72.0044L439.944 71.8931L440.304 74.0243L441.722 74.5257L443.727 74.1768L445.992 74.2308L448.019 75.1324Z" fill="#1E1E1E" stroke="white" stroke-width="5"/>
</svg>
