<svg width="198" height="124" viewBox="0 0 198 124" fill="none" xmlns="http://www.w3.org/2000/svg">
<path d="M147.575 113.464L149.214 114.876L147.799 114.971L145.942 114.142L145.051 113.272L146.412 112.751L147.575 113.464ZM129.114 110.786L130.911 111.531L130.508 112.087L128.644 111.894L129.114 110.786ZM151.685 109.479L153.806 110.218L155.766 109.885L158.527 110.176L158.328 111.311L153.598 110.929L151.685 109.479ZM192.22 71.7124L191.094 73.0181L189.511 73.2731L189.038 73.834L187.734 73.1717L185.751 73.1601L183.696 73.7873L181.912 73.1023L180.66 73.1439L178.968 73.795L177.342 73.7502L176.339 74.2914L174.14 74.7626L172.623 74.2308L171.432 74.3211L170.289 75.7303L169.066 76.5678L167.86 80.0783L165.822 82.5722L164.489 83.1415L163.025 83.1448L160.708 85.6036L157.677 88.0927L156.528 88.6696L155.025 89.9499L154.666 93.2122L154.817 95.1201L154.025 96.3016L151.491 97.4657L149.771 98.5988L147.938 98.7511L145.552 97.9542L142.512 98.9334L140.207 101.25L140.446 103.071L143.224 104.071L146.468 104.078L148.135 104.279L150.728 105.23L151.842 105.022L153.045 105.606L154.532 105.734L156.298 106.833L156.775 107.789L156.359 108.504L154.711 108.506L152.15 107.441L149.512 107.358L147.896 108.067L146.446 109.391L145.502 107.525L145.476 106.352L144.035 106.041L142.829 106.278L140.062 104.969L139.665 105.97L137.956 106.683L135.272 106.719L132.884 107.041L131.615 106.893L130.609 106.007L129.493 106.155L127.839 105.789L125.887 103.545L122.852 103.1L120.384 103.807L118.713 103.742L116.846 103.023L113.664 103.261L112.751 103.591L109.885 103.647L108.014 104.208L107.178 106.043L107.183 107.205L105.994 106.756L105.19 107.841L102.664 107.168L99.8916 107.867L97.8997 107.325L94.5489 107.076L93.2803 106.562L92.7227 105.802L90.5025 104.838L88.7693 104.603L87.6029 103.436L85.7461 103.133L83.258 103.191L79.9114 103.842L74.5408 104.163L73.0719 104.075L71.547 104.583L69.3051 104.682L67.6785 105.403L65.1197 106.933L63.1594 106.975L59.3311 108.751L55.8725 111.048L50.5168 115.708L49.8582 116.873L47.9607 118.066L44.916 117.982L42.2589 119.096L41.4644 119.947L40.4888 119.41L38.8373 119.974L36.4833 111.373L35.1404 109.032L33.2501 107.424L32.1425 107.008L29.5163 106.695L25.1578 106.715L22.4363 106.272L18.3703 104.685L16.1231 102.649L14.5778 101.688L11.6656 100.863L9.85554 100.603L6.99989 99.3917L4.28632 94.3701L2.93359 92.3458L4.09397 87.9325L5.27558 84.8672L6.86802 81.2512L8.17059 79.3697L11.495 77.6315L14.0767 76.7307L15.0995 75.7477L13.5412 74.2317L11.9876 73.2995L8.82402 71.9538L7.52424 70.255L7.09415 68.3446L7.97847 64.4038L8.87057 62.3687L10.2407 56.4284L10.0917 52.5577L9.55651 50.5081L10.4469 49.6293L17.2369 47.4429L20.7637 47.601L23.2796 46.4209L25.0516 44.7213L27.1261 43.7545L28.4935 42.6972L30.0925 42.399L34.4057 42.3276L35.6931 40.9878L37.3999 37.5836L38.19 35.2497L38.8598 34.3536L39.9287 33.9747L40.9858 32.3252L42.3486 32.9682L46.4225 32.1589L47.9327 31.3956L48.8766 30.397L49.2984 29.2171L51.3122 28.1804L53.8743 27.2021L55.7567 26.7505L56.525 26.18L57.1925 23.9048L57.6104 20.487L57.7357 16.8082L57.5392 15.6938L56.4583 14.8018L56.0619 15.5808L54.101 12.3096L54.0278 11.1111L53.0984 10.7788L52.4412 9.63979L51.0432 9.17706L50.4797 10.4927L49.3829 10.5339L49.1281 11.3461L47.7832 10.674L46.3316 10.4982L45.6576 9.75154L43.7457 9.09892L42.8268 9.5394L40.2149 8.35243L39.5278 9.60648L38.5797 8.96265L38.1873 7.52099L39.3385 3.87302L44.4283 4.95172L45.6049 4.98973L48.581 3.36349L49.8028 3.35547L55.6983 5.26107L57.1178 5.51772L58.9501 5.30438L60.8859 5.74561L62.1163 6.39035L63.776 6.58795L67.5194 6.13264L68.6096 6.36385L71.7734 8.0773L75.6898 7.73267L78.2537 6.90744L84.454 7.78416L86.2697 11.7475L87.2336 12.8761L87.884 15.023L88.909 16.566L90.1671 17.486L94.6384 18.1663L96.8446 19.5195L98.4075 18.592L99.6716 17.4489L102.257 16.8423L104.171 16.9106L106.518 17.8344L108.059 18.9389L109.216 19.2421L111.31 19.0833L112.838 19.4011L114.967 20.4929L118.322 23.8825L118.912 26.8603L120.145 27.5983L122.308 27.909L124.406 29.0186L125.772 30.4542L126.835 33.403L127.306 37.0944L128.76 41.1394L130.952 44.8102L132.423 46.414L134.118 47.464L137.914 47.9473L138.562 48.2491L141.263 50.6061L143.238 52.0925L146.516 53.5015L149.038 54.0601L151.278 54.8066L153.317 54.882L154.098 55.2834L155.509 57.3549L157.205 58.1052L160.076 58.5764L160.757 59.1617L162.031 61.6549L163.205 62.6378L166.842 62.4405L169.88 62.8311L172.531 63.6936L176.381 65.4077L181.163 66.7302L184.725 66.8154L185.327 67.0551L189.452 70.8895L190.858 71.6485L192.22 71.7124Z" fill="#1E1E1E" stroke="white" stroke-width="5"/>
</svg>
