<svg width="303" height="191" viewBox="0 0 303 191" fill="none" xmlns="http://www.w3.org/2000/svg">
<path d="M252.756 63.3031L253.637 64.2039L253.669 65.1253L252.802 67.6788L252.751 69.5564L253.551 70.7724L255.91 72.4313L257.597 75.8131L257.373 78.0979L256.484 79.1775L255.775 80.8831L255.6 82.7641L254.989 84.1775L251.853 88.2827L251.543 89.2256L251.696 93.2031L251.429 95.4995L250.199 98.9016L250.622 101.341L249.86 103.305L248.787 104.932L248.572 107.28L249.431 109.614L249.688 111.854L251.101 116.668L253.346 119.769L254.971 123.206L256.187 125.256L256.782 127.38L256.129 130.877L255.047 133.552L256.141 136.048L259.495 137.675L260.062 139.854L259.733 141.664L258.206 143.579L259.214 146.13L260.726 147.493L261.383 147.378L265.796 141.512L268.815 139.549L272.961 137.645L277.427 133.484L279.128 133.021L281.818 134.677L283.181 134.544L284.524 133.108L286.587 132.523L292.564 132.326L293.574 132.816L294.338 134.751L294.939 138.049L297.314 141.001L298.14 141.545L301.037 142.229L300.048 142.443L299.825 143.683L296.934 150.913L294.671 155.53L294.259 157.163L294.2 160.369L294.613 162.222L294.625 164.074L294.246 165.54L292.582 167.892L290.363 170.003L287.014 172.67L284.977 173.827L282.524 176.016L280.725 178.658L277.84 182.137L275.768 186.781L274.498 188.027L273.967 188.175L269.559 188.22L268.036 188.097L262.963 185.651L261.837 185.344L256.903 186.213L255.85 186.126L254.82 185.022L255.02 182.62L254.897 180.638L253.339 178.6L249.886 176.391L247.104 175.584L244.91 175.584L242.654 176.032L238.6 178.182L236.233 179.743L233.173 180.455L230.169 180.335L227.922 179.315L225.724 177.754L222.89 174.519L222.352 173.611L224.392 174.182L227.145 174.479L227.347 175.468L228.66 175.493L231.118 173.871L232.148 172.756L233.364 170.521L234.064 170.097L234.213 168.802L235.046 167.173L233.583 166.436L235.284 165.878L235.899 160.495L235.649 157.216L235.196 155.161L234.269 153.236L233.653 153.276L232.144 151.136L231.171 150.342L229.621 150.063L228.035 147.14L225.912 145.367L224.269 144.433L222.101 143.828L220.378 144.076L219.89 144.72L219.4 147.475L216.445 147.607L215.105 147.233L214.076 148.409L212.778 148.967L212.51 150.7L211.55 151.747L209.189 151.218L208.048 151.556L205.625 149.788L204.787 148.373L202.801 146.308L201.634 145.624L199.838 145.365L199.323 144.858L196.503 146.413L195.111 148.283L192.872 149.853L192.207 148.216L189.116 148.805L186.9 150.607L185.04 154.718L185.228 155.716L183.866 155.652L182.46 154.893L178.335 151.059L177.733 150.819L174.171 150.734L169.389 149.411L165.539 147.697L162.888 146.835L159.851 146.444L156.213 146.641L155.039 145.658L153.765 143.165L153.084 142.58L150.213 142.109L148.517 141.358L147.106 139.287L146.325 138.885L144.286 138.81L142.046 138.064L139.524 137.505L136.246 136.096L134.272 134.61L131.57 132.253L130.922 131.951L127.127 131.467L125.431 130.417L123.96 128.814L121.769 125.143L120.314 121.098L119.844 117.406L118.78 114.458L117.414 113.022L115.316 111.912L113.153 111.602L111.92 110.864L111.331 107.886L107.975 104.496L105.846 103.405L104.319 103.087L102.225 103.246L101.068 102.942L99.5258 101.838L97.1794 100.914L95.2648 100.846L92.6799 101.452L91.4157 102.595L89.8529 103.523L87.6466 102.17L83.1753 101.489L81.9173 100.569L80.8923 99.0265L80.2419 96.8795L79.2779 95.751L77.4622 91.7876L71.262 90.9109L68.698 91.7361L64.7816 92.0808L61.6179 90.3673L60.5276 90.1361L56.7843 90.5914L55.1245 90.3938L53.8941 89.7491L51.9583 89.3078L50.1261 89.5212L48.7066 89.2645L42.811 87.3589L41.5893 87.367L38.6131 88.9932L37.4365 88.9552L32.3467 87.8765L32.0249 86.8349L29.9744 83.883L30.0588 82.1364L30.5005 81.8605L32.476 82.9701L34.415 83.5763L39.2406 81.4494L42.5139 81.3402L46.7499 80.4041L48.9368 81.1664L51.1844 81.433L53.4213 80.5979L53.9309 78.7247L54.0597 76.5773L52.3458 73.3695L49.5045 72.9363L47.5372 71.4626L45.9979 71.6877L43.5791 70.2611L41.3039 69.3397L39.0105 68.6904L37.878 68.7121L36.1773 68.052L33.2907 67.3254L31.5219 67.7737L27.1622 67.2584L24.7444 66.4851L23.4078 66.3573L22.3399 67.5922L21.3127 67.3042L20.1883 68.8686L18.951 69.4269L17.1274 69.2352L15.59 68.4141L14.2201 69.0711L12.3573 69.0431L11.5819 68.6898L9.99887 68.9969L9.11129 69.6293L5.48438 69.2037L6.97257 67.6839L8.30207 66.8526L12.7403 65.1902L15.5629 64.7626L17.4787 64.1636L18.3125 62.6647L19.2204 62.1152L21.8178 62.1425L24.0776 61.6864L25.4679 61.8566L28.3612 61.0744L30.6917 59.7852L32.3206 58.3222L33.9224 57.6809L37.5599 57.4306L39.9107 58.2795L41.4342 58.4091L44.031 57.7565L47.4919 57.6029L48.9397 56.7947L51.9006 52.8769L52.8921 52.4132L54.0259 52.6037L56.2361 53.9156L59.7797 55.3707L63.1059 56.1926L66.0967 56.5568L67.4472 56.1849L71.8338 55.7567L74.8088 56.3648L78.0641 57.6176L81.8811 57.2208L83.3341 56.8887L86.3567 54.4351L88.6629 51.5636L88.7876 48.3688L89.7571 45.8801L90.0416 42.6611L89.5892 39.8944L89.662 38.6317L90.5764 35.6769L90.1204 34.2323L88.0677 31.6241L87.2846 30.1278L85.602 29.0649L85.0165 26.7314L84.9413 24.9233L85.4332 22.9476L86.1664 21.6541L88.0538 20.0537L92.8449 19.7703L93.8434 19.093L95.9564 16.7299L97.7345 14.0978L99.2259 10.9929L100.585 9.09376L101.265 7.4913L102.441 6.61004L104.559 6.54266L106.699 8.09213L109.022 8.63875L113.329 8.38406L115.985 6.685L117.349 6.55493L120.325 7.438L122.233 7.37592L124.997 5.9485L126.321 4.95186L127.982 4.37662L130.821 2.97191L132.204 2.81641L133.701 3.59318L136.878 7.41241L137.959 10.6447L138.49 13.8865L138.052 14.9541L134.868 18.1121L134.456 19.6688L135.453 22.4381L135.225 23.032L133.389 24.2607L126.713 26.046L124.454 28.6496L125.978 30.6795L127.225 35.4845L127.107 37.2338L127.972 38.3611L132.881 38.2388L135.613 37.5877L138.199 38.283L140.092 40.2879L141.765 41.5418L143.202 42.1963L145.047 42.4561L147.07 41.8189L148.888 40.8371L151.723 41.5344L152.783 41.1527L157.187 41.5312L159.443 40.9477L161.183 40.9999L163.87 41.5243L165.925 40.9309L167.646 40.9692L168.504 41.5936L167.217 43.5646L167.533 46.0125L168.589 49.1199L167.691 51.7926L167.897 53.2365L168.638 54.7946L169.073 56.9671L168.826 60.7405L169.314 65.0047L169.348 67.998L170.115 68.9779L172.433 70.358L173.879 70.4811L174.721 71.9615L180.082 73.8279L181.438 73.9202L183.287 73.4919L184.759 73.4979L187.647 74.3089L189.143 74.0344L190.336 75.29L192.208 75.7318L193.07 78.7752L194.462 79.3256L195.116 80.607L196.387 80.6661L196.054 84.3512L196.602 86.984L197.579 88.1952L199.896 88.077L204.103 86.6554L208.389 86.0525L211.033 86.2222L215.827 85.8064L216.936 85.137L217.768 84.0082L219.078 83.398L221.571 83.3002L222.633 82.5452L223.702 80.8631L224.653 78.6836L226.147 74.3922L227.377 73.1158L229.819 73.3906L232.907 73.2192L235.269 72.1324L236.745 70.838L238.41 69.8519L240.627 68.9464L242.447 67.3216L244.606 66.0531L248.603 65.4095L252.756 63.3031Z" fill="#1E1E1E" stroke="white" stroke-width="5"/>
</svg>
