<svg width="112" height="128" viewBox="0 0 112 128" fill="none" xmlns="http://www.w3.org/2000/svg">
<path d="M108.549 55.5865L106.347 56.6808L104.571 56.8701L101.958 58.1656L99.6725 60.5455L99.3681 62.8443L99.6878 66.9935L98.5954 74.4652L99.3512 76.2182L99.0635 77.1832L96.6487 79.0712L94.4074 81.4226L91.8162 83.1738L89.5358 83.5393L88.5946 84.1854L83.9457 85.9961L81.3631 87.1355L80.3473 88.9322L79.0563 92.0693L74.7503 94.856L72.684 99.2143L70.3504 100.809L68.0929 102.855L65.474 106.632L63.7729 108.019L63.04 108.988L62.1192 112.425L61.3243 113.904L60.3733 114.779L59.6283 116.616L57.7226 118.127L55.0276 119.228L52.1311 118.544L51.3051 118L48.9295 115.048L48.3289 111.75L47.5646 109.815L46.5545 109.326L40.578 109.523L38.515 110.108L37.1721 111.543L35.8086 111.677L33.1183 110.02L31.4176 110.484L26.9521 114.644L22.8059 116.548L19.7872 118.511L15.3742 124.378L14.7171 124.492L13.2048 123.13L12.1965 120.579L13.7237 118.664L14.0532 116.853L13.4853 114.675L10.1321 113.048L9.03741 110.551L10.12 107.877L10.7731 104.38L10.1774 102.256L8.96149 100.206L7.33655 96.7692L5.09173 93.6675L3.67853 88.8538L3.42222 86.6138L2.5625 84.2793L2.77818 81.9315L3.85033 80.3044L4.61323 78.3408L4.1893 75.9013L5.42025 72.4992L5.68677 70.2028L5.53378 66.2253L5.84372 65.2825L8.97937 61.1772L9.5909 59.7639L9.76595 57.8828L10.4745 56.1772L11.3635 55.0976L11.5875 52.8129L9.90084 49.4311L7.54225 47.7721L6.74151 46.5561L6.79259 44.6785L7.65973 42.125L7.62792 41.2036L6.74662 40.3028L6.17967 39.1861L3.71985 35.8449L2.93536 33.9937L2.85596 32.3284L3.17705 30.2607L3.98917 28.1224L5.48084 25.9898L9.04786 23.9148L9.81981 22.3977L9.69491 21.5627L6.50006 17.9266L9.9821 18.0814L13.4576 17.4551L15.1234 16.9592L20.1069 14.9913L21.4618 14.1276L25.5408 12.1865L28.3454 10.3133L31.2779 7.27497L34.9131 4.19724L36.604 3.84807L37.6801 8.83549L44.2358 10.0645L47.3896 9.0128L50.274 9.59046L51.7984 9.46281L52.7255 8.67574L55.8221 4.14469L56.7492 3.33203L58.8482 4.13591L61.363 4.48357L65.139 4.1668L69.0726 5.0635L73.3489 4.67163L77.1592 3.80355L77.6126 4.12001L76.9972 5.79001L77.2133 6.52499L76.8841 8.38895L77.377 10.288L78.2848 11.3876L79.9782 12.2678L81.6468 12.6302L83.1877 14.5755L83.6671 15.9481L83.6014 18.5726L83.0337 20.3398L81.6238 23.6142L80.4639 26.7793L80.2912 29.3669L81.9846 30.6393L84.4639 31.8328L85.3132 33.5594L86.8873 34.7579L87.4496 36.0187L90.3103 37.7037L94.0686 41.8512L96.8565 42.9016L99.3249 45.2607L101.497 48.5677L102.426 49.0553L104.175 48.5998L105.083 50.4842L107.803 54.0854L108.549 55.5865Z" fill="#1E1E1E" stroke="white" stroke-width="5"/>
</svg>
