<svg width="234" height="161" viewBox="0 0 234 161" fill="none" xmlns="http://www.w3.org/2000/svg">
<path d="M230.715 103.317L229.582 103.733L228.969 101.935L229.753 101.441L230.951 102.676L230.715 103.317ZM173.071 156.096L171.406 154.921L164.1 145.215L160.989 141.413L158.887 139.545L155.59 136.182L153.603 133.722L152.295 132.492L149.033 127.681L145.716 123.264L144.637 122.069L142.692 120.519L140.388 119.445L135.95 118.746L131.807 119.892L128.622 119.928L124.571 118.199L123.151 117.888L120.299 117.858L118.218 118.182L115.249 119.173L109.463 120.453L105.554 125.589L104.808 124.088L102.088 120.486L101.18 118.602L99.4312 119.057L98.5021 118.57L96.3297 115.263L93.8613 112.904L91.0734 111.853L87.3151 107.706L84.4543 106.021L83.892 104.76L82.3179 103.562L81.4687 101.835L78.9893 100.641L77.2959 99.3691L77.4686 96.7815L78.6285 93.6164L80.0385 90.3419L80.6061 88.5747L80.6719 85.9502L80.1924 84.5776L78.6515 82.6323L76.9829 82.27L75.2895 81.3898L74.3817 80.2902L73.8889 78.3911L74.2181 76.5271L74.0019 75.7921L74.6174 74.1222L74.164 73.8057L70.3536 74.6738L66.0774 75.0656L62.1437 74.1689L58.3678 74.4857L55.8529 74.1381L53.7539 73.3342L52.8269 74.1468L49.7302 78.6779L48.8032 79.465L47.2788 79.5926L44.3943 79.0149L41.2406 80.0667L34.6849 78.8376L33.6088 73.8502L31.9179 74.1994L28.2826 77.2771L25.3501 80.3155L22.5455 82.1887L18.4666 84.1297L17.1117 84.9934L12.1282 86.9614L10.4624 87.4573L6.98687 88.0835L3.50482 87.9288L3.08623 86.6311L4.30998 84.2966L5.15437 81.9035L5.28949 80.3804L6.10022 78.2737L7.64854 78.6624L8.51731 78.3127L8.31579 76.2902L5.76427 75.0296L5.25351 73.4491L5.18664 69.062L3.30237 68.1855L2.96875 67.2882L4.10892 62.2724L4.29512 58.3624L5.40651 54.6202L5.36193 53.2409L4.75272 50.3873L6.12738 44.8898L7.05002 43.4466L8.7987 41.7483L10.2419 39.5161L10.8476 36.4915L10.8675 35.1751L12.1584 32.0993L13.0787 31.7294L14.6382 31.895L17.6464 30.3754L18.5423 29.7138L18.5871 28.569L16.6253 23.3677L16.9083 21.1545L18.6145 19.016L18.8318 17.0634L19.5269 16.205L22.0854 15.775L24.7175 16.6211L27.1675 16.7554L28.4925 15.0823L28.8547 14.0307L28.4078 11.6455L27.3841 8.06327L26.8769 4.39319L28.017 4.75569L32.2694 4.23435L33.9837 5.32744L34.8188 6.52077L36.4259 6.39237L41.0755 6.59466L42.1333 7.55284L43.9704 7.54118L46.4585 6.28562L48.3802 4.67135L50.3617 3.8125L50.7871 4.12896L51.8362 7.82903L53.3488 9.48433L54.9772 9.39091L56.6906 7.76331L58.2666 7.50408L60.3916 7.94744L62.9795 6.00852L65.4359 6.80317L67.4137 6.5662L69.3261 4.92709L70.03 5.53761L72.3062 6.1872L74.1059 7.69093L74.8463 10.9258L75.9765 14.0196L76.6112 15.1513L78.222 16.0891L79.3931 15.8001L81.6235 16.2758L84.9953 15.4925L86.4832 14.3845L88.4286 11.9564L89.7008 12.6205L90.9576 13.9915L91.4326 15.2526L92.5987 16.166L95.6304 17.233L96.7318 18.782L99.1825 20.1624L100.636 22.2002L101.995 22.3522L104.2 21.9791L108.23 22.8334L109.2 23.6989L111.707 24.9855L115.529 24.908L117.175 24.6622L118.535 24.9893L120.439 26.5119L121.197 27.6299L122.486 28.3437L123.582 30.0592L124.374 30.6878L125.839 30.8604L126.56 31.4948L128.234 31.8332L129.151 32.8367L130.932 33.4842L133.031 33.1068L134.677 31.3507L137.411 31.0731L141.502 32.6603L144.864 33.3956L148.008 36.1461L150.233 36.8514L151.166 37.5976L152.416 37.0502L154.859 37.6782L156.592 39.0794L158.153 38.6121L159.752 39.3696L161.645 40.7738L162.274 42.5164L163.198 42.6105L165.892 45.9262L167.012 48.0807L169.463 50.3725L169.447 51.4198L171.082 53.191L173.528 53.8801L174.472 55.8603L176.627 58.4099L178.203 59.5687L179.461 60.9796L180.471 62.6881L181.876 63.3148L182.698 64.3937L182.842 65.9707L183.606 66.4972L184.978 66.5002L185.627 66.9982L187.408 67.4019L188.797 70.2296L190.664 70.1841L190.63 71.8525L191.246 72.8L192.92 72.975L193.095 74.2056L193.894 74.7124L194.036 76.1976L194.603 76.341L196.787 79.0747L202.132 82.846L204.608 82.8071L204.587 83.8917L205.681 84.9999L205.991 86.8917L205.876 88.2168L207.461 88.7384L210.545 90.1312L212.432 92.5852L216.173 92.8511L217.642 93.3475L217.881 95.1964L218.702 96.6166L218.228 97.2286L218.086 98.8512L215.818 99.4333L214.029 98.8224L212.306 100.387L211.517 103.271L210.375 104.406L213.1 110.338L214.389 111.864L216.248 112.67L219.162 112.558L221.348 115.465L221.236 117.554L218.902 117.506L218.238 116.718L216.63 116.568L215.192 118.508L214.105 118.266L212.159 119.267L211.854 121.702L212.06 123.826L213.397 124.685L212.05 125.411L210.592 126.741L210 128.129L210.095 129.497L209.455 130.2L209.577 131.531L211.049 132.975L210.577 133.695L210.584 135.101L211.944 136.827L212.506 138.173L211.455 139.526L210.106 142.813L210.066 140.344L210.578 138.773L210.545 137.588L209.292 136.007L208.63 133.248L207.984 132.412L208.042 130.034L206.663 129.609L204.403 129.456L199.713 130.253L196.394 131.571L192.541 133.513L189.798 135.121L185.127 138.609L184.296 139.651L184.074 140.867L177.159 146.131L174.551 149.25L173.633 151.074L173.032 152.931L173.071 156.096Z" fill="#1E1E1E" stroke="white" stroke-width="5"/>
</svg>
