<svg width="165" height="235" viewBox="0 0 165 235" fill="none" xmlns="http://www.w3.org/2000/svg">
<path d="M155.382 189.175L155.963 187.39L156.72 188.27L155.382 189.175ZM153.611 178.95L153.784 180.607L151.994 180.213L151.72 179.367L153.611 178.95ZM122.078 41.0977L122.437 45.7827L123.198 48.5014L125.632 53.7298L126.967 55.0977L128.058 57.9166L129.503 59.5621L130.33 61.1791L132.082 62.2038L130.429 63.6834L130.742 66.1733L130.277 66.9689L130.615 69.0697L130.531 70.7124L129.904 72.6958L130.176 74.4187L130.921 76.0701L133.11 77.6098L132.022 80.8611L132.373 82.0258L131.486 83.6086L133.642 86.2673L136.41 88.5229L135.894 91.7912L136.859 92.8702L138.722 93.8923L139.979 93.7666L141.008 95.2007L141.07 96.6775L140.656 98.074L141.842 99.3279L142.984 99.0563L143.136 100.962L143.94 101.578L143.937 102.554L143.089 103.295L143.231 104.981L143.944 105.261L145.091 106.618L145.835 108.736L146.626 109.023L147.011 110.128L146.163 110.977L142.945 111.268L140.937 112.536L140.011 113.54L139.392 113.391L138.072 114.404L137.243 115.58L136.208 117.944L136.056 119.535L137.056 120.798L136.828 122.197L135.367 124.295L134.999 125.603L134.959 127.698L136.145 129.555L135.565 130.583L136.301 131.476L136.35 132.847L137.392 135.031L138.404 136.076L138.287 137.781L138.688 139.404L139.738 139.951L140.239 141.508L139.699 142.593L139.752 144.066L138.273 144.627L137.884 146.327L138.093 147.146L136.449 149.587L135.571 150.351L134.515 150.42L133.291 151.447L133.423 152.709L135.635 153.619L136.402 153.385L138.832 155.051L140.378 154.711L142.198 153.684L142.148 154.668L144.872 155.09L145.521 153.828L147.115 154.472L147.169 156.352L147.545 157.443L149.818 159.364L149.799 160.249L150.582 160.91L150.927 163.126L153.028 164.746L153.427 166.146L153.471 168.659L152.934 169.332L152.951 170.587L152.409 172.013L150.998 172.128L147.71 173.1L146.342 174.778L145.096 173.966L143.992 174.048L143.23 174.797L141.473 174.167L140.137 173.202L136.735 173.053L136.015 173.861L135.556 175.37L136.016 176.565L137.722 176.85L138.16 178.126L139.087 177.299L140.838 177.952L140.692 178.961L139.022 178.764L138.607 179.313L139.34 183.083L140.006 184.36L142.346 186.845L143.888 187.758L144.817 187.791L148.131 189.404L148.07 188.389L149.103 185.568L149.784 184.873L152.121 183.93L153.242 184.782L153.839 187.829L153.442 189.506L152.677 190.005L150.973 190.075L151.265 192.277L153.885 193.423L154.845 193.443L157.246 194.504L159.62 196.159L157.113 197.252L153.716 200.573L151.071 202.43L148.635 203.66L145.377 206.591L143.133 206.605L139.793 206.918L136.252 204.765L133.585 203.813L131.986 201.059L130.737 199.912L129.336 199.982L127.862 199.163L126.365 198.96L124.341 199.35L122.626 199.114L120.373 197.832L116.629 197.928L114.388 200.207L113.729 200.387L111.82 199.013L109.891 198.034L108.255 197.519L106.387 197.397L104.635 196.938L103.042 197.2L98.5957 195.88L94.4002 195.292L90.2182 194.971L85.9359 193.972L84.4098 193.109L83.2091 191.139L82.5996 191.118L81.7901 192.707L80.3664 196.557L79.1345 199.236L79.3295 200.545L78.9349 207.473L79.0816 210.322L79.4192 212.428L78.22 214.329L76.8939 215.468L77.0076 217.108L76.0966 218.404L75.0017 219.015L71.9413 220.173L71.4732 220.847L71.3597 222.492L69.7849 226.388L68.4509 227.579L66.7563 230.127L66.142 231.428L63.7815 230.687L61.4158 230.337L57.7879 228.447L56.6661 227.463L55.6712 224.693L54.7351 222.985L52.2763 223.031L51.371 222.307L51.8695 220.618L50.6957 220.76L50.7565 223.382L49.5808 223.569L50.349 224.774L49.5557 226.042L48.0501 226.265L45.8589 225.229L44.0629 223.16L42.7806 220.591L43.6557 217.996L44.5746 217.127L46.261 216.32L47.7803 215.232L50.1076 212.64L50.5794 211.831L51.3409 209.206L52.482 208.42L54.5285 205.951L54.6889 204.577L52.8541 200.989L51.0079 198.255L46.9192 193.692L45.2314 192.528L43.4337 192.504L42.6564 192.958L41.7765 196.318L40.1676 197.462L37.5696 198.725L36.133 201.256L36.0222 203.365L34.8865 203.807L32.744 203.092L30.9589 202.156L28.9825 201.485L28.1966 200.637L27.0676 198.344L25.294 195.435L25.2678 194.121L23.8741 191.798L23.6222 189.981L23.739 187.745L24.3918 186.466L24.0974 185.028L23.328 184.425L22.6364 181.241L24.9319 176.391L25.0479 175.412L24.5481 173.077L24.6923 171.81L25.6056 170.5L23.7218 169.473L24.055 167.674L26.5547 164.929L25.8341 163.803L23.9431 163.994L22.1807 164.539L19.266 165.033L18.5076 164.065L18.8075 161.007L17.955 156.654L17.4765 155.647L17.5768 152.662L18.5786 149.637L19.3032 146.195L21.2961 142.421L21.7105 140.717L22.7402 139.26L24.3486 137.868L27.5414 135.834L28.0201 134.76L28.0981 132.822L29.165 129.915L31.4005 129.744L31.8388 129.064L30.5424 127.284L30.534 126.197L32.2402 124.759L33.8334 122.145L35.0272 120.837L36.9472 120.046L38.1452 118.638L37.6518 118.27L34.1619 116.89L31.8602 115.301L27.449 110.766L25.1436 108.811L23.635 107.862L22.1433 106.497L22.1089 105.596L21.0944 104.992L17.5055 103.69L16.4731 102.322L16.1148 99.9274L16.0631 97.5692L16.669 95.0204L17.9887 92.3182L19.009 88.6579L19.0596 87.7906L20.2161 85.1632L15.3882 84.798L12.0835 84.8784L10.5482 85.475L8.503 84.9168L7.32174 83.8183L6.71787 81.7422L6.05759 80.7452L4.7138 77.7354L3.00389 75.0674L3.3482 74.0618L3.73406 73.1304L5.63969 71.6196L6.38471 69.7829L7.33567 68.9074L8.13061 67.4283L9.05138 63.9914L9.78434 63.022L11.4854 61.635L14.1043 57.8587L16.3619 55.8121L18.6954 54.2176L20.7617 49.8594L25.0677 47.0727L26.3587 43.9356L27.3745 42.1388L29.9571 40.9994L34.606 39.1888L35.5472 38.5427L37.8276 38.1771L40.4188 36.426L42.6601 34.0746L45.0749 32.1866L45.3626 31.2216L44.6069 29.4686L45.6992 21.9969L45.3795 17.8477L45.6839 15.5488L47.9696 13.169L50.5824 11.8735L52.3582 11.6842L54.5603 10.5899L58.4698 5.45454L64.2552 4.1746L67.225 3.1828L69.306 2.85938L72.1574 2.88966L73.5776 3.19976L77.6282 4.92896L80.8138 4.89368L84.957 3.74714L89.3947 4.44669L91.6982 5.52071L93.6438 7.07017L94.7232 8.26547L98.0392 12.6817L101.302 17.4931L102.61 18.7229L104.597 21.1828L107.894 24.5466L109.996 26.4143L113.106 30.2165L120.413 39.9218L122.078 41.0977Z" fill="#1E1E1E"/>
<path d="M3.3482 74.0618L3.00389 75.0674L4.7138 77.7354L6.05759 80.7453L6.71787 81.7422L7.32174 83.8183L8.503 84.9168L10.5482 85.475L12.0835 84.8784L15.3882 84.798L20.2161 85.1632L19.0596 87.7906L19.009 88.6579L17.9887 92.3182L16.669 95.0204L16.0631 97.5692L16.1148 99.9274L16.4731 102.322L17.5055 103.69L21.0944 104.992L22.1089 105.596L22.1433 106.497L23.635 107.862L25.1436 108.811L27.449 110.766L31.8602 115.301L34.1619 116.89L37.6518 118.27L38.1452 118.638L36.9472 120.046L35.0272 120.837L33.8334 122.145L32.2402 124.759L30.534 126.197L30.5424 127.284L31.8388 129.064L31.4005 129.744L29.165 129.915L28.0981 132.822L28.0201 134.76L27.5414 135.834L24.3486 137.868L22.7402 139.26L21.7105 140.717L21.2961 142.421L19.3032 146.195L18.5786 149.637L17.5768 152.662L17.4765 155.647L17.955 156.654L18.8075 161.007L18.5076 164.065L19.266 165.033L22.1807 164.539L23.943 163.994L25.8341 163.803L26.5547 164.929L24.055 167.674L23.7218 169.473L25.6056 170.5L24.6923 171.81L24.5481 173.077L25.0479 175.412L24.9318 176.391L22.6364 181.241L23.328 184.425L24.0974 185.028L24.3918 186.466L23.739 187.745L23.6222 189.981L23.8741 191.798L25.2678 194.121L25.294 195.435L27.0676 198.344L28.1966 200.637L28.9825 201.485L30.9589 202.156L32.744 203.092L34.8865 203.807L36.0222 203.365L36.133 201.256L37.5696 198.725L40.1676 197.462L41.7765 196.318L42.6564 192.958L43.4337 192.504L45.2314 192.528L46.9192 193.692L51.0079 198.255L52.8541 200.989L54.6889 204.577L54.5285 205.951L52.482 208.42L51.3409 209.206L50.5794 211.831L50.1076 212.64L47.7803 215.232L46.261 216.32L44.5746 217.127L43.6557 217.996L42.7806 220.591L44.0629 223.16L45.8589 225.229L48.0501 226.265L49.5557 226.042L50.349 224.774L49.5808 223.569L50.7565 223.382L50.6957 220.76L51.8695 220.618L51.371 222.307L52.2763 223.031L54.7351 222.985L55.6712 224.693L56.6661 227.463L57.7879 228.447L61.4158 230.337L63.7815 230.687L66.142 231.428L66.7563 230.127L68.4509 227.579L69.7849 226.388L71.3597 222.492L71.4732 220.847L71.9413 220.173L75.0017 219.015L76.0966 218.404L77.0076 217.108L76.8939 215.468L78.22 214.329L79.4192 212.428L79.0816 210.322L78.9349 207.473L79.3295 200.545L79.1345 199.236L80.3664 196.557L81.7901 192.707L82.5996 191.118L83.2091 191.139L84.4098 193.109L85.9359 193.972L90.2182 194.971L94.4002 195.292L98.5957 195.88L103.042 197.2L104.635 196.938L106.387 197.397L108.255 197.519L109.891 198.034L111.82 199.013L113.729 200.387L114.388 200.207L116.629 197.928L120.373 197.832L122.626 199.114L124.341 199.35L126.365 198.96L127.862 199.163L129.336 199.982L130.737 199.912L131.986 201.059L133.585 203.813L136.252 204.765L139.793 206.918L143.133 206.605L145.377 206.591L148.635 203.66L151.071 202.43L153.716 200.573L157.113 197.252L159.62 196.159L157.246 194.504L154.845 193.443L153.885 193.423L151.265 192.277L150.973 190.075L152.677 190.005L153.442 189.506L153.839 187.829L153.242 184.782L152.121 183.93L149.784 184.873L149.103 185.568L148.07 188.389L148.131 189.404L144.817 187.791L143.888 187.758L142.346 186.845L140.006 184.36L139.34 183.083L138.607 179.313L139.022 178.764L140.692 178.961L140.838 177.952L139.087 177.299L138.16 178.126L137.722 176.85L136.016 176.565L135.556 175.37L136.015 173.861L136.735 173.053L140.137 173.202L141.473 174.167L143.23 174.797L143.992 174.047L145.096 173.966L146.342 174.778L147.71 173.1L150.998 172.128L152.409 172.013L152.951 170.587L152.934 169.332L153.471 168.659L153.427 166.146L153.028 164.746L150.927 163.126L150.582 160.91L149.799 160.249L149.818 159.364L147.545 157.443L147.169 156.352L147.115 154.472L145.521 153.828L144.872 155.09L142.148 154.668L142.198 153.684L140.378 154.711L138.832 155.051L136.402 153.385L135.635 153.619L133.423 152.709L133.291 151.447L134.515 150.42L135.571 150.351L136.449 149.587L138.093 147.146L137.884 146.327L138.273 144.627L139.752 144.066L139.699 142.593L140.239 141.508L139.738 139.951L138.688 139.404L138.287 137.781L138.404 136.076L137.392 135.031L136.35 132.847L136.301 131.476L135.565 130.583L136.145 129.555L134.959 127.698L134.999 125.603L135.367 124.295L136.828 122.197L137.056 120.798L136.056 119.535L136.208 117.944L137.243 115.58L138.072 114.404L139.392 113.391L140.011 113.54L140.937 112.536L142.945 111.268L146.163 110.977L147.011 110.128L146.626 109.023L145.835 108.736L145.091 106.618L143.944 105.261L143.231 104.981L143.089 103.295L143.937 102.554L143.94 101.578L143.136 100.962L142.984 99.0563L141.842 99.3279L140.656 98.074L141.07 96.6775L141.008 95.2007L139.979 93.7666L138.722 93.8923L136.859 92.8702L135.894 91.7912L136.41 88.5229L133.642 86.2673L131.486 83.6086L132.373 82.0258L132.022 80.8611L133.11 77.6098L130.921 76.0701L130.176 74.4187L129.904 72.6958L130.531 70.7124L130.615 69.0697L130.277 66.9689L130.742 66.1733L130.429 63.6834L132.082 62.2038L130.33 61.1791L129.503 59.5621L128.058 57.9166L126.967 55.0977L125.632 53.7298L123.198 48.5014L122.437 45.7827L122.078 41.0977L120.413 39.9218L113.106 30.2165L109.996 26.4143L107.894 24.5466L104.597 21.1828L102.61 18.7229L101.302 17.4931L98.0392 12.6817L94.7232 8.26547L93.6438 7.07017L91.6983 5.52071L89.3947 4.44669L84.957 3.74714L80.8138 4.89368L77.6282 4.92896L73.5776 3.19976L72.1574 2.88966L69.306 2.85938L67.225 3.1828L64.2552 4.1746L58.4698 5.45454L54.5603 10.5899L52.3582 11.6842L50.5824 11.8735L47.9696 13.169L45.6839 15.5488L45.3795 17.8477L45.6992 21.9969L44.6069 29.4686L45.3626 31.2216L45.0749 32.1866L42.6601 34.0746L40.4188 36.426L37.8276 38.1771L35.5472 38.5427L34.606 39.1888L29.9571 40.9994L27.3745 42.1388L26.3587 43.9356L25.0677 47.0727L20.7617 49.8594L18.6954 54.2176L16.3619 55.8121L14.1043 57.8587L11.4854 61.635L9.78434 63.022L9.05138 63.9914L8.13061 67.4283L7.33567 68.9074L6.38471 69.7829L5.63969 71.6196L3.73406 73.1304L3.3482 74.0618ZM3.3482 74.0618L1.03906 74.2317M155.382 189.175L155.963 187.39L156.72 188.27L155.382 189.175ZM153.611 178.95L153.784 180.607L151.994 180.213L151.72 179.367L153.611 178.95Z" stroke="white" stroke-width="5"/>
</svg>
