<svg width="73" height="115" viewBox="0 0 73 115" fill="none" xmlns="http://www.w3.org/2000/svg">
<path d="M53.6312 110.658L52.4727 110.688L51.4254 111.7L49.0415 111.4L47.7634 110.583L45.4197 111.16L42.541 108.273L40.6189 104.867L39.7708 102.473L38.9838 97.2038L38.4971 93.1724L38.4507 88.8423L38.2633 86.5331L38.1946 77.1659L37.6418 75.4045L36.035 72.3037L34.8637 66.8636L32.9202 68.3661L30.4342 69.0919L29.9805 67.2844L29.6209 64.3148L29.5229 61.7764L30.3288 59.9079L28.7243 58.3128L26.0314 58.6503L23.8485 57.2891L20.4515 57.5804L17.7407 58.362L12.8782 60.0784L9.27889 61.9052L3.69922 64.0143L4.70381 60.1356L5.59138 57.9201L5.89366 56.176L5.53705 54.6862L4.53618 52.3342L4.72911 51.017L5.48342 49.031L6.75384 47.7844L8.82524 43.1405L11.7099 39.6619L13.509 37.0198L15.9623 34.8307L17.9993 33.6734L21.3483 31.0066L23.5674 28.896L25.2316 26.5439L25.6105 25.0774L25.5984 23.2257L25.1854 21.3725L25.2446 18.1668L25.656 16.5342L27.9191 11.9165L30.8101 4.68707L31.0332 3.4471L32.0222 3.23239L34.3314 3.0625L33.9871 4.06807L35.697 6.73606L37.0408 9.74596L37.701 10.7429L38.3049 12.819L39.4862 13.9175L41.5313 14.4757L43.0667 13.8791L46.3713 13.7987L51.1992 14.1639L50.0428 16.7913L49.9922 17.6586L48.9718 21.3189L47.6522 24.0211L47.0462 26.5699L47.098 28.9281L47.4562 31.3226L48.4887 32.6909L52.0775 33.9925L53.0921 34.5966L53.1265 35.4982L54.6181 36.8624L56.1268 37.8118L58.4322 39.7668L62.8433 44.3015L65.1451 45.8905L68.635 47.2709L69.1283 47.639L67.9304 49.0469L66.0103 49.8381L64.8165 51.1459L63.2234 53.7595L61.5172 55.1972L61.5256 56.2849L62.822 58.065L62.3837 58.7442L60.1481 58.9153L59.0813 61.8229L59.0033 63.7606L58.5246 64.835L55.3318 66.869L53.7234 68.261L52.6937 69.7175L52.2793 71.4214L50.2864 75.1958L49.5618 78.6377L48.56 81.6628L48.4597 84.6481L48.9382 85.6543L49.7907 90.0081L49.4907 93.0655L50.2492 94.0338L53.1638 93.5399L54.9262 92.9946L56.8172 92.804L57.5379 93.9299L55.0381 96.675L54.705 98.4733L56.5888 99.5003L55.6754 100.811L55.5312 102.077L56.0311 104.413L55.915 105.392L53.6312 110.658Z" fill="#1E1E1E"/>
<path d="M54.3112 113.426L53.6312 110.658M53.6312 110.658L52.4727 110.688L51.4254 111.7L49.0415 111.4L47.7634 110.583L45.4197 111.16L42.541 108.273L40.6189 104.867L39.7708 102.473L38.9838 97.2038L38.4971 93.1724L38.4507 88.8423L38.2633 86.5332L38.1946 77.1659L37.6418 75.4045L36.035 72.3038L34.8637 66.8636L32.9202 68.3661L30.4342 69.0919L29.9805 67.2844L29.6209 64.3148L29.5229 61.7764L30.3288 59.9079L28.7243 58.3128L26.0314 58.6503L23.8485 57.2891L20.4515 57.5804L17.7407 58.362L12.8782 60.0784L9.27889 61.9052L3.69922 64.0143L4.70381 60.1356L5.59138 57.9201L5.89366 56.176L5.53705 54.6862L4.53618 52.3342L4.72911 51.017L5.48342 49.031L6.75384 47.7844L8.82524 43.1406L11.7099 39.6619L13.509 37.0198L15.9623 34.8307L17.9993 33.6734L21.3483 31.0066L23.5674 28.896L25.2316 26.5439L25.6105 25.0774L25.5984 23.2257L25.1854 21.3725L25.2446 18.1668L25.656 16.5342L27.9191 11.9165L30.8101 4.68707L31.0332 3.4471L32.0222 3.23239L34.3314 3.0625L33.9871 4.06807L35.697 6.73606L37.0408 9.74596L37.701 10.7429L38.3049 12.819L39.4862 13.9175L41.5313 14.4757L43.0667 13.8791L46.3713 13.7987L51.1992 14.1639L50.0428 16.7913L49.9922 17.6586L48.9718 21.3189L47.6522 24.0211L47.0462 26.5699L47.098 28.9281L47.4562 31.3226L48.4887 32.6909L52.0775 33.9925L53.0921 34.5966L53.1265 35.4982L54.6181 36.8624L56.1268 37.8118L58.4322 39.7668L62.8434 44.3015L65.1451 45.8905L68.635 47.2709L69.1283 47.639L67.9304 49.0469L66.0103 49.8381L64.8165 51.1459L63.2234 53.7595L61.5172 55.1972L61.5256 56.2849L62.822 58.065L62.3837 58.7442L60.1481 58.9153L59.0813 61.8229L59.0033 63.7606L58.5246 64.835L55.3318 66.869L53.7234 68.261L52.6937 69.7175L52.2793 71.4214L50.2864 75.1958L49.5618 78.6377L48.56 81.6628L48.4597 84.6481L48.9382 85.6543L49.7907 90.0081L49.4907 93.0655L50.2492 94.0338L53.1638 93.5399L54.9262 92.9946L56.8172 92.804L57.5379 93.9299L55.0381 96.675L54.705 98.4733L56.5888 99.5003L55.6754 100.811L55.5312 102.077L56.0311 104.413L55.915 105.392L53.6312 110.658Z" stroke="white" stroke-width="5"/>
</svg>
