<svg width="302" height="217" viewBox="0 0 302 217" fill="none" xmlns="http://www.w3.org/2000/svg">
<path d="M43.1004 208.979L43.6154 210.858L42.6358 211.216L41.0506 210.182L40.0425 210.55L39.1418 209.412L40.7892 208.613L41.5818 209.139L42.4835 206.47L43.5408 207.242L43.1004 208.979ZM99.8032 198.661L100.077 199.604L101.719 199.501L104.349 200.873L103.203 202.843L101.421 203.129L101.178 204.114L97.566 206.647L96.0636 206.357L94.6212 205.641L96.5308 203.831L97.1862 202.609L99.4373 200.325L98.9588 198.768L99.8032 198.661ZM19.6165 190.932L20.0239 192.679L19.1381 194.485L19.1585 195.943L17.7372 196.314L16.9527 197.532L15.4861 197.591L13.6454 198.394L12.8517 197.776L13.2689 196.906L12.6499 196.132L12.6838 194.214L14.0258 194.235L15.0787 193.51L15.6091 192.029L16.5799 191.441L19.6165 190.932ZM58.7092 189.503L60.1606 189.946L61.2228 189.688L63.9929 190.292L66.8209 189.993L66.6496 191.225L67.523 192.172L69.0274 192.807L69.6941 195.012L70.4446 196.014L69.7019 196.991L70.3452 200.264L69.3743 201.417L67.6103 201.823L65.4746 203.808L62.608 205.275L61.3067 204.897L60.8182 205.773L59.8775 205.529L59.8125 206.889L59.0518 207.759L57.946 207.945L57.0995 209.316L56.0649 209.739L56.3237 210.797L55.1802 212.524L54.7294 213.968L52.8573 213.491L48.7029 213.112L46.0191 211.843L47.3408 210.845L47.1534 210.106L45.6635 208.75L45.9376 207.098L46.6082 205.764L47.6163 204.73L47.1591 203.097L47.1891 201.837L47.867 200.092L50.241 198.533L49.9456 197.183L52.0842 193.827L52.0007 192.724L53.8489 191.358L54.133 189.852L56.9293 188.22L57.856 189.259L58.7092 189.503ZM74.9183 180.125L76.4527 180.177L77.4933 181.169L74.3574 183.002L72.3473 184.435L72.1286 182.635L72.9175 182.026L74.0876 180.195L74.9183 180.125ZM125.322 149.445L126.126 150.44L126.816 149.929L128.057 150.726L129.139 150.84L130.244 150.322L132.025 150.507L134.047 149.761L134.455 149.114L138.098 150.495L141.177 150.521L143.742 150.649L145.323 150.295L150.714 151.512L152.515 150.36L153.763 151.053L157.171 150.94L159.685 151.868L160.616 152.526L162.224 152.132L163.293 152.315L163.143 153.306L163.777 155.665L163.491 156.806L161.748 158.828L160.738 159.328L160.449 160.742L159.377 161.396L159.044 162.359L159.132 164.654L158.757 167.438L157.978 168.28L156.229 168.305L154.323 167.025L153.504 167.513L152.386 167.354L149.165 170.287L149.339 171.426L150.125 171.744L151.164 173.164L151.441 174.156L151.117 176.865L152.49 178.164L150.985 180.713L150.465 182.005L149.414 181.521L148.469 181.726L146.71 183.515L146.03 183.26L145.625 186.382L143.562 187.791L142.612 190.244L142.909 191.368L144.234 191.966L142.549 193.964L142.039 195.177L142.245 196.782L143.28 197.937L143.576 199.083L144.482 200.468L143.88 202.04L142.967 202.061L141.202 204.564L139.943 204.659L138.643 204.235L138.078 203.413L136.163 204.611L135.822 205.976L133.411 208.105L132.836 209.666L131.663 210.136L129.557 209.931L128.723 210.232L127.589 209.706L125.862 210.875L124.934 212.305L123.627 213.346L121.679 213.659L121.727 211.555L120.515 211.431L118.699 212.171L117.021 211.683L117.721 210.634L116.877 210.006L115.094 209.891L113.895 208.053L113.944 206.085L112.59 205.495L110.535 205.453L107.474 203.837L109.432 203.323L109.456 202.63L108.006 202.033L106.967 200.996L109.698 200.89L110.724 200.287L112.481 200.092L113.632 200.437L114.8 200.226L114.322 198.759L116.184 198.475L116.919 197.198L116.425 196.315L114.53 194.449L115.028 192.072L114.796 190.815L113.836 189.567L113.973 187.909L112.403 185.543L111.732 184.113L108.334 181.748L105.757 180.841L104.632 180.769L100.62 179.361L99.8083 178.196L99.8041 176.61L98.7809 175.344L98.7312 173.175L97.9525 171.346L98.1334 169.978L97.1165 167.809L95.9109 167.4L95.5649 165.731L93.9618 164.863L94.7078 163.943L94.689 161.897L93.2282 160.83L92.1491 158.562L92.2575 156.616L93.605 156.293L94.894 155.374L95.3892 153.922L96.1544 153.568L96.7966 154.631L98.4765 154.052L99.7147 155.28L101.023 154.833L103.488 154.977L107.955 153.524L109.656 152.469L110.997 151.13L113.179 151.475L114.61 150.953L116.199 150.846L118.435 150.003L118.502 150.747L120.797 150.972L122.369 149.587L123.545 150.055L124.389 149.159L125.322 149.445ZM261.716 148.242L262.85 149.306L262.083 151.388L262.425 152.553L260.171 156.341L259.482 155.64L258.395 156.545L257.023 156.694L256.803 155.523L255.91 155.196L254.856 151.918L256.417 152.018L256.763 152.588L258.096 152.381L257.931 151.288L256.114 150.858L256.857 148.588L259.198 148.536L259.583 147.766L261.716 148.242ZM16.6028 131.597L15.6858 133.07L14.317 132.692L14.8253 131.826L16.6028 131.597ZM51.5864 131.789L53.0332 134.187L50.2377 134.102L49.4909 133.652L47.1869 133.765L46.111 132.173L48.0567 130.157L48.6111 130.698L51.5864 131.789ZM9.13095 129.963L11.2741 131.476L9.82455 132.394L8.32208 132.185L7.1826 131.347L6.91468 130.201L9.13095 129.963ZM75.2252 125.338L76.5428 126.185L75.3097 126.934L74.1698 126.831L73.7691 124.936L75.2252 125.338ZM116.031 123.68L116.706 123.596L119.688 124.728L118.402 125.366L115.06 124.409L114.27 123.641L115.004 122.922L116.031 123.68ZM5.05642 122.942L6.51129 123.543L8.01991 125.897L8.68171 126.188L11.3881 124.881L13.0777 124.481L12.6803 125.582L12.8289 127.171L11.936 127.404L11.2592 128.687L10.1085 129.803L6.36584 128.31L5.58912 126.398L4.04289 126.732L3.64844 126.336L4.16315 123.425L5.05642 122.942ZM64.3006 124.351L63.2422 123.753L62.5451 122.544L64.1445 122.46L65.0984 123.24L64.3006 124.351ZM17.0525 116.784L18.1169 117.476L19.5622 117.231L21.0703 119.012L20.2429 120.079L17.352 120.451L16.7481 122.357L13.9202 123.014L13.0946 122.728L12.2315 120.299L11.4544 119.205L12.2875 117.62L13.9216 118.273L14.0737 117.182L17.0525 116.784ZM83.7734 67.1825L83.2376 68.4482L81.7213 67.9975L80.5451 68.0569L81.3043 66.638L83.7734 67.1825ZM177.133 41.7252L176.658 43.0839L176.833 44.3796L175.917 44.6155L175.287 45.4942L173.345 46.4761L171.386 46.5568L171.83 45.0264L174.248 43.341L177.133 41.7252ZM152.617 29.4043L152.463 31.0307L151.054 31.3213L148.566 30.2607L148.761 29.6759L150.911 29.5074L151.909 28.7153L152.617 29.4043ZM218.487 21.0259L217.733 23.0119L217.54 24.3291L218.541 26.681L218.897 28.1708L218.595 29.9149L217.708 32.1304L216.703 36.0092L222.283 33.9001L225.882 32.0732L230.745 30.3569L233.455 29.5753L236.852 29.2839L239.035 30.6452L241.728 30.3077L243.333 31.9027L242.527 33.7712L242.625 36.3096L242.984 39.2792L243.438 41.0867L245.924 40.3609L247.868 38.8584L249.039 44.2986L250.646 47.3993L251.198 49.1608L251.267 58.528L251.455 60.8371L251.501 65.1672L251.988 69.1986L252.775 74.4683L253.623 76.8614L255.545 80.2677L258.423 83.155L260.767 82.5778L262.045 83.3944L264.429 83.6946L265.477 82.683L266.635 82.653L267.315 85.4204L268.084 86.0239L268.379 87.4613L267.726 88.7408L267.609 90.9764L267.861 92.7932L269.255 95.1166L269.281 96.4303L271.055 99.3397L272.184 101.632L272.969 102.481L274.946 103.151L276.731 104.088L278.873 104.803L280.009 104.361L280.12 102.251L281.557 99.7209L284.155 98.4576L285.763 97.3137L286.643 93.9532L287.421 93.4996L289.218 93.5232L290.906 94.6876L294.995 99.2506L296.841 101.985L298.676 105.572L298.516 106.946L296.469 109.415L295.328 110.202L294.566 112.826L294.095 113.636L291.767 116.228L290.248 117.315L288.562 118.123L287.643 118.992L286.768 121.587L285.427 120.208L282.421 120.521L279.814 121.248L279.151 121.754L278.808 124.697L278.317 126.982L278.842 128.004L278.404 129.356L277.341 131.056L277.357 132.199L276.673 133.204L274.658 133.18L272.986 134.688L271.486 134.98L270.476 131.575L270.121 128.539L269.156 128.035L268.713 125.229L267.875 124.833L266.392 125.263L265.625 126.01L265.474 127.053L266.282 128.187L265.048 129.778L264.625 132.201L265.612 133.861L264.374 134.399L264.099 133.606L262.227 132.088L261.605 130.221L264.155 129.537L265.125 128.433L264.901 126.336L262.772 124.469L258.941 124.838L257.611 124.715L257.736 122.676L258.382 122.261L261.883 122.306L263.125 119.988L262.929 118.055L263.37 117.417L263.703 114.67L263.075 111.583L262.512 110.596L258.756 107.978L258.531 107.31L256.898 106.295L255.389 103.03L254.582 102.205L252.789 101.217L251.333 101.417L249.301 102.725L249.845 100.533L250.73 99.3668L250.27 98.3191L251.275 97.4949L252.501 97.9637L253.793 97.3935L254.005 96.4326L251.746 93.7299L250.125 93.2395L248.748 90.9866L247.262 91.114L247.239 89.6157L246.201 88.6271L246.727 87.8399L244.949 86.4986L243.147 86.6627L242.659 85.5939L244.313 85.503L242.269 81.5122L240.871 77.1634L239.155 75.3913L237.846 73.0657L237.692 70.6348L238.563 69.5417L238.501 67.2321L236.252 63.9336L234.406 63.6561L233.149 62.5898L233.378 61.4385L232.495 60.3338L229.631 59.2842L229.783 58.0845L228.115 56.4445L226.74 56.0311L225.425 54.7019L225.212 53.8584L223.453 52.6195L222.029 50.0971L221.967 48.1169L223.163 47.1539L225.066 47.1702L224.787 45.6859L224.145 45.4905L223.316 44.0796L221.508 43.0241L218.1 41.9686L214.362 41.6444L211.911 42.1743L211.033 43.2767L211.503 44.6315L209.657 45.4598L209.379 46.2679L209.694 47.7235L207.831 47.0866L206.267 47.2529L205.61 48.5233L204.956 47.3153L205.119 45.4657L203.685 45.4513L203.262 46.7379L204.634 48.1149L203.507 49.1668L203.964 49.998L202.741 50.8442L201.674 52.3624L199.647 52.9973L195.587 52.8048L195.449 51.5689L194.384 51.6162L193.688 50.191L194.303 48.7317L192.627 49.0448L191.651 48.3048L193.448 46.4054L193.642 45.3256L195.108 44.773L196.87 45.198L199.059 46.1108L199.378 44.8844L200.393 44.5342L201.764 41.7611L200.183 41.0519L200.912 40.0301L200.857 38.9514L198.568 38.8746L198.406 40.913L196.807 43.4525L195.492 42.2042L192.213 43.9464L190.254 44.0721L188.252 43.3507L187.594 41.7049L187.84 39.6375L186.894 39.2753L185.247 40.1409L183.975 39.2135L184.039 37.496L185.436 34.3302L186.421 33.7736L186.867 32.3865L185.458 32.5241L184.793 32.0749L182.254 31.8656L180 32.5853L179.475 31.9466L177.399 31.1545L176.511 31.2873L172.618 31.142L170.274 30.6262L169.416 31.094L166.253 30.2332L162.024 30.7743L159.808 30.3015L159.534 29.0492L158.186 27.3644L157.942 26.3469L158.624 24.3344L157.877 21.496L157.183 20.9012L156.98 19.7518L158.838 18.7381L158.708 18.0976L161.814 15.5238L163.942 14.8437L165.742 13.5129L166.522 11.251L166.39 10.1469L164.936 9.9764L164.689 8.38923L166.003 7.53584L166.342 6.60976L166.879 7.51721L169.713 10.7523L171.911 12.3132L174.158 13.3332L177.162 13.454L180.223 12.7421L182.59 11.1803L186.644 9.03064L188.899 8.58305L191.093 8.58244L193.875 9.38935L197.328 11.599L198.886 13.6362L199.009 15.619L198.809 18.021L199.839 19.1245L200.892 19.2119L205.826 18.3426L206.952 18.6501L212.025 21.0952L213.548 21.2183L217.956 21.1736L218.487 21.0259ZM162.201 6.37779L160.776 7.39789L160.492 6.52058L162.201 6.37779ZM126.277 4.96142L128.862 5.22443L129.942 5.01805L131.955 5.5362L134.651 6.54601L136.065 7.58581L140.419 8.95024L141.659 8.66027L143.146 11.0021L145.039 13.1158L147.12 14.3441L148.533 13.3379L148.198 12.5183L148.514 10.725L149.758 9.71414L149.571 9.02246L152.735 8.61999L153.074 9.67144L151.779 10.3963L151.974 11.6861L147.12 14.3441L149.633 16.1084L150.231 17.1356L150.06 18.3529L148.501 19.772L148.593 21.2481L147.476 20.6416L145.666 22.703L145.705 23.4841L146.788 24.3227L147.23 26.7103L146.32 28.0344L144.695 28.9301L143.835 30.3227L145.009 31.0034L144.832 32.3753L146.602 33.8456L147.422 32.7709L148.448 33.5155L150.859 33.4201L153.612 33.8583L156.158 35.4798L156.282 36.4407L153.545 37.7194L151.282 37.628L150.113 38.0633L150.111 39.0907L152.345 40.4273L153.785 40.1052L155.878 40.6385L156.036 39.6475L159.157 40.6336L160.708 40.7778L164.216 40.0882L166.442 40.2922L167.202 40.9439L164.81 41.9857L162.215 41.9811L159.852 43.0344L158.2 42.5588L156.71 43.5421L155.196 43.9991L153.891 43.8596L152.664 42.7353L151.714 43.9479L151.001 43.7427L150.118 44.872L149.382 48.8024L150.075 50.685L150.741 51.3026L152.36 50.7849L154.302 53.1219L153.757 54.1093L152.503 54.273L150.803 53.9754L148.762 56.0323L147.735 56.2694L147.217 57.2337L147.507 58.6889L148.813 60.7514L147.849 62.445L145.707 62.3389L143.927 61.5898L143.274 60.6745L140.883 61.457L138.091 61.1057L137.706 62.9882L138.245 63.8152L139.555 63.6936L140.282 65.2782L139.723 66.469L138.546 67.4798L140.117 70.3477L139.189 70.6218L139.434 71.728L138.495 72.6661L136.403 72.6546L135.18 71.7639L134.755 70.1707L133.938 68.6441L133.02 68.3199L131.326 68.6356L130.8 69.208L129.408 69.067L128.338 69.3992L127.174 69.0137L124.286 71.6861L123.731 72.7568L124.899 75.4962L124.033 77.1584L122.622 75.9873L121.294 76.7577L121.262 78.3491L119.158 77.7618L117.337 78.0157L115.858 79.7974L116.203 81.1791L113.63 82.5654L112.099 82.7705L110.843 84.0116L109.373 83.9118L108.232 85.8892L107.032 86.808L106.045 85.134L103.625 84.1716L102.134 84.3311L102.295 82.4669L102.812 81.7896L100.712 79.3972L97.7378 78.2654L96.5528 76.6128L94.9562 76.9321L94.38 75.5306L93.3665 75.0462L91.8626 75.6598L89.8557 75.2263L89.3781 74.1176L87.9752 74.6118L85.6173 74.3211L84.0021 72.9394L84.947 71.9143L85.5042 70.4109L86.7823 70.5827L87.4651 69.9514L87.5148 67.4612L87.1405 66.5392L85.5476 65.9487L84.3443 64.4512L85.1926 63.2922L84.8948 62.2782L85.6839 60.4041L86.7075 60.0396L86.7036 59.0349L88.5521 57.6835L89.1163 56.8068L87.1461 55.9583L85.956 54.5694L86.3075 53.1647L86.9474 52.7026L85.9576 50.8202L89.119 50.8252L89.923 51.3495L89.9435 52.9291L90.656 53.2594L93.0705 52.8518L95.3017 51.312L97.2776 51.1048L101.132 51.8333L102.82 52.667L103.461 52.5429L106.015 53.3801L107.5 53.5169L109.988 54.412L111.226 54.1956L113.727 55.0363L117.033 54.3929L118.722 51.6583L119.447 49.602L121.178 47.5141L121.755 45.8709L122.097 43.5936L122.898 42.1866L126.051 38.9918L126.211 37.7373L127.43 35.8587L128.597 35.2854L129.588 33.7945L129.967 31.9951L132.134 30.114L132.526 28.9672L130.538 29.2471L130.091 29.9652L128.122 30.0191L124.902 30.4782L120.902 30.4238L119.975 30.7784L117.541 33.025L116.586 34.6361L115.025 36.0822L113.778 36.6362L112.046 36.4462L110.109 36.7411L108.634 37.3311L107.541 36.0728L106.461 36.357L104.618 35.7357L101.96 34.3012L101.002 34.3215L99.8914 33.0349L98.3277 33.371L98.8355 34.172L97.9121 35.6574L94.7999 36.8879L95.2028 34.7503L95.8772 33.9903L95.7421 32.835L94.6706 33.0765L94.0721 34.3139L91.5744 33.8062L91.2561 33.1384L96.973 29.7247L98.4979 29.5921L100.086 30.309L102.352 29.4163L103.929 29.2576L105.883 28.2353L106.566 27.0864L108.127 25.7001L108.251 24.0682L107.804 23.1636L106.26 22.5805L104.127 22.2045L101.772 22.5911L99.6731 22.0404L98.8188 21.4562L97.0947 21.1667L95.3467 20.2132L93.4875 20.4055L92.9229 19.7623L91.4707 19.3453L91.5726 18.0194L92.6582 16.3926L95.4442 15.8051L100.864 15.333L104.187 16.2912L106.526 16.5316L107.255 17.5602L108.543 17.8185L108.757 18.7016L110.127 20.1729L112.076 20.4503L115.779 19.209L116.4 18.0349L118.992 18.7179L120.186 17.9754L121.396 15.8505L120.908 13.8586L120.128 13.3022L119.011 10.8302L117.262 9.43235L118.581 9.09257L121.1 8.96629L120.975 8.14L121.708 7.20559L121.534 5.87296L124.088 5.69217L125.187 4.30078L126.277 4.96142Z" fill="#1E1E1E"/>
<path d="M147.12 14.3441L145.039 13.1158L143.146 11.0021L141.659 8.66027L140.419 8.95024L136.065 7.58581L134.651 6.54601L131.955 5.5362L129.942 5.01805L128.862 5.22443L126.277 4.96142L125.187 4.30078L124.088 5.69217L121.534 5.87296L121.708 7.20559L120.975 8.14L121.1 8.96629L118.581 9.09257L117.262 9.43235L119.011 10.8302L120.128 13.3022L120.908 13.8586L121.396 15.8505L120.186 17.9754L118.992 18.7179L116.4 18.0349L115.779 19.209L112.076 20.4503L110.127 20.1729L108.757 18.7016L108.543 17.8185L107.255 17.5602L106.526 16.5316L104.187 16.2912L100.864 15.333L95.4442 15.8051L92.6582 16.3926L91.5726 18.0194L91.4707 19.3453L92.9229 19.7623L93.4875 20.4055L95.3467 20.2132L97.0947 21.1667L98.8188 21.4562L99.6731 22.0404L101.772 22.5911L104.127 22.2045L106.26 22.5805L107.804 23.1636L108.251 24.0682L108.127 25.7001L106.566 27.0864L105.883 28.2353L103.929 29.2576L102.352 29.4163L100.086 30.309L98.4979 29.5921L96.973 29.7247L91.2561 33.1384L91.5744 33.8062L94.0721 34.3139L94.6706 33.0765L95.7421 32.835L95.8772 33.9903L95.2028 34.7503L94.7999 36.8879L97.9121 35.6574L98.8355 34.172L98.3277 33.371L99.8914 33.0349L101.002 34.3215L101.96 34.3012L104.618 35.7357L106.461 36.357L107.541 36.0728L108.634 37.3311L110.109 36.7411L112.046 36.4462L113.778 36.6362L115.025 36.0822L116.586 34.6361L117.541 33.025L119.975 30.7784L120.902 30.4238L124.902 30.4782L128.122 30.0191L130.091 29.9652L130.538 29.2471L132.526 28.9672L132.134 30.114L129.967 31.9951L129.588 33.7945L128.597 35.2854L127.43 35.8587L126.211 37.7373L126.051 38.9918L122.898 42.1866L122.097 43.5936L121.755 45.8709L121.178 47.5141L119.447 49.602L118.722 51.6583L117.033 54.3929L113.727 55.0363L111.226 54.1956L109.988 54.412L107.5 53.5169L106.015 53.3801L103.461 52.5429L102.82 52.667L101.132 51.8333L97.2776 51.1048L95.3017 51.312L93.0705 52.8518L90.656 53.2594L89.9435 52.9291L89.923 51.3495L89.119 50.8252L85.9576 50.8202L86.9474 52.7026L86.3075 53.1647L85.956 54.5694L87.1461 55.9583L89.1163 56.8068L88.5521 57.6835L86.7036 59.0349L86.7075 60.0396L85.6839 60.4041L84.8948 62.2782L85.1926 63.2922L84.3443 64.4512L85.5476 65.9487L87.1405 66.5392L87.5148 67.4612L87.4651 69.9514L86.7823 70.5827L85.5042 70.4108L84.947 71.9143L84.0021 72.9394L85.6173 74.3211L87.9752 74.6118L89.3781 74.1176L89.8557 75.2263L91.8626 75.6598L93.3665 75.0462L94.38 75.5306L94.9562 76.9321L96.5528 76.6128L97.7378 78.2654L100.712 79.3972L102.812 81.7896L102.295 82.4669L102.134 84.3311L103.625 84.1716L106.045 85.134L107.032 86.808L108.232 85.8891L109.373 83.9118L110.843 84.0116L112.099 82.7705L113.63 82.5654L116.203 81.1791L115.858 79.7974L117.337 78.0157L119.158 77.7618L121.262 78.3491L121.294 76.7577L122.622 75.9873L124.033 77.1584L124.899 75.4962L123.731 72.7568L124.286 71.6861L127.174 69.0137L128.338 69.3992L129.408 69.067L130.8 69.208L131.326 68.6356L133.02 68.3199L133.938 68.6441L134.755 70.1707L135.18 71.7639L136.403 72.6546L138.495 72.6661L139.434 71.728L139.189 70.6218L140.117 70.3477L138.546 67.4798L139.723 66.469L140.282 65.2782L139.555 63.6936L138.245 63.8152L137.706 62.9882L138.091 61.1057L140.883 61.457L143.274 60.6745L143.927 61.5898L145.707 62.3389L147.849 62.445L148.813 60.7514L147.507 58.6889L147.217 57.2337L147.735 56.2694L148.762 56.0323L150.803 53.9754L152.503 54.273L153.757 54.1093L154.302 53.1219L152.36 50.7849L150.741 51.3026L150.075 50.685L149.382 48.8024L150.118 44.872L151.001 43.7427L151.714 43.9479L152.664 42.7353L153.891 43.8596L155.196 43.9991L156.71 43.5421L158.2 42.5588L159.852 43.0344L162.215 41.9811L164.81 41.9857L167.202 40.9439L166.442 40.2922L164.216 40.0882L160.708 40.7778L159.157 40.6336L156.036 39.6475L155.878 40.6385L153.785 40.1052L152.345 40.4273L150.111 39.0907L150.113 38.0633L151.282 37.628L153.545 37.7194L156.282 36.4407L156.158 35.4798L153.612 33.8583L150.86 33.4201L148.448 33.5155L147.422 32.7709L146.602 33.8456L144.832 32.3753L145.009 31.0034L143.835 30.3227L144.695 28.9301L146.32 28.0344L147.23 26.7103L146.788 24.3227L145.705 23.4841L145.666 22.703L147.476 20.6416L148.593 21.2481L148.501 19.772L150.06 18.3529L150.231 17.1356L149.633 16.1084L147.12 14.3441ZM147.12 14.3441L148.533 13.3379L148.198 12.5183L148.514 10.725L149.758 9.71414L149.571 9.02246L152.735 8.61999L153.074 9.67144L151.779 10.3963L151.974 11.6861L147.12 14.3441ZM43.1004 208.979L43.6154 210.858L42.6358 211.216L41.0506 210.182L40.0425 210.55L39.1418 209.412L40.7892 208.613L41.5818 209.139L42.4835 206.47L43.5408 207.242L43.1004 208.979ZM99.8032 198.661L100.077 199.604L101.719 199.501L104.349 200.873L103.203 202.843L101.421 203.129L101.178 204.114L97.566 206.647L96.0636 206.357L94.6212 205.641L96.5308 203.831L97.1862 202.609L99.4373 200.325L98.9588 198.768L99.8032 198.661ZM19.6165 190.932L20.0239 192.679L19.1381 194.485L19.1585 195.943L17.7372 196.314L16.9527 197.532L15.4861 197.591L13.6454 198.394L12.8517 197.776L13.2689 196.906L12.6499 196.132L12.6838 194.214L14.0258 194.235L15.0787 193.51L15.6091 192.029L16.5799 191.441L19.6165 190.932ZM58.7092 189.503L60.1606 189.946L61.2228 189.688L63.9929 190.292L66.8209 189.993L66.6496 191.225L67.523 192.172L69.0274 192.807L69.6941 195.012L70.4446 196.014L69.7019 196.991L70.3452 200.264L69.3743 201.417L67.6103 201.823L65.4746 203.808L62.608 205.275L61.3067 204.897L60.8182 205.773L59.8775 205.529L59.8125 206.889L59.0518 207.759L57.946 207.945L57.0995 209.316L56.0649 209.739L56.3237 210.797L55.1802 212.524L54.7294 213.968L52.8573 213.491L48.7029 213.112L46.0191 211.843L47.3408 210.845L47.1534 210.106L45.6635 208.75L45.9376 207.098L46.6082 205.764L47.6163 204.73L47.1591 203.097L47.1891 201.837L47.867 200.092L50.241 198.533L49.9456 197.183L52.0842 193.827L52.0007 192.724L53.8489 191.358L54.133 189.852L56.9293 188.22L57.856 189.259L58.7092 189.503ZM74.9183 180.125L76.4527 180.177L77.4933 181.169L74.3574 183.002L72.3473 184.435L72.1286 182.635L72.9175 182.026L74.0876 180.195L74.9183 180.125ZM125.322 149.445L126.126 150.44L126.816 149.929L128.057 150.726L129.139 150.84L130.244 150.322L132.025 150.507L134.047 149.761L134.455 149.114L138.098 150.495L141.177 150.521L143.742 150.649L145.323 150.295L150.714 151.512L152.515 150.36L153.763 151.053L157.171 150.94L159.685 151.868L160.616 152.526L162.224 152.132L163.293 152.315L163.143 153.306L163.777 155.665L163.491 156.806L161.748 158.828L160.738 159.328L160.449 160.742L159.377 161.396L159.044 162.359L159.132 164.654L158.757 167.438L157.978 168.28L156.229 168.305L154.323 167.025L153.504 167.513L152.386 167.354L149.165 170.287L149.339 171.426L150.125 171.744L151.164 173.164L151.441 174.156L151.117 176.865L152.49 178.164L150.985 180.713L150.465 182.005L149.414 181.521L148.469 181.726L146.71 183.515L146.03 183.26L145.625 186.382L143.562 187.791L142.612 190.244L142.909 191.368L144.234 191.966L142.549 193.964L142.039 195.177L142.245 196.782L143.28 197.937L143.576 199.083L144.482 200.468L143.88 202.04L142.967 202.061L141.202 204.564L139.943 204.659L138.643 204.235L138.078 203.413L136.163 204.611L135.822 205.976L133.411 208.105L132.836 209.666L131.663 210.136L129.557 209.931L128.723 210.232L127.589 209.706L125.862 210.875L124.934 212.305L123.627 213.346L121.679 213.659L121.727 211.555L120.515 211.431L118.699 212.171L117.021 211.683L117.721 210.634L116.877 210.006L115.094 209.891L113.895 208.053L113.944 206.085L112.59 205.495L110.535 205.453L107.474 203.837L109.432 203.323L109.456 202.63L108.006 202.033L106.967 200.996L109.698 200.89L110.724 200.287L112.481 200.092L113.632 200.437L114.8 200.226L114.322 198.759L116.184 198.475L116.919 197.198L116.425 196.315L114.53 194.449L115.028 192.072L114.796 190.815L113.836 189.567L113.973 187.909L112.403 185.543L111.732 184.113L108.334 181.748L105.757 180.841L104.632 180.769L100.62 179.361L99.8083 178.196L99.8041 176.61L98.7809 175.344L98.7312 173.175L97.9525 171.346L98.1334 169.978L97.1165 167.809L95.9109 167.4L95.5649 165.731L93.9618 164.863L94.7078 163.943L94.689 161.897L93.2282 160.83L92.1491 158.562L92.2575 156.616L93.605 156.293L94.894 155.374L95.3892 153.922L96.1544 153.568L96.7966 154.631L98.4765 154.052L99.7147 155.28L101.023 154.833L103.488 154.977L107.955 153.524L109.656 152.469L110.997 151.13L113.179 151.475L114.61 150.953L116.199 150.846L118.435 150.003L118.502 150.747L120.797 150.972L122.369 149.587L123.545 150.055L124.389 149.159L125.322 149.445ZM261.716 148.242L262.85 149.306L262.083 151.388L262.425 152.553L260.171 156.341L259.482 155.64L258.395 156.545L257.023 156.694L256.803 155.523L255.91 155.196L254.856 151.918L256.417 152.018L256.763 152.588L258.096 152.381L257.931 151.288L256.114 150.858L256.857 148.588L259.198 148.536L259.583 147.766L261.716 148.242ZM16.6028 131.597L15.6858 133.07L14.317 132.692L14.8253 131.826L16.6028 131.597ZM51.5864 131.789L53.0332 134.187L50.2377 134.102L49.4909 133.652L47.1869 133.765L46.111 132.173L48.0567 130.157L48.6111 130.698L51.5864 131.789ZM9.13095 129.963L11.2741 131.476L9.82455 132.394L8.32208 132.185L7.1826 131.347L6.91468 130.201L9.13095 129.963ZM75.2252 125.338L76.5428 126.185L75.3097 126.934L74.1698 126.831L73.7691 124.936L75.2252 125.338ZM116.031 123.68L116.706 123.596L119.689 124.728L118.402 125.366L115.06 124.409L114.27 123.641L115.004 122.922L116.031 123.68ZM5.05642 122.942L6.51129 123.543L8.01991 125.897L8.68171 126.188L11.3881 124.881L13.0777 124.481L12.6803 125.582L12.8289 127.171L11.936 127.404L11.2592 128.687L10.1085 129.803L6.36584 128.31L5.58912 126.398L4.04289 126.732L3.64844 126.336L4.16315 123.425L5.05642 122.942ZM64.3006 124.351L63.2422 123.753L62.5451 122.544L64.1445 122.46L65.0985 123.24L64.3006 124.351ZM17.0525 116.784L18.1169 117.476L19.5622 117.231L21.0703 119.012L20.2429 120.079L17.352 120.451L16.7481 122.357L13.9202 123.014L13.0946 122.728L12.2315 120.299L11.4544 119.205L12.2875 117.62L13.9216 118.273L14.0737 117.182L17.0525 116.784ZM83.7734 67.1825L83.2376 68.4482L81.7213 67.9975L80.5451 68.0569L81.3043 66.638L83.7734 67.1825ZM177.133 41.7252L176.658 43.0839L176.833 44.3796L175.917 44.6155L175.287 45.4942L173.345 46.4761L171.386 46.5568L171.83 45.0264L174.248 43.341L177.133 41.7252ZM152.617 29.4043L152.463 31.0307L151.054 31.3213L148.566 30.2607L148.761 29.6759L150.911 29.5074L151.909 28.7153L152.617 29.4043ZM218.487 21.0259L217.733 23.0119L217.54 24.3291L218.541 26.681L218.897 28.1708L218.595 29.9149L217.708 32.1304L216.703 36.0092L222.283 33.9001L225.882 32.0732L230.745 30.3569L233.455 29.5753L236.852 29.2839L239.035 30.6452L241.728 30.3077L243.333 31.9027L242.527 33.7712L242.625 36.3096L242.984 39.2792L243.438 41.0867L245.924 40.3609L247.868 38.8584L249.039 44.2986L250.646 47.3993L251.198 49.1608L251.267 58.528L251.455 60.8371L251.501 65.1672L251.988 69.1986L252.775 74.4683L253.623 76.8614L255.545 80.2677L258.423 83.155L260.767 82.5778L262.045 83.3944L264.429 83.6946L265.476 82.683L266.635 82.653L267.315 85.4204L268.084 86.0239L268.379 87.4613L267.726 88.7408L267.609 90.9764L267.861 92.7932L269.255 95.1166L269.281 96.4303L271.055 99.3397L272.184 101.632L272.969 102.481L274.946 103.151L276.731 104.088L278.873 104.803L280.009 104.361L280.12 102.251L281.557 99.7209L284.155 98.4576L285.763 97.3137L286.643 93.9532L287.421 93.4996L289.218 93.5232L290.906 94.6876L294.995 99.2506L296.841 101.985L298.676 105.572L298.516 106.946L296.469 109.415L295.328 110.202L294.566 112.826L294.095 113.636L291.767 116.228L290.248 117.315L288.562 118.123L287.643 118.992L286.768 121.587L285.427 120.208L282.421 120.521L279.814 121.248L279.151 121.754L278.808 124.697L278.317 126.982L278.842 128.004L278.404 129.356L277.341 131.056L277.356 132.199L276.673 133.204L274.658 133.18L272.986 134.688L271.486 134.98L270.476 131.575L270.121 128.539L269.156 128.035L268.713 125.229L267.875 124.833L266.392 125.263L265.625 126.01L265.474 127.053L266.282 128.187L265.048 129.778L264.625 132.201L265.612 133.861L264.374 134.399L264.099 133.606L262.227 132.088L261.605 130.221L264.155 129.537L265.125 128.433L264.901 126.336L262.772 124.469L258.941 124.838L257.611 124.715L257.736 122.676L258.382 122.261L261.883 122.306L263.125 119.988L262.929 118.055L263.37 117.417L263.703 114.67L263.075 111.583L262.512 110.596L258.756 107.978L258.531 107.31L256.898 106.295L255.389 103.03L254.582 102.205L252.789 101.217L251.333 101.417L249.301 102.725L249.845 100.533L250.73 99.3668L250.27 98.3191L251.275 97.4949L252.501 97.9637L253.793 97.3935L254.005 96.4326L251.746 93.7299L250.125 93.2395L248.748 90.9867L247.262 91.114L247.239 89.6157L246.201 88.6271L246.727 87.8399L244.949 86.4986L243.147 86.6627L242.659 85.5939L244.313 85.503L242.269 81.5122L240.871 77.1634L239.155 75.3913L237.846 73.0657L237.692 70.6348L238.563 69.5417L238.501 67.2321L236.252 63.9336L234.406 63.6561L233.149 62.5898L233.378 61.4385L232.495 60.3338L229.631 59.2842L229.783 58.0845L228.115 56.4445L226.74 56.0311L225.425 54.7019L225.212 53.8584L223.453 52.6195L222.029 50.0972L221.967 48.1169L223.163 47.1539L225.066 47.1702L224.787 45.6859L224.145 45.4905L223.316 44.0796L221.508 43.0241L218.1 41.9686L214.362 41.6444L211.911 42.1743L211.033 43.2767L211.503 44.6315L209.657 45.4598L209.379 46.2679L209.694 47.7235L207.831 47.0866L206.267 47.2529L205.61 48.5233L204.956 47.3153L205.119 45.4657L203.685 45.4513L203.262 46.7379L204.634 48.1149L203.507 49.1668L203.964 49.998L202.741 50.8442L201.674 52.3624L199.647 52.9973L195.587 52.8048L195.449 51.5689L194.384 51.6162L193.688 50.191L194.303 48.7317L192.627 49.0448L191.651 48.3048L193.448 46.4054L193.642 45.3257L195.108 44.773L196.87 45.198L199.059 46.1108L199.378 44.8844L200.393 44.5342L201.764 41.7611L200.183 41.0519L200.912 40.0301L200.857 38.9514L198.568 38.8746L198.406 40.913L196.807 43.4525L195.492 42.2042L192.213 43.9464L190.254 44.0721L188.252 43.3507L187.594 41.7049L187.84 39.6375L186.894 39.2753L185.247 40.1409L183.975 39.2135L184.039 37.496L185.436 34.3302L186.421 33.7736L186.867 32.3865L185.458 32.5241L184.793 32.0749L182.254 31.8656L180 32.5853L179.476 31.9466L177.399 31.1545L176.511 31.2873L172.618 31.142L170.274 30.6262L169.416 31.094L166.253 30.2332L162.024 30.7743L159.808 30.3015L159.534 29.0492L158.186 27.3644L157.942 26.3469L158.624 24.3344L157.877 21.496L157.183 20.9012L156.98 19.7518L158.838 18.7381L158.708 18.0976L161.814 15.5238L163.942 14.8437L165.742 13.5129L166.522 11.251L166.39 10.1469L164.936 9.9764L164.689 8.38923L166.003 7.53584L166.342 6.60976L166.879 7.51721L169.713 10.7523L171.911 12.3132L174.158 13.3332L177.162 13.454L180.223 12.7421L182.59 11.1803L186.644 9.03064L188.899 8.58305L191.093 8.58244L193.875 9.38935L197.328 11.599L198.886 13.6362L199.009 15.619L198.809 18.021L199.839 19.1245L200.892 19.2119L205.826 18.3426L206.952 18.6501L212.025 21.0952L213.548 21.2183L217.956 21.1736L218.487 21.0259ZM162.201 6.37779L160.776 7.39789L160.492 6.52058L162.201 6.37779Z" stroke="white" stroke-width="5"/>
</svg>
