<svg width="115" height="147" viewBox="0 0 115 147" fill="none" xmlns="http://www.w3.org/2000/svg">
<path d="M47.189 134.685L49.1361 136.129L49.229 138.154L51.2015 139.225L52.1272 140.194L52.2535 141.527L50.8939 143.005L48.406 143.453L45.8015 142.757L44.0772 142.539L43.6034 142.894L41.4036 142.36L40.516 142.564L38.4351 140.359L38.107 139.334L38.7873 137.123L40.6931 136.042L40.6119 135.134L42.7058 135.569L43.2412 135.049L45.3876 135.23L47.189 134.685ZM23.135 98.3898L23.9395 99.7844L22.8427 100.916L22.9075 102.17L20.923 103.524L19.991 103.738L17.6907 102.277L17.2394 101.261L18.8346 99.0727L23.135 98.3898ZM97.6068 8.15776L97.1144 9.8647L96.0569 11.0405L96.2187 13.1097L95.3421 15.7066L93.8611 16.882L93.9795 18.6667L92.7223 20.7696L93.5481 21.3998L94.1183 22.8811L95.2845 23.1265L96.9215 22.701L97.8209 23.0437L98.7298 26.204L96.4161 25.9992L94.0131 26.7321L93.0578 27.8921L92.6951 29.4504L92.8959 31.816L95.2185 32.0434L94.9613 33.4356L96.9974 33.3882L97.0719 34.6991L98.3108 34.3936L99.7159 34.5735L100.495 35.1149L100.48 37.2486L99.5146 39.3416L99.6423 40.6553L101.384 41.3965L105.181 41.3464L106.737 44.3687L107.434 44.2691L109.043 44.9417L110.675 46.8337L111.068 49.1437L108.677 50.6871L110.836 51.7395L111.241 53.4084L110.339 53.9671L110.849 55.9896L111.351 56.7172L111.162 58.3742L110.265 57.9997L109.156 58.9605L109.279 61.8312L107.983 62.0906L107.625 65.1499L108.921 65.7062L108.602 67.7824L106.852 68.1658L106.681 69.0501L108.155 70.3823L107.562 71.0201L106.559 70.0761L105.912 70.1815L105.077 71.7821L106.123 73.7221L107.021 74.2151L106.79 75.8049L108.323 75.9536L108.9 78.0135L109.026 79.7109L108.033 80.358L104.686 79.0143L102.972 79.8532L101.695 79.4214L100.983 79.9489L101.375 82.4437L102.65 81.9967L103.983 84.3331L103.529 86.0501L102.859 85.6804L102.637 84.3921L101.835 83.8049L100.286 83.509L99.0189 83.6756L97.6217 84.7922L96.5312 85.0447L95.0133 87.4726L95.5694 88.3414L95.3288 91.474L96.1319 92.688L97.3215 93.6689L98.8622 94.1495L99.0978 93.0233L101.177 94.6519L99.8055 95.1446L101.546 98.888L100.755 99.4355L99.9357 98.9198L96.9456 99.6278L97.1878 102.087L99.0277 102.69L99.7941 103.313L100.827 105.389L101.005 106.577L101.878 107.835L102.092 108.879L101.117 109.811L99.0481 109.17L96.9995 109.694L96.8426 110.484L98.6739 111.322L99.2392 112.555L100.809 114.501L101.749 114.279L102.588 115.54L104.408 115.352L104.998 117.558L104.607 118.691L103.649 118.994L103.906 120.127L103.203 120.564L101.275 119.345L100.564 120.102L100.522 121.308L101.895 121.73L101.642 122.684L100.603 122.47L99.18 123.355L97.8434 123.532L96.2823 121.341L95.0779 121.526L94.5274 123.607L93.9739 123.936L94.6302 126.765L91.5454 128.01L91.1658 127.303L89.7341 128.253L88.5851 129.855L87.7585 130.021L87.586 131.746L85.5044 133.234L85.9648 134.694L84.6138 136.442L84.1247 137.959L83.2113 138.635L84.2526 140.455L82.1494 139.774L81.3586 140.122L79.8953 138.449L81.2911 137.127L79.9951 135.606L79.7114 134.688L77.126 134.645L75.098 136.288L73.9797 135.621L72.9247 135.834L69.9657 133.922L69.7881 133.205L68.5105 132.166L67.0592 132.072L64.3754 131.358L62.1336 131.766L60.5883 132.963L61.1536 134.05L59.8195 135.346L59.4028 133.749L58.1707 133.364L58.0544 132.528L55.7752 131.958L56.3967 130.684L55.6983 129.124L53.3493 128.88L51.6712 129.632L49.7602 128.66L47.8954 128.496L46.1874 127.777L44.6103 126.686L42.9763 127.547L41.753 127.191L39.0394 125.414L38.8351 124.579L39.3863 123.358L40.4132 122.427L40.8914 120.254L40.6432 119.483L39.3654 118.489L38.6967 115.033L39.3115 114.594L38.9721 112.488L38.5208 111.455L38.9828 109.817L38.7053 107.893L39.751 107.361L39.96 106.507L39.1188 104.375L38.3436 103.979L37.7407 102.148L39.8931 100.866L41.6741 98.878L42.5572 98.368L42.592 96.5032L42.9865 95.9393L42.8419 94.3221L42.0469 93.119L39.9672 91.7738L37.2566 91.6584L36.3616 92.5978L37.3263 94.7825L36.6411 95.2579L33.9389 94.8521L32.2694 95.658L32.3955 96.8112L33.1986 97.7709L32.1013 98.729L31.0276 98.607L31.6556 96.4883L30.9057 95.7106L30.0631 96.4956L27.0508 95.2273L25.2726 94.936L23.8838 92.1711L24.3033 91.116L23.7981 89.7012L22.8465 89.2242L23.0204 88.3868L22.1435 86.3012L22.0615 85.2837L23.0185 84.4799L22.5124 82.7389L22.4892 80.6754L21.6687 79.862L21.5057 78.2279L22.6477 77.4596L22.96 76.1354L21.9055 74.87L21.5582 73.3778L21.8133 71.4599L21.515 69.5726L21.9064 68.9368L20.8554 67.0862L21.0063 65.5133L21.9196 63.4846L20.6873 60.0499L19.2295 59.3975L19.1935 58.3444L17.5593 57.9111L15.3746 58.6866L15.1346 59.8946L14.0917 61.1797L13.6225 59.6146L14.55 58.7291L13.9851 56.6833L15.1306 56.4845L15.5376 55.5495L13.9695 53.1472L12.5754 51.4875L10.3853 50.4673L8.16351 48.0904L7.51739 48.6309L6.13785 48.3265L6.82019 46.8773L6.2075 45.7176L6.12067 44.4541L4.12891 43.4268L4.74322 42.1264L6.43781 39.5782L7.77184 38.3869L9.34663 34.4909L9.46016 32.8465L9.92821 32.1718L12.9886 31.0144L14.0835 30.4034L14.9946 29.1071L14.8808 27.4672L16.2069 26.328L17.4061 24.4275L17.0685 22.3214L16.9218 19.4724L17.3165 12.5444L17.1214 11.2352L18.3533 8.55614L19.777 4.70648L20.5865 3.11719L21.196 3.13793L22.3967 5.10864L23.9228 5.97127L28.2051 6.97033L32.3871 7.29134L36.5826 7.87915L41.0289 9.19967L42.6222 8.93681L44.3742 9.39666L46.2419 9.51871L47.878 10.0329L49.8071 11.0123L51.7155 12.3867L52.3749 12.2062L54.6158 9.92723L58.3599 9.83169L60.6133 11.1133L62.3283 11.3492L64.3515 10.9596L65.8487 11.1627L67.3232 11.9811L68.7241 11.911L69.9725 13.0587L71.5719 15.8121L74.239 16.7639L77.7795 18.9168L81.1202 18.6041L83.3641 18.5905L86.6221 15.6593L89.0575 14.4297L91.7026 12.5721L95.0994 9.251L97.6068 8.15776Z" fill="#1E1E1E" stroke="white" stroke-width="5"/>
</svg>
