<svg width="287" height="152" viewBox="0 0 287 152" fill="none" xmlns="http://www.w3.org/2000/svg">
<path d="M7.11483 144.972L6.72189 145.996L7.73495 146.56L9.00479 148.635L6.0803 148.422L4.6058 147.151L3.67969 145.369L3.97558 144.739L5.53691 144.93L6.2745 144.359L7.11483 144.972ZM282.823 59.1727L281.329 60.1789L279.457 62.9447L278.44 64.0962L276.829 65.0891L274.994 65.2335L270.349 64.8947L268.541 65.0936L264.34 66.5606L258.272 69.3294L256.654 70.7751L255.97 72.168L254.41 73.9882L252.131 75.4734L252.005 77.2943L251.226 77.6694L249.523 77.1758L248.164 75.1087L246.797 71.3536L244.626 69.2357L243.144 68.5031L241.171 68.9507L240.173 69.8856L239.668 71.7495L239.603 74.8548L240.348 76.4857L242.052 78.1463L242.767 79.603L243.191 81.5799L243.033 82.9775L242.126 86.4729L241.893 88.1371L241.141 89.9629L239.481 92.9319L239.656 93.7403L241.709 95.816L242.932 97.6665L243.244 99.4153L240.867 101.219L239.383 102.004L238.531 102.966L240.098 104.247L241.769 104.852L244.707 106.355L245.03 107.691L244.738 109.021L243.691 110.726L239.788 114.013L238.88 115.577L238.486 116.945L237.014 118.539L233.148 118.536L231.927 118.019L230.746 118.063L227.92 118.821L227.041 116.373L225.867 115.971L222.756 115.618L220.769 114.218L219.073 113.337L216.958 110.708L216.459 110.915L214.141 109.924L209.338 108.76L208.419 109.49L207.144 113.103L206.714 117.471L207.415 122.017L207.422 127.506L207.553 129.963L206.292 131.785L203.966 132.658L198.565 133.134L197.153 133.624L194.955 133.913L190.548 133.987L190.09 134.987L189.782 139.502L189.495 140.183L188.901 140.268L186.115 138.694L183.916 139.123L181.952 137.899L178.552 136.345L177.224 134.569L173.419 133.051L172.524 133.102L168.95 131.914L163.902 129.381L161.292 128.897L158.399 129.056L155.956 131.135L155.26 132.003L153.71 132.762L153.213 133.863L149.821 134.463L149.174 134.907L146.801 134.817L144.054 136.103L141.647 136.156L140.772 135.893L138.559 136.176L136.633 137.915L135.102 137.571L131.319 135.452L129.449 133.691L126.509 131.587L124.574 131.095L121.582 129.027L119.523 128.141L118.202 129.005L117.405 128.848L115.595 126.718L114.89 122.84L113.486 118.972L113.231 116.597L112.416 113.432L111.526 111.962L111.158 110.038L109.868 109.72L106.712 109.668L103.228 110.241L102.315 109.871L100.15 110.284L99.0567 109.915L96.5226 111.197L95.4435 111.077L95.0442 110.218L90.847 110.611L88.3292 109.73L81.9754 106.497L77.7751 104.78L77.0046 105.39L75.8129 107.335L74.053 109.152L71.8858 109.47L70.9241 110.666L70.4805 112.725L70.6997 114.022L71.8924 115.153L77.9897 114.237L80.0172 114.68L83.0983 116.445L84.156 116.567L85.7848 115.728L88.1259 117.578L91.2646 121.282L91.4886 122.27L92.4411 123.318L91.6722 127.613L92.1603 129.608L91.6572 130.143L90.1271 130.177L87.7436 132.31L84.9036 133.416L81.4353 135.888L79.3214 136.982L78.1443 136.687L75.7329 139.545L73.9011 139.346L71.9537 139.938L70.5463 139.651L69.5829 139.926L66.9023 139.763L64.7332 141.311L64.0074 139.728L63.3262 139.156L61.4847 138.705L56.1078 139.423L54.1185 139.223L50.6545 139.62L49.4249 138.986L47.3081 137.26L45.1838 137.504L43.4708 138.618L42.0769 138.819L40.9444 138.512L39.9234 137.455L38.5616 138.482L36.9626 138.908L35.4954 140.403L34.6518 140.282L32.2271 141.045L30.2698 141.957L28.8535 141.732L27.5017 140.999L26.2409 141.007L23.2357 142.324L21.7217 142.481L19.6902 143.357L17.1244 145.682L15.411 145.916L14.0217 145.516L11.9791 146.113L13.2553 142.791L14.3507 138.012L14.4446 134.969L13.8938 133.852L14.9928 130.026L16.0623 127.875L18.2522 126.43L20.2712 124.077L21.1537 122.04L21.379 119.319L22.1126 118.502L22.7655 116.917L23.7284 117.918L25.6266 118.646L27.3489 118.767L30.0315 117.961L33.7157 115.986L34.1556 113.419L37.4878 112.656L38.8292 112.971L42.4689 113.301L45.0112 112.789L46.9557 113.406L48.6615 112.813L48.8259 111.832L48.2701 110.723L50.0074 108.63L54.8472 107.386L55.7016 105.61L57.7554 104.261L59.5651 103.876L60.9226 104.02L61.2466 104.82L62.6402 104.448L63.9995 104.793L65.5243 104.46L65.3984 102.238L64.9024 101.363L66.5568 100.602L69.0913 100.023L69.5883 100.343L70.9341 99.4658L75.5946 99.0966L76.8627 97.6654L78.2983 97.6459L82.0959 96.9525L84.8486 95.7478L85.8264 95.9828L87.186 95.0172L88.566 94.727L89.5598 93.9202L89.7556 92.2755L92.0849 91.1848L94.5006 92.7744L96.135 92.4184L98.0184 93.1615L99.2392 92.6872L100.122 88.5798L101.043 87.6712L102.978 86.7371L105.195 86.8243L107.251 86.2581L108.657 84.3056L111.553 83.0066L112.612 81.407L112.67 78.6509L112.023 75.5074L113.903 75.0807L116.197 73.8371L119.098 71.228L119.865 71.1054L122.039 71.6348L122.79 72.4136L124.265 73.0134L125.495 72.2678L127.926 73.4213L129.672 74.3733L131.561 74.1848L133.792 73.5867L135.444 72.4566L135.967 71.0062L138.026 68.2295L137.779 67.1905L137.862 62.3794L139.88 55.4113L140.863 53.198L140.988 51.623L140.392 49.0994L139.513 47.6548L140.023 46.3448L140.923 45.5316L144.482 43.7787L146.191 42.2222L150.126 39.6047L153.493 37.0792L156.552 33.4982L158.033 31.12L159.519 30.1414L160.417 30.1097L163.641 30.7053L167.901 30.6645L170.837 29.4606L174.326 30.0316L177.424 30.2487L180.841 31.1756L184.25 33.2618L187.787 32.869L189.412 32.926L190.748 32.4704L195.245 32.5361L196.407 32.168L197.807 30.3958L199.517 26.2832L206.177 22.1591L208.64 20.8072L210.207 20.2987L211.742 20.2083L213.649 20.5557L214.8 20.0795L219.239 20.543L220.84 19.5195L221.826 17.9519L223.779 17.1059L225.024 16.1742L226.189 14.5023L229.664 13.9903L230.645 12.4916L230.863 11.1364L231.932 10.6756L234.414 11.4885L236.547 11.5487L237.978 10.8907L240.057 10.7512L241.188 10.1929L244.865 10.8396L247.398 10.4995L248.025 10.7724L250.251 10.718L251.188 11.8069L252.798 12.7018L253.921 15.2027L255.166 16.7528L256.647 20.3873L257.359 20.7683L257.867 22.3526L258.535 22.8769L259.847 25.1621L262.415 25.807L263.864 24.3686L264.76 24.6281L264.135 26.3038L265.012 26.5578L265.947 28.2107L268.041 29.3172L269.066 29.5645L269.814 28.9496L271.314 28.9532L272.357 30.0646L275.784 29.963L276.58 30.4182L278.811 30.4283L280.046 35.8364L280.638 36.9398L278.921 40.8576L279.377 43.012L278.294 43.3973L276.81 45.2819L277.206 47.8374L278.471 52.2037L279.916 55.1267L281.317 57.4376L282.823 59.1727ZM260.782 3.48825L261.523 4.03503L260.722 5.72062L259.437 5.97046L258.754 7.01146L257.971 6.22742L256.709 7.19271L256.337 5.86477L257.346 5.51393L258.051 3.67738L259.913 3.10547L260.782 3.48825Z" fill="#1E1E1E" stroke="white" stroke-width="5"/>
</svg>
