<svg width="266" height="189" viewBox="0 0 266 189" fill="none" xmlns="http://www.w3.org/2000/svg">
<path d="M262.413 138.471L260.381 139.888L258.004 142.448L256.506 146.236L256.431 147.87L254.87 152.222L254.842 153.298L255.467 154.432L255.511 155.906L253.228 158.039L251.025 158.848L247.397 161.052L244.293 161.758L242.167 162.828L240.371 163.301L237.793 163.547L235.489 164.203L230.304 166.406L229.127 166.479L227.492 166.024L225.543 163.877L224.386 161.698L222.043 158.013L220.299 156.326L219.937 155.36L219.409 152.037L218.868 150.855L213.694 148.235L212.536 147.836L209.172 150.529L206.831 151.999L204.421 152.416L198.248 155.8L195.915 156.853L191.541 157.185L187.256 158.021L185.21 157.287L182.545 158.482L181.426 158.195L178.912 155.681L176.299 154.344L173.959 154.238L172.264 154.676L169.909 155.753L168.938 156.926L167.998 158.965L165.404 167.753L164.394 169L161.724 170.107L160.467 171.279L157.19 172.461L153.191 174.802L151.467 173.32L150.648 172.26L148.273 170.294L144.199 168.119L142.976 167.955L141.148 169.428L139.868 171.427L137.746 173.385L136.726 175.933L136.2 176.6L133.517 177.512L130.001 179.193L127.25 181.098L123.723 182.789L122.385 184.643L120.932 183.104L120.389 181.322L119.209 179.615L116.712 178.999L115.646 177.162L113.646 175.682L111.91 174.98L109.905 173.709L108.885 173.638L105.269 174.092L103.743 172.848L101.342 172.458L98.0122 170.429L96.7798 168.775L95.4732 167.562L94.3437 165.092L93.3138 163.614L91.4545 162.293L90.3827 162.284L89.0813 161.211L88.4863 159.264L87.9281 159.09L84.5759 156.049L83.913 153.985L82.8933 152.994L80.811 153.243L79.5101 151.533L79.2576 150.413L77.337 147.629L77.2194 146.857L75.4958 144.46L72.7673 141.996L71.6424 138.485L70.0323 136.328L68.6924 133.113L68.4854 131.292L66.8502 129.664L65.3073 129.444L62.4814 129.972L60.2812 129.048L59.9047 127.909L57.3451 125.333L56.3088 125.178L53.9268 125.852L51.2755 127.599L47.882 127.38L46.9593 123.87L46.7838 122.272L45.8813 121.178L44.8474 120.639L42.1919 119.943L40.3963 118.283L38.7205 117.942L37.9055 116.066L36.6268 113.893L35.5514 113.276L33.415 110.649L31.9352 109.334L31.695 108.615L28.8704 107.577L27.3053 105.636L26.2104 105.539L24.6907 106.141L24.1322 105.866L23.2254 103.413L21.506 101.627L20.6364 98.8965L18.5923 95.6836L17.5087 94.7028L15.1648 93.7932L11.5471 90.4686L9.89615 86.7661L7.46037 85.9722L6.54807 84.2864L4.48828 84.1818L4.77501 83.501L5.08321 78.9857L5.54162 77.9858L9.94816 77.912L12.1465 77.6236L13.5586 77.1333L18.9588 76.6568L21.2851 75.7838L22.5467 73.9617L22.4148 71.5048L22.4078 66.0164L21.7072 61.4698L22.1371 57.1023L23.4127 53.4887L24.3311 52.7596L29.1346 53.9236L31.4523 54.9141L31.951 54.7067L34.0658 57.3359L35.7625 58.2175L37.7495 59.6175L40.8603 59.9697L42.0342 60.3722L42.9137 62.8201L45.7394 62.0618L46.9201 62.0181L48.1415 62.5347L52.0069 62.5384L53.4795 60.9442L53.8736 59.5762L54.7814 58.0123L58.6841 54.7255L59.7314 53.0205L60.0233 51.6904L59.6998 50.3537L56.7621 48.8513L55.0917 48.2464L53.5247 46.9653L54.376 46.0029L55.8604 45.2187L58.2372 43.4145L57.9255 41.6656L56.7021 39.8151L54.6493 37.7395L54.4746 36.9311L56.1338 33.9621L56.8857 32.1363L57.1193 30.472L58.0259 26.9767L58.1841 25.5791L57.7601 23.6022L57.0448 22.1455L55.3408 20.4849L54.5962 18.854L54.6614 15.7487L55.1661 13.8847L56.1643 12.9499L58.1372 12.5023L59.6192 13.2348L61.7903 15.3527L63.1576 19.1079L64.5166 21.1749L66.2197 21.6685L66.9985 21.2935L67.124 19.4725L69.4032 17.9874L70.9635 16.1672L71.6475 14.7743L73.265 13.3286L79.3332 10.5597L83.5338 9.09279L85.3419 8.89383L89.9876 9.2327L91.8224 9.08825L93.4334 8.0954L94.45 6.94386L96.3218 4.17805L97.816 3.17188L99.8612 4.73466L101.816 5.23647L104.676 5.26569L105.573 4.96497L107.009 5.34746L107.966 6.24809L109.279 6.71446L111.246 6.66434L111.217 8.30981L112.211 8.72969L113.565 7.57043L114.151 8.34221L115.415 7.63297L115.965 8.99422L117.734 8.18458L117.831 6.85331L120.124 8.32086L119.653 9.66031L120.487 10.0526L119.886 11.4157L120.763 13.3702L121.48 14.2242L121.002 16.2102L121.738 17.2129L121.529 18.9825L118.874 20.0125L120.193 22.96L118.869 24.2275L118.534 27.0024L117.744 27.9347L117.462 31.1499L118.199 35.9841L118.409 39.1619L119.665 43.4948L120.224 44.7818L121.615 45.6286L121.679 47.7801L122.904 48.5506L122.974 49.3286L124.588 51.705L126.118 52.0245L126.627 53.3921L127.986 52.6138L129.117 53.4596L126.793 55.2539L124.077 55.8775L124.211 58.1916L124.858 60.7115L126.533 64.4209L128.783 68.7138L131.709 73.0883L132.235 74.1296L134.486 77.0691L136.759 79.6452L140.244 84.057L141.847 84.3624L143.271 84.2139L145.417 86.7081L149.998 87.7379L152.546 89.8296L154.13 90.5818L156.646 91.02L157.974 92.4692L158.723 92.1876L162.195 92.9414L161.907 94.0332L162.226 96.4724L161.568 97.7494L161.678 99.3885L162.787 100.71L164.427 101.603L167.593 100.224L167.974 101.478L168.689 102.007L168.38 104.403L169.97 104.158L171.396 104.685L172.581 105.755L172.447 107.144L174.481 107.325L175.747 108.337L177.165 107.497L179.622 107.413L181.623 110.042L182.839 110.628L184.443 110.188L184.25 111.288L186.453 112.966L187.739 112.985L187.796 115.085L188.204 116.374L189.459 116.279L189.997 117.562L189.399 118.952L190.59 119.991L191.149 117.84L192.259 115.834L193.646 114.514L194.522 115.506L196.282 116.205L197.729 116.395L197.076 118.782L195.075 122.171L196.399 124.022L197.079 126.66L197.083 128.878L199.172 129.412L199.874 128.244L200.958 127.461L203.781 127.022L204.54 124.763L206.186 124.799L206.285 126.341L205.87 127.267L206.339 128.567L208.193 129.386L209.527 129.014L210.321 129.314L213.484 133.19L216.497 135.203L217.909 135.111L219.76 135.71L221.643 136.816L223.423 136.251L224.298 134.178L225.604 132.285L226.625 132.647L226.133 134.065L228.193 134.303L230.265 135.24L231.495 133.858L233.474 134.575L233.91 136.848L235.602 137.506L236.934 137.126L237.022 135.569L238.901 135.531L241.424 136.44L242.852 136.713L244.395 135.835L246.66 133.057L247.186 131.329L247.937 131.295L249.01 129.938L249.996 130.633L251.871 129.508L251.414 128.571L251.877 126.926L253.374 126.163L253.421 127.345L254.573 129.221L255.347 129.791L256.461 128.983L257.139 129.608L257.127 130.958L258.664 131.394L260.001 132.709L260.511 134.513L260.549 135.887L261.538 136.745L262.413 138.471Z" fill="#1E1E1E" stroke="white" stroke-width="5"/>
</svg>
