<svg width="522" height="392" viewBox="0 0 522 392" fill="none" xmlns="http://www.w3.org/2000/svg">
<path d="M518.208 138.227L517.537 140.764L516.341 141.96L514.749 145.084L514.167 145.597L512.171 146.094L510.606 147.937L509.711 148.518L506.952 148.603L505.775 149.626L503.105 149.835L501.248 150.354L499.699 151.445L498.596 153.381L497.411 153.38L496.532 152.386L495.097 150.008L492.441 148.37L490.784 147.793L489.085 145.402L485.479 145.107L482.331 145.628L482.032 146.658L482.117 148.824L480.61 151.661L481.368 153.941L481.315 155.088L480.304 156.164L478.606 160.341L477.1 162.7L477.448 164.845L477.073 166.976L475.8 167.512L475.034 165.596L474.066 164.024L472.684 163.509L470.227 163.57L467.159 161.456L466.275 161.201L463.165 161.964L461.501 163.018L460.195 164.258L457.856 168.348L456.572 169.983L454.242 172.063L451.392 172.963L450.208 173.02L448.599 172.028L447.658 170.322L444.731 168.896L440.781 168.517L438.262 169.26L437.646 169.959L436.783 172.187L435.446 172.664L432.434 172.06L431.622 172.509L433.357 174.784L434.388 176.722L434.525 179.071L434.225 179.933L432.558 182.224L431.045 186.241L430.516 189.083L429.663 191.028L430.277 191.665L433.657 193.573L435.458 195.015L436.279 196.491L435.375 197.586L431.173 198.833L430.6 199.238L429.896 200.944L427.768 204.191L426.491 205.695L426.613 207.252L424.783 208.887L424.694 210.108L425.218 212.311L424.792 213.979L423.132 213.719L422.118 215.08L421.165 215.199L419.869 212.963L417.986 210.636L415.072 209.628L413.699 207.831L412.796 207.411L410.112 207.256L409.541 206.81L408.593 204.475L408.801 203.298L407.925 202.237L406.244 202.593L404.604 202.013L403.34 200.567L402.051 199.629L400.291 199.218L395.676 200.475L394.176 200.429L392.272 199.227L391.492 199.346L388.129 200.919L387.459 201.954L387.754 204.164L386.655 206.331L387.136 208.01L386.895 208.804L388.101 210.293L389.19 212.951L388.247 214.284L389.256 216.976L389.406 220.932L388.826 223.932L388.041 225.475L386.162 226.551L382.503 226.914L382.256 225.723L380.423 224.019L377.027 223.099L375.36 221.271L372.277 220.573L366.544 220.265L364.482 219.802L363.327 220.826L366.258 222.045L369.626 224.589L370.473 225.955L370.663 229.228L371.266 230.685L372.802 232.65L373.945 235.553L375.932 236.82L377.271 238.052L379.032 239.177L379.295 239.722L379.223 242.828L378.528 246.706L377.452 249.168L378.717 251.312L377.476 252.369L378.977 254.074L378.35 256.293L376.046 259.063L374.421 260.133L374.292 261.145L375.45 262.427L375.326 263.633L374.189 265.718L374.635 267.439L376.54 267.979L377.341 268.65L377.439 270.184L378.354 271.768L380.854 272.408L380.702 273.683L379.289 276.407L377.62 278.629L377.095 280.685L375.329 281.153L372.677 279.957L367.527 279.815L365.989 279.264L365.054 279.356L365.05 280.766L365.71 283.204L364.606 285.352L361.932 287.089L358.8 289.407L354.322 291.913L351.19 295.767L348.81 298.087L347.684 298.708L344.604 298.911L340.954 300.641L339.864 301.606L339.177 302.821L336.986 304.973L334.642 306.027L331.897 307.885L329.722 309.652L326.702 310.912L324.224 311.43L322.329 311.013L320.263 313.71L318.607 316.561L315.196 320.131L313.415 322.361L310.662 325.436L309.07 328.485L305.714 331.401L305.16 332.554L303.29 333.685L298.357 331.402L297.18 331.28L295.946 331.722L294.9 331.297L294.424 329.625L293.043 328.293L291.686 329.91L290.305 330.045L289.083 329.529L286.854 327.556L285.453 327.6L282.478 331.297L281.624 332.032L280.395 334.591L278.205 337.519L276.364 339.281L273.779 340.574L270.882 340.045L270.139 341.301L270.964 344.816L270.408 347.252L268.984 348.449L267.065 349.341L262.592 351.754L260.205 352.414L257.625 354.18L256.677 355.565L256.01 358.263L256.773 360.108L258.046 360.915L260.527 360.576L262.077 361.055L264.717 359.961L265.099 360.577L264.467 362.752L265.164 363.687L266.407 364.334L268.113 364.505L270.948 363.73L271.324 364.152L268.444 367.083L268.322 368.711L267.335 370.756L265.925 375.103L265.5 377.104L264.514 379.853L263.172 386.345L262.307 388.408L260.782 388.189L256.333 386.772L255.882 386.348L257.797 380.008L250.932 378.491L251.796 375.203L249.592 374.225L244.137 372.801L236.524 370.426L234.432 374.773L233.557 376.107L228.17 372.88L223.13 370.032L220.722 367.919L213.911 366.68L211.524 366.613L205.596 367.078L202.658 366.51L197.56 363.597L196.126 362.897L191.621 361.146L185.952 358.082L184.257 356.504L180.865 352.21L177.544 349.017L173.539 347.177L170.688 344.835L166.897 343.085L164.762 342.469L164.285 341.13L164.275 338.498L163.993 337.871L161.203 337.807L159.38 337.288L157.989 337.597L157.122 337.058L156.928 335.145L156.433 333.814L157.109 331.664L155.66 327.744L155.969 325.596L153.578 319.74L156.002 317.289L156.278 316.228L155.266 313.113L154.005 311.499L152.592 313.395L151.188 312.036L149.622 310.98L147.256 310.453L145.282 309.434L144.031 307.071L143.23 306.825L141.939 307.835L141.521 305.129L139.377 303.676L139.166 302.492L136.789 300.092L136.239 297.583L134.835 296.19L133.316 295.921L130.88 295.991L128.077 297.396L125.598 299.436L124.784 301.112L122.725 303.596L119.066 311.129L116.598 313.064L114.244 313.855L111.162 314.04L109 313.1L107.242 312.012L105.011 312.137L104.467 311.551L103.856 308.656L103.135 307.189L101.598 305.815L99.3713 304.547L94.2592 300.41L90.8656 299.438L88.7919 299.303L87.746 298.878L83.1697 295.632L80.4076 294.637L79.199 293.878L77.8113 292.175L76.0534 288.885L74.6905 287.291L73.818 286.852L68.9941 285.492L66.665 285.081L61.1046 286.387L59.5075 286.009L57.9845 283.627L55.4664 282.073L51.6414 281.133L50.1642 278.734L48.6764 277.367L46.6489 276.653L43.0745 276.752L41.4795 275.889L40.9297 275.038L40.1993 272.245L38.4553 268.991L35.1158 266.751L33.9085 265.524L30.7306 263.878L30.0933 263.03L28.6304 259.953L28.0902 259.328L24.3646 253.305L21.8358 250.112L20.1057 248.32L18.117 245.162L17.3025 244.455L13.7629 246.742L10.9119 248.103L9.00672 247.505L6.55875 245.997L3.98889 245.361L3.74535 244.779L3.37109 239.694L3.72027 236.927L4.27074 235.323L7.05977 231.513L9.23703 230.488L12.0228 228.372L15.187 227.29L17.4369 227.043L21.3055 225.064L23.6024 225.101L25.5677 224.203L26.9428 223.133L29.8098 222.27L30.4627 220.489L31.1153 216.512L33.7673 214.054L35.0635 211.837L37.5473 210.006L31.5618 209.912L32.8443 209.202L34.0854 209.345L37.189 208.665L39.9706 207.692L40.9952 207.589L41.9673 208.256L43.9168 208.727L45.4751 207.256L47.0095 206.898L52.1954 201.238L54.287 200.198L55.8567 199.958L58.4391 200.325L61.7347 202.189L65.9102 202.133L66.6364 201.949L69.7194 199.61L71.5774 198.548L72.8887 199.007L73.8297 200.676L76.5272 202.597L77.6346 202.052L79.8999 202.778L81.0359 202.851L82.6137 201.19L86.5763 198.745L87.795 198.386L89.9562 198.435L92.0715 197.757L93.9044 197.978L95.6835 198.729L97.1167 199.763L102.02 199.029L105.014 198.203L107.332 199.15L109.662 199.778L110.603 200.555L113.084 201.581L114.885 202.612L116.477 203.149L117.944 204.418L124.568 209.058L125.296 208.24L125.253 206.732L126.678 205.608L126.683 203.588L126.145 201.094L126.661 198.277L129.554 191.625L129.735 189.423L128.605 184.646L127.777 183.085L126.753 179.959L125.317 177.702L123.013 175.724L121.137 173.668L120.437 172.392L119.36 168.952L116.471 166.37L115.773 163.731L116.15 160.275L117.002 159.362L118.533 156.527L118.572 154.791L118.992 153.343L118.471 152.683L118.545 151.152L117.975 149.305L119.769 146.712L120.368 146.595L122.741 147.461L126.439 150.623L129.974 150.691L132.07 149.924L132.761 147.844L134.068 146.11L135.76 144.637L136.418 142.352L137.562 139.869L138.814 139.031L139.523 138.015L146.059 137.272L148.498 136.701L152.099 135.214L154.175 135.263L156.183 135.993L156.479 136.998L154.819 139.583L154.627 141.33L153.988 143.39L156.855 143.954L158.695 146.006L161.975 147.068L163.808 148.311L165.08 148.206L166.608 147.331L168.042 144.249L168.489 141.349L169.074 139.481L170.065 138.184L174.276 138.63L175.505 139.163L176.672 140.431L178.709 141.2L181.624 141.646L184.109 142.93L187.012 143.865L189.246 143.35L190.471 142.534L193.617 138.979L193.42 137.174L194.701 136.518L196.462 136.531L198.575 137.255L200.87 136.26L202.137 136.15L201.665 133.181L201.833 132.043L202.703 131.955L206.269 133.056L207.462 132.472L209.248 130.326L211.167 128.768L211.349 127.824L210.23 125.294L210.543 124.247L211.725 123.563L214.455 123.596L217.672 122.235L219.772 121.932L221.849 120.689L222.904 120.794L226.268 122.142L227.461 121.945L229.567 120.799L231.603 120.846L236.083 123.651L236.953 123.641L237.52 122.381L238.206 117.466L239.021 115.3L238.93 113.566L240.286 110.291L240.072 108.595L240.554 106.431L241.539 105.761L242.04 103.931L242.955 103.244L244.252 100.101L243.456 97.1501L242.748 95.6982L242.163 93.4114L241.667 93.0069L236.614 93.1782L235.195 92.4342L233.124 90.6877L231.008 89.2559L228.86 85.2526L227.113 83.3212L224.679 82.4639L223.332 81.0969L223.318 77.6788L223.921 72.3942L224.45 70.5761L226.48 66.4442L229.91 60.0643L230.215 58.4088L229.023 56.0609L230.641 53.3242L230.24 51.979L227.934 51.0817L227.814 49.2681L226.872 48.062L227.443 46.2125L225.949 43.7468L223.427 42.6807L223.134 41.4244L223.708 39.8962L224.72 40.2291L226.831 40.1046L228.352 41.2976L229.292 40.6646L231.239 40.1996L232.555 39.0956L233.968 36.5959L233.755 34.7163L232.059 30.3964L234.835 29.5616L235.499 26.3196L237.576 26.2327L239.218 23.5565L240.785 23.297L241.798 21.752L240.829 19.9134L241.329 19.1023L242.928 17.8934L244.814 18.982L250.294 20.5432L251.439 20.0342L252.643 17.3687L255.128 16.1197L256.654 13.6669L256.767 11.216L257.291 10.4881L259.122 10.5475L260.997 7.50948L262.625 7.77726L263.008 6.09082L264.471 5.50013L265.741 5.78701L266.352 4.34441L267.214 3.71484L269.165 5.83156L271.556 5.74731L273.084 6.74456L273.607 8.30216L272.298 9.33635L272.169 10.9205L271.435 12.5171L272.383 14.2534L274.456 14.6116L276.103 16.3559L279.351 17.7107L280.718 18.9193L282.128 19.6219L284.514 22.1812L284.643 24.0408L286.733 25.8499L286.971 26.4943L285.649 28.9524L285.043 31.7963L283.967 32.3533L283.442 33.61L283.782 35.1471L285.619 35.1076L285.315 38.7219L286.37 39.9468L286.703 42.3363L287.438 43.2312L288.279 43.237L289.118 41.9242L292.798 41.0963L293.529 39.1625L294.331 38.4932L297.673 37.45L299.137 36.5944L301.059 36.9163L301.544 35.9628L303.828 33.3229L306.07 33.8206L306.835 34.573L309.36 34.1081L311.876 35.7342L313.266 35.9486L313.942 38.0136L314.756 38.526L315.356 39.7212L316.462 39.5913L319.239 38.2271L318.831 36.1145L320.712 35.6848L321.367 34.4376L322.637 32.9872L323.774 30.7267L324.904 29.8735L325.939 28.1275L327.209 27.2521L329.13 27.6781L330.822 27.6713L330.985 26.0074L332.133 25.6007L335.139 25.8431L336.461 24.7937L339.264 26.0881L339.678 30.1659L341.215 31.5831L344.791 31.9634L345.378 31.5114L347.295 31.6837L350.487 33.361L352.133 32.7599L353.392 31.4648L354.719 33.5279L356.742 34.7738L356.924 35.6671L358.348 36.315L360.325 35.4757L363.173 32.1382L364.513 31.8277L364.787 27.7247L363.767 25.9718L364.692 22.5843L365.683 21.6171L367.519 21.5038L369.411 19.8349L369.513 18.2481L371.025 16.9004L372.405 16.1013L374.32 15.9316L374.716 13.8687L377.84 14.0861L379.32 14.9381L379.594 15.9436L380.819 15.7131L382.391 12.8703L384.437 13.454L387.762 13.5274L389.444 10.5225L392.251 8.47673L393.477 7.24835L394.84 6.68725L396.821 7.91183L399.843 9.16568L399.265 13.6556L399.862 14.686L401.284 13.8967L403.565 13.4044L404.955 14.7487L406.501 15.6879L408.895 18.2055L408.724 19.3142L406.762 20.7464L406.412 23.1439L405.619 23.9856L405.296 25.1678L407.312 28.7299L409.166 30.9896L410.28 31.2312L410.82 33.8431L409.988 35.0621L412.566 38.013L413.448 39.5431L413.867 41.1075L413.859 43.0524L412.67 46.6631L411.543 48.9756L412.784 49.6785L413.837 51.0675L414.093 53.3366L415.894 55.3331L416.346 56.7404L416.247 58.5046L416.729 59.3686L417.081 61.7363L418.251 63.4343L418.493 66.0359L418.918 66.5421L420.681 66.525L423.59 67.9743L424.667 70.7187L426.727 71.3988L428.503 71.3936L429.46 71.8777L429.496 72.8934L431.316 78.3745L429.598 80.3479L429.95 81.5602L429.481 84.3115L429.947 85.4473L430.184 87.7171L432.072 91.188L432.169 91.8866L433.77 92.3266L434.478 93.1209L434.399 94.642L436.585 97.8606L438.203 98.9273L440.26 98.5898L441.497 96.8337L442.394 96.4253L445.003 93.9038L446.348 94.4512L448.564 93.732L451.96 94.4859L453.085 93.8935L454.955 92.1224L457.989 92.3078L460.026 92.0741L460.933 93.2536L462.315 93.4556L461.781 95.2707L459.701 96.6853L460.289 99.816L460.082 101.17L458.558 102.129L460.701 103.772L461.498 101.962L462.693 101.759L465.495 101.863L467.519 102.422L467.982 100.987L469.566 99.237L471.596 98.1315L473.449 99.2442L474.662 99.4653L476.062 101.576L477.096 102.293L478.747 101.671L481.239 101.986L482.69 101.133L483.932 100.946L489.261 101.781L490.661 103.455L492.637 102.965L494.937 103.936L495.442 104.838L496.788 105.876L497.828 107.687L497.804 108.937L496.968 110.88L497.427 111.614L497.71 113.996L497.475 115.023L499.965 118.897L501.221 119.437L500.526 121.633L502.421 122.856L502.144 124.896L502.757 126.309L507.404 127.947L508.14 128.866L510.676 129.245L509.569 131.29L511.708 134.137L514.208 136.561L517.112 137.308L518.208 138.227Z" fill="#1E1E1E" stroke="white" stroke-width="5"/>
</svg>
