<svg width="332" height="485" viewBox="0 0 332 485" fill="none" xmlns="http://www.w3.org/2000/svg">
<path d="M291.749 475.882L293.041 476.23L292.984 477.664L294.563 480.32L295.607 480.238L295.395 481.919L294.507 482.074L294.2 481.014L292.83 480.616L291.562 479.702L290.542 477.478L290.87 475.774L291.749 475.882ZM167.801 428.148L169.081 428.148L170.4 429.145L173.647 430.853L174.746 432.441L175.719 432.645L176.048 433.679L175.813 435.066L177.397 437.79L177.838 439.846L177.559 441.7L177.909 443.561L176.36 446.785L176.949 447.943L175.001 447.585L174.674 448.257L175.492 449.873L174.807 450.61L175.039 451.764L174.1 453.424L171.848 453.998L169.767 453.574L168.35 453.675L165.435 451.95L164.884 452.738L163.641 450.743L162.094 449.865L161.348 450.499L161.7 452.695L161.08 454.642L160.53 455.107L156.942 454.582L153.359 452.741L152.08 449.976L151.008 448.969L151.634 447.164L153.426 445.025L152.139 443.059L152.867 441.71L154.912 441.022L155.047 438.647L155.965 435.865L156.764 435.389L156.78 433.849L158.006 430.802L157.562 428.17L159.841 428.649L161.831 428.328L163.409 427.517L162.479 426.324L162.878 425.38L164.486 424.171L165.718 425.002L166.213 427.379L167.801 428.148ZM172.771 422.868L172.194 423.787L169.021 422.977L169.494 421.619L170.914 421.271L171.658 420.615L173.178 421.555L172.771 422.868ZM161.585 418.35L161.95 418.858L161.295 420.96L160.613 420.964L159.757 419.61L160.841 418.374L161.585 418.35ZM180.762 415.649L181.925 416.929L183.004 416.99L183.661 418.071L184.097 419.99L183.482 423.995L183.828 424.892L183.858 426.915L182.788 429.559L183.033 431.741L182.611 432.621L180.714 432.732L179.305 431.883L178.397 432.287L177.018 430.8L176.374 430.566L175.423 428.027L174.814 427.55L175.928 426.063L174.695 424.368L175.077 422.294L175.636 421.769L176.764 422.144L177.593 420.916L175.909 419.337L175.578 417.536L176.629 416.526L178.086 416.734L178.994 415.509L180.762 415.649ZM174.664 409.411L175.299 410.632L174.69 412.393L173.21 411.006L171.291 410.714L172.422 407.984L173.578 408.414L174.664 409.411ZM143.177 388.164L143.373 389.312L142.087 389.331L141.655 388.292L142.785 386.176L143.177 388.164ZM115.797 385.749L114.757 385.799L115.181 383.355L116.095 382.533L117.375 382.647L117.229 384.515L115.797 385.749ZM119.029 343.572L118.164 343.522L117.269 342.522L116.452 339.753L116.461 338.491L117.609 338.579L117.144 340.753L119.029 343.572ZM114.211 331.089L112.627 330.036L113.665 328.919L114.384 330.03L114.211 331.089ZM125.972 323.893L126.137 326.034L124.726 327.07L124.908 328.607L123.894 329.203L123.893 330.608L122.883 330.755L120.831 329.841L119.791 330.572L121.609 333.586L119.741 334.201L120.518 337.042L121.502 338.314L121.913 340.035L120.555 340.396L119.9 339.997L117.824 336.813L117.121 335.066L116.351 334.53L116.246 332.005L115.033 331.325L115.178 329.685L114.024 328.029L113.292 328.343L112.653 327.277L112.563 324.372L114.627 325.46L117.268 325.25L118.461 326.031L120.152 324.631L121.752 324.772L123.314 324.257L125.972 323.893ZM91.39 290.288L91.8544 291.299L91.7559 293.042L92.4515 294.379L92.1383 295.555L92.5801 297.53L92.7398 299.717L91.3605 301.801L90.0279 302.381L89.3156 303.259L88.0241 303.117L86.6225 304.051L86.3181 303.232L87.2068 302.297L87.3046 300.44L88.7675 299.294L86.2127 295.677L88.1204 293.097L87.5862 292.281L87.7719 290.338L88.9037 290.242L90.6413 289.025L91.39 290.288ZM103.303 14.107L104.205 14.2514L104.899 17.1885L103.507 16.6228L102.922 14.9707L103.303 14.107ZM11.9368 192.487L11.577 191.626L11.5064 185.608L11.6849 184.626L13.9908 180.492L13.9156 179.542L12.4269 175.963L10.3999 172.124L8.99388 169.901L8.0283 167.518L8.01228 165.847L9.45961 162.334L10.2346 159.143L10.158 155.909L10.5448 152.749L7.34294 148.797L7.29744 147.861L8.46222 146.08L10.1041 141.695L10.2079 140.452L9.63792 137.568L9.8146 133.215L7.88389 130.993L4.26185 127.682L3.72253 126.609L4.17061 125.567L5.84523 124.616L6.11362 123.634L4.57226 122.608L3.66797 120.153L4.28089 117.958L6.00009 114.591L6.89974 113.64L10.1299 112.779L13.1694 108.213L13.3271 107.277L12.6429 102.687L13.4141 99.7935L13.7473 97.1118L12.2602 93.7329L11.9238 90.9029L12.172 88.7593L11.9403 87.7349L9.76538 85.2811L10.7263 84.0441L13.2644 82.8979L15.997 80.3751L16.5621 78.2313L14.7765 75.6998L13.6976 73.3938L12.4116 71.5002L12.703 70.1148L14.7667 68.8287L17.0745 67.8059L18.9135 67.43L20.6371 67.4178L22.6409 67.8033L23.2499 67.391L23.8637 63.4359L25.5936 63.9362L26.373 63.0487L26.8413 60.0581L27.5533 57.4881L29.5138 53.859L31.304 47.8834L34.1002 44.2542L35.0201 41.9477L37.7803 38.9541L38.1032 36.6591L37.4878 34.902L35.8847 33.0562L35.3848 31.883L35.5979 29.216L35.092 28.3545L34.4457 25.9966L33.494 21.4352L32.5001 20.4996L31.6035 18.2047L31.2494 15.4346L30.3347 11.3425L30.9643 10.0605L30.3036 8.62395L30.7914 5.98836L32.6777 5.82771L34.3749 8.94102L35.7307 8.90362L37.5096 7.27239L38.3187 8.1223L39.1132 7.9191L39.6121 9.28701L40.47 9.63891L41.4056 11.2187L43.0758 11.8913L45.0039 12.192L45.4369 10.4063L44.4495 9.98551L43.9518 7.93651L46.2602 7.37021L49.3223 7.96892L52.5132 6.73062L52.9879 7.09993L52.2327 8.76235L53.7803 9.85877L55.4296 9.30988L56.3175 6.90369L57.6301 6.75242L57.563 5.16995L60.4842 4.05808L61.1242 3.35156L62.4095 3.37503L62.7571 4.60864L62.4678 5.84194L63.9913 6.39507L65.9756 4.81941L67.1956 5.72444L69.5751 8.07264L71.4724 9.36166L73.0581 8.23541L77.2887 7.74951L78.2482 8.24541L79.3231 9.77171L80.8116 10.1222L81.2949 11.7338L82.5349 11.8266L85.6497 13.564L87.2999 13.2566L87.8546 14.2389L88.682 13.9478L90.411 15.7898L91.3977 16.1373L93.2432 15.158L93.8471 15.568L97.1318 15.4977L98.4119 16.0032L99.5948 15.856L102.167 17.3762L103.932 20.3778L108.085 21.154L110.439 23.1209L111.73 23.7067L113.473 25.0232L115.097 25.8302L114.819 27.5638L115.121 29.29L112.8 28.8024L110.21 29.7167L108.554 29.3392L107.597 29.6352L106.507 30.9529L105.123 31.7119L103.82 33.4728L103.112 36.3134L101.609 36.7863L100.711 37.8639L100.376 39.2656L98.6715 39.9817L98.8445 41.6931L98.2385 45.0004L98.85 48.8245L98.7685 50.072L97.9499 51.4589L98.1029 53.6569L98.8646 55.0087L98.4799 56.5992L99.2881 60.395L100.148 62.2677L102.023 64.8546L103.492 67.3148L104.682 68.5586L111.818 73.9471L114.265 76.3493L115.861 78.5242L118.464 80.3802L125.533 84.9152L128.604 87.5542L131.813 89.5869L133.588 91.1102L135.558 91.7012L135.841 92.9238L137.553 95.031L139.366 96.24L140.863 96.7613L140.686 98.4493L142.701 100.082L143.344 100.914L144.896 101.255L145.691 102.556L146.794 103.504L149.776 104.882L151.086 104.358L151.453 105.501L152.499 106.122L151.415 106.926L150.596 108.203L149.287 109.122L149.513 109.775L148.74 111.945L147.555 113.479L145.79 113.603L145.158 115.888L142.988 115.983L142.079 117.483L141.024 118.305L140.655 120.221L139.898 120.938L137.885 120.779L137.19 122.054L134.655 124.475L133.36 126.647L133.084 127.708L131.719 128.856L130.366 132.344L130.489 133.752L131.209 136.192L131.774 137.063L131.229 138.945L131.649 139.816L131.926 143.079L131.417 143.63L132.239 145.069L131.62 146.842L131.577 148.527L133.051 151.632L129.938 153.767L128.935 153.951L128.428 155.475L128.56 156.523L129.772 157.26L130.505 158.404L130.604 159.48L129.393 162.145L127.94 163.04L127.819 163.713L129.48 165.688L129.043 167.355L130.332 168.068L132.718 167.681L133.315 168.769L135.589 169.524L136.674 171.533L138.815 172.671L138.61 173.904L139.169 175.917L138.067 177.013L139.864 177.693L140.51 181.034L136.575 181.346L136.271 180.066L135.459 178.862L133.238 178.803L130.994 180.384L131.587 181.547L130.156 181.85L129.579 182.93L130.711 184.753L131.714 185.485L130.341 186.695L128.601 187.476L128.088 189.255L128.596 190.335L131.231 190.154L130.507 191.993L132.205 191.384L133.219 192.073L132.772 193.477L133.905 194.269L135.377 194.398L135.834 195.204L137.374 195.602L138.474 196.987L139.933 197.58L141.118 197.053L142.057 197.33L142.985 198.517L142.669 200.937L143.777 203.032L143.41 204.256L141.977 205.008L143.889 206.192L144.656 207.141L146.106 207.885L145.934 209.413L144.968 209.726L143.608 211.302L143.757 214.121L144.249 215.276L143.506 216.702L144.692 217.377L144.138 219.076L142.099 220.485L141.342 221.785L139.794 222.603L140.944 223.673L139.333 224.15L139.389 224.998L141.573 227.046L143.521 227.277L144.949 228.313L147.082 228.914L145.602 230.613L145.12 231.713L146.819 233.469L147.299 234.329L149.17 234.66L150.051 235.755L149.666 236.621L149.805 238.622L150.905 238.943L152.18 238.442L152.696 237.124L154.591 238.68L156.201 238.773L156.205 240.459L154.693 240.512L154.157 241.673L154.602 242.444L156.545 243.327L155.069 244.397L154.133 245.94L153.998 247.385L155.39 247.182L156.255 248.066L157.846 247.764L157.626 248.814L156.488 249.151L155.875 250.643L157.183 253.074L158.204 253.374L159.318 252.335L160.584 251.984L161.338 252.295L162.556 254.159L162.553 255.77L163.774 256.549L164.006 258.507L163.754 259.319L164.459 260.317L164.361 262.2L163.023 264.045L163.29 265.754L164.594 266.245L162.797 268.881L163.425 269.355L162.292 271.415L163.823 272.398L162.784 273.511L163.995 274.708L162.319 276.049L162.148 277.648L162.451 279.18L163.79 280.105L164.688 280.082L165.261 281.715L164.268 282.817L163.956 283.938L162.507 284.666L161.739 284.386L159.893 285.489L160.063 286.837L159.72 288.688L160.362 292.522L160.436 294.809L162.897 295.042L163.791 295.957L164.022 297.918L166.046 299.481L166.156 300.915L165.563 302.662L166.535 303.652L166.097 304.206L166.787 305.693L169.167 306.175L169.57 307.049L168.856 308.438L169.878 309.314L170.417 310.996L171.899 311.324L171.645 313.169L172.681 313.427L174.853 311.876L175.868 312.904L177.122 313.085L177.294 314.428L178.641 315.208L179.581 314.536L181.714 315.103L181.983 315.897L183.111 315.563L185.06 317.315L183.864 317.929L184.756 319.126L184.799 320.668L187.764 321.955L189.779 322.775L191.904 322.584L193.065 324.597L193.866 323.839L195.24 323.449L196.045 321.849L198.201 320.203L199.196 320.661L199.441 321.761L200.364 323.316L199.364 323.718L201.362 325.546L202.354 326.806L201.624 327.816L200.933 327.562L199.769 329.595L199.003 332.108L199.961 333.302L201.9 333.536L202.593 334.256L202.909 336.67L203.997 336.46L204.176 337.434L206.008 337.698L207.829 337.133L208.905 338.13L208.054 339.847L209.637 340.891L211.178 340.46L212.61 340.497L215.558 339.578L216.908 337.4L218.952 336.805L221.331 335.029L223.227 334.862L223.642 335.287L226.466 334.83L227.339 335.097L230.328 334.1L231.776 333.31L232.607 333.34L233.297 334.445L233.371 336.005L232.709 337.75L233.756 338.754L235.069 339.186L234.9 340.545L236.561 341.396L238.105 341.452L238.665 340.968L240.452 342.187L240.458 343.054L241.444 344.074L243.465 343.577L244.754 344.181L245.107 345.605L245.907 346.963L246.886 347.308L248.668 346.638L249.949 347.706L253.234 347.216L255.247 346.204L258.23 346.819L257.617 348.619L259.277 348.688L261.84 349.697L265.078 349.645L266.476 348.822L268.71 348.178L269.371 348.534L271.282 348.581L271.791 349.104L273.595 349.249L275.692 346.547L276.6 345.905L279.349 345.608L280.82 346.552L282.497 345.848L284.463 346.151L286.396 345.89L290 348.761L290.435 348.237L292.248 347.698L294.404 347.937L298.209 347.541L301.02 348.719L302.914 348.11L305.167 347.975L305.778 349.893L308.551 349.512L310.568 349.547L310.834 348.779L312.873 347.999L314.389 345.834L316.683 344.606L318.264 342.183L318.829 342.121L322.592 339.501L323.786 339.343L324.467 337.819L325.52 338.015L325.416 339.13L327.256 339.998L327.113 343.242L328.19 343.922L326.838 347.127L327.442 347.924L326.337 349.777L326.713 351.871L326.542 352.989L324.246 354.125L323.902 354.898L324.054 356.705L322.549 360.35L322.229 362.082L321.646 363.014L322.515 364.886L320.334 366.86L319.06 369.543L319.198 370.774L318.849 372.188L319.423 373.211L319.112 375.856L320.381 377.599L321.174 377.861L321.66 379.679L322.671 381.108L321.624 383.113L320.237 384.589L319.944 385.71L320.563 387.685L320.152 388.979L321.153 390.883L321.278 392.504L322.672 392.621L322.028 395.047L325.69 396.341L325.431 399.285L325.923 401.045L325.061 403.681L323.763 404.36L323.502 406.828L324.549 407.178L323.701 409.07L322.843 409.247L323.954 411.333L323.402 411.841L322.98 413.49L323.742 414.668L323.425 417.668L321.828 418.302L322.504 420.911L322.063 423.641L322.335 424.833L321.646 426.289L319.578 428.213L317.877 430.469L316.582 432.092L315.161 432.555L315.739 435.515L316.291 436.572L318.196 437.151L317.139 438.117L315.839 438.392L314.934 439.835L313.946 440.716L314.203 442.881L313.592 445.745L310.543 446.627L310.444 448.679L311.937 449.91L310.806 452.404L307.354 452.904L306.469 453.56L305.034 453.585L305.101 454.622L305.845 456.226L304.895 456.418L304.286 454.952L303.293 455.424L301.873 454.17L301.07 456.527L302.204 456.496L302.459 457.256L301.699 458.494L299.64 458.31L298.271 458.908L296.136 460.831L295.968 462.444L296.637 463.633L295.44 465.151L295.03 466.296L293.574 465.472L292.542 466.013L291.608 468.5L290.299 468.996L290.075 469.679L288.556 470.418L287.589 471.288L283.795 470.935L282.526 471.666L281.399 471.723L280.607 470.121L279.688 471.396L278.411 470.645L277.954 469.368L277.167 469.799L275.411 468.551L274.201 468.779L274.151 467.774L271.603 467.872L270.549 467.048L270.749 465.452L269.344 465.39L269.917 462.531L271.846 461.445L271.237 457.95L269.246 456.034L269.663 452.876L268.089 450.324L268.167 449.674L267.056 446.907L266.119 446.063L265.571 444.561L264.238 443.718L264.505 441.751L262.776 439.963L261.869 439.751L261.039 438.233L258.881 436.565L256.173 435.601L254.766 435.531L254.08 434.861L251.538 434.036L250.377 434.534L250.284 433.466L249.274 433.104L247.727 431.413L245.928 431.777L243.613 430.953L241.175 431.277L236.665 432.785L233.858 434.26L232.583 435.44L231.366 435.271L230.594 435.886L230.337 438.068L231.481 439.281L231.64 441.308L229.446 440.134L227.424 442.547L227.742 443.229L227.718 445.584L227.093 446.134L227.242 449.165L228.103 450.635L229.214 451.635L229.958 453.341L231.526 454.152L232.502 454.237L234.062 452.813L235.161 452.549L235.535 453.232L234.89 454.7L233.139 455.47L232.293 456.431L231.022 456.846L230.828 457.804L229.527 457.232L228.703 458.021L228.127 457.051L227.047 458.154L227.487 462.326L228.543 463.873L227.585 464.879L225.565 464.15L223.696 462.894L222.983 463.435L220.947 462.931L221.246 461.607L220.69 458.72L219.124 459.24L217.738 457.606L217.598 456.921L215.435 457.328L213.894 456.211L213.273 455.15L212.872 452.126L211.506 452.381L211.056 453.175L209.003 452.964L208.175 451.429L208.557 449.882L208.009 448.764L205.677 448.506L204.409 447.792L204.245 446.194L203.202 443.454L202.134 441.527L201.046 441.374L201.9 439.791L202.157 437.426L201.678 435.44L202.12 434.818L201.388 433.396L200.98 431.64L199.534 431.575L197.298 429.185L195.492 428.813L194.501 429.027L193.548 430.357L191.84 429.323L190.794 428.275L190.037 426.149L188.303 423.53L187.891 421.202L187.837 418.723L190.106 416.802L193.302 415.305L194.805 414.068L195.585 412.92L195.925 409.51L195.312 408.469L193.779 408.003L193.252 405.374L191.69 403.806L191.878 400.818L191.169 398.941L190.098 398.202L189.291 395.99L187.588 394.65L185.977 394.058L183.371 394.155L182.665 395.086L179.846 396.585L178.778 396.456L178.465 395.468L179.097 393.664L178.763 392.578L179.214 390.281L178.262 388.867L178.296 387.611L176.825 385.58L175.658 385.076L173.21 383.397L172.311 383.803L169.189 383.447L168.51 382.169L167.067 381.017L166.455 379.748L164.902 379.443L164.641 380.472L162.032 381.109L160.529 379.725L160.553 378.506L158.861 378.272L157.927 378.631L155.481 380.933L155.429 381.635L157.167 382.841L155.952 383.31L153.554 382.969L149.307 382.881L148.418 383.657L146.17 383.033L144.329 382.983L143.948 382.247L142.423 382.097L141.47 381.46L139.721 383.453L138.932 384.985L138.333 385.225L137.2 383.021L137.286 381.948L139.571 379.36L141.198 377.661L140.42 376.961L140.053 374.221L139.59 372.509L139.822 369.639L140.507 368.587L140.598 365.98L142.615 364.737L143.67 363.194L143.145 361.135L142.296 360.151L140.689 359.292L139.963 358.283L138.635 359.928L138.053 359.93L137.361 358.18L135.204 359.892L132.193 358.669L129.897 360.708L127.915 360.381L127.116 359.815L127.348 357.709L126.728 356.706L127.72 354.974L127.292 353.662L128.974 352.464L129.641 351.214L129.242 350.375L130.641 348.812L133.663 346.836L132.617 345.208L134.044 343.957L135.492 344.072L135.46 345.62L137.034 345.237L138.05 343.645L139.445 343.815L140.156 342.191L140.521 339.418L140.334 338.637L142.333 336.609L141.863 335.352L142.196 334.302L140.839 331.755L140.416 328.156L140.719 325.633L140.204 324.547L138.603 323.413L138.08 322.376L135.851 321.59L135.726 320.859L133.133 319.2L132.808 316.795L133.018 315.891L132.439 314.216L132.311 312.349L131.177 308.031L131.52 307.231L130.322 305.648L130.316 303.333L129.268 301.594L125.515 300.376L124.089 299.548L122.475 298.086L121.347 296.659L119.982 295.514L117.403 294.199L115.502 294.47L114.942 296.012L113.131 296.664L111.925 295.855L110.379 296.233L106.911 296.053L107.584 298.796L108.955 301.242L106.886 301.353L104.513 300.359L103.545 301.783L103.059 304.121L101.76 306.403L100.666 307.054L100.689 304.555L99.017 301.516L98.0152 300.9L96.5641 300.677L96.0891 299.174L97.8712 298.138L99.3139 296.219L101.555 294.837L101.46 293.123L103.885 291.238L104.517 289.888L104.276 289.241L106.094 288.096L107.23 286.681L107.322 285.259L106.787 282.699L107.323 281.106L109.245 278.788L110.19 278.32L111.068 277.034L111.472 274.115L113.965 271.28L115.382 270.43L116.693 270.412L117.095 269.028L114.704 267.209L114.89 262.862L113.591 261.81L111.147 260.704L109.997 260.653L108.137 261.163L107.003 261.095L106.592 262.302L107.805 263.518L105.482 265.363L103.336 265.769L102.322 268.051L102.258 269.293L101.414 271.415L101.687 273.336L100.535 275.1L100.123 276.562L98.3648 277.041L97.2994 276.776L97.7846 279.238L97.2873 279.749L95.6115 279.361L94.9603 280.522L93.8343 280.028L93.7971 277.398L92.4102 275.865L90.1043 274.701L90.2499 273.361L91.492 273.26L92.7259 271.936L92.5959 270.769L91.3011 270.481L90.4207 269.718L89.1257 269.399L89.5729 267.568L90.2552 266.819L91.8416 266.355L91.5405 265.009L88.0603 265.652L87.7945 264.126L85.9701 261.709L86.703 260.448L87.6916 259.664L88.344 259.908L90.0845 259.055L91.2874 256.758L92.6479 256.419L93.2625 258.349L94.5549 258.511L95.8521 256.981L94.2803 255.179L94.2921 253.296L96.4339 250.754L97.207 248.97L98.5387 247.761L97.9234 246.61L96.3417 247.332L95.6473 249.137L93.6646 249.369L92.582 248.297L93.1763 247.056L93.0403 245.327L92.5427 243.93L93.0695 242.382L93.9608 241.193L93.334 240.03L93.5754 239.009L92.9089 238.364L91.6236 239.39L89.9204 237.757L88.7631 237.14L87.3738 237.193L87.599 235.931L84.7435 234.205L83.1488 233.78L81.8377 233.841L81.8765 235.172L80.8622 236.342L79.0815 235.29L77.0734 236.481L76.2636 235.926L76.353 232.987L75.4392 232.279L73.4595 232.42L72.8682 233.777L71.3138 234.488L70.4648 233.944L68.0781 234.898L65.55 234.178L64.3073 235.353L63.529 234.2L62.3851 235.035L61.2132 234.282L59.7767 234.481L58.074 233.708L56.2573 234.411L55.9214 232.8L54.0485 233.22L52.4287 233.205L51.8863 232.661L52.1301 231.513L50.6844 231.287L50.6393 230.234L51.568 228.474L51.7322 226.227L53.1282 225.426L54.0949 226.242L55.1615 228.06L56.6778 227.929L56.7632 226.424L59.0357 226.138L61.0082 226.437L63.0522 226.432L64.9664 225.306L65.7221 223.79L66.4467 224.514L67.963 223.845L68.4619 223.165L68.4022 220.3L68.9218 218.706L68.5743 217.59L66.7736 215.105L65.1191 213.747L65.9944 211.804L64.2332 209.625L63.8106 208.395L63.9662 206.24L63.617 204.786L63.9305 204.025L67.0812 202.126L68.3899 200.049L67.247 198.323L66.9085 196.317L67.1174 195.618L64.9439 193.791L64.2079 192.552L65.1793 190.918L63.5267 188.894L62.1384 188.261L61.1277 188.306L60.6457 189.167L59.656 189.556L58.4727 190.941L55.2233 192.694L53.498 192.258L51.5571 192.443L50.3385 191.916L48.0196 192.208L47.545 191.985L46.4466 189.766L45.1063 188.788L44.0913 186.813L43.1557 186.455L38.6895 185.616L38.3565 182.763L37.6361 182.505L36.0996 183.656L33.6394 184.996L30.9864 188.17L27.861 190.285L24.8795 190.507L23.2589 191.495L22.6516 192.305L22.7602 193.532L21.9792 194.205L20.4323 193.845L18.8206 192.206L17.2012 193.646L15.0358 193.001L13.4626 192.999L11.9368 192.487Z" fill="#1E1E1E" stroke="white" stroke-width="5"/>
</svg>
