<svg width="225" height="224" viewBox="0 0 225 224" fill="none" xmlns="http://www.w3.org/2000/svg">
<path d="M218.122 53.9705L216.383 54.3627L215.424 55.7621L216.031 58.672L217.029 60.2512L219.781 62.2393L221.188 63.5492L221.929 65.1437L222.085 66.4893L222.104 70.9935L221.509 74.86L220.781 76.7509L218.832 78.3396L217.708 77.9013L216.875 76.4741L216.285 74.5626L216.385 72.8183L215.531 70.8535L214.555 70.2328L212.793 70.3393L211.491 70.9484L209.697 72.7897L208.831 74.0676L206.417 74.6164L205.59 75.5532L205.085 77.6644L204.078 78.5496L203.245 80.4339L201.97 80.6365L198.536 80.52L196.433 81.2249L191.751 81.5974L188.461 83.3912L186.307 84.9988L184.534 87.0068L183.915 88.3587L181.461 90.0055L179.758 90.5674L177.892 91.7158L175.584 93.744L174.011 94.4587L173.282 95.8925L171.036 98.5553L170.245 100.016L168.556 101.082L165.804 104.397L165.023 106.839L165.841 110.289L166.219 113.748L166.594 115.268L166.504 118.761L162.794 120.44L161.478 120.407L160.13 121.141L157.127 122.309L152.625 125.659L149.5 128.277L145.158 129.946L142.031 130.547L141.28 131.057L139.817 133.168L139.309 133.282L136.484 135.238L134.658 137.246L130.918 140.729L128.627 142.673L122.775 143.877L120.325 143.567L114.46 146.658L112.43 147.569L110.726 148.703L108.442 149.495L105.002 152.691L101.757 154.76L98.9817 155.415L91.8313 158.003L89.2655 158.248L84.9611 158.128L83.1659 158.435L73.623 162.496L72.5944 163.304L71.7879 164.678L71.3174 166.892L71.1157 170.612L71.6556 172.184L74.6897 178.531L75.0138 180.583L74.8501 183.213L75.4702 185.611L75.4037 187.929L74.9462 191.692L73.8955 194.29L72.9349 195.605L70.8334 197.4L68.5005 197.875L67.1478 198.462L65.7849 200.139L64.9655 201.811L64.239 206.581L63.3758 207.621L61.6009 208.94L59.884 210.596L59.2266 212.166L59.6424 215.142L59.5582 216.454L57.5038 221.091L56.8881 221.164L55.5434 219.16L53.9722 218.295L53.142 216.364L52.5429 212.189L51.5673 209.168L50.9018 208.593L47.2691 207.65L46.339 206.917L45.2498 205.381L44.115 202.14L42.8283 200.338L41.2347 198.778L39.8626 197.847L38.39 196.358L36.256 195.7L33.653 195.417L32.1672 194.771L26.5207 195.118L25.6748 194.845L24.6602 191.607L23.3407 190.303L21.5911 189.358L20.1528 186.997L18.9751 183.947L17.3352 181.656L16.7269 179.596L13.0911 174.773L12.5773 173.87L9.14574 172.58L7.24266 170.382L6.97021 167.204L3.95703 165.663L4.53594 164.272L6.00509 163.488L8.12791 160.399L8.74977 158.715L10.4882 156.512L14.094 154.427L15.759 152.612L16.524 150.648L17.115 146.567L17.0716 145.037L16.5667 141.85L15.3072 135.627L15.3745 132.267L13.6188 127.427L14.038 126.686L14.7414 123.906L14.387 121.692L15.7962 121.922L19.1272 121.502L21.8727 123.158L22.6107 123.203L26.2914 122.615L28.7685 121.874L29.664 121.065L31.7308 117.688L32.7611 117.354L35.8151 117.367L38.5552 116.46L41.0501 114.398L44.1688 110.919L44.7023 107.787L43.842 105.19L42.9798 103.455L42.6815 102.036L43.1621 101.077L45.0274 99.954L48.0027 98.9767L51.0685 99.6663L52.5294 100.898L53.1809 102.56L54.0494 102.347L54.6333 101.056L55.4151 98.1803L57.1933 95.7149L60.1822 93.499L62.6675 90.125L64.4054 88.4218L66.4738 86.8184L69.979 85.1318L71.4541 83.4938L72.7679 81.3351L73.3865 79.7156L73.4592 77.2589L72.2658 73.8723L71.6859 70.2484L72.4789 67.1692L72.8786 66.4922L76.0266 65.4279L77.24 63.9979L77.858 62.4071L78.0198 60.8273L77.8928 57.3126L78.225 52.828L77.8616 48.8683L79.7813 45.2021L80.0917 43.8459L79.3251 40.3254L79.1157 37.4762L79.8044 34.5533L81.016 31.4695L81.2245 30.1666L81.1477 23.5231L79.2917 18.7204L78.615 14.4601L80.5703 12.1584L81.1727 10.5593L81.8194 3.40217L80.7088 2.65234L82.654 2.67173L86.7942 6.9443L90.8629 7.21231L94.3568 8.24347L95.953 9.4745L98.5819 10.2293L100.917 9.4586L104.339 6.65146L106.954 6.16798L108.315 6.42478L111.359 8.05177L113.993 9.15667L115.23 10.1798L116.28 10.3535L119.719 9.59912L121.992 9.62032L125.099 9.01798L128.966 7.00063L131.645 7.05272L135.621 6.52517L137.82 8.33417L139.875 8.6576L141.285 9.8532L144.021 11.6536L146.427 13.9404L150.103 18.3184L153.163 20.6864L154.998 21.5836L158.359 24.0731L161.29 25.9944L163.007 26.891L165.976 27.8248L167.978 28.1876L170.651 29.032L174.515 28.4869L177.037 30.4043L177.159 31.4441L178.987 32.8605L185.624 34.8827L188.826 36.7501L189.379 37.4856L193.286 40.0951L195.594 40.7921L198.563 41.0843L200.882 41.85L202.357 42.8923L204.812 42.7404L206.941 43.2834L208.349 44.2237L209.823 46.2362L214.26 47.8123L216.114 48.7833L217.177 52.2617L218.122 53.9705Z" fill="#1E1E1E" stroke="white" stroke-width="5"/>
</svg>
