<svg width="237" height="222" viewBox="0 0 237 222" fill="none" xmlns="http://www.w3.org/2000/svg">
<path d="M232.709 98.6526L233.82 99.4024L233.173 106.559L232.57 108.159L230.615 110.46L231.292 114.721L233.148 119.523L233.225 126.167L233.016 127.47L231.805 130.554L231.116 133.476L231.325 136.326L232.092 139.846L231.781 141.202L229.862 144.869L230.225 148.828L229.893 153.313L230.02 156.828L229.858 158.407L229.24 159.998L228.027 161.428L224.879 162.492L224.479 163.169L223.686 166.249L224.266 169.873L225.459 173.259L225.387 175.716L224.768 177.335L223.454 179.494L221.979 181.132L218.474 182.819L216.405 184.422L214.668 186.125L212.182 189.499L209.193 191.715L207.415 194.181L206.633 197.057L206.05 198.347L205.181 198.56L204.53 196.898L203.069 195.667L200.003 194.977L197.028 195.954L195.162 197.077L194.682 198.036L194.98 199.455L195.842 201.191L196.702 203.787L196.169 206.919L193.05 210.398L190.555 212.46L187.815 213.367L184.761 213.354L183.731 213.689L181.664 217.065L180.769 217.875L178.292 218.615L174.611 219.204L173.873 219.158L171.127 217.502L167.796 217.922L166.387 217.692L165.013 215.072L164.087 214.16L160.82 213.477L159.188 212.264L157.626 210.263L155.184 208.48L152.207 206.604L150.551 206.248L148.779 207.222L145.88 207.354L144.847 207.85L143.741 207.345L143.218 203.286L143.295 201.09L142.975 199.494L142.118 198.85L141.007 197.138L140.656 193.585L138.963 189.847L138.459 188.355L138.346 186.028L138.745 182.191L139.571 180.586L141.382 179.414L142.801 177.528L143.617 173.689L144.163 172.645L145.185 172L149.265 170.531L150.906 170.338L153.887 169L154.008 167.349L153.427 165.598L153.779 162.87L155.211 159.619L155.352 154.688L155.188 153.799L155.834 150.57L155.356 149.909L151.807 150.232L148.2 150.146L146.775 149.811L144.589 148.813L142.545 148.216L137.501 145.948L137.9 143.447L138.219 139.523L139.008 136.01L138.515 133.897L137.232 131.302L137.203 130.306L138.679 128.062L140.517 126.497L141.508 125.315L141.828 123.881L141.704 119.548L141.295 118.617L139.375 116.069L137.768 114.482L136.578 113.745L133.827 113.099L130.776 113.61L129.614 112.727L130.292 109.534L129.965 107.603L130.351 104.848L129.913 101.538L130.237 100.138L129.353 99.7607L127.11 101.767L125.443 103.538L123.304 104.065L118.758 104.336L117.861 104.698L115.231 103.885L111.323 100.933L107.982 99.2112L106.774 98.3406L105.143 98.143L103.927 98.5434L100.63 100.289L98.9179 101.939L95.1122 103.588L93.351 103.817L88.5691 103.784L84.9558 103.95L82.205 103.436L80.6641 103.392L78.3384 104.046L73.9721 105.843L71.4727 106.361L67.3779 107.697L65.7174 107.917L63.3053 109.031L59.4879 110.056L55.2373 109.975L54.8624 107.531L51.161 104.454L49.1693 100.632L49.261 99.6456L50.3692 98.5623L53.6187 96.8449L55.6411 95.0261L56.253 94.1514L55.1321 93.1259L52.6867 93.1512L50.6576 92.8501L48.3681 91.5645L47.3115 91.4993L44.4338 90.6448L41.7622 88.8761L40.3513 86.2036L39.3185 85.1651L38.3178 84.8384L36.7436 85.5864L33.5948 87.8663L31.914 88.4594L30.9119 87.9384L29.4628 88.1201L28.4956 89.544L28.2926 91.8092L27.9002 93.2374L26.9288 94.0034L24.6846 94.5438L22.1034 94.7314L20.3819 94.1927L17.5059 92.8107L15.265 89.6686L14.1554 88.913L13.6711 87.3846L14.3308 85.9445L13.7456 84.3441L12.6712 83.8623L8.77783 83.131L7.27954 81.8609L5.96384 81.1931L3.70579 81.4087L3.02368 81.2013L2.84375 78.573L3.60955 73.9511L3.52888 71.9642L3.79018 70.1983L5.4915 66.8939L5.92623 64.3628L5.65947 60.4832L6.20379 58.4732L8.45221 59.9491L10.9601 60.1744L14.1654 61.2193L17.9564 61.4156L19.1585 60.0231L18.8058 57.3271L19.0228 55.5424L22.7979 52.337L24.1931 50.5569L25.3252 48.6397L25.9263 45.7645L28.088 45.0373L30.19 48.0485L31.5946 47.6818L33.1147 46.1538L34.3496 44.5093L37.6876 41.6499L39.4636 40.8087L41.4933 40.3283L43.3624 39.1447L45.7152 36.6743L46.6715 35.0362L48.3097 31.131L49.3842 30.3288L53.0899 28.9762L55.7425 26.9258L57.572 24.1356L56.3262 23.6079L54.6267 23.5081L52.7978 19.8258L49.1256 15.4692L48.6015 14.1188L49.0403 12.7498L52.0212 9.68195L54.5087 8.2992L56.1799 7.67566L59.3027 6.1103L60.8343 4.94922L61.0699 7.86281L62.0121 8.70046L64.2922 9.00254L66.2003 10.1197L67.5283 11.7703L68.0643 13.407L69.0959 14.3717L69.9605 14.5446L72.6195 13.5197L73.1948 12.5371L76.6243 13.7648L77.7842 15.0246L80.2189 16.4114L81.8267 18.2141L82.9895 20.5384L84.4798 22.0802L84.7435 24.5069L85.3831 27.0771L86.0047 27.7648L87.6438 27.9816L89.6324 27.7904L92.69 26.7497L94.1358 25.7547L96.0838 23.9565L97.6745 23.4077L98.8171 22.5138L101.188 20.0658L102.528 21.1336L103.815 22.9008L105.262 23.5458L107.641 26.2774L109.475 27.1005L110.763 28.367L112.093 30.5141L113.171 31.2558L113.844 33.1505L115.303 35.2606L115.92 37.2395L118.72 40.7757L119.309 42.5434L121.158 43.5841L121.631 44.7505L120.58 47.0442L120.561 49.517L121.195 50.6944L122.649 50.8619L123.428 51.7758L124.379 53.7796L127.437 55.0733L129.508 56.9569L133.681 61.6766L134.454 62.2448L136.511 61.7767L138.994 60.0611L140.739 59.5768L142.342 60.8293L143.751 60.907L146.345 62.818L147.457 64.4155L150.154 67.1574L150.626 68.0551L151.8 71.9751L152.604 73.9623L153.756 74.5919L157.448 75.6033L160.061 75.6978L161.04 76.0163L163.12 75.2027L164.465 73.9803L165.652 73.7824L166.765 74.4361L168.446 77.4366L171.588 76.8403L175.036 77.8009L175.77 78.7109L178.85 80.4372L182.614 80.3677L186.523 79.4975L189.07 78.3673L193.052 78.1973L198.839 80.0342L203.715 80.1745L205.885 78.5259L208.861 77.134L211.881 76.8321L213.723 78.8841L214.134 79.7207L214.729 83.5301L215.789 86.3836L217.246 89.1641L218.537 91.1751L220.725 93.8736L221.456 94.4927L222.659 94.5422L224.807 93.6532L227.793 95.1615L228.953 97.2609L230.594 98.9139L231.471 99.1356L232.709 98.6526Z" fill="#1E1E1E" stroke="white" stroke-width="5"/>
</svg>
