<svg width="334" height="326" viewBox="0 0 334 326" fill="none" xmlns="http://www.w3.org/2000/svg">
<path d="M20.7853 81.6362L21.7926 82.6656L24.5625 88.3392L26.6181 91.6102L29.2378 95.1083L30.8203 96.6106L29.3594 97.451L28.2396 95.695L27.3393 94.9256L25.6983 92.2405L23.8457 89.9738L22.2309 89.3768L22.893 88.3018L22.8405 87.1302L20.6109 83.6728L18.2605 83.8984L18.7526 81.6896L20.1419 81.1199L20.7853 81.6362ZM330.838 33.9482L329.306 35.1093L326.183 36.6747L324.512 37.2982L322.024 38.6809L319.043 41.7488L318.605 43.1178L319.129 44.4682L322.801 48.8248L324.63 52.5071L326.329 52.6069L327.575 53.1346L325.746 55.9248L323.093 57.9751L319.387 59.3278L318.313 60.13L316.675 64.0352L315.718 65.6733L313.366 68.1437L311.497 69.3273L309.467 69.8077L307.691 70.6489L304.353 73.5083L303.118 75.1528L301.598 76.6808L300.193 77.0475L298.091 74.0363L295.93 74.7635L295.328 77.6386L294.196 79.5559L292.801 81.336L289.026 84.5414L288.809 86.3261L289.162 89.0221L287.96 90.4146L284.169 90.2183L280.963 89.1734L278.455 88.9481L276.207 87.4722L275.663 89.4821L275.929 93.3618L275.495 95.8929L273.793 99.1973L273.532 100.963L273.613 102.95L272.847 107.572L273.027 110.2L273.709 110.408L275.967 110.192L277.283 110.86L278.781 112.13L282.674 112.861L283.749 113.343L284.334 114.943L283.674 116.384L284.159 117.912L285.268 118.668L287.509 121.81L290.385 123.192L292.107 123.73L294.688 123.543L296.932 123.002L297.903 122.236L298.296 120.808L298.499 118.543L299.466 117.119L300.915 116.937L301.917 117.458L303.598 116.865L306.747 114.585L308.321 113.837L309.322 114.164L310.354 115.203L311.765 117.875L314.437 119.644L317.315 120.498L318.371 120.564L320.661 121.849L322.69 122.15L325.135 122.125L326.256 123.15L325.644 124.025L323.622 125.844L320.372 127.561L319.264 128.645L319.173 129.631L321.164 133.453L324.866 136.53L325.24 138.974L323.151 139.037L317.154 141.191L316.295 141.155L311.507 139.583L308.981 137.67L306.606 137.747L302.545 136.576L300.42 136.59L294.281 134.764L293.049 134.86L292.46 136.13L292.628 138.816L293.18 143.98L293.851 146.875L293.686 148.08L292.429 149.274L291.601 150.669L291.558 154.324L291.103 157.96L290.57 159.194L287.87 160.566L282.73 161.125L281.704 160.977L281.091 160.184L279.684 159.882L277.728 160.685L277.049 163.211L276.17 164.252L275.146 166.912L274.803 168.946L274.855 171.631L273.685 174.074L273.877 175.237L275.192 178.557L275.058 179.376L273.727 181.08L272.663 183.526L272.774 185.017L272.56 188.012L270.708 190.717L270.772 192.778L268.935 194.458L269.035 196.067L271.347 199.381L271.808 201.702L271.521 202.851L268.887 206.873L264.458 211.992L262.586 213.407L258.662 217.374L255.533 221.579L254.171 222.41L253.419 223.638L253.826 225.672L254.488 226.718L254.789 228.121L253.217 230.147L250.902 234.603L248.83 232.821L246.725 232.353L245.531 231.681L244.599 231.88L243.536 233.723L242.983 236.786L241.82 238.726L240.072 239.841L237.567 240.742L235.843 242.432L234.543 243.264L232.946 243.652L226.72 245.611L225.072 246.095L222.655 247.39L220.891 249.181L220.559 253.642L219.975 255.819L217.952 258.081L215.24 259.446L211.52 262.969L210.074 264.913L207.241 265.2L203.837 265.974L202.535 266.456L201.464 267.47L200.232 270.056L199.29 270.92L198.197 272.73L197.002 275.639L195.619 276.895L194.966 279.109L193.199 281.122L191.071 282.134L190.129 283.236L187.124 285.881L186.22 287.08L183.972 289.28L182.659 292.833L182.039 293.804L179.11 295.747L176.907 297.826L171.871 301.402L170.46 303.728L169.944 306.363L168.193 309.191L167.842 311.088L167.9 313.153L168.301 315.197L167.846 316.836L166.551 319.185L166.057 322.234L164.842 322.696L164.023 322.428L161.3 321.997L159.378 320.5L158.809 318.828L157.858 318.38L156.95 316.826L155.189 315.21L154.432 313.404L153.555 312.401L153.29 310.563L151.288 306.656L150.962 305.204L149.139 300.725L149.12 299.749L147.857 298.183L147.532 296.046L146.736 293.944L147.1 292.89L145.029 291.013L144.502 289.61L142.5 288.481L142.822 286.515L142.31 285.813L139.546 285.23L138.985 285.525L137.992 287.429L135.92 285.566L133.398 285.315L131.415 283.35L130.043 284.087L128.86 283.403L126.805 282.728L126.799 281.369L125.543 282.126L124.496 281.891L121.231 280.261L120.601 279.697L122.253 277.836L120.832 276.509L119.608 276.358L117.417 276.709L116.864 276.26L113.73 276.759L112.669 275.76L112.257 274.28L112.153 270.068L111.371 269.923L108.18 270.997L107.158 271.983L105.208 271.097L104.678 272.465L103.504 274.116L101.605 273.023L100.087 270.592L99.3382 270.569L99.0673 272.457L97.609 272.519L96.6594 270.983L95.9059 270.754L93.9007 272.202L92.2022 273.004L88.2591 271.238L85.5889 270.364L83.4491 270.24L80.1917 268.988L76.278 268.724L74.9027 269.932L73.8828 269.923L73.1835 267.439L73.2155 264.935L74.5812 260.439L74.5374 256.746L74.2176 255.945L72.3888 254.371L67.9895 252.467L66.2234 251.132L62.7083 248.866L60.8321 248.055L58.1152 247.619L57.1248 247.12L56.105 244.525L55.9948 241.922L55.3877 239.896L54.494 239.209L52.5775 239.411L51.2475 238.462L50.2488 235.878L48.0983 235.066L46.5836 234.843L45.5233 233.837L45.3688 232.929L45.9708 231.945L48.6811 230.137L49.3646 229.213L53.3475 226.7L54.6765 223.689L54.8458 222.068L54.5373 219.819L53.5926 218.495L49.8863 214.525L50.1841 212.843L51.5444 210.046L50.9923 208.156L49.6924 206.974L49.66 205.504L51.6907 203.767L50.9361 202.578L48.7127 202.819L46.707 202.724L45.5521 202.325L41.6166 198.966L39.9672 196.283L37.1876 194.248L34.1554 192.432L31.9993 190.546L30.1202 188.039L28.6752 185.377L27.4785 184.882L27.3102 182.641L26.9426 181.512L24.7611 179.69L23.9568 179.441L19.0539 179.538L18.23 179.041L14.7434 175.474L12.1444 174.451L8.86668 172.911L8.17987 172.31L7.68442 170.493L8.72575 165.564L8.65953 162.745L7.25097 158.775L6.65198 157.714L5.37047 156.575L3.31986 155.603L2.94531 153.551L3.52538 153.302L5.62208 151.028L8.64745 145.1L9.41239 143.092L10.4461 138.976L10.6245 136.533L11.138 134.16L11.5099 128.372L10.8941 125.02L10.8054 122.779L10.1284 119.495L9.80858 116.305L9.26856 114.412L8.64821 113.961L9.07429 112.415L8.73939 109.979L10.0536 108.781L9.40159 104.329L8.82599 104.076L9.58106 102.343L10.719 101.969L10.5813 100.394L11.3517 97.9454L12.2645 96.7484L11.5346 94.95L13.0187 94.5404L13.1505 93.5294L14.0755 92.7985L13.864 90.5816L13.0532 87.5295L11.9583 84.8748L11.8534 82.938L12.441 81.0524L13.5271 79.8218L15.9352 82.8303L18.2605 83.8984L15.8236 85.4114L16.4254 87.4397L19.4588 88.0811L18.0756 88.8565L18.8535 89.7181L19.208 90.9495L21.2411 91.3826L21.3509 93.1533L20.0686 94.0003L20.6472 95.7288L20.4088 96.5169L21.1782 98.7864L22.799 99.6407L22.8351 100.984L24.1879 101.995L26.135 101.447L27.6391 102.757L27.4468 104.413L29.5411 105.065L30.4026 105.996L29.7029 107.922L30.7913 108.013L33.3399 106.947L31.2451 105.857L29.3318 103.538L29.3785 101.599L30.3637 100.106L30.5112 98.4336L29.3594 97.451L30.8203 96.6106L31.7592 97.0357L32.6903 96.4309L34.109 96.8794L37.7274 97.302L39.6404 96.3231L42.4439 93.5047L43.5822 93.0918L44.2453 92.2861L45.7966 91.7241L46.6682 92.0797L48.002 91.7271L50.1137 92.5712L51.2681 91.6173L52.1668 91.5546L54.538 94.2829L55.4756 94.1106L56.5484 94.6525L58.5271 96.5024L60.6291 99.0756L62.149 100.169L64.5352 102.457L66.9645 103.559L69.0467 103.652L71.0189 105.617L74.7896 108.746L78.3331 111.938L81.747 114.561L88.7484 118.824L90.5992 119.774L93.3072 119.886L95.2135 119.053L96.3751 117.931L97.2903 117.929L101.444 119.833L103.97 120.814L108.375 122.183L111.31 121.552L112.031 122.256L114.985 123.665L117.737 124.981L121.872 126.896L124.25 127.551L127.011 127.426L129.631 125.834L132.508 124.863L133.6 123.4L135.054 122.449L137.271 120.041L139.091 119.455L144.063 119.325L146.298 117.612L147.396 117.455L149.649 115.894L150.637 114.492L152.146 113.348L154.835 113.152L157.788 112.489L160.018 110.056L161.091 107.356L161.598 104.488L161.54 102.166L162.709 100.376L164.868 100.151L166.394 99.5769L167.85 97.3535L168.259 95.3743L169.961 94.5124L171.283 92.1809L173.905 89.6616L176.899 88.2519L178.854 85.3951L179.78 84.6019L180.806 81.3882L181.586 81.1052L182.462 78.1015L182.813 75.7635L183.569 74.4652L184.288 71.3911L184.958 66.919L185.311 63.3449L187.532 61.3687L189.541 59.0177L190.434 56.6145L191.361 50.8827L191.433 46.6661L191.99 45.2845L194.251 41.7855L194.464 39.9745L194.952 38.9867L196.209 38.9923L196.582 39.5979L198.697 40.1061L199.386 38.9272L201.482 37.573L203.618 34.3981L204.404 33.7491L205.75 31.7928L206.482 29.3796L207.328 28.3371L208.138 26.2454L210.267 24.1784L211.09 22.9077L211.589 20.9897L212.704 20.3784L214.126 21.9142L215.49 22.4128L216.994 20.7965L217.82 20.4385L219.519 21.1437L220.411 20.2977L223.881 18.7364L225.085 17.8571L226.353 17.5316L228.578 15.7148L229.914 16.6953L233.674 17.474L234.667 16.9321L235.051 15.8012L237.131 14.0798L239.533 10.7L241.747 8.68101L242.511 7.49237L242.977 5.35237L245.037 4.39874L245.845 3.375L247.655 3.64377L248.61 3.42921L252.337 3.9728L254.277 4.97686L255.021 5.70609L257.1 6.75269L257.723 8.54352L258.506 9.53803L258.793 11.331L259.643 12.2437L261.033 11.2954L262.373 11.1264L264.48 12.2987L265.345 12.0638L266.98 10.5118L268.511 11.051L269.574 12.0505L271.808 12.7337L274.115 12.6027L274.952 11.2442L276.153 11.1247L277.427 12.4171L279.019 12.4575L280.197 11.5832L281.526 11.7671L283.441 10.1663L284.877 10.1419L286.642 10.9138L288.016 10.8852L290.401 9.70596L295.071 10.4205L296.613 11.078L297.535 11.054L299.808 11.6977L300.646 12.4686L305.015 14.2983L306.623 15.8731L307.969 16.2548L310.589 17.6868L311.589 20.2397L314.146 20.7575L315.42 20.2656L318.308 19.9266L320.462 19.272L322.198 19.5339L323.182 19.0114L325.271 20.3101L326.889 20.6635L328.694 23.0703L329.331 24.9334L330.289 26.6692L331.06 28.8642L331.144 31.9184L330.838 33.9482Z" fill="#1E1E1E"/>
<path d="M30.8203 96.6106L29.2378 95.1083L26.6181 91.6102L24.5625 88.3392L21.7926 82.6656L20.7853 81.6362L20.1419 81.1199L18.7526 81.6895L18.2605 83.8984M30.8203 96.6106L29.3594 97.451M30.8203 96.6106L31.7592 97.0357L32.6903 96.4309L34.109 96.8794L37.7274 97.302L39.6404 96.3231L42.4439 93.5047L43.5822 93.0918L44.2453 92.2861L45.7966 91.7241L46.6682 92.0797L48.002 91.7271L50.1137 92.5712L51.2681 91.6173L52.1668 91.5546L54.538 94.2829L55.4756 94.1106L56.5484 94.6525L58.5271 96.5024L60.6291 99.0756L62.149 100.169L64.5352 102.457L66.9645 103.559L69.0467 103.652L71.0189 105.617L74.7896 108.746L78.3331 111.938L81.747 114.561L88.7484 118.824L90.5992 119.774L93.3072 119.886L95.2135 119.053L96.3751 117.931L97.2903 117.929L101.444 119.833L103.97 120.814L108.375 122.183L111.31 121.552L112.031 122.256L114.985 123.665L117.737 124.981L121.872 126.896L124.25 127.551L127.011 127.426L129.631 125.834L132.508 124.863L133.6 123.4L135.054 122.449L137.271 120.041L139.091 119.455L144.063 119.325L146.298 117.612L147.396 117.455L149.649 115.894L150.637 114.492L152.146 113.348L154.835 113.152L157.788 112.489L160.018 110.056L161.091 107.356L161.598 104.488L161.54 102.166L162.709 100.376L164.868 100.151L166.394 99.5769L167.85 97.3535L168.259 95.3743L169.961 94.5124L171.283 92.1809L173.905 89.6616L176.899 88.2519L178.854 85.3951L179.78 84.6019L180.806 81.3882L181.586 81.1052L182.462 78.1015L182.813 75.7635L183.569 74.4652L184.288 71.3911L184.958 66.919L185.311 63.3449L187.532 61.3687L189.541 59.0177L190.434 56.6145L191.361 50.8827L191.433 46.6662L191.99 45.2845L194.251 41.7855L194.464 39.9745L194.952 38.9867L196.209 38.9923L196.582 39.5979L198.697 40.1061L199.386 38.9272L201.482 37.573L203.618 34.3981L204.404 33.7491L205.75 31.7928L206.482 29.3796L207.328 28.3371L208.138 26.2454L210.267 24.1784L211.09 22.9077L211.589 20.9897L212.704 20.3784L214.126 21.9142L215.49 22.4128L216.994 20.7965L217.82 20.4385L219.519 21.1437L220.411 20.2977L223.881 18.7364L225.085 17.8571L226.353 17.5316L228.578 15.7148L229.914 16.6953L233.674 17.474L234.667 16.9321L235.051 15.8012L237.131 14.0798L239.533 10.7L241.747 8.68101L242.511 7.49237L242.977 5.35237L245.037 4.39874L245.845 3.375L247.655 3.64377L248.61 3.42921L252.337 3.9728L254.277 4.97686L255.021 5.70609L257.1 6.75269L257.723 8.54352L258.506 9.53804L258.793 11.331L259.643 12.2437L261.033 11.2954L262.373 11.1264L264.48 12.2987L265.345 12.0638L266.98 10.5118L268.511 11.051L269.574 12.0505L271.808 12.7337L274.115 12.6027L274.952 11.2442L276.153 11.1247L277.427 12.4171L279.019 12.4575L280.197 11.5832L281.526 11.7671L283.441 10.1663L284.877 10.1419L286.642 10.9138L288.016 10.8852L290.401 9.70596L295.071 10.4205L296.613 11.078L297.535 11.054L299.808 11.6977L300.646 12.4686L305.015 14.2983L306.623 15.8731L307.969 16.2548L310.589 17.6868L311.589 20.2397L314.146 20.7575L315.42 20.2656L318.308 19.9266L320.462 19.272L322.198 19.5339L323.182 19.0114L325.271 20.3101L326.889 20.6635L328.694 23.0703L329.331 24.9334L330.289 26.6692L331.06 28.8642L331.144 31.9184L330.838 33.9482L329.306 35.1093L326.183 36.6747L324.512 37.2982L322.024 38.6809L319.043 41.7488L318.605 43.1178L319.129 44.4682L322.801 48.8248L324.63 52.5071L326.329 52.6069L327.575 53.1346L325.746 55.9248L323.093 57.9751L319.387 59.3278L318.313 60.13L316.675 64.0352L315.718 65.6733L313.366 68.1437L311.497 69.3273L309.467 69.8077L307.691 70.6489L304.353 73.5083L303.118 75.1528L301.598 76.6808L300.193 77.0475L298.091 74.0363L295.929 74.7635L295.328 77.6386L294.196 79.5559L292.801 81.336L289.026 84.5414L288.809 86.3261L289.162 89.0221L287.96 90.4146L284.169 90.2183L280.963 89.1734L278.455 88.9481L276.207 87.4722L275.663 89.4821L275.929 93.3618L275.495 95.8929L273.793 99.1973L273.532 100.963L273.613 102.95L272.847 107.572L273.027 110.2L273.709 110.408L275.967 110.192L277.283 110.86L278.781 112.13L282.674 112.861L283.749 113.343L284.334 114.943L283.674 116.384L284.159 117.912L285.268 118.668L287.509 121.81L290.385 123.192L292.107 123.73L294.688 123.543L296.932 123.002L297.903 122.236L298.296 120.808L298.499 118.543L299.466 117.119L300.915 116.937L301.917 117.458L303.598 116.865L306.747 114.585L308.321 113.837L309.322 114.164L310.355 115.203L311.765 117.875L314.437 119.644L317.315 120.498L318.371 120.564L320.661 121.849L322.69 122.15L325.135 122.125L326.256 123.15L325.644 124.025L323.622 125.844L320.372 127.561L319.264 128.645L319.173 129.631L321.164 133.453L324.866 136.53L325.24 138.974L323.151 139.037L317.154 141.191L316.295 141.155L311.507 139.583L308.981 137.67L306.606 137.747L302.545 136.576L300.42 136.59L294.281 134.764L293.049 134.86L292.46 136.13L292.628 138.816L293.18 143.98L293.851 146.875L293.686 148.08L292.429 149.274L291.601 150.669L291.558 154.324L291.103 157.96L290.57 159.194L287.87 160.566L282.73 161.125L281.704 160.977L281.091 160.184L279.684 159.882L277.728 160.685L277.049 163.211L276.17 164.252L275.146 166.912L274.803 168.946L274.855 171.631L273.685 174.074L273.877 175.237L275.192 178.557L275.058 179.376L273.727 181.08L272.663 183.526L272.774 185.017L272.56 188.012L270.708 190.717L270.772 192.778L268.935 194.458L269.035 196.067L271.347 199.381L271.808 201.702L271.521 202.851L268.887 206.873L264.458 211.992L262.586 213.407L258.662 217.374L255.533 221.579L254.171 222.41L253.419 223.638L253.826 225.672L254.488 226.718L254.789 228.121L253.217 230.147L250.902 234.603L248.83 232.821L246.725 232.353L245.531 231.681L244.599 231.88L243.536 233.723L242.983 236.786L241.82 238.726L240.072 239.841L237.567 240.742L235.843 242.432L234.543 243.264L232.946 243.652L226.72 245.611L225.072 246.095L222.655 247.39L220.891 249.181L220.559 253.642L219.975 255.819L217.952 258.081L215.24 259.446L211.52 262.969L210.074 264.913L207.241 265.2L203.837 265.974L202.535 266.456L201.464 267.47L200.232 270.056L199.29 270.92L198.197 272.73L197.002 275.639L195.619 276.895L194.966 279.109L193.199 281.122L191.071 282.134L190.129 283.236L187.124 285.881L186.22 287.08L183.972 289.28L182.659 292.833L182.039 293.804L179.11 295.747L176.907 297.826L171.871 301.402L170.46 303.727L169.944 306.363L168.193 309.191L167.842 311.088L167.9 313.153L168.301 315.197L167.846 316.836L166.551 319.185L166.057 322.234L164.842 322.696L164.023 322.428L161.3 321.997L159.378 320.5L158.809 318.828L157.858 318.38L156.95 316.825L155.189 315.21L154.432 313.404L153.555 312.401L153.29 310.563L151.288 306.656L150.962 305.204L149.139 300.725L149.12 299.749L147.857 298.183L147.532 296.046L146.736 293.944L147.1 292.89L145.029 291.013L144.502 289.61L142.5 288.481L142.822 286.515L142.31 285.813L139.546 285.23L138.985 285.525L137.992 287.429L135.92 285.566L133.398 285.315L131.415 283.35L130.043 284.087L128.86 283.403L126.805 282.728L126.799 281.369L125.543 282.126L124.496 281.891L121.231 280.261L120.601 279.697L122.253 277.836L120.832 276.509L119.608 276.358L117.417 276.709L116.864 276.26L113.73 276.759L112.669 275.76L112.257 274.28L112.153 270.068L111.371 269.923L108.18 270.997L107.158 271.983L105.208 271.097L104.678 272.465L103.504 274.116L101.605 273.023L100.087 270.592L99.3382 270.569L99.0673 272.457L97.609 272.519L96.6594 270.983L95.9059 270.754L93.9008 272.202L92.2022 273.004L88.2591 271.238L85.5889 270.364L83.449 270.24L80.1917 268.988L76.278 268.724L74.9027 269.932L73.8828 269.923L73.1835 267.439L73.2155 264.935L74.5812 260.439L74.5374 256.746L74.2176 255.945L72.3888 254.371L67.9895 252.467L66.2234 251.132L62.7083 248.866L60.8321 248.055L58.1152 247.619L57.1248 247.12L56.105 244.525L55.9948 241.922L55.3877 239.896L54.494 239.209L52.5775 239.411L51.2475 238.462L50.2488 235.878L48.0983 235.066L46.5836 234.843L45.5233 233.837L45.3688 232.929L45.9708 231.945L48.6811 230.137L49.3646 229.213L53.3475 226.7L54.6765 223.689L54.8458 222.068L54.5373 219.819L53.5926 218.495L49.8863 214.525L50.1841 212.843L51.5444 210.046L50.9923 208.156L49.6924 206.974L49.66 205.504L51.6907 203.767L50.9361 202.578L48.7127 202.819L46.707 202.724L45.5521 202.325L41.6166 198.966L39.9672 196.283L37.1876 194.248L34.1554 192.432L31.9993 190.546L30.1202 188.039L28.6752 185.377L27.4785 184.882L27.3102 182.641L26.9426 181.512L24.7611 179.69L23.9568 179.441L19.0539 179.538L18.23 179.041L14.7434 175.474L12.1444 174.451L8.86668 172.911L8.17987 172.31L7.68443 170.493L8.72575 165.564L8.65953 162.745L7.25097 158.775L6.65198 157.714L5.37047 156.575L3.31986 155.603L2.94531 153.551L3.52538 153.302L5.62208 151.028L8.64745 145.1L9.41239 143.092L10.4461 138.976L10.6245 136.533L11.138 134.16L11.5099 128.372L10.8941 125.02L10.8054 122.779L10.1284 119.495L9.80858 116.305L9.26856 114.412L8.64821 113.961L9.07429 112.415L8.73939 109.979L10.0536 108.781L9.40159 104.329L8.82599 104.076L9.58106 102.343L10.719 101.969L10.5813 100.394L11.3517 97.9454L12.2645 96.7484L11.5346 94.95L13.0187 94.5404L13.1505 93.5294L14.0755 92.7985L13.864 90.5816L13.0532 87.5295L11.9583 84.8748L11.8534 82.938L12.441 81.0524L13.5271 79.8218L15.9352 82.8303L18.2605 83.8984M29.3594 97.451L28.2396 95.695L27.3394 94.9256L25.6983 92.2405L23.8457 89.9738L22.2309 89.3768L22.893 88.3018L22.8405 87.1302L20.6109 83.6728L18.2605 83.8984M29.3594 97.451L30.5112 98.4336L30.3637 100.106L29.3785 101.599L29.3318 103.538L31.2451 105.857L33.3399 106.947L30.7913 108.013L29.7029 107.922L30.4026 105.996L29.5411 105.065L27.4468 104.413L27.6391 102.757L26.135 101.447L24.1879 101.995L22.8351 100.984L22.799 99.6407L21.1782 98.7864L20.4088 96.5169L20.6472 95.7288L20.0686 94.0003L21.3509 93.1533L21.2411 91.3826L19.208 90.9495L18.8535 89.7181L18.0756 88.8565L19.4588 88.0811L16.4254 87.4397L15.8236 85.4114L18.2605 83.8984" stroke="white" stroke-width="5"/>
</svg>
