<svg width="293" height="232" viewBox="0 0 293 232" fill="none" xmlns="http://www.w3.org/2000/svg">
<path d="M86.7439 74.0462L86.2822 72.7811L87.6952 71.5682L88.7025 71.4606L86.7439 74.0462ZM122.951 5.55066L123.325 7.60223L125.376 8.57494L126.657 9.71331L127.256 10.7744L128.665 14.7446L128.731 17.5637L127.69 22.4927L128.185 24.3094L128.872 24.9103L132.15 26.4511L134.749 27.4739L138.235 31.0406L139.059 31.5374L143.962 31.4411L144.766 31.6897L146.948 33.5122L147.316 34.6404L147.484 36.8817L148.681 37.3766L150.126 40.0388L152.005 42.5455L154.161 44.4322L157.193 46.248L159.973 48.2831L161.622 50.9656L165.557 54.3244L166.712 54.7237L168.718 54.8183L170.941 54.578L171.696 55.7669L169.665 57.504L169.698 58.9738L170.998 60.156L171.55 62.046L170.189 64.8428L169.892 66.5251L173.598 70.4948L174.543 71.8187L174.851 74.0675L174.682 75.6889L173.353 78.6994L169.37 81.2127L168.686 82.1363L165.976 83.9443L165.374 84.9285L165.529 85.8368L166.589 86.8426L168.104 87.0656L170.254 87.8775L171.253 90.4616L172.583 91.4111L174.499 91.2083L175.393 91.8955L176 93.9214L176.11 96.525L177.13 99.1202L178.121 99.6188L180.837 100.055L182.714 100.866L186.229 103.131L187.995 104.467L192.394 106.37L194.223 107.945L194.543 108.746L194.587 112.438L193.221 116.934L193.189 119.439L193.888 121.923L194.908 121.932L196.283 120.724L200.197 120.987L203.454 122.24L205.594 122.364L208.264 123.238L212.208 125.004L213.906 124.202L215.911 122.754L216.665 122.982L217.614 124.519L219.073 124.456L219.344 122.569L220.092 122.592L221.61 125.023L223.509 126.116L224.683 124.464L225.214 123.097L227.163 123.983L228.186 122.996L231.377 121.923L232.158 122.068L232.262 126.28L232.674 127.76L233.735 128.759L236.869 128.26L237.422 128.709L239.613 128.358L240.838 128.509L242.258 129.836L240.606 131.697L241.236 132.261L244.502 133.891L245.549 134.126L246.804 133.369L246.811 134.728L248.865 135.403L250.049 136.087L251.42 135.35L253.404 137.314L255.925 137.566L257.526 139.392L258.99 137.525L259.551 137.23L262.315 137.813L262.828 138.515L262.505 140.48L264.507 141.61L265.034 143.012L267.106 144.89L266.742 145.944L267.538 148.046L267.862 150.182L269.125 151.749L269.144 152.724L270.967 157.204L271.294 158.656L273.296 162.563L273.56 164.4L274.437 165.404L275.195 167.21L276.955 168.825L277.863 170.38L278.814 170.827L279.384 172.5L281.305 173.997L284.029 174.427L284.147 176.648L287.087 179.454L289.599 180.141L289.983 180.962L288.582 182.4L287.491 185.105L286.384 186.114L283.229 191.342L280.617 194.012L279.485 194.503L277.599 193.981L275.989 193.943L274.454 194.336L272.465 196.09L271.128 196.673L269.794 196.683L268.618 196.01L265.987 196.449L261.944 196.763L259.047 197.407L256.954 197.475L252.533 198.317L250.746 199.78L247.845 200.103L244.737 200.861L241.804 200.541L239.836 199.861L238.362 200.054L235.006 198.746L229.553 197.152L224.073 193.111L221.688 190.593L220.038 184.597L218.794 181.998L218.251 180.012L216.802 177.171L216.243 176.813L215.095 177.514L214.355 178.962L212.801 184.764L211.185 186.581L208.71 186.473L204.964 185.721L202.946 184.319L201.812 184.021L200.405 184.319L197.262 185.533L195.86 186.296L194.869 187.617L192.615 187.583L192.028 188.637L193.602 190.391L193.405 193.808L191.47 195.302L191.047 196.553L192.626 199.445L192.287 201.251L190.487 203.148L190.088 203.946L189.755 206.167L187.778 206.763L182.931 207.836L182.221 208.77L181.959 211.488L181.391 213.192L178.309 212.574L177.272 214.321L176.548 213.915L175.379 211.22L173.488 211.027L169.517 209.668L168.925 209.154L169.988 206.161L170.717 204.888L171.139 203.2L169.751 201.817L167.935 200.984L167.013 201.501L164.99 204.418L162.588 206.064L160.098 208.128L155.266 209.428L153.361 210.321L149.693 210.184L146.53 211.955L144.791 214.482L144.49 215.354L145.068 216.528L147.926 218.198L149.021 219.097L149.824 220.493L149.097 221.893L147.794 222.629L143.795 221.996L140.602 220.805L138.932 220.693L137.541 221.275L134.414 222.123L132.047 222.462L129.884 222.432L127.484 223.202L125.948 223.958L122.454 224.382L117.587 223.179L116.334 222.619L111.315 223.059L109.344 222.786L107.021 223.762L105.644 224.864L103.273 225.763L99.4256 227.535L99.5354 224.491L97.217 220.145L95.1255 217.516L91.7605 213.134L87.8528 209.112L83.833 205.364L78.8705 201.37L75.4523 199.085L67.4758 194.211L64.1693 192.491L59.4033 190.243L57.1783 188.955L52.8112 186.994L47.8773 185.166L46.9395 184.637L41.7055 182.648L37.5202 181.292L34.1397 180.34L29.3379 179.468L26.3399 178.25L23.8251 177.775L22.7759 178.246L20.4164 177.528L15.6247 175.032L13.9202 174.751L12.0321 173.827L9.45018 173.169L6.27327 170.952L5.3515 170.742L4.6391 167.652L3.11167 166.831L2.84375 164.613L3.19862 163.699L4.18695 163.48L4.83969 159.079L4.5384 156.808L3.58779 155.065L3.81253 150.305L4.63765 146.007L5.42487 143.083L5.8011 140.565L7.06577 136.579L6.78142 135.003L7.85345 134.193L9.0577 131.348L11.1164 124.993L12.0711 122.428L12.9474 118.423L13.0797 115.849L13.9496 114.007L13.2329 110.093L13.9664 109.478L16.1679 109.23L18.1522 107.705L19.0025 106.511L20.6372 106.808L22.456 109.818L23.3012 110.294L23.8131 112.544L25.4589 114.343L26.5875 115.014L29.0335 115.438L30.4623 116.743L34.1311 117.017L35.5485 116.884L38.8173 116.098L41.9415 114.947L47.0788 112.53L51.5219 109.445L54.0971 107.062L56.2278 104.504L63.0383 97.0089L64.5912 95.1186L66.9729 93.0456L71.3074 90.6697L73.3398 88.8451L75.2831 87.5756L77.2758 84.9569L80.1233 81.7859L82.7131 77.0579L87.2456 69.2698L89.8335 65.2719L90.3491 66.3408L89.1766 67.1286L88.1526 69.131L86.9979 70.1958L86.2822 72.7811L85.5744 74.1673L86.7102 76.2045L87.9103 76.6833L89.3482 75.3494L89.634 74.1134L90.5389 74.089L89.9549 75.663L91.0416 76.9265L91.9025 76.1595L92.8561 76.4369L93.624 75.5928L95.362 74.559L96.6717 74.6629L97.5639 73.9894L97.5276 72.2223L98.9 71.7835L99.4804 70.121L100.29 68.8949L102.014 68.0423L104.004 65.0559L105.331 63.7029L107.683 62.1365L106.551 61.5923L106.807 59.3901L104.276 58.6528L102.596 57.3238L102.408 55.7816L101.086 56.9913L100.304 56.3137L97.6071 57.6591L95.1922 60.2666L93.3296 63.1437L91.3899 64.3552L98.1762 56.0713L99.7012 53.7366L103.099 47.7237L106.765 39.7175L108.162 37.2324L109.912 33.2805L112.113 28.8976L114.071 23.4576L116.289 14.5766L116.87 10.6538L118.294 6.91797L119.906 5.208L121.922 4.17578L122.232 5.41696L122.951 5.55066Z" fill="#1E1E1E"/>
<path d="M86.2822 72.7811L86.7438 74.0462L88.7025 71.4606L87.6952 71.5682L86.2822 72.7811ZM86.2822 72.7811L86.9979 70.1958L88.1526 69.131L89.1766 67.1286L90.3491 66.3408L89.8335 65.2719L87.2456 69.2698L82.7131 77.0579L80.1233 81.7859L77.2758 84.9569L75.2832 87.5756L73.3398 88.8451L71.3074 90.6697L66.9729 93.0456L64.5912 95.1186L63.0383 97.0089L56.2278 104.504L54.0971 107.062L51.5219 109.445L47.0788 112.53L41.9415 114.947L38.8173 116.098L35.5485 116.884L34.1311 117.017L30.4623 116.743L29.0335 115.438L26.5875 115.014L25.4589 114.343L23.8131 112.544L23.3012 110.294L22.456 109.818L20.6372 106.808L19.0025 106.511L18.1522 107.705L16.1679 109.23L13.9664 109.478L13.2329 110.093L13.9496 114.007L13.0797 115.849L12.9474 118.423L12.0711 122.428L11.1164 124.993L9.0577 131.348L7.85345 134.193L6.78142 135.003L7.06577 136.579L5.8011 140.565L5.42487 143.083L4.63765 146.007L3.81253 150.305L3.58779 155.065L4.5384 156.808L4.83969 159.079L4.18695 163.48L3.19862 163.699L2.84375 164.613L3.11167 166.831L4.6391 167.652L5.3515 170.742L6.27327 170.952L9.45018 173.169L12.0321 173.827L13.9202 174.751L15.6247 175.032L20.4164 177.528L22.7759 178.246L23.8251 177.775L26.3399 178.25L29.3379 179.468L34.1396 180.34L37.5202 181.292L41.7055 182.648L46.9395 184.637L47.8773 185.166L52.8112 186.994L57.1784 188.955L59.4033 190.243L64.1693 192.491L67.4758 194.211L75.4523 199.085L78.8705 201.37L83.833 205.364L87.8528 209.112L91.7605 213.134L95.1255 217.516L97.217 220.145L99.5354 224.491L99.4256 227.535L103.273 225.763L105.644 224.864L107.021 223.762L109.344 222.786L111.315 223.059L116.334 222.619L117.587 223.179L122.454 224.382L125.948 223.958L127.484 223.202L129.884 222.432L132.047 222.462L134.414 222.123L137.541 221.275L138.932 220.693L140.602 220.805L143.795 221.996L147.794 222.629L149.097 221.893L149.824 220.493L149.021 219.097L147.926 218.198L145.068 216.528L144.49 215.354L144.791 214.482L146.53 211.955L149.693 210.184L153.361 210.321L155.266 209.428L160.098 208.128L162.588 206.064L164.99 204.418L167.013 201.501L167.935 200.984L169.751 201.817L171.139 203.2L170.717 204.888L169.988 206.161L168.925 209.154L169.517 209.668L173.488 211.027L175.379 211.22L176.548 213.915L177.272 214.321L178.309 212.573L181.391 213.192L181.959 211.488L182.221 208.77L182.931 207.836L187.778 206.763L189.755 206.167L190.088 203.946L190.487 203.148L192.287 201.251L192.626 199.445L191.047 196.553L191.47 195.302L193.405 193.808L193.602 190.391L192.028 188.637L192.615 187.583L194.869 187.617L195.86 186.296L197.262 185.533L200.405 184.319L201.812 184.021L202.946 184.319L204.964 185.721L208.71 186.473L211.185 186.581L212.801 184.764L214.355 178.962L215.095 177.514L216.243 176.813L216.802 177.171L218.251 180.012L218.794 181.998L220.038 184.597L221.688 190.593L224.073 193.111L229.553 197.152L235.006 198.746L238.362 200.054L239.836 199.861L241.804 200.541L244.737 200.861L247.845 200.103L250.746 199.78L252.533 198.317L256.954 197.475L259.047 197.407L261.944 196.763L265.987 196.449L268.618 196.01L269.794 196.683L271.128 196.673L272.465 196.09L274.454 194.336L275.989 193.943L277.599 193.981L279.485 194.503L280.617 194.012L283.229 191.342L286.384 186.114L287.491 185.105L288.582 182.4L289.983 180.962L289.599 180.141L287.087 179.454L284.147 176.648L284.029 174.427L281.305 173.997L279.384 172.5L278.814 170.827L277.863 170.38L276.955 168.825L275.195 167.21L274.437 165.404L273.56 164.4L273.296 162.563L271.294 158.656L270.967 157.204L269.144 152.724L269.125 151.749L267.862 150.182L267.538 148.046L266.742 145.944L267.106 144.89L265.034 143.012L264.507 141.61L262.505 140.48L262.828 138.515L262.315 137.813L259.551 137.23L258.99 137.525L257.526 139.392L255.925 137.566L253.404 137.314L251.42 135.35L250.049 136.087L248.865 135.403L246.811 134.728L246.804 133.369L245.549 134.126L244.502 133.891L241.236 132.261L240.606 131.697L242.258 129.836L240.838 128.509L239.613 128.358L237.422 128.709L236.869 128.26L233.735 128.759L232.674 127.76L232.263 126.28L232.158 122.068L231.377 121.923L228.186 122.996L227.163 123.983L225.214 123.097L224.683 124.464L223.509 126.116L221.61 125.023L220.092 122.592L219.344 122.569L219.073 124.456L217.614 124.519L216.665 122.982L215.911 122.754L213.906 124.202L212.208 125.004L208.264 123.238L205.594 122.364L203.454 122.24L200.197 120.987L196.283 120.724L194.908 121.932L193.888 121.923L193.189 119.439L193.221 116.934L194.587 112.438L194.543 108.746L194.223 107.945L192.394 106.37L187.995 104.467L186.229 103.131L182.714 100.866L180.837 100.055L178.121 99.6188L177.13 99.1202L176.11 96.525L176 93.9214L175.393 91.8955L174.499 91.2082L172.583 91.4111L171.253 90.4616L170.254 87.8775L168.104 87.0656L166.589 86.8426L165.529 85.8368L165.374 84.9285L165.976 83.9443L168.686 82.1363L169.37 81.2127L173.353 78.6994L174.682 75.6889L174.851 74.0675L174.543 71.8187L173.598 70.4948L169.892 66.5251L170.189 64.8428L171.55 62.046L170.998 60.156L169.698 58.9738L169.665 57.504L171.696 55.7669L170.941 54.578L168.718 54.8183L166.712 54.7237L165.557 54.3244L161.622 50.9656L159.973 48.2831L157.193 46.248L154.161 44.4322L152.005 42.5455L150.126 40.0388L148.681 37.3766L147.484 36.8817L147.316 34.6404L146.948 33.5122L144.766 31.6897L143.962 31.4411L139.059 31.5374L138.235 31.0406L134.749 27.4739L132.15 26.4511L128.872 24.9103L128.185 24.3094L127.69 22.4927L128.731 17.5637L128.665 14.7446L127.256 10.7744L126.657 9.71331L125.376 8.57494L123.325 7.60223L122.951 5.55066L122.232 5.41696L121.922 4.17578L119.906 5.208L118.294 6.91797L116.87 10.6538L116.289 14.5766L114.071 23.4576L112.113 28.8976L109.912 33.2805L108.162 37.2324L106.765 39.7175L103.099 47.7237L99.7012 53.7366L98.1762 56.0713L91.3899 64.3552L93.3296 63.1437L95.1922 60.2666L97.6071 57.6591L100.304 56.3137L101.086 56.9913L102.408 55.7816L102.596 57.3238L104.276 58.6528L106.807 59.3901L106.551 61.5923L107.683 62.1365L105.331 63.7029L104.004 65.0559L102.014 68.0423L100.29 68.8949L99.4804 70.121L98.9 71.7835L97.5276 72.2223L97.5639 73.9894L96.6717 74.6629L95.362 74.559L93.624 75.5928L92.8561 76.4369L91.9025 76.1595L91.0416 76.9265L89.9549 75.663L90.5389 74.089L89.634 74.1134L89.3482 75.3494L87.9103 76.6833L86.7102 76.2045L85.5744 74.1673L86.2822 72.7811Z" stroke="white" stroke-width="5"/>
</svg>
