<svg width="293" height="243" viewBox="0 0 293 243" fill="none" xmlns="http://www.w3.org/2000/svg">
<path d="M290.174 61.5483L288.745 62.6305L287.395 62.9741L285.328 63.0569L284.254 63.6716L280.935 67.9291L280.452 66.4253L279.862 66.402L279.228 68.476L277.749 68.9372L277.113 69.7637L274.347 69.6003L272.279 71.3949L271.877 73.7396L269.545 75.0556L267.81 77.0028L266.593 79.0064L264.954 80.0945L264.123 81.063L259.7 84.5416L257.891 85.2831L255.694 86.6299L254.805 88.6716L253.189 89.7136L251.859 91.2854L249.465 97.4887L247.488 100.991L246.595 102.086L245.178 104.899L244.409 108.223L243.518 110.006L243.243 112.605L243.427 115.794L244.858 120.187L244.669 123.281L243.831 125.502L243.793 126.874L244.387 130.187L244.91 131.707L245.248 134.1L244.689 138.848L244.96 141.946L246.202 145.566L246.701 149.156L249.328 154.159L251.092 160.359L251.255 163.689L251.122 165.19L251.321 168.184L251.914 171.832L251.701 177.363L250.671 181.808L250.165 182.992L250.411 187.083L249.83 189.31L247.816 191.543L246.114 197.262L245.217 199.674L245.028 202.774L243.045 208.455L243.196 209.758L244.566 213.705L244.754 216.682L243.547 219.933L242.903 223.375L243.072 227.431L243.943 233.081L244.243 237.263L244.493 238.688L241.986 237.65L237.616 233.586L236.036 232.739L232.529 229.225L232.101 227.2L228.109 225.002L225.064 224.034L223.639 223.047L221.575 219.934L219.442 219.617L217.911 219.708L215.748 220.755L214.073 220.278L212.162 218.576L210.269 217.362L209.158 212.592L208.03 209.909L207.631 207.893L207.948 203.511L207.09 202.327L204.719 201.391L201.654 201.752L198.648 202.496L195.393 203.764L194.391 203.746L192.367 202.965L190.867 201.667L183.803 203.146L181.935 203.792L180.864 206.571L179.114 207.123L176.358 206.931L174.43 207.84L172.717 208.182L171.306 208.11L167.927 209.035L162.846 209.687L160.483 210.161L158.047 211.618L155.98 211.334L154.631 210.55L152 207.775L149.38 208.37L146.296 210.176L144.927 210.484L142.477 210.591L140.807 210.128L139.688 209.199L139.043 206.526L139.879 204.967L141.744 202.608L142.057 200.914L141.853 199.91L140.889 199.921L138.879 200.791L135.473 202.895L134.27 202.95L130.332 202.568L123.167 200.084L122.161 200.565L121.445 201.926L118.499 200.578L117.154 200.848L116.145 201.843L112.076 202.937L108.804 200.875L107.735 200.847L105.966 201.59L103.847 201.755L102.399 201.549L101.083 203.347L99.0064 203.028L96.966 203.125L95.9895 204.285L94.9472 204.337L91.693 203.387L89.8575 203.498L87.2309 205.094L85.563 205.616L82.5329 206.058L80.8976 206.655L80.0424 207.38L78.8629 209.475L78.4317 211.004L79.2238 215.926L78.871 217.369L78.6841 219.963L76.2259 222.288L75.5209 221.813L74.5121 222.297L72.4475 220.512L69.5746 216.925L68.1497 215.78L64.0563 210.946L60.8324 207.695L56.5574 203.95L50.2682 199.387L44.0148 195.481L39.9989 193.573L36.9057 192.437L29.4603 190.813L25.7781 190.431L22.7545 190.282L19.7577 190.464L16.5882 191.312L13.9379 192.957L12.8117 194.079L12.0672 195.384L11.3936 197.377L11.3166 200.204L12.3804 202.877L11.1289 206.062L9.89088 207.958L8.25991 209.92L6.69133 207.722L6.00928 205.061L4.95315 204.267L4.56503 201.217L5.85535 201.117L5.81861 199.889L6.36461 197.89L6.24005 196.25L7.00557 195.449L7.53961 194.051L7.85071 190.17L7.29421 188.501L6.25932 187.966L4.00602 187.464L3.38672 186.798L3.58807 185.606L4.70264 184.77L4.99285 183.464L6.55168 182.108L6.54831 180.812L4.71483 180.736L3.64094 180.263L4.61337 178.366L5.39009 177.721L7.57815 177.793L7.65151 176.991L9.16623 175.647L9.14592 174.569L9.70352 172.524L11.4386 171.947L11.8703 169.064L11.2625 168.118L11.464 166.955L12.5425 165.001L11.6093 159.99L10.3287 156.932L8.78106 154.549L7.95542 154.359L6.74316 150.131L6.04051 149.283L7.39427 145.213L6.8586 143.952L6.82279 142.054L5.9445 140.126L5.6103 137.575L5.20749 136.416L3.94897 134.828L4.42352 133.533L8.27134 131.762L10.642 130.863L12.0189 129.761L14.3423 128.785L16.3129 129.058L21.3316 128.618L22.5846 129.178L27.452 130.381L30.9455 129.957L32.4823 129.201L34.8821 128.431L37.0453 128.461L39.4121 128.122L42.5385 127.274L43.9296 126.691L45.6003 126.803L48.793 127.994L52.7919 128.627L54.0945 127.892L54.8217 126.492L54.0187 125.096L52.9236 124.197L50.0664 122.527L49.4882 121.353L49.7888 120.48L51.528 117.954L54.6908 116.183L58.359 116.32L60.2638 115.427L65.0955 114.127L67.5858 112.063L69.9879 110.417L72.0109 107.5L72.933 106.983L74.7489 107.816L76.1368 109.198L75.7147 110.887L74.9858 112.16L73.9227 115.153L74.515 115.667L78.4863 117.025L80.3768 117.218L81.5459 119.914L82.2703 120.32L83.3071 118.572L86.3887 119.191L86.9567 117.487L87.2193 114.769L87.9294 113.834L92.7757 112.762L94.7531 112.166L95.0856 109.945L95.4845 109.147L97.2852 107.25L97.6238 105.444L96.0453 102.552L96.4678 101.301L98.4033 99.8064L98.5995 96.3901L97.0259 94.6355L97.6134 93.5819L99.8672 93.6152L100.858 92.2944L102.26 91.5317L105.402 90.3175L106.81 90.0198L107.944 90.3177L109.962 91.7199L113.708 92.4714L116.183 92.5797L117.799 90.7628L119.353 84.9603L120.093 83.5123L121.241 82.8115L121.8 83.1696L123.249 86.0104L123.792 87.9972L125.036 90.596L126.686 96.5917L129.071 99.1096L134.551 103.151L140.004 104.744L143.36 106.052L144.834 105.86L146.802 106.54L149.735 106.86L152.842 106.102L155.744 105.779L157.531 104.316L161.952 103.474L164.045 103.406L166.942 102.762L170.984 102.447L173.616 102.008L174.792 102.682L176.126 102.671L177.463 102.089L179.452 100.334L180.986 99.9414L182.597 99.9798L184.483 100.502L185.615 100.011L188.227 97.341L191.382 92.1123L192.489 91.1038L193.58 88.399L194.981 86.961L194.597 86.1396L192.085 85.4526L189.145 82.6465L189.027 80.4261L189.845 80.6941L191.06 80.2323L191.555 77.1836L192.849 74.8341L193.305 73.1957L192.903 71.1514L192.845 69.0868L193.196 67.1892L194.948 64.3617L195.463 61.7259L196.874 59.4007L201.91 55.8244L204.113 53.7454L207.043 51.8027L207.662 50.8313L208.975 47.2786L211.224 45.0787L212.127 43.8797L215.132 41.2346L216.074 40.1321L218.202 39.1203L219.969 37.1074L220.622 34.8933L222.006 33.637L223.2 30.7286L224.293 28.9187L225.235 28.0539L226.467 25.468L227.538 24.4541L228.84 23.9726L232.245 23.1987L235.078 22.9113L236.523 20.9671L240.243 17.4446L242.956 16.079L244.978 13.8177L245.562 11.6402L245.895 7.17952L247.658 5.38809L250.075 4.09301L251.724 3.60938L252.45 4.18991L252.771 7.61591L253.542 8.82771L256.966 12.522L257.67 13.81L257.927 15.306L260.463 18.2924L261.005 19.6986L260.878 21.8108L259.991 27.103L260.431 29.3702L261.614 29.9884L262.254 31.4811L262.899 31.6946L265.51 31.3L266.437 31.7729L267.441 33.1081L272.037 34.5894L275.719 36.9716L277.993 41.1757L281.121 45.7918L282.732 48.3808L284.386 50.5509L287.685 54.5055L289.12 56.8056L289.775 58.4713L290.174 61.5483Z" fill="#1E1E1E" stroke="white" stroke-width="5"/>
</svg>
