<svg width="230" height="236" viewBox="0 0 230 236" fill="none" xmlns="http://www.w3.org/2000/svg">
<path d="M215.389 122.689L215.743 124.903L215.04 127.684L214.62 128.425L216.376 133.264L216.309 136.625L217.568 142.848L218.073 146.035L218.117 147.565L217.526 151.646L216.761 153.609L215.096 155.425L211.49 157.51L209.751 159.713L209.13 161.396L207.007 164.486L205.538 165.27L204.959 166.661L207.972 168.201L208.244 171.38L210.147 173.577L213.579 174.868L214.093 175.771L217.729 180.594L218.337 182.654L219.977 184.944L221.154 187.995L222.593 190.355L224.342 191.301L225.662 192.604L226.676 195.843L225.134 196.671L224.146 196.776L220.842 196.086L218.519 196.361L215.304 195.772L211.996 196.489L211.579 197.542L211.973 199.532L211.65 201.235L210.167 201.807L206.735 200.918L205.265 200.773L204.143 200.985L202.331 201.952L201.292 201.817L198.687 202.773L197.424 202.726L195.247 203.847L194.327 204.664L190.804 210.799L189.192 213.823L188.013 214.774L185.447 217.626L183.996 220.632L183.304 223.145L181.773 223.538L180.198 222.516L176.646 220.937L172.766 219.013L170.817 218.922L168.29 219.756L166.459 219.088L165.142 217.652L164.056 215.546L162.232 213.99L157.93 214.665L156.411 213.779L156.411 212.384L156.895 211.488L160.718 209.506L161.329 208.081L160.227 206.303L159.009 205.726L155.436 205.6L151.918 206.515L149.472 206.01L148.488 206.102L146.803 207.465L146.253 209.071L145.516 209.923L145.667 211.093L144.948 211.751L142.553 212.086L139.99 213.523L138.981 214.562L136.635 216.006L135.387 215.652L134.78 216.107L134.863 217.528L134.245 219.716L132.932 220.922L129.835 224.901L128.077 225.822L127.338 227.632L125.456 229.329L126.038 231.639L125.843 232.379L124.442 232.502L121.987 229.318L120.107 229.167L117.867 229.382L115.114 228.071L112.267 228.174L110.604 228.541L108.097 229.862L106.83 229.79L105.876 228.546L105.163 226.68L103.273 225.617L101.707 223.353L99.7418 222.007L97.1501 221.893L95.8687 221.488L92.6116 222.33L90.2868 223.471L89.7342 223.057L89.7807 220.984L87.6799 219.486L85.9872 217.766L83.895 214.648L81.2164 213.006L78.7679 212.336L76.3657 210.242L74.9644 209.476L72.3299 207.156L71.4072 207.014L69.6608 208.161L67.9436 209.837L65.8294 211.085L64.2178 210.149L62.5046 208.741L62.2281 207.871L62.304 205.471L60.3439 204.935L59.0209 203.427L56.181 202.244L55.0854 201.463L52.7668 199.119L50.6162 195.991L48.9036 195.067L47.3439 195.206L45.0198 194.85L44.4541 193.903L44.4259 192.564L46.4165 190.108L46.8595 188.355L47.0954 185.344L44.8674 181.318L44.1689 179.548L43.7704 176.471L43.1154 174.806L41.6803 172.506L38.3812 168.551L36.7273 166.381L35.1155 163.792L31.9877 159.176L29.7136 154.972L26.0324 152.59L21.4359 151.108L20.4318 149.773L19.5051 149.3L16.8942 149.695L16.2494 149.481L15.6087 147.989L14.4263 147.37L13.9861 145.103L14.8725 139.811L14.9995 137.699L14.4582 136.293L11.9217 133.306L11.6652 131.81L10.9611 130.522L7.53743 126.828L6.76582 125.616L6.44485 122.19L5.71875 121.61L11.9438 119.65L13.5414 119.263L14.8411 118.43L16.5653 116.741L19.0701 115.839L20.8182 114.724L21.9815 112.785L22.5343 109.721L23.5969 107.879L24.5297 107.679L25.7237 108.352L27.8281 108.82L29.9002 110.602L32.2156 106.146L33.7874 104.12L33.4859 102.716L32.8247 101.67L32.4168 99.6369L33.1692 98.4086L34.5313 97.5781L37.6607 93.3721L41.5847 89.4054L43.4564 87.9909L47.8855 82.8711L50.5192 78.8493L50.8063 77.7009L50.3449 75.3795L48.0332 72.0653L47.933 70.4566L49.7704 68.7769L49.7061 66.7153L51.5588 64.011L51.7721 61.0158L51.6616 59.5246L52.7255 57.0791L54.0563 55.3741L54.19 54.5555L52.8748 51.2352L52.6832 50.0722L53.853 47.63L53.8012 44.9441L54.1439 42.9102L55.1679 40.251L56.0469 39.2091L56.7265 36.6838L58.6827 35.8803L60.0892 36.1827L60.702 36.9754L61.7284 37.1235L66.8686 36.5647L69.5682 35.1924L70.1009 33.9584L70.5567 30.3225L70.5997 26.6673L71.4268 25.2721L72.6846 24.0788L72.8497 22.8732L72.1786 19.9784L71.6267 14.8144L71.4587 12.1284L72.0472 10.8587L73.2789 10.7621L79.4186 12.5885L81.5432 12.5749L85.6041 13.7452L87.9791 13.6691L90.5054 15.5812L95.2933 17.154L96.152 17.1892L102.149 15.0361L104.239 14.9728L108.489 15.0536L112.307 14.0285L114.719 12.9142L116.379 12.6948L120.474 11.3583L122.974 10.8406L127.34 9.04367L129.666 8.38985L131.207 8.43391L133.957 8.94737L137.571 8.78157L142.352 8.81443L144.114 8.58548L147.919 6.93699L149.632 5.28698L152.929 3.54098L154.144 3.14062L155.775 3.33823L156.983 4.20873L160.325 5.93051L164.233 8.88272L166.862 9.69538L167.759 9.33349L172.306 9.0626L174.445 8.53521L176.112 6.76422L178.355 4.75823L179.239 5.13511L178.915 6.53528L179.352 9.84589L178.967 12.6008L179.293 14.5315L178.616 17.7245L179.778 18.608L182.829 18.0968L185.58 18.7422L186.769 19.4793L188.376 21.0666L190.296 23.615L190.705 24.5453L190.83 28.8781L190.51 30.3125L189.519 31.4942L187.681 33.0594L186.205 35.304L186.233 36.2993L187.517 38.8946L188.009 41.008L187.22 44.5209L186.902 48.4449L186.503 50.9454L191.546 53.2134L193.59 53.8106L195.777 54.8084L197.201 55.1435L200.809 55.2292L204.357 54.907L204.836 55.5672L204.189 58.7965L204.354 59.686L204.212 64.6165L202.781 67.8672L202.429 70.5956L203.01 72.3467L202.888 73.9975L199.908 75.3357L198.267 75.5287L194.187 76.9979L193.165 77.6422L192.619 78.6862L191.803 82.5257L190.384 84.4115L188.572 85.5839L187.746 87.1888L187.348 91.0257L187.46 93.3527L187.964 94.845L189.657 98.5826L190.008 102.135L191.12 103.847L191.977 104.491L192.297 106.087L192.219 108.284L192.742 112.343L193.848 112.847L194.881 112.351L197.781 112.219L199.553 111.245L201.208 111.602L204.186 113.477L206.628 115.261L208.19 117.262L209.822 118.474L213.089 119.157L214.014 120.069L215.389 122.689Z" fill="#1E1E1E" stroke="white" stroke-width="5"/>
</svg>
