<svg width="284" height="246" viewBox="0 0 284 246" fill="none" xmlns="http://www.w3.org/2000/svg">
<path d="M211.266 25.7711L211.785 29.039L212.256 30.0442L212.971 33.9092L213.429 35.3383L215.376 38.1589L215.9 39.412L216.772 43.0652L217.398 46.9292L218.026 49.225L217.842 49.9468L216.24 51.1173L214.937 52.9628L214.117 55.6376L214.205 60.8456L214.774 64.592L215.223 65.9168L216.815 68.713L217.725 71.2093L218.037 75.5089L218.566 78.7822L221.886 80.0668L224.758 81.6195L225.655 81.4163L229.319 82.1237L231.338 83.6303L232.854 86.1339L233.556 87.7644L234.627 89.1347L235.994 90.1919L237.691 90.3697L239.442 90.1132L243.578 87.6678L244.869 87.3831L245.949 87.6759L249.033 90.3751L250.667 92.578L252.109 95.759L253.511 99.6562L255.892 103.781L259.953 106.911L267.611 110.46L269.135 111.273L273.964 111.734L278.429 111.361L279.789 111.87L280.486 113.225L280.146 116.221L278.256 122.238L275.683 125.031L273.694 125.307L269.284 123.519L267.603 123.605L265.218 124.69L263.074 126.709L259.687 131.196L259.14 132.721L259.614 133.65L261.801 135.796L262.395 136.875L262.455 138.252L261.438 140.22L261.387 142.037L260.767 143.086L253.041 142.697L247.516 141.664L246.664 142.079L246.527 143.103L247.905 148.268L247.7 149.909L246.135 151.968L244.015 153.383L240.534 157.688L240.027 158.623L239.754 161.401L240.394 162.313L242.556 163.002L244.617 162.561L246.554 161.733L248.873 160.284L251.126 158.16L253.239 156.933L254.372 156.67L256.013 157.933L257.866 162.17L259.679 165.849L259.806 166.503L259.693 170.913L260.65 171.738L263.979 173.222L265.644 174.284L266.934 175.55L267.398 177.55L266.972 179.892L265.124 183.129L262.425 185.581L260.104 187.247L257.318 190.198L254.781 190.065L253.01 190.435L251.661 191.389L250.951 193.389L253.158 195.661L252.827 197.304L252.995 198.951L253.99 201.011L253.494 203.202L252.612 205.216L249.697 207.845L249.472 209.436L248.025 213.367L247.869 214.729L246.873 216.502L243.954 217.813L243.689 222.127L244.029 224.425L243.781 225.599L242.616 227.066L237.285 228.917L234.913 230.462L232.766 230.353L231.152 231.352L230.56 233.874L227.944 234.936L226.127 237.01L219.929 236.944L214.222 237.121L212.433 236.995L207.862 237.058L206.088 237.257L199.412 237.25L197.435 237.748L196.021 238.768L193.95 239.475L189.602 240.588L188.377 240.498L181.289 240.565L179.226 239.41L174.811 237.572L173.489 234.425L172.766 233.713L169.858 231.911L165.978 230.823L162.456 231.811L161.733 232.599L160.441 236.095L159.253 238.023L158.255 240.146L157.68 242.116L156.69 242.744L154.843 242.734L152.822 240.424L151.459 238.573L151.099 234.558L150.558 230.64L149.128 227.376L147.693 225.414L146.295 222.432L142.775 217.544L142.087 215.956L141.083 214.505L139.501 213.086L137.12 212.479L135.501 212.562L130.431 213.799L127.778 213.347L126.383 212.514L123.624 212.075L121.096 210.156L119.219 209.523L117.189 209.629L112.786 210.509L107.616 209.796L105.549 209.781L103.325 208.32L100.858 208.946L98.5211 208.327L92.4804 208.654L90.8011 209.254L89.0256 208.904L85.1961 209.074L82.4689 210.136L80.2176 211.95L79.7357 211.232L78.9965 208.061L77.2603 207.009L75.3738 207.309L74.3543 205.791L72.8517 205.176L71.2002 205.148L68.6289 204.173L65.5705 202.028L61.4617 201.222L61.1754 200.437L61.552 196.477L61.2217 195.685L60.1814 195.224L56.8283 194.488L55.5843 193.944L55.1022 192.147L56.4365 189.863L56.3073 188.806L55.4185 187.41L51.7111 184.004L51.1214 181.177L49.8827 178.601L49.6597 176.166L48.3698 174.422L46.4883 172.663L45.1103 170.85L44.0812 170.281L41.6566 170.681L40.2776 170.295L38.3506 171.396L37.743 171.322L35.467 169.068L33.4545 168.386L32.2454 167.507L30.8666 168.499L28.5146 172.315L27.0153 172.472L24.8956 171.391L23.5987 171.116L21.7162 171.51L20.2167 172.399L18.7327 175.623L17.522 176.388L15.8985 178.361L11.7454 178.644L9.57116 180.407L5.73018 181.885L4.4882 181.686L4.23909 180.261L3.9382 176.079L3.06769 170.43L2.89844 166.374L3.54293 162.931L4.74997 159.681L4.5618 156.704L3.19166 152.757L3.04099 151.454L5.02393 145.772L5.21256 142.673L6.10989 140.26L7.81179 134.541L9.82538 132.309L10.4063 130.081L10.1604 125.991L10.667 124.807L11.6963 120.362L11.9093 114.831L11.3168 111.182L11.1177 108.188L11.2508 106.687L11.0874 103.357L9.3232 97.1575L6.69704 92.1549L6.19742 88.5642L4.9559 84.9443L4.68496 81.8463L5.24379 77.0981L4.90517 74.7054L4.38222 73.1858L3.78845 69.8723L3.82618 68.5007L4.66488 66.2796L4.85375 63.186L3.42244 58.7926L3.23914 55.6035L3.51345 53.0043L4.40497 51.2212L5.17402 47.8972L6.59059 45.0842L7.48316 43.9893L9.46111 40.4873L11.8543 34.284L13.1847 32.7122L14.8005 31.6702L15.6892 29.6284L17.8867 28.2817L19.6952 27.5402L24.1183 24.0615L24.9492 23.0931L26.5884 22.005L27.8059 20.0014L29.541 18.0542L31.8724 16.7382L32.2746 14.3935L34.3427 12.5989L37.1085 12.7622L37.7442 11.9358L39.2232 11.4746L39.8574 9.4006L40.4474 9.42391L40.9311 10.9277L44.25 6.67022L45.324 6.05546L47.3905 5.97263L48.7408 5.62906L50.1695 4.54688L50.868 6.3162L53.096 10.342L52.8601 13.3535L52.4172 15.1066L50.4266 17.5625L50.4548 18.901L51.0204 19.848L53.3445 20.2045L54.9042 20.065L56.6168 20.9896L58.7675 24.1176L61.086 26.4618L62.1816 27.2421L65.0215 28.4257L66.3445 29.9334L68.3047 30.4693L68.2288 32.8689L68.5053 33.7398L70.2185 35.147L71.83 36.0831L73.9443 34.8357L75.6615 33.1597L77.4079 32.0125L78.3306 32.1546L80.965 34.4743L82.3664 35.2409L84.7686 37.3343L87.217 38.0045L89.8957 39.6469L91.9878 42.7649L93.6806 44.4841L95.7813 45.9824L95.7349 48.0553L96.2875 48.4693L98.6123 47.3287L101.869 46.4865L103.151 46.8915L105.742 47.0058L107.708 48.3518L109.273 50.6153L111.164 51.6783L111.877 53.5442L112.83 54.7881L114.097 54.8605L116.605 53.5394L118.268 53.1725L121.114 53.0691L123.867 54.3799L126.108 54.1655L127.987 54.3166L130.443 57.5002L131.844 57.3771L132.039 56.6374L131.457 54.3277L133.339 52.6303L134.078 50.8201L135.836 49.8996L138.932 45.92L140.245 44.7144L140.863 42.5263L140.78 41.1058L141.388 40.6508L142.636 41.0048L144.982 39.56L145.991 38.5212L148.554 37.0847L150.948 36.7495L151.668 36.0919L151.517 34.9217L152.253 34.0692L152.804 32.4636L154.488 31.1004L155.473 31.0082L157.919 31.5136L161.436 30.5987L165.009 30.7249L166.228 31.3019L167.33 33.0791L166.718 34.504L162.895 36.4865L162.412 37.3821L162.412 38.7773L163.931 39.6629L168.233 38.9885L170.057 40.5448L171.142 42.6501L172.46 44.0866L174.29 44.7544L176.818 43.9199L178.766 44.0117L182.646 45.9358L186.199 47.5149L187.773 48.5361L189.305 48.1431L189.997 45.6308L191.447 42.6239L194.013 39.7721L195.192 38.8212L196.805 35.7969L200.328 29.6625L201.247 28.8456L203.425 27.7248L204.688 27.7713L207.293 26.8154L208.331 26.9508L210.144 25.9835L211.266 25.7711Z" fill="#1E1E1E" stroke="white" stroke-width="5"/>
</svg>
