<svg width="276" height="179" viewBox="0 0 276 179" fill="none" xmlns="http://www.w3.org/2000/svg">
<path d="M171.489 41.6878L172.731 41.8865L176.572 40.4083L178.746 38.6458L182.9 38.3624L184.523 36.39L185.734 35.6241L187.218 32.4004L188.717 31.5119L190.6 31.1176L191.897 31.3929L194.016 32.474L195.516 32.3165L197.868 28.5005L199.246 27.509L200.456 28.3875L202.468 29.0695L204.744 31.3235L205.352 31.398L207.279 30.2966L208.658 30.6821L211.082 30.283L212.111 30.8514L213.489 32.6648L215.371 34.4237L216.661 36.1677L216.884 38.6022L218.122 41.1787L218.712 44.0054L222.42 47.412L223.308 48.8078L223.438 49.865L222.103 52.1484L222.585 53.9457L223.829 54.4893L227.182 55.2258L228.223 55.6868L228.553 56.479L228.176 60.4386L228.463 61.2232L232.572 62.03L235.63 64.175L238.201 65.1492L239.853 65.1774L241.355 65.7927L242.375 67.3105L244.261 67.0101L245.998 68.0625L246.737 71.2338L247.219 71.9512L248.69 72.6705L248.985 74.2794L251.354 76.1546L252.723 79.8241L254.084 81.4664L257.375 82.6889L263.027 87.3974L264.184 89.1218L268.112 91.0336L268.859 92.3076L269.17 93.8003L271.396 93.7954L272.403 94.8636L271.889 95.9641L270.764 97.0649L268.706 98.0303L263.44 99.4437L261.127 102.424L259.565 104.14L258.131 104.932L255.299 105.987L253.951 107.222L252.442 107.972L249.435 106.395L248.237 106.285L244.46 107.65L239.079 111.082L237.788 112.266L235.943 113.2L233.054 113.745L232.549 114.841L233.134 115.552L234.875 119.104L233.613 119.859L229.475 117.224L228.174 116.683L227.772 117.581L227.257 120.924L224.892 123.595L223.871 125.186L223.799 127.127L223.381 129.349L219.495 131.435L218.681 131.597L217.665 130.576L216.274 127.197L215.558 126.703L215.083 130.693L214.314 133.411L216.39 134.161L216.599 134.83L215.849 137.779L215.848 138.845L217.264 142.705L218.469 144.32L218.835 146.819L219.627 150.015L221.541 152.148L222.695 154.095L223.058 155.5L223.964 156.812L223.892 157.779L222.644 159.131L219.536 160.086L217.582 159.07L216.092 159.678L211.234 161.014L208.75 162.652L206.528 163.837L202.071 164.642L201.051 165.243L198.031 165.948L192.445 166.224L190.837 165.329L188.47 164.902L184.519 164.842L183.426 163.791L182.747 163.768L180.574 165.397L179.235 165.934L176.458 165.958L173.678 165.142L172.119 163.87L170.466 165.45L169.501 164.665L169.005 163.551L167.569 162.912L164.882 162.83L160.822 163.366L155.453 163.198L152.097 163.954L149.167 165.397L146.846 164.493L143.41 164.579L140.166 163.652L137.779 164.363L135.962 165.192L133.657 165.168L129.78 163.955L127.6 165.128L124.437 167.678L121.966 167.294L120.771 169.601L118.503 171.204L117.545 173.628L117.449 174.525L115.368 175.22L111.574 164.342L111.385 163.28L109.875 159.552L109.456 158.003L107.594 153.902L105.784 149.106L105.071 147.75L102.01 140.45L99.7789 135.643L94.6936 125.252L91.2602 119.236L90.3555 117.122L87.4256 112.273L83.5887 105.643L80.3658 100.357L77.4221 95.8947L74.836 92.4521L73.4133 90.245L69.3587 84.6598L67.7103 82.1941L65.6259 79.6702L62.766 75.4744L60.5311 73.0463L57.1785 68.8998L55.1683 66.7194L52.2709 63.0203L49.937 60.3077L46.2595 56.6461L43.1619 53.9978L41.7518 53.0836L38.5994 50.2593L36.9173 49.5143L35.6684 48.3954L30.5398 44.8667L29.6238 44.5312L27.2561 42.6424L26.2431 42.4286L23.2845 40.4214L21.0972 39.329L13.3371 33.4631L9.28466 30.5365L4.61218 27.5902L3.34675 26.9548L3.22266 25.2886L5.68084 22.9631L5.86774 20.3696L6.22051 18.9263L5.42848 14.004L5.85961 12.4753L7.03914 10.3802L7.89432 9.65524L9.52959 9.05835L12.5597 8.61591L14.2276 8.09412L16.8542 6.49847L18.6897 6.38733L21.9439 7.33703L22.9862 7.28524L23.9627 6.12477L26.0031 6.02817L28.0799 6.34705L29.3956 4.54941L30.8436 4.75564L32.9628 4.58999L34.7317 3.84744L35.8005 3.8753L39.0726 5.93731L43.1414 4.84316L44.1502 3.84865L45.4957 3.57852L48.442 4.92644L49.1582 3.56489L50.1637 3.08398L57.3284 5.56846L61.2664 5.95034L62.4696 5.89522L65.8753 3.79081L67.8855 2.92136L68.8496 2.91016L69.0534 3.91467L68.7407 5.60843L66.8759 7.96753L66.0395 9.52654L66.6846 12.1991L67.8037 13.1279L69.4739 13.5912L71.924 13.4843L73.2924 13.176L76.3771 11.3702L78.9971 10.7754L81.6281 13.5503L82.9767 14.3347L85.0432 14.6178L87.4794 13.1615L89.8424 12.6875L94.9233 12.0349L98.3029 11.1101L99.7142 11.1818L101.427 10.8399L103.355 9.93143L106.11 10.1234L107.86 9.57166L108.931 6.79253L110.8 6.14627L117.864 4.66722L119.363 5.96517L121.388 6.74619L122.39 6.76376L125.644 5.49608L128.65 4.75171L131.716 4.39073L134.086 5.32679L134.944 6.51119L134.628 10.8932L135.027 12.9092L136.155 15.5921L137.265 20.3617L139.158 21.5761L141.07 23.2781L142.744 23.7553L144.908 22.7084L146.439 22.6173L148.572 22.9346L150.636 26.0469L152.061 27.0344L155.105 28.0023L159.098 30.2L159.525 32.2257L163.032 35.7392L164.612 36.5862L168.982 40.65L171.489 41.6878Z" fill="#1E1E1E" stroke="white" stroke-width="5"/>
</svg>
