<svg width="226" height="319" viewBox="0 0 226 319" fill="none" xmlns="http://www.w3.org/2000/svg">
<path d="M13.3126 272.281L13.9006 275.974L13.5241 277.677L11.1975 278.608L12.1352 280.071L12.4344 282.273L11.6659 285.207L10.61 285.579L10.1363 286.357L10.5848 287.815L10.4229 289.465L9.69088 290.221L8.38296 290.254L8.55523 288.918L7.86372 288.28L8.23902 287.158L8.5673 284.395L9.68612 282.24L9.88114 280.406L8.38029 280.594L4.94607 279.913L4.18851 279.137L4.75628 277.911L4.5486 277.109L3.21875 276.763L3.24777 275.593L3.87021 274.533L6.57078 273.538L8.56138 273.111L9.42121 271.657L12.3382 269.471L13.0409 270.09L13.3126 272.281ZM205.368 73.3435L203.796 74.6526L201.616 75.6305L197.58 76L194.435 75.4076L193.277 76.377L192.826 79.621L191.944 82.1439L190.673 87.7694L190.646 89.998L190.924 91.1778L193.818 95.5317L194.622 97.1919L194.6 98.4974L193.447 99.7642L192.148 99.5907L189.672 98.2594L186.841 96.0562L185.64 96.3143L184.835 100.488L184.631 104.449L184.331 106.191L183.862 106.498L182.08 105.914L180.533 107.391L178.95 111.32L178.035 112.615L179.513 121.125L180.618 122.985L182.065 127.057L183.033 131.787L183.151 137.891L183.509 140.798L184.037 143.145L184.845 145.236L185.454 148.347L184.804 149.607L182.968 149.669L181.003 147.924L179.489 146.88L177.548 146.586L176.159 147.615L173.891 148.757L170.986 149.843L169.468 150.691L169.118 152.14L169.512 153.321L169.301 156.333L169.815 160.48L171.976 165.912L171.845 168.041L171.237 169.031L167.958 168.779L165.476 169.535L164.427 170.541L162.69 170.902L160.011 169.918L155.804 169.292L153.481 169.991L150.449 171.441L148.906 172.492L147.041 175.178L145.734 175.57L145.038 176.515L144.303 178.664L144.098 180.913L143.376 185.098L143.334 191.466L143.83 193.961L143.424 195.94L142.13 197.715L139.811 199.262L138.49 199.843L137.283 202.047L137.175 205.876L136.898 207.515L136.318 207.881L135.147 207.346L132.331 206.889L130.251 206.889L125.766 207.316L124.292 207.927L118.721 207.633L116.059 208.277L112.725 209.429L109.888 210.777L108.434 211.823L107.402 213.688L106.97 215.617L107.271 217.776L109.22 223.046L111.695 227.016L113.484 230.629L117.179 234.673L120.562 237.736L121.908 240.451L121.8 241.223L120.307 241.526L119.5 242.806L118.677 247.118L118.622 248.772L118.996 251.782L118.609 252.656L117.104 253.405L113.987 256.741L112.212 259.148L111.301 260.931L111.089 262.313L111.678 264.124L113.263 266.133L114.523 268.631L113.795 269.474L112.703 269.103L108.096 268.84L107.665 269.748L108.62 275.254L108.342 280.601L108.07 282.08L107.173 284.749L105.61 286.573L103.606 286.393L98.7874 287.944L94.3389 290.244L90.3058 291.841L89.2206 292.599L87.0709 292.841L85.8339 292.537L83.7219 292.859L81.5086 295.213L80.0372 296.122L78.5434 297.529L77.2217 298.354L74.6452 301.271L74.2563 302.577L73.7841 305.802L72.7639 307.594L70.8131 308.725L70.4765 310.71L69.0261 310.399L68.7806 311.191L66.8307 311.344L66.0106 312.002L65.5842 313.102L64.2902 313.636L62.0622 313.209L60.3254 314.536L59.2113 314.223L59.3726 315.495L58.6711 315.956L57.2374 314.925L55.8858 315.406L55.4777 314.105L52.3333 308.039L49.6527 305.522L47.6445 304.348L47.1442 304.461L44.5486 303.113L43.1665 301.94L42.104 302.931L42.0383 300.276L41.1546 299.798L40.3227 298.323L39.2517 298.062L39.0612 297.18L37.7844 295.52L38.1711 294.552L37.4919 293.432L37.379 292.182L36.6891 290.919L35.0096 289.862L34.8229 287.023L32.9532 284.76L30.6481 282.932L30.963 282.172L28.7437 281.468L26.9929 280.043L26.096 280.581L25.2566 279.667L24.2827 277.115L23.1743 275.891L21.7076 275.287L20.0335 273.862L21.1558 273.387L21.9535 269.737L21.8199 267.529L22.5784 267.675L22.9791 264.831L22.0526 263.196L22.0625 260.564L22.3837 259.321L22.2047 257.916L22.5666 255.182L23.8261 255.108L24.165 253.189L23.858 252.626L21.7864 251.471L20.7662 246.613L20.5544 244.852L20.5657 241.453L20.809 240.621L20.6857 235.324L19.8418 233.248L19.5424 231.228L19.0484 230.529L18.2602 224.496L17.5089 222.843L17.3979 219.827L16.7733 218.187L16.7033 209.96L16.1387 208.411L16.8708 204.857L17.8591 203.122L19.2287 196.932L19.892 195.316L20.8456 194.745L20.6927 193.838L21.027 191.465L21.7337 190.274L21.7968 188.789L22.6806 187.197L23.6901 186.2L24.0725 184.756L26.1366 182.277L27.0542 180.41L30.5578 177.056L30.4548 176.265L31.5037 174.908L33.5887 173.552L34.61 172.345L35.8783 171.687L37.2307 170.319L39.0622 169.068L39.803 167.853L41.1162 166.927L43.7965 165.648L44.6247 164.86L45.7543 164.741L48.1917 163.892L48.7225 163.05L54.0183 157.947L56.8437 152.669L57.9503 151.532L58.545 151.718L59.9328 150.645L62.129 150.04L63.4025 148.595L64.7557 149.352L67.2645 147.859L70.3785 141.243L71.2807 137.674L72.11 137.151L72.4782 134.76L72.2563 133.746L72.7899 132.726L74.4068 131.088L74.0959 130.266L75.4192 128.993L74.8774 127.987L75.0357 127.049L76.3577 126.096L77.1785 126.357L78.2061 124.63L78.8166 122.402L79.0102 118.355L79.481 116.642L81.0891 113.374L80.8855 111.923L80.9573 109.331L80.6925 108.034L80.7374 105.27L79.7139 98.0589L79.4351 97.4378L78.8393 93.4724L77.5441 87.7618L74.6182 78.4487L74.1029 76.2098L72.368 72.2206L74.4493 71.5249L74.5454 70.6282L75.5038 68.204L77.7709 66.6011L78.9668 64.2941L81.4369 64.6778L84.6003 62.1279L86.7805 60.9553L90.657 62.1682L92.9626 62.1918L94.7797 61.3635L97.166 60.6525L100.411 61.5789L103.847 61.4932L106.167 62.3971L109.097 60.9538L112.454 60.1982L117.822 60.3666L121.882 59.8306L124.569 59.9123L126.006 60.5513L126.502 61.6652L127.467 62.4501L129.12 60.8702L130.678 62.1418L133.459 62.9586L136.236 62.9344L137.574 62.3971L139.748 60.7679L140.426 60.7915L141.519 61.8426L145.471 61.9026L147.837 62.3296L149.446 63.2242L155.031 62.9483L158.051 62.243L159.071 61.6421L163.528 60.8372L165.75 59.6519L168.234 58.0139L173.093 56.6783L174.582 56.0699L176.536 57.0863L179.644 56.1314L180.892 54.779L180.964 53.8126L180.058 52.5001L179.696 51.0946L178.541 49.1483L176.627 47.0148L175.836 43.8196L175.469 41.3197L174.264 39.7052L172.848 35.8447L172.849 34.7787L173.6 31.8306L173.39 31.1616L171.605 30.8757L172.083 27.6935L172.558 23.7033L173.274 24.1973L174.665 27.576L175.681 28.5972L176.496 28.4352L180.381 26.3489L180.8 24.127L180.871 22.1864L181.892 20.5947L184.258 17.9243L184.773 14.5813L185.175 13.6834L186.475 14.2245L190.614 16.8595L191.875 16.1036L190.134 12.552L189.549 11.8415L190.055 10.7452L192.943 10.1998L194.788 9.26619L196.079 8.08209L201.461 4.65004L205.237 3.28516L206.435 3.39539L209.442 4.97196L208.151 5.18697L207.411 7.01793L204.912 8.68262L200.548 12.0656L200.768 13.4326L204.655 16.5343L205.375 17.6999L206.499 22.0314L208.053 23.2415L213.234 22.69L213.978 23.4144L214.387 24.965L215.22 26.3159L217.195 28.3607L217.858 31.5084L218.925 32.1198L221.081 32.0247L221.047 33.3018L220.435 34.8435L220.298 36.3189L220.593 41.2176L221.001 44.0404L222.951 47.8092L222.983 48.7901L221.523 52.3308L219.54 55.8564L218.664 59.8324L216.647 61.1794L215.322 64.3456L214.938 67.3406L214.468 68.0008L212.942 68.1438L207.366 69.1573L205.873 70.8926L205.368 73.3435Z" fill="#1E1E1E" stroke="white" stroke-width="5"/>
</svg>
