<svg width="294" height="221" viewBox="0 0 294 221" fill="none" xmlns="http://www.w3.org/2000/svg">
<path d="M270.703 24.8978L270.129 26.426L270.422 27.6822L272.945 28.7484L274.438 31.2141L273.867 33.0635L274.81 34.2696L274.929 36.0833L277.236 36.9805L277.637 38.3257L276.018 41.0624L277.211 43.4103L276.906 45.0658L273.475 51.4457L271.446 55.5776L270.917 57.3957L270.313 62.6804L270.328 66.0984L271.674 67.4654L274.109 68.3227L275.856 70.2542L278.004 74.2574L280.12 75.6892L282.19 77.4358L283.609 78.1797L288.663 78.0084L289.159 78.4129L289.743 80.6997L290.451 82.1516L291.247 85.1025L289.95 88.2457L289.035 88.9328L288.535 90.7622L287.55 91.4321L287.068 93.5962L287.282 95.2929L285.925 98.5676L286.016 100.301L285.202 102.467L284.516 107.383L283.948 108.643L283.079 108.652L278.599 105.848L276.563 105.801L274.457 106.946L273.264 107.144L269.899 105.796L268.845 105.691L266.767 106.934L264.668 107.236L261.451 108.598L258.721 108.564L257.538 109.249L257.226 110.295L258.345 112.826L258.162 113.769L256.244 115.328L254.457 117.473L253.265 118.058L249.699 116.957L248.828 117.044L248.661 118.182L249.132 121.152L247.865 121.262L245.571 122.257L243.458 121.533L241.696 121.519L240.416 122.176L240.612 123.981L237.466 127.535L236.242 128.352L234.007 128.867L231.104 127.931L228.62 126.647L225.704 126.201L223.667 125.433L222.5 124.165L221.271 123.632L217.06 123.185L216.069 124.483L215.484 126.35L215.038 129.251L213.603 132.333L212.075 133.207L210.803 133.312L208.971 132.07L205.69 131.007L203.851 128.956L200.983 128.391L201.622 126.332L201.814 124.584L203.475 121.999L203.179 120.995L201.17 120.265L199.094 120.216L195.494 121.702L193.054 122.274L186.518 123.017L185.809 124.032L184.558 124.87L183.413 127.353L182.756 129.639L181.063 131.112L179.757 132.846L179.065 134.925L176.97 135.692L173.434 135.624L169.736 132.462L167.363 131.596L166.765 131.714L164.97 134.306L165.541 136.154L165.467 137.684L165.987 138.345L165.568 139.792L165.528 141.528L163.998 144.364L163.146 145.277L162.769 148.732L163.466 151.372L166.356 153.953L167.432 157.394L168.132 158.669L170.009 160.725L172.313 162.704L173.749 164.96L174.772 168.086L175.6 169.648L176.731 174.424L176.549 176.627L173.657 183.278L173.14 186.096L173.679 188.59L173.674 190.609L172.248 191.734L172.291 193.241L171.563 194.06L164.939 189.42L163.473 188.151L161.881 187.614L160.079 186.582L157.598 185.557L156.657 184.78L154.327 184.152L152.01 183.204L149.016 184.03L144.112 184.764L142.679 183.73L140.9 182.98L139.067 182.759L136.952 183.436L134.79 183.387L133.572 183.746L129.609 186.191L128.031 187.852L126.895 187.78L124.63 187.053L123.523 187.598L120.825 185.677L119.884 184.008L118.573 183.55L116.715 184.611L113.632 186.95L112.906 187.135L108.73 187.191L105.435 185.326L102.852 184.959L101.282 185.2L99.1909 186.239L94.005 191.899L92.4706 192.257L90.9123 193.728L88.9628 193.258L87.9907 192.591L86.9661 192.693L84.1845 193.667L81.0809 194.346L79.8398 194.203L78.5573 194.913L84.5428 195.007L82.059 196.838L80.7628 199.055L78.1108 201.513L77.4582 205.491L76.8053 207.272L73.9383 208.134L72.5632 209.205L70.5979 210.103L68.301 210.066L64.4324 212.045L62.1825 212.291L59.0183 213.373L56.2325 215.49L54.0553 216.515L54.4198 214.897L52.7839 214.142L48.307 214.333L47.1736 213.985L43.0176 211.79L39.9699 209.075L40.4354 207.729L42.967 205.892L43.8998 203.092L44.617 201.705L42.4599 200.562L40.9315 198.125L38.8836 196.633L38.1244 195.211L39.428 194.071L40.1522 190.193L40.3625 185.987L40.6221 183.878L41.2752 181.499L43.4081 177.261L44.656 175.318L47.2105 174.128L47.8641 172.661L50.101 170.858L50.6607 169.907L50.8785 167.918L50.0237 166.433L48.6281 160.777L47.0343 157.83L45.5572 155.767L43.9439 154.305L42.436 153.741L36.0892 153.305L29.179 152.257L25.7283 151.835L24.007 152.002L22.1453 152.698L18.7294 153.255L16.0834 152.779L13.0738 151.048L9.70971 149.672L7.07182 147.512L6.27758 146.177L6.49581 142.993L6.97826 141.14L7.13311 137.893L6.16057 132.851L5.26556 131.119L2.90442 128.612L2.76953 127.168L4.25726 123.146L4.11308 120.02L3.41797 117.631L3.22203 113.785L6.61747 113.204L9.27137 114.292L10.1973 114.016L13.3415 111.807L14.5051 110.718L15.0433 108.156L14.9834 102.673L16.7864 100.521L21.5827 98.8L22.9966 97.516L24.3258 95.2227L27.5884 92.2444L30.387 93.7386L32.9684 94.4959L35.4016 95.6314L37.6594 96.0697L39.799 95.6276L42.3865 95.6847L44.4264 95.1888L48.2964 94.9502L51.9706 94.3579L54.8732 93.6281L56.2674 94.1816L57.5721 95.2331L58.8651 95.5353L60.8956 95.3262L63.26 96.7524L64.568 97.0033L67.299 96.6467L69.6195 97.6929L70.2023 98.3034L70.6522 100.136L72.8499 101.194L74.1041 101.016L75.1444 98.0157L76.2242 97.5181L77.4264 95.8761L78.1428 93.8263L79.5688 91.8891L80.5444 89.9617L83.6944 87.9261L84.1952 85.5137L84.1736 84.1179L87.8458 77.2217L89.4396 75.4904L91.2902 75.2174L93.1139 74.3525L95 75.6527L97.1504 75.4795L99.5726 75.8692L101.962 75.6185L102.541 75.2255L104.283 75.531L105.723 74.4414L109.512 73.1273L110.951 73.0847L113.458 73.6953L113.968 73.3541L114.975 70.2003L116.329 69.177L116.589 67.7893L117.645 67.5531L120.135 67.7551L121.757 67.4408L122.535 68.2091L123.64 67.7984L125.864 65.8131L128.44 64.6368L131.005 65.1769L132.893 67.0508L135.723 65.7231L136.12 64.8044L137.839 63.4438L140.553 62.9861L141.286 61.8154L141.964 57.6559L142.627 54.8178L141.675 52.4762L142.258 51.0797L142.204 49.3579L144.861 47.5962L146.638 49.9485L149.593 51.5591L150.687 51.9071L153.063 53.547L153.634 54.213L153.04 56.0812L153.504 58.3548L154.319 58.8548L157.105 59.3133L158.028 60.4453L157.929 64.7559L158.701 67.3182L161.07 67.6514L161.692 68.1945L163.126 67.8218L163.995 68.9054L165.747 69.9771L166.545 71.0122L168.687 72.3613L169.631 73.7739L172.219 74.8113L175.144 74.3442L177.285 73.0623L178.096 70.6766L179.498 69.5723L181.09 69.1859L181.824 68.036L183.737 67.561L183.971 65.3071L184.562 64.0028L186.097 63.8998L187.313 64.8923L188.483 63.9113L190.372 62.9189L190.776 61.9779L192.521 59.5354L193.813 56.9871L194.552 56.275L195.91 56.5413L196.551 57.677L196.285 60.3942L196.44 61.2123L198.407 63.7642L200.203 63.7447L201.688 63.1302L203.779 62.9766L205.119 66.501L209.655 65.6995L213.442 60.8135L215.767 60.017L216.921 59.0338L219.412 58.1261L220.567 58.2843L221.783 57.7504L222.171 54.8018L220.904 51.2025L220.942 49.7581L219.811 46.7225L216.464 45.1239L216.067 43.499L217.481 41.698L217.202 40.3564L217.566 37.1217L218.774 35.2348L217.539 33.2631L217.569 32.1591L216.229 29.0834L215.486 28.262L216.039 25.5908L215.314 22.6786L215.496 21.7406L217.022 19.5964L218.484 18.2846L220.137 17.8511L221.968 16.8715L223.3 15.3853L224.144 9.64268L225.834 9.04927L227.295 8.0238L228.938 7.65643L229.672 6.72187L231.309 6.35743L233.386 5.32139L235.594 3.53906L236.825 4.36998L237.836 7.0169L238.65 8.41368L240.714 8.33329L242.314 9.2163L243.515 10.3677L245.526 10.768L248.167 9.456L250.517 10.6436L250.96 12.1116L251.021 14.1739L253.074 13.6222L255.039 13.5194L256.208 12.4773L258.128 11.3679L260.105 11.0394L262.168 11.5693L264.693 12.8524L264.527 16.9251L265.047 17.7641L267.029 17.7248L268.005 19.4457L268.894 20.2082L270.84 20.6839L271.664 21.681L270.199 24.3581L270.703 24.8978Z" fill="#1E1E1E" stroke="white" stroke-width="5"/>
</svg>
