<svg width="375" height="445" viewBox="0 0 375 445" fill="none" xmlns="http://www.w3.org/2000/svg">
<path d="M122.28 438.589L121.642 439.245L120.265 438.785L118.417 440.054L118.315 437.381L119.002 433.76L119.164 431.811L119.638 430.298L120.588 430.817L121.893 432.665L123.191 433.308L122.44 434.732L122.616 437.504L122.28 438.589ZM64.4674 403.36L65.8044 402.729L69.2703 402.956L69.7777 403.996L71.1393 404.96L71.9427 405.028L71.9774 406.674L72.4854 407.644L69.3167 410.029L69.5874 412.539L68.9202 412.989L67.6243 412.026L68.0464 415.151L68.014 416.947L66.387 419.896L67.3908 423.304L67.0785 424.728L65.3903 425.498L65.031 426.737L65.4094 428.016L67.212 429.106L67.244 430.534L68.2254 432.13L67.791 433.714L64.6295 432.434L63.8923 430.974L62.0805 431.603L60.1596 429.899L59.6914 428.332L60.1381 427.082L61.0344 426.217L61.2383 424.694L62.6032 423.501L62.9864 422.553L61.5506 421.875L60.6791 422.96L59.9597 422.762L58.0489 425.254L56.831 424.66L54.2314 424.827L53.1781 420.439L53.4308 419.415L53.0643 417.064L53.5962 415.563L55.4569 414.996L55.0304 414.049L55.9345 409.262L55.6656 406.069L56.272 405.205L56.9107 402.535L56.8174 401.478L57.6667 399.696L57.81 397.317L59.2434 395.978L60.673 396.696L61.4152 398.981L62.863 399.952L64.1901 401.521L64.4674 403.36ZM49.2714 402.691L48.349 402.025L48.6358 400.195L48.2115 399.16L47.881 396.684L48.353 395.908L49.8049 395.226L50.9172 397.215L51.1908 398.6L50.7979 399.755L49.2714 402.691ZM31.6539 371.988L32.2237 372.027L33.0284 373.571L33.6779 373.904L33.9178 375.472L34.822 376.88L36.4499 376.865L38.2227 377.942L40.945 378.109L42.6692 379.087L42.4075 380.296L40.9158 381.109L37.6765 381.878L37.2969 382.752L38.0906 384.952L37.6177 385.148L38.0556 388.009L38.7851 388.606L39.1635 389.923L38.9582 391.637L36.7158 392.523L36.1342 393.345L34.0416 394.004L31.9738 395.707L31.4651 394.893L29.5545 395.428L29.9743 398.512L30.0038 400.354L30.7746 401.284L31.4339 400.326L32.1646 400.745L32.0929 403.144L31.3187 404.855L30.1204 405.357L30.6342 407.846L28.8729 408.312L27.3579 409.763L26.9812 408.713L25.2682 406.818L26.4197 404.612L26.2262 401.528L24.8242 400.752L24.7239 399.541L27.4188 397.464L28.2232 396.145L27.5406 395.141L27.734 393.49L26.9643 390.283L26.86 388.859L26.2276 388.464L25.856 385.46L26.5824 382.196L26.9368 379.59L28.0753 379.749L29.2142 379.166L30.6268 375.794L30.4593 374.083L30.827 372.617L31.6539 371.988ZM11.0939 274.363L11.6356 274.648L12.4879 279.783L13.3303 282.492L13.8682 283.247L14.2226 285.086L16.3773 289.239L16.3032 290.357L17.2351 291.278L17.1268 292.567L17.7645 295.412L16.9638 298.268L15.1961 299.791L14.3121 299.078L13.961 297.562L13.3361 297.436L11.9889 293.978L11.6508 292.168L12.7463 291.018L12.8398 290.233L10.6246 283.777L9.70904 282.078L9.62767 279.68L9.04957 278.35L6.98526 275.999L7.46445 274.276L9.27547 274.439L10.528 273.651L11.0939 274.363ZM298.456 133.469L298.693 135.015L300.306 137.585L302.368 142.65L305.132 146.42L306.117 148.114L307.704 152.423L308.876 156.048L308.84 160.561L309.707 162.374L311.58 163.968L311.963 164.932L312.075 168.656L312.448 171.065L313.846 173.059L314.967 173.332L320.404 171.865L321.414 172.132L321.778 172.924L323.205 177.856L323.493 179.65L323.065 181.352L323.077 183.973L322.828 185.203L321.822 187.293L321.803 190.506L320.563 192.07L319.687 194.752L317.926 196.952L317.267 199.466L315.877 200.753L313.29 202.171L310.979 203.955L308.876 204.331L307.337 204.929L303.229 208.791L302.939 210.6L303.723 212.814L305.061 213.969L310.246 213.655L312.409 213.686L314.345 214.175L318.023 214.591L322.616 214.086L327.229 213.761L329.683 214.262L331.289 215.095L331.978 216.156L332.783 219.065L333.033 224.507L333.712 228.073L335.118 233.136L335.831 233.67L339.33 234.871L339.91 235.424L341.296 238.045L341.823 239.951L343.085 242.816L344.54 244.175L346.377 247.502L346.726 248.732L346.965 252.44L346.881 255.022L347.076 256.255L348.244 259.537L348.168 261.952L346.799 266.074L347.459 268.458L347.403 270.65L345.602 273.921L344.988 275.69L345.039 278.406L344.583 283.096L346.047 284.604L347.913 287.674L349.237 290.372L349.854 290.906L352.407 292.149L353.454 294.644L353.596 296.425L353.518 298.285L352.43 300.534L353.479 304.986L353.537 306.549L352.663 308.457L349.378 311.019L349.792 313.656L352.113 319.174L353.096 323.256L354.114 324.762L356.973 328.4L357.88 329.933L358.542 331.747L359.674 332.956L361.603 333.984L364.698 336.473L365.11 337.779L364.264 340.669L364.859 342.243L365.941 344.081L368.092 347.014L370.738 351.092L371.855 354.902L371.352 356.564L368.189 358.839L368.438 361.106L369.871 364.314L369.932 365.244L369.295 366.416L368.999 370.569L369.484 374.15L369.378 375.325L367.767 376.421L365.777 376.277L363.94 377.14L362.547 378.711L361.526 383.029L360.358 384.576L359.478 386.903L359.184 390.631L357.518 393.231L357.187 396.872L356.412 399.907L355.663 401.589L353.878 402.268L352.88 406.007L352.104 407.194L351.26 407.569L348.427 407.886L345.173 408.606L343.783 409.518L340.829 409.625L338.709 410.132L337.458 410.122L336.417 408.012L335.452 407.893L334.019 405.612L333.113 405.335L332.497 403.941L332.73 402.387L333.288 401.617L331.318 398.17L331.184 396.532L330.39 396.217L329.461 394.248L329.568 393.061L328.378 391.316L328.683 390.53L328.141 387.551L326.943 387.73L325.851 386.598L323.686 388.005L321.968 388.192L321.992 386.501L323.966 385.192L325.11 385.35L326.356 384.294L325.392 381.11L324.256 379.387L323.186 378.466L323.06 375.309L322.101 372.215L320.907 369.227L320.487 367.428L319.94 367.424L319.945 364.593L319.335 363.569L320.16 362.393L319.942 360.433L317.472 357.693L316.699 357.591L313.944 354.903L312.606 354.029L311.621 354.576L310.528 353.163L312.081 351.904L311.682 349.968L310.965 350.039L310.418 348.034L308.685 347.19L306.012 344.921L304.984 343.473L303.182 343.678L301.376 344.329L300.802 342.76L301.92 340.661L301.342 339.378L300.405 339.22L299.902 337.766L301.376 337.384L301.548 336.22L300.615 335.513L300.938 333.219L300.26 331.548L298.705 332.079L297.333 331.354L296.134 332.079L295.257 331.479L295.717 329.64L297.048 330.121L297.421 329.489L296.27 328.386L295.997 327.581L296.67 326.367L295.584 326.151L294.62 325.218L293.28 325.332L292.46 324.073L292.277 322.545L291.066 321.457L292.385 321.049L292.733 320.338L292.083 318.821L292.086 317.616L290.669 317.714L289.814 317.075L290.214 315.302L288.333 314.537L287.669 311.735L286.038 309.734L284.513 308.855L283.541 308.799L282.242 307.883L278.972 308.949L278.308 308.46L276.947 305.5L276.737 303.869L273.665 302.286L273.663 303.245L269.701 303.937L268.681 305.712L268.497 307.317L266.824 306.383L267.363 308.885L265.519 308.133L264.027 306.855L263.584 308.718L264.37 311.555L261.847 312.734L257.768 311.923L256.343 310.777L254.745 310.572L253.617 308.847L251.521 307.767L250.32 306.547L249.828 305.496L248.653 305.268L247.239 303.451L245.932 303.322L244.884 302.499L243.582 302.758L240.9 299.9L239.895 299.93L239.309 299.016L236.884 296.538L237.039 295.81L238.283 294.012L239.179 293.83L239.318 292.545L238.424 291.482L238.711 290.324L239.542 289.288L239.896 287.613L240.715 287.237L243.769 287.733L245.238 286.59L245.329 284.611L246.586 282.09L246.78 280.851L246.409 279.044L246.938 278.27L246.474 276.175L244.308 273.231L245.832 272.134L245.176 269.361L244.257 266.697L243.965 263.759L245.375 262.07L245.372 260.148L245.885 259.123L247.338 257.698L248.271 255.424L248.344 250.817L249.08 248.221L250.761 245.535L250.901 239.005L250.449 234.499L249.44 232.216L247.973 230.967L243.268 228.893L240.403 228.275L239.221 227.682L237.398 227.529L235.926 227.059L233.41 226.985L229.825 227.232L229.061 227.848L228.252 227.403L224.234 226.789L217.479 225.118L212.739 224.508L206.863 224.615L202.301 224.847L196.05 225.904L192.687 226.93L188.843 227.87L187.433 228.4L185.481 228.673L184.879 229.568L179.651 230.964L176.555 232.037L172.829 234.008L167.893 236.158L162.158 239.392L158.491 241.596L157.156 242.171L153.031 244.542L151.208 246.008L146.177 249.085L144.087 250.798L141.634 254.107L141.84 256.839L140.274 259.711L139.607 263.105L140.173 267.007L141.492 268.889L143.103 269.298L144.228 268.469L143.869 271.275L143.466 272.489L143.863 273.562L142.29 276.926L143.388 280.125L143.14 282.304L143.582 283.403L143.878 285.815L143.178 287.606L143.045 292.145L141.898 294.336L142.239 295.293L141.914 297.472L140.651 299.486L138.934 303.283L139.521 304.141L139.203 306.517L139.34 308.71L138.727 310.534L138.851 311.758L138.08 313.59L137.935 314.734L138.357 316.971L139.128 317.496L138.926 319.926L139.296 321.066L138.242 323.177L137.406 327.439L137.643 329.075L139.32 332.925L139.607 334.773L139.255 336.894L139.342 338.393L140.507 341.143L141.712 343.301L142.238 343.401L142.804 345.874L142.387 348.984L142.326 352.782L142.586 356.228L143.19 357.263L143.513 358.824L144.43 360.639L145.124 361.243L144.951 363.009L146.193 365.291L148.615 367.005L152.319 367.988L152.584 369.898L153.945 371.12L156.433 371.265L158.161 372.547L159.677 373.199L159.164 374.339L158.043 373.738L156.962 374.307L156.252 373.72L155.111 374.192L151.992 376.257L146.063 380.512L144.253 382.175L143.782 383.915L142.963 385.133L142.217 387.241L142.647 390.047L143.649 394.723L143.095 396.215L141.9 397.493L140.217 397.917L137.709 397.853L136.117 398.708L136.12 399.914L135.536 401.928L135.411 403.503L132.431 403.002L129.764 403.978L127.931 406.435L125.711 408.48L125.477 411.299L122.107 412.501L121.205 414.158L120.235 415.119L119.859 417.539L116.428 418.06L115.963 419.342L114.974 420.075L114.343 417.272L112.908 414.902L112.45 413.071L111.385 412.087L111.658 410.043L112.285 408.916L111.176 405.809L109.716 403.673L109.623 402.347L108.883 401.334L106.582 399.529L105.542 398.186L103.108 398.428L101.201 397.455L100.03 395.326L100.447 394.812L99.9921 392.632L97.1128 390.58L97.4773 389.595L97.2825 387.798L95.7251 388.167L93.9388 386.618L92.5812 383.893L90.9366 379.551L90.4401 377.068L89.5215 375.225L89.5057 373.92L90.1018 372.474L89.7176 371.017L90.2873 368.308L89.8598 367.581L87.8248 366.564L85.6522 366.098L85.2449 365.193L81.8163 365.232L81.2836 366.396L79.5029 366.301L72.4577 368.065L69.3585 369.163L68.2942 370.528L66.8627 370.908L66.3071 371.923L65.5257 370.849L63.6491 369.78L62.4537 370.243L61.5899 372.331L60.2638 372.864L60.6268 374.314L60.4636 377.584L59.2536 378.243L58.5 377.854L57.8581 373.948L57.2181 372.786L55.9328 371.711L55.4531 370.716L54.1754 369.923L51.4413 369.252L50.6217 369.617L49.306 368.974L47.4138 369.078L45.4541 370.116L43.3602 369.438L41.7403 366.343L40.7839 365.291L40.7908 363.047L40.3954 361.742L38.2491 359.309L37.3224 358.618L35.4127 358.154L33.6385 358.569L32.7378 359.479L32.6458 360.74L31.6161 361.3L31.3781 357.351L30.2303 355.465L28.8634 349.963L28.223 345.523L27.2596 345.303L27.0029 344.445L25.7748 344.389L24.6346 343.605L25.3558 340.353L24.8429 339.276L25.3752 337.082L24.967 335.95L25.279 334.592L24.0863 331.995L22.7293 331.548L21.8092 326.986L21.961 323.574L20.6789 321.871L20.7696 320.024L20.5848 316.879L19.8891 314.51L19.8466 312.846L20.4195 312.558L20.7544 309.617L21.913 308.783L22.9407 307.146L23.2964 305.835L24.3844 304.931L24.6233 300.942L24.1365 298.51L25.1709 296.746L28.1494 296.352L29.7195 294.903L30.4289 293.325L33.0186 291.397L33.9521 289.247L34.6771 286.38L34.8335 284.614L34.1803 281.069L34.6519 280.442L34.8378 278.424L34.5745 277.653L33.073 275.809L31.6772 274.501L30.5176 273.878L26.2468 272.884L24.4872 270.977L23.302 270.101L21.493 269.598L19.2372 269.396L16.1117 270.169L12.6799 272.298L12.047 273.205L10.6494 272.793L8.86593 273.37L8.02792 271.521L7.18039 267.941L7.73051 267.044L11.4374 265.639L11.2339 264.169L10.1426 264.682L8.58895 263.036L8.88021 260.72L9.74839 259.189L7.71856 255.726L7.29996 252.82L6.92803 251.813L5.4699 251.325L3.89453 246.41L5.24621 245.929L6.67984 246.96L7.38133 246.499L7.22009 245.227L8.33415 245.54L10.071 244.214L12.299 244.64L13.593 244.106L14.0193 243.006L14.8395 242.348L16.7893 242.195L17.0348 241.404L18.4853 241.714L18.8218 239.729L20.7726 238.598L21.7929 236.806L22.2651 233.582L22.654 232.275L25.2305 229.358L26.5522 228.533L28.046 227.126L29.5173 226.217L31.7307 223.863L33.8427 223.541L35.0797 223.845L37.2293 223.603L38.3146 222.845L42.3477 221.249L46.7961 218.948L51.6143 217.397L53.6184 217.577L55.182 215.754L56.0791 213.084L56.3504 211.605L56.6285 206.258L55.6742 200.753L56.105 199.845L60.7122 200.108L61.8038 200.478L62.5321 199.635L61.2719 197.137L59.6864 195.129L59.0974 193.317L59.3095 191.935L60.2212 190.152L61.9954 187.745L65.1131 184.409L66.6177 183.66L67.0051 182.786L66.6304 179.776L66.6861 178.122L67.5086 173.81L68.3157 172.53L69.8083 172.227L69.9165 171.455L68.5712 168.741L65.1881 165.677L61.4925 161.634L59.7036 158.02L57.2288 154.05L55.2799 148.78L54.9784 146.621L55.4107 144.693L56.4433 142.827L57.8965 141.781L60.7334 140.433L64.0673 139.281L66.7297 138.637L72.3003 138.931L73.7745 138.32L78.2602 137.893L80.34 137.893L83.1558 138.35L84.3271 138.885L84.9071 138.52L85.1837 136.88L85.2916 133.051L86.4988 130.847L87.8197 130.266L90.139 128.719L91.4327 126.944L91.8388 124.965L91.343 122.47L91.3847 116.102L92.1066 111.917L92.312 109.668L93.0469 107.519L93.7431 106.574L95.0501 106.182L96.9145 103.496L98.4579 102.445L101.49 100.995L103.813 100.296L108.02 100.922L110.699 101.907L112.436 101.545L113.485 100.539L115.967 99.7828L119.246 100.035L119.854 99.0454L119.985 96.9158L117.824 91.4844L117.309 87.3368L117.521 84.3254L117.127 83.144L117.476 81.6949L118.995 80.8467L121.9 79.7616L124.168 78.6187L125.557 77.5906L127.497 77.8846L129.012 78.9285L130.977 80.6735L132.813 80.6111L133.463 79.3513L132.854 76.2399L132.046 74.1495L131.518 71.8019L131.159 68.8955L131.042 62.7909L130.074 58.0612L128.627 53.9893L127.522 52.129L126.044 43.6192L126.959 42.3243L128.542 38.3956L130.089 36.9178L131.871 37.5019L132.34 37.1949L132.639 35.4536L132.844 31.4924L133.648 27.3184L134.85 27.0604L137.681 29.2636L140.157 30.5948L141.456 30.7684L142.609 29.5016L142.631 28.1961L141.826 26.5359L138.932 22.182L138.655 21.0022L138.682 18.7736L139.953 13.1481L140.835 10.6252L141.286 7.38117L142.444 6.41179L145.589 7.00414L149.625 6.63468L151.805 5.65682L153.377 4.34766L154.215 7.1807L155.638 9.647L157.94 11.7959L161.461 14.3458L163.773 16.2028L162.671 19.2524L163.487 21.2232L166.187 20.7666L169.6 23.069L171.96 25.2531L175.226 25.1595L176.732 25.999L178.519 28.7457L179.49 32.4264L180.729 33.5523L182.598 34.0039L183.957 34.6937L185.326 36.1692L187.494 39.6548L188.476 41.7871L188.947 44.3339L187.665 49.1642L186.52 50.3695L185.988 52.1499L184.905 54.3672L185.999 57.2036L185.548 58.7232L185.467 60.9857L185.771 63.4233L186.442 64.3675L188.718 66.4801L189.752 68.2075L191.715 70.602L195.578 73.4547L196.606 75.6633L198.437 76.348L199.558 76.4098L203.678 76.0967L206.71 76.497L208.123 77.3211L210.47 79.7095L211.789 81.8951L212.58 84.0722L211.221 84.6618L211.248 87.4488L210.295 92.3845L212.809 96.9976L214.267 98.1087L216.389 98.4442L220.844 97.0642L223.8 97.2611L225.27 97.7356L227.331 98.8143L228.784 100.086L229.756 102.079L230.114 106.436L230.775 109.999L232.333 112.814L234.863 114.645L236.334 115.367L237.933 117.751L239.732 118.757L241.662 118.769L241.531 120.612L242.77 128.541L244.566 130.843L245.879 132.037L247.672 133.032L253.977 132.379L254.98 132.669L257.06 134.575L259.899 135.779L261.04 136.976L261.481 140.919L261.881 142.155L263.434 145.372L263.205 146.836L262.651 147.454L262.1 149.37L262.655 151.469L264.279 153.849L267.114 155.646L268.266 155.918L272.052 155.953L273.683 155.218L275.258 153.346L276.151 150.404L276.575 147.429L278.519 142.681L279.505 138.43L280.064 137.708L282.206 137.079L282.81 137.361L284.615 139.665L286.259 140.807L287.642 140.951L288.644 140.239L290.431 136.658L291.025 136.12L293.969 134.757L296.513 133.873L298.456 133.469Z" fill="#1E1E1E" stroke="white" stroke-width="5"/>
</svg>
