<svg width="329" height="453" viewBox="0 0 329 453" fill="none" xmlns="http://www.w3.org/2000/svg">
<path d="M159.681 2.84763L160.527 3.12049L166.173 2.77344L167.659 3.41909L170.262 3.703L172.396 4.36076L173.869 5.84966L175.241 6.78103L176.834 8.34064L178.121 10.1424L179.256 13.3835L180.345 14.9198L181.275 15.6522L184.908 16.596L185.573 17.1702L186.549 20.1913L187.148 24.3669L187.978 26.2975L189.55 27.1627L190.894 29.1669L191.51 29.0939L193.426 29.824L197.96 29.6548L201.073 29.1084L203.625 29.4225L204.531 29.0883L206.404 26.8078L207.72 25.9224L210.414 25.2627L215.171 24.9425L216.882 23.9458L218.165 23.6497L220.116 24.2287L221.69 25.869L221.208 27.5204L221.394 28.3898L223.174 29.3212L224.576 31.5628L225.352 33.7727L226.1 39.2657L226.611 40.2226L230.343 43.1845L232.097 45.6078L232.091 47.3062L231.04 47.7468L229.004 47.4207L227.857 50.7964L227.265 55.1497L227.594 57.2303L227.466 59.4934L228.108 61.3264L229.312 63.7106L229.56 65.6351L228.449 67.2559L226.459 69.1183L225.288 70.7561L224.861 72.3793L225.13 75.4679L224.654 77.6302L224.574 80.6695L224.903 82.7212L224.952 85.1299L227.074 91.6891L226.88 93.9234L227.018 96.1559L227.447 98.2376L228.557 101.073L230.335 104.18L231.818 104.628L234.578 102.69L236.387 101.054L236.923 100.235L238.395 96.7952L239.031 95.9197L242.756 93.2078L244.174 92.9101L246.916 93.9661L251.22 95.3673L252.838 96.6278L256.778 100.91L261.541 104.981L261.595 107.752L261.42 114.754L262.511 117.549L264.119 124.327L264.335 125.988L264.157 130.098L264.3 132.313L264.837 133.948L266.581 136.266L268.184 140.319L269.215 143.475L269.989 145.15L271.873 145.759L273.595 145.473L274.24 145.003L278.635 144.587L280.492 144.004L281.231 144.332L281.373 145.929L280.973 148.079L278.202 151.812L274.923 155.457L274.576 157.481L276.438 161.589L277.961 163.5L280.973 164.949L283.587 166.639L285.849 168.471L289.366 173.433L291.405 175.99L292.472 178.36L291.424 181.479L289.642 183.806L288.53 187.858L287.096 190.983L285.777 195.566L284.545 198.521L282.563 202.658L281.405 206.922L281.761 208.637L283.785 212.129L284.323 215.671L285.424 219.943L286.696 220.981L289.193 221.278L290.6 223.022L295.979 226.863L297.882 226.751L299.777 226.087L302.714 225.739L305.937 224.87L308.583 225.024L311.221 225.93L313.223 227.051L314.444 228.193L314.881 229.523L315.347 232.884L315.636 236.247L316.982 239.69L319.188 243.935L319.154 246.827L321.313 248.787L324.583 249.255L322.718 252.184L322.324 254.798L322.454 257.088L322.251 259.322L320.221 262.316L318.692 263.085L315.567 262.899L312.804 261.717L309.731 260.692L308.494 259.682L306.095 258.666L303.705 258.246L300.935 256.962L295.909 255.96L294.589 255.122L293.674 253.026L291.774 252.444L290.332 251.459L289.558 251.577L288.064 252.75L284.767 253.737L282.217 255.02L280.588 255.487L278.916 257.717L278.063 259.84L277.042 260.231L273.869 260.346L270.632 261.273L269.082 262.113L267.306 263.714L264.369 265.737L263.068 267.725L262.399 270.232L261.769 273.915L260.099 276.653L259.692 278.492L259.489 283.276L260.211 287.733L260.111 288.734L259.056 290.455L255.706 293.28L251.965 295.457L250.491 295.831L248.829 295.442L247.777 293.822L246.343 293.957L246.005 294.754L243.094 298.482L242.964 299.36L243.921 302.433L244.195 307.145L244.594 310.986L244.077 314.597L243.976 317.007L245.067 319.973L246.635 325.781L247.276 327.307L245.625 327.944L243.21 331.171L241.502 331.268L239.875 329.878L238.34 326.582L235.207 322.814L233.726 323.291L227.413 327.994L226.39 329.66L225.97 331.246L226.61 333.992L225.852 338.393L226.506 340.269L229.202 346.017L229.518 348.721L230.07 350.06L231.346 351.361L233.601 354.73L234.702 357.169L235.585 360.273L237.418 363.314L239.448 367.364L241.161 370.144L241.304 372.504L240.884 374.485L239.917 376.519L238.72 378.098L239.193 378.753L237.705 380.719L235.877 382.542L234.983 384.604L236.926 388.49L238.216 393.083L238.244 394.81L237.812 396.002L236.086 399.364L233.83 401.461L232.525 401.986L229.103 400.944L227.524 400.976L225.762 400.424L223.14 395.088L222.295 393.044L221.398 388.229L220.096 385.639L219.059 385.966L217.912 388.047L217.823 389.497L218.381 394.881L217.748 396.936L216.369 398.663L215.296 399.558L212.735 401.026L211.292 401.555L207.95 401.806L206.145 401.514L203.5 400.544L195.963 399.039L193.996 397.34L194.074 396.537L196.964 392.963L196.559 388.666L194.072 387.774L193.095 386.996L192.371 385.258L191.983 382.728L191.633 382.161L189.321 380.555L185.078 379.699L178.702 380.451L177.299 379.748L175.438 377.938L175.56 373.426L175.245 366.502L176.134 363.576L175.662 362.263L174.245 360.616L173.263 360.239L172.314 359.031L172.216 357.343L171.5 356.085L169.31 355.689L166.771 356.413L163.011 356.763L161.832 357.165L160.043 359.715L157.53 361.346L153.239 362.42L152.084 363.664L150.572 362.653L147.113 361.632L145.376 361.526L141.962 360.609L139.974 360.866L138.475 363.07L137.801 365.566L138.092 368.516L137.896 371.214L139.063 374.573L140.369 376.721L140.364 378.039L139.803 379.72L140.107 381.513L140.678 382.576L142.269 383.935L141.236 387.046L141.84 388.946L143.728 392.907L145.134 394.727L146.115 396.849L146.245 398.253L145.227 404.874L145.397 407.507L146.738 410.629L149.412 413.851L150.962 416.025L152.366 417.399L153.168 419.636L153.099 424.121L153.45 427.47L151.507 427.874L148.963 428.757L146.018 430.121L145.424 430.659L143.637 434.239L142.636 434.952L141.252 434.807L139.609 433.666L137.804 431.361L137.199 431.08L135.058 431.708L134.499 432.431L133.513 436.682L131.569 441.429L131.145 444.404L130.251 447.347L128.677 449.218L127.045 449.953L123.259 449.918L122.108 449.647L119.272 447.85L117.648 445.47L117.093 443.37L117.644 441.455L118.199 440.837L118.427 439.372L116.875 436.155L116.474 434.92L116.034 430.976L114.892 429.78L112.054 428.575L109.973 426.669L108.97 426.379L102.666 427.032L100.873 426.037L99.5598 424.843L97.7633 422.542L96.5249 414.612L96.6559 412.77L94.7255 412.758L92.9264 411.751L91.3276 409.367L89.8567 408.645L87.3269 406.815L85.769 403.999L85.1072 400.437L84.7494 396.08L83.7779 394.087L82.3245 392.815L80.2637 391.736L78.7938 391.261L75.8377 391.065L71.3824 392.445L69.2607 392.109L67.8026 390.998L65.2886 386.385L66.2415 381.449L66.2149 378.662L67.574 378.073L66.783 375.896L65.4638 373.71L63.1163 371.321L61.7033 370.497L58.672 370.097L54.552 370.41L53.4306 370.348L51.5994 369.664L50.5721 367.455L46.709 364.602L44.7459 362.208L43.7119 360.48L41.4355 358.368L40.7642 357.424L40.4605 354.986L40.5416 352.724L40.9927 351.204L39.8989 348.368L40.9811 346.15L41.5135 344.37L42.6588 343.165L43.9401 338.334L43.4695 335.787L42.4879 333.655L40.3199 330.17L38.9507 328.694L37.5917 328.004L35.7228 327.553L34.484 326.427L33.513 322.746L31.7257 319.999L30.2198 319.16L26.9536 319.253L24.5941 317.069L21.1809 314.767L18.4803 315.224L17.665 313.253L18.9193 310.642L16.4543 308.346L12.9339 305.796L10.6314 303.647L9.20881 301.181L8.37034 298.348L8.87565 295.897L10.3685 294.162L15.9447 293.148L17.4706 293.005L17.9403 292.345L18.3239 289.35L19.6493 286.184L21.6659 284.837L22.5421 280.861L24.5256 277.335L25.9852 273.795L25.9529 272.814L24.0037 269.045L23.5951 266.222L23.3003 261.324L23.4368 259.848L24.0495 258.306L24.0831 257.029L21.9269 257.124L20.8606 256.513L20.1976 253.365L18.2225 251.32L17.3897 249.97L16.9805 248.419L16.2362 247.695L11.055 248.246L9.50134 247.036L8.37719 242.704L7.65701 241.539L3.77053 238.437L3.55078 237.07L7.91436 233.687L10.4136 232.023L11.1529 230.192L12.4444 229.977L13.9535 229.227L15.3017 227.992L18.1335 226.937L19.568 226.145L21.1293 224.429L23.4427 221.448L28.7086 220.035L30.7666 219.07L31.8918 217.969L32.4058 216.868L31.3983 215.8L29.173 215.805L28.8619 214.312L28.1144 213.038L24.1872 211.126L23.0294 209.402L17.3774 204.694L14.0863 203.471L12.7261 201.829L11.3567 198.159L8.98779 196.284L8.69294 194.675L7.22134 193.956L9.47267 192.142L12.1999 191.08L16.0294 190.91L17.8049 191.261L19.4842 190.661L25.5249 190.333L27.8614 190.952L30.3292 190.327L32.5524 191.787L34.6199 191.802L39.79 192.515L44.1932 191.635L46.2223 191.529L48.0997 192.163L50.6278 194.081L53.387 194.521L54.7816 195.354L57.4352 195.806L62.5049 194.568L64.1237 194.485L66.5052 195.092L68.0863 196.511L69.0904 197.962L69.7784 199.55L73.2991 204.438L74.6973 207.421L76.1317 209.382L77.5617 212.646L78.103 216.564L78.4629 220.579L79.8259 222.43L81.8472 224.74L83.6938 224.75L84.6838 224.122L85.2583 222.152L86.2566 220.03L87.4444 218.102L88.7364 214.605L89.4595 213.817L92.9813 212.83L96.8616 213.917L99.7693 215.719L100.493 216.431L101.815 219.578L106.23 221.417L108.293 222.571L115.381 222.505L116.605 222.595L120.954 221.481L123.024 220.774L124.439 219.755L126.416 219.256L133.092 219.263L134.865 219.064L139.437 219.001L141.226 219.128L146.933 218.951L153.131 219.017L154.948 216.942L157.564 215.88L158.156 213.358L159.77 212.359L161.917 212.469L164.289 210.924L169.62 209.072L170.784 207.605L171.033 206.431L170.693 204.134L170.958 199.819L173.877 198.509L174.873 196.736L175.029 195.373L176.476 191.442L176.701 189.851L179.616 187.222L180.498 185.208L180.994 183.017L179.999 180.958L179.831 179.311L180.161 177.668L177.954 175.395L178.665 173.396L180.014 172.442L181.785 172.071L184.322 172.204L187.108 169.253L189.429 167.587L192.128 165.135L193.976 161.898L194.402 159.557L193.938 157.556L192.647 156.291L190.983 155.228L187.654 153.744L186.697 152.919L186.809 148.51L186.682 147.855L184.87 144.176L183.017 139.939L181.376 138.676L180.243 138.939L178.13 140.166L175.877 142.291L173.557 143.739L171.621 144.567L169.56 145.009L167.398 144.32L166.757 143.408L167.031 140.629L167.538 139.694L171.019 135.389L173.139 133.974L174.704 131.916L174.908 130.275L173.531 125.109L173.667 124.085L174.52 123.67L180.045 124.703L187.771 125.092L188.391 124.043L188.442 122.226L189.458 120.258L189.399 118.881L188.805 117.802L186.618 115.656L186.144 114.728L186.691 113.202L190.078 108.715L192.221 106.696L194.606 105.611L196.288 105.525L200.698 107.314L202.686 107.037L205.26 104.244L207.15 98.227L207.49 95.2317L206.793 93.8765L205.433 93.3674L200.968 93.7405L196.139 93.2796L194.615 92.4662L186.957 88.9175L182.896 85.7877L180.514 81.6625L179.113 77.7653L177.671 74.5843L176.037 72.3814L172.952 69.6822L171.872 69.3894L170.582 69.6741L166.446 72.1195L164.695 72.376L162.998 72.1982L161.63 71.141L160.56 69.7707L159.858 68.1402L158.342 65.6366L156.323 64.13L152.659 63.4226L151.762 63.6258L148.889 62.0732L145.57 60.7885L145.04 57.5152L144.729 53.2156L143.819 50.7193L142.227 47.9231L141.777 46.5983L141.209 42.8519L141.12 37.6439L141.94 34.9691L143.243 33.1236L144.845 31.9531L145.03 31.2313L144.402 28.9355L143.776 25.0715L142.904 21.4184L142.38 20.1652L140.433 17.3446L139.975 15.9155L139.26 12.0505L138.788 11.0453L138.269 7.77736L139.74 7.92303L143.172 8.8114L144.655 8.2401L144.978 6.53679L144.583 4.547L145.001 3.49419L148.309 2.77722L151.523 3.36579L153.847 3.09036L157.151 3.78067L158.138 3.67574L159.681 2.84763Z" fill="#1E1E1E" stroke="white" stroke-width="5"/>
</svg>
