<svg width="290" height="338" viewBox="0 0 290 338" fill="none" xmlns="http://www.w3.org/2000/svg">
<path d="M112.276 8.30478L114.574 8.96527L116.333 9.99401L118.042 10.6303L119.185 11.5769L120.568 13.7516L121.598 14.5856L124.492 16.0205L125.976 16.2273L128.325 16.1107L131.665 18.134L132.818 17.7457L134.778 15.0556L136.031 14.0859L137.749 13.6238L138.89 13.9427L141.009 13.7758L143.385 12.8283L146.626 12.7307L148.922 13.8322L150.528 13.7731L152.133 14.4942L153.546 17.064L153.868 18.8593L155.501 21.1411L156.415 21.9864L159.83 22.8873L161.032 23.7595L159.667 26.24L159.833 27.6912L160.456 28.8762L162.543 31.6793L164.038 35.6034L165.034 36.3978L166.326 36.4429L169.201 34.9647L170.345 34.0535L172.989 32.6753L178.425 30.7495L182.507 30.1463L183.984 29.6112L188.501 28.4492L190.798 28.7102L192.543 32.2038L193.537 35.7821L194.021 38.3347L194.195 40.8937L193.358 43.2794L192.57 46.8017L193.03 54.1131L192.164 57.4679L191.094 59.3104L192.372 59.7662L192.905 61.5296L193.081 64.1243L193.013 68.1681L193.4 72.0977L195.961 74.3684L196.841 76.7605L197.512 80.4596L198.796 82.7185L201.175 85.808L202.699 87.4006L203.256 88.4055L206.33 96.3934L206.793 99.389L207.245 103.744L207.016 106.425L205.773 108.808L206.259 110.748L209.514 115.289L210.568 117.748L211.088 120.502L211.494 124.088L212.776 125.878L216.073 128.62L217.536 130.476L220.309 133.157L220.92 134.715L222.152 136.878L224.562 139.446L226.724 140.933L228.265 142.654L229.286 144.498L230.486 145.656L230.981 146.748L231.223 150.062L233.423 152.484L235.047 154.625L235.996 155.487L239.58 157.494L240.496 158.872L238.274 162.37L236.792 163.583L234.797 164.324L233.398 165.527L232.777 166.672L232.389 169.11L232.498 173.289L231.41 177.525L231.449 180.291L232.453 181.602L234.427 183.437L237.157 188.392L240.394 192.89L241.907 194.484L243.345 195.434L245.735 195.197L247.601 194.152L250.073 193.515L252.447 192.418L253.047 191.601L253.044 187.872L253.985 184.901L254.803 183.858L257.153 182.485L260.165 181.089L265.466 181.782L266.266 182.149L267.393 183.687L268.485 185.741L271.887 189.788L273.062 191.551L275.412 194.278L276.909 194.776L280.04 194.932L281.832 195.628L282.615 196.791L283.943 200.269L284.237 202.253L285.017 204.637L286.422 207.994L285.721 209.323L285.189 212.338L284.923 217.481L284.238 218.911L283.534 221.65L283.572 223.066L284.266 225.862L283.19 232.218L282.697 236.77L282.965 237.725L282.717 240.415L282.767 243.219L283.758 247.563L283.771 250.973L284.119 252.79L283.976 254.19L283.205 255.248L280.614 256.243L279.359 257.135L278.015 260.584L277.518 264.168L277.473 266.696L276.523 268.22L274.901 269.338L274.022 270.967L273.974 275.038L273.786 276.317L273.115 277.473L272.281 277.799L271.168 277.043L267.959 275.854L265.192 274.074L262.169 270.224L260.565 268.873L259.69 267.527L257.459 265.872L255.251 262.556L253.301 260.377L251.425 257.234L249.651 254.69L248.689 255.082L247.44 257.593L247.65 259.147L247.423 260.484L246.821 261.078L243.761 262.969L244.549 266.544L244.425 268.02L242.886 269.646L243.024 271.631L242.574 272.411L241.193 273.345L241.073 274.476L238.551 276.524L237.065 279.607L235.977 280.039L234.987 279.626L233.218 277.549L230.827 276.766L226.73 276.941L225.976 275.747L225.088 275.193L224.632 273.492L224.928 271.439L223.361 270.623L222.855 268.109L223.014 266.037L222.468 263.207L221.793 262.242L219.197 261.579L217.59 260.797L216.414 260.768L215.105 261.279L212.76 262.774L208.917 263.305L207.667 263.926L206.151 263.835L202.541 262.41L201.786 262.543L200.106 264.969L197.884 265.15L197.523 266.725L198.094 270.286L198.571 271.32L199.36 271.505L200.674 272.781L200.796 273.962L200.288 275.081L198.46 276.171L196.59 275.88L195.936 276.319L196.272 278.934L197.666 281.222L194.574 281.11L193.008 282.037L191.813 283.544L191.047 285.51L190.748 287.984L190.063 289.554L188.933 291.206L187.463 292.409L186.771 293.722L186.871 294.936L188.226 297.776L187.416 303.869L186.197 305.64L185.365 308.094L180.643 309.789L177.406 310.423L174.782 309.904L173.402 310.046L171.999 311.189L170.754 313.362L169.771 314.302L169.761 316.538L171.41 318.255L171.002 319.273L169.394 319.694L170.162 321.101L171.501 321.216L172.157 322.341L170.242 324.539L168.756 325.743L169.703 330.187L169.538 331.57L167.81 334.219L166.096 334.846L164.151 334.084L163.042 333.179L162.479 331.62L163.091 327.163L162.847 324.998L160.924 322.317L159.665 320.146L158.85 316.641L157.982 314.285L156.799 312.608L152.5 309.253L150.953 308.664L147.658 308.691L143.079 305.173L140.944 304.588L138.803 304.29L136.063 302.467L134.053 302.395L132.284 301.995L130.592 300.285L128.741 296.232L127.927 295.727L125.349 295.208L121.579 293.467L117.812 291.916L115.886 291.381L112.3 288.765L110.87 288.378L109.364 288.585L108.805 287.938L109.01 285.437L108.919 282.605L108.465 281.545L106.534 279.943L105.745 278.86L103.813 277.625L102.92 277.625L100.9 279.805L100.08 279.286L99.0453 276.114L97.8351 274.319L97.4447 273.025L96.6962 272.162L93.8525 271.679L92.607 271.037L90.4047 269.184L88.299 268.479L86.6701 268.836L84.8048 271.323L80.7196 270.614L77.3104 271.909L73.5891 271.424L73.4468 269.642L72.3999 267.148L69.8471 265.905L69.2302 265.37L67.9064 262.672L66.0395 259.602L64.5763 258.094L65.0324 253.405L64.981 250.688L65.5952 248.92L67.3956 245.649L67.4516 243.457L66.7915 241.073L68.1611 236.951L68.2368 234.535L67.0691 231.253L66.8742 230.02L66.9577 227.439L66.7186 223.731L66.3699 222.501L64.5326 219.174L63.0777 217.815L61.8164 214.95L61.2893 213.043L59.9031 210.423L59.3226 209.869L55.8237 208.669L55.1107 208.135L53.7052 203.072L53.0259 199.505L52.776 194.063L51.9712 191.154L51.2821 190.094L49.6757 189.261L47.2221 188.76L42.6091 189.085L38.0156 189.59L34.3384 189.174L32.402 188.685L30.2388 188.653L25.0537 188.968L23.7156 187.813L22.9321 185.598L23.222 183.789L27.3296 179.927L28.8689 179.33L30.9724 178.954L33.2833 177.17L35.8699 175.752L37.2597 174.465L37.9185 171.951L39.6798 169.751L40.5558 167.069L41.7959 165.504L41.8151 162.291L42.8206 160.202L43.07 158.972L43.0585 156.351L43.4856 154.648L43.1976 152.855L41.7706 147.923L41.4074 147.131L40.3974 146.864L34.9595 148.331L33.8394 148.058L32.4409 146.063L32.0675 143.655L31.9558 139.93L31.5727 138.966L29.6997 137.373L28.8326 135.559L28.8694 131.046L27.6975 127.421L26.1104 123.112L25.1254 121.418L22.3614 117.649L20.2991 112.584L18.6864 110.013L18.449 108.468L18.0989 105.119L18.1673 100.634L17.3659 98.3973L15.9618 97.0233L14.4115 94.8495L11.7376 91.6273L10.3969 88.5051L10.2265 85.8725L11.244 79.2513L11.114 77.847L10.133 75.7254L8.72778 73.9053L6.8391 69.9439L6.23558 68.0439L7.26837 64.9329L5.67733 63.5743L5.10632 62.5108L4.80206 60.718L5.36298 59.0369L5.3689 57.719L4.06249 55.571L2.89539 52.2122L3.09122 49.5139L2.80078 46.5646L3.47395 44.0686L4.9734 41.864L6.96099 41.6078L10.3752 42.5241L12.112 42.6307L15.5716 43.6513L17.0836 44.6625L18.2383 43.4181L22.5291 42.344L25.0427 40.7132L26.831 38.1633L28.0109 37.7617L31.77 37.411L34.3096 36.6876L36.4992 37.0828L37.2154 38.3414L37.3134 40.0297L38.2625 41.2368L39.2448 41.6147L40.6617 43.2609L41.1334 44.5744L40.2441 47.5001L40.5591 54.4247L40.4374 58.9361L42.2985 60.7458L43.7013 61.4493L50.0772 60.6968L54.3209 61.5529L56.6321 63.1588L56.9826 63.7261L57.3701 66.2563L58.0949 67.9946L59.0714 68.7722L61.5582 69.6641L61.9632 73.961L59.0733 77.5357L58.9952 78.3386L60.962 80.0372L68.4992 81.5426L71.1442 82.5123L72.9498 82.8045L76.2919 82.5528L77.7346 82.0247L80.2954 80.5562L81.3687 79.6613L82.7472 77.934L83.3803 75.8792L82.8229 70.4954L82.9113 69.0457L84.0584 66.9646L85.0957 66.6369L86.3971 69.2271L87.294 74.0422L88.1399 76.0867L90.7613 81.4226L92.5239 81.9741L94.1026 81.942L97.5241 82.9841L98.8291 82.459L101.086 80.3618L102.811 77.0003L103.244 75.808L103.216 74.0813L101.925 69.4884L99.9826 65.6024L100.876 63.5407L102.704 61.7173L104.193 59.751L103.72 59.0966L104.916 57.5173L105.883 55.4828L106.304 53.5023L106.161 51.142L104.448 48.3625L102.417 44.3121L100.584 41.2716L99.701 38.1672L98.6007 35.7279L96.3459 32.3588L95.0699 31.0587L94.5174 29.719L94.2016 27.0156L91.5055 21.2674L90.8518 19.3913L91.6096 14.9905L90.9694 12.2441L91.389 10.6584L92.4123 8.99192L98.7252 4.28917L100.207 3.8125L103.34 7.58009L104.874 10.8765L106.501 12.2665L108.209 12.1696L110.624 8.94256L112.276 8.30478Z" fill="#1E1E1E" stroke="white" stroke-width="5"/>
</svg>
