<svg width="184" height="346" viewBox="0 0 184 346" fill="none" xmlns="http://www.w3.org/2000/svg">
<path d="M143.669 16.2213L145.447 16.3676L146.217 17.6483L145.698 20.5086L145.843 22.0349L147.905 22.8222L149.348 22.9452L151.626 21.7874L152.807 22.2938L153.367 23.6235L154.927 25.3576L157.019 28.9174L159.494 29.4974L159.655 31.0924L159.401 32.4973L159.593 33.7925L160.422 35.1041L163.029 35.681L163.433 36.3306L162.523 40.0306L163.622 41.2423L164.901 41.3007L166.242 40.7917L167.511 42.4763L169.959 44.3112L171.225 47.0365L173.83 50.2359L175.36 52.4594L176.228 54.1098L177.451 58.7781L179.144 63.1946L180.472 67.3762L179.623 68.9098L177.012 68.3647L175.92 69.1875L176.809 71.678L176.242 72.6235L175.116 72.3364L174.369 72.7334L174.58 74.2318L172.656 76.1288L173.359 77.8144L171.272 77.3395L160.773 75.7657L153.344 75.4922L150.395 75.7569L145.457 75.9728L143.149 76.6361L143.064 77.881L141.687 79.8052L140.812 81.8936L139.034 81.354L137.087 82.6546L135.64 82.3663L134.544 83.4578L134.031 83.1852L132.523 85.0589L129.144 85.7436L124.737 87.0985L124.292 88.5209L124.184 90.4345L118.689 93.7021L117.09 95.1712L116.545 96.4464L115.852 99.3167L116.307 102.189L117.381 102.531L117.496 105.093L117.897 106.297L118.877 106.716L118.984 108.541L119.893 111.845L119.199 114.854L120.682 118.429L121.967 119.97L122.346 121.726L121.73 122.254L120.38 121.422L118.477 122.299L112.784 124.345L108.298 126.394L104.503 128.437L101.57 130.337L101.895 132.105L101.211 133.691L99.8696 133.51L96.8452 136.497L95.9533 138.087L95.7423 139.273L95.8354 141.789L97.9136 144.085L99.9995 145.296L96.9008 148.249L95.1293 148.577L94.7804 150.17L95.3789 154.667L96.6937 157.468L97.3117 158.045L98.6903 156.783L102.451 156.289L103.826 156.744L104.175 157.797L103.529 159.671L104.334 159.956L106.745 159.907L107.846 160.406L108.72 161.387L108.653 164.16L107.017 165.41L107.666 166.678L107.393 168.329L107.924 168.642L107.613 170.159L108.791 170.239L109.79 169.753L110.321 171.878L109.913 175.135L105.604 176.075L104.863 176.625L103.574 174.968L102.862 172.791L103.101 171.255L101.754 171.02L100.95 170.362L102.59 169.453L101.682 168.862L101.329 167.256L100.367 166.342L98.0631 164.977L96.6922 165.398L95.3884 165.129L94.9079 164.397L92.746 163.055L91.0531 162.813L89.5709 164.011L88.486 163.859L85.1742 167.365L84.7693 168.149L84.953 171.111L86.0439 173.462L88.025 174.677L88.2952 176.502L91.5168 181.576L91.57 182.285L93.9399 185.729L96.3912 186.973L97.3789 188.634L97.1948 190.09L98.117 191.595L98.0104 192.653L98.9949 193.312L99.2815 194.874L98.6481 196.448L97.6681 196.278L97.1724 197.514L95.4866 199.425L95.7965 200.473L95.2798 201.323L90.2726 204.801L88.5645 204.685L87.0026 202.61L86.1577 200.8L86.219 197.595L85.8496 196.068L84.4642 194.66L82.6609 194.081L78.8683 195.95L77.4762 195.496L77.0187 196.096L75.7726 195.239L74.7306 196.192L73.3827 198.77L73.5683 200.058L73.2629 201.779L73.6817 203.986L73.071 206.053L72.0596 207.762L71.9689 211.241L71.5421 212.682L71.9832 213.537L73.1945 214.049L72.9692 215.235L73.7293 217.97L74.3352 219.026L73.5082 221.71L74.4418 224.116L75.01 226.777L75.9599 229.155L75.4982 230.043L75.8068 232.111L76.3244 233.024L76.3712 235.296L76.1077 236.517L74.6542 239.807L75.2641 240.564L73.8502 242.739L73.7154 246.152L72.3489 247.809L72.1463 249.149L71.4944 250.298L71.9674 252.47L74.3008 254.99L74.2522 256.607L74.7402 258.412L76.6754 261.308L77.3373 261.409L77.2277 262.842L79.0969 262.672L80.0019 263.44L80.0741 265.29L79.3085 266.739L79.138 267.935L81.6591 269.76L82.4232 271.98L83.3888 271.01L85.5021 272.01L86.5856 276.274L86.0892 277.433L86.8335 278.138L86.5367 280.294L86.8039 283.384L86.6947 286.956L87.0214 289.128L86.6072 290.735L86.0062 291.419L86.5278 295.073L85.001 295.881L82.4139 295.354L83.3575 297.279L84.499 297.472L84.9583 298.818L83.7954 300.191L85.4246 300.451L86.2222 302.001L86.0948 305.044L84.9824 308.028L83.3668 309.65L80.705 310.497L80.4915 308.707L78.1385 310.551L77.4486 311.815L76.6023 311.833L77.3521 314.103L78.3479 315.272L79.2456 314.458L80.4695 314.02L81.397 316.412L82.4081 316.874L83.3527 317.97L83.4555 320.817L82.2766 323.521L83.1673 325.316L83.581 326.819L82.7804 327.572L81.8856 326.279L80.8919 326.514L82.4157 330.742L83.5429 331.494L85.7549 331.501L85.4375 333.041L83.7424 334.055L81.6367 333.925L80.0076 334.517L79.5673 332.601L78.219 332.628L77.8636 333.72L78.5664 334.978L79.384 337.794L77.6379 340.059L77.4107 342.356L76.6797 342.164L75.8656 338.382L75.6087 335.724L73.2395 332.221L71.1288 331.452L70.2104 330.096L70.3835 328.703L69.6026 326.508L69.8264 323.428L70.4131 322.853L70.0221 321.851L69.6945 318.998L69.9062 317.847L71.8238 318.075L73.2626 317.28L73.4987 316.444L73.3465 313.829L72.2179 313.263L71.204 313.792L69.8569 313.663L67.7277 312.187L65.3278 308.835L64.8154 306.88L64.0663 306.233L65.0684 303.039L64.653 301.502L64.8836 300.672L62.3509 299.04L61.2288 299.4L59.6746 298.437L58.1565 296.517L57.9548 295.671L56.1259 296.183L54.6149 296.94L54.1701 295.342L53.4337 294.097L51.708 294.577L48.9035 293.104L46.5955 293.181L44.8034 291.91L43.9692 290.914L42.1214 287.674L41.806 286.451L40.0469 285.414L38.504 284.929L36.9176 283.386L36.4804 281.678L35.4991 283.065L34.834 285.272L34.0879 286.019L33.8283 287.194L34.0319 288.956L33.0839 291.85L29.771 288.205L28.2071 287.75L27.4726 286.816L25.4139 286.899L23.3218 284.197L21.8595 284.93L20.5929 283.938L18.9403 280.704L18.8529 279.441L17.9512 277.975L17.7588 276.047L16.4104 275.068L15.0647 272.304L14.2728 271.291L13.241 268.045L12.4443 266.14L11.6015 264.88L10.6229 260.537L10.822 259.908L10.4129 257.903L10.5266 253.358L11.7169 253.012L13.6366 255.273L15.0827 254.711L15.5421 253.634L17.6762 251.711L19.3425 249.194L20.3381 249.235L20.0363 247.919L20.4721 245.288L19.5645 243.084L18.5085 241.877L18.8134 240.511L19.87 240.677L20.9083 243.899L21.8866 244.912L22.4037 246.646L23.5694 248.013L25.5695 247.709L29.3845 246.067L31.9447 243.895L30.6722 241.907L29.0012 241.288L27.877 239.494L28.3539 238.566L27.762 235.957L27.3213 235.338L27.7251 233.933L29.7283 231.851L27.7119 229.974L26.8015 227.172L27.0438 226.342L29.7411 225.212L29.5577 222.25L27.9359 221.765L25.3078 221.428L24.0067 221.637L22.7289 221.057L23.0868 219.227L23.2426 215.199L23.8631 214.517L26.3362 213.307L28.1229 213.849L29.7591 212.678L29.8839 211.302L28.933 210.432L28.1895 208.281L23.1356 206.628L22.1081 206.95L21.2196 206.569L19.6272 206.631L18.6697 205.572L18.9622 204.95L18.6879 200.36L20.4292 199.36L21.4635 199.326L23.9917 197.995L24.863 195.925L24.0558 194.244L21.5211 194.27L20.4731 193.769L20.0526 192.87L19.886 189.021L18.8754 185.064L18.7648 183.73L18.1643 181.852L18.5724 181.355L20.1769 181.375L21.1605 182.055L22.7279 182.304L25.2332 181.784L26.4335 181.972L27.9389 180.739L27.8754 177.726L26.6491 176.669L24.2899 176.911L21.1517 174.623L19.8846 173.123L19.2 170.878L19.5778 169.765L17.7592 166.398L17.8822 164.702L17.524 163.184L17.9649 162.601L18.5071 160.343L18.5707 158.801L19.0671 157.285L19.786 156.39L22.4152 155.166L25.1738 155.704L25.6815 155.333L25.6061 153.296L27.2937 151.026L30.2156 150.176L30.9467 149.528L31.1518 147.704L30.4113 146.362L27.2359 144.665L25.0064 145.978L23.6319 146.199L21.4745 147.648L18.2134 147.546L16.7316 147.072L14.8456 146.881L13.5604 146.279L11.9814 145.08L11.1537 143.935L10.6443 141.861L10.9049 139.237L10.6696 138.248L11.3619 137.503L8.31669 135.789L6.86738 136.419L6.00001 131.956L4.95909 129.96L4.98567 128.746L3.86918 125.974L4.19839 124.983L3.03906 121.395L3.45336 120.12L4.70417 120.13L6.8242 119.623L9.77783 119.516L11.1683 118.604L14.4225 117.884L17.2554 117.567L18.0988 117.192L18.8753 116.005L19.8727 112.266L21.6584 111.587L22.4071 109.905L23.1824 106.87L23.5131 103.229L25.1793 100.629L25.4733 96.9013L26.3527 94.5743L27.5212 93.0265L28.5418 88.7093L29.9352 87.1375L31.772 86.2751L33.7624 86.4189L35.373 85.3229L35.4792 84.1476L34.9942 80.5666L35.2902 76.4141L35.9276 75.2421L35.8659 74.3118L34.4327 71.1038L34.1841 68.8371L37.3475 66.5619L37.8506 64.8999L36.7336 61.0899L34.087 57.0119L31.9367 54.0789L30.8539 52.2404L30.2596 50.6666L31.1053 47.7766L30.693 46.4714L27.5982 43.9818L25.6691 42.9542L24.5374 41.745L23.8754 39.9307L22.9678 38.3983L20.1092 34.7601L19.0913 33.2544L18.108 29.1718L15.7874 23.6538L15.3732 21.0164L18.6583 18.4544L19.5323 16.5468L19.4744 14.9836L18.4251 10.5316L19.513 8.28242L19.5913 6.4233L23.3126 6.90784L26.7217 5.61352L30.807 6.32215L32.6723 3.83495L34.3012 3.47852L36.4068 4.18291L38.6092 6.03597L39.8546 6.67829L42.6983 7.16101L43.4468 8.0238L43.8372 9.31782L45.0475 11.113L46.0822 14.285L46.9017 14.8046L48.9217 12.6242L49.8155 12.6245L51.7474 13.8592L52.5357 14.9421L54.4671 16.5444L54.9213 17.6043L55.0121 20.4365L54.8069 22.9373L55.3664 23.5845L56.8718 23.377L58.3018 23.7647L61.8878 26.38L63.8139 26.9154L67.5814 28.4659L71.351 30.2072L73.9296 30.7266L74.7433 31.2311L76.5937 35.2846L78.2861 36.9938L80.055 37.3938L82.0651 37.4665L84.805 39.289L86.946 39.5873L89.0813 40.1718L93.6597 43.6907L96.9549 43.6629L98.5022 44.2519L102.801 47.6073L103.984 49.2844L104.852 51.6405L105.667 55.1452L106.927 57.3163L108.85 59.9976L109.093 62.162L108.481 66.6197L109.044 68.1778L110.153 69.0833L112.098 69.8452L113.813 69.2184L115.54 66.5695L115.705 65.1858L114.759 60.7426L116.244 59.5385L118.159 57.3399L117.503 56.2155L116.164 56.1007L115.396 54.6931L117.004 54.2725L117.412 53.2543L115.763 51.5372L115.773 49.3017L116.756 48.3614L118.001 46.1879L119.405 45.0453L120.785 44.9036L123.409 45.422L126.645 44.7879L131.367 43.0932L132.199 40.639L133.418 38.8683L134.229 32.775L132.874 29.935L132.773 28.7215L133.465 27.4084L134.935 26.2052L136.066 24.5535L136.75 22.983L137.049 20.5098L137.815 18.5428L139.01 17.0362L140.576 16.1095L143.669 16.2213Z" fill="#1E1E1E" stroke="white" stroke-width="5"/>
</svg>
