<svg width="291" height="400" viewBox="0 0 291 400" fill="none" xmlns="http://www.w3.org/2000/svg">
<path d="M179.974 344.032L179.843 346.106L180.69 346.06L181.094 348.206L180.907 349.087L181.745 351.037L181.469 352.52L182.415 354.241L181.998 355.422L182.327 357.84L182.216 359.05L183.235 361.668L182.55 362.213L181.55 361.904L180.754 363.951L181.235 365.711L182.275 366.963L183.845 367.432L184.16 368.259L185.531 368.948L185.802 370.113L184.402 371.691L183.893 372.848L184.341 374.659L183.333 375.244L182.807 376.423L183.882 377.854L183.757 378.938L182.359 378.603L180.757 377.003L181.346 375.611L181.655 373.595L180.512 371.939L178.603 372.234L178.57 373.721L177.88 374.18L175.817 374.535L175.891 373.652L176.799 372.755L178.603 372.234L178.38 369.67L176.449 367.058L174.755 365.726L173.885 365.505L171.534 365.798L168.907 365.524L168.424 366.749L166.911 367.225L164.581 367.115L163.202 368.856L161.084 370.704L160.377 371.6L159.793 373.461L158.712 373.495L156.496 375.33L155.498 373.849L153.277 371.928L153.294 369.282L153.904 368.644L153.689 366.183L154.081 362.531L156.146 360.958L157.06 358.205L158.927 358.621L161.013 357.857L162.629 355.617L163.267 353.859L163.567 350.873L164.399 349.836L165.21 350.449L166.29 350.092L166.694 349.191L168.292 348.462L168.924 347.782L169.129 345.802L170.662 346.763L174.619 345.544L175.062 343.842L177.131 345.116L178.307 344.944L179.974 344.032ZM34.3581 158.811L33.6555 157.125L35.5795 155.228L35.3683 153.73L36.1148 153.333L37.2415 153.62L37.8084 152.675L36.919 150.184L38.0112 149.361L40.6223 149.906L41.4714 148.373L40.1433 144.191L38.4504 139.775L37.2271 135.106L36.3594 133.456L34.8289 131.232L32.2239 128.033L30.9581 125.308L28.5105 123.473L27.2417 121.788L25.9005 122.297L24.6216 122.239L23.5223 121.027L24.4321 117.327L24.0286 116.677L21.4215 116.101L20.5923 114.789L20.4002 113.494L20.6544 112.089L20.4935 110.494L18.0179 109.914L15.9261 106.354L14.3659 104.62L13.8059 103.29L12.6255 102.784L10.3473 103.942L8.90396 103.819L6.84244 103.031L6.69687 101.505L7.21599 98.6448L6.44636 97.3641L4.66784 97.2178L3.27321 94.9293L2.9375 92.3152L3.59151 91.8761L5.46185 92.1668L7.28889 91.0772L7.79769 89.9576L7.67499 88.7771L6.36092 87.5004L5.5719 87.3162L5.09561 86.2818L4.52436 82.721L4.88492 81.1456L7.10769 80.9645L8.7873 78.5391L9.54208 78.4062L13.152 79.8304L14.668 79.9222L15.9182 79.3011L19.7618 78.7702L22.1061 77.2745L23.4157 76.7642L24.5917 76.7927L26.1979 77.5749L28.7948 78.2381L29.4694 79.2029L30.0153 82.033L29.8565 84.1047L30.3625 86.6191L31.9294 87.435L31.6332 89.4873L32.0892 91.1892L32.9776 91.7431L33.7316 92.9372L37.828 92.7622L40.2191 93.545L41.9887 95.6221L42.9779 96.0343L44.066 95.6025L45.5525 92.5199L48.0747 90.4718L48.1942 89.341L49.5752 88.4071L50.0254 87.6263L49.8872 85.6419L51.426 84.0159L51.5503 82.5399L50.7628 78.9646L53.8225 77.0737L54.4243 76.4801L54.6512 75.1431L54.4413 73.5889L55.6903 71.0781L56.6524 70.6856L58.4266 73.2298L60.3026 76.3723L62.2519 78.5521L64.4603 81.8676L66.6914 83.5226L67.5666 84.869L69.1701 86.2194L72.1933 90.0693L74.9602 91.8494L78.1692 93.0383L79.2825 93.7945L80.1166 93.4687L80.7878 92.313L80.9749 91.0342L81.0238 86.9631L81.9021 85.3342L83.5246 84.2161L84.4747 82.6922L84.5194 80.1641L85.0159 76.5795L86.3599 73.1311L87.6154 72.2386L90.2067 71.2438L90.9777 70.186L91.1206 68.7859L90.7725 66.9686L90.7589 63.5584L89.7682 59.2148L89.7187 56.4105L89.9663 53.7207L89.6985 52.7656L90.1918 48.2136L91.2669 41.858L90.5735 39.0619L90.5349 37.6455L91.2393 34.907L91.9243 33.477L92.1904 28.3342L92.7221 25.3189L93.4234 23.99L94.1958 25.0905L95.3664 25.7807L96.4383 25.6635L99.4298 24.4037L102.698 28.2167L104.059 29.2424L105.342 29.505L108.462 29.4562L109.579 29.1958L111.708 27.9938L112.944 27.975L113.898 28.9047L115.18 32.3189L115.249 34.0139L114.81 35.8373L115.831 36.9693L118.215 35.5666L120.68 35.7431L125.362 35.364L127.325 34.9145L127.663 34.0045L126.109 29.4383L126.035 26.8776L126.224 25.1535L127.94 23.4849L129.105 20.498L130.897 19.0232L133.882 18.0589L138.455 15.659L140.292 15.3077L142.12 15.5645L143.449 16.3673L145.395 18.2588L147.137 20.9156L148.921 23.1727L150.421 24.4873L151.402 24.7304L152.537 24.3749L156.274 21.4129L159.163 20.2485L163.758 19.2261L165.97 18.9027L167.991 17.6329L169.166 16.4403L169.911 14.7056L170.61 11.3732L171.282 10.4853L175.388 9.68853L177.207 9.09861L178.477 7.14077L178.936 5.50545L181.061 3.14453L182.413 3.19511L184.764 4.08787L186.322 5.45306L185.52 7.61743L187.273 10.4874L187.767 12.6418L187.57 13.557L189.792 13.8962L190.042 14.553L189.904 17.0935L191.754 17.8603L191.321 19.2706L190.524 20.1007L189.964 21.7829L187.865 21.1706L187.763 22.7602L188.839 24.1738L188.943 25.6426L190.378 26.2952L191.034 27.3297L191.039 28.6134L190.161 30.4208L189.521 30.5837L189.555 33.709L190.87 35.0284L191.887 35.4727L191.724 37.883L192.747 41.4156L192.544 43.3628L191.807 44.102L189.437 43.5297L188.8 42.6551L187.337 44.3743L186.6 44.5472L186.535 46.1437L185.97 47.6843L185.008 49.1203L185.565 51.0906L186.402 51.7968L187.519 51.6929L187.844 52.9215L189.532 53.9164L189.935 54.8679L191.403 54.2664L191.182 52.9924L194.272 52.917L193.942 54.3606L193.045 54.6323L193.362 56.0841L192.754 57.3187L192.99 58.829L192.006 61.0624L193.985 60.4655L195.769 62.7662L194.606 63.9939L196.347 66.3693L198.693 66.862L199.288 67.8559L198.761 68.6161L197.418 69.1115L196.369 70.262L194.692 71.1932L197.356 76.3354L198.318 79.5436L198.777 79.818L199.734 82.2522L199.648 83.5883L200.876 85.0837L201.623 85.462L203.104 87.4298L204.678 91.2658L205.199 91.5953L206.175 95.5149L206.042 96.5597L206.482 99.0182L208.175 103.185L208.622 103.786L208.56 106.413L207.415 106.91L208.513 108.935L209.877 110.429L210.195 111.565L210.972 111.886L211.413 113.215L212.406 114.801L214.16 120.349L213.253 121.738L210.258 122.08L208.723 122.508L208.761 123.654L211.321 124.018L212.683 124.566L212.86 126.22L211.252 127.706L212.683 129.68L213.773 129.641L214.45 130.595L216.46 132.486L218.095 133.374L216.918 134.263L215.283 134.539L215.102 136.181L215.914 136.21L217.073 137.19L217.974 136.919L219.749 139.68L221.816 139.701L223.235 140.478L223.845 140.143L225.448 141.519L224.805 142.641L225.984 143.094L227.111 144.126L227.402 145.424L226.92 147.087L227.774 148.234L231.68 147.266L233.526 148.432L232.58 149.793L232.471 151.893L232.838 152.731L230.089 154.048L230.627 154.975L230.426 156.319L231.537 158.689L233.26 160.465L233.18 161.871L233.564 163.573L232.498 163.336L232.963 164.925L233.918 165.857L232.837 167.396L233.681 168.233L233.192 169.714L232.481 169.793L230.788 168.997L229.508 169.141L229.658 167.637L227.619 166.732L226.926 166.959L226.613 169.773L227.912 169.806L228.8 170.698L230.28 169.486L231.004 169.601L231.898 170.862L233.597 171.37L234.658 171.229L234.702 169.98L236.77 168.138L237.569 169.331L237.096 172.933L238.33 175.49L239.349 174.65L240.701 174.579L242.78 176.059L243.427 176.938L243.402 178.405L242.502 179.485L240.786 180.196L239.028 181.454L238.14 182.659L236.696 182.369L235.346 183.008L234.255 184.548L232.573 183.672L231.771 185.093L230.696 185.836L230.23 187.803L230.797 189.24L230.565 190.74L231.461 192.206L230.951 193.395L231.32 194.256L230.704 196.409L231.798 196.757L232.867 198.113L233.543 200.5L232.224 200.227L232.116 201.31L232.843 201.707L232.142 203.167L232.055 204.577L230.634 205.198L229.291 204.097L227.577 204.391L226.568 203.229L226.085 202.03L222.893 201.945L222.363 201.577L221.745 199.608L220.997 199.205L220.388 196.12L217.9 195.052L216.732 195.489L215.425 196.655L212.731 196.642L211.778 199.872L212.9 200.202L213.678 201.598L212.766 202.701L211.801 204.602L210.314 203.892L209.176 203.889L209.393 202.669L206.69 202.162L204.721 202.989L203.765 204.207L202.288 207.281L201.313 211.098L201.041 215.901L202.124 218.071L204.465 218.552L207.172 221.144L207.47 222.063L206.141 223.47L205.09 227.055L205.987 229.133L208.332 231.731L210.796 231.335L212.167 230.394L214.101 229.642L217.949 229.557L218.328 230.577L217.037 232.18L214.637 232.98L211.395 232.105L209.321 232.174L208.176 232.555L208.279 234.694L208.056 237.576L208.337 238.867L207.863 239.881L206.462 241.63L204.649 242.262L204.038 243.488L203.434 245.996L202.22 247.869L202.484 250.821L201.923 252.001L202.742 254.135L203.134 256.492L204.292 258.703L204.044 259.349L204.896 261.444L204.024 262.4L203.747 263.602L204 264.876L205.549 267.895L204.935 270.02L205.55 271.232L207.023 272.039L207.73 273.467L208.831 274.543L211.426 275.186L211.927 277.292L211.577 278.959L212.411 281.42L215.767 281.695L217.174 282.621L217.532 283.683L216.529 284.373L217.102 286.273L217.811 286.802L217.489 288.269L218.899 291.438L221.547 292.391L221.746 296.405L223.093 297.292L224.934 299.11L225.515 300.011L226.726 300.629L227.629 301.801L228.601 302.113L229.373 303.17L231.43 303.836L231.678 304.771L232.675 305.692L235.462 307.078L235.912 308.003L237.589 309.424L238.099 310.348L240.828 311.269L243.465 313.181L245.893 312.399L247.259 312.565L248.124 311.887L251.657 313.722L252.446 314.631L253.301 316.669L252.866 318.663L254.436 319.626L254.84 320.894L253.787 323.242L254.138 324.269L255.457 324.836L256.1 323.881L258.148 324.124L258.475 325.575L259.165 326.385L260.121 326.412L262.317 327.568L263.622 327.711L263.924 328.578L261.435 329.422L258.993 332.067L257.807 332.297L256.813 333.888L257.634 334.63L257.83 336.007L257.243 337.884L258.456 339.202L258.908 340.7L258.899 342.947L257.997 344.331L255.403 347.245L254.353 347.539L254.179 348.817L253.031 349.237L252.291 351.281L252.88 352.845L254.61 353.988L256.57 354.796L258.307 356.945L259.165 359.084L261.035 360.123L262.19 358.658L263.37 359.125L265.188 360.399L267.131 359.471L268.331 360.294L269.532 363.998L270.744 364.04L271.825 365.739L271.559 366.703L270.05 366.936L270.298 367.927L269.499 369.036L270.784 371.942L271.879 372.858L273.226 371.937L276.509 370.858L276.597 372.599L278.377 373.944L279.558 374.101L281.175 375.046L283.229 375.605L284.978 377.124L285.744 379.401L286.576 380.047L288.025 382.851L287.651 384.742L286.739 385.617L287.373 386.552L287.625 388.325L286.558 389.386L286.471 391.601L285.8 392.047L283.69 391.304L282.517 390.399L278.884 390.08L277.66 389.515L275.901 390.222L275.386 390.862L270.426 389.17L267.846 389.232L266.606 388.761L265.621 388.912L263.216 387.743L262.624 388.366L261.321 388.494L260.249 387.881L259.277 389.039L258.403 389.401L257.804 390.703L258.284 391.974L257.295 394.299L255.392 396.051L252.62 396.439L250.572 395.444L250.065 394.681L248.766 394.227L248.03 393.444L246.583 393.344L244.139 392.194L243.498 389.522L241.963 389.044L241.343 387.983L238.455 387.471L236.672 388.733L237.008 389.787L236.031 390.525L233.981 387.49L232.752 387.771L231.794 388.751L232.011 385.856L230.056 386.188L230.358 384.333L229.341 382.547L229.592 381.835L228.571 380.609L227.97 380.525L225.959 377.156L226.413 376.436L225.527 373.97L224.927 373.226L223.265 373.416L221.914 371.653L221.61 369.398L219.978 367.461L220.252 366.393L221.029 366.133L221.959 364.682L222.844 364.394L223.167 362.865L222.951 361.074L223.551 360.255L222.187 357.952L220.149 358.246L220.698 356.863L222.213 356.663L223.138 352.549L221.614 348.744L220.56 347.325L216.38 343.357L213.51 341.204L210.29 337.481L207.976 335.411L205.599 333.982L204.001 333.451L200.153 332.85L198.034 332.701L194.624 333.444L189.366 335.203L184.908 337.897L184.511 339.043L182.209 340.949L181.554 340.499L180.468 337.879L177.911 337.963L176.998 337.682L174.91 338.225L174.037 338.138L174.229 335.514L172.919 333.776L171.684 332.593L171.263 330.064L169.681 328.551L169.914 327.028L168.738 325.401L169.379 323.975L168.947 322.289L167.325 319.651L166.442 317.351L163.561 314.45L161.626 313.631L158.865 312.114L159.536 310.884L160.774 310.172L160.937 308.901L161.934 307.878L162.803 304.769L160.944 301.847L159.753 300.489L159.62 299.357L158.888 297.994L157.289 296.47L155.954 296.588L154.83 295.61L155.082 294.203L154.811 293.115L151.822 290.437L150.938 290.338L150.363 289.488L149.45 290.427L147.978 290.539L148.535 289.268L147.764 287.938L145.227 286.213L143.491 285.949L141.719 285.122L141.069 283.759L139.593 281.928L138.205 281.462L136.873 281.76L134.121 281.477L133.481 280.603L134.571 279L131.043 275.529L130.702 274.739L129.651 274.393L128.762 272.328L129.129 271.388L127.792 270.182L127.358 269.012L128.935 269.315L129.531 268.835L131.133 269.274L132.327 266.875L132.685 263.485L133.215 262.172L132.362 259.857L132.727 258.095L132.598 256.539L131.683 256.217L131.862 254.952L131.312 253.442L127.696 249.731L125.618 248.757L126.627 247.113L125.621 247.117L125.251 245.959L124.321 245.523L123.688 244.495L121.46 242.67L119.146 242.234L118.622 241.585L117.038 241.365L117.697 240.209L117.275 239.365L117.247 237.083L115.465 236.945L115.591 234.573L114.553 232.93L112.367 233.207L111.309 232.392L110.758 231.289L107.806 231.017L105.879 232.019L105.984 233.827L105.7 235.263L106.176 235.751L106.405 238.174L105.733 242.46L105.307 243.282L105.305 244.939L103.837 245.546L102.387 247.534L102.366 248.905L103.642 251.135L103.585 251.897L102.491 252.835L101.138 252.457L100.393 249.661L101.757 247.086L100.781 246.34L99.5775 243.904L97.7946 244.325L97.6637 243.325L96.7952 243.2L96.0272 241.91L95.3498 241.822L95.3307 240.09L94.364 237.985L94.4923 234.345L95.8647 232.98L96.4299 231.868L98.2528 230.354L97.5202 229.806L97.3695 227.619L96.8547 227.165L97.462 224.752L100.021 224.984L101.811 222.071L101.597 220.18L102.433 218.368L102.538 217.309L101.91 215.224L102.066 214.073L101.193 212.297L101.068 209.313L99.0943 204.73L98.984 203.329L98.2256 202.115L97.8902 200.293L95.9693 198.234L93.6866 196.67L93.0763 193.944L91.6158 193.295L91.2634 191.983L91.7378 190.942L92.5721 191.135L92.7314 189.084L92.087 188.121L90.0745 186.299L89.2427 185.078L90.0263 184.76L90.8778 183.08L90.8342 181.121L89.3632 178.855L88.4175 178.112L88.0196 177.055L89.0264 175.996L89.3654 173.571L88.9051 171.688L87.8208 170.519L87.1622 168.441L85.5144 165.987L85.2372 164.988L85.418 162.896L83.8714 161.338L81.6835 160.19L78.4863 159.245L72.7303 158.096L68.9358 157.551L67.9647 157.755L66.3014 157.486L62.9388 157.455L57.652 157.206L51.5272 157.414L48.9352 157.609L42.7442 157.756L38.9909 158.502L34.3581 158.811Z" fill="#1E1E1E"/>
<path d="M178.603 372.234L180.512 371.939L181.655 373.595L181.346 375.611L180.757 377.003L182.359 378.603L183.757 378.938L183.882 377.854L182.807 376.423L183.333 375.244L184.341 374.659L183.893 372.848L184.402 371.691L185.802 370.113L185.531 368.948L184.16 368.259L183.845 367.432L182.275 366.963L181.235 365.711L180.754 363.951L181.55 361.904L182.55 362.213L183.235 361.668L182.216 359.05L182.327 357.84L181.998 355.422L182.415 354.241L181.469 352.52L181.745 351.037L180.907 349.087L181.094 348.206L180.69 346.06L179.843 346.106L179.974 344.032L178.307 344.944L177.131 345.116L175.062 343.842L174.619 345.544L170.662 346.763L169.129 345.801L168.924 347.782L168.292 348.462L166.694 349.191L166.29 350.092L165.21 350.449L164.399 349.836L163.567 350.873L163.267 353.859L162.629 355.617L161.013 357.857L158.927 358.621L157.06 358.205L156.146 360.958L154.081 362.531L153.689 366.183L153.904 368.644L153.294 369.282L153.277 371.928L155.498 373.849L156.496 375.33L158.712 373.495L159.793 373.461L160.377 371.6L161.084 370.704L163.202 368.856L164.581 367.115L166.911 367.225L168.424 366.749L168.907 365.524L171.534 365.798L173.885 365.505L174.755 365.726L176.449 367.058L178.38 369.67L178.603 372.234ZM178.603 372.234L178.57 373.721L177.88 374.18L175.817 374.535L175.891 373.653L176.799 372.755L178.603 372.234ZM34.3581 158.811L33.6555 157.125L35.5795 155.228L35.3683 153.73L36.1148 153.333L37.2415 153.62L37.8084 152.675L36.919 150.184L38.0112 149.361L40.6223 149.906L41.4714 148.373L40.1433 144.191L38.4504 139.775L37.2271 135.106L36.3594 133.456L34.8289 131.232L32.2239 128.033L30.9581 125.308L28.5105 123.473L27.2417 121.788L25.9005 122.297L24.6216 122.239L23.5223 121.027L24.4321 117.327L24.0286 116.677L21.4215 116.101L20.5923 114.789L20.4002 113.494L20.6544 112.089L20.4935 110.494L18.0179 109.914L15.9261 106.354L14.3659 104.62L13.8059 103.29L12.6255 102.784L10.3473 103.942L8.90396 103.819L6.84244 103.031L6.69687 101.505L7.21599 98.6448L6.44636 97.3641L4.66784 97.2178L3.27321 94.9293L2.9375 92.3152L3.59151 91.8761L5.46185 92.1668L7.28889 91.0772L7.79769 89.9576L7.67499 88.7771L6.36092 87.5004L5.5719 87.3162L5.09561 86.2818L4.52436 82.721L4.88492 81.1456L7.10769 80.9645L8.7873 78.5391L9.54207 78.4062L13.152 79.8304L14.668 79.9222L15.9182 79.3011L19.7618 78.7702L22.1061 77.2745L23.4157 76.7642L24.5917 76.7927L26.1979 77.5749L28.7948 78.2381L29.4694 79.2029L30.0153 82.0329L29.8565 84.1047L30.3625 86.6191L31.9294 87.435L31.6332 89.4873L32.0892 91.1892L32.9776 91.7431L33.7316 92.9372L37.828 92.7622L40.2191 93.545L41.9887 95.6222L42.9779 96.0343L44.066 95.6025L45.5525 92.5199L48.0747 90.4718L48.1942 89.341L49.5752 88.4071L50.0254 87.6263L49.8872 85.6419L51.426 84.0159L51.5503 82.5399L50.7628 78.9646L53.8225 77.0737L54.4243 76.4801L54.6512 75.1431L54.4413 73.5889L55.6903 71.0781L56.6524 70.6856L58.4266 73.2298L60.3026 76.3723L62.2519 78.5521L64.4603 81.8676L66.6914 83.5226L67.5666 84.869L69.1701 86.2194L72.1933 90.0693L74.9602 91.8494L78.1692 93.0383L79.2825 93.7945L80.1166 93.4687L80.7878 92.3131L80.9749 91.0342L81.0238 86.9631L81.9021 85.3342L83.5246 84.2161L84.4747 82.6922L84.5194 80.1641L85.0159 76.5795L86.3599 73.1311L87.6154 72.2386L90.2067 71.2438L90.9777 70.186L91.1206 68.786L90.7725 66.9686L90.7589 63.5584L89.7682 59.2148L89.7187 56.4105L89.9663 53.7207L89.6985 52.7656L90.1918 48.2136L91.2669 41.858L90.5735 39.0619L90.5349 37.6455L91.2393 34.907L91.9243 33.477L92.1904 28.3342L92.7221 25.3189L93.4234 23.99L94.1958 25.0905L95.3664 25.7807L96.4383 25.6635L99.4298 24.4037L102.698 28.2167L104.059 29.2424L105.342 29.505L108.462 29.4562L109.579 29.1958L111.708 27.9938L112.944 27.975L113.898 28.9047L115.18 32.3189L115.249 34.0139L114.81 35.8373L115.831 36.9693L118.215 35.5666L120.68 35.7431L125.362 35.364L127.325 34.9145L127.663 34.0045L126.109 29.4383L126.035 26.8776L126.224 25.1535L127.94 23.4849L129.105 20.498L130.897 19.0232L133.882 18.0589L138.455 15.659L140.292 15.3077L142.12 15.5645L143.449 16.3673L145.395 18.2588L147.137 20.9156L148.921 23.1727L150.421 24.4873L151.402 24.7304L152.537 24.3749L156.274 21.4129L159.163 20.2485L163.758 19.2261L165.97 18.9027L167.991 17.6329L169.166 16.4403L169.911 14.7056L170.61 11.3732L171.282 10.4853L175.388 9.68853L177.207 9.09861L178.477 7.14077L178.936 5.50545L181.061 3.14453L182.413 3.19511L184.764 4.08787L186.322 5.45306L185.52 7.61743L187.273 10.4874L187.767 12.6418L187.57 13.557L189.792 13.8962L190.042 14.553L189.904 17.0935L191.754 17.8603L191.321 19.2706L190.524 20.1007L189.964 21.7829L187.865 21.1706L187.763 22.7602L188.839 24.1738L188.943 25.6426L190.378 26.2952L191.034 27.3297L191.039 28.6134L190.161 30.4208L189.521 30.5837L189.555 33.709L190.87 35.0284L191.887 35.4727L191.724 37.883L192.747 41.4155L192.544 43.3628L191.807 44.102L189.437 43.5297L188.8 42.6551L187.337 44.3743L186.6 44.5472L186.535 46.1437L185.97 47.6843L185.008 49.1203L185.565 51.0906L186.402 51.7968L187.519 51.6929L187.844 52.9215L189.532 53.9164L189.935 54.8679L191.403 54.2664L191.182 52.9924L194.272 52.917L193.942 54.3606L193.045 54.6323L193.362 56.0841L192.754 57.3187L192.99 58.829L192.006 61.0624L193.985 60.4655L195.769 62.7662L194.606 63.9939L196.347 66.3693L198.693 66.862L199.288 67.8559L198.761 68.6161L197.418 69.1115L196.369 70.262L194.692 71.1932L197.356 76.3354L198.318 79.5436L198.777 79.818L199.734 82.2522L199.648 83.5883L200.876 85.0837L201.623 85.462L203.104 87.4298L204.678 91.2658L205.199 91.5953L206.175 95.5149L206.042 96.5597L206.482 99.0182L208.175 103.185L208.622 103.786L208.56 106.413L207.415 106.91L208.513 108.935L209.877 110.429L210.195 111.565L210.972 111.886L211.413 113.215L212.406 114.801L214.16 120.349L213.253 121.738L210.258 122.08L208.723 122.508L208.761 123.654L211.321 124.018L212.683 124.566L212.86 126.22L211.252 127.706L212.683 129.68L213.773 129.641L214.45 130.595L216.46 132.486L218.095 133.374L216.918 134.263L215.283 134.539L215.102 136.181L215.914 136.21L217.073 137.19L217.974 136.919L219.749 139.68L221.816 139.701L223.235 140.478L223.845 140.143L225.448 141.519L224.805 142.641L225.984 143.094L227.111 144.126L227.402 145.424L226.92 147.087L227.774 148.234L231.68 147.266L233.526 148.432L232.58 149.793L232.471 151.893L232.838 152.731L230.089 154.048L230.627 154.975L230.426 156.319L231.537 158.689L233.26 160.465L233.18 161.871L233.564 163.573L232.498 163.336L232.963 164.925L233.918 165.857L232.837 167.396L233.681 168.233L233.192 169.714L232.481 169.793L230.788 168.997L229.508 169.141L229.658 167.637L227.619 166.732L226.926 166.959L226.613 169.773L227.912 169.806L228.8 170.698L230.28 169.486L231.004 169.601L231.898 170.862L233.597 171.37L234.658 171.229L234.702 169.98L236.77 168.138L237.569 169.331L237.096 172.933L238.33 175.49L239.349 174.65L240.701 174.579L242.78 176.059L243.427 176.938L243.402 178.405L242.502 179.485L240.786 180.196L239.028 181.454L238.14 182.659L236.696 182.369L235.346 183.008L234.255 184.548L232.573 183.672L231.771 185.093L230.696 185.836L230.23 187.803L230.797 189.24L230.565 190.74L231.461 192.206L230.951 193.395L231.32 194.256L230.705 196.409L231.798 196.757L232.867 198.113L233.543 200.5L232.224 200.227L232.116 201.31L232.843 201.707L232.142 203.167L232.055 204.577L230.634 205.198L229.291 204.097L227.577 204.391L226.568 203.229L226.085 202.03L222.893 201.945L222.363 201.577L221.745 199.608L220.997 199.205L220.388 196.12L217.9 195.052L216.732 195.489L215.425 196.655L212.731 196.642L211.778 199.872L212.9 200.202L213.678 201.598L212.766 202.701L211.801 204.602L210.314 203.892L209.176 203.889L209.393 202.669L206.69 202.162L204.721 202.989L203.765 204.207L202.288 207.281L201.313 211.098L201.041 215.901L202.124 218.071L204.465 218.552L207.172 221.144L207.47 222.063L206.141 223.47L205.09 227.055L205.987 229.133L208.332 231.731L210.796 231.335L212.167 230.394L214.101 229.642L217.949 229.557L218.328 230.577L217.037 232.18L214.637 232.98L211.395 232.105L209.321 232.174L208.176 232.555L208.279 234.694L208.056 237.576L208.337 238.867L207.863 239.881L206.462 241.63L204.649 242.262L204.038 243.488L203.434 245.996L202.22 247.869L202.484 250.821L201.923 252.001L202.742 254.135L203.134 256.492L204.292 258.703L204.044 259.349L204.896 261.444L204.024 262.4L203.747 263.602L204 264.876L205.549 267.895L204.935 270.02L205.55 271.232L207.023 272.039L207.73 273.467L208.831 274.543L211.426 275.186L211.927 277.292L211.577 278.959L212.411 281.42L215.767 281.695L217.174 282.621L217.532 283.683L216.529 284.373L217.102 286.273L217.811 286.802L217.489 288.269L218.899 291.438L221.547 292.391L221.746 296.405L223.093 297.292L224.934 299.11L225.515 300.011L226.726 300.629L227.629 301.801L228.601 302.113L229.373 303.17L231.43 303.836L231.678 304.771L232.675 305.692L235.462 307.078L235.912 308.003L237.589 309.424L238.099 310.348L240.828 311.269L243.465 313.181L245.893 312.399L247.259 312.565L248.124 311.887L251.657 313.722L252.446 314.631L253.301 316.669L252.866 318.663L254.436 319.626L254.84 320.894L253.787 323.242L254.138 324.269L255.457 324.836L256.1 323.881L258.148 324.124L258.475 325.575L259.165 326.385L260.121 326.412L262.317 327.568L263.622 327.711L263.924 328.578L261.435 329.422L258.993 332.067L257.807 332.297L256.813 333.888L257.634 334.63L257.83 336.007L257.243 337.884L258.456 339.202L258.908 340.7L258.899 342.947L257.997 344.331L255.403 347.245L254.353 347.539L254.179 348.817L253.031 349.237L252.291 351.281L252.88 352.845L254.61 353.988L256.57 354.796L258.307 356.945L259.165 359.084L261.035 360.123L262.19 358.658L263.37 359.125L265.188 360.399L267.131 359.471L268.331 360.294L269.532 363.998L270.744 364.04L271.825 365.739L271.559 366.703L270.05 366.936L270.298 367.927L269.499 369.036L270.784 371.942L271.879 372.858L273.226 371.937L276.509 370.858L276.597 372.599L278.377 373.944L279.558 374.101L281.175 375.046L283.229 375.605L284.978 377.124L285.744 379.401L286.576 380.047L288.025 382.851L287.651 384.742L286.739 385.617L287.373 386.552L287.625 388.325L286.558 389.386L286.471 391.601L285.8 392.047L283.69 391.304L282.517 390.399L278.884 390.08L277.66 389.515L275.901 390.222L275.386 390.862L270.426 389.17L267.846 389.232L266.606 388.761L265.621 388.912L263.216 387.743L262.624 388.366L261.321 388.494L260.249 387.881L259.277 389.039L258.403 389.401L257.804 390.703L258.284 391.974L257.295 394.299L255.392 396.051L252.62 396.439L250.572 395.444L250.065 394.682L248.766 394.227L248.03 393.444L246.583 393.344L244.139 392.194L243.498 389.522L241.963 389.044L241.343 387.983L238.455 387.471L236.672 388.733L237.008 389.787L236.031 390.525L233.981 387.49L232.752 387.771L231.794 388.751L232.011 385.856L230.056 386.188L230.358 384.333L229.341 382.547L229.592 381.835L228.571 380.609L227.97 380.525L225.959 377.156L226.413 376.436L225.527 373.97L224.927 373.226L223.265 373.416L221.914 371.653L221.61 369.398L219.978 367.461L220.252 366.393L221.029 366.133L221.959 364.682L222.844 364.394L223.167 362.865L222.951 361.074L223.551 360.255L222.187 357.952L220.149 358.246L220.698 356.863L222.213 356.663L223.138 352.549L221.614 348.744L220.56 347.325L216.38 343.357L213.51 341.204L210.29 337.481L207.976 335.411L205.599 333.982L204.001 333.451L200.153 332.85L198.034 332.701L194.624 333.444L189.366 335.203L184.908 337.897L184.511 339.043L182.209 340.949L181.554 340.499L180.468 337.879L177.911 337.963L176.998 337.682L174.91 338.225L174.037 338.138L174.229 335.514L172.919 333.776L171.684 332.593L171.263 330.064L169.681 328.551L169.914 327.028L168.738 325.401L169.379 323.975L168.947 322.289L167.325 319.651L166.442 317.351L163.561 314.45L161.626 313.631L158.865 312.114L159.536 310.884L160.774 310.172L160.937 308.901L161.934 307.878L162.804 304.769L160.944 301.847L159.753 300.489L159.62 299.357L158.888 297.994L157.289 296.47L155.954 296.588L154.83 295.61L155.082 294.203L154.811 293.115L151.822 290.437L150.938 290.338L150.363 289.488L149.45 290.427L147.978 290.539L148.535 289.268L147.764 287.938L145.227 286.213L143.491 285.949L141.719 285.122L141.069 283.759L139.593 281.928L138.205 281.462L136.873 281.76L134.121 281.477L133.481 280.603L134.571 279L131.043 275.529L130.702 274.739L129.651 274.393L128.762 272.328L129.129 271.388L127.792 270.182L127.358 269.012L128.935 269.315L129.531 268.835L131.133 269.274L132.327 266.875L132.685 263.485L133.215 262.172L132.362 259.857L132.727 258.095L132.598 256.539L131.683 256.217L131.862 254.952L131.312 253.442L127.696 249.731L125.618 248.757L126.627 247.113L125.621 247.117L125.251 245.959L124.321 245.523L123.688 244.495L121.46 242.67L119.146 242.234L118.622 241.585L117.038 241.365L117.697 240.209L117.275 239.365L117.247 237.083L115.465 236.945L115.591 234.573L114.553 232.93L112.367 233.207L111.309 232.392L110.758 231.289L107.806 231.017L105.879 232.019L105.984 233.827L105.7 235.263L106.176 235.751L106.405 238.174L105.733 242.46L105.307 243.282L105.305 244.939L103.837 245.546L102.387 247.534L102.366 248.905L103.642 251.135L103.585 251.897L102.491 252.835L101.138 252.457L100.393 249.661L101.757 247.086L100.781 246.34L99.5775 243.904L97.7946 244.325L97.6637 243.325L96.7952 243.2L96.0272 241.91L95.3498 241.822L95.3307 240.09L94.364 237.985L94.4923 234.345L95.8647 232.98L96.4299 231.868L98.2528 230.354L97.5202 229.806L97.3695 227.619L96.8547 227.165L97.462 224.752L100.021 224.984L101.811 222.071L101.597 220.18L102.433 218.368L102.538 217.309L101.91 215.224L102.066 214.073L101.193 212.297L101.068 209.313L99.0943 204.73L98.984 203.329L98.2256 202.115L97.8901 200.293L95.9693 198.234L93.6866 196.67L93.0763 193.944L91.6158 193.295L91.2634 191.983L91.7378 190.942L92.5721 191.135L92.7314 189.084L92.087 188.121L90.0745 186.299L89.2427 185.078L90.0263 184.76L90.8778 183.08L90.8342 181.121L89.3632 178.855L88.4175 178.112L88.0196 177.055L89.0264 175.996L89.3654 173.571L88.905 171.688L87.8208 170.519L87.1622 168.441L85.5144 165.987L85.2372 164.988L85.418 162.896L83.8714 161.338L81.6835 160.19L78.4863 159.245L72.7303 158.097L68.9358 157.551L67.9647 157.755L66.3014 157.486L62.9388 157.455L57.652 157.206L51.5272 157.414L48.9352 157.609L42.7442 157.756L38.9909 158.502L34.3581 158.811Z" stroke="white" stroke-width="5"/>
</svg>
