<svg width="273" height="343" viewBox="0 0 273 343" fill="none" xmlns="http://www.w3.org/2000/svg">
<path d="M269.061 305.148L266.936 307.509L266.476 309.144L265.207 311.102L263.388 311.692L259.282 312.489L258.61 313.377L257.911 316.709L257.166 318.444L255.991 319.636L253.969 320.906L251.758 321.23L247.162 322.252L244.274 323.416L240.537 326.378L239.402 326.734L238.421 326.491L236.921 325.176L235.137 322.919L233.395 320.262L231.449 318.371L230.12 317.568L228.292 317.311L226.455 317.662L221.881 320.062L218.896 321.027L217.105 322.501L215.94 325.488L214.224 327.157L214.035 328.881L214.109 331.442L215.663 336.008L215.324 336.918L213.362 337.367L208.68 337.747L206.214 337.57L203.831 338.973L202.81 337.841L203.249 336.017L203.18 334.322L201.898 330.908L200.944 329.978L199.708 329.997L197.579 331.199L196.462 331.46L193.342 331.508L192.059 331.246L190.698 330.22L187.43 326.407L184.438 327.667L183.366 327.784L182.196 327.094L181.423 325.993L180.018 322.636L179.238 320.252L178.944 318.268L177.616 314.791L176.833 313.627L175.041 312.931L171.91 312.776L170.413 312.278L168.064 309.55L166.888 307.787L163.486 303.74L162.395 301.687L161.267 300.148L160.467 299.781L155.166 299.088L152.154 300.485L149.804 301.857L148.986 302.9L148.045 305.871L148.048 309.601L147.448 310.418L145.074 311.514L142.602 312.151L140.737 313.196L138.347 313.433L136.908 312.484L135.395 310.889L132.158 306.391L129.428 301.436L127.455 299.601L126.45 298.29L126.412 295.524L127.5 291.288L127.39 287.109L127.778 284.671L128.399 283.526L129.798 282.323L131.793 281.582L133.275 280.369L135.497 276.871L134.581 275.493L130.997 273.486L130.048 272.624L128.424 270.483L126.224 268.061L125.982 264.747L125.488 263.655L124.287 262.497L123.266 260.653L121.725 258.932L119.563 257.445L117.154 254.877L115.921 252.714L115.31 251.156L112.537 248.475L111.074 246.619L107.777 243.877L106.495 242.087L106.089 238.501L105.569 235.747L104.515 233.288L101.26 228.748L100.774 226.807L102.017 224.424L102.246 221.743L101.794 217.388L101.331 214.393L98.2574 206.405L97.6999 205.4L96.1763 203.807L93.7968 200.718L92.5129 198.459L91.8418 194.76L90.9625 192.368L88.4016 190.097L88.0145 186.167L88.082 182.123L87.9066 179.529L87.3736 177.765L86.0955 177.31L87.165 175.467L88.0311 172.112L87.571 164.801L88.3592 161.279L89.1958 158.893L89.0218 156.334L88.5385 153.781L87.5443 150.203L85.7993 146.709L83.5023 146.448L78.9854 147.61L77.508 148.145L73.4257 148.749L67.9905 150.674L65.3464 152.053L64.2019 152.964L61.3267 154.442L60.0351 154.397L59.0387 153.603L57.5439 149.678L55.4573 146.875L54.8344 145.69L54.6685 144.239L56.033 141.759L54.8316 140.886L51.4162 139.986L50.5019 139.14L48.8693 136.858L48.5472 135.063L47.1338 132.493L45.5296 131.772L43.9231 131.831L41.6271 130.73L38.3864 130.827L36.0106 131.775L33.8911 131.942L32.7503 131.623L31.0318 132.085L29.7789 133.055L27.8195 135.745L26.6662 136.133L23.3258 134.11L20.9775 134.226L19.4935 134.02L16.5994 132.585L15.5694 131.751L14.1861 129.576L13.0432 128.629L11.3341 127.993L9.57557 126.964L7.27677 126.304L6.63576 124.778L5.06793 118.971L3.97663 116.004L4.07809 113.594L4.59477 109.983L4.19603 106.142L3.92126 101.43L2.96484 98.3573L3.09463 97.4793L6.00565 93.7514L6.34311 92.9543L7.77732 92.8196L8.83008 94.4398L10.4921 94.828L11.9661 94.4549L15.7063 92.2778L19.0567 89.452L20.1112 87.7313L20.2117 86.7307L19.4892 82.2739L19.6928 77.4894L20.0992 75.6508L21.7691 72.9126L22.3999 69.2298L23.0688 66.7229L24.3693 64.7348L27.3066 62.7109L29.0826 61.1101L30.6321 60.2701L33.8696 59.3434L37.0423 59.228L38.0637 58.8376L38.9169 56.7141L40.5882 54.4844L42.2178 54.0171L44.7674 52.7346L48.065 51.7479L49.5589 50.5747L50.3328 50.4563L51.7748 51.4417L53.6742 52.0235L54.5899 54.1194L55.9096 54.9571L60.9351 55.9598L63.7054 57.2438L66.0961 57.6638L68.4943 58.6789L69.7315 59.6898L72.8043 60.7149L75.5681 61.8966L78.6929 62.0825L80.2219 61.3133L82.2519 58.3198L82.4543 56.0855L82.3245 53.7951L82.719 51.1816L84.5839 48.2523L88.1778 47.7947L90.274 47.7468L92.0293 48.3125L94.4254 48.6653L103.615 47.5779L104.752 46.5979L105.7 43.713L106.536 40.2934L107.705 38.9637L109.087 38.5167L110.427 38.9246L111.725 38.3116L115.073 38.7471L119.093 37.8998L121.163 38.0654L124.421 39.857L126.796 40.7328L128.137 41.5263L129.861 38.685L129.906 36.6697L128.997 31.7013L128.767 28.1554L129.184 26.7415L130.259 25.2103L131.907 22.3134L133.921 19.9761L134.328 18.8099L135.35 17.5173L136.87 12.3325L137.398 11.6023L139.021 10.7205L142.567 9.81317L144.565 8.64029L147.767 4.96203L149.01 3.75977L149.733 4.51656L150.359 7.99403L149.942 8.50219L150.131 11.9812L148.51 14.4451L148.128 15.9702L146.722 17.5083L146.688 18.2084L145.375 20.2732L144.435 24.1301L144.84 26.9438L146.218 29.4143L146.749 29.7102L146.836 31.3319L147.293 32.6377L148.705 33.7328L149.399 34.8938L150.993 36.2796L151.162 37.2832L152.545 38.0739L153.008 39.6032L153.86 40.4027L155.49 40.5847L155.757 41.8118L154.843 42.4112L153.645 44.9323L153.997 46.1751L153.891 48.0097L155.715 49.8391L155.143 51.8633L154.913 54.8617L155.197 55.8238L156.512 57.2426L159.925 59.5154L160.907 61.823L162.339 64.3108L164.316 65.8695L165.989 64.8992L166.415 66.4591L166.185 68.304L165.087 68.9127L165.34 71.8717L164.392 71.1489L162.717 72.2179L160.933 74.5606L158.929 78.1241L157.807 81.4468L157.325 84.8107L158.063 86.8613L159.931 88.9793L162.379 89.7288L166.929 89.2861L167.569 89.6137L169.448 94.2281L169.95 96.1674L170.718 97.4063L171.66 98.088L171.95 99.525L174.1 100.916L174.494 103.036L176.326 104.598L176.646 105.509L177.834 105.737L177.904 107.085L179.245 106.721L179.434 108.269L180.287 108.703L179.257 109.863L180.113 110.762L179.18 112.078L179.643 113.998L181.149 113.323L182.009 114.913L182.745 117.303L182.565 119.08L184.038 119.068L188.325 121.171L186.987 122.296L186.688 123.956L184.559 123.354L184.059 123.551L184.755 126.289L185.779 126.698L186.224 127.743L187.191 126.708L188.046 127.274L188.019 128.801L188.725 130.395L190.244 128.976L190.642 130.472L191.329 131.207L192.721 130.455L193.58 130.545L193.485 132.455L191.804 132.756L190.027 133.489L189.851 134.384L191.241 137.788L191.678 138.301L194.086 138.06L194.361 139.319L193.133 140.802L194.289 141.202L194.683 142.32L194.821 144.492L195.819 145.989L195.967 147.892L198.189 149.132L200.817 149.492L201.093 150.38L200.071 150.823L200.045 152.591L199.27 154.031L198.013 155.26L198.678 157.523L200.094 159.399L202.249 160.3L203.467 159.351L204.517 159.823L204.413 160.708L205.059 161.882L206.998 162.499L208.255 162.168L208.826 162.586L208.733 164.388L210.004 163.858L210.62 164.551L211.081 166.14L210.308 167.757L208.378 168.481L206.788 169.554L206.329 170.902L206.85 173.489L208.006 173.512L208.506 174.529L209.026 177.282L210.154 178.481L212.137 179.615L214.03 179.789L216.498 179.535L216.869 180.441L216.133 182.629L217.39 183.498L218.409 184.784L218.593 185.631L220.331 187.503L220.973 189.274L221.764 189.804L222.439 191.615L222.461 192.84L223.533 194.549L225.462 196.434L224.733 198.387L224.205 201.116L225.165 201.811L225.883 203.726L225.554 206.1L226.102 208.014L228.073 209.092L230.055 208.91L231.445 210.662L231.939 212.077L233.782 213.488L234.447 214.841L233.108 215.298L232.34 214.832L231.463 215.349L231.304 217.728L231.91 220.141L231.774 221.17L229.964 221.082L228.538 222.729L228.641 225.66L228.092 226.813L228.587 228.121L227.547 233.443L227.315 236.39L226.335 239.287L225.993 242.129L224.842 243.813L225.311 244.776L225.29 247.317L226.168 248.969L225.037 251.241L226.723 258.219L227.274 259.234L229.188 261.599L231.728 262.691L231.755 264.076L234.648 265.938L237.773 266.511L241.145 265.897L242.282 262.24L241.731 261.454L243.802 259.208L244.251 260.847L245.781 261.575L247.068 260.116L248.089 261.597L250.134 262.659L252.263 262.27L252.966 261.305L254.021 261.402L254.176 259.886L256.878 261.461L257.336 262.224L257.483 263.823L258.038 264.998L258.239 266.504L255.038 268.142L256.309 268.978L257.458 268.834L257.425 270.104L256.632 270.421L254.947 272.36L256.726 272.545L258.377 273.291L260.042 273.224L259.15 274.755L259.546 275.769L257.987 276.626L258.786 277.23L259.464 279.013L261.415 277.896L262.923 278.367L261.633 280.501L263.06 280.685L263.115 281.795L264.679 282.21L265.418 281.608L266.324 282.825L267.377 281.995L269.451 281.451L269.42 283.327L268.301 285.038L270.302 288.133L270.071 289.322L268.654 290.172L267.682 291.25L264.23 290.608L263.801 288.666L261.555 288.524L260.112 290.313L261.331 291.567L263.379 295.079L263.738 296.861L262.952 297.983L265.504 298.397L266.759 298.937L267.401 300.13L267.307 301.428L269.061 305.148Z" fill="#1E1E1E" stroke="white" stroke-width="5"/>
</svg>
