<svg width="523" height="374" viewBox="0 0 523 374" fill="none" xmlns="http://www.w3.org/2000/svg">
<path d="M331.795 322.177L331.49 324.181L330.409 324.125L330.389 322.478L331.795 322.177ZM358.083 281.24L360.136 280.935L359.774 282.375L357.208 283.175L356.003 282.178L356.824 280.633L358.083 281.24ZM286.642 272.004L288.709 273.096L291.903 271.828L295.591 273.325L296.189 274.653L297.598 275.502L297.13 276.255L295.414 277.059L293.894 276.844L293.568 277.41L292.218 276.976L289.776 277.343L288.753 277.957L288.017 277.736L286.555 278.284L284.996 279.774L283.433 279.203L282.953 277.785L284.124 276.04L284.245 274.028L285.533 271.964L286.642 272.004ZM258.497 233.788L260.362 234.236L260.989 235.63L263.561 238.161L265.293 238.607L265.936 239.399L268.401 239.684L267.65 241.111L266.144 242.18L264.654 241.771L262.375 241.88L258.838 240.424L256.542 238.471L256.088 236.727L256.029 235.13L256.544 233.909L258.497 233.788ZM234.631 233.852L233.339 233.332L233.48 232.067L234.386 232.356L234.631 233.852ZM235.026 227.054L235.713 228.69L239.162 230.834L239.358 231.843L238.437 233.141L237.321 232.703L236.706 233.354L235.088 232.397L234.827 230.843L233.99 229.878L232.647 229.513L232.1 231.305L230.545 231.978L228.38 228.984L230.345 228.142L231.166 227.061L232.073 227.114L232.558 225.734L233.665 225.314L235.026 227.054ZM360.06 89.4387L361.143 91.1024L362.603 90.5961L365.509 90.8874L368.597 92.4592L370.963 94.3531L371.247 95.2362L372.258 95.208L374.057 96.5393L375.04 97.6976L375.995 97.7888L376.589 99.0755L377.656 99.0343L378.8 98.3624L379.95 98.3675L381.949 97.7252L383.776 97.5238L385.087 97.7882L384.287 98.9302L384.82 100.451L381.704 103.506L383.652 106.083L382.158 107.633L382.147 108.827L381.192 109.94L380.22 110.107L380.403 111.233L379.748 112.059L378.388 112.592L378.515 114.079L377.71 115.262L376.499 118.202L374.684 118.678L375.25 120.624L373.79 120.739L373.374 121.251L373.024 123.684L374.148 126.569L376.177 128.132L377.57 130.004L378.147 133.063L379.873 134.233L378.906 136.973L381.659 137.913L382.324 139.423L382.252 140.416L379.555 141.254L381.225 142.648L381.774 144.044L382.529 144.519L381.757 145.657L377.267 144.97L376.83 146.777L376.076 147.128L376.098 148.769L378.139 148.103L380.747 148.338L381.895 150.432L381.196 150.904L379.548 150.766L377.501 150.967L376.88 153.178L375.987 155.301L375.393 156.008L375.992 158.086L378.088 161.57L380.39 163.061L382.236 162.808L384.865 163.762L387.066 165.317L387.033 166.16L388.923 167.815L391.945 169.422L395.1 171.811L395.853 172.608L397.236 173.189L396.173 174.948L394.725 176.577L393.511 177.234L390.039 177.619L389.449 178.703L389.845 180.59L391.536 183.324L392.049 185.477L391.959 187.029L391.184 189.369L390.419 190.891L389.413 192.007L387.02 191.605L386.254 191.749L383.702 194.165L381.996 197.497L380.864 201.275L380.121 205.801L380.016 207.827L380.324 209.146L380.59 212.637L381.448 213.203L382.148 212.713L383.006 213.544L385.038 217.555L386.557 219.396L388.231 220.34L390.813 220.654L398.062 220.929L399.703 220.687L402.598 219.656L405.433 220.022L407.209 220.562L412.932 223.709L416.643 227.062L419.83 230.594L420.681 232.32L424.36 233.06L427.481 232.569L431.935 231.421L440.057 231.078L443.904 232.254L447.14 235.383L447.378 237.226L449.689 239.48L451.009 242.558L451.129 245.184L450.051 251.087L450.82 253.842L451.914 254.456L457.332 255.361L458.943 255.291L460.782 254.599L463.585 253.11L465.41 252.807L466.228 253.463L466.483 257.661L467.287 259.894L467.944 260.705L469.527 260.64L474.076 258.478L477.35 258.049L480.581 258.83L482.662 259.94L487.646 261.746L490.068 262.338L494.116 261.774L496.538 262.475L498.733 261.96L500.411 261.082L501.627 259.624L502.565 257.756L504.062 255.972L505.503 255.26L507.174 255.121L511.202 256.051L513.251 257.466L516.553 258.364L519.527 258.651L520.088 259.062L519.697 262.19L520.045 265.825L519.743 267.513L517.404 271.698L515.761 274.292L514.07 275.934L509.998 280.797L508.41 282.931L507.022 284.365L505.715 286.419L505.675 288.438L506.106 291.063L502.262 294.251L499.919 295.611L498.903 295.715L496.536 294.301L492.843 292.623L490.051 291.524L487.149 290.971L483.905 290.813L482.043 291.172L481.368 290.782L477.957 290.099L474.463 289.707L471.551 289.878L467.835 289.046L464.658 289.286L462.769 290.253L461.994 290.03L460.592 291.271L459.787 292.575L458.451 293.823L458.314 294.505L456.717 294.835L454.514 296.135L453.447 295.674L452.486 295.864L451.388 293.945L450.159 292.69L449.424 292.812L447.863 294.41L446.167 294.551L444.903 295.719L445.042 296.395L446.679 296.65L447.868 297.531L448.979 297.621L450.297 296.104L450.889 296.579L450.181 299.104L451.156 300.961L450.246 302.363L448.56 301.74L448.056 300.795L446.322 301.641L444.753 301.656L444.251 302.098L439.872 301.052L439.379 300.107L436.868 299.155L437.161 296.056L435.81 294.969L433.643 294.532L432.072 293.745L430.453 294.007L428.86 295.708L427.552 296.669L426.548 297.894L426.639 298.938L425.69 302.136L427.137 304.473L425.469 304.844L424.062 305.851L423.166 305.721L421.56 303.999L419.669 306.097L419.97 307.018L423.127 308.187L425.363 307.288L426.41 308.295L423.953 309.121L422.577 308.981L420.775 309.396L419.449 308.516L416.885 308.747L413.547 308.405L412.826 309.001L410.105 309.71L409.259 310.877L408.739 312.753L408.937 315.3L409.455 317.104L411.068 320.22L413.766 321.233L413.932 319.105L414.74 318.201L416.734 317.032L417.755 317.713L417.694 319.139L418.863 319.869L420.194 319.749L422.322 319.089L422.936 319.34L425.354 318.681L425.174 319.8L423.445 319.787L421.858 321.741L420.301 322.428L418.892 323.951L419.127 325.892L419.802 327.157L420.94 327.848L421.97 327.685L424.121 326.216L427.082 326.558L429.169 326.192L430.607 327.428L431.057 328.648L432.661 330.005L434.706 330.792L433.901 331.488L433.837 332.388L432.651 333.348L429.92 334.594L427.635 334.778L425.176 334.027L424.564 334.516L423.221 334.289L423.098 333.499L421.739 333.072L420.439 333.426L418.835 332.341L417.406 332.966L414.798 333.115L413.353 332.289L411.5 332.049L411.307 333.763L410.249 333.483L408.032 334.12L406.824 333.747L404.861 333.936L403.505 334.941L401.409 335.343L398.647 336.865L398.322 335.792L396.678 335.321L395.327 335.964L393.364 335.92L391.308 337.573L389.6 339.45L388.156 341.661L387.451 343.353L386.846 345.753L386.72 347.451L387.09 348.599L388.71 348.959L389.119 349.671L390.839 350.915L391.418 350.886L392.675 352.205L393.006 354.247L394.489 354.758L394.098 355.889L395.272 356.463L396.144 358.356L396.888 358.465L396.117 360.37L397.302 361.357L396.552 362.315L396.933 363.101L396.526 365.793L396.008 366.194L396.642 367.502L394.757 366.957L392.448 365.128L390.982 365.072L389.676 365.554L389.075 364.774L387.703 365.28L386.636 370.049L385.616 369.435L384.438 370.78L382.603 370.482L381.799 370.718L381.39 368.835L380.491 368.171L378.842 365.962L378.753 364.385L376.984 364.547L375.822 365.013L375.575 366.413L374.566 365.829L375.138 364.365L374.465 363.515L372.895 364.154L372.079 363.552L370.332 363.25L369.201 361.645L369.724 361.299L369.975 358.562L369.181 357.547L366.612 357.085L365.811 355.227L367.933 354.657L368.351 353.06L369.575 353.605L370.268 352.037L370.366 350.562L371.745 351.474L373.988 351.879L375.635 350.248L375.944 349.558L375.397 347.488L374.332 345.94L372.831 344.598L369.925 343.86L369.374 344.252L369.1 346.208L369.736 348.032L368.043 348.282L368.585 349.6L367.026 350.675L365.19 350.567L365.301 351.749L363.945 351.354L363.262 351.649L362.13 350.13L361.328 352.598L360.434 351.295L360.779 349.637L358.474 349.186L357.685 347.764L358.532 346.335L356.051 345.563L355.911 343.75L355.062 343.602L354.437 341.829L353.316 340.941L355.152 340.274L355.652 339.206L356.474 339.102L357.158 339.944L359.32 340.939L359.387 341.708L362.245 343.737L365.002 344.239L365.836 345.19L366.673 345.183L367.268 344.11L365.463 342.155L364.067 340.13L362.781 339.386L360.912 338.883L360.558 338.264L360.65 336.56L360.301 334.942L358.629 333.527L357.261 333.201L356.709 332.192L354.987 331.035L353.678 329.631L351.648 328.916L348.841 329.167L348.228 328.491L345.195 328.024L342.482 328.797L341.858 328.157L340.531 329.116L338.992 329.205L336.923 328.703L334.906 329.425L334.772 328.168L333.046 328.21L331.886 327.18L332.144 326.245L333.18 325.669L332.631 323.811L333.269 323.046L334.687 323.296L335.69 322.509L335.84 319.577L335.006 319.342L335.722 318.049L335.355 316.553L334.66 316.641L333.263 315.725L335.579 315.054L335.35 313.248L335.591 312.289L334.114 309.365L334.566 308.882L333.168 307.691L332.796 306.314L331.883 304.841L330.502 303.799L331.659 302.409L333.386 302.44L334.507 302.955L336.389 303.169L337.223 304.281L341.375 306.082L343.145 304.96L343.391 303.542L344.463 304.355L345.416 303.172L346.653 303.956L347.469 303.6L348.639 304.235L351.212 300.559L351.028 299.118L351.993 298.681L352.457 299.415L353.604 298.725L354.236 296.383L354.25 293.371L354.8 292.342L354.661 290.982L353.264 290.605L352.963 287.961L354.081 286.37L353.147 285L353.637 283.834L358.254 286.577L359.045 287.299L361.169 287.09L361.227 289.23L361.857 290.452L363.371 291.655L365.606 292.007L367.868 290.582L368.875 287.568L366.539 286.504L364.115 284.98L363.413 284.183L362.981 282.537L364.421 281.331L364.75 279.564L363.861 279.018L364.261 276.458L364.055 273.728L363.695 273.142L360.818 272.469L360.15 272.706L359.106 271.977L360.578 270.283L359.996 267.672L359.354 266.29L357.293 265.197L355.554 265.636L353.864 265.133L352.239 264.223L351.262 264.282L349.626 263.515L347.335 264.242L344.191 262.789L343.269 262.87L342.034 264.037L338.578 264.635L337.45 263.959L335.351 263.762L335.004 264.559L333.889 264.454L331.317 265.267L331.131 266.11L329.198 266.269L327.049 265.67L326.269 265.087L325.289 263.126L323.06 261.674L322.111 262.003L320.647 261.546L320.865 260.1L322.051 259.088L322.979 259.206L326.222 257.106L325.777 254.787L324.589 251.91L323.781 251.039L322.372 250.686L322.877 248.98L321.991 247.446L320.42 246.708L318.61 247.476L318.485 248.389L317.203 248.402L316.089 249.122L314.718 248.912L313.802 249.403L313.937 250.578L312.258 250.559L311.978 251.632L307.618 253.003L306.731 254.262L307.567 254.977L305.388 256.279L303.041 256.635L303.69 257.879L303.578 259.325L301.409 259.979L301.107 258.642L301.715 256.11L301.154 255.05L301.753 253.413L300.408 249.933L299.832 249.293L297.382 247.953L295.803 245.585L295.355 243.073L294.016 237.716L293.443 233.674L291.319 228.282L290.235 226.839L290.156 225.984L288.35 224.057L286.637 223.534L284.846 223.371L283.518 223.727L282.292 223.131L278.597 223.313L275.753 222.241L272.23 222.319L268.659 221.87L267.37 220.65L269.634 218.302L267.567 214.786L266.385 214.438L265.782 212.727L262.537 212.102L260.864 211.425L259.346 211.981L258.796 212.685L256.521 211.623L255.451 210.616L253.746 210.914L252.991 210.149L250.777 210.641L251.314 212.098L253.606 213.304L256.122 213.409L257.307 213.099L258.268 213.445L259.574 213.198L260.469 213.568L260.902 214.767L262.174 216.434L263.964 216.934L263.718 217.891L264.798 218.868L264.823 219.677L263.281 219.529L261.378 217.979L259.344 217.628L258.463 216.386L256.571 216.655L253.77 215.488L252.564 215.456L250.053 213.779L243.542 215.845L239.184 217.609L238.512 218.706L237.626 216.973L235.729 217.3L233.817 218.562L232.788 220.432L231.468 222.006L230.742 224.652L229.949 225.338L229.609 226.454L227.8 226.805L227.111 225.943L225.972 225.636L224.848 224.176L225.196 222.068L222.748 221.563L222.137 222.506L220.259 221.722L219.74 219.33L218.148 218.828L217.457 216.333L216.219 215.934L215.276 217.055L214.503 216.634L212.157 217.11L211.751 215.895L210.499 214.195L210.43 212.922L211.384 211.658L212.567 212.102L213.409 211.467L213.481 209.421L212.443 205.898L210.604 204.421L210.065 205.543L208.986 205.971L207.429 204.517L206.823 203.506L206.379 201.424L205.422 201.256L204.09 198.336L202.182 195.27L201.586 194.679L198.723 195.326L198.259 194.952L199.039 192.735L200.236 191.936L201.923 191.957L203.037 191.173L202.911 188.221L201.682 185.891L200.236 183.772L198.247 182.29L197.392 180.489L195.33 179.217L191.901 178.047L191.747 177.422L189.87 177.688L186.045 177.703L183.437 178.278L177.633 180.56L173.603 182.841L170.952 184.748L168.157 186.496L165.929 188.741L162.053 194.317L161.855 196.879L162.511 199.712L163.305 200.046L163.713 201.394L163.535 202.813L164.234 205.433L164.538 207.792L165.073 209.185L166.483 211.398L167.164 213.082L168.701 214.536L168.99 217.171L168.785 218.764L170.174 219.529L171.008 220.761L169.766 221.963L166.564 225.641L164.565 226.814L161.019 227.721L159.396 228.603L158.868 229.333L157.348 234.518L156.326 235.811L155.919 236.977L153.905 239.314L152.257 242.211L151.182 243.742L150.765 245.156L150.995 248.702L151.904 253.67L151.86 255.686L150.135 258.527L148.794 257.734L146.419 256.858L143.161 255.066L141.091 254.901L137.072 255.748L133.723 255.312L132.425 255.925L131.085 255.517L129.703 255.964L128.534 257.294L127.698 260.714L126.75 263.599L125.613 264.579L116.424 265.666L114.028 265.313L112.272 264.748L110.176 264.795L106.582 265.253L103.311 264.785L101.153 262.826L101.187 259.933L98.9808 255.689L97.6348 252.245L97.3458 248.882L96.8798 245.521L96.4432 244.191L95.2216 243.05L93.2198 241.928L90.5821 241.022L87.9362 240.868L84.7132 241.737L81.7761 242.085L79.8807 242.749L77.9775 242.861L72.5991 239.02L71.1916 237.277L68.6944 236.98L67.4225 235.941L66.3217 231.669L65.7839 228.128L63.7599 224.635L63.4043 222.921L64.5619 218.656L66.5438 214.519L67.776 211.564L69.0946 206.981L70.5293 203.857L71.6405 199.805L73.4233 197.478L74.4704 194.358L73.4041 191.989L71.3645 189.431L67.8482 184.469L65.5861 182.637L62.972 180.947L59.9603 179.498L58.4366 177.587L56.5748 173.48L56.922 171.455L60.2012 167.81L62.972 164.077L63.3715 161.927L63.2296 160.331L62.491 160.002L60.6343 160.585L56.2387 161.001L55.5943 161.471L53.8723 161.758L51.9883 161.148L51.2134 159.474L50.183 156.317L48.5798 152.264L46.8357 149.947L46.2987 148.311L46.1559 146.096L46.3334 141.986L46.118 140.326L44.5098 133.547L43.419 130.752L43.5934 123.75L43.5398 120.979L38.7771 116.909L34.8373 112.626L33.2187 111.366L28.9151 109.964L26.1729 108.908L24.7544 109.206L21.03 111.918L20.394 112.793L18.9216 116.233L18.3862 117.053L16.5771 118.688L13.8164 120.627L12.3336 120.178L10.5556 117.071L9.44606 114.236L9.01725 112.154L8.87841 109.922L9.07274 107.687L6.9505 101.128L6.90209 98.7194L6.57253 96.6677L6.65262 93.6284L7.12926 91.4661L6.85995 88.3775L7.28679 86.7543L8.4583 85.1166L10.4482 83.2541L11.5584 81.6333L11.3111 79.7088L10.1072 77.3246L9.46452 75.4917L9.59233 73.2286L9.26427 71.1479L9.85618 66.7946L11.0032 63.4189L13.0384 63.7451L14.0896 63.3044L14.0958 61.606L12.3421 59.1827L8.61026 56.2208L8.09914 55.264L7.35064 49.771L6.57485 47.561L5.17302 45.3194L3.39242 44.388L3.20703 43.5186L3.68878 41.8672L6.46991 42.5061L9.49447 44.2498L12.5519 44.3762L15.6954 43.6714L16.894 41.8674L18.462 40.8068L20.0899 41.4738L21.0998 41.3418L23.7149 36.0149L25.4139 34.0952L26.5225 33.5522L29.1387 33.543L31.0217 32.6233L32.9012 29.3887L33.787 27.3903L35.9758 24.3078L36.8389 23.4231L37.2252 20.9725L37.9889 19.52L38.9735 18.7049L40.8798 17.7467L44.8866 16.3609L46.0334 15.4173L49.8073 11.0068L50.9014 9.32709L51.2269 7.96084L53.1073 5.88474L53.9025 5.68108L55.9006 4.26562L57.9647 7.82729L59.7767 10.1496L60.5949 13.2699L61.9668 15.4709L63.7375 17.2046L65.4613 18.2137L66.5292 19.4096L64.5326 20.0262L66.9861 23.0153L67.5088 23.3L69.8772 21.7274L73.5228 20.2916L78.8628 16.9013L82.6075 14.0853L84.5473 13.6851L85.2763 15.3561L86.4596 20.0307L87.3465 22.4148L87.1276 23.2726L81.641 26.2551L79.3597 28.3407L76.669 31.3533L75.0413 36.0087L72.6192 39.4507L71.2132 42.3884L71.2956 46.0545L71.5675 48.2695L72.5449 52.3504L72.929 55.4722L73.7982 56.9362L77.7152 55.4363L81.3824 54.42L82.8636 51.4013L84.818 49.9106L87.5513 48.9798L90.2507 48.6951L91.6486 48.9922L95.9444 50.6044L97.396 50.9494L100.32 50.888L101.891 51.1569L102.481 51.72L103.22 54.0181L104.804 55.3158L107.107 55.4131L108.982 53.989L110.938 51.3746L112.14 52.1976L112.888 53.9047L113.159 57.3263L113.795 57.9834L117.37 57.2548L122.722 57.523L125.479 57.1681L127.984 58.1193L130.189 59.845L131.656 61.5989L132.41 62.9728L132.073 64.4589L134.66 65.126L137.038 66.8022L140.542 66.7778L144.209 65.8083L147.267 62.816L148.044 60.3721L148.695 60.1695L152.267 60.7173L153.868 61.3569L155.51 60.8854L156.225 59.3869L157.882 58.0539L160.627 57.4438L162.912 56.2221L163.967 56.3346L165.118 59.2546L165.408 61.1552L165.857 61.7427L167.958 61.7489L169.931 60.8654L170.864 59.928L173.071 58.4462L174.817 58.7596L174.61 60.2965L175.009 67.463L175.245 68.5629L176.497 70.8151L176.711 72.8112L178.208 75.1316L182.449 78.8824L188.582 82.1158L192.783 83.2865L194.22 84.9058L195.744 85.9012L196.557 85.8976L198.583 84.8801L201.669 85.1596L205.723 83.596L208.318 83.9455L209.507 85.7428L210.27 86.0605L212.01 85.3382L214.918 85.1886L217.966 85.6686L222.897 85.2416L224.583 84.841L228.13 83.5567L233.985 83.2995L237.075 82.6869L240.073 80.6606L244.688 76.7197L244.668 75.5622L248.979 73.8795L250.883 74.0523L253.449 75.8099L254.987 76.2964L256.726 75.7217L257.736 74.5962L259.889 73.3497L261.316 74.5719L266.308 77.7867L272.095 79.1613L275.909 81.229L278.922 80.4544L279.488 81.9247L275.629 86.0505L274.072 87.3721L274.6 89.3121L276.158 92.01L276.882 95.1913L276.53 96.4406L276.562 98.8042L278.385 101.588L284.144 101.104L285.729 100.463L286.683 98.5837L288.297 97.744L289.954 97.356L293.437 97.1937L294.046 98.1258L294.475 100.879L298.566 101.373L299.341 102.39L299.265 103.286L300.03 104.303L301.206 104.225L308.18 99.9462L310.787 99.2009L312.228 99.8293L314.266 102.214L318.47 105.219L320.846 105.961L322.488 104.908L325.084 101.016L326.899 98.6591L327.934 94.0233L329.138 92.7157L330.567 91.8465L331.226 89.9907L333.622 87.7694L334.856 87.5865L339.583 90.8196L342.745 93.5366L343.776 93.8425L347.371 94.3216L350.707 93.1923L354.598 91.0461L357.639 90.3066L360.06 89.4387Z" fill="#1E1E1E" stroke="white" stroke-width="5"/>
</svg>
