<svg width="246" height="475" viewBox="0 0 246 475" fill="none" xmlns="http://www.w3.org/2000/svg">
<path d="M181.727 452.537L181.603 454.458L181.128 456.429L182.16 458.145L183.093 458.64L184.813 461.162L186.424 462.631L187.051 463.898L186.569 465.106L188.053 465.441L186.983 466.531L187.45 467.695L186.509 470.354L185.204 469.271L182.747 468.246L182.444 465.819L181.313 462.414L181.407 460.245L181.115 459.033L179.311 455.76L178.979 454.387L180.042 453.133L181.727 452.537ZM39.1829 262.926L40.9365 263.609L43.488 267.718L45.7036 269.87L46.7546 270.289L47.205 272.204L46.7282 273.917L44.9221 273.405L42.9176 273.9L41.9184 273.172L41.6758 272.154L39.3302 270.193L38.343 269.082L36.7472 268.206L36.1552 267.468L36.6085 266.161L36.112 264.613L37.518 263.283L39.0375 263.713L39.1829 262.926ZM178.446 248.591L180.2 249.073L179.048 251.632L178.314 251.304L176.163 251.334L175.468 250.652L175.958 248.781L177.922 248.378L178.446 248.591ZM95.5372 234.523L96.0907 235.508L98.872 235.95L99.0285 237.085L96.1776 237.78L96.7719 239.891L98.7484 240.918L96.4468 243.166L94.8256 243.514L93.7792 244.428L92.4114 244.483L92.36 243.559L94.0814 240.854L94.8531 240.48L95.5516 239.308L95.2179 237.856L93.6986 236.719L93.3272 235.756L94.6049 234.577L95.5372 234.523ZM15.7725 230.844L17.7405 231.794L19.0741 232.063L21.4552 233.034L25.1801 233.651L26.4264 234.975L28.1018 235.793L29.5836 235.338L31.1051 236.681L31.3371 237.61L32.6273 238.986L33.5747 238.876L35.1452 239.598L36.2922 241.428L37.6915 241.432L37.9069 242.385L39.1749 244.288L41.7745 243.564L41.6651 245.091L42.1117 246.083L42.1513 247.85L41.6117 248.516L40.4772 248.465L40.0094 249.326L38.5779 250.103L38.562 250.906L39.6649 253.294L38.8471 255.052L38.563 257.726L37.6976 257.663L36.9143 259.054L36.1463 259.322L35.4919 260.395L31.2565 259.943L30.8596 259.42L29.3604 259.329L28.0845 260.475L26.166 261.277L24.5231 260.673L24.5769 259.124L23.4726 258.403L21.9236 260.212L21.2896 259.681L21.0634 257.757L19.9612 255.794L18.8468 255.171L19.5358 253.78L17.8185 252.96L16.7478 253.259L15.2313 252.647L15.7673 251.628L15.4905 250.166L15.6922 248.363L15.1906 247.973L13.0533 247.678L12.548 244.069L10.2517 244.744L10.6576 243.056L10.5168 240.52L8.09317 240.759L8.51607 239.714L7.83779 239.158L8.02352 237.896L6.084 237.663L5.48292 237.148L5.67364 235.506L4.26172 234.304L6.31965 232.321L7.40561 232.784L7.98835 231.738L9.67203 234.427L11.3145 234.988L13.8203 234.157L13.5152 232.419L14.5822 230.714L15.7725 230.844ZM140.48 228.151L141.91 228.736L139.776 230.964L138.866 231.333L137.211 231.334L136.641 230.044L138.334 229.015L138.295 228.293L140.48 228.151ZM143.345 209.918L142.915 210.928L140.637 212.651L140.013 212.588L138.259 213.744L137.254 212.753L138.605 212.212L139.862 210.341L141.402 209.828L143.345 209.918ZM130.143 187.292L129.305 188.389L131.687 190.123L131.969 190.788L133.913 191.061L135.384 192.843L135.756 194.364L133.529 198.663L132.575 199.703L131.179 200.152L127.885 202.022L124.867 203.547L123.835 203.829L120.586 205.745L116.242 206.176L114.679 206.185L112.426 205.541L110.787 205.837L110.49 206.463L107.294 206.554L105.654 206.219L103.722 203.475L102.454 201.161L99.7043 200.909L97.7913 199.495L96.8605 197.703L96.7293 195.305L97.4555 193.948L100.397 193.059L102.452 193.422L104.083 194.457L105.407 194.144L107.18 194.205L108.968 193.644L109.962 193.865L111.335 192.279L112.097 192.497L113.421 191.524L113.656 189.872L116.02 190.012L117.704 189.508L118.495 190.534L119.799 191.1L120.562 192.395L120.174 195.07L120.784 197.368L121.402 196.834L122.601 197.239L123.544 196.761L124.481 195.177L125.193 194.78L125.539 193.632L127.062 192.574L127.232 191.34L125.75 189.92L125.611 188.681L127.791 188.259L130.143 187.292ZM232.975 174.41L234.288 177.757L236.085 178.106L236.129 179.045L237.61 178.328L241.681 176.983L242.511 177.548L241.879 179.417L239.513 179.338L239.583 180.523L238.814 181.405L239.258 182.336L238.13 183.594L235.515 184.824L234.903 183.583L234.081 183.447L233.006 184.08L230.52 184.207L229.31 184.63L227.879 186.172L226.567 186.215L225.66 185.533L223.612 186.511L222.262 186.491L221.836 187.949L221.12 188.436L219.225 188.733L217.898 190.322L215.322 190.781L214.916 191.661L213.416 192.951L212.859 192.42L210.341 192.342L210.159 191.563L208.145 191.574L207.434 192.245L206.211 192.054L204.991 193.381L203.62 194.169L203.237 195.89L204.861 196.873L206.231 197.093L205.624 198.674L204.802 199.443L205.646 200.485L205.372 201.331L203.252 201.908L202.459 203.502L203.319 205.332L202.857 206.645L204.822 206.463L205.071 207.838L204.086 208.498L202.107 208.327L201.036 207.673L200.318 208.47L198.761 208.51L198.237 207.948L196.774 208.178L195.885 209.199L193.55 207.695L192.468 208.127L189.189 208.23L188.372 208.54L185.54 208.437L184.574 208.167L183.398 209.126L181.676 208.719L180.462 209.229L177.735 208.886L176.973 209.11L175.361 210.919L172.563 212.394L171.509 214.081L171.548 214.821L170.737 217.127L169.866 217.392L167.056 216.751L165.284 217.068L162.255 218.291L160.71 219.401L160.13 219.005L159.21 220.921L157.19 221.331L155.629 223.133L154.835 223.582L152.379 224.078L152.268 222.161L151.5 221.13L151.891 219.672L151.499 218.794L149.728 219.967L149.155 221.08L147.847 221.121L146.951 219.544L145.804 220.166L144.121 220.368L144.458 221.504L142.931 222.585L142.052 221.26L139.741 222.233L138.377 221.822L139.43 220.873L139.27 220.197L137.631 220.509L136.19 220.188L136.542 219.178L138.573 218.58L140.144 217.304L142.688 217.049L143.619 213.813L144.826 211.751L145.095 210.455L147.545 209.814L147.882 209.138L149.747 208.367L151.452 207.069L153.207 206.425L154.67 206.245L155.983 204.615L158.312 204.309L159.543 203.212L160.222 204.037L161.227 203.813L162.292 202.458L163.942 201.855L165.096 200.587L166.845 199.438L168.408 199.683L168.684 198.754L173.354 195.9L174.773 193.972L176.937 191.516L179.218 190.414L180.758 190.259L182.089 189.432L183.299 187.945L184.265 187.514L184.701 186.586L186.381 186.247L187.292 185.529L191.302 184.863L192.82 184.239L193.604 185.667L195.101 185.833L195.875 185.013L194.582 183.642L196.129 183.193L197.322 182.391L199.057 182.369L200.134 181.014L202.145 179.689L205.263 179.498L205.518 178.215L207.228 177.636L208.718 178.121L209.068 177.551L211.234 177.895L212.473 177.222L212.554 176.46L211.463 175.264L213.013 175.032L215.297 175.83L214.844 177.282L216.32 177.24L217.085 178.791L218.454 177.454L218.649 178.773L219.995 178.642L220.712 180.754L222.099 180.07L222.486 177.834L224.368 175.247L227.263 174.905L229.181 176.279L229.457 175.263L230.372 175.527L230.989 176.813L232.975 174.41ZM218.434 132.856L219.494 133.016L219.796 133.86L218.284 135.042L216.359 135.326L214.55 134.709L215.795 133.183L216.696 133.217L216.984 131.901L217.881 131.712L218.434 132.856ZM225.182 130.922L223.004 131.264L223.176 132.788L222.585 133.311L221.297 132.874L220.145 131.617L220.473 130.172L222.396 130.973L223.258 129.313L225.66 128.332L225.114 129.446L225.182 130.922ZM219.654 84.9138L219.644 85.8314L217.889 86.8634L216.686 86.5894L218.424 84.9274L219.654 84.9138ZM195.381 55.4302L194.998 56.7533L194.254 57.4843L194.222 58.6954L193.469 59.1175L193.018 61.1596L191.269 62.9427L191.928 63.9248L194.683 61.2271L196.368 62.8318L195.327 63.8754L195.315 66.3883L195.906 68.6548L194.796 70.0708L194.81 72.777L195.704 72.7546L196.235 71.2216L196.926 70.764L198.516 68.653L198.939 70.1447L200 70.6238L201.295 70.2359L201.324 71.4478L202.799 71.006L202.74 73.1343L204.201 74.237L204.861 76.2742L204.545 78.152L205.854 77.1445L206.473 78.2129L207.527 75.8932L208.725 75.144L209.894 75.4368L210.323 77.285L211.159 78.2592L213.776 77.4425L214.939 77.9631L213.926 81.3873L212.758 82.4384L211.141 83.3127L211.199 84.3529L208.685 87.6036L205.212 88.9875L203.479 89.116L201.843 91.3818L200.387 90.9878L199.819 91.8094L198.244 91.9257L194.764 89.4912L193.031 89.3637L191.395 90.1629L190.388 89.9312L189.642 88.7235L188.317 87.5364L187.389 87.2941L183.32 88.2971L182.537 90.2237L183.844 91.6025L184.102 93.3227L185.148 94.4786L185.262 96.583L184.146 96.2347L183.365 94.8326L181.764 93.8463L180.032 93.898L179.1 92.5056L180.713 91.3866L181.032 90.6507L180.197 88.9685L181.192 87.9891L178.784 87.8465L178.129 88.2138L177.164 87.4613L176.202 87.9306L176.249 85.6164L174.879 83.8272L173.724 84.3254L172.785 83.3178L172.033 83.6146L171.128 82.3151L171.693 81.0823L171.026 80.2922L169.853 80.3525L169.636 81.0735L167.848 80.5726L165.548 81.6232L165.205 81.0502L166.488 79.3934L168.219 78.3004L166.181 75.9949L166.755 74.8808L167.859 74.7379L169.725 75.3214L171.343 77.146L172.55 76.6748L174.197 77.0037L174.686 76.3365L177.104 76.9359L179.148 74.8396L180.661 74.1307L181.5 73.171L183.111 73.1186L184.712 72.409L187.163 71.9066L188.063 71.0557L188.481 69.9327L190.971 71.1804L191.285 70.3128L190.425 69.6696L190.089 68.269L190.551 67.2272L189.556 64.5168L189.069 62.3688L189.968 60.7892L189.492 59.3695L190.346 57.2593L190.571 55.8499L191.325 56.0658L193.558 55.3648L194.31 54.5147L195.381 55.4302ZM166.107 149.064L165.676 146.439L165.716 144.419L167.023 142.366L168.411 140.932L169.999 138.798L174.071 133.934L175.762 132.292L177.405 129.699L179.744 125.513L180.046 123.826L179.698 120.191L180.089 117.063L179.528 116.652L176.554 116.365L173.252 115.466L171.203 114.052L167.175 113.122L165.504 113.261L164.062 113.973L162.565 115.757L161.628 117.625L160.412 119.083L158.734 119.961L156.539 120.476L154.117 119.775L150.069 120.339L147.647 119.747L142.663 117.941L140.582 116.831L137.351 116.05L134.077 116.479L129.528 118.641L127.945 118.706L127.288 117.895L126.484 115.662L126.229 111.464L125.411 110.808L123.586 111.111L120.783 112.6L118.943 113.292L117.333 113.362L111.915 112.457L110.821 111.843L110.052 109.088L111.13 103.185L111.01 100.559L109.69 97.4803L107.379 95.2269L107.141 93.3841L103.905 90.2549L100.058 89.0784L91.9364 89.4221L87.4816 90.5702L84.3607 91.0608L80.6817 90.3212L79.831 88.5951L76.6436 85.0625L72.9327 81.7095L67.21 78.5627L65.4344 78.0227L62.5993 77.6566L59.7043 78.6878L58.0631 78.9297L50.8138 78.6551L48.2322 78.3407L46.5581 77.3971L45.0387 75.5561L43.0073 71.5447L42.1492 70.7141L41.4486 71.2041L40.591 70.6381L40.3246 67.1473L40.0174 65.8278L40.1217 63.8018L40.8646 59.2756L41.9974 55.4974L43.703 52.1659L46.2546 49.7499L47.0208 49.6054L49.4143 50.0076L50.4204 48.8922L51.1849 47.3699L51.9595 45.0302L52.0499 43.4781L51.5372 41.3246L49.8459 38.5909L49.4499 36.704L50.0404 35.6195L53.5122 35.2352L54.7257 34.5774L56.1735 32.9488L57.237 31.1893L59.8956 32.4294L61.9851 33.8652L65.6157 35.624L66.3747 36.33L71.1194 38.071L75.2701 40.1869L75.6754 39.5552L78.2266 38.5806L78.8734 40.4585L80.9405 42.9857L82.0857 43.7519L83.6923 44.264L86.2514 45.9559L87.4971 46.2049L88.3178 47.3057L90.0784 52.3918L89.9773 54.9687L90.8706 56.6803L92.749 57.3347L94.1673 58.9349L95.6356 60.0309L97.678 60.2377L98.7197 61.9297L102.478 61.9533L106.853 62.7395L107.657 64.1228L109.003 65.5564L109.335 67.3441L111.116 69.9724L114.638 72.3512L115.672 72.4009L118.594 71.5705L120.724 72.1701L121.976 71.8988L127.44 69.3574L129.256 67.9604L130.474 68.0361L132.731 64.9302L133.939 64.7515L135.409 61.8976L137.165 60.4827L138.059 60.5609L138.745 58.9519L136.118 56.7478L135.825 55.7824L136.187 54.3488L135.201 52.9848L134.708 54.7025L133.952 54.1498L134.67 51.6832L133.67 51.2495L133.466 48.3774L135.007 47.9874L134.38 46.4747L134.318 44.1126L133.337 44.0892L131.93 43.0018L130.377 42.6265L129.936 41.3846L128.253 41.7789L129.394 39.365L128.498 37.3608L126.94 35.7176L124.647 34.3318L122.801 31.1284L122.391 29.4971L121.212 28.3066L119.948 28.0383L118.478 24.7134L117.512 24.3628L116.068 22.9639L115.147 22.9867L113.642 21.7241L111.057 22.3849L109.955 21.0567L108.171 22.2238L108.394 20.9916L109.213 19.7357L108.961 18.2409L109.883 16.6668L111.097 17.373L113.016 16.8248L114.31 15.8518L114.561 15.0384L115.724 14.2111L116.592 14.1617L116.168 11.2884L116.652 9.61611L118.105 8.8254L120.325 8.77029L121.513 9.77904L123.213 9.16973L124.848 7.89418L126.639 5.90757L128.358 5.59898L133.088 5.67257L134.727 5.16713L136.606 5.46876L138.736 5.01299L141.243 4.17413L142.24 3.36858L145.12 3.94276L146.926 3.34375L148.772 4.17564L151.216 5.76342L152.136 5.23194L153.761 5.67317L154.694 6.78186L155.59 7.02504L155.982 8.86568L157.204 12.537L158.682 13.8982L159.302 15.9851L161.379 18.2112L161.057 19.1964L161.625 21.292L159.999 23.2201L160.495 24.7053L159.669 27.1794L158.015 28.3523L157.817 29.5843L156.718 31.4016L157.752 34.2156L157.071 35.2219L155.686 35.072L154.852 37.5004L153.326 37.2872L152.495 38.057L151.336 40.2871L149.407 42.7489L149.385 43.9611L149.958 45.0162L148.399 45.3345L149.606 47.2896L149.279 49.1324L147.388 49.6245L148.01 52.3122L148.024 53.8348L146.257 54.7097L144.143 56.5631L142.89 56.5961L141.456 57.4416L140.839 56.4871L139.442 55.5095L137.301 54.6071L137.417 55.6482L139.793 58.0615L140.859 59.7072L142.972 60.262L146.403 61.6868L146.55 63.8839L148.78 65.3687L152.438 67.0098L154.104 67.3838L156.148 68.5509L155.391 70.0772L156.726 71.1274L157.872 70.7577L159.957 71.0663L160.827 72.1011L163.108 73.1667L162.357 74.3278L163.386 75.7808L161.772 77.9037L161.068 79.6126L159.953 78.4964L159.131 79.0027L158.691 81.1565L157.728 81.2716L157.041 79.8606L156.325 80.4851L155.29 79.7707L154.662 80.6492L151.508 80.1362L149.669 80.0829L148.99 81.3267L149.354 82.9472L150.426 83.972L149.757 85.6636L150.279 87.1742L151.112 87.6166L153.843 87.6096L155.4 87.0458L156.333 86.0376L158.308 87.6405L159.988 87.5866L162.593 89.0854L165.309 89.9839L169.932 90.3325L171.761 90.2967L174.943 92.0202L175.622 93.5165L177.767 94.4114L179.125 95.259L179.651 95.0597L182.81 96.7923L183.668 98.3485L186.467 100.057L187.8 100.21L189.669 102.036L190.68 102.463L191.954 102.015L192.343 103.129L191.535 106.257L192.352 108.259L193.518 108.724L195.019 108.117L196.979 109.128L198.054 110.238L201.047 110.12L202.235 110.411L203.529 112.025L202.936 112.807L203.321 113.668L206.263 115.438L207.425 117.791L209.274 118.232L211.09 120.573L212.238 120.798L212.889 122.114L212.817 124.071L211.437 125.14L211.06 127.479L210.439 129.519L211.283 132.518L213.211 131.787L214.821 132.547L214.723 133.336L212.613 134.353L211.385 135.755L211.395 136.831L209.978 136.829L207.569 138.183L206.598 137.976L205.694 139.442L203.956 140.708L201.225 141.401L198.704 140.639L197.173 141.844L194.818 141.671L192.562 142.119L191.031 143.273L188.952 143.433L184.519 145.436L184.165 146.314L178.019 147.669L177.566 147.957L174.006 148.25L170.408 147.507L167.617 147.686L166.107 149.064Z" fill="#1E1E1E" stroke="white" stroke-width="5"/>
</svg>
