<svg width="424" height="578" viewBox="0 0 424 578" fill="none" xmlns="http://www.w3.org/2000/svg">
<path d="M291.379 528.469L292.979 528.403L294.064 529.379L295.404 528.98L296.629 529.786L298.23 529.966L299.551 530.981L303.26 531.053L303.809 530.74L305.819 531.875L307.906 530.883L309.809 531.607L312.122 532.935L312.301 533.923L311.83 535.274L312.745 536.133L314.71 536.335L315.154 534.951L316.951 535.5L317.707 536.185L318.568 535.692L319.63 538.925L319.492 540.324L318.316 541.101L319.111 543.234L318.127 543.754L317.063 543.369L316.329 543.807L315.141 546.141L314.558 547.977L313.786 553.337L313.926 554.924L314.583 555.533L314.632 557.409L315.389 558.37L315.773 559.658L317.221 561.784L318.307 561.754L319.834 562.703L320.095 564.262L320.73 565.291L322.716 567.092L324.249 569.67L323.395 570.698L322.188 570.563L321.527 571.384L319.586 571.471L318.956 573.112L317.243 571.562L316.409 571.59L315.882 570.604L315.024 570.288L313.612 568.976L311.659 567.931L309.597 567.195L307.849 565.95L306.329 565.33L302.225 562.529L300.663 561.911L298.94 560.171L295.05 558.709L293.449 556.944L291.73 555.613L290.216 553.879L285.208 550.766L283.183 548.33L281.295 545.332L281.01 541.797L280.019 540.698L278.572 539.992L277.937 538.321L278.196 537.097L279.236 538.251L280.872 538.545L283.159 537.862L285.215 536.968L288.125 538.33L290.277 536.067L288.942 533.37L290.055 533.316L291.467 532.136L290.946 530.714L291.149 530.042L290.251 529.223L291.379 528.469ZM254.188 485.733L256.738 486.517L258.227 488.177L259.202 488.55L260.505 489.886L264.4 492.346L265.465 495.33L265.745 497.757L264.498 497.85L263.32 498.749L262.544 498.598L261.931 497.416L262.48 496.218L261.875 495.367L260.782 495L259.802 493.725L258.915 493.64L258.604 492.771L256.821 491.798L256.599 490.174L254.984 488.859L254.071 487.7L254.188 485.733ZM33.706 275.302L34.7965 276.558L29.9727 277.554L27.4045 278.545L26.7909 277.877L26.8784 276.294L29.195 276.769L31.4149 275.398L33.24 274.944L33.706 275.302ZM334.394 137.615L333.782 138.747L332.621 137.519L333.067 136.504L334.313 135.645L334.394 137.615ZM347.691 129.648L348.019 131.088L346.654 131.404L345.898 130.783L346.567 129.887L347.691 129.648ZM226.621 104.228L229.818 104.574L230.168 105.179L228.05 106.306L226.821 107.993L225.856 108.647L224.606 110.294L223.065 110.368L222.852 109.478L223.766 106.384L223.744 104.826L224.806 103.613L225.938 103.556L226.621 104.228ZM6.50131 74.7863L5.14871 76.5003L3.15625 77.1072L3.15718 75.0515L3.86924 74.8356L4.29549 73.0979L6.15701 74.0495L6.50131 74.7863ZM55.1396 56.4655L55.2996 57.7347L56.0028 58.1581L57.6368 60.6801L57.5414 61.6528L56.1496 61.3312L54.1039 61.4993L53.3294 63.1407L52.1932 61.6913L51.8631 59.9548L53.1509 57.0415L55.1396 56.4655ZM55.6799 38.6672L57.2493 37.3517L60.444 41.0109L61.0866 41.2298L60.9508 44.1295L58.9012 43.8251L57.6614 42.2258L57.3896 41.1362L56.0409 40.1502L54.8959 39.7759L52.9041 37.051L54.1562 36.5728L55.6799 38.6672ZM413.669 223.301L414.461 226.247L414.079 227.374L414.775 231.518L414.745 233.231L415.975 236.147L416.262 238.952L417.307 242.928L418.516 244.258L418.872 245.692L419.841 247.145L420.45 248.829L420.573 250.172L420.35 252.966L420.541 255.149L420.077 257.32L420.873 261.492L420.324 263.453L419.155 265.569L417.223 267.441L413.518 268.593L411.999 268.88L411.193 269.742L410.397 271.934L409.174 272.671L406.09 273.263L404.008 274.865L402.189 275.383L399.706 276.613L397.256 278.997L395.29 280.506L393.496 282.718L391.842 285.553L391.53 287.091L391.551 289.653L394.166 292.444L396.916 293.88L399.396 295.491L402.324 295.582L405.433 295.413L408.106 295.781L408.151 296.775L407.187 298.325L406.828 299.886L404.307 306.431L403.037 310.754L401.808 319.946L400.754 322.637L398.479 325.336L398.05 327.354L399.71 329.673L399.935 331.216L400.826 333.856L400.374 335.355L397.509 336.551L395.478 335.015L395.18 334.417L391.802 333.785L391.227 333.019L389.075 333.315L387.13 332.903L385.853 333.927L384.717 333.755L383.769 332.392L382.048 331.954L380.844 331.305L377.418 331.91L376.874 333.269L376.022 333.569L375.263 332.713L373.924 332.729L373.042 333.397L372.012 333.082L370.689 330.882L369.648 330.35L368.541 329.027L366.089 327.634L364.336 325.518L362.124 326.006L360.517 323.883L357.491 320.634L355.605 320.196L354.911 320.81L352.97 321.009L349.907 320.587L348.741 321.446L346.2 321.776L345.119 323.117L343.675 323.554L341.905 322.702L337.781 323.506L336.857 324.341L335.685 324.424L334.597 325.508L333.384 325.857L332.473 325.549L331.109 325.767L330.732 325.082L328.295 324.954L326.922 324.11L325.895 320.891L324.781 319.466L319.906 319.216L319.065 320.332L317.598 319.787L316.819 320.489L315.65 319.651L314.212 320.054L312.453 319.403L311.556 319.532L310.966 320.961L310.084 321.033L308.93 321.938L307.488 321.853L306.972 320.641L306.033 320.851L304.478 319.516L301.724 318.921L300.828 319.205L299.885 320.201L298.819 320.062L297.701 320.744L297.785 321.782L298.81 322.748L298.468 323.635L296.736 324.198L295.535 325.833L294.237 325.576L294.508 324.034L294.546 321.055L293.673 321.429L292.127 320.572L289.799 320.645L288.87 322.066L288.079 322.522L287.348 323.78L286.182 323.367L284.784 324.609L283.561 324.856L282.105 324.492L279.649 324.624L272.346 322.921L270.054 321.704L266.949 319.278L265.844 317.865L265.469 315.693L264.926 314.625L263.228 312.517L262.209 312.281L261.597 310.139L259.118 306.189L256.483 303.536L255.038 302.737L252.558 302.244L249.317 301.075L247.755 301.483L244.368 301.294L242.347 302.622L241.558 302.758L238.122 302.039L236.043 302.387L235.77 303.578L232.766 305.458L231.714 305.247L230.231 305.927L227.089 305.987L226.364 306.628L224.889 306.617L223.872 307.124L221.862 307.383L220.168 306.468L219.371 305.381L218.245 304.722L215.186 302.06L214.308 302.411L212.49 301.99L211.874 300.792L210.548 301.096L208.972 300.167L208.605 299.098L206.427 298.798L204.039 297.484L202.973 296.423L200.966 296.023L199.986 297.375L197.798 297.65L197.146 298.066L195.07 298.19L193.737 297.874L192.451 296.92L191.949 295.788L187.135 294.696L186.465 293.976L184.792 293.577L185.057 292.299L183.663 292.306L178.823 291.21L178.54 290.023L177.556 290.628L175.407 290.467L175.067 289.45L174.061 289.538L173.741 290.742L171.607 290.99L170.983 290.556L168.938 290.14L165.341 290.924L164.341 291.483L164.272 292.461L162.461 293.64L162.589 294.891L161.733 296.293L160.628 296.6L158.858 295.304L157.221 294.814L155.737 295.346L156.302 297.125L155.959 299.06L155.495 299.882L154.059 300.844L152.514 300.371L151.52 299.638L150.557 300.094L149.618 299.877L148.051 300.703L145.529 302.657L144.069 302.499L143.85 300.02L143.111 297.613L141.211 296.283L139.408 295.837L137.392 295.682L137.17 295.063L135.921 294.937L135.6 296.068L133.884 296.847L130.706 295.274L128.003 294.759L126.818 295.484L123.866 296.156L122.975 297.262L119.815 295.593L118.922 295.732L117.241 295.274L114.876 295.363L112.447 295.918L109.912 296.99L108.009 298.634L106.329 299.5L105.185 301.022L105.181 303.254L104.818 305.073L102.981 305.267L102.037 304.848L101.26 305.78L100.275 306.094L101.551 303.63L103.131 301.967L101.947 299.441L100.199 298.013L98.3845 298.018L97.0259 296.476L95.4592 296.085L89.4528 296.778L85.7281 297.678L83.3285 299.178L83.4796 300.503L80.5689 299.154L79.3914 300.802L77.5162 300.094L74.1623 300.145L73.0026 301.209L70.4467 300.12L68.3657 300.621L66.6233 299.647L65.4091 298.119L63.1694 297.657L61.0587 298.05L60.1326 299.623L60.147 300.612L58.6614 300.462L56.4015 298.781L55.6715 297.526L55.5429 296.271L53.9384 296.305L52.1143 293.622L51.7941 291.188L52.8788 290.354L52.4293 288.53L53.4021 288.776L54.9191 286.786L54.6602 285.065L55.0222 283.262L54.4441 282.077L52.928 280.33L50.9581 279.116L49.3387 278.579L45.7513 276.91L40.9145 277.63L38.9497 277.242L37.253 276.427L36.9352 275.773L35.736 275.723L34.8164 273.809L33.6301 273.209L33.552 271.453L32.5091 271.003L31.6989 270.003L32.4253 269.019L32.2419 266.724L31.5382 265.891L30.3435 266.025L30.4661 264.956L28.9862 264.239L27.1329 264.648L24.4235 264.781L23.5447 263.839L23.2164 262.79L23.8356 261.822L25.95 260.912L26.2752 259.997L24.6431 257.166L24.1992 254.775L23.6801 254.859L22.6683 253.367L23.6223 252.245L24.504 253.495L26.0122 254.87L26.0261 252.316L26.4389 250.433L27.5698 250.524L27.4084 249.08L29.1903 248.593L31.5696 249.983L31.2032 248.705L32.0541 247.747L30.9109 246.773L30.978 245.014L33.1144 246.988L34.5787 246.47L35.0772 245.178L36.5347 246.051L38.8687 244.041L39.3119 242.07L39.3901 239.075L38.887 238.115L34.8011 238.071L33.8358 236.92L33.4195 234.338L32.2408 233.664L31.125 232.512L31.1547 231.595L33.2481 229.621L34.1 227.644L34.06 225.287L33.3791 223.71L31.1967 222.274L31.6912 221.447L30.87 220.681L30.952 219.081L30.0774 218.53L30.4944 216.794L31.685 216.049L31.9074 215.304L31.1858 214.232L31.5454 212.768L32.8042 211.544L34.1561 208.528L33.7675 207.435L31.3759 207.088L30.7047 205.688L30.7846 204.839L32.0174 203.44L33.1755 203.291L34.6859 203.681L35.0723 203.022L36.4625 202.289L36.4922 200.948L37.1729 198.793L39.2271 197.312L40.4337 196.762L40.6106 195.28L39.7978 193.603L39.1027 193.143L37.4764 191.211L36.6998 191.136L37.2124 188.092L38.1975 187.29L38.1332 186.257L39.6065 185.607L40.8853 186.369L42.2228 185.043L40.8347 182.547L41.3582 182.2L45.3605 183.622L46.1606 182.512L47.3927 179.595L48.3058 179.117L48.9645 177.942L48.9663 176.974L48.3618 173.769L49.3364 171.908L48.4713 170.714L49.1411 169.344L48.1263 168.606L50.0171 166.999L49.6679 164.308L48.7404 162.984L46.7819 163.643L45.5783 163.729L44.192 162.98L42.8998 160.47L43.3894 157.966L41.8931 156.527L42.3435 155.833L42.0108 152.551L42.8348 151.906L42.7475 149.791L43.5719 148.572L46.657 149.15L47.0558 147.065L46.6762 145.873L47.2713 144.176L49.2259 143.784L52.2747 141.538L54.1803 138.813L53.8328 136.819L54.3995 135.614L54.6549 133.732L54.5678 131.319L53.2895 127.846L52.7228 126.809L51.3219 125.762L49.3389 123.831L47.4187 123.869L47.9216 121.995L48.9556 121.449L48.9979 120.58L50.263 120.691L51.2729 119.764L50.3837 118.785L50.8594 116.878L48.7648 115.184L48.7971 112.953L49.5135 111.57L49.7575 108.863L49.6758 107.28L50.5599 105.975L51.236 104.238L52.0052 104.18L52.8686 103.019L52.7219 101.351L52.0713 99.9193L52.1252 98.4275L52.7467 98.0508L54.8021 94.222L55.4155 91.18L57.7754 89.9853L57.254 87.056L55.9395 86.1614L55.8988 82.7372L57.8987 80.0699L58.0324 78.4442L57.4692 77.2014L56.0314 77.9321L54.0561 76.5454L53.1483 72.3893L54.0747 71.6449L56.0792 72.608L57.4225 73.7085L57.9382 75.7693L58.7231 75.6139L59.5039 77.1351L58.4947 77.5718L58.0324 78.4442L59.2012 79.2365L60.3636 77.6266L60.8524 73.6546L60.2301 72.475L60.9968 70.4457L61.1449 67.0252L62.393 64.5343L64.1723 60.2219L64.2668 57.556L63.2416 55.008L63.3173 54.2803L62.3816 52.9659L61.8098 49.8246L63.7702 49.7489L64.6731 50.9603L65 53.0332L65.4892 53.6482L65.2967 55.4114L68.0089 58.8855L68.2408 60.5193L67.7045 63.1716L69.0423 64.2366L69.4209 65.2687L68.8363 66.3934L68.867 67.7147L68.1505 68.4694L67.1689 70.568L65.879 70.9199L65.2698 71.634L65.967 72.7563L66.1848 76.9627L67.3755 79.4357L67.7946 80.8339L67.246 82.4511L67.2883 84.6642L66.5843 85.6405L67.0359 86.3289L68.1083 86.4761L70.3408 88.6226L70.761 90.2328L70.4799 92.4014L70.8683 93.2857L69.9535 95.6932L69.7555 97.4164L70.7817 101.074L70.2189 103.76L70.9402 106.928L69.8105 113.244L70.331 114.613L70.2386 116.827L71.9746 118.119L74.0889 118.911L74.9651 119.592L77.3211 120.329L78.355 121.29L79.4417 120.47L81.0685 120.791L82.0123 117.874L82.8989 118.532L81.648 119.764L83.084 121.304L82.8161 122.289L83.0719 124.363L83.5746 125.544L84.6481 126.807L85.7748 127.182L85.8489 128.646L88.1517 129.573L89.1877 129.23L91.1961 130.407L102.609 130.146L106.51 129.613L111.356 128.629L117.194 127.034L118.949 126.429L121.776 125.086L121.965 124.381L123.32 123.219L123.919 121.711L123.868 119.419L124.503 118.603L123.948 117.416L124.464 116.43L124.378 113.708L125.008 112.83L125.129 111.457L124.081 108.906L124.112 107.785L124.999 107.569L125.907 105.396L126.627 104.392L126.585 102.631L127.342 100.556L125.717 97.7177L124.837 94.4637L124.809 93.3256L125.401 92.4017L125.404 90.1313L124.792 89.5577L124.428 87.1923L124.902 84.335L123.152 83.4368L122.795 82.2539L122.466 79.3576L120.71 78.2692L119.72 76.6L119.279 74.7717L119.989 73.7905L119.423 71.9296L118.213 69.4024L117.113 69.2671L117.169 67.7623L118.192 67.6702L118.603 66.2102L117.756 65.0361L117.111 62.5014L117.725 59.8567L119.768 58.3689L119.891 57.2244L121.043 55.1824L120.483 53.419L117.652 50.3128L117.259 49.4736L118.369 46.723L117.643 44.2573L116.348 43.1089L115.668 41.0938L116.179 39.937L116.123 38.6845L117.062 35.3275L116.771 34.4036L117.608 32.9293L117.233 30.6499L117.262 29.0936L119.262 26.5492L119.631 25.0665L121.527 24.8603L121.252 23.9018L122.01 22.6168L121.91 21.2444L122.942 18.8935L125.354 18.4795L125.671 16.4144L126.354 16.1074L127.417 13.4303L128.546 11.9437L129.953 11.924L129.894 11.0781L128.951 10.2835L130.07 8.80717L130.959 5.91992L134.268 10.4316L135.309 10.4258L136.387 11.4034L138.339 12.3201L139.376 13.5599L139.921 13.5369L143.076 15.8578L144.571 18.4549L148.544 22.2559L149.022 23.2682L147.687 25.4432L146.779 26.3102L145.985 28.348L145.061 29.0776L143.976 31.0887L144.111 32.4927L143.539 35.7984L143.844 37.3592L145.044 37.8059L145.072 40.2165L146.062 41.8991L148.449 44.1034L147.058 44.7209L145.93 44.7267L146.238 46.0301L147.727 47.2705L148.225 49.05L147.928 49.8037L148.726 52.3999L148.178 54.1064L149.065 57.6203L148.58 58.2283L149.502 60.9348L150.145 61.9781L149.985 64.3823L151.106 67.0609L150.924 68.251L149.861 69.5978L151.177 70.1659L150.74 74.0964L151.546 75.7423L150.814 77.5566L151.254 79.7201L150.803 84.6015L150.8 87.579L151.468 88.3134L151.724 95.0055L151.203 96.2093L151.522 98.0108L151.547 100.095L152.253 101.414L155.938 103.442L160.465 105.148L163.147 105.901L164.376 106.487L169.697 107.932L170.674 107.776L172.846 106.457L175.914 107.325L177.041 107.245L178.251 108.076L179.982 109.795L180.248 110.754L181.337 111.876L183.118 112.663L186.817 113.509L188.954 113.72L192.991 114.684L198.456 115.498L198.928 115.114L202.129 116.168L204.929 116.313L208.504 117.085L214.751 117.739L215.891 117.378L217.369 117.727L221.584 117.464L224.302 116.648L225.184 115.718L226.542 116.147L227.846 117.799L231.462 120.303L233.62 121.078L236.457 121.724L238.327 121.07L240.487 121.673L242.665 121.997L242.878 121.145L244.268 120.618L245.05 122.111L247.203 122.256L248.075 120.657L249.287 120.694L249.829 119.275L251.761 119.504L253.734 118.341L254.865 119.317L253.998 120.933L254.813 122.243L255.962 122.624L260.351 122.023L261.493 121.525L263.78 119.967L263.866 119.019L267.189 117.979L267.583 119.338L268.608 118.095L270.327 118.06L273.307 119.844L274.947 119.506L278.869 116.308L281.054 116.483L281.742 115.356L282.918 115.041L282.715 113.422L283.487 110.82L282.207 108.345L282.689 107.192L284.213 106.086L284.957 104.809L285.497 103.053L285.017 102.144L284.745 98.7764L285.037 96.99L287.027 97.4778L289.912 99.3279L289.141 97.5393L287.582 95.6529L288.85 95.2741L289.933 97.0115L290.747 97.5217L291.031 98.7101L291.73 99.485L292.818 98.9375L293.971 97.0245L296.221 96.6768L297.923 96.986L299.451 95.795L300.256 96.3855L301.308 96.01L302.134 94.1939L301.076 93.2109L301.44 91.6179L300.65 89.9266L299.154 88.7955L299.334 87.5947L297.965 87.2241L296.529 86.1148L297.36 84.3159L296.722 83.2933L295.184 83.1533L294.909 82.2697L295.694 79.8052L294.819 78.264L293.202 77.4382L293.717 76.3077L297.342 75.3571L298.046 72.8996L298.721 71.5144L299.891 70.1111L300.902 71.7082L302.815 71.9562L304.034 70.9999L305.632 70.2498L306.376 71.1168L305.999 72.1255L307.142 72.5389L307.105 70.2643L307.944 68.596L310.115 67.4085L310.882 67.5012L312.441 66.5224L314.617 66.2587L315.75 65.7675L319.284 65.2784L323.614 66.527L324.941 67.0485L328.665 69.6123L331.202 70.2204L334.689 71.4702L336.946 71.6628L338.124 72.3478L339.856 72.3424L342.194 73.1082L345.133 75.0134L346.088 76.537L347.043 79.1041L347.577 79.665L348.374 82.5198L349.613 84.9343L350.474 85.2784L352.181 87.6011L352.156 88.7592L353.782 93.1288L353.866 94.4861L354.689 97.3927L355.543 99.6177L355.623 100.58L357.103 104.401L357.824 105.286L356.209 108.58L355.179 111.097L354.117 112.13L351.265 116.104L350.09 117.133L350.246 118.558L349.353 120.748L348.913 122.474L349.197 125.834L347.193 127.408L345.665 127.175L344.581 126.541L342.638 127.289L341.673 128.718L341.59 129.979L339.912 129.273L339.102 130.63L340.429 131.278L340.725 133.251L337.925 132.881L336.771 133.269L335.415 132.949L333.939 131.931L332.017 132.128L330.378 131.519L329.167 131.661L324.878 131.111L320.423 129.302L319.357 128.422L315.605 128.284L312.371 126.276L311.562 124.814L310.341 124.951L309.801 126.26L308.955 126.328L306.856 125.607L306.527 126.54L303.134 126.603L301.783 126.336L300.641 124.953L299.168 124.308L297.701 124.667L294.932 127.004L294.094 128.208L292.41 129.339L289.847 129.89L289.429 130.532L289.046 133.759L289.256 134.639L290.971 136.592L292.388 137.094L294.221 136.689L296.323 137.25L297.315 137.798L298.753 137.245L300.276 138.067L305.266 140.054L306.942 141.024L307.971 142.035L309.419 142.336L310.678 143.195L312.374 143.585L313.947 144.991L315.66 147.369L317.702 148.396L319.295 148.771L321.632 148.709L325.108 149.42L326.391 148.973L326.951 149.482L328.16 149.19L330.13 148.086L331.74 148.059L332.407 147.5L333.936 148.443L334.95 150.551L336.68 153.079L339.374 155.702L344.84 160.246L346.061 160.545L347.269 159.75L347.942 160.733L350.19 162.033L351.327 162.111L352.15 160.919L353.608 160.895L354.61 160.43L355.182 161.557L357.782 161.995L358.436 161.666L358.586 160.098L359.232 159.563L359.14 158.435L359.81 157.647L360.81 153.886L362.595 153.101L363.814 153.27L366.461 155.547L368.273 153.759L370.179 152.641L370.519 151.638L371.617 150.576L371.791 149.651L372.927 148.555L374.941 147.99L377.54 145.574L377.117 147.39L378.79 148.78L378.497 150.177L379.501 150.4L380.191 151.577L380.473 153.964L382.267 154.679L382.335 156.513L382.814 157.774L383.741 157.341L385.07 158.539L385.359 160.883L385.41 163.633L384.973 165.442L385.827 168.188L385.67 169.403L384.134 171.022L383.286 173.445L384.195 175.915L385.572 177.073L386.585 176.45L387.746 177.489L387.196 179.346L387.043 181.292L387.76 186.748L387.533 188.34L388.011 189.103L386.696 191.358L387.496 194.029L387.219 196.602L386.616 196.961L385.342 201.452L385.078 203.062L385.286 204.809L384.924 206.035L384.971 207.909L386.261 209.932L386.604 211.514L387.555 212.971L386.505 213.605L386.348 214.883L387.122 215.966L387.562 217.434L388.938 218.467L391.503 219.565L395.44 220.934L397.542 221.47L400.043 221.447L402.474 222.303L406.528 222.929L410.374 223.01L412.961 223.417L413.669 223.301Z" fill="#1E1E1E"/>
<path d="M58.0324 78.4442L57.8987 80.0699L55.8988 82.7372L55.9395 86.1614L57.254 87.056L57.7754 89.9853L55.4155 91.18L54.8021 94.222L52.7467 98.0508L52.1252 98.4275L52.0713 99.9193L52.7219 101.351L52.8686 103.019L52.0052 104.18L51.236 104.238L50.5599 105.975L49.6758 107.28L49.7575 108.863L49.5135 111.57L48.7971 112.953L48.7648 115.184L50.8594 116.878L50.3837 118.785L51.2729 119.764L50.263 120.691L48.9979 120.58L48.9556 121.449L47.9216 121.995L47.4187 123.869L49.3389 123.831L51.3219 125.762L52.7228 126.809L53.2895 127.846L54.5678 131.319L54.6549 133.732L54.3995 135.614L53.8328 136.819L54.1803 138.813L52.2747 141.538L49.2259 143.784L47.2713 144.177L46.6762 145.873L47.0558 147.065L46.657 149.15L43.5719 148.572L42.7475 149.791L42.8348 151.906L42.0108 152.551L42.3435 155.833L41.8931 156.527L43.3894 157.966L42.8998 160.47L44.192 162.98L45.5783 163.729L46.7819 163.643L48.7404 162.984L49.6679 164.308L50.0171 166.999L48.1263 168.606L49.1411 169.344L48.4713 170.714L49.3364 171.908L48.3618 173.769L48.9663 176.974L48.9645 177.942L48.3058 179.117L47.3927 179.595L46.1606 182.512L45.3605 183.622L41.3582 182.2L40.8347 182.547L42.2228 185.043L40.8853 186.369L39.6065 185.607L38.1332 186.257L38.1975 187.29L37.2124 188.092L36.6998 191.136L37.4764 191.211L39.1027 193.143L39.7978 193.603L40.6106 195.28L40.4337 196.762L39.2271 197.312L37.1729 198.793L36.4922 200.948L36.4625 202.289L35.0723 203.022L34.6859 203.681L33.1755 203.291L32.0174 203.44L30.7846 204.839L30.7047 205.688L31.3759 207.088L33.7675 207.435L34.1561 208.528L32.8042 211.544L31.5454 212.768L31.1858 214.232L31.9074 215.304L31.685 216.049L30.4944 216.794L30.0774 218.53L30.952 219.081L30.87 220.681L31.6912 221.447L31.1967 222.274L33.3791 223.71L34.06 225.287L34.1 227.644L33.2481 229.621L31.1547 231.595L31.125 232.512L32.2408 233.664L33.4195 234.338L33.8358 236.92L34.8011 238.071L38.887 238.115L39.3901 239.075L39.3119 242.07L38.8687 244.041L36.5347 246.051L35.0771 245.178L34.5787 246.47L33.1144 246.988L30.978 245.014L30.9109 246.773L32.0541 247.747L31.2032 248.705L31.5696 249.983L29.1903 248.593L27.4084 249.08L27.5698 250.524L26.4389 250.433L26.0261 252.316L26.0122 254.87L24.504 253.495L23.6223 252.245L22.6683 253.367L23.6801 254.859L24.1992 254.775L24.6431 257.166L26.2752 259.997L25.95 260.912L23.8356 261.822L23.2164 262.79L23.5447 263.839L24.4235 264.781L27.1329 264.648L28.9862 264.239L30.4661 264.956L30.3435 266.025L31.5382 265.891L32.2419 266.724L32.4253 269.019L31.6989 270.003L32.5091 271.003L33.552 271.453L33.6301 273.209L34.8164 273.809L35.736 275.723L36.9352 275.773L37.253 276.427L38.9497 277.242L40.9145 277.63L45.7513 276.91L49.3387 278.579L50.9581 279.116L52.928 280.33L54.4441 282.077L55.0222 283.262L54.6602 285.065L54.9191 286.786L53.4021 288.776L52.4293 288.53L52.8788 290.354L51.7941 291.188L52.1143 293.622L53.9384 296.305L55.5429 296.271L55.6715 297.526L56.4015 298.781L58.6614 300.462L60.147 300.612L60.1326 299.623L61.0587 298.05L63.1694 297.657L65.4091 298.119L66.6233 299.647L68.3657 300.621L70.4467 300.12L73.0026 301.209L74.1623 300.145L77.5162 300.094L79.3914 300.802L80.5689 299.154L83.4796 300.503L83.3285 299.178L85.7281 297.678L89.4528 296.778L95.4592 296.085L97.0259 296.476L98.3845 298.018L100.199 298.013L101.947 299.441L103.131 301.967L101.551 303.63L100.275 306.094L101.26 305.78L102.037 304.848L102.981 305.267L104.818 305.073L105.181 303.254L105.185 301.022L106.329 299.5L108.009 298.634L109.912 296.99L112.447 295.918L114.876 295.363L117.241 295.274L118.922 295.732L119.815 295.593L122.975 297.262L123.866 296.156L126.818 295.484L128.003 294.759L130.706 295.274L133.884 296.847L135.6 296.068L135.921 294.937L137.17 295.063L137.392 295.682L139.408 295.837L141.211 296.283L143.111 297.613L143.85 300.02L144.069 302.499L145.529 302.657L148.051 300.703L149.618 299.877L150.557 300.094L151.52 299.638L152.514 300.371L154.059 300.844L155.495 299.882L155.959 299.06L156.302 297.125L155.737 295.346L157.221 294.814L158.858 295.304L160.628 296.6L161.733 296.293L162.589 294.891L162.461 293.64L164.272 292.461L164.341 291.483L165.341 290.924L168.938 290.14L170.983 290.556L171.607 290.99L173.741 290.742L174.061 289.538L175.067 289.45L175.407 290.467L177.556 290.628L178.54 290.023L178.823 291.21L183.663 292.306L185.057 292.299L184.792 293.577L186.465 293.976L187.135 294.696L191.949 295.788L192.451 296.92L193.737 297.874L195.07 298.19L197.146 298.066L197.798 297.65L199.986 297.375L200.966 296.023L202.973 296.423L204.039 297.484L206.427 298.798L208.605 299.098L208.972 300.167L210.548 301.096L211.874 300.792L212.49 301.99L214.308 302.411L215.186 302.06L218.245 304.722L219.371 305.381L220.168 306.468L221.862 307.383L223.872 307.124L224.889 306.617L226.364 306.628L227.089 305.987L230.231 305.927L231.714 305.247L232.766 305.458L235.77 303.578L236.043 302.387L238.122 302.039L241.558 302.758L242.347 302.622L244.368 301.294L247.755 301.483L249.317 301.075L252.558 302.244L255.038 302.737L256.483 303.536L259.118 306.189L261.597 310.139L262.209 312.281L263.228 312.517L264.926 314.625L265.469 315.693L265.844 317.865L266.949 319.278L270.054 321.704L272.346 322.921L279.649 324.624L282.105 324.492L283.561 324.856L284.784 324.609L286.182 323.367L287.348 323.78L288.079 322.522L288.87 322.066L289.799 320.645L292.127 320.572L293.673 321.429L294.546 321.055L294.508 324.034L294.237 325.576L295.535 325.833L296.736 324.198L298.468 323.635L298.81 322.748L297.785 321.782L297.701 320.744L298.819 320.062L299.885 320.2L300.828 319.205L301.724 318.921L304.478 319.516L306.033 320.851L306.972 320.641L307.488 321.853L308.93 321.938L310.084 321.033L310.966 320.961L311.556 319.532L312.453 319.403L314.212 320.054L315.65 319.651L316.819 320.489L317.598 319.787L319.065 320.332L319.906 319.216L324.781 319.466L325.895 320.891L326.922 324.11L328.295 324.954L330.732 325.082L331.109 325.767L332.473 325.549L333.384 325.857L334.597 325.508L335.685 324.424L336.857 324.341L337.781 323.506L341.905 322.702L343.675 323.554L345.119 323.117L346.2 321.776L348.741 321.446L349.907 320.587L352.97 321.009L354.911 320.81L355.605 320.196L357.491 320.634L360.517 323.883L362.124 326.006L364.336 325.518L366.089 327.634L368.541 329.027L369.648 330.35L370.689 330.882L372.012 333.082L373.042 333.397L373.924 332.729L375.263 332.713L376.022 333.569L376.874 333.269L377.418 331.91L380.844 331.305L382.048 331.954L383.769 332.392L384.717 333.755L385.853 333.927L387.13 332.903L389.075 333.315L391.227 333.019L391.802 333.785L395.18 334.417L395.478 335.015L397.509 336.551L400.374 335.355L400.826 333.856L399.935 331.216L399.71 329.673L398.05 327.354L398.479 325.336L400.754 322.637L401.808 319.946L403.037 310.754L404.307 306.431L406.828 299.886L407.187 298.325L408.151 296.775L408.106 295.781L405.433 295.413L402.324 295.582L399.396 295.491L396.916 293.88L394.166 292.444L391.551 289.653L391.53 287.091L391.842 285.553L393.496 282.718L395.29 280.506L397.256 278.997L399.706 276.613L402.189 275.383L404.008 274.865L406.09 273.263L409.174 272.671L410.397 271.934L411.193 269.742L411.999 268.88L413.518 268.593L417.223 267.441L419.155 265.569L420.324 263.453L420.873 261.492L420.077 257.32L420.541 255.149L420.35 252.966L420.573 250.172L420.45 248.829L419.841 247.145L418.872 245.692L418.516 244.258L417.307 242.928L416.262 238.952L415.975 236.147L414.745 233.231L414.775 231.518L414.079 227.374L414.461 226.247L413.669 223.301L412.961 223.417L410.374 223.01L406.528 222.929L402.474 222.303L400.043 221.447L397.542 221.47L395.44 220.934L391.503 219.565L388.938 218.467L387.562 217.434L387.122 215.966L386.348 214.883L386.505 213.605L387.555 212.971L386.604 211.514L386.261 209.932L384.971 207.909L384.924 206.035L385.286 204.809L385.078 203.062L385.342 201.452L386.616 196.961L387.219 196.602L387.496 194.029L386.696 191.358L388.011 189.103L387.533 188.34L387.76 186.748L387.043 181.292L387.196 179.346L387.746 177.489L386.585 176.45L385.572 177.073L384.195 175.915L383.286 173.445L384.134 171.022L385.67 169.403L385.827 168.188L384.973 165.442L385.41 163.633L385.359 160.883L385.07 158.539L383.74 157.341L382.814 157.774L382.335 156.513L382.267 154.679L380.473 153.964L380.191 151.577L379.501 150.4L378.497 150.177L378.79 148.78L377.117 147.39L377.54 145.574L374.941 147.99L372.927 148.555L371.791 149.651L371.617 150.576L370.519 151.638L370.179 152.641L368.273 153.759L366.461 155.547L363.814 153.27L362.595 153.101L360.81 153.886L359.81 157.647L359.14 158.435L359.232 159.563L358.586 160.098L358.436 161.666L357.782 161.995L355.182 161.557L354.61 160.43L353.608 160.895L352.15 160.919L351.327 162.111L350.19 162.033L347.942 160.733L347.269 159.75L346.061 160.545L344.84 160.246L339.374 155.702L336.68 153.079L334.95 150.551L333.936 148.443L332.407 147.5L331.74 148.059L330.13 148.086L328.16 149.19L326.951 149.482L326.391 148.973L325.108 149.42L321.632 148.709L319.295 148.771L317.702 148.396L315.66 147.369L313.947 144.991L312.374 143.585L310.678 143.195L309.419 142.336L307.971 142.035L306.942 141.024L305.266 140.054L300.276 138.067L298.753 137.245L297.315 137.798L296.323 137.25L294.221 136.689L292.388 137.094L290.971 136.592L289.256 134.639L289.046 133.759L289.429 130.532L289.847 129.89L292.41 129.339L294.094 128.208L294.932 127.004L297.701 124.667L299.168 124.308L300.641 124.953L301.783 126.336L303.134 126.603L306.527 126.54L306.856 125.607L308.955 126.328L309.801 126.26L310.341 124.951L311.562 124.814L312.371 126.276L315.605 128.284L319.357 128.422L320.423 129.302L324.878 131.111L329.167 131.661L330.378 131.519L332.017 132.128L333.939 131.931L335.415 132.949L336.771 133.269L337.925 132.881L340.725 133.251L340.429 131.278L339.102 130.63L339.912 129.273L341.59 129.979L341.673 128.718L342.638 127.289L344.581 126.541L345.665 127.175L347.193 127.408L349.197 125.834L348.913 122.474L349.353 120.748L350.246 118.558L350.09 117.133L351.265 116.104L354.117 112.13L355.179 111.097L356.209 108.58L357.824 105.286L357.103 104.401L355.623 100.58L355.543 99.6177L354.689 97.3927L353.866 94.4861L353.782 93.1288L352.156 88.7592L352.181 87.6011L350.474 85.2783L349.613 84.9343L348.374 82.5198L347.577 79.665L347.043 79.1041L346.088 76.537L345.133 75.0134L342.194 73.1082L339.856 72.3424L338.124 72.3478L336.946 71.6628L334.689 71.4702L331.202 70.2204L328.665 69.6123L324.941 67.0485L323.614 66.527L319.284 65.2784L315.75 65.7675L314.617 66.2587L312.441 66.5224L310.882 67.5012L310.115 67.4085L307.944 68.596L307.105 70.2643L307.142 72.5389L305.999 72.1255L306.376 71.1168L305.632 70.2498L304.034 70.9999L302.815 71.9562L300.902 71.7082L299.891 70.1111L298.721 71.5144L298.046 72.8996L297.342 75.3571L293.717 76.3077L293.202 77.4382L294.819 78.264L295.694 79.8052L294.909 82.2697L295.184 83.1533L296.722 83.2933L297.36 84.3159L296.529 86.1148L297.965 87.2241L299.334 87.5947L299.154 88.7955L300.65 89.9266L301.44 91.6179L301.076 93.2109L302.134 94.1939L301.308 96.01L300.256 96.3855L299.451 95.795L297.923 96.986L296.221 96.6768L293.971 97.0245L292.818 98.9375L291.73 99.485L291.031 98.7101L290.747 97.5217L289.933 97.0115L288.85 95.2741L287.582 95.6529L289.141 97.5393L289.912 99.3279L287.027 97.4778L285.037 96.99L284.745 98.7764L285.017 102.144L285.497 103.053L284.957 104.809L284.213 106.086L282.689 107.192L282.207 108.345L283.487 110.82L282.715 113.422L282.918 115.041L281.742 115.356L281.054 116.483L278.869 116.308L274.947 119.506L273.307 119.844L270.327 118.06L268.608 118.095L267.583 119.338L267.189 117.979L263.866 119.019L263.78 119.967L261.493 121.525L260.351 122.023L255.962 122.624L254.813 122.243L253.998 120.933L254.865 119.317L253.734 118.341L251.761 119.504L249.829 119.275L249.287 120.694L248.075 120.657L247.203 122.256L245.05 122.111L244.268 120.618L242.878 121.145L242.665 121.997L240.487 121.673L238.327 121.07L236.457 121.724L233.62 121.078L231.462 120.303L227.846 117.799L226.542 116.147L225.184 115.718L224.302 116.648L221.584 117.464L217.369 117.727L215.891 117.378L214.751 117.739L208.504 117.085L204.929 116.313L202.129 116.168L198.928 115.114L198.456 115.498L192.991 114.684L188.954 113.72L186.817 113.509L183.118 112.663L181.337 111.876L180.248 110.754L179.982 109.795L178.251 108.076L177.041 107.245L175.914 107.325L172.846 106.457L170.674 107.776L169.697 107.932L164.376 106.487L163.147 105.901L160.465 105.148L155.938 103.442L152.253 101.414L151.547 100.095L151.522 98.0108L151.203 96.2092L151.724 95.0055L151.468 88.3134L150.8 87.579L150.803 84.6015L151.254 79.7201L150.814 77.5566L151.546 75.7423L150.74 74.0964L151.177 70.1659L149.861 69.5978L150.924 68.251L151.106 67.0609L149.985 64.3823L150.145 61.9781L149.502 60.9348L148.58 58.2283L149.065 57.6202L148.178 54.1064L148.726 52.3999L147.928 49.8037L148.225 49.05L147.727 47.2705L146.238 46.0301L145.93 44.7267L147.058 44.7209L148.449 44.1034L146.062 41.8991L145.072 40.2165L145.044 37.8059L143.844 37.3592L143.539 35.7984L144.111 32.4927L143.976 31.0887L145.061 29.0776L145.985 28.348L146.779 26.3102L147.687 25.4432L149.022 23.2682L148.544 22.2559L144.571 18.4549L143.076 15.8578L139.921 13.5369L139.376 13.5599L138.339 12.3201L136.387 11.4034L135.309 10.4258L134.268 10.4316L130.959 5.91992L130.07 8.80717L128.951 10.2835L129.894 11.0781L129.953 11.924L128.546 11.9437L127.417 13.4303L126.354 16.1074L125.671 16.4144L125.354 18.4795L122.942 18.8935L121.91 21.2444L122.01 22.6168L121.252 23.9018L121.527 24.8603L119.631 25.0665L119.262 26.5492L117.262 29.0936L117.233 30.6499L117.608 32.9293L116.771 34.4036L117.062 35.3275L116.123 38.6845L116.179 39.937L115.668 41.0938L116.348 43.1089L117.643 44.2573L118.369 46.723L117.259 49.4736L117.652 50.3128L120.483 53.419L121.043 55.1824L119.891 57.2244L119.768 58.3689L117.725 59.8567L117.111 62.5014L117.756 65.0361L118.603 66.2102L118.192 67.6702L117.169 67.7623L117.113 69.2671L118.213 69.4024L119.423 71.9296L119.989 73.7905L119.279 74.7717L119.72 76.6L120.71 78.2692L122.466 79.3576L122.795 82.2539L123.152 83.4368L124.902 84.335L124.428 87.1923L124.792 89.5577L125.404 90.1313L125.401 92.4017L124.809 93.3256L124.837 94.4637L125.717 97.7177L127.342 100.556L126.585 102.631L126.627 104.392L125.907 105.396L124.999 107.569L124.112 107.785L124.081 108.906L125.129 111.457L125.008 112.83L124.378 113.708L124.464 116.43L123.948 117.416L124.503 118.603L123.868 119.419L123.919 121.711L123.32 123.219L121.965 124.381L121.776 125.086L118.949 126.429L117.194 127.034L111.356 128.629L106.51 129.613L102.609 130.146L91.1961 130.407L89.1877 129.23L88.1517 129.573L85.8489 128.646L85.7748 127.182L84.6481 126.807L83.5746 125.544L83.0719 124.363L82.8161 122.289L83.084 121.304L81.648 119.764L82.8989 118.532L82.0123 117.874L81.0685 120.791L79.4417 120.47L78.355 121.29L77.3211 120.329L74.9651 119.592L74.0889 118.911L71.9746 118.119L70.2386 116.827L70.331 114.613L69.8105 113.244L70.9402 106.928L70.2189 103.76L70.7817 101.074L69.7555 97.4164L69.9535 95.6932L70.8683 93.2857L70.4799 92.4014L70.761 90.2328L70.3408 88.6226L68.1083 86.4761L67.0359 86.3289L66.5843 85.6405L67.2883 84.6642L67.246 82.4511L67.7946 80.8339L67.3756 79.4357L66.1848 76.9627L65.967 72.7563L65.2698 71.634L65.879 70.9199L67.1689 70.568L68.1505 68.4694L68.867 67.7147L68.8363 66.3934L69.4209 65.2687L69.0423 64.2366L67.7045 63.1716L68.2408 60.5193L68.0089 58.8855L65.2967 55.4114L65.4892 53.6482L65 53.0332L64.6731 50.9603L63.7702 49.7489L61.8098 49.8246L62.3816 52.9659L63.3173 54.2803L63.2416 55.008L64.2668 57.556L64.1723 60.2219L62.393 64.5343L61.1449 67.0252L60.9968 70.4457L60.2301 72.475L60.8524 73.6546L60.3636 77.6266L59.2012 79.2364L58.0324 78.4442ZM58.0324 78.4442L57.4692 77.2014L56.0314 77.9321L54.0561 76.5454L53.1483 72.3893L54.0747 71.6449L56.0792 72.608L57.4225 73.7085L57.9382 75.7693L58.7231 75.6139L59.5039 77.1351L58.4947 77.5718L58.0324 78.4442ZM291.379 528.469L292.979 528.403L294.064 529.379L295.404 528.98L296.629 529.786L298.23 529.966L299.551 530.981L303.26 531.053L303.809 530.74L305.819 531.875L307.906 530.883L309.809 531.607L312.122 532.935L312.301 533.923L311.83 535.274L312.745 536.133L314.71 536.335L315.154 534.951L316.951 535.5L317.707 536.185L318.568 535.692L319.63 538.925L319.492 540.324L318.316 541.101L319.111 543.234L318.127 543.754L317.063 543.369L316.329 543.807L315.141 546.141L314.558 547.978L313.786 553.337L313.926 554.924L314.583 555.533L314.632 557.409L315.389 558.37L315.773 559.658L317.221 561.784L318.307 561.754L319.834 562.703L320.095 564.262L320.73 565.291L322.716 567.092L324.249 569.67L323.395 570.698L322.188 570.563L321.527 571.384L319.586 571.471L318.956 573.112L317.243 571.562L316.409 571.59L315.882 570.604L315.024 570.288L313.612 568.976L311.659 567.931L309.597 567.195L307.849 565.95L306.329 565.33L302.225 562.529L300.663 561.911L298.94 560.171L295.05 558.709L293.449 556.944L291.73 555.613L290.216 553.879L285.208 550.766L283.183 548.33L281.295 545.332L281.01 541.797L280.019 540.698L278.572 539.992L277.937 538.321L278.196 537.097L279.236 538.251L280.872 538.545L283.159 537.862L285.215 536.968L288.125 538.33L290.277 536.067L288.942 533.37L290.055 533.316L291.468 532.136L290.946 530.714L291.149 530.042L290.251 529.223L291.379 528.469ZM254.188 485.733L256.738 486.517L258.227 488.177L259.202 488.55L260.505 489.886L264.4 492.346L265.465 495.33L265.745 497.757L264.498 497.85L263.32 498.749L262.544 498.598L261.93 497.416L262.48 496.218L261.875 495.367L260.782 495L259.802 493.725L258.915 493.64L258.604 492.771L256.821 491.798L256.599 490.174L254.984 488.859L254.071 487.7L254.188 485.733ZM33.706 275.302L34.7965 276.558L29.9727 277.554L27.4045 278.545L26.7909 277.877L26.8784 276.294L29.195 276.769L31.4149 275.398L33.24 274.944L33.706 275.302ZM334.394 137.615L333.782 138.747L332.621 137.519L333.067 136.504L334.313 135.645L334.394 137.615ZM347.691 129.648L348.019 131.088L346.654 131.404L345.898 130.783L346.567 129.887L347.691 129.648ZM226.621 104.228L229.818 104.574L230.168 105.179L228.05 106.306L226.821 107.993L225.856 108.647L224.606 110.294L223.065 110.368L222.852 109.478L223.766 106.384L223.744 104.826L224.806 103.613L225.938 103.556L226.621 104.228ZM6.50131 74.7863L5.14871 76.5003L3.15625 77.1072L3.15718 75.0515L3.86924 74.8356L4.29549 73.0979L6.15701 74.0495L6.50131 74.7863ZM55.1396 56.4655L55.2996 57.7347L56.0028 58.1581L57.6368 60.6801L57.5414 61.6528L56.1496 61.3312L54.1039 61.4993L53.3294 63.1407L52.1932 61.6913L51.8631 59.9548L53.1509 57.0415L55.1396 56.4655ZM55.6799 38.6672L57.2493 37.3517L60.444 41.0109L61.0866 41.2298L60.9508 44.1295L58.9012 43.8251L57.6614 42.2258L57.3896 41.1362L56.0409 40.1502L54.8959 39.7759L52.9041 37.051L54.1562 36.5728L55.6799 38.6672Z" stroke="white" stroke-width="5"/>
</svg>
