<svg width="327" height="278" viewBox="0 0 327 278" fill="none" xmlns="http://www.w3.org/2000/svg">
<path d="M159.232 270.224L159.77 271.334L157.689 272.033L155.874 274.478L154.439 274.032L152.984 274.428L151.054 273.414L149.345 273.743L148.569 273.022L150.201 272.381L153.823 272.023L155.721 270.767L157.568 269.886L159.232 270.224ZM165.89 267.096L165.965 269.943L165.118 271.47L164.039 270.642L161.957 270.027L161.279 268.605L161.258 267.092L162.306 266.716L163.447 267.212L163.965 266.333L165.503 266.027L165.89 267.096ZM172.874 213.521L171.403 214.039L170.359 213.158L169.016 213.082L167.828 212.209L165.988 211.972L163.555 212.163L162.44 212.74L161.45 212.643L157.173 213.939L156.413 213.285L155.584 213.655L153.898 213.129L153.835 211.382L152.714 211.186L150.516 209.032L148.497 208.742L147.439 209.215L146.078 211.565L145.29 210.621L142.833 211.689L142.712 209.262L141.464 206.128L140.517 205.252L139.622 203.307L139.429 202.091L138.272 201.695L137.207 202.609L134.619 196.803L132.325 194.749L130.709 193.735L130.257 192.159L128.253 188.126L126.279 187.482L125.737 186.527L123.692 184.548L121.279 183.473L119.432 183.972L117.557 183.45L116.054 182.255L114.794 181.864L113.331 180.825L111.905 181.05L107.597 179.251L105.989 179.077L102.769 178.028L98.1504 180.557L95.907 181.246L93.9528 180.451L92.3943 180.419L91.5169 179.353L89.8172 179.168L88.2215 178.283L87.9357 177.706L85.6482 176.922L83.5998 174.998L81.674 173.894L79.6369 173.394L77.563 172.527L75.3667 171.281L74.3416 169.603L74.6829 167.142L72.9955 164.886L71.278 164.628L69.9372 166.207L67.5624 166.705L66.0712 166.491L64.3364 165.693L63.0279 165.958L61.8172 164.925L61.8689 162.123L64.8293 161.135L65.3029 160.303L64.6809 157.792L64.1133 156.617L62.4331 154.591L61.083 154.523L59.1421 152.743L55.9134 152.03L53.8622 153.098L51.6766 153.732L50.5299 154.453L48.9579 153.408L47.3311 154.023L47.0506 155.651L45.7431 156.404L44.5407 156.123L43.0936 157.315L42.7567 158.311L43.5458 159.099L42.0576 159.992L41.3351 159.417L39.7181 159.044L38.1914 159.462L37.3233 157.954L35.8291 157.137L34.0358 157.29L33.0744 156.092L30.8565 156.687L29.6367 156.286L29.6044 155.46L28.1404 155.291L26.0806 155.655L25.1176 156.857L24.3728 156.604L21.1264 157.037L18.3445 158.089L18.3466 159.081L17.6369 159.883L16.5747 159.629L14.0984 160.579L13.0569 161.491L11.835 161.853L10.9442 159.214L10.719 157.671L9.05948 155.352L9.48829 153.333L11.7631 150.634L12.8171 147.943L14.046 138.752L15.3159 134.429L17.8375 127.883L18.1964 126.322L19.1606 124.772L19.1153 123.779L16.4424 123.41L13.3332 123.579L10.4047 123.488L7.92534 121.877L5.17532 120.442L2.56019 117.651L2.53906 115.088L2.85063 113.55L4.50529 110.716L6.29878 108.504L8.265 106.995L10.7151 104.61L13.1981 103.381L15.0167 102.863L17.0994 101.261L20.1833 100.669L21.4061 99.9317L22.2022 97.7398L23.0085 96.8776L24.5269 96.5908L28.2318 95.4382L30.1637 93.5667L31.3327 91.4504L31.8824 89.4896L31.0856 85.318L31.55 83.1463L31.3587 80.9638L31.5825 78.1701L31.4594 76.8267L30.8502 75.1424L29.8812 73.69L29.5248 72.2557L28.3166 70.9257L27.2714 66.9494L26.9844 64.1451L25.7544 61.2288L25.7836 59.5154L25.0885 55.3713L25.4704 54.2445L24.6783 51.2982L33.7098 52.3163L35.7808 52.1607L38.4855 52.4414L41.5513 52.4656L46.3987 51.7255L47.2169 51.4239L48.1019 49.9657L48.7633 49.9669L49.4375 48.8743L49.6121 47.5336L50.649 48.3567L50.9958 46.9077L51.9011 46.0552L53.4677 45.4359L55.4943 46.14L56.6036 45.5288L57.4793 46.1512L59.2531 46.7169L60.3194 46.1357L61.5023 46.477L61.9718 45.7962L65.6006 44.2987L67.714 44.6312L68.7425 46.4913L70.2483 46.7126L71.5104 45.1763L72.9424 44.842L75.2652 40.6262L76.8061 41.9205L82.2411 41.3128L83.246 41.8315L84.5805 41.5559L86.038 41.8233L86.2832 40.5233L89.0859 40.5554L90.149 41.4136L90.8499 42.8645L92.7349 44.0976L96.4161 43.5204L97.3761 42.6119L98.5432 42.6334L98.9061 41.8794L98.862 38.3604L100.579 38.0412L101.174 38.8561L102.749 39.3322L102.707 40.7695L103.221 41.671L105.16 42.6404L106.958 42.2688L109.557 42.188L116.034 41.0432L118.604 40.7825L120.734 40.2216L125.321 39.397L128.475 38.9739L134.906 37.4507L138.711 36.7602L140.666 35.9501L149.543 32.6613L150.802 32.7737L154.065 32.4075L156.291 31.4009L157.197 30.5563L157.993 30.5557L159.951 29.185L161.15 29.2244L165.11 27.3144L167.176 26.7212L169.774 24.9644L170.951 23.9099L171.11 21.5663L172.421 20.7846L174.541 20.5412L176.497 19.7271L177.566 17.0958L179.483 15.4468L181.122 14.6207L182.023 13.37L183.61 13.0087L184.949 11.5578L185.432 9.65569L187.524 8.54791L188.961 9.03063L190.43 9.05516L192.103 8.39559L193.072 8.82198L195.155 8.2587L196.677 8.95826L198.59 8.53398L201.002 9.51245L201.638 8.4504L203.322 8.14514L204.466 8.47281L205.791 9.71807L206.533 9.00913L207.617 9.58846L208.829 7.85381L209.373 6.32903L211.58 4.18555L212.143 4.85815L213.289 4.48202L215.282 5.08255L217.056 5.04621L217.834 5.75636L218.884 5.81602L220.317 5.18854L222.87 5.92595L225.919 5.12798L227.535 4.9275L228.712 5.27182L229.453 6.80236L230.969 8.7384L232.503 8.43162L234.811 8.9313L235.761 8.21449L236.328 8.96492L237.477 8.98279L239.356 7.9804L241.126 8.86256L242.262 9.79378L244.579 11.0899L246.173 9.95489L247.703 10.3343L249.277 8.77716L250.027 9.1972L252.59 9.19871L252.953 9.94914L252.528 13.2437L251.729 14.4223L252.168 16.3387L254.076 17.4801L256.138 16.2851L258.229 14.4335L258.499 15.4063L261.133 15.1458L262.458 15.4892L263.407 14.5341L265.919 15.3705L267.047 16.6334L268.621 16.6543L270.662 15.5098L271.866 13.6422L272.354 14.062L273.941 13.363L273.79 15.0138L274.904 15.9287L274.793 16.6876L276.846 17.7669L279.734 16.9429L280.21 17.438L281.337 16.5349L283.376 17.1464L285.012 14.9108L285.686 14.5719L286.277 15.7872L290.383 15.29L291.094 14.9629L293.63 14.8978L295.454 15.4175L296.116 15.0731L296.681 12.4315L297.761 12.3343L296.803 10.3568L296.615 9.07091L297.113 8.25113L298.024 8.74203L299.136 7.45134L301.072 8.32593L302.127 7.92074L303.933 8.80714L305.576 11.52L307.819 12.2131L308.632 11.8189L311.069 13.3715L312.705 13.8212L313.669 14.588L314.185 15.654L315.21 15.9804L315.972 17.2248L317.954 19.5233L318.878 19.3637L318.816 17.8271L322.072 16.2718L321.791 21.6332L322.017 23.5223L324.124 26.8889L323.661 30.4948L322.843 33.115L321.37 35.4235L320.403 38.1369L319.296 38.8343L317.557 38.8044L314.733 37.7599L313.004 36.6693L311.838 36.4816L310.711 35.5588L309.062 33.5713L307.297 32.903L305.796 33.1519L304.12 33.9117L303.433 34.8799L302.545 36.9988L301.519 38.6781L301.076 39.9996L301.422 41.3L303.113 43.1613L303.853 45.8341L303.936 47.9694L303.079 51.0635L303.064 52.0741L303.863 54.7287L305.669 57.9043L306.736 58.7362L310.95 63.7563L311.317 64.9195L309.899 66.5145L308.173 67.553L306.278 69.1522L303.475 70.5241L301.417 70.8521L297.2 70.5944L296.413 70.816L296.074 72.3605L296.351 73.8489L297.531 75.5996L298.926 76.6923L302.338 76.8292L304.944 77.543L306.211 78.7507L308.078 81.5716L310.615 84.4782L311.971 85.1599L314.389 85.0878L316.794 83.6857L320.204 86.4167L320.69 88.9254L320.291 91.3835L318.667 95.3043L318.29 96.7967L317.352 98.7615L316.346 99.9656L315.17 100.618L314.512 102.622L314.316 104.906L315.492 106.235L318.326 111.658L319.762 115.338L320.338 117.557L318.29 119.263L315.338 124.939L313.531 127.465L311.258 131.029L310.536 133L309.753 137.903L309.32 144.918L309.368 148.181L309.655 151.116L309.426 153.009L308.96 153.869L306.956 155.711L302.996 159.882L300.551 163.025L298.912 164.745L297.709 165.13L295.519 163.877L294.48 161.673L293.027 160.717L290.076 159.475L287.946 157.576L284.43 159.144L279.785 160.99L277.323 161.453L276.287 161.226L275.278 159.577L275.246 157.217L274.865 154.911L272.989 152.747L270.484 149.492L270.041 148.231L269.85 145.507L269.239 141.815L268.621 139.436L268.297 136.839L267.574 136.307L265.255 135.936L264.426 135.542L260.466 134.367L259.339 134.319L257.954 134.826L257.191 136.004L257.864 140.04L258.935 142.694L259.417 144.765L259.83 152.774L260.153 154.389L260.223 160.332L259.223 162.763L255.58 167.94L255.434 169.982L256.64 172.858L256.868 173.942L256.657 176.682L255.533 180.308L254.868 183.788L254.663 186.476L255.028 188.718L255.993 192.437L255.88 195.976L254.219 198.749L253.271 199.454L251.584 199.365L249.88 197.84L247.755 198.705L247.138 198.606L246.291 196.458L244.877 196.384L241.783 198.73L238.803 200.475L237.245 199.139L237.128 200.706L236.508 201.523L235.131 202.14L230.304 201.781L228.585 203.565L224.693 203.649L222 204.514L222.089 205.391L223.564 208.157L223.871 210.827L222.692 212.656L222.173 214.011L222.273 216.73L219.546 216.629L217.437 216.923L215.888 216.73L210.898 214.355L208.374 214.006L206.962 213.443L205.967 214.658L205.806 215.47L204.425 215.661L201.242 214.818L200.006 213.93L197.76 213.282L194.658 213.549L192.678 214.072L191.241 214.942L189.744 213.905L187.891 214.104L186.296 213.779L181.956 215.451L181.425 214.656L178.707 214.554L178.042 214.071L175.815 213.568L175.231 213.049L172.874 213.521Z" fill="#1E1E1E" stroke="white" stroke-width="5"/>
</svg>
