<svg width="463" height="348" viewBox="0 0 463 348" fill="none" xmlns="http://www.w3.org/2000/svg">
<path d="M269.058 67.5156L266.269 71.3258L265.718 72.9294L265.369 75.6965L265.743 80.7811L265.987 81.3639L268.557 81.9995L271.005 83.508L272.91 84.1058L275.761 82.7444L279.3 80.4573L280.115 81.1644L282.104 84.3225L283.834 86.1141L286.363 89.3081L290.088 95.3309L290.628 95.9559L292.091 99.0329L292.729 99.8808L295.906 101.526L297.114 102.753L300.453 104.994L302.197 108.248L302.928 111.041L303.477 111.892L305.072 112.755L308.647 112.655L310.674 113.369L312.162 114.736L313.639 117.136L317.464 118.075L319.982 119.629L321.505 122.012L323.103 122.389L328.663 121.084L330.992 121.495L335.816 122.854L336.688 123.294L338.051 124.888L339.809 128.178L341.197 129.88L342.406 130.64L345.168 131.634L349.744 134.881L350.79 135.306L352.864 135.441L356.257 136.412L361.369 140.549L363.595 141.817L365.133 143.192L365.854 144.659L366.465 147.553L367.009 148.139L369.239 148.014L370.998 149.103L373.16 150.043L376.242 149.858L378.596 149.067L381.064 147.132L384.722 139.599L386.782 137.115L387.596 135.438L390.075 133.398L392.878 131.993L395.314 131.924L396.833 132.193L398.236 133.586L398.787 136.094L401.164 138.494L401.375 139.678L403.519 141.132L403.937 143.838L405.228 142.828L406.029 143.074L407.28 145.437L409.254 146.456L411.62 146.982L413.186 148.038L414.59 149.397L416.003 147.501L417.264 149.115L418.276 152.231L417.999 153.292L415.676 155.207L417.967 161.599L417.658 163.747L419.107 167.666L418.431 169.817L418.926 171.147L419.12 173.061L419.987 173.599L421.378 173.291L423.2 173.809L425.991 173.874L426.273 174.501L426.283 177.132L426.76 178.471L428.895 179.087L432.686 180.838L435.537 183.18L439.542 185.02L442.863 188.212L446.255 192.506L447.95 194.084L453.619 197.149L458.124 198.899L459.558 199.599L457.628 204.64L456.348 208.623L454.093 212.507L453.463 214.054L451.792 219.467L451.764 222.199L453.122 225.793L456.729 230.801L456.372 232.594L453.817 236.144L451.874 238.287L449.079 240.092L446.882 242.052L446.108 243.309L445.746 245.154L446.728 247.504L448.569 250.209L449.487 252.799L449.606 254.449L448.893 257.669L448.102 258.235L445.527 258.195L443.26 257.049L439.413 253.401L438.579 252.879L436.954 252.895L429.541 256.065L428.844 256.657L429.352 258.725L432.683 266.228L433.532 269.063L433.397 269.907L430.875 269.925L429.024 270.55L427.017 270.664L423.52 269.989L422.355 270.063L420.411 270.789L418.31 272.29L414.621 272.975L414.121 274.56L414.471 278.021L412.029 279.765L410.537 281.416L409.052 282.614L406.662 283.889L404.516 285.46L402.728 288.372L401.053 289.124L400.647 290.148L398.723 291.275L397.084 295.163L396.574 297.231L394.892 301.442L392.892 304.535L392.848 305.556L394.166 307.956L392.789 310.431L388.667 314.03L386.658 315.207L384.061 315.897L378.285 316.675L374.844 317.787L373.625 318.872L371.316 320.246L369.99 320.448L368.221 320.034L366.44 320.362L364.803 321.264L359.507 321.835L356.04 321.498L352.43 320.887L350.199 321.328L347.598 323.265L346.561 324.676L346.334 325.678L344.367 326.879L342.798 327.244L341.03 328.07L337.823 331.036L334.261 332.466L333.86 333.533L336.84 335.692L337.327 336.703L339.743 340.227L340.25 341.474L340.159 342.652L338.96 344.931L336.622 344.637L332.712 345.024L330.634 344.194L329.794 342.96L330.694 341.583L328.835 340.404L328.41 339.55L329.996 337.545L330.193 336.137L330.98 333.973L331.236 331.524L331.068 330.263L329.812 328.969L327.469 327.74L324.367 327.742L322.387 327.039L319.632 324.656L318.208 321.961L316.154 319.659L315.543 318.308L317.477 316.954L318.908 314.977L320.929 312.868L323.864 312.279L325.425 311.386L326.187 309.774L325.935 307.504L323.906 305.551L321.519 303.784L320.458 302.628L318.836 300.162L317.403 297.121L317.093 295.6L317.853 289.823L317.903 286.341L315.783 280.564L309.737 267.384L308.235 264.844L306.615 262.642L303.038 258.534L293.927 251.135L289.185 247.457L286.309 245.763L283.164 245.242L279.942 245.94L279.141 246.641L276.977 247.142L272.932 247.431L266.675 247.51L264.039 246.995L262.098 246.269L257.129 243.946L248.033 240.335L241.931 237.071L236.636 234.739L232.617 233.322L230.384 232.272L227.188 231.081L221.097 228.328L217.02 227.078L214.188 225.698L210 224.151L207.769 225.251L202.145 230.228L201.312 231.628L197.045 234.289L194.769 235.449L191.404 236.43L188.594 236.212L186.39 235.502L183.778 234.047L180.292 234.117L179.411 232.92L176.854 232.172L175.675 232.527L175.283 235.17L173.798 235.744L172.294 237.079L169.851 237.144L168.801 236.855L167.053 234.719L164.612 235.173L164.181 234.815L164.502 230.986L163.986 226.706L164.134 225.269L163.772 221.604L161.862 220.805L157.789 220.548L157.902 219.626L155.044 219.396L151.471 218.238L147.969 216.033L143.087 212.218L136.988 206.019L135.662 204.242L132.744 202.704L129.067 200.167L127.103 198.083L124.88 197.024L123.881 195.818L119.997 195.617L118.916 194.975L117.929 193.723L116.795 192.989L115.208 193.692L113.478 193.361L111.89 189.836L109.249 188.961L108.958 185.622L107.306 183.559L105.596 183.394L104.588 184.585L102.413 185.189L100.5 183.87L99.6033 180.446L99.2065 179.631L97.2535 178.452L93.5904 179.802L92.0935 179.527L90.2954 178.118L88.5185 177.768L87.1731 178.822L83.6309 182.509L82.3952 184.066L80.4466 185.233L78.6658 185.673L75.7354 186.916L69.2797 187.329L67.4722 187.995L65.9825 189.059L63.9768 191.452L59.8606 193.198L56.9218 194.085L52.3871 196.359L51.1963 199.918L50.6121 200.778L48.4979 202.638L48.068 204.392L48.2679 206.038L46.1721 206.258L42.633 206.147L38.5549 205.526L36.027 203.24L35.5493 204.033L33.8812 202.485L32.4021 201.708L31.534 199.891L32.3173 198.714L34.1828 198.103L35.7689 197.003L37.1789 195.074L37.9286 191.684L38.7673 190.704L39.0627 188.374L38.3181 187.759L36.6049 187.396L35.6056 187.722L32.3932 187.049L30.4495 185.647L28.5944 179.604L26.7174 177.896L25.8852 174.053L24.5623 173.24L21.7818 172.853L19.6527 173.57L17.7926 174.71L14.3086 176.06L12.5681 176.308L10.1645 176.026L7.49539 174.952L4.07812 173.101L4.97673 172.155L4.57659 170.871L5.76621 169.931L6.69918 170.223L6.26607 168.167L7.66104 166.447L8.45297 163.968L8.49928 162.823L7.79408 161.219L8.82234 160.14L8.54131 158.575L9.30049 157.681L8.41872 156.86L8.8971 156.129L10.8542 155.256L11.8174 153.136L13.092 152.458L13.7061 151.54L13.0986 150.645L14.3074 149.003L13.7155 147.721L15.0763 146.582L14.8251 144.965L16.5045 143.403L16.8948 142.212L19.1363 140.894L19.11 140.047L18.2158 139.291L18.0436 137.928L19.5963 136.848L20.0207 135.737L19.3161 134.081L21.067 132.424L21.9454 130.746L23.8979 129.318L24.1962 125.777L25.9237 124.178L26.8882 122.659L28.7847 121.63L29.7591 120.274L31.8501 120.136L33.6216 121.042L36.1114 122.72L38.8721 121.661L40.0992 118.687L42.0469 118.37L43.2997 119.018L46.0339 121.575L49.7598 125.492L50.857 126.919L51.464 129.363L51.2981 130.808L49.7249 132.403L48.7857 135.672L49.306 136.474L50.5302 136.641L52.3959 137.516L53.3121 139.485L54.5553 140.974L55.4155 142.617L56.3666 146.357L57.7951 147.804L58.6834 149.943L59.9868 149.912L60.6956 149.211L64.8501 143.183L69.9549 135.978L73.2321 129.866L75.7907 128.302L77.4245 126.839L77.8201 125.561L74.1905 123.532L73.7897 123.005L72.9449 119.925L72.5359 116.728L70.547 116.423L69.2643 113.257L69.1416 110.206L68.424 109.482L66.3916 108.943L65.5978 108.18L65.6161 107.081L66.5504 105.504L68.0195 105.018L72.9084 102.697L78.7026 100.585L79.4652 101.14L81.0859 104.97L82.5877 107.336L83.38 107.979L86.0905 108.786L89.346 110.621L90.6276 111.911L91.4908 115.234L91.723 117.066L93.1564 117.127L95.9594 115.385L98.8685 114.398L98.4051 111.426L99.3407 109.895L102.81 106.976L105.987 105.232L107.99 103.797L110.473 102.633L113.111 100.387L113.876 98.591L116.972 96.119L117.859 94.9146L118.778 92.5973L119.05 91.0938L119.384 85.7598L120.08 84.6683L124.422 83.1928L126.784 81.2897L127.786 81.2033L130.506 81.7238L133.375 79.7407L134.713 77.8788L136.297 76.2643L138.096 75.3265L140.559 72.6399L142.168 71.9094L146.008 68.7542L149.389 67.081L151.992 64.4228L155.38 62.83L157.149 61.6472L157.624 59.4219L160.002 59.1568L164.049 60.5187L166.968 60.374L168.538 59.6904L169.567 58.2975L169.476 57.5486L166.846 54.4307L165.276 50.369L165.69 48.1127L166.463 47.2475L168.628 45.7855L168.577 44.9105L169.555 43.2691L171.463 41.7858L171.69 40.157L170.597 38.3608L169.231 33.6085L169.384 31.8657L170.973 29.197L172.655 28.1754L174.683 27.5325L177.899 26.895L183.915 25.4054L186.134 25.3942L191.453 26.7952L195.624 26.7722L197.853 25.8634L200.425 24.5126L203.512 24.0778L205.072 25.1576L207.379 28.162L212.292 30.9003L213.379 32.1084L214.023 33.8018L214.831 34.419L217.838 33.279L221.574 30.0396L221.962 28.7851L223.664 26.6757L226.8 22.0233L227.099 19.4964L227.718 17.9006L231.423 15.014L232.037 11.8966L233.007 10.7201L233.734 8.9152L233.87 6.84376L233.732 4.25567L237.148 3.69902L239.009 3.00259L240.731 2.83594L244.181 3.25796L251.092 4.30585L257.438 4.74178L258.946 5.30597L260.56 6.76803L262.037 8.83126L263.631 11.778L265.026 17.4342L265.881 18.9189L265.663 20.9076L265.103 21.859L262.867 23.6625L262.213 25.1291L259.658 26.3188L258.411 28.2622L256.278 32.4999L255.625 34.8791L255.365 36.9881L255.155 41.1935L254.43 45.0718L253.127 46.2119L253.886 47.6338L255.934 49.1256L257.462 51.5633L259.619 52.706L258.902 54.0928L257.969 56.8933L255.438 58.7297L254.972 60.0757L258.02 62.7913L262.176 64.9859L263.309 65.3341L267.786 65.1426L269.422 65.8984L269.058 67.5156Z" fill="#1E1E1E" stroke="white" stroke-width="5"/>
</svg>
