<svg width="412" height="353" viewBox="0 0 412 353" fill="none" xmlns="http://www.w3.org/2000/svg">
<path d="M41.0825 349.35L39.858 348.98L40.5659 347.854L41.7574 348.212L41.0825 349.35ZM264.986 320.934L263.465 321.381L262.754 322.372L263.177 323.306L260.068 324.473L257.908 326.728L256.795 325.269L255.538 325.13L254.882 326.65L254.196 326.939L252.455 326.607L251.625 327.37L249.738 328.194L246.357 329.263L245.986 329.97L243.085 330.052L241.251 329.539L240.338 330.054L239.022 331.749L238.351 331.906L237.236 330.761L234.449 333.115L232.606 334.041L229.925 333.35L228.621 331.62L229.714 330.08L229.776 329.08L228.324 328.78L226.208 329.236L225.749 328.893L224.009 329.881L222.616 330.036L222.206 328.449L220.606 329.143L220.03 328.386L218.42 328.304L217.398 327.346L213.088 328.859L212.221 329.659L210.929 328.426L208.212 329.176L207.53 328.882L204.962 329.1L204.221 330.114L202.834 329.888L201.256 330.555L198.764 332.569L197.589 332.969L196.878 332.544L195.742 332.759L194.494 335.848L192.721 336.702L190.35 339.32L188.063 340.951L186.028 341.384L184.544 342.758L184.166 340.776L183.164 338.981L181.547 338.363L180.838 339.322L179.758 339.672L175.782 339.244L175.241 339.554L172.756 338.322L171.122 336.842L169.175 338.292L168.464 338.211L166.227 336.427L165.418 337.05L165.143 339.241L164.376 338.63L163.986 337.036L161.258 336.504L160.216 336.08L159.209 336.695L157.094 337.142L156.096 338.013L155.418 339.234L153.473 341.551L151.956 342.435L151.6 341.39L149.653 340.116L147.754 340.305L147.091 341.451L146.641 344.045L145.183 344.517L142.513 342.734L140.486 342.616L138.771 341.882L137.218 342.793L135.742 341.904L134.827 342.438L131.038 341.788L129.532 341.24L126.466 342.141L125.508 341.906L124.322 342.509L123.506 342.173L122.058 342.565L121.064 343.697L121.656 347.041L120.649 347.514L119.788 346.564L118.595 346.416L118.284 347.107L116.85 346.688L116.093 345.598L115.529 343.534L115.851 342.602L114.566 341.865L113.736 342.608L112.391 342.319L111.802 342.811L110.4 342.163L108.903 342.504L106.423 342.503L103.991 343.917L103.351 343.554L102.517 344.339L101.22 343.838L100.387 344.186L100.406 345.511L99.83 346.841L97.9367 346.716L97.4677 345.361L95.9995 344.588L91.4451 342.79L88.8504 342.919L88.1876 343.453L86.001 343.874L85.6681 345.026L84.6296 343.846L81.5771 341.69L79.7494 341.156L78.7811 340.481L77.4254 340.458L74.5842 339.629L71.862 339.572L70.2833 338.682L66.9668 337.677L64.926 337.913L60.6644 337.282L57.7226 337.708L57.0335 338.494L55.7471 338.683L54.0991 338.284L52.9351 339.153L51.7241 338.432L50.3116 339.186L49.5953 338.792L48.0069 339.592L47.1046 339.488L45.6223 340.009L43.4255 342.053L42.6333 343.475L41.3924 344.001L41.8962 346.572L40.1668 346.354L38.0316 347.11L37.46 348.091L36.6878 347.593L33.7743 348.044L33.2292 347.174L32.2504 346.987L30.0387 348.602L28.4711 349.126L27.4796 348.406L27.4935 346.023L26.9484 344.917L25.9591 344.76L25.0813 345.46L24.4298 347.148L23.0278 347.199L22.3579 346.487L19.5657 347.319L20.3174 348.768L19.9748 349.456L18.7406 349.58L18.6382 348.176L17.6505 347.4L13.8525 346.904L12.5052 347.227L10.4225 349.057L7.994 349.174L7.10503 348.727L7.13614 345.747L7.49623 342.889L8.10544 341.695L11.099 340.323L14.0563 339.222L13.9823 338.362L15.7867 337.642L15.7078 336.582L14.8759 335.828L15.4166 332.644L16.4142 332.232L17.5711 332.69L17.6064 331.225L15.9457 331.452L15.2775 330.839L16.5287 329.37L16.5505 328.025L17.156 326.437L15.7133 325.924L16.4567 324.514L14.7164 324.549L15.1278 323.138L14.0668 322.672L14.0413 321.823L15.0066 320.281L16.4567 319.519L16.1031 315.652L16.2879 314.86L15.9395 311.678L16.5252 310.381L16.1619 309.748L16.2067 307.789L13.9073 307.11L13.6347 305.549L14.0828 303.648L15.4143 303.06L14.6491 301.762L15.1273 298.631L15.0972 297.618L16.4242 296.115L19.6797 295.415L21.2052 293.983L21.39 289.611L21.1117 285.057L19.8422 275.609L19.1357 272.38L18.2855 267.197L17.2477 262.832L16.3764 260.197L15.959 257.629L14.5035 253.982L14.0907 251.784L12.3137 248.712L10.331 246.653L8.70768 246.231L7.49391 244.534L5.56367 242.432L3.26522 240.734L3.16446 238.014L3.68335 236.659L4.86299 234.831L4.55607 232.161L3.08064 229.395L2.99219 228.518L5.68463 227.653L9.57645 227.569L11.2956 225.785L16.1229 226.144L17.4996 225.526L18.12 224.71L18.2363 223.143L19.7944 224.478L22.7747 222.733L25.8683 220.388L27.2831 220.461L28.1296 222.61L28.7463 222.708L30.8713 221.844L32.5754 223.369L34.2628 223.458L35.2112 222.753L36.8721 219.979L36.9849 216.441L36.0194 212.722L35.6546 210.48L35.8596 207.792L36.5243 204.311L37.6492 200.686L37.8593 197.946L37.6315 196.862L36.4259 193.986L36.5715 191.944L40.2146 186.767L41.215 184.336L41.1445 178.392L40.8213 176.777L40.4085 168.768L39.9265 166.698L38.8557 164.043L38.1825 160.008L38.9458 158.83L40.3309 158.323L41.4576 158.371L45.4182 159.546L46.2468 159.94L48.5659 160.311L49.2884 160.843L49.6128 163.44L50.2303 165.819L50.8414 169.511L51.0327 172.235L51.4759 173.496L53.9812 176.751L55.8569 178.915L56.2376 181.221L56.2701 183.58L57.2789 185.23L58.3148 185.457L60.7772 184.994L65.4217 183.148L68.9379 181.58L71.068 183.479L74.0189 184.721L75.4722 185.676L76.5109 187.881L78.7005 189.134L79.9036 188.749L81.5432 187.029L83.9874 183.886L87.9482 179.715L89.9518 177.873L90.4178 177.013L90.6469 175.12L90.3599 172.185L90.3121 168.922L90.7444 161.907L91.5275 157.004L92.25 155.033L94.5222 151.468L96.3297 148.942L99.2817 143.266L101.33 141.561L100.754 139.341L99.3181 135.662L96.4836 130.238L95.3077 128.91L95.5034 126.626L96.162 124.622L97.3377 123.969L98.3439 122.765L99.2814 120.8L99.6589 119.308L101.283 115.387L101.682 112.929L101.196 110.42L97.7856 107.689L95.3808 109.092L92.9625 109.164L91.6071 108.482L89.0698 105.575L87.2027 102.754L85.9353 101.547L83.3299 100.833L79.918 100.696L78.5224 99.6034L77.3426 97.8527L77.0654 96.3642L77.4043 94.8198L78.1914 94.5981L82.4091 94.8558L84.4669 94.5278L87.2696 93.156L89.1643 91.5567L90.8907 90.5183L92.3083 88.9232L91.9422 87.76L87.7279 82.7399L86.6606 81.908L84.855 78.7325L84.0559 76.0778L84.0712 75.0672L84.9272 71.9731L84.8448 69.8378L84.1047 67.165L82.4136 65.3038L82.0676 64.0034L82.5106 62.6818L83.5363 61.0026L84.4251 58.8836L85.112 57.9155L86.7876 57.1556L88.289 56.9067L90.0535 57.5751L91.7023 59.5626L92.8293 60.4853L93.9952 60.6731L95.7246 61.7636L98.5482 62.8081L100.288 62.8381L101.394 62.1406L102.362 59.4272L103.835 57.1187L104.653 54.4985L105.116 50.8927L103.008 47.526L102.783 45.6369L103.063 40.2755L103.313 41.2873L104.535 42.8099L105.258 42.1573L107.104 41.4959L107.597 40.6707L108.854 40.6447L110.414 41.2546L111.757 41.2355L112.158 41.7406L113.972 42.0153L115.827 43.8111L117.903 43.3172L119.05 42.5931L119.072 40.5647L120.732 40.4633L120.261 38.1508L120.968 36.3786L121.421 34.0056L122.78 31.9626L123.337 30.3279L122.881 29.192L123.251 28.2583L124.535 28.1587L125.484 30.777L127.048 31.6165L127.324 32.2752L132.251 35.1791L133.144 37.0082L135.536 36.6545L137.593 34.9214L138.401 32.8315L139.292 31.7846L142.549 33.2815L144.313 32.6352L144.904 33.0011L146.508 32.244L148.1 33.6703L148.243 34.5779L147.266 35.2414L148.143 36.0815L146.88 37.3101L147.381 38.1675L147.083 39.0805L148.612 39.1287L149.08 40.3636L147.642 40.4681L147.137 41.9154L148.866 43.6137L150.565 43.4093L150.997 44.061L150.798 45.4719L151.994 45.7741L153.096 45.553L153.841 44.0195L154.881 44.9174L158.052 45.2605L158.72 44.8917L158.718 42.3536L159.882 42.2506L160.428 44.0004L158.72 44.8917L159.2 47.3649L160.322 48.7362L161.362 48.5978L162.19 49.1868L161.913 50.5193L160.694 50.9781L158.428 52.5443L157.962 54.8626L156.772 56.5984L156.366 59.1492L157.075 60.5432L156.397 62.7645L157.049 63.2096L157.351 68.3237L157.758 69.8872L157.724 72.0601L158.219 73.6905L158.815 73.8689L159.584 77.5366L160.111 77.9678L161.23 80.6746L163.947 82.19L168.046 83.3719L170.597 83.9295L175.039 84.4503L177.821 84.583L185.529 84.4488L193.852 83.5833L194.45 83.0049L195.782 82.991L198.032 82.2966L199.367 82.4028L201.313 81.9871L203.667 81.137L204.401 81.9062L205.207 81.0586L205.927 81.8932L207.505 81.8368L208.19 81.091L208.931 81.6885L211.676 82.282L213.145 81.5143L213.705 79.4587L215.433 80.1846L217.029 79.9799L218.426 80.3766L220.633 80.5219L223.396 79.7121L225.544 80.289L228.051 79.9632L229.035 80.3996L229.763 82.6721L230.756 83.2575L232.251 82.6727L231.385 85.8252L232.047 87.3654L235.138 88.3015L238.176 87.9429L241.119 87.8924L243.786 86.8924L244.648 87.4133L247.37 86.463L248.172 86.7098L248.442 88.3024L251.47 88.4096L252.685 89.3393L256.012 88.2873L256.723 87.2719L257.501 88.0925L261.026 88.8269L262.081 88.2473L264.285 88.6607L266.502 88.512L270.194 87.8854L273.205 86.6756L274.79 86.6532L276.786 87.4823L284.407 86.8742L286.538 85.3652L288.81 86.3564L290.912 86.0684L293.179 86.6719L294.306 86.2455L296.639 85.9654L299.665 86.016L303.999 85.1808L306.436 85.6898L314.102 84.8398L315.383 83.954L317.814 84.073L320.306 83.666L321.79 84.4252L325.676 84.8425L325.855 86.0018L325.558 88.0459L326.791 90.3117L326.544 91.3632L327.363 93.6757L328.973 94.2553L329.141 97.1852L331.091 98.9583L332.67 100.724L333.403 100.901L334.366 102.478L335.236 102.04L335.423 103.44L337.355 104.423L338.273 104.379L340.453 105.403L342.702 104.932L344.571 107.439L344.135 109.536L344.251 110.48L345.568 111.976L347.194 112.621L348.661 112.66L350.012 113.292L354.078 114.052L355.216 113.667L356.268 113.977L360.616 113.507L362.621 112.519L364.19 112.913L365.509 112.36L366.376 112.536L367.663 111.634L368.785 112.406L369.521 111.657L371.372 111.919L371.709 111.434L374.772 110.819L375.839 111.078L378.189 109.352L379.141 109.446L381.01 108.975L382.452 110.427L382.063 112.499L380.987 112.988L380.675 113.935L380.978 116.017L382.248 116.921L383.068 118.061L382.594 121.422L383.266 123.329L384.107 124.447L384.957 126.502L384.678 127.631L383.287 129.816L382.497 130.569L380.63 131.193L380.027 131.955L379.582 133.562L379.354 137.866L378.631 140.192L379.115 142.748L379.901 144.888L381.196 146.553L382.065 146.652L384.597 148.54L385.955 150.347L387.309 152.595L388.083 154.719L387.421 155.295L384.848 154.957L381.495 155.238L378.65 155.999L374.276 156.487L372.995 156.832L370.045 158.487L368.532 160.255L367.884 161.428L367.334 163.738L366.245 165.74L364.218 167.502L361.686 169.061L358.073 171.749L354.741 172.355L352.966 172.018L348.619 168.448L346.946 167.571L344.038 167.297L342.187 168.479L341.302 170.344L340.566 171.176L339.048 173.982L338.782 175.68L339.087 177.319L340.034 180.031L340.295 182.56L340.148 183.93L338.335 187.065L335.314 190.343L333.425 191.383L332.489 192.985L333.24 194.77L334.34 196.115L336.14 199.116L337.372 199.779L339.75 200.125L339.91 201.178L338.646 203.654L338.416 205.26L338.558 207.63L338.363 209.585L337.081 212.256L336.989 214.25L337.957 214.904L339.694 214.789L341.949 215.803L343.44 218.371L343.772 221.122L343.288 222.433L342.69 225.245L342.85 226.739L343.73 227.663L344.97 228.229L347.611 228.809L349.518 229.838L352.518 229.435L354.29 229.703L358.355 233.379L359.604 233.78L363.586 236.014L364.201 236.66L372.338 237.01L371.954 238.45L371.131 239.254L368.244 240.191L367.171 241.278L366.867 242.416L367.79 243.7L370.18 245.002L372.145 245.438L376.1 247.194L378.404 247.402L379.781 247.848L381.349 248.794L381.632 248.25L383.778 249.86L385.014 252.823L386.255 254.531L387.589 257.029L388.082 259.519L387.828 261.396L386.257 263.394L384.898 264.538L381.915 266.3L381.26 266.441L379.481 269.882L380.447 271.47L380.878 274.181L381.649 274.182L384.652 275.371L388.243 275.372L390.552 276.084L393.838 276.129L395.286 276.549L396.026 277.625L397.053 281.55L399.012 283.851L400.075 284.402L403.355 285.468L404.305 286.127L405.368 287.681L405.726 289.217L405.867 293.767L405.494 295.759L405.775 297.594L408.327 303.116L407.872 304.314L404.69 306.647L402.726 307.084L398.337 305.304L394.486 305.172L392.703 305.472L390.657 306.375L390.025 307.568L385.615 309.388L384.236 311.033L382.614 311.126L380.763 309.885L378.662 309.211L376.17 310.345L374.422 309.916L373.782 308.97L372.084 307.875L370.955 307.896L368.016 306.82L358.581 305.065L350.86 306.162L349.234 307.232L347.756 307.198L346.411 306.606L345.174 306.831L343.884 306.558L341.35 308.204L338.891 306.625L337.856 306.752L334.868 304.444L333.999 304.349L330.75 302.343L327.67 301.279L321.763 300.603L319.283 300.784L317.655 301.991L315.786 302.18L313.77 304.016L313.428 304.78L310.551 305.899L307.388 306.371L303.036 307.572L301.447 309.048L298.454 310.948L296.918 310.946L295.036 310.055L293.87 309.855L290.433 310.976L289.434 311.094L288.491 310.098L287.118 309.966L285.9 309.332L285.076 309.811L284.232 308.922L282.276 308.325L279.993 308.239L277.698 308.538L277.002 309.455L276.037 309.152L274.623 309.578L274.538 310.547L273.547 312.626L272.958 312.855L271.696 314.564L271.143 316.844L270.16 318.347L271.017 319.099L270.396 319.806L268.453 320.006L267.42 320.919L264.986 320.934ZM244.017 3.40451L244.955 3.24219L245.682 4.12223L248.849 6.61064L249.643 8.05548L252.287 9.19869L252.874 10.7653L254.414 11.2225L255.027 12.5347L256.191 13.4608L257.772 12.5417L259.222 12.4351L259.066 14.6392L257.408 15.4798L257.137 14.5416L256.19 14.3027L254.927 16.1194L255.854 18.358L255.754 19.5518L254.978 22.3457L254.215 24.3496L254.496 27.0234L255.396 28.4082L254.899 30.2955L254.112 29.7895L252.995 27.7047L253.236 26.3293L251.815 25.2097L251.807 23.7951L249.829 23.2004L249.999 26.4165L248.601 26.8374L247.625 25.4716L245.856 23.9895L245.096 22.1528L246.383 20.8915L246.641 20.0375L243.901 21.0678L243.183 19.8903L242.04 21.5072L242.103 23.1973L241.359 24.6491L240.314 23.9269L239.368 22.6807L239.602 20.1871L238.239 19.0327L237.13 19.2171L237.055 20.0851L236.218 21.0463L236.349 22.6256L235.058 22.6719L234.414 21.8403L234.839 20.7864L233.079 19.6887L232.821 17.9416L232.368 17.2902L230.171 18.725L230.342 20.3706L228.101 19.1881L227.641 18.2217L227.64 15.4187L228.455 14.6576L230.461 15.2503L231.619 14.4505L233.077 12.5081L234.226 12.4027L234.913 11.2319L236.848 10.7047L237.987 9.33799L239.472 11.0566L239.728 9.48093L240.989 9.53181L240.27 7.66149L240.334 5.71122L240.863 4.45838L242.055 5.01651L242.159 3.97142L242.932 3.24582L244.017 3.40451Z" fill="#1E1E1E"/>
<path d="M158.72 44.8917L158.052 45.2605L154.881 44.9174L153.841 44.0195L153.096 45.553L151.994 45.7741L150.798 45.4719L150.997 44.061L150.565 43.4093L148.866 43.6137L147.137 41.9154L147.642 40.4681L149.08 40.3636L148.612 39.1287L147.083 39.0805L147.381 38.1675L146.88 37.3101L148.143 36.0815L147.266 35.2414L148.243 34.5779L148.1 33.6703L146.508 32.244L144.904 33.0011L144.313 32.6352L142.549 33.2815L139.292 31.7846L138.401 32.8315L137.593 34.9214L135.536 36.6545L133.144 37.0082L132.251 35.1791L127.324 32.2752L127.048 31.6165L125.484 30.777L124.535 28.1587L123.251 28.2583L122.881 29.192L123.337 30.3279L122.78 31.9626L121.421 34.0056L120.968 36.3786L120.261 38.1508L120.732 40.4633L119.072 40.5647L119.05 42.5931L117.903 43.3172L115.827 43.8111L113.972 42.0153L112.158 41.7406L111.757 41.2355L110.414 41.2546L108.854 40.6447L107.597 40.6707L107.104 41.4959L105.258 42.1573L104.535 42.8099L103.313 41.2873L103.063 40.2755L102.783 45.6369L103.008 47.526L105.116 50.8927L104.653 54.4985L103.835 57.1187L102.362 59.4272L101.394 62.1406L100.288 62.8381L98.5483 62.8081L95.7246 61.7636L93.9952 60.6731L92.8293 60.4853L91.7023 59.5626L90.0535 57.5751L88.289 56.9067L86.7876 57.1556L85.112 57.9155L84.4251 58.8836L83.5363 61.0026L82.5106 62.6818L82.0676 64.0034L82.4136 65.3038L84.1047 67.165L84.8448 69.8378L84.9272 71.9731L84.0712 75.0672L84.0559 76.0778L84.855 78.7325L86.6606 81.908L87.7279 82.7399L91.9422 87.76L92.3083 88.9232L90.8907 90.5183L89.1643 91.5567L87.2696 93.156L84.4668 94.5278L82.4091 94.8558L78.1914 94.5981L77.4043 94.8198L77.0654 96.3642L77.3426 97.8527L78.5224 99.6034L79.918 100.696L83.3299 100.833L85.9353 101.547L87.2027 102.754L89.0698 105.575L91.6071 108.482L92.9625 109.164L95.3808 109.092L97.7856 107.689L101.196 110.42L101.682 112.929L101.283 115.387L99.6589 119.308L99.2814 120.8L98.3439 122.765L97.3377 123.969L96.162 124.622L95.5034 126.626L95.3077 128.91L96.4836 130.238L99.3181 135.662L100.754 139.341L101.33 141.561L99.2817 143.266L96.3297 148.942L94.5222 151.468L92.25 155.033L91.5275 157.004L90.7444 161.907L90.3121 168.922L90.3599 172.185L90.6469 175.12L90.4178 177.013L89.9518 177.873L87.9482 179.715L83.9874 183.886L81.5432 187.029L79.9036 188.749L78.7005 189.134L76.5109 187.881L75.4722 185.676L74.0189 184.721L71.068 183.479L68.9379 181.58L65.4217 183.148L60.7772 184.994L58.3148 185.457L57.2789 185.23L56.2701 183.58L56.2376 181.221L55.8569 178.915L53.9812 176.751L51.4759 173.496L51.0327 172.235L50.8414 169.511L50.2303 165.819L49.6127 163.44L49.2884 160.843L48.5659 160.311L46.2468 159.94L45.4182 159.546L41.4576 158.371L40.3309 158.323L38.9458 158.83L38.1825 160.008L38.8557 164.043L39.9265 166.698L40.4085 168.768L40.8213 176.777L41.1445 178.392L41.215 184.336L40.2146 186.767L36.5715 191.944L36.4259 193.986L37.6315 196.862L37.8593 197.946L37.6492 200.686L36.5243 204.311L35.8596 207.792L35.6546 210.48L36.0194 212.722L36.9849 216.441L36.8721 219.979L35.2112 222.753L34.2628 223.458L32.5754 223.369L30.8713 221.844L28.7463 222.708L28.1296 222.61L27.2831 220.461L25.8683 220.388L22.7747 222.733L19.7944 224.478L18.2363 223.143L18.12 224.71L17.4996 225.526L16.1229 226.144L11.2956 225.785L9.57645 227.569L5.68463 227.653L2.99219 228.518L3.08064 229.395L4.55607 232.161L4.86299 234.831L3.68335 236.659L3.16446 238.014L3.26522 240.734L5.56367 242.432L7.49391 244.534L8.70768 246.231L10.331 246.653L12.3137 248.712L14.0907 251.784L14.5035 253.982L15.959 257.629L16.3764 260.197L17.2477 262.832L18.2855 267.197L19.1357 272.38L19.8422 275.609L21.1117 285.057L21.39 289.611L21.2052 293.983L19.6797 295.415L16.4242 296.115L15.0972 297.618L15.1273 298.631L14.6491 301.762L15.4143 303.06L14.0828 303.648L13.6347 305.549L13.9073 307.11L16.2067 307.789L16.1619 309.748L16.5252 310.381L15.9395 311.678L16.2879 314.86L16.1031 315.652L16.4567 319.519L15.0066 320.281L14.0413 321.823L14.0668 322.672L15.1278 323.138L14.7164 324.549L16.4567 324.514L15.7133 325.924L17.156 326.437L16.5505 328.025L16.5287 329.37L15.2775 330.839L15.9457 331.452L17.6064 331.225L17.5711 332.69L16.4142 332.232L15.4166 332.644L14.8759 335.828L15.7078 336.582L15.7867 337.642L13.9823 338.362L14.0563 339.222L11.099 340.323L8.10544 341.695L7.49623 342.889L7.13614 345.747L7.10503 348.727L7.994 349.174L10.4225 349.057L12.5052 347.227L13.8525 346.904L17.6505 347.4L18.6382 348.176L18.7406 349.58L19.9748 349.456L20.3174 348.769L19.5657 347.319L22.3579 346.487L23.0278 347.199L24.4298 347.148L25.0813 345.46L25.9591 344.76L26.9484 344.917L27.4935 346.023L27.4796 348.406L28.4711 349.126L30.0387 348.602L32.2504 346.987L33.2292 347.174L33.7743 348.044L36.6878 347.593L37.46 348.091L38.0316 347.11L40.1668 346.354L41.8962 346.572L41.3924 344.001L42.6333 343.475L43.4255 342.053L45.6223 340.009L47.1046 339.488L48.0068 339.592L49.5953 338.792L50.3116 339.186L51.7241 338.432L52.9351 339.153L54.0991 338.284L55.7471 338.683L57.0335 338.494L57.7226 337.708L60.6644 337.282L64.926 337.913L66.9668 337.677L70.2833 338.682L71.862 339.572L74.5842 339.629L77.4254 340.458L78.7811 340.481L79.7494 341.156L81.5771 341.69L84.6296 343.846L85.6681 345.026L86.001 343.874L88.1876 343.453L88.8504 342.919L91.4451 342.79L95.9995 344.588L97.4677 345.361L97.9367 346.716L99.83 346.841L100.406 345.511L100.387 344.186L101.22 343.838L102.517 344.339L103.351 343.554L103.991 343.917L106.423 342.503L108.903 342.504L110.4 342.163L111.802 342.811L112.391 342.319L113.736 342.608L114.566 341.865L115.851 342.602L115.529 343.534L116.093 345.598L116.85 346.688L118.284 347.107L118.595 346.416L119.788 346.564L120.649 347.514L121.656 347.041L121.064 343.697L122.057 342.565L123.506 342.173L124.322 342.509L125.508 341.906L126.466 342.141L129.532 341.24L131.038 341.788L134.827 342.438L135.742 341.904L137.218 342.793L138.771 341.882L140.486 342.616L142.513 342.734L145.183 344.517L146.641 344.045L147.091 341.451L147.754 340.305L149.653 340.116L151.6 341.39L151.956 342.435L153.473 341.551L155.418 339.234L156.096 338.013L157.094 337.142L159.209 336.695L160.216 336.08L161.258 336.504L163.985 337.036L164.376 338.63L165.143 339.241L165.418 337.05L166.227 336.427L168.464 338.211L169.175 338.292L171.122 336.842L172.756 338.322L175.241 339.554L175.782 339.244L179.758 339.672L180.838 339.322L181.547 338.363L183.164 338.981L184.166 340.776L184.544 342.758L186.028 341.384L188.063 340.951L190.35 339.32L192.721 336.702L194.494 335.848L195.742 332.759L196.878 332.544L197.589 332.969L198.764 332.569L201.256 330.555L202.834 329.888L204.221 330.114L204.962 329.1L207.53 328.882L208.212 329.176L210.929 328.426L212.221 329.659L213.088 328.859L217.398 327.346L218.42 328.304L220.03 328.386L220.606 329.143L222.206 328.449L222.616 330.036L224.009 329.881L225.749 328.893L226.208 329.236L228.324 328.78L229.776 329.08L229.714 330.08L228.621 331.62L229.925 333.35L232.606 334.041L234.449 333.115L237.236 330.761L238.351 331.906L239.022 331.749L240.338 330.054L241.251 329.539L243.085 330.052L245.986 329.97L246.357 329.263L249.738 328.194L251.625 327.37L252.455 326.607L254.196 326.939L254.882 326.65L255.538 325.13L256.795 325.269L257.908 326.728L260.068 324.473L263.177 323.306L262.754 322.372L263.465 321.381L264.986 320.934L267.42 320.919L268.453 320.006L270.396 319.806L271.017 319.099L270.16 318.347L271.143 316.844L271.696 314.564L272.958 312.855L273.547 312.626L274.538 310.547L274.623 309.578L276.037 309.152L277.002 309.455L277.698 308.538L279.993 308.239L282.276 308.325L284.232 308.922L285.076 309.811L285.9 309.332L287.118 309.966L288.491 310.098L289.434 311.094L290.433 310.976L293.87 309.855L295.036 310.055L296.918 310.946L298.454 310.948L301.447 309.048L303.036 307.572L307.388 306.371L310.551 305.899L313.428 304.78L313.77 304.016L315.786 302.18L317.655 301.991L319.283 300.784L321.763 300.603L327.67 301.279L330.75 302.343L333.999 304.349L334.868 304.444L337.856 306.752L338.891 306.625L341.35 308.204L343.884 306.558L345.174 306.831L346.411 306.606L347.756 307.198L349.234 307.232L350.86 306.162L358.581 305.065L368.016 306.82L370.955 307.896L372.084 307.875L373.782 308.97L374.422 309.916L376.17 310.345L378.662 309.211L380.763 309.885L382.614 311.126L384.236 311.033L385.615 309.388L390.025 307.568L390.657 306.375L392.703 305.472L394.486 305.172L398.337 305.304L402.726 307.084L404.69 306.647L407.872 304.314L408.327 303.116L405.775 297.594L405.494 295.759L405.867 293.767L405.726 289.217L405.368 287.681L404.305 286.127L403.355 285.468L400.075 284.402L399.012 283.851L397.053 281.55L396.026 277.625L395.286 276.549L393.838 276.129L390.552 276.084L388.243 275.372L384.652 275.371L381.649 274.182L380.878 274.181L380.447 271.47L379.481 269.882L381.26 266.441L381.915 266.3L384.898 264.538L386.257 263.394L387.828 261.396L388.082 259.519L387.588 257.029L386.255 254.531L385.014 252.823L383.778 249.86L381.632 248.25L381.349 248.794L379.781 247.848L378.404 247.402L376.1 247.194L372.145 245.438L370.18 245.002L367.79 243.7L366.867 242.416L367.171 241.278L368.244 240.191L371.131 239.254L371.954 238.45L372.338 237.01L364.201 236.66L363.586 236.014L359.604 233.78L358.355 233.379L354.29 229.703L352.518 229.435L349.518 229.838L347.611 228.809L344.97 228.229L343.73 227.663L342.85 226.739L342.69 225.245L343.288 222.433L343.772 221.122L343.44 218.371L341.949 215.803L339.694 214.789L337.957 214.904L336.989 214.25L337.081 212.256L338.363 209.585L338.558 207.63L338.416 205.26L338.646 203.654L339.91 201.178L339.75 200.125L337.372 199.778L336.14 199.116L334.34 196.115L333.24 194.77L332.489 192.985L333.425 191.383L335.314 190.343L338.335 187.065L340.148 183.93L340.295 182.56L340.034 180.031L339.087 177.319L338.782 175.68L339.048 173.982L340.566 171.176L341.302 170.344L342.187 168.479L344.038 167.297L346.946 167.571L348.619 168.448L352.966 172.018L354.741 172.355L358.073 171.749L361.686 169.061L364.218 167.502L366.245 165.74L367.334 163.738L367.884 161.428L368.532 160.255L370.045 158.487L372.995 156.832L374.276 156.487L378.65 155.999L381.495 155.238L384.848 154.957L387.421 155.295L388.083 154.719L387.309 152.595L385.955 150.347L384.597 148.54L382.065 146.652L381.196 146.553L379.901 144.888L379.115 142.748L378.631 140.192L379.354 137.866L379.582 133.562L380.027 131.955L380.63 131.193L382.497 130.569L383.287 129.816L384.678 127.631L384.957 126.502L384.107 124.447L383.266 123.329L382.594 121.422L383.068 118.061L382.248 116.921L380.978 116.017L380.675 113.935L380.987 112.988L382.063 112.499L382.452 110.427L381.01 108.975L379.141 109.446L378.189 109.352L375.839 111.078L374.772 110.819L371.709 111.434L371.372 111.919L369.521 111.657L368.785 112.406L367.663 111.634L366.376 112.536L365.509 112.36L364.19 112.913L362.621 112.519L360.616 113.507L356.268 113.977L355.216 113.667L354.078 114.052L350.012 113.292L348.661 112.66L347.194 112.621L345.568 111.976L344.251 110.48L344.135 109.536L344.571 107.439L342.702 104.932L340.453 105.403L338.273 104.379L337.355 104.423L335.423 103.44L335.236 102.04L334.366 102.478L333.403 100.901L332.67 100.724L331.091 98.9583L329.141 97.1852L328.973 94.2553L327.363 93.6756L326.544 91.3632L326.791 90.3117L325.558 88.0459L325.855 86.0018L325.676 84.8425L321.79 84.4252L320.306 83.666L317.814 84.073L315.383 83.954L314.102 84.8398L306.436 85.6898L303.999 85.1808L299.665 86.016L296.639 85.9654L294.306 86.2455L293.179 86.6719L290.912 86.0684L288.81 86.3564L286.537 85.3652L284.407 86.8742L276.786 87.4823L274.79 86.6532L273.205 86.6756L270.194 87.8854L266.502 88.512L264.285 88.6607L262.081 88.2473L261.026 88.8269L257.501 88.0925L256.723 87.2719L256.012 88.2873L252.685 89.3393L251.47 88.4096L248.442 88.3024L248.172 86.7098L247.37 86.463L244.648 87.4133L243.786 86.8924L241.119 87.8924L238.176 87.9429L235.138 88.3015L232.047 87.3654L231.385 85.8252L232.251 82.6727L230.756 83.2575L229.763 82.6721L229.035 80.3996L228.051 79.9632L225.544 80.289L223.396 79.7121L220.633 80.5219L218.426 80.3766L217.029 79.9798L215.433 80.1846L213.705 79.4587L213.145 81.5143L211.676 82.282L208.931 81.6885L208.19 81.091L207.505 81.8368L205.927 81.8932L205.207 81.0586L204.401 81.9062L203.667 81.137L201.313 81.9871L199.367 82.4028L198.032 82.2966L195.782 82.991L194.45 83.0049L193.852 83.5833L185.529 84.4488L177.821 84.583L175.039 84.4503L170.597 83.9294L168.046 83.3719L163.947 82.19L161.23 80.6746L160.111 77.9678L159.584 77.5366L158.815 73.8689L158.219 73.6905L157.724 72.0601L157.758 69.8872L157.351 68.3237L157.049 63.2096L156.397 62.7645L157.075 60.5432L156.366 59.1492L156.772 56.5984L157.962 54.8626L158.428 52.5443L160.694 50.9781L161.913 50.5193L162.19 49.1868L161.362 48.5978L160.322 48.7362L159.2 47.3649L158.72 44.8917ZM158.72 44.8917L158.718 42.3536L159.882 42.2506L160.428 44.0004L158.72 44.8917ZM41.0825 349.35L39.858 348.98L40.5659 347.854L41.7574 348.212L41.0825 349.35ZM244.017 3.40451L244.955 3.24219L245.682 4.12223L248.849 6.61064L249.643 8.05548L252.287 9.19869L252.874 10.7653L254.414 11.2225L255.027 12.5347L256.191 13.4608L257.772 12.5417L259.222 12.4351L259.066 14.6392L257.408 15.4798L257.137 14.5416L256.19 14.3027L254.927 16.1194L255.854 18.358L255.754 19.5518L254.978 22.3457L254.215 24.3496L254.496 27.0234L255.396 28.4082L254.899 30.2955L254.112 29.7895L252.995 27.7047L253.236 26.3293L251.815 25.2097L251.807 23.7951L249.829 23.2004L249.999 26.4165L248.601 26.8374L247.625 25.4716L245.856 23.9895L245.096 22.1528L246.383 20.8915L246.641 20.0375L243.901 21.0678L243.183 19.8903L242.04 21.5072L242.103 23.1973L241.359 24.6491L240.314 23.9269L239.368 22.6807L239.602 20.1871L238.239 19.0327L237.13 19.2171L237.055 20.0851L236.218 21.0463L236.349 22.6256L235.058 22.6719L234.414 21.8403L234.839 20.7864L233.079 19.6887L232.821 17.9416L232.368 17.2902L230.171 18.725L230.342 20.3706L228.101 19.1881L227.641 18.2217L227.64 15.4187L228.455 14.6576L230.461 15.2503L231.619 14.4505L233.077 12.5081L234.226 12.4027L234.913 11.2319L236.848 10.7047L237.987 9.33799L239.472 11.0566L239.728 9.48093L240.989 9.53181L240.27 7.66149L240.334 5.71122L240.863 4.45838L242.055 5.01651L242.159 3.97142L242.932 3.24582L244.017 3.40451Z" stroke="white" stroke-width="5"/>
</svg>
