<svg width="471" height="338" viewBox="0 0 471 338" fill="none" xmlns="http://www.w3.org/2000/svg">
<path d="M171.095 327.158L172.551 327.573L172.229 329.109L170.276 328.736L170.417 327.326L171.095 327.158ZM165.481 325.4L165.992 326.654L165.294 327.634L166.443 329.161L165.816 330.59L164.807 329.435L163.745 330.302L161.414 330.508L160.32 331.318L159.998 332.734L157.041 332.701L156.233 334.323L154.16 335.12L151.229 334.886L149.246 335.092L148.607 334.349L147.029 334.261L145.481 333.108L141.763 332.899L140.842 330.725L141.229 329.727L142.114 329.037L142.326 326.739L143.339 327.177L144.292 325.817L145.638 325.429L147.045 325.627L147.973 326.329L150.294 326.403L150.781 328.138L152.018 328.622L153.574 328.693L154.948 328.31L157.872 328.069L158.385 327.678L159.75 328.266L160.728 328.132L162.042 327.297L163.812 325.335L165.481 325.4ZM360.834 299.175L360.54 301.367L359.034 303.05L359.427 300.169L360.834 299.175ZM363.263 284.686L366.095 285.45L367.622 285.303L371.514 287.031L371.709 289.482L369.07 292.368L367.709 292.553L365.341 293.527L363.773 295.989L362.24 296.634L362.047 293.822L360.924 293.231L360.005 293.74L359.844 292.073L357.063 293.528L356.168 292.636L356.926 292.09L356.979 288.307L357.783 285.938L356.359 285.075L358.245 283.967L360.057 281.869L362.713 284.48L363.263 284.686ZM360.188 274.278L361.455 275.683L361.321 277.243L359.858 277.424L359.733 276.216L360.188 274.278ZM250.282 129.83L251.484 130.198L251.044 131.193L249.778 130.683L250.282 129.83ZM233.114 123.922L233.163 126.911L232.209 128.078L231.071 128.214L229.506 130.703L229.528 132.067L228.606 133.846L226.579 134.739L225.65 134.045L224.357 133.81L223.89 132.864L224.678 131.652L225.08 130.037L226.516 127.788L227.75 126.764L229.874 126.862L229.638 125.328L231.322 123.915L233.114 123.922ZM166.948 123.047L166.747 124.031L165.952 124.444L166.265 125.561L165.774 126.313L164.687 125.981L163.141 124.915L163.307 123.235L164.283 123.279L165.007 121.436L166.174 122.026L166.948 123.047ZM444.247 116.384L444.092 117.107L442.445 118.935L441.322 119.225L440.026 121.258L439.031 120.257L439.997 119.704L440.585 117.564L441.555 116.965L444.247 116.384ZM180.17 79.1773L180.401 80.6031L179.683 81.6345L178.765 82.0122L179.515 79.0704L180.17 79.1773ZM461.034 73.2426L464.456 74.6902L466.192 75.0275L467.922 77.078L467.509 78.2185L465.588 78.2585L463.671 79.4065L459.254 78.4435L458.122 77.5117L458.036 75.5487L457.25 73.8274L456.99 71.5809L458.01 70.0177L459.581 70.9619L461.034 73.2426ZM170.401 61.8468L172.03 62.6621L174.38 62.9153L175.057 64.371L176.529 65.6314L177.383 67.0544L178.665 67.3079L178.023 69.7636L176.769 70.809L175.594 70.8026L175.129 71.7099L173.789 72.8571L173.719 74.705L174.801 75.2135L176.085 73.2181L177.543 73.5748L177.933 74.3037L177.904 76.4318L176.537 77.6256L175.712 80.3023L175.965 81.6427L175.215 82.891L176.086 83.9309L177.146 86.2355L178.35 85.7389L178.835 86.5253L177.985 90.4271L176.577 89.3669L176.066 88.2379L174.508 87.4569L173.189 87.1916L172.158 85.9054L169.614 86.184L168.344 87.1607L167.594 86.7615L167.207 85.5133L167.74 84.9106L168.923 80.8444L169.939 80.0776L170.346 78.9244L169.356 77.8781L167.604 77.1825L168.086 75.6529L170.711 72.3495L170.634 71.0383L169.718 70.6848L167.923 71.2193L167.531 69.5474L168.244 66.7019L168.27 65.1408L168.907 62.4631L170.401 61.8468ZM169.001 59.9986L169.168 61.3487L168.007 61.8965L167.68 60.2772L168.048 59.1804L169.001 59.9986ZM387.575 38.4248L388.375 39.7291L386.836 41.094L387.3 42.5446L385.296 44.0791L383.548 43.305L381.653 43.9319L380.239 43.8386L379.751 44.3468L377.623 44.1881L376.947 43.4537L372.332 43.6194L371.609 42.6052L372.428 41.4662L373.966 40.5129L375.686 40.6761L376.576 41.3112L377.523 40.1237L379.636 39.8267L380.944 38.887L385.419 38.6087L387.003 37.9921L387.575 38.4248ZM79.3379 253.116L76.7854 247.594L76.5045 245.759L76.8771 243.767L76.7362 239.217L76.3787 237.681L75.3156 236.127L74.366 235.468L71.0853 234.402L70.0229 233.852L68.0631 231.55L67.0363 227.626L66.2968 226.55L64.8483 226.129L61.5627 226.084L59.2536 225.372L55.6626 225.371L52.6596 224.182L51.8885 224.181L51.4572 221.47L50.4918 219.882L52.2702 216.441L52.9258 216.3L55.9087 214.538L57.2676 213.394L58.8385 211.397L59.0922 209.52L58.5991 207.029L57.2653 204.531L56.0244 202.823L54.7885 199.86L52.6424 198.25L52.3594 198.794L50.792 197.849L49.415 197.402L47.1105 197.194L43.1558 195.439L41.191 195.002L38.8001 193.7L37.8779 192.416L38.1818 191.278L39.2547 190.192L42.1419 189.254L42.9649 188.45L43.3485 187.01L35.212 186.66L34.5965 186.014L30.615 183.78L29.366 183.379L25.3005 179.703L23.5288 179.435L20.529 179.838L18.6217 178.809L15.9808 178.229L14.7406 177.663L13.8605 176.739L13.701 175.245L14.2986 172.433L14.7824 171.122L14.4504 168.371L12.9597 165.803L10.7044 164.789L8.968 164.904L7.99917 164.25L8.09134 162.256L9.37406 159.585L9.56839 157.63L9.42676 155.26L9.65661 153.654L10.9203 151.178L10.7601 150.125L8.38248 149.779L7.15106 149.116L5.35037 146.115L4.25106 144.77L3.5 142.985L4.43587 141.383L6.32431 140.343L9.34527 137.065L11.159 133.931L11.3057 132.56L11.045 130.031L10.0977 127.319L9.7922 125.68L10.0587 123.982L11.5769 121.176L12.3124 120.344L13.1979 118.479L15.0482 117.297L17.9566 117.571L19.6294 118.448L23.9769 122.018L25.7511 122.355L29.0839 121.749L32.6964 119.061L35.2284 117.502L37.2557 115.74L38.3446 113.738L38.8951 111.429L39.5421 110.255L41.0561 108.487L44.0055 106.832L45.2866 106.487L49.6602 105.999L52.5059 105.238L55.8586 104.957L58.4317 105.295L59.0941 104.719L58.3191 102.595L56.9653 100.347L55.6074 98.5398L53.0758 96.6522L52.2061 96.5535L50.9113 94.8879L50.1259 92.748L49.6418 90.1921L50.3643 87.866L50.5921 83.5624L51.0379 81.9549L51.641 81.193L53.5079 80.5691L54.298 79.816L55.6882 77.631L55.9679 76.502L55.1177 74.4467L54.2768 73.3295L53.6042 71.4219L54.0781 68.0614L53.2588 66.9215L51.9886 66.0175L51.6854 63.9355L51.9979 62.9885L53.074 62.4995L53.4624 60.4271L52.0209 58.975L52.8107 57.6565L54.0305 56.6644L57.0327 55.5006L57.4578 54.6142L59.0748 53.5443L63.4089 52.6418L64.4081 52.0498L65.7227 52.9174L66.539 52.6173L67.6643 50.0635L68.7002 50.2782L69.8248 48.5032L71.1096 47.4836L73.1943 46.4833L73.9957 45.5133L75.6826 45.0218L78.3895 44.6578L79.6146 44.1127L80.9015 45.4328L82.3338 46.4215L87.8809 46.0288L90.9079 43.9746L91.6133 42.8971L94.3921 41.4487L94.3403 40.3269L95.0031 39.0656L96.3102 37.9715L99.1339 38.6056L100.857 38.704L102.734 37.3322L104.469 37.2535L106.974 36.1947L108.634 35.9431L111.237 34.547L114.276 34.7478L116.194 34.2575L117.741 34.2817L118.151 33.7336L120.354 33.3087L121.929 32.4235L122.643 32.7581L124.808 32.27L126.099 31.6113L128.301 29.3633L129.725 29.1511L130.78 28.3955L132.992 28.8691L133.779 29.6847L134.222 30.9396L136.65 30.8415L137.365 32.5722L139.55 32.8793L140.873 34.2417L142.328 34.2884L144.22 35.7384L146.191 35.5997L148.062 35.0758L149.537 35.6723L151.491 35.9043L153.278 34.6103L153.932 35.053L155.187 33.8638L156.232 34.3671L157.427 33.5788L158.998 34.6388L160.136 34.5294L160.343 33.6215L161.534 34.0458L162.519 33.5476L164.399 33.4195L164.625 34.9825L165.82 35.8292L167.222 35.831L170.436 34.9667L171.899 34.0882L173.456 34.4395L174.819 36.3292L176.624 36.0585L178.244 35.0497L179.846 33.1821L181.801 33.1936L183.353 33.9232L184.335 32.9498L185.077 33.2675L184.888 35.0388L183.089 36.4331L184.135 37.8873L183.144 40.1658L183.305 40.9232L182.601 43.1373L180.363 46.6832L178.592 48.0108L177.356 48.102L175.583 50.34L174.188 51.6249L172.269 52.2484L170.815 53.4595L168.944 54.2444L168.177 54.1999L165.487 55.8043L163.806 56.231L163.216 57.8118L163.872 59.131L163.986 60.2984L163.472 61.8505L164.739 63.4585L164.95 64.2714L164.746 66.3246L163.448 69.2564L161.802 70.6558L162.217 73.3289L161.495 77.8772L160.579 79.1201L160.895 81.0425L160.708 82.6309L161.909 82.752L165.254 85.4454L166.713 85.5399L167.048 86.6283L166.066 88.2703L164.936 89.2242L165.93 92.2271L165.182 92.9718L165.897 95.8981L166.782 95.9663L167.187 98.3529L168.176 101.16L169.386 101.944L168.857 102.812L166.575 105.384L165.22 106.521L162.302 106.649L161.774 107.379L158.816 108.382L156.957 109.642L157.069 111.656L156.354 114.048L156.819 116.424L157.886 116.292L158.614 116.834L158.9 118.162L159.722 119.252L159.956 121.598L157.846 120.793L157.468 121.747L158.072 122.339L157.241 124.136L158.47 125.314L159.996 127.936L160.817 127.768L161.333 128.99L159.666 130.434L157.763 130.67L155.84 135.717L154.984 136.776L155.187 138.984L155.993 141.62L157.216 141.534L156.649 142.961L155.839 143.335L156.274 144.818L157.758 144.945L158.016 146.423L159.107 147.166L159.307 148.442L160.543 150.582L161.443 150.758L160.897 152.379L162.148 153.243L162.216 155.618L164.267 154.433L164.814 155.922L163.841 158.668L164.557 159.204L164.232 160.306L163.41 161.12L164.189 162.245L164.012 164.028L162.69 165.309L163.944 166.94L166.125 168.266L167.882 168.309L168.812 165.638L169.762 165.007L171.034 167.702L170.517 168.563L171.682 169.325L173.199 169.064L173.11 166.798L174.897 166.518L175.681 167.234L175.496 169.123L176.606 169.409L178.817 166.877L179.971 167.954L179.887 169.563L180.723 169.578L182.248 171.142L183.911 172.394L186.013 173.109L186.656 172.222L188.914 173.796L189.829 172.502L190.834 174.528L193.024 177.201L194.1 176.589L195.414 176.858L196.496 176.331L197.242 177.699L198.748 176.841L199.707 177.098L200.401 178.816L200.99 179.422L205.053 179.892L206.681 178.014L208.594 176.864L208.689 176.2L211.18 173.44L212.484 168.998L213.743 167.058L214.466 166.823L214.615 165.615L216.502 164.614L216.609 163.95L215.729 162.632L216.993 161.236L219.068 161.557L219.952 159.897L219.672 157.957L220.465 156.485L220.067 155.919L220.045 153.668L220.945 152.69L222.338 150.142L223.373 150.143L224.793 148.793L226.343 148.107L227.652 149.178L227.534 150.696L228.307 150.598L228.559 152.316L229.745 153.016L230.409 151.327L232.457 149.187L234.215 148.759L235.824 149.018L237.878 146.976L239.331 144.205L239.314 143.119L239.974 141.774L241.17 141.569L242.232 140.309L244.243 140.97L245.219 139.643L244.913 137.541L244.124 135.983L243.121 135.359L244.703 131.461L245.803 130.402L246.495 131.091L246.806 133.073L247.509 133.514L249.66 131.953L251.575 134.606L253.184 134.945L254.187 134.741L255.688 135.549L258.306 135.639L260.173 135.007L261.798 135.536L264.078 134.772L265.917 135.307L266.867 135.182L268.01 134.336L269.673 134.654L271.282 133.626L271.18 132.876L273.262 132.701L273.504 130.623L274.058 128.827L275.195 128.211L274.933 127.151L277.14 122.867L278.24 122.176L280.467 121.883L282.344 122.991L282.734 125.316L284.032 125.702L286.195 124.893L288.282 124.428L289.109 122.94L291.728 122.477L292.639 123.286L294.431 123.335L296.266 121.26L298.31 120.198L299.471 118.302L298.91 117.047L297.964 116.758L297.546 115.659L298.635 113.473L300.131 112.346L301.047 112.545L302.206 110.552L303.779 109.051L304.538 108.738L307.342 105.357L308.608 103.578L311.614 103.454L313.105 102.505L315.907 106.406L317.912 106.588L319.027 106.112L319.706 106.466L321.054 106.105L322.306 105.047L321.695 103.72L322.754 102.684L323.638 101.082L324.745 100.699L325.917 98.9986L327.042 99.8665L328.234 99.8989L327.697 101.24L324.911 103.2L326.474 106.414L327.94 107.423L328.961 109.049L330.002 109.766L331.359 109.524L333.23 107.937L335.218 110.345L336.866 110.634L339.118 109.254L341.778 108.785L342.645 108.007L345.447 107.631L346.856 105.496L349.472 104.073L350.473 104.653L351.803 106.044L353.175 106.678L352.765 108.45L351.717 110.445L351.68 111.384L350.78 113.478L348.101 117.043L348.638 118.207L350.408 119.843L353.641 121.659L358.542 122.85L359.782 122.223L360.155 123.746L362.58 124.948L364.005 124.924L364.893 124.376L365.855 124.912L367.998 124.177L369.214 124.557L370.359 124.255L371.557 123.418L373.058 123.871L375.368 122.898L376.525 121.417L377.229 121.714L378.511 121.287L379.584 120.356L380.01 118.092L380.984 117.061L382.003 117.103L382.421 116.144L383.331 116.058L383.389 114.827L385.719 114.208L386.468 114.887L387.129 114.224L386.448 112.776L386.789 110.806L385.717 109.632L384.321 106.726L387.316 105.148L388.707 106.183L390.67 105.728L393.339 104.45L393.417 102.166L394.986 101.19L395.386 100.467L397.327 99.8459L396.848 96.8315L396.013 95.721L396.971 95.1456L397.904 95.4554L398.281 96.7639L399.26 97.2785L400.675 96.9844L401.314 95.6241L403.251 93.4733L404.17 91.6433L405.51 90.8065L405.911 87.9765L406.421 86.4572L405.622 85.6665L404.574 86.3972L404.024 85.4094L404.143 82.6627L404.859 82.01L404.252 80.6915L404.788 80.1776L406.354 80.5501L409.534 78.4726L409.908 77.8687L411.568 78.4629L411.256 76.7019L410.387 75.8879L408.528 75.086L409.111 73.361L409.941 72.2962L410.943 71.8065L412.902 71.8995L415.507 69.9889L416.278 70.5743L416.273 73.4812L416.545 75.6305L418.057 75.9675L419.38 75.549L419.578 76.6256L420.896 76.2298L421.022 73.0885L421.941 71.8241L423.069 71.6697L425.022 70.3763L425.889 71.0301L426.745 70.2954L427.481 71.1851L429.076 70.6715L430.558 68.876L431.705 68.4302L433.179 68.6843L434.46 67.6437L435.997 68.37L437.183 66.3267L436.198 65.0802L433.824 64.8298L433.392 64.3026L430.806 64.3404L429.939 63.1154L430.263 61.6966L431.098 60.5234L432.041 60.5722L433.565 59.7854L435.128 60.4323L435.453 59.6588L437.312 59.1894L439.219 59.3297L440.227 58.9439L442.656 58.6961L441.277 55.9182L439.419 57.1417L438.422 56.443L437.571 56.9945L436.227 56.3516L434.71 56.2011L433.725 55.5769L434.82 53.4816L433.797 53.4692L433.558 52.5301L434.173 51.8953L435.541 52.7893L437.904 51.7957L437.432 50.4529L439.826 51.1204L441.683 51.0734L443.459 50.2515L443.93 49.0253L445.992 49.0393L447.151 48.1208L448.687 48.6256L449.043 49.5347L448.185 51.3012L449.344 52.1415L447.914 54.0052L449.238 54.768L448.466 55.798L445.367 56.5808L444.222 56.6668L443.283 58.251L445.479 58.9381L445.892 62.6382L444.05 63.792L442.517 64.1732L440.999 63.8907L440.009 64.4085L440.493 65.9851L440.483 67.2186L438.692 66.8936L437.503 67.985L438.762 68.7088L438.681 70.3814L437.876 71.3205L437.147 73L436.507 73.2977L436.198 74.5911L433.217 74.5863L431.855 75.5817L429.208 75.6771L427.31 77.7061L424.971 79.4193L424.307 80.5167L424.937 81.5382L424.959 83.3022L425.449 83.702L425.233 85.7879L425.623 86.9096L425.29 88.4141L426.451 89.5891L427.435 89.6361L427.583 91.1082L427.137 91.5182L427.779 93.2586L427.486 95.7734L429.025 96.757L429.038 98.1658L428.224 98.5679L428.384 100.354L429.239 100.813L430.793 102.868L429.552 103.915L429.291 106.02L431.436 107.912L431.114 108.475L429.827 108.452L429.436 109.171L430.158 110.207L429.1 112.555L427.724 112.107L426.728 113.497L426.652 115.33L427.549 117.96L428.697 119.33L430.169 120.329L431.048 120.24L432.474 120.893L431.259 123.689L432.328 125.778L433.319 126.337L434.589 126.304L436.465 128.174L437.78 129L439.93 129.035L442.11 130.204L444.45 130.524L444.6 129.222L445.671 128.434L446.357 127.162L447.067 126.745L447.742 124.08L450.003 123.381L451.025 124.427L450.912 126.411L450.225 126.852L450.133 128.045L451.224 129.715L449.901 131.909L450.867 133.38L451.025 134.283L448.984 136.367L448.526 137.391L447.269 138.307L446.161 138.459L446.029 139.427L445 139.346L444.056 140.601L441.684 140.859L440.978 140.338L437.662 139.213L437.415 140.509L436.576 141.427L435.054 141.388L434.391 142.241L433.404 142.083L432.537 143.436L432.607 146.037L432.384 147.563L432.976 149.793L433.504 150.781L432.253 151.622L430.609 153.607L431.227 153.888L431.576 155.232L430.964 156.928L431.46 157.371L431.885 159.395L433.466 161.469L435.002 162.533L435.179 163.821L434.37 166.327L433.668 167.53L432.721 170.815L432.649 172.374L433.412 176.477L432.764 177.789L432.874 178.728L432.232 180.056L430.358 181.344L429.374 183.398L428.222 185.098L427.109 185.835L425.643 185.36L424.984 186.58L424.738 189.057L426.834 189.986L427.564 190.805L427.489 192.003L428.65 193.145L428.319 193.95L425.437 197.435L424.67 197.837L424.579 199.145L423.179 199.385L422.308 200.837L421.161 201.235L420.291 204.618L418.402 207.717L415.848 209.91L415.488 211.09L414.552 212.085L415.493 213.522L413.313 218.248L412.463 218.772L412.261 219.801L411.175 220.771L408.618 226.142L409.055 227.264L408.785 228.34L407.66 228.052L407.05 227.102L404.595 226.429L401.918 227.05L401.427 228.573L399.808 229.86L399.003 229.748L398.144 231.279L399.086 231.777L399.454 232.941L398.1 234.112L397.94 235.534L395.375 234.26L393.93 234.931L391.843 235.394L390.949 236.086L391.254 237.732L391.121 239.21L390.011 240.021L388.951 239.75L388.328 240.601L387.262 241.006L385.344 240.179L383.9 239.225L382.602 239.091L380.761 239.996L379.879 239.554L378.911 239.825L377.471 241.418L376 241.661L374.867 240.557L373.18 239.719L372.601 240.168L372.45 241.962L368.905 242.304L368.144 243.37L366.455 243.664L366.089 244.532L365.047 244.541L364.907 246.37L365.589 247.434L364.426 248.001L364.016 248.824L362.12 248.695L361.544 249.459L357.301 249.871L356.067 250.835L354.464 249.967L352.886 251.358L351.446 251.516L349.903 252.315L347.906 250.897L345.946 251.239L343.76 250.851L343.008 251.849L342.044 250.901L341.458 249.183L343.43 245.43L342.613 243.443L341.338 242.018L340.665 240.674L339.236 239.527L338.489 237.808L337.191 237.441L336.29 237.773L334.148 236.594L332.861 236.896L331.254 236.378L329.617 235.254L328.803 235.921L327.669 235.689L324.755 235.995L322.538 236.568L320.81 237.735L319.495 237.306L315.906 238.238L313.361 237.219L312.503 237.338L311.321 238.245L311.102 239.366L309.544 240.655L308.255 240.466L306.716 238.98L306.431 237.832L304.696 236.443L302.242 235.851L300.643 236.312L300.125 237.258L299.055 237.464L298.092 236.369L295.967 235.465L296.993 234.556L296.862 233.313L294.918 230.933L292.446 228.271L290.396 227.586L290.509 226.515L289.3 225.689L286.859 224.928L284.048 224.952L282.714 225.945L283.211 226.954L282.82 227.681L281.257 227.26L278.756 227.617L276.726 229.531L274.686 229.877L271.832 230.033L269.734 228.678L266.382 228.256L264.08 227.668L262.533 228.124L259.465 228.338L258.747 228.834L257.494 228.524L254.715 230.502L253.323 231.165L252.697 230.516L249.051 231.092L247.793 231.611L246.374 231.42L245.373 233.6L243.986 232.878L242.798 232.974L242.391 233.61L240.656 234.283L239.516 234.037L238.761 234.591L236.079 235.659L234.243 236.706L233.558 237.783L232.311 237.941L231.465 237.214L229.543 236.989L228.874 237.876L227.354 237.75L226.139 238.126L225.401 239.787L222.098 240.312L221.349 239.768L219.133 240.545L217.759 242.876L215.671 243.235L215.409 243.935L213.327 244.197L211.877 245.135L209.48 245.885L206.907 247.385L206.324 248.101L205.774 249.824L201.69 249.458L198.746 249.76L196.553 250.711L194.161 250.73L193.63 250.294L191.869 250.128L189.347 249.218L187.26 249.201L185.526 249.712L183.839 248.866L180.056 246.25L176.859 244.547L173.023 243.269L171.32 243.346L170.1 243.87L168.623 246.387L168.508 247.495L163.981 245.257L161.409 244.833L160.008 243.845L157.816 243.328L154.201 241.704L152.687 242.561L150.429 241.489L147.4 240.592L145.256 240.448L143.339 240.671L140.352 241.337L136.836 242.395L135.405 245.401L133.959 245.445L132.056 246.843L130.131 246.31L123.67 245.842L120.676 246.087L119.78 246.989L116.456 246.129L114.347 246.783L113.167 246.327L111.341 246.363L109.55 245.991L108.63 246.285L107.054 245.976L105.47 246.44L102.907 245.646L100.854 245.401L98.3635 245.461L95.587 247.637L93.5507 247.536L92.0737 247.822L90.9316 248.846L89.5307 250.731L87.7616 251.597L86.1369 251.207L80.7843 252.1L79.3379 253.116ZM386.627 23.8375L386.575 25.6427L387.481 26.7459L388.237 28.49L386.976 30.3539L386.361 30.5141L385.87 31.7648L387.335 31.5089L387.668 32.6746L387.141 33.5598L386 34.0867L385.472 33.7106L382.199 34.7572L379.413 36.3004L377.61 37.0169L376.108 36.7713L377.817 34.2466L378.926 33.7257L379.226 32.0895L378.483 31.1734L379.077 30.5717L379.567 28.7798L378.981 26.8967L380.738 26.3871L381.59 25.2978L383.428 24.3347L384.79 24.4168L385.315 25.0004L386.627 23.8375ZM381.136 6.18359L381.754 6.92373L382.036 8.83947L381.769 9.43031L382.603 11.4363L379.07 11.2819L380.451 9.54811L381.25 9.0987L380.766 7.785L381.136 6.18359Z" fill="#1E1E1E" stroke="white" stroke-width="5"/>
</svg>
