<svg width="437" height="496" viewBox="0 0 437 496" fill="none" xmlns="http://www.w3.org/2000/svg">
<path d="M418.396 476.051L420.231 476.528L420.771 478.939L422.826 479.041L422.594 480.739L423.396 480.871L423.858 481.91L424.696 481.508L425.899 482.224L426.784 482.098L427.198 483.339L426.718 484.898L427.421 485.235L427.789 486.895L428.564 487.801L429.936 488.032L431.152 489.131L431.578 490.317L433.663 491.245L433.148 492.502L430.908 492.213L429.364 493.216L426.26 493.118L424.697 492.654L424.703 491.839L426.57 490.293L423.536 490.206L422.642 488.431L420.732 487.705L419.523 486.16L417.922 486.897L416.754 486.969L414.925 486.514L414.723 483.826L415.318 483.374L414.75 481.814L411.945 481.435L411.276 480.62L414.268 478.883L415.505 478.722L415.748 477.919L417.019 476.964L417.544 475.366L418.396 476.051ZM414.163 462.144L414.703 463.708L413.133 464.152L412.522 462.811L414.163 462.144ZM412.372 464.311L409.99 463.528L409.311 462.201L409.752 461.001L408.84 460.11L409.896 459.082L411.983 459.834L412.696 461.251L412.081 463.145L412.372 464.311ZM402.13 449.241L400.906 449.605L400.316 450.489L399.344 448.977L399.268 447.871L401.67 447.09L402.476 448.326L402.13 449.241ZM403.59 446.834L403.162 445.725L403.933 444.877L404.672 445.578L403.59 446.834ZM370.508 419.456L369.977 422.531L371.999 423.687L371.621 421.67L372.451 420.605L376.248 421.807L376.753 422.652L378.649 422.973L378.882 423.918L380.731 424.814L381.033 426.03L382.867 427.247L385.099 427.866L385.885 427.18L387.126 427.73L386.4 429.941L387.612 430.034L389.078 430.749L389.072 431.656L390.417 432.002L390.485 433.369L391.68 434.333L390.318 435.303L390.467 436.95L391.597 437.316L393.115 439.191L394.514 439.731L395.341 441.558L395.933 441.415L399.901 444.523L400.895 444.346L401.585 445.406L401.14 446.481L399.638 446.877L398.707 447.806L398.824 449.331L399.636 450.892L402.486 451.878L402.93 452.62L404.4 453.349L405.223 454.555L406.181 454.592L408.301 456.687L407.185 457.117L408.155 458.352L408.079 460.629L409.99 463.528L407.168 463.519L405.683 463.971L403.016 462.938L400.786 463.168L399.014 462.6L396.73 463.464L394.507 462.675L394.407 460.789L393.899 460.173L392.04 460.17L390.531 460.778L390.032 459.873L387.365 459.699L386.154 458.607L386.22 457.937L387.875 457.509L387.897 455.311L386.272 453.857L385.573 452.634L384.538 453.322L382.581 453.887L381.77 452.111L381.081 451.523L380.66 450.223L378.877 450.043L379.58 447.35L378.584 446.72L376.501 446.945L375.776 448.678L374.247 446.751L374.538 445.686L374.279 444.175L375.015 442.891L376.062 442.571L376.178 441.496L375.103 440.833L373.794 439.451L371.806 437.87L371.877 435.796L370.971 434.36L369.612 434.648L368.876 433.192L367.492 433.181L368.091 431.044L367.539 430.717L367.93 428.892L367.529 424.616L366.799 424.016L367.771 422.458L367.392 421.92L368.576 420.635L370.094 420.329L370.508 419.456ZM272.722 165.695L272.679 166.386L273.784 167.505L273.48 168.784L272.473 170.428L270.519 169.494L268.942 169.329L267.45 168.302L268.753 167.699L269.936 166.04L272.722 165.695ZM250.717 163.5L249.226 163.618L249.287 162.239L250.717 163.5ZM106.993 89.6634L108.371 89.9009L107.601 91.0087L106.993 89.6634ZM110.109 85.2622L110.594 85.1724L110.967 87.3444L111.658 88.2023L110.111 90.3579L109.19 90.1606L108.266 87.5499L109.544 86.4112L110.109 85.2622ZM76.9782 84.3909L78.3216 86.1819L79.9496 87.81L81.5859 90.7302L81.81 93.4956L78.5567 94.7944L76.899 94.6492L75.541 93.1963L75.3928 92.4088L73.5787 90.2813L73.5936 88.2789L71.9266 86.8304L72.138 86.0019L71.0228 84.1966L71.4454 82.491L70.6216 81.5318L68.6835 80.5803L67.9961 78.7021L68.6825 77.1603L69.7234 76.4529L71.0965 77.4987L72.7147 79.2957L74.3668 80.2046L75.2286 82.5517L76.9782 84.3909ZM233.705 53.4408L236.662 54.3293L237.62 55.6429L239.678 55.5326L239.727 57.0203L240.908 57.3285L243.979 57.2513L244.856 57.6652L246.795 57.6151L247.891 60.1466L248.566 61.059L248.42 62.5471L249.089 63.4341L248.949 64.9162L250.093 65.9413L250.197 67.1862L251.201 67.6401L253.361 69.3159L254.286 69.133L256.244 70.4752L257.872 71.1607L258.627 70.2107L260.827 70.9728L260.903 72.3448L262.057 72.0858L264.091 72.9243L263.723 74.4856L265.184 75.0818L267.819 74.9006L267.974 74.0154L266.792 73.2347L267.124 72.1957L269.051 71.3063L270.383 72.1661L271.944 74.3851L272.522 74.4616L272.203 76.7498L273.512 77.7994L275.64 78.1366L277.344 80.2807L278.364 80.6488L279.641 80.0585L280.106 78.0697L278.941 77.4251L278.666 76.0735L279.373 74.5885L280.938 75.3435L280.41 76.214L282.045 77.209L283.344 78.4939L282.63 79.8934L285.035 80.5874L285.674 81.3763L285.34 82.1808L286.635 82.708L285.893 85.2384L285.226 85.5348L285.301 87.8936L285.661 89.1498L284.151 88.8983L283.732 89.7096L281.552 91.4134L281.984 94.4308L280.903 95.2981L281.297 96.3983L279.667 96.0723L278.671 96.8585L278.632 98.2301L279.436 99.5271L278.59 102.276L279.336 102.865L278.042 103.737L277.421 102.847L276.379 102.597L275.416 103.393L275.628 105.3L274.494 106.118L273.643 107.576L273.676 108.852L272.398 109.938L270.8 109.959L267.389 112.555L260.243 115.404L258.456 115.163L254.91 115.676L251.921 115.508L249.595 116.254L246.905 117.957L245.465 118.379L243.843 119.921L241.825 122.409L241.79 123.188L239.233 124.617L237.039 124.882L236.5 125.373L232.548 125.87L230.666 128.555L229.296 131.576L228.994 133.943L229.329 134.583L231.154 135.781L232.217 137.256L232.934 137.291L233.842 138.504L231.884 138.77L230.58 141.891L230.258 143.653L230.647 145.717L231.474 146.316L232.881 146.528L235.022 150.657L236.615 151.75L237.298 150.291L238.636 149.991L239.423 150.598L239.101 151.848L238.125 152.243L236.982 154.12L236.263 154.486L236.453 156.373L235.35 157.214L234.646 156.669L233.441 154.466L231.946 154.682L230.55 157.015L231.925 157.085L231.726 159.983L233.424 160.673L233.204 162.387L234.62 164.552L235.603 165.043L237.441 164.554L238.963 164.832L239.338 163.116L238.465 161.959L237.264 161.975L237.133 160.968L239.522 159.779L239.918 161.676L239.338 163.116L240.114 166.134L240.626 167.303L241.734 168.53L244.166 169.832L247.666 170.554L250.389 170.542L253.609 171.754L253.912 173.888L254.804 174.93L257.434 174.84L259.481 175.04L259.77 176.52L261.372 177.564L264.903 177.634L266.442 176.848L267.258 177.282L269.688 176.656L271.157 176.88L271.742 178.544L272.475 178.85L275.108 178.681L274.617 179.802L271.637 180.359L270.569 182.298L269.57 183.505L269.305 185.285L270.198 186.945L272.902 187.422L272.307 188.727L272.189 191.018L272.366 194.204L272.211 196.059L272.561 196.669L271.215 198.186L268.16 200L266.184 199.827L264.48 191.538L262.403 189.651L261.287 189.611L260.42 190.486L260.385 191.789L260.872 192.936L259.789 195.202L260.8 195.96L259.912 196.956L264.468 199.274L264.21 200.307L264.687 201.251L266.461 202.666L266.25 203.719L266.646 205.162L265.873 206.167L266.435 207.577L266.119 209.105L264.86 211.496L263.765 214.541L264.376 216.411L264.306 218.205L264.661 219.049L265.128 222.42L265.685 224.176L265.329 225.416L265.4 227.695L266.344 229.379L266.24 230.371L267.335 231.644L267.945 233.164L267.751 234.797L268.628 235.729L268.895 237.007L270.678 240.011L270.911 241.318L270.419 243.989L271.187 247.618L270.646 252.018L270.813 255.571L271.4 257.698L272.304 258.674L272.919 264.24L273.913 267.744L275.828 269.861L276.499 272.951L277.905 275.343L279.943 275.779L282.393 277.346L285.143 277.587L287.298 278.539L289.646 280.125L290.384 280.887L292.595 282.294L294.984 283.164L297.688 283.131L300.872 282.669L302.819 282.622L304.931 282.936L307.908 284.28L309.283 286.04L308.67 287.975L309.15 289.201L310.016 289.462L310.126 290.781L311.433 293.088L311.422 293.864L312.648 295.462L312.61 296.908L313.824 298.097L315.055 298.546L316.132 299.59L317.22 299.924L321.205 299.552L322.953 299.159L329.813 296.386L333.741 294.547L337.606 291.862L337.697 291.217L339.422 289.814L340.793 287.943L342.159 285.126L342.032 282.789L342.619 282.06L344.101 284.102L344.273 288.279L344.98 289.915L345.334 291.744L346.73 294.408L349.642 298.247L350.741 298.424L350.627 299.991L353.213 305.123L353.971 305.873L354.797 308.451L354.575 311.063L354.917 315.287L356.142 318.511L357.121 319.915L359.295 324.699L361.52 327.957L362.556 329.004L365.452 331.197L366.584 333.187L367.569 334.317L366.999 336.169L365.833 337.061L365.309 338.173L365.241 339.864L364.513 341.045L364.262 344.648L362.584 346.386L361.44 346.385L358.192 343.598L356.343 342.489L352.554 341.614L351.297 341.769L350.171 342.482L350.211 343.762L348.339 342.288L346.609 341.609L344.441 339.285L343.491 338.669L342.222 338.825L340.799 337.218L338.744 335.821L337.84 335.65L335.853 333.744L332.734 332.118L330.013 331.026L328.801 330.153L326.809 329.238L325.67 327.887L324.434 327.058L322.55 326.576L318.884 324.992L317.654 324.81L316.562 325.173L315.202 324.782L313.523 324.94L312.019 323.829L309.617 322.93L307.429 321.684L307.026 319.589L305.048 317.018L301.433 313.969L299.68 312.109L298.074 310.763L294.676 308.935L293.403 308.575L290.954 307.233L286.333 305.332L282.572 304.902L281.468 304.969L280.526 304.04L276.623 301.221L273.608 300.841L268.839 301.048L265.337 301.883L264.15 300.94L262.909 298.374L260.755 296.408L259.448 295.576L258.461 293.983L257.449 293.283L252.712 290.911L249.601 289.679L246.121 287.226L243.928 284.168L244.193 282.714L242.812 280.922L242.472 279.574L242.962 279.157L242.75 276.664L242.224 274.369L241.222 273.658L239.859 271.511L239.134 268.49L236.531 264.665L235.419 261.759L235.289 260.516L236.134 258.912L236.195 255.36L235.274 252.915L234.471 251.983L234.877 250.165L234.056 249.211L234.625 247.546L234.946 245.506L233.872 244.97L232.979 242.066L231.651 240.361L231.46 235.305L233.718 233.315L234.143 231.608L234.871 231.454L234.952 229.928L233.536 225.799L231.471 222.095L228.71 218.952L226.985 218.241L226.999 215.512L226.14 215.209L226.183 214.026L225.261 210.643L223.129 209.865L223.025 208.543L221.137 207.934L221.439 206.644L220.377 204.887L219.107 203.568L217.221 202.607L216.218 200.942L212.538 198.275L211.562 198.319L210.143 197.03L208.57 196.264L207.441 196.629L205.523 196.279L203.434 194.674L202.477 195.614L201.715 194.804L199.208 193.947L197.819 192.958L197.278 192.037L197.241 190.209L198.089 189.745L198.333 188.699L199.453 187.396L199.025 186.664L196.567 186.486L193.882 184.14L191.747 183.553L190.722 182.535L189.45 182.184L188.813 180.601L187.769 181.229L186.529 181.297L184.316 179.072L182.243 179.308L181.428 178.032L181.352 176.091L181.961 175.201L181.252 173.519L181.432 171.769L180.511 170.369L179.76 168.354L179.029 167.274L179.01 165.551L176.534 162.47L176.448 161.35L174.946 160.284L173.523 160.238L173.077 160.743L171.822 159.734L173.153 157.902L174.24 157.713L174.635 155.635L173.549 153.21L172.543 152.916L172.385 151.948L173.643 151.973L174.677 149.584L176.004 147.287L173.789 147.362L172.471 147.94L171.801 147.369L168.542 148.822L169.12 147.804L167.913 146.916L166.265 146.272L165.061 147.929L166.119 148.51L165.778 149.65L164.453 150.42L163.889 149.212L162.249 150.747L161.049 149.687L162.185 147.813L160.534 147.516L159.51 146.916L158.423 147.641L157.318 147.509L156.56 146.319L154.393 146.198L153.446 144.694L152.038 144.064L151.42 144.286L148.712 142.994L149.227 139.371L150.056 136.546L149.395 135.071L149.841 133.033L150.554 131.915L150.748 129.328L151.239 128.244L152.581 126.912L152.814 125.825L153.634 125.182L153.768 123.702L152.283 120.36L149.878 118.384L147.813 117.272L145.654 116.585L144.353 116.669L143.648 118.139L142.303 119.077L140.851 123.7L139.252 123.747L138.529 121.826L138.812 120.974L140.149 121.681L141.014 120.752L139.502 120.36L138.781 119.549L139.955 118.622L140.501 117.489L140.364 115.188L141.026 114.123L139.97 111.898L140.105 109.481L139.237 107.468L138.107 106.296L136.502 103.055L134.86 100.476L133.704 99.0339L132.874 98.6714L131.367 98.9598L128.468 98.396L128.486 97.5915L131.105 95.9129L133.306 96.168L134.282 95.0106L134.795 93.6814L135.442 90.7501L137.71 86.4296L139.339 82.2691L141.592 79.2564L142.254 79.064L144.527 76.6137L147.404 72.5271L147.797 71.1467L149.014 70.035L149.163 68.8525L149.927 68.4521L151.556 70.6205L153.293 70.5417L156.491 69.8059L158.635 68.6952L159.489 69.3115L161.254 68.9201L163.492 70.6476L164.321 71.8L166.447 71.8144L166.16 72.7319L166.833 73.6432L171.018 73.8044L172.451 73.4665L177.171 71.8067L178.585 71.0009L179.552 71.0632L182.263 70.0695L183.037 69.2289L185.7 67.803L188.602 69.9805L189.552 70.0723L190.711 71.3496L192.699 71.1347L196.247 69.9733L199.312 68.3775L201.365 69.2494L201.907 70.7079L203.049 71.3657L204.662 73.0936L207.234 73.7725L208.137 73.6554L212.289 72.2036L217.41 69.2881L221.331 66.3295L224.047 63.7596L228.269 59.4034L231.857 55.2602L232.814 53.6912L233.705 53.4408ZM7.99552 23.8046L9.55771 24.5097L9.87389 25.3826L11.1604 25.9705L13.7564 28.5493L16.4102 29.1495L17.3755 28.9708L20.5252 27.2751L22.0389 26.9624L22.6431 25.9875L24.6874 25.5016L26.1457 24.72L29.5728 24.7064L30.7797 25.3876L31.669 27.1433L28.7017 28.1054L26.6748 30.7491L25.5572 31.2042L25.3095 32.4208L23.3754 35.1685L23.0026 37.1722L21.7615 40.7049L20.5839 42.1669L18.5196 40.8154L16.4893 40.8262L15.8813 43.3883L13.1595 44.127L11.4742 44.3403L9.1702 43.7223L9.23194 42.2294L8.02934 40.6734L6.66973 40.1894L4.54012 41.2954L3.9638 37.4166L4.32943 36.025L3.3666 33.7905L3.50743 32.2048L3 30.3955L3.28772 28.5962L4.25775 26.9643L6.85467 23.5322L7.99552 23.8046ZM102.888 4.11485L103.956 3.74138L104.312 4.87028L106.131 5.4175L107.413 6.346L109.552 6.97174L110.58 8.44481L111.792 10.9011L109.988 14.5966L110.259 16.8079L109.215 18.1809L107.399 16.9386L105.5 16.3238L104.047 16.419L101.466 17.3625L100.646 15.2902L99.8265 14.1815L99.0536 11.4549L98.5087 11.2734L97.8391 9.50527L97.9981 7.52426L97.8043 5.88395L99.01 3.75349L100.689 3.14062L102.888 4.11485Z" fill="#1E1E1E"/>
<path d="M409.99 463.528L412.372 464.311L412.081 463.145L412.696 461.251L411.983 459.834L409.896 459.082L408.84 460.11L409.752 461.001L409.311 462.201L409.99 463.528ZM409.99 463.528L408.079 460.629L408.155 458.352L407.185 457.117L408.301 456.687L406.181 454.592L405.223 454.555L404.4 453.349L402.93 452.62L402.486 451.878L399.636 450.892L398.824 449.331L398.707 447.806L399.638 446.877L401.14 446.481L401.585 445.406L400.895 444.346L399.901 444.523L395.933 441.415L395.341 441.558L394.514 439.731L393.115 439.191L391.597 437.316L390.467 436.95L390.318 435.304L391.68 434.333L390.485 433.369L390.417 432.002L389.072 431.656L389.078 430.749L387.612 430.034L386.4 429.941L387.126 427.73L385.885 427.18L385.099 427.866L382.867 427.247L381.033 426.03L380.731 424.814L378.882 423.918L378.649 422.973L376.753 422.652L376.248 421.807L372.451 420.605L371.621 421.67L371.999 423.687L369.977 422.531L370.508 419.456L370.094 420.329L368.576 420.635L367.392 421.92L367.771 422.458L366.799 424.016L367.529 424.616L367.93 428.892L367.539 430.717L368.091 431.044L367.492 433.181L368.876 433.192L369.612 434.648L370.971 434.36L371.877 435.796L371.806 437.87L373.794 439.451L375.103 440.833L376.178 441.496L376.062 442.571L375.015 442.891L374.279 444.175L374.538 445.686L374.247 446.751L375.776 448.678L376.501 446.945L378.584 446.72L379.58 447.35L378.877 450.043L380.66 450.223L381.081 451.523L381.77 452.111L382.581 453.887L384.538 453.322L385.573 452.634L386.272 453.857L387.897 455.311L387.875 457.509L386.22 457.937L386.154 458.607L387.365 459.699L390.032 459.873L390.531 460.778L392.04 460.17L393.899 460.173L394.407 460.789L394.507 462.675L396.73 463.464L399.014 462.6L400.786 463.168L403.016 462.938L405.683 463.971L407.168 463.519L409.99 463.528ZM239.338 163.116L238.963 164.832L237.441 164.554L235.603 165.043L234.62 164.552L233.204 162.387L233.424 160.673L231.726 159.983L231.925 157.085L230.55 157.015L231.946 154.682L233.441 154.466L234.646 156.669L235.35 157.214L236.453 156.373L236.263 154.486L236.982 154.12L238.125 152.243L239.101 151.848L239.423 150.598L238.636 149.991L237.298 150.291L236.615 151.75L235.022 150.657L232.881 146.528L231.474 146.316L230.647 145.717L230.258 143.653L230.58 141.891L231.884 138.77L233.842 138.504L232.934 137.291L232.217 137.256L231.154 135.781L229.329 134.583L228.994 133.943L229.296 131.576L230.666 128.555L232.548 125.87L236.5 125.373L237.039 124.882L239.233 124.617L241.79 123.188L241.825 122.409L243.843 119.921L245.465 118.379L246.905 117.957L249.595 116.254L251.921 115.508L254.91 115.676L258.456 115.163L260.243 115.404L267.389 112.555L270.8 109.959L272.398 109.938L273.676 108.852L273.643 107.576L274.494 106.118L275.628 105.3L275.416 103.393L276.379 102.597L277.421 102.847L278.042 103.737L279.336 102.865L278.59 102.276L279.436 99.5271L278.632 98.2301L278.671 96.8585L279.667 96.0723L281.297 96.3983L280.903 95.2981L281.984 94.4308L281.552 91.4134L283.732 89.7096L284.151 88.8983L285.661 89.1498L285.301 87.8936L285.226 85.5348L285.893 85.2384L286.635 82.708L285.34 82.1808L285.674 81.3763L285.035 80.5874L282.63 79.8934L283.344 78.4939L282.045 77.209L280.41 76.214L280.938 75.3435L279.373 74.5885L278.666 76.0735L278.941 77.4251L280.106 78.0697L279.641 80.0585L278.364 80.6488L277.344 80.2807L275.64 78.1366L273.512 77.7994L272.203 76.7498L272.522 74.4616L271.944 74.3851L270.383 72.1661L269.051 71.3063L267.124 72.1957L266.792 73.2347L267.974 74.0154L267.819 74.9006L265.184 75.0818L263.722 74.4856L264.091 72.9243L262.057 72.0858L260.903 72.3448L260.827 70.9728L258.627 70.2107L257.872 71.1607L256.244 70.4752L254.286 69.133L253.361 69.3159L251.201 67.6401L250.197 67.1862L250.093 65.9413L248.949 64.9162L249.089 63.4341L248.42 62.5471L248.566 61.059L247.891 60.1466L246.795 57.6151L244.856 57.6652L243.979 57.2513L240.908 57.3285L239.727 57.0203L239.678 55.5326L237.62 55.6429L236.662 54.3293L233.705 53.4408L232.814 53.6912L231.857 55.2602L228.269 59.4034L224.047 63.7596L221.331 66.3295L217.41 69.2881L212.289 72.2036L208.137 73.6554L207.234 73.7725L204.662 73.0936L203.049 71.3657L201.907 70.7079L201.365 69.2494L199.312 68.3775L196.247 69.9732L192.699 71.1347L190.711 71.3496L189.552 70.0724L188.602 69.9805L185.7 67.803L183.037 69.2289L182.263 70.0696L179.552 71.0632L178.585 71.0009L177.171 71.8067L172.451 73.4665L171.018 73.8044L166.833 73.6432L166.16 72.7319L166.447 71.8144L164.321 71.8L163.492 70.6476L161.254 68.9201L159.489 69.3115L158.635 68.6952L156.491 69.8059L153.293 70.5417L151.556 70.6205L149.927 68.4521L149.163 68.8525L149.014 70.035L147.797 71.1467L147.404 72.5271L144.527 76.6137L142.254 79.064L141.592 79.2564L139.339 82.2691L137.71 86.4296L135.442 90.7501L134.795 93.6814L134.282 95.0106L133.306 96.168L131.105 95.9129L128.486 97.5915L128.468 98.396L131.367 98.9598L132.874 98.6714L133.704 99.0339L134.86 100.476L136.502 103.055L138.107 106.296L139.237 107.468L140.105 109.481L139.97 111.898L141.026 114.123L140.364 115.188L140.501 117.489L139.955 118.622L138.781 119.549L139.502 120.36L141.014 120.752L140.149 121.681L138.812 120.974L138.529 121.826L139.252 123.747L140.851 123.7L142.303 119.077L143.648 118.139L144.353 116.669L145.654 116.585L147.813 117.272L149.878 118.384L152.282 120.36L153.768 123.702L153.634 125.182L152.814 125.825L152.581 126.912L151.239 128.244L150.748 129.328L150.554 131.915L149.841 133.033L149.395 135.071L150.056 136.546L149.227 139.371L148.712 142.994L151.42 144.286L152.038 144.064L153.446 144.694L154.393 146.198L156.56 146.319L157.318 147.509L158.423 147.641L159.51 146.916L160.534 147.516L162.185 147.813L161.049 149.687L162.249 150.747L163.889 149.212L164.453 150.42L165.778 149.65L166.119 148.51L165.061 147.929L166.265 146.272L167.913 146.916L169.12 147.804L168.542 148.822L171.801 147.369L172.471 147.94L173.789 147.362L176.004 147.287L174.677 149.584L173.643 151.973L172.385 151.948L172.543 152.916L173.549 153.21L174.635 155.635L174.24 157.713L173.153 157.902L171.821 159.734L173.077 160.743L173.523 160.238L174.946 160.284L176.448 161.35L176.534 162.47L179.01 165.551L179.03 167.274L179.76 168.354L180.511 170.369L181.432 171.769L181.252 173.519L181.961 175.201L181.352 176.091L181.428 178.032L182.243 179.308L184.316 179.072L186.529 181.297L187.769 181.229L188.813 180.601L189.45 182.184L190.722 182.535L191.747 183.553L193.882 184.14L196.567 186.486L199.025 186.664L199.453 187.396L198.333 188.699L198.089 189.745L197.241 190.209L197.278 192.037L197.819 192.958L199.208 193.947L201.715 194.804L202.477 195.614L203.434 194.674L205.523 196.279L207.441 196.629L208.57 196.264L210.143 197.03L211.562 198.319L212.538 198.275L216.218 200.942L217.221 202.607L219.107 203.568L220.377 204.887L221.439 206.644L221.137 207.934L223.025 208.543L223.129 209.865L225.261 210.643L226.183 214.026L226.14 215.209L226.999 215.512L226.985 218.241L228.71 218.952L231.471 222.095L233.536 225.799L234.952 229.928L234.871 231.454L234.143 231.608L233.718 233.315L231.46 235.305L231.651 240.361L232.979 242.066L233.872 244.97L234.946 245.506L234.625 247.546L234.056 249.211L234.877 250.165L234.471 251.983L235.274 252.915L236.195 255.36L236.134 258.912L235.289 260.516L235.419 261.759L236.531 264.665L239.134 268.49L239.859 271.511L241.222 273.658L242.224 274.369L242.75 276.664L242.962 279.157L242.472 279.574L242.812 280.922L244.193 282.714L243.928 284.168L246.121 287.226L249.601 289.679L252.712 290.911L257.449 293.283L258.461 293.983L259.448 295.576L260.755 296.408L262.909 298.374L264.15 300.94L265.337 301.883L268.839 301.048L273.608 300.841L276.623 301.221L280.526 304.04L281.468 304.969L282.572 304.902L286.333 305.332L290.954 307.233L293.403 308.575L294.676 308.935L298.074 310.763L299.68 312.109L301.433 313.969L305.048 317.018L307.026 319.589L307.429 321.684L309.617 322.93L312.019 323.829L313.523 324.94L315.202 324.782L316.562 325.173L317.654 324.81L318.884 324.992L322.55 326.576L324.434 327.058L325.67 327.887L326.809 329.238L328.801 330.153L330.013 331.026L332.734 332.118L335.853 333.744L337.84 335.65L338.744 335.821L340.799 337.218L342.222 338.825L343.491 338.669L344.441 339.285L346.609 341.609L348.339 342.288L350.211 343.762L350.171 342.482L351.297 341.769L352.554 341.614L356.343 342.489L358.192 343.598L361.44 346.385L362.584 346.386L364.262 344.648L364.513 341.045L365.241 339.864L365.309 338.173L365.833 337.061L366.999 336.169L367.569 334.317L366.584 333.187L365.452 331.197L362.556 329.004L361.52 327.957L359.295 324.699L357.121 319.915L356.142 318.511L354.917 315.287L354.575 311.063L354.797 308.451L353.971 305.873L353.213 305.123L350.627 299.991L350.741 298.424L349.642 298.247L346.73 294.408L345.334 291.744L344.98 289.915L344.273 288.279L344.101 284.102L342.619 282.06L342.032 282.789L342.159 285.126L340.793 287.943L339.422 289.814L337.696 291.217L337.606 291.862L333.741 294.547L329.813 296.386L322.953 299.159L321.205 299.552L317.22 299.924L316.132 299.59L315.055 298.546L313.824 298.097L312.61 296.907L312.648 295.462L311.422 293.864L311.433 293.088L310.126 290.781L310.016 289.462L309.15 289.201L308.67 287.975L309.283 286.04L307.908 284.28L304.931 282.936L302.819 282.622L300.872 282.669L297.688 283.131L294.984 283.164L292.595 282.294L290.384 280.887L289.646 280.125L287.298 278.539L285.143 277.587L282.393 277.346L279.943 275.779L277.905 275.343L276.499 272.951L275.828 269.861L273.913 267.744L272.919 264.24L272.304 258.674L271.4 257.698L270.813 255.571L270.646 252.018L271.187 247.618L270.419 243.989L270.911 241.318L270.678 240.011L268.895 237.007L268.628 235.729L267.751 234.797L267.945 233.164L267.335 231.644L266.24 230.371L266.344 229.379L265.4 227.695L265.329 225.416L265.685 224.176L265.128 222.42L264.661 219.049L264.306 218.205L264.377 216.411L263.765 214.541L264.86 211.496L266.119 209.105L266.435 207.577L265.873 206.167L266.646 205.162L266.25 203.719L266.461 202.666L264.687 201.251L264.21 200.307L264.468 199.274L259.912 196.956L260.8 195.96L259.789 195.202L260.872 192.936L260.385 191.789L260.42 190.486L261.287 189.611L262.403 189.651L264.48 191.538L266.184 199.827L268.16 200L271.215 198.186L272.561 196.669L272.211 196.059L272.366 194.204L272.189 191.018L272.307 188.727L272.902 187.422L270.198 186.945L269.305 185.285L269.57 183.505L270.569 182.298L271.637 180.359L274.617 179.802L275.108 178.681L272.475 178.85L271.742 178.544L271.157 176.88L269.688 176.656L267.258 177.282L266.442 176.848L264.903 177.634L261.372 177.564L259.77 176.52L259.481 175.04L257.434 174.84L254.804 174.93L253.912 173.888L253.609 171.754L250.389 170.542L247.666 170.554L244.166 169.832L241.734 168.53L240.626 167.303L240.114 166.134L239.338 163.116ZM239.338 163.116L238.465 161.959L237.264 161.975L237.133 160.968L239.522 159.779L239.918 161.676L239.338 163.116ZM418.396 476.051L420.231 476.528L420.771 478.939L422.826 479.041L422.594 480.739L423.396 480.871L423.858 481.91L424.696 481.508L425.899 482.224L426.784 482.098L427.198 483.339L426.718 484.898L427.421 485.235L427.789 486.895L428.564 487.801L429.936 488.032L431.152 489.131L431.578 490.317L433.663 491.245L433.148 492.502L430.908 492.213L429.364 493.216L426.26 493.118L424.697 492.654L424.703 491.839L426.57 490.293L423.536 490.206L422.642 488.431L420.732 487.705L419.523 486.16L417.922 486.897L416.754 486.969L414.925 486.514L414.723 483.826L415.318 483.374L414.75 481.814L411.945 481.435L411.276 480.62L414.268 478.883L415.505 478.722L415.748 477.919L417.019 476.964L417.544 475.366L418.396 476.051ZM414.163 462.144L414.703 463.708L413.133 464.152L412.522 462.811L414.163 462.144ZM402.13 449.241L400.906 449.605L400.316 450.489L399.344 448.977L399.268 447.871L401.67 447.09L402.476 448.326L402.13 449.241ZM403.59 446.834L403.162 445.725L403.933 444.877L404.672 445.578L403.59 446.834ZM272.722 165.695L272.679 166.386L273.784 167.505L273.48 168.784L272.473 170.428L270.519 169.494L268.942 169.329L267.45 168.302L268.753 167.699L269.936 166.04L272.722 165.695ZM250.717 163.5L249.226 163.618L249.287 162.239L250.717 163.5ZM106.993 89.6634L108.371 89.9009L107.601 91.0087L106.993 89.6634ZM110.109 85.2622L110.594 85.1724L110.967 87.3444L111.658 88.2023L110.111 90.3579L109.19 90.1606L108.266 87.5499L109.544 86.4112L110.109 85.2622ZM76.9782 84.3909L78.3216 86.1819L79.9496 87.81L81.5859 90.7302L81.81 93.4956L78.5567 94.7944L76.899 94.6492L75.541 93.1963L75.3928 92.4088L73.5787 90.2813L73.5936 88.2789L71.9266 86.8304L72.138 86.0019L71.0228 84.1966L71.4454 82.491L70.6216 81.5318L68.6835 80.5803L67.9961 78.7021L68.6825 77.1603L69.7234 76.4529L71.0965 77.4987L72.7147 79.2957L74.3668 80.2046L75.2286 82.5517L76.9782 84.3909ZM7.99552 23.8046L9.55771 24.5097L9.87389 25.3826L11.1604 25.9705L13.7564 28.5493L16.4102 29.1495L17.3755 28.9708L20.5252 27.2751L22.0389 26.9624L22.6431 25.9875L24.6874 25.5016L26.1457 24.72L29.5728 24.7064L30.7797 25.3876L31.669 27.1433L28.7017 28.1054L26.6748 30.7491L25.5572 31.2042L25.3095 32.4208L23.3754 35.1685L23.0026 37.1722L21.7615 40.7049L20.5839 42.1669L18.5196 40.8154L16.4893 40.8262L15.8813 43.3883L13.1595 44.127L11.4742 44.3403L9.1702 43.7223L9.23194 42.2294L8.02934 40.6734L6.66973 40.1894L4.54012 41.2954L3.9638 37.4166L4.32943 36.025L3.3666 33.7905L3.50743 32.2048L3 30.3955L3.28772 28.5962L4.25775 26.9644L6.85467 23.5322L7.99552 23.8046ZM102.888 4.11485L103.956 3.74138L104.312 4.87028L106.131 5.4175L107.413 6.346L109.552 6.97174L110.58 8.44481L111.792 10.9011L109.988 14.5966L110.259 16.8079L109.215 18.1809L107.399 16.9386L105.5 16.3238L104.047 16.419L101.466 17.3625L100.646 15.2902L99.8265 14.1815L99.0536 11.4549L98.5087 11.2734L97.8391 9.50527L97.9981 7.52426L97.8043 5.88395L99.01 3.75349L100.689 3.14062L102.888 4.11485Z" stroke="white" stroke-width="5"/>
</svg>
