<svg width="212" height="215" viewBox="0 0 212 215" fill="none" xmlns="http://www.w3.org/2000/svg">
<path d="M130.24 183.715L132.383 184.952L133.696 186.834L133.768 188.184L131.629 187.708L131.169 188.915L130.064 188.33L129.909 187.498L127.933 187.64L126.358 186.798L125.888 185.465L124.616 185.933L123.887 184.586L126.329 185.017L127.914 184.748L128.706 183.976L130.24 183.715ZM198.152 177.405L197.641 178.003L196.607 177.635L194.458 178.678L193.952 180.978L194.087 181.978L193.318 183.157L193.885 184.193L192.201 185.381L192.622 186.428L192.378 187.746L191.12 189.017L190.083 191.65L187.952 191.557L188.03 192.773L187.392 193.731L185.639 194.008L185.286 195.022L184.039 196.281L185.282 196.512L185.395 197.561L183.587 198.362L183.728 200.405L182.048 201.364L182.693 202.432L182.101 204.364L180.906 205.555L178.691 204.413L179.203 207.084L180.08 207.386L180.412 208.441L180.04 209.767L181.325 209.637L181.721 211.506L180.454 212.036L177.471 211.999L176.147 210.986L176.536 209.7L176.48 207.974L176.994 206.471L176.598 203.438L176.961 199.686L177.741 196.787L179.17 198.649L180.501 198.474L181.186 196.125L181.141 194.455L182.202 193.283L183.547 190.599L184.588 190.323L184.653 189.417L185.692 188.786L186.575 186.844L187.317 186.21L188.185 184.131L190.676 179.812L191.285 178.38L193.317 176.697L193.525 175.532L194.984 173.379L196.828 173.021L197.851 173.438L198.145 174.281L197.71 175.669L198.152 177.405ZM198.732 171.798L196.814 171.746L197.135 170.47L198.766 169.677L198.732 171.798ZM204.423 141.992L205.946 142.34L206.606 143.122L207.748 142.997L208.847 147.915L206.65 151.708L204.472 154.946L202.619 156.039L201.354 155.682L198 157.524L195.513 159.655L194.198 161.465L194.208 163.23L192.592 166.423L190.386 165.884L189.502 166.672L187.919 166.707L185.492 167.551L184.382 168.522L183.335 168.773L180.683 168.527L178.966 169.009L178.093 170.444L176.752 171.071L176.164 172.551L173.498 174.388L171.459 175.106L171.084 176.157L172.253 178.216L173.516 177.066L175.168 177.944L173.493 181.729L173.258 182.736L171.993 184.15L171.782 185.053L170.228 187.396L168.115 189.472L167.237 189.159L165.954 189.598L165.171 190.438L164.281 189.68L164.369 187.54L163.916 186.889L165.284 184.664L163.714 184.001L165.044 182.753L165.255 181.879L164.443 181.066L163.524 180.978L163.889 178.553L163.735 175.978L165.884 175.978L166.372 174.25L165.095 172.85L165.176 171.983L166.626 171.821L167.519 172.262L169.143 171.556L167.437 169.221L167.354 167.882L168.889 165.955L169.899 165.393L170.222 164.438L171.503 163.744L171.767 161.998L172.373 160.358L172.375 159.039L174.226 154.569L176.363 150.831L179.638 147.227L180.992 146.102L181.901 146.111L183.983 145.163L187.81 144.888L188.468 145.315L190.515 145.579L192.079 146.33L193.002 145.099L194.952 146.062L196.354 145.665L197.658 144.445L201.055 142.326L204.423 141.992ZM99.1394 138.497L98.5961 139.232L98.8972 140.308L98.3527 141.392L97.0214 139.95L96.9851 138.916L99.1394 138.497ZM121.774 126.35L122.942 127.037L121.219 128.798L122.946 129.223L123.258 130.722L124.258 130.042L123.616 128.386L124.103 127.868L125.764 127.414L126.839 129.103L126.495 129.965L124.75 130.397L125.315 131.252L125.333 133.706L127.973 133.053L127.496 131.706L128.059 130.893L129.013 132.318L129.701 130.734L130.391 130.764L131.809 129.85L132.472 131.122L130.06 132.029L129.231 133.06L129.86 134.9L128.789 135.985L129.444 137.495L130.124 135.54L131.015 134.549L131.975 134.587L133.501 132.841L134.088 135.055L133.149 135.154L132.971 136.247L133.768 138.13L131.631 139.139L130.356 139.101L130.53 140.451L128.932 141.378L131.694 141.534L131.891 142.68L129.957 143.009L129.966 143.836L127.706 143.499L127.941 144.286L126.336 145.424L125.238 145.821L125.325 146.705L124.268 148.233L121.149 148.537L120.834 149.881L119.25 149.4L117.338 150.353L116.693 149.693L116.097 147.772L115.071 146.267L112.908 146.511L112.552 148.017L110.758 149.795L109.236 153.077L109.246 154.633L108.322 158.368L107.543 159.504L110.45 160.268L112.441 162.459L112.932 164.046L115.474 167.441L116.725 168.727L119.034 169.796L119.955 170.942L122.263 172.018L125.539 174.111L127.127 174.109L128.486 174.672L129.791 177.392L133.154 180.367L135.011 181.566L133.927 182.271L132.48 182.251L131.138 181.747L129.09 179.863L127.925 179.656L125.8 177.006L126.035 176.388L125.146 175.353L124.361 175.358L123.228 174.057L120.364 172.366L117.115 171.699L113.341 168.128L111.757 166.938L110.996 165.978L109.662 165.217L108.882 163.78L106.505 162.17L106.261 161.161L104.802 160.141L102.567 157.865L100.317 155.029L98.6729 150.855L98.6954 149.055L100.887 145.628L100.364 143.324L100.824 140.544L100.232 138.72L100.657 137.998L100.59 136.227L101.044 135.264L102.123 134.469L101.319 133.735L101.847 132.691L104.437 133.441L105.442 133.073L105.744 134.295L109.289 135.554L110.514 135.458L110.305 136.836L111.245 137.934L112.795 137.967L112.204 136.75L113.009 135.868L112.338 134.25L112.803 133.046L114.132 133.922L115.892 133.653L115.369 132.513L116.386 131.741L117.1 132.276L118.517 132.185L118.8 133.225L120.944 134.604L121.087 135.669L122.077 135.482L122.038 134.15L120.433 132.743L119.691 130.804L120.501 130.094L119.885 129.227L121.066 127.07L121.774 126.35ZM101.711 114.743L102.294 115.912L103.335 116.577L104.266 116.415L104.203 114.944L106.001 114.332L107.729 114.536L107.303 116.442L105.667 117.443L104.714 117.446L104.098 119.605L102.217 120.746L100.147 119.048L99.9933 115.818L101.711 114.743ZM104.862 111.61L103.107 113.668L102.096 112.372L103.262 111.242L104.862 111.61ZM93.8086 109.47L93.2392 109.365L92.6693 107.512L93.8558 106.828L94.5993 107.198L94.8215 108.349L93.8086 109.47ZM102.435 105.193L101.322 105.574L100.794 106.606L98.871 106.61L99.0567 104.916L99.8906 103.366L101.016 102.576L102.94 102.171L102.848 101.148L103.399 99.9033L104.358 99.8198L104.942 100.662L104.476 101.844L102.435 105.193ZM91.8485 35.0999L88.392 27.7835L89.0433 28.4003L91.6626 34.2829L91.8485 35.0999ZM78.899 16.1675L80.2629 17.2241L83.8998 18.3L85.131 18.1918L87.6097 18.6383L89.0662 19.3114L90.7622 18.9174L91.4344 19.2732L89.9733 21.0259L88.3925 21.0297L88.603 19.8033L86.3248 19.8469L85.869 19.0714L83.4425 18.8489L81.9102 19.3002L80.6693 20.3586L79.7606 19.2279L79.63 17.6022L77.2835 17.5287L77.0031 22.7882L74.7489 22.2595L73.6629 22.9348L72.8526 25.0789L73.7014 27.1842L75.7241 27.6414L77.0696 27.0652L78.0908 25.9977L82.5681 26.7163L83.7593 26.5551L87.3956 26.9162L87.3182 27.8573L85.9578 28.7169L88.5339 30.2441L88.5113 30.983L89.6909 32.307L91.2822 36.0847L90.9393 37.6448L90.1966 38.3557L90.101 39.8926L91.2458 41.0949L91.3656 42.1032L93.0779 43.2733L94.963 45.0209L94.9444 47.8907L93.1984 49.0103L91.6234 50.4353L92.2013 53.3719L91.4482 56.4776L92.2977 57.3418L92.8449 59.1526L91.9546 61.1762L92.0115 62.0465L92.9023 63.2011L93.1243 65.1238L92.9205 67.2453L93.2029 68.9999L91.3187 71.0971L90.8723 73.0758L91.3984 74.3209L92.3476 75.0385L91.6855 77.4915L92.4921 80.2338L93.8169 81.6501L94.5836 81.8823L95.5316 83.7987L96.5722 84.9993L96.9522 86.1955L97.7459 86.9017L97.7531 88.2401L97.2572 89.8945L97.8685 91.1423L97.6883 92.9197L96.8468 95.0586L96.4796 97.1117L95.9865 97.862L93.7654 99.199L92.5564 101.723L90.8919 101.862L89.9086 102.455L89.4072 104.236L89.6911 105.547L88.4125 107.165L86.9258 108.049L86.0233 110.116L85.9296 111.364L85.2386 112.448L85.4372 114.022L84.9934 115.44L82.1782 117.972L81.037 118.744L81.0259 122.924L80.5117 125.391L81.0957 126.285L82.6497 127.1L84.6608 127.719L85.8982 126.703L85.7789 125.014L86.3249 123.304L87.3332 121.65L87.6636 120.491L86.1849 116.898L86.0507 114.492L86.5682 112.905L87.4335 112.081L89.3631 111.807L89.4667 111.059L88.1048 109.996L88.7777 109.371L90.0333 110.129L91.0496 111.731L91.0843 113.4L91.9 114.097L92.1105 115.396L93.6054 115.265L94.1668 116.099L93.2668 117.288L93.253 118.121L92.049 119.092L92.9602 119.902L93.0746 121.234L93.6852 122.593L93.5413 123.583L94.2935 124.699L93.2454 126.431L92.7338 127.875L93.3066 128.64L92.2155 129.653L92.1954 130.741L90.4848 131.556L89.7759 131.07L89.2173 129.268L87.4608 130.376L87.9941 133.186L88.0846 135.036L89.0734 136.219L90.2676 138.423L90.5112 139.953L91.1676 141.002L92.3511 144.875L93.5351 146.611L93.1332 147.195L93.4303 149.616L93.269 150.8L93.5456 152.561L94.135 153.269L93.6287 154.906L93.7377 156.095L92.6687 159.378L92.1259 160.062L90.6037 160.395L89.3754 162.351L87.9964 161.967L87.7744 160.799L86.9782 159.438L85.2565 160.617L84.1215 157.504L82.8661 155.084L82.1751 152.289L81.591 151.615L80.1611 151.087L79.065 152.169L79.5498 154.199L79.3666 155.25L78.2881 156.179L79.0016 156.951L79.3464 158.615L78.8497 161.09L82.0803 164.232L81.5217 164.582L78.3341 164.285L77.2239 162.309L76.1426 162.154L74.2359 161.012L73.6236 160.268L72.7715 160.857L73.3877 162.222L74.6158 162.208L76.0882 163.581L76.119 164.718L74.9425 166.613L75.6236 168.919L74.1757 173.392L72.056 171.972L71.0191 172.188L69.3681 174.697L68.2645 174.615L66.8359 173.805L66.2096 174.303L63.0229 173.892L61.7764 172.213L60.8355 169.889L59.3823 169.966L57.166 173.736L55.2374 174.892L53.1692 178.151L53.4757 179.664L53.0898 180.983L53.3799 182.308L54.5019 184.254L55.6422 185.493L56.4367 187.694L55.9005 188.355L53.5277 189.468L51.9628 189.372L51.1619 187.406L51.1469 186.508L49.4654 185.533L48.7472 184.281L47.8024 180.958L47.8524 178.49L48.9627 178.04L49.337 176.724L49.2001 174.85L48.7217 174.682L46.5242 175.328L43.3027 175.323L42.5128 176.108L42.7193 177.133L40.6473 176.885L39.5746 175.344L39.2979 172.594L38.6849 172.139L38.4121 170.356L36.563 168.209L36.5144 166.984L35.6502 165.097L35.759 164.115L36.6506 163.18L36.8055 161.552L36.1132 161.195L36.7087 158.901L36.2541 157.888L35.2582 157.179L31.379 155.67L30.2124 155.881L29.3651 157.206L28.4346 157.779L27.2361 160.582L26.6577 163.03L23.6238 169.104L22.6196 174.045L21.6643 176.473L19.268 178.653L19.8356 179.47L18.5788 180.319L17.6553 180.311L18.6873 183.244L17.8464 184.692L14.2466 186.252L13.4896 188.217L11.7888 188.737L13.1319 190.625L11.199 192.201L11.125 192.879L9.89003 194.655L8.54973 195.121L9.12289 195.991L7.75932 197.225L7.93838 198.179L6.03466 199.263L4.98649 200.359L4.30078 199.53L6.79675 197.245L6.51212 195.068L7.0313 193.918L7.1742 192.05L8.0587 191.507L8.87633 190.248L8.55704 188.945L7.57736 189.022L6.66111 187.768L5.20391 186.88L4.71143 184.23L6.25522 183.249L6.61793 181.093L8.14448 180.556L8.5004 179.581L8.28988 176.603L8.57806 175.642L8.14721 173.256L9.81545 172.168L10.3522 170.674L10.9944 165.835L10.8438 164.622L11.8837 161.796L12.5359 153.567L12.5501 151.155L12.1943 147.152L11.812 146.34L12.9527 144.348L13.1082 141.642L12.1618 136.535L11.9087 131.316L11.2258 127.143L11.3078 124.505L12.4933 123.149L13.9283 120.717L13.9695 119.199L14.4729 117.907L16.9576 114.963L18.4572 110.932L20.1138 107.751L21.7559 102.845L22.5128 97.913L24.3627 94.2039L25.3915 88.781L25.6625 84.6659L26.6656 81.5324L27.8359 77.2114L28.891 76.4275L29.5818 73.7981L30.1729 72.6285L31.1192 69.6404L31.4249 67.9468L32.5098 64.716L33.2256 61.0102L34.068 60.9496L34.894 59.6167L35.9845 58.9632L37.1606 55.1656L38.5107 54.6253L39.6152 55.6161L42.1215 54.8578L44.066 53.4799L45.3945 51.6734L46.9434 48.6487L48.1073 45.2751L48.2765 43.2921L48.699 42.0347L48.7069 39.5772L49.4678 38.4301L51.346 37.0752L54.2144 31.6153L54.6628 30.0539L56.5821 28.1397L58.9126 26.9827L60.4899 26.5832L62.4823 27.4442L64.3685 27.6942L65.6066 28.5005L68.4787 28.9601L69.5195 28.2634L70.8728 26.5483L72.9122 22.6108L74.885 16.5648L77.7419 15.6896L78.899 16.1675ZM103.827 4.80078L102.26 6.04499L100.91 10.0103L99.7522 12.6041L99.8914 14.7617L102.828 10.8044L104.632 10.3925L105.759 11.1897L105.573 12.2064L102.928 12.1623L102.663 12.8756L103.742 14.2095L99.8914 14.7617L99.6899 16.4711L98.3319 16.1888L96.7806 18.7257L95.5462 19.9493L94.0108 20.795L93.6911 21.6906L92.5389 21.8387L92.1295 20.4635L94.0108 20.795L95.7692 18.9056L97.2672 16.7627L99.2263 13.0267L100.982 8.38289L102.534 5.01655L103.827 4.80078Z" fill="#1E1E1E"/>
<path d="M99.8914 14.7617L99.7522 12.6041L100.91 10.0103L102.26 6.04499L103.827 4.80078L102.534 5.01655L100.982 8.38289L99.2263 13.0267L97.2671 16.7627L95.7692 18.9056L94.0108 20.795M99.8914 14.7617L102.828 10.8044L104.632 10.3925L105.759 11.1897L105.573 12.2064L102.928 12.1623L102.663 12.8756L103.742 14.2095L99.8914 14.7617ZM99.8914 14.7617L99.6899 16.4711L98.3319 16.1888L96.7806 18.7257L95.5462 19.9493L94.0108 20.795M94.0108 20.795L93.6911 21.6906L92.5389 21.8387L92.1295 20.4635L94.0108 20.795ZM130.24 183.715L132.383 184.952L133.696 186.834L133.768 188.184L131.629 187.708L131.169 188.915L130.064 188.33L129.909 187.498L127.933 187.64L126.358 186.798L125.888 185.465L124.616 185.933L123.887 184.586L126.329 185.017L127.914 184.748L128.706 183.976L130.24 183.715ZM198.152 177.405L197.641 178.003L196.607 177.635L194.458 178.678L193.952 180.978L194.087 181.978L193.318 183.157L193.885 184.193L192.201 185.381L192.622 186.428L192.378 187.746L191.12 189.017L190.083 191.65L187.952 191.557L188.03 192.773L187.392 193.731L185.639 194.008L185.286 195.022L184.039 196.281L185.282 196.512L185.395 197.561L183.587 198.362L183.728 200.405L182.048 201.364L182.693 202.432L182.101 204.364L180.906 205.555L178.691 204.413L179.203 207.084L180.08 207.386L180.412 208.441L180.04 209.767L181.325 209.637L181.721 211.506L180.454 212.036L177.471 211.999L176.147 210.986L176.536 209.7L176.48 207.974L176.994 206.471L176.598 203.438L176.961 199.686L177.741 196.787L179.17 198.649L180.501 198.474L181.186 196.125L181.141 194.455L182.202 193.283L183.547 190.599L184.588 190.323L184.653 189.417L185.692 188.786L186.575 186.844L187.317 186.21L188.185 184.131L190.676 179.812L191.285 178.38L193.317 176.697L193.525 175.532L194.984 173.379L196.828 173.021L197.851 173.438L198.145 174.281L197.71 175.669L198.152 177.405ZM198.732 171.798L196.814 171.746L197.135 170.47L198.766 169.677L198.732 171.798ZM204.423 141.992L205.946 142.34L206.606 143.122L207.748 142.997L208.847 147.915L206.65 151.708L204.472 154.946L202.619 156.039L201.354 155.682L198 157.524L195.513 159.655L194.198 161.465L194.208 163.23L192.592 166.423L190.386 165.884L189.502 166.672L187.919 166.707L185.491 167.551L184.382 168.522L183.335 168.773L180.683 168.527L178.966 169.009L178.093 170.444L176.752 171.071L176.164 172.551L173.498 174.388L171.459 175.106L171.084 176.157L172.253 178.216L173.516 177.066L175.168 177.944L173.493 181.729L173.258 182.736L171.993 184.15L171.782 185.053L170.228 187.396L168.115 189.472L167.237 189.159L165.954 189.598L165.171 190.438L164.281 189.68L164.369 187.54L163.916 186.889L165.284 184.664L163.714 184.001L165.044 182.753L165.255 181.879L164.443 181.066L163.524 180.978L163.89 178.553L163.735 175.978L165.884 175.978L166.372 174.25L165.095 172.85L165.176 171.983L166.626 171.821L167.519 172.262L169.143 171.556L167.437 169.221L167.354 167.882L168.889 165.955L169.899 165.393L170.222 164.438L171.503 163.744L171.767 161.998L172.373 160.358L172.375 159.039L174.226 154.569L176.363 150.831L179.638 147.227L180.992 146.102L181.901 146.111L183.983 145.163L187.81 144.888L188.468 145.315L190.515 145.579L192.079 146.33L193.002 145.099L194.952 146.062L196.354 145.665L197.658 144.445L201.055 142.326L204.423 141.992ZM99.1394 138.497L98.5961 139.232L98.8972 140.308L98.3527 141.392L97.0214 139.95L96.9851 138.916L99.1394 138.497ZM121.774 126.35L122.942 127.037L121.219 128.798L122.946 129.223L123.258 130.722L124.259 130.042L123.616 128.386L124.103 127.868L125.764 127.414L126.839 129.103L126.495 129.965L124.75 130.397L125.315 131.252L125.333 133.706L127.973 133.053L127.496 131.706L128.059 130.893L129.013 132.318L129.701 130.734L130.391 130.764L131.809 129.85L132.472 131.122L130.06 132.029L129.231 133.06L129.86 134.9L128.789 135.985L129.444 137.495L130.124 135.54L131.015 134.549L131.975 134.587L133.501 132.841L134.088 135.055L133.149 135.154L132.971 136.247L133.768 138.13L131.631 139.139L130.356 139.101L130.53 140.451L128.932 141.378L131.694 141.534L131.891 142.68L129.957 143.009L129.966 143.836L127.706 143.499L127.941 144.286L126.336 145.424L125.238 145.821L125.325 146.705L124.268 148.233L121.149 148.537L120.834 149.881L119.25 149.4L117.338 150.353L116.693 149.693L116.097 147.772L115.071 146.267L112.908 146.511L112.552 148.017L110.758 149.795L109.236 153.077L109.246 154.633L108.322 158.368L107.543 159.504L110.45 160.268L112.441 162.459L112.932 164.046L115.474 167.441L116.725 168.727L119.034 169.796L119.955 170.942L122.263 172.018L125.539 174.111L127.127 174.109L128.486 174.672L129.791 177.392L133.154 180.367L135.011 181.566L133.927 182.271L132.48 182.251L131.138 181.747L129.09 179.863L127.925 179.656L125.8 177.006L126.035 176.388L125.146 175.353L124.361 175.358L123.228 174.057L120.364 172.366L117.115 171.699L113.341 168.128L111.757 166.938L110.996 165.978L109.662 165.217L108.882 163.78L106.505 162.17L106.261 161.161L104.802 160.141L102.567 157.865L100.317 155.029L98.6729 150.855L98.6954 149.055L100.887 145.628L100.364 143.324L100.824 140.544L100.232 138.72L100.657 137.998L100.59 136.227L101.044 135.264L102.123 134.469L101.319 133.735L101.847 132.691L104.437 133.441L105.442 133.073L105.744 134.295L109.289 135.554L110.514 135.458L110.305 136.836L111.245 137.934L112.795 137.967L112.204 136.75L113.009 135.868L112.338 134.25L112.803 133.046L114.132 133.922L115.892 133.653L115.369 132.513L116.386 131.741L117.1 132.276L118.517 132.185L118.8 133.225L120.944 134.604L121.087 135.669L122.077 135.482L122.038 134.15L120.433 132.743L119.691 130.804L120.501 130.094L119.885 129.227L121.066 127.07L121.774 126.35ZM101.711 114.743L102.294 115.912L103.335 116.577L104.266 116.415L104.203 114.944L106.001 114.332L107.729 114.536L107.303 116.442L105.667 117.443L104.714 117.446L104.098 119.605L102.217 120.746L100.147 119.048L99.9933 115.818L101.711 114.743ZM104.862 111.61L103.107 113.668L102.096 112.372L103.262 111.242L104.862 111.61ZM93.8086 109.47L93.2392 109.365L92.6693 107.512L93.8558 106.828L94.5993 107.198L94.8215 108.349L93.8086 109.47ZM102.435 105.193L101.322 105.574L100.794 106.606L98.871 106.61L99.0567 104.916L99.8906 103.366L101.016 102.576L102.94 102.171L102.848 101.148L103.399 99.9032L104.358 99.8198L104.942 100.662L104.476 101.844L102.435 105.193ZM91.8485 35.0999L88.392 27.7835L89.0433 28.4003L91.6626 34.2829L91.8485 35.0999ZM78.899 16.1675L80.2629 17.2241L83.8998 18.3L85.131 18.1918L87.6097 18.6383L89.0662 19.3114L90.7622 18.9174L91.4344 19.2732L89.9733 21.0259L88.3925 21.0297L88.603 19.8033L86.3248 19.8469L85.869 19.0714L83.4425 18.8489L81.9102 19.3002L80.6693 20.3586L79.7606 19.2279L79.63 17.6022L77.2835 17.5287L77.0031 22.7882L74.7489 22.2595L73.6629 22.9348L72.8526 25.0789L73.7014 27.1842L75.7241 27.6414L77.0696 27.0652L78.0908 25.9977L82.5681 26.7163L83.7593 26.5551L87.3956 26.9162L87.3182 27.8573L85.9578 28.7169L88.5339 30.2441L88.5113 30.983L89.691 32.307L91.2822 36.0847L90.9393 37.6448L90.1966 38.3557L90.101 39.8926L91.2458 41.0949L91.3656 42.1032L93.0779 43.2733L94.963 45.0209L94.9444 47.8907L93.1984 49.0103L91.6234 50.4353L92.2013 53.3719L91.4482 56.4776L92.2977 57.3418L92.8449 59.1526L91.9546 61.1762L92.0115 62.0465L92.9023 63.2011L93.1243 65.1238L92.9205 67.2453L93.2029 68.9999L91.3187 71.0971L90.8723 73.0758L91.3984 74.3209L92.3476 75.0385L91.6855 77.4915L92.492 80.2338L93.8169 81.6501L94.5836 81.8823L95.5316 83.7987L96.5722 84.9993L96.9522 86.1955L97.7459 86.9017L97.7531 88.2401L97.2572 89.8945L97.8685 91.1423L97.6883 92.9197L96.8468 95.0586L96.4796 97.1117L95.9865 97.862L93.7654 99.199L92.5564 101.723L90.8919 101.862L89.9086 102.455L89.4072 104.236L89.6911 105.547L88.4125 107.165L86.9258 108.049L86.0233 110.116L85.9296 111.364L85.2386 112.448L85.4372 114.022L84.9934 115.44L82.1782 117.972L81.037 118.744L81.0259 122.924L80.5117 125.391L81.0957 126.285L82.6497 127.1L84.6608 127.719L85.8982 126.703L85.7789 125.014L86.3249 123.304L87.3332 121.65L87.6636 120.491L86.1849 116.898L86.0507 114.492L86.5682 112.905L87.4335 112.081L89.3631 111.807L89.4667 111.059L88.1048 109.997L88.7777 109.371L90.0333 110.129L91.0496 111.731L91.0843 113.4L91.9 114.097L92.1105 115.396L93.6054 115.265L94.1668 116.099L93.2668 117.288L93.253 118.121L92.049 119.092L92.9602 119.902L93.0746 121.234L93.6852 122.593L93.5413 123.583L94.2936 124.699L93.2454 126.431L92.7338 127.875L93.3066 128.64L92.2155 129.653L92.1954 130.741L90.4848 131.556L89.7759 131.07L89.2173 129.268L87.4608 130.376L87.9941 133.186L88.0846 135.036L89.0734 136.219L90.2676 138.423L90.5112 139.953L91.1676 141.002L92.3511 144.875L93.5351 146.611L93.1332 147.195L93.4303 149.616L93.269 150.8L93.5456 152.561L94.135 153.269L93.6287 154.906L93.7377 156.095L92.6687 159.378L92.1259 160.062L90.6037 160.395L89.3754 162.351L87.9964 161.967L87.7744 160.799L86.9782 159.438L85.2565 160.617L84.1215 157.504L82.8661 155.084L82.1751 152.289L81.591 151.615L80.1611 151.087L79.065 152.169L79.5498 154.199L79.3666 155.25L78.2881 156.179L79.0016 156.951L79.3464 158.615L78.8497 161.09L82.0803 164.232L81.5217 164.582L78.3341 164.285L77.2239 162.309L76.1426 162.154L74.2359 161.012L73.6236 160.268L72.7715 160.857L73.3877 162.222L74.6158 162.208L76.0882 163.581L76.119 164.718L74.9425 166.613L75.6237 168.919L74.1757 173.392L72.056 171.972L71.0191 172.188L69.3681 174.697L68.2645 174.615L66.8359 173.805L66.2096 174.303L63.0229 173.892L61.7764 172.213L60.8355 169.889L59.3823 169.966L57.166 173.736L55.2374 174.892L53.1692 178.151L53.4757 179.664L53.0898 180.983L53.3799 182.308L54.5019 184.254L55.6422 185.493L56.4367 187.694L55.9005 188.355L53.5277 189.468L51.9628 189.372L51.1619 187.406L51.1469 186.508L49.4654 185.533L48.7472 184.281L47.8024 180.958L47.8524 178.49L48.9627 178.04L49.337 176.724L49.2001 174.85L48.7217 174.682L46.5242 175.328L43.3027 175.323L42.5128 176.108L42.7193 177.133L40.6473 176.885L39.5746 175.344L39.2979 172.594L38.6849 172.139L38.4121 170.356L36.563 168.209L36.5144 166.984L35.6502 165.097L35.759 164.115L36.6506 163.18L36.8055 161.552L36.1132 161.195L36.7087 158.901L36.2541 157.888L35.2582 157.179L31.379 155.67L30.2124 155.881L29.3651 157.206L28.4346 157.779L27.2361 160.582L26.6577 163.03L23.6238 169.104L22.6196 174.045L21.6643 176.473L19.268 178.653L19.8356 179.47L18.5788 180.319L17.6553 180.311L18.6873 183.244L17.8464 184.692L14.2466 186.252L13.4896 188.217L11.7888 188.737L13.1319 190.625L11.199 192.201L11.125 192.879L9.89003 194.655L8.54973 195.121L9.12289 195.991L7.75932 197.225L7.93838 198.179L6.03466 199.263L4.98649 200.359L4.30078 199.53L6.79675 197.245L6.51212 195.068L7.0313 193.918L7.1742 192.05L8.0587 191.507L8.87633 190.248L8.55704 188.945L7.57736 189.022L6.66111 187.768L5.20391 186.88L4.71143 184.23L6.25522 183.249L6.61793 181.093L8.14448 180.556L8.5004 179.581L8.28988 176.603L8.57806 175.642L8.14721 173.256L9.81545 172.168L10.3522 170.674L10.9944 165.835L10.8438 164.622L11.8837 161.796L12.5359 153.567L12.5501 151.155L12.1943 147.152L11.812 146.34L12.9527 144.348L13.1082 141.642L12.1618 136.535L11.9087 131.316L11.2258 127.143L11.3078 124.505L12.4933 123.149L13.9283 120.717L13.9695 119.199L14.4729 117.907L16.9576 114.963L18.4572 110.932L20.1138 107.751L21.7559 102.845L22.5128 97.913L24.3627 94.2039L25.3915 88.781L25.6625 84.6659L26.6656 81.5324L27.8359 77.2114L28.891 76.4275L29.5818 73.7981L30.1729 72.6285L31.1192 69.6404L31.4249 67.9468L32.5098 64.716L33.2256 61.0102L34.068 60.9496L34.894 59.6167L35.9845 58.9632L37.1606 55.1656L38.5107 54.6253L39.6152 55.6161L42.1215 54.8578L44.066 53.4799L45.3945 51.6734L46.9434 48.6487L48.1073 45.2751L48.2765 43.2921L48.699 42.0347L48.7069 39.5772L49.4678 38.4301L51.346 37.0752L54.2144 31.6153L54.6628 30.0539L56.5821 28.1397L58.9126 26.9827L60.4899 26.5832L62.4823 27.4442L64.3685 27.6942L65.6066 28.5005L68.4787 28.9601L69.5195 28.2634L70.8728 26.5483L72.9122 22.6108L74.885 16.5648L77.7419 15.6896L78.899 16.1675Z" stroke="white" stroke-width="5"/>
</svg>
