<svg width="387" height="331" viewBox="0 0 387 331" fill="none" xmlns="http://www.w3.org/2000/svg">
<path d="M43.105 275.767L43.9113 276.05L44.7258 277.894L45.9203 277.268L46.9181 279.02L43.8819 279.014L44.0812 278.197L43.105 275.767ZM380.946 162.646L382.953 159.872L383.998 161.335L383.737 163.927L383.754 166.787L384.212 168.93L382.808 170.657L382.524 172.457L380.639 174.452L378.796 173.753L377.341 174.317L376.217 174.231L375.746 175.533L374.741 176.613L374.722 177.546L375.814 180.893L377.583 182.564L375.842 183.392L373.857 183.614L372.566 182.465L372.156 180.908L372.146 177.1L371.463 176.298L371.838 174.947L371.232 173.37L371.44 172.376L372.281 172.226L373.234 170.327L374.842 170.624L375.493 172.572L376.184 171.399L377.639 170.866L377.704 168.569L376.542 167.872L375.623 166.322L376.709 165.746L376.22 163.393L376.693 161.49L377.636 160.738L379.646 159.924L380.946 162.646ZM203.685 152.007L202.826 151.329L203.41 149.411L204.683 150.264L203.685 152.007ZM353.094 141.643L351.165 139.561L352.516 138.767L353.094 141.643ZM339.315 128.135L340.618 128.118L341.617 130.045L341.919 131.757L343.348 133.658L343.793 134.885L345.051 135.582L346.856 137.545L349.406 139.304L349.942 141.36L349.529 142.095L348.443 140.262L347.8 140.221L345.935 138.648L344.032 135.49L342.155 134.547L340.764 134.253L338.764 131.321L337.557 126.297L338.78 126.871L339.315 128.135ZM324.328 126.265L325.188 126.717L325.551 129.832L326.022 130.225L325.411 132.655L323.875 133.072L322.019 132.247L320.69 130.796L321.189 129.122L320.91 126.577L321.675 124.843L321.721 123.337L324.328 126.265ZM338.119 95.5519L336.67 95.268L335.206 94.0093L334.72 92.3861L336.097 91.0758L337.361 93.7117L338.404 94.5697L338.119 95.5519ZM369.676 90.3664L370.771 92.3823L370.541 94.0862L372.577 94.398L373.561 95.3904L374.672 95.6148L376.137 97.2813L377.057 96.4133L378.021 97.5552L378.034 99.1025L376.7 98.5677L376.171 99.0912L375.866 102.048L377.037 106.05L377.681 106.83L377.543 109.089L376.491 112.258L374.118 112.813L374.159 109.049L372.487 109.086L372.257 107.629L371.146 108.117L370.168 107.124L370.594 106.172L369.817 104.804L369.018 105.219L367.649 104.926L367.365 102.938L366.412 101.75L366.364 100.542L365.713 98.9778L365.999 98.3133L365.71 96.3715L367.007 96.2893L364.669 93.5959L365.195 90.798L363.855 90.6184L363.576 89.9809L364.674 89.0211L365.162 86.6821L365.957 85.9639L366.95 86.5039L369.676 90.3664ZM337.03 86.3301L338.507 86.2954L338.061 87.3773L337.03 86.3301ZM357.369 72.3598L357.838 71.5949L360.738 72.3242L361.486 74.2195L360.114 74.2042L359.419 76.2152L357.753 76.3496L355.942 75.851L354.425 74.0897L354.878 71.3799L355.344 71.0928L357.369 72.3598ZM343.359 71.1066L342.641 70.3807L342.734 68.1805L343.647 67.9014L343.969 69.7675L343.359 71.1066ZM333.902 69.3258L332.823 69.4245L332.691 67.8984L333.875 67.0751L334.617 67.8772L333.902 69.3258ZM350.306 71.4584L350.128 72.1709L348.636 73.3758L346.128 74.0391L345.765 73.0841L346.162 71.6806L345.585 69.9602L347.124 67.904L347.521 66.5521L347.505 64.5357L348.296 63.9747L351.173 65.9484L351.431 68.3659L350.935 70.5394L350.306 71.4584ZM329.836 63.9482L328.677 64.928L327.372 64.2048L326.896 65.1878L325.876 64.8499L326.693 63.5066L326.539 61.9755L327.594 60.8244L329.102 61.9099L329.836 63.9482ZM347.068 59.1314L348.215 59.0737L349.628 60.512L349.651 62.2907L347.45 63.2242L345.956 64.3091L343.899 62.1369L343.593 60.5735L343.944 59.8296L345.779 58.6904L347.068 59.1314ZM326.261 56.8322L327.149 58.994L326.965 60.3819L325.621 60.0264L325.513 56.9659L326.261 56.8322ZM113.082 61.6233L114.001 63.2273L115.827 64.5476L117.793 64.9072L118.911 66.3778L120.301 66.1418L120.976 67.5749L122.445 68.3743L122.835 70.4363L121.794 71.0394L120.596 69.8235L119.232 69.8698L119.264 70.764L120.394 71.0298L121.855 74.4384L121.601 75.6095L124.183 78.8496L124.276 80.8884L122.487 81.6202L124.054 82.559L124.184 83.5896L122.303 83.8185L123.609 85.2449L125.1 85.7002L126.137 87.3885L126.104 88.6628L124.711 92.1199L126.28 92.5809L128.153 94.0603L128.244 95.7274L129.38 96.7113L128.805 98.3407L130.027 99.4101L129.423 101.009L128.47 102.175L130.695 102.717L130.74 104.349L129.588 105.58L129.764 107.347L130.809 107.27L131.349 108.071L133.817 107.242L135.576 107.682L136.341 108.26L135.989 110.212L136.95 112.731L137.1 113.944L136.334 115.177L138.01 119.9L139.273 124.675L138.657 125.88L137.21 125.954L137.067 127.058L139.444 127.761L139.576 130.797L138.623 131.954L140.483 132.828L141.56 136.878L141.311 138.616L142.241 139.407L142.489 141.798L141.639 142.703L142.757 143.37L142.935 145.277L142.639 147.843L143.778 152.655L143.869 153.704L144.956 157.079L144.795 158.112L143.85 158.714L144.556 160.467L144.339 161.811L141.177 165.294L139.562 165.589L138.763 166.194L137.062 166.71L136.065 167.829L134.159 168.37L132.277 170.587L130.508 171.003L129.845 172.064L132.156 173.87L133.553 174.578L134.023 175.882L135.577 176.979L136.795 179.525L136.297 181.1L137.727 183.998L138.209 186.987L138.795 188.612L139.987 190.046L140.586 191.446L142.335 193.783L142.54 195.643L143.684 198.867L144.195 199.7L146.933 202.808L148.055 203.424L150.99 203.737L152.999 203.416L154.741 202.779L155.085 201.988L156.341 201.36L157.359 200.184L158.544 197.66L159.345 197.464L160.008 196.404L162.157 194.401L161.922 193.086L162.746 191.307L162.715 188.774L164.4 187.06L165.787 186.569L166.44 185.514L167.565 184.726L168.384 184.913L170.28 187.135L170.07 188.905L168.94 190.786L167.474 191.572L167.344 192.476L168.372 192.898L166.91 194.591L166.591 197.169L167.405 197.817L169.772 197.495L171.866 194.508L174.503 194.317L175.336 195.405L175.766 196.779L177.69 196.339L177.769 198.07L179.305 198.48L179.269 199.977L178.411 200.398L177.686 202.147L177.78 203.096L179.23 203.36L179.256 204.3L180.302 204.754L180.36 206.898L181.776 207.206L181.72 209.211L185.682 211.011L183.847 213.887L183.95 216.141L184.578 217.614L184.784 219.346L185.997 221.341L187.817 221.921L189.593 224.451L190.568 227.076L192.071 228.289L192.82 229.889L193.908 230.419L194.007 231.362L195.182 232.447L196.093 234.799L197.351 235.583L197.718 237.289L199.602 239.553L201.171 240.823L204.902 246.012L206.769 248.276L206.703 249.798L207.568 250.282L209.38 253.601L210.94 254.286L211.742 255.229L211.972 256.68L211.773 258.47L212.375 260.908L213.647 264.081L215.238 266.072L216.669 266.705L217.621 268.851L219.141 270.293L220.861 268.778L221.84 268.305L222.386 269.516L221.354 272.082L222.585 275.725L223.48 277.141L224.885 280.272L225.471 281.075L226.559 281.46L228.094 280.79L228.881 282.664L231.917 286.453L232.512 288.111L233.464 287.909L234.896 288.462L236.084 291.152L236.182 292.47L235.635 295.039L233.869 298.551L232.936 298.996L232.839 300.236L232.221 300.896L232.153 302.44L231.117 303.447L231.262 304.534L230.218 305.704L229.683 309.022L228.908 310.139L228.729 312.801L228.749 316.293L227.319 320.152L226.948 322.259L226.299 322.351L224.868 323.684L223.965 325.161L222.475 326.733L221.535 327.276L220.72 325.471L217.975 322.845L216.368 322.102L214.917 320.975L212.564 319.798L210.13 319.508L208.568 320.66L207.04 320.635L204.94 321.243L203.229 323.018L202.514 324.283L200.414 324.845L199.88 323.997L197.142 323.553L195.797 323.565L188.057 321.841L186.395 321.006L185.592 320.992L182.412 319.827L180.907 319.753L178.128 317.827L177.447 315.818L174.614 312.074L171.548 309.858L171.067 309.178L169.621 308.788L167.248 306.092L164.414 303.942L162.089 303.78L160.449 303.383L159.994 302.313L158.257 302.849L158.068 301.6L155.924 299.56L153.106 297.439L151.595 296.932L151.545 294.388L149.967 292.988L146.941 291.339L144.767 290.734L140.786 289.152L138.047 288.614L135.93 288.726L134.906 288.481L132.434 289.71L130.863 289.904L129.958 292.195L128.548 292.938L127.932 292.646L126.401 294.095L125.859 295.431L124.724 295.174L123.741 296.596L119.614 297.23L118.197 298.786L116.005 299.719L115.104 300.772L114.816 302.591L115.536 303.356L114.394 305.113L114.602 306.876L111.856 305.957L111.277 305.318L108.98 305.483L108.039 305.03L107.004 303.845L104.341 302.077L102.238 299.912L99.8544 298.296L97.0358 297.434L95.1936 298.741L93.7854 297.723L92.7054 298.039L91.9997 299.108L89.2733 297.909L89.1514 299.444L88.1947 299.084L88.2374 298.152L87.4196 297.037L87.8224 295.762L87.1153 293.853L84.2944 293.453L84.2136 292.427L79.621 288.924L77.3973 287.901L76.0375 286.749L76.9416 286.096L77.0032 284.752L78.382 283.437L77.7033 280.974L79.2094 280.198L80.2218 278.396L78.3754 273.748L75.1115 269.207L74.8514 267.466L73.5554 266.026L71.1635 264.384L70.417 264.584L69.3304 262.833L69.3636 262.137L70.9211 262.093L72.146 261.024L72.4761 255.067L73.1546 254.754L72.0337 252.24L70.3332 249.907L70.2583 248.977L69.3279 247.252L69.3027 246.251L67.7595 244.724L66.6757 241.409L68.5451 241.192L70.2496 239.972L72.5866 242.204L73.3989 243.851L74.7254 245.51L76.3594 246.567L76.4511 247.519L77.3909 248.381L77.0891 249.717L78.4167 252.921L79.3888 253.667L80.3617 252.942L80.9661 250.201L80.5648 249.255L80.7409 246.216L81.1495 245.628L79.6333 241.23L77.7578 239.353L77.6459 237.984L76.3495 235.918L76.2747 234.965L73.8808 234.632L72.4736 233.377L71.5624 229.975L71.5386 226.474L70.6919 224.133L69.7143 224.16L69.3103 223.306L69.0269 220.196L68.351 218.915L68.1065 216.439L65.9705 215.007L63.754 209.425L62.7076 207.349L62.4879 202.892L61.795 201.366L61.6278 198.895L59.2102 196.256L58.6117 195.934L58.7436 194.049L58.3835 190.167L58.4851 188.106L58.2287 186.54L57.6354 186.189L56.1829 186.595L55.2298 185.366L51.6417 184.587L47.6659 186.65L45.2875 189.476L44.3366 191.708L44.0036 193.607L44.303 195.42L45.4271 196.868L46.9369 197.818L48.06 200.039L49.0065 201.22L47.47 206.132L47.9772 209.7L50.6391 214.271L52.2139 217.91L52.6265 219.696L52.3659 220.57L52.225 224.872L52.5568 225.743L52.3021 227.907L52.4385 229.441L52.1341 231.032L52.5907 232.127L52.737 237.339L53.4263 238.224L52.7363 240.422L53.0194 241.49L52.9476 244.776L53.1906 246.374L52.8589 248.676L53.1728 249.433L52.5417 251.978L52.971 253.809L53.0825 255.701L52.709 256.411L52.9588 260.072L52.4564 260.724L48.9721 260.684L44.9634 261.327L40.6443 261.582L38.5001 262.163L37.363 262.989L37.3706 263.827L36.4852 265.301L34.1717 264.447L33.5092 264.648L30.3711 264.582L28.0091 265.735L27.4295 266.436L27.3584 267.795L28.2948 268.241L28.1634 269.121L26.8534 269.317L24.5816 268.733L23.0529 264.658L23.1134 263.369L21.8078 261.087L22.5659 260.361L22.2314 259.236L20.6219 259.084L19.2175 257.584L19.2356 256.54L17.8142 255.622L16.14 255.721L15.2512 256.792L14.254 257.01L13.9644 255.345L14.6675 254.135L13.0665 253.725L12.1579 252.732L10.0701 252.791L9.33037 251.368L6.77284 253.091L4.93785 251.592L5.23982 250.496L3.82145 249.369L4.55086 246.305L3.89882 246.443L3.17846 245.317L3.01017 242.969L5.11764 240.32L6.19019 239.765L6.11802 238.672L4.82786 236.977L3.0683 236.971L2.95703 235.88L5.13496 235.82L6.41748 234.446L7.2884 234.397L8.93821 233.44L8.9973 230.903L10.0709 228.708L9.93699 227.003L11.4389 225.735L12.2177 223.658L13.1347 220.263L13.1307 215.798L12.7689 214.219L13.162 212.681L12.7891 210.54L11.1043 204.907L12.1724 201.98L12.1606 200.768L12.9451 200.353L13.4113 198.849L13.1775 197.397L14.8851 197.634L15.6099 197.358L18.8736 198.614L20.2899 198.877L21.2934 198.482L22.8399 196.846L23.0006 195.509L22.5075 194.731L22.9879 191.817L25.3585 191.344L26.7972 190.785L27.652 188.966L28.303 186.191L27.1425 183.403L27.2126 178.8L26.7488 178.519L27.402 176.704L27.083 174.346L27.7482 172.989L28.5994 172.497L28.9841 171.117L30.2566 168.652L30.0708 166.994L29.5222 165.472L30.4663 165.188L31.3653 163.275L31.2222 162.26L32.3799 159.993L31.946 159.05L32.9651 157.69L33.7245 155.002L34.0302 152.773L33.7418 151.005L33.1189 149.383L33.5825 144.39L32.3056 142.167L32.2412 139.97L32.8414 137.926L33.8939 136.926L34.9213 137.345L36.1821 139.205L37.1939 141.336L37.1502 143.04L38.1602 145.462L37.3707 147.619L38.1894 150.015L39.1268 150.026L39.476 148.087L40.0603 147.308L41.3711 147.545L41.403 145.785L42.4914 142.48L42.1507 141.787L44.3018 139.839L48.3772 137.391L52.6438 136.175L53.4868 136.656L53.8665 138.175L53.2635 139.248L53.8126 143.749L54.5162 145.149L54.9976 147.146L54.8423 149.784L54.3941 150.677L55.9973 154.719L57.6314 156.914L61.695 159.108L62.4795 158.187L64.4371 157.295L65.588 157.767L67.4145 156.279L68.1962 158.119L67.5764 161.336L69.2082 162.98L70.1707 166.226L71.4242 166.835L73.773 166.708L76.4065 166.022L77.8113 165.332L77.7453 164.568L79.3168 163.311L80.1656 159.951L82.485 159.926L84.4553 159.54L85.1718 159.02L85.2927 157.111L87.4705 154.652L90.1062 153.68L93.22 150.455L94.0305 148.049L94.0015 145.871L95.3665 145.955L97.4306 146.985L98.7552 146.703L99.8283 145.491L100.791 143.163L100.294 141.946L97.9497 139.651L98.7337 139.126L100.091 139.096L102.352 139.581L103.075 139.396L104.242 137.766L104.859 136.361L105.514 133.381L104.512 131.111L104.75 130.381L103.972 128.474L104.238 127.139L103.367 125.659L101.781 124.207L99.059 123.949L98.3196 122.959L96.8588 123.173L95.0437 121.447L95.5784 119.524L94.7172 117.998L97.0999 117.434L98.8653 118.272L100.156 117.939L100.42 120.455L100.094 121.884L100.701 123.545L101.57 123.414L101.724 121.715L103.202 122.13L104.426 121.811L105.505 120.577L106.196 117.99L105.352 117.121L105.059 115.139L104.525 114.662L104.73 113.057L104.213 112.282L103.923 110.505L102.947 109.113L102.138 106.749L102.103 105.764L103.284 104.574L103.346 103.691L101.376 101.827L102.101 100.197L103.811 99.788L104.442 99.0915L102.773 97.4424L104.261 93.8206L103.055 93.9272L102.289 93.333L100.724 90.962L100.672 89.9885L99.2721 89.8995L99.8526 87.6972L99.8472 83.1491L101.775 82.4197L102.797 81.6737L102.703 76.8716L103.03 75.7948L102.742 74.4242L102.931 73.1011L102.547 71.7056L101.805 71.225L101.881 69.3026L100.811 67.3987L100.151 64.9727L101.258 64.3178L102.046 62.4394L103.34 62.1464L106.123 62.2338L106.107 63.4959L107.722 63.3508L109.311 63.5987L109.54 62.9692L111.014 61.8085L113.082 61.6233ZM337.31 55.1971L338.823 55.2526L339.863 56.1795L340.594 59.7L340.182 61.8822L339.273 63.4486L337.672 62.4288L336.5 62.6879L334.776 61.3806L332.817 61.7461L332.167 61.3901L331.456 59.4254L330.075 58.2241L328.742 56.2029L328.841 55.1011L330.373 55.9283L331.825 55.0302L332.895 55.3951L333.036 53.4452L331.722 52.9425L332.283 51.9711L333.618 51.4489L334.851 52.1746L336.976 54.0065L337.31 55.1971ZM341.009 49.6759L341.767 52.1484L340.703 52.507L339.663 53.5913L338.708 52.0609L338.553 50.853L339.358 49.782L341.009 49.6759ZM237.202 44.0454L238.525 44.605L239.194 45.5511L239.721 47.8039L239.288 50.1851L239.938 52.116L238.999 54.2919L238.98 55.1851L238.125 56.2081L239.541 57.617L239.078 59.2955L237.513 60.5038L236.624 60.4095L235.515 61.0353L235.361 59.6762L233.219 59.6179L232.124 60.6637L232.77 61.6735L230.817 62.3752L230.19 60.6153L227.112 60.6936L226.69 57.7679L226.989 56.5614L228.759 54.9362L229.819 54.4865L230.043 53.217L230.682 52.5648L231.85 52.489L231.724 51.3005L232.181 49.7708L233.239 49.0981L234.427 47.1964L235.708 44.3817L237.202 44.0454ZM154.708 43.7227L156.635 44.5861L158.925 44.1603L160.175 45.8673L161.131 45.9834L162.897 47.0218L164.223 48.2713L164.126 49.7625L168.184 50.6875L169.096 52.293L168.438 53.7306L167.415 54.8384L166.806 56.5344L165.971 56.4909L165.647 58.5198L166.529 59.0363L166.847 60.2919L165.605 61.322L165.945 62.588L165.241 63.6497L166.524 64.695L166.786 66.2614L165.426 67.5907L164.847 66.7854L163.405 67.2795L163.074 69.1656L161.904 71.4661L165.583 71.5583L165.958 72.8946L167.252 72.9582L167.596 72.1444L168.914 71.9411L169.592 73.6239L169.685 74.822L170.718 75.0497L172.261 74.618L174.229 74.4652L174.017 73.5119L174.724 69.9757L176.107 70.6684L176.598 72.5471L178.593 75.0595L178.378 76.2604L177.473 78.0016L174.913 77.8585L175.515 79.4154L177.338 80.6841L178.554 80.7739L180.707 79.3015L181.373 80.3327L180.685 82.3776L181.837 84.3606L184.566 86.9639L184.349 87.7013L182.721 87.0174L182.342 88.8448L181.403 89.5659L182.627 90.8025L180.286 91.9928L180.136 92.7735L178.333 94.007L178.592 95.7741L179.454 96.18L179.281 97.5452L180.254 98.1731L179.766 99.0978L178.693 98.8513L178.443 100.242L177.617 100.387L177.749 101.584L176.184 104.027L176.258 105.758L174.085 106.951L174.64 107.651L173.624 109.78L172.506 110.828L172.876 111.521L172.383 112.815L172.417 114.842L171.398 116.408L170.437 117.15L169.655 118.529L167.848 120.478L167.634 122.689L167.164 123.664L167.423 125.082L168.353 126.541L167.451 129.066L167.25 131.076L168.016 131.746L170.297 132.405L171.527 132.128L173.288 129.434L174.865 128.501L175.947 127.314L178.353 126.467L179.419 127.017L180.535 128.22L181.539 127.426L181.15 125.906L182.786 126.418L183.696 127.704L183.863 129.351L184.956 130.19L186.13 130.244L187.707 131.594L189.601 131.542L189.549 130.448L188.33 129.016L188.407 127.629L187.62 126.977L187.31 125.847L185.509 126.782L184.354 126.244L182.803 124.078L181.905 123.882L180.629 122.126L180.732 118.879L182.478 117.596L183.311 117.949L186.058 120.048L186.368 120.915L188.421 121.638L188.95 119.779L189.822 119.081L190.689 119.464L191.289 118.561L190.689 117.418L189.99 117.418L188.943 115.955L187.892 115.996L186.807 114.591L188.757 114.869L189.504 115.419L192.503 116.219L194.67 118.415L197.273 118.626L198.259 119.417L198.327 120.885L199.324 121.681L201.216 122.139L202.432 123.359L202.068 123.976L200.532 124.781L200.445 127.345L203.034 127.068L204.107 127.636L204.6 130.51L203.685 130.56L201.964 129.721L200.391 130.268L199.767 131.42L198.081 131.204L197.553 131.735L199.743 133.032L201.904 135.697L202.01 137.035L203.391 138.481L203.131 139.718L202.216 140.146L201.995 141.346L200.359 141.068L200.517 142.579L198.84 143.592L198.474 144.464L199.974 144.927L199.811 146.237L198.387 147.714L201.226 148.455L201.81 149.295L202.259 152.199L201.176 152.951L201.039 154.501L202.736 155.827L203.685 155.684L206.215 157.563L207.295 157.418L208.57 158.233L210.684 158.761L212.16 159.709L212.132 160.657L208.333 161.975L207.155 161.554L206.878 163.681L205.92 164.706L205.392 164.164L203.684 164.111L203.291 165.344L202.415 165.771L201.389 165.493L201.092 167.166L200.379 167.635L199.384 167.251L196.604 168.762L195.624 168.583L193.177 170.618L192.706 169.462L191.612 168.486L190.87 170.579L191.252 172.487L188.465 172.143L187.731 170.962L185.858 171.131L184.861 169.271L183.767 169.002L183.257 167.51L182.47 168.555L181.023 166.88L180.194 166.412L179.601 165.287L178.75 165.198L177.384 163.003L176.799 161.394L175.526 159.095L174.674 155.556L173.589 153.808L173.137 152.191L173.726 147.941L173.646 145.212L172.602 142.255L171.601 140.896L170.23 141.113L169.022 140.709L166.838 138.486L165.208 137.231L163.182 133.115L163.361 131.507L163.838 130.919L164.219 128.328L164.123 126.009L163.19 123.354L162.385 122.077L162.467 120.975L161.661 116.966L157.703 113.74L156.731 111.213L155.498 107.14L154.213 104.605L154.415 103.639L153.536 101.987L153.806 100.418L152.805 99.1563L151.027 95.6269L151.574 92.6314L150.924 89.9809L149.962 88.0774L151.215 86.0967L151.519 84.6292L151.202 83.7228L150.275 83.2169L148.769 85.0783L146.527 84.267L144.642 81.7032L144.588 79.8715L145.026 78.6707L144.039 78.2702L143.295 76.6761L142.107 75.3048L141.711 74.0953L139.851 71.7626L138.275 67.7427L138.164 64.3169L138.386 62.3175L139.926 59.7622L141.65 59.4312L142.487 58.6187L144.63 59.8368L145.933 61.384L147.584 62.3204L149.262 63.8166L150.233 65.2793L152.186 66.5506L153.524 66.2259L154.634 64.0446L156.099 62.0018L156.75 59.792L155.884 59.2551L156.622 57.9202L157.172 55.6683L156.527 54.0275L156.832 52.8262L156.133 51.931L156 50.3626L154.829 50.023L154.275 49.0625L154.311 46.6095L154.804 45.7702L154.391 44.6643L154.708 43.7227ZM185.834 2.9904L188.15 4.16707L189.119 5.60191L188.975 6.71711L190.304 6.62278L190.496 8.37227L189.665 9.44385L189.927 10.3412L189.148 12.9471L188.323 14.0873L187.225 14.0674L188.216 15.7675L187.886 16.9324L188.67 18.5344L188.201 19.1866L187.845 21.3251L186.006 20.9548L184.604 19.3356L183.652 19.7624L180.528 18.0836L179.367 16.5386L180.065 14.6964L180.286 12.1909L181.12 9.63722L181.082 7.33005L181.991 6.05783L182.374 4.04139L184.494 2.85352L185.834 2.9904Z" fill="#1E1E1E" stroke="white" stroke-width="5"/>
</svg>
