<svg width="203" height="446" viewBox="0 0 203 446" fill="none" xmlns="http://www.w3.org/2000/svg">
<path d="M192.298 436.045L193.587 436.336L194.767 437.158L195.921 436.759L199.506 437.438L199.549 440.298L199.062 442.02L198.521 442.671L197.239 442.093L196.682 441.094L193.229 440.715L192.03 441.41L191.603 439.486L190.908 437.931L191.226 436.073L192.298 436.045ZM197.022 429.041L197.227 429.715L196.346 430.676L195.347 430.637L195.739 427.599L197.022 429.041ZM129.83 162.74L129.372 163.571L128.128 162.514L125.589 161.087L126.37 159.54L127.715 160.094L129.578 161.423L129.83 162.74ZM163.78 148.399L165.148 148.408L167.36 149.487L166.271 150.841L164.363 150.225L162.931 149.011L163.78 148.399ZM7.46417 74.9935L7.12497 76.192L6.14651 75.6522L5.21087 76.7987L4.46875 76.0999L5.1389 75.3437L7.46417 74.9935ZM46.8143 7.72616L48.552 8.89571L49.6885 10.113L49.297 11.8924L49.977 13.1407L49.9591 14.3144L49.2594 15.3755L48.8487 17.6392L49.4513 19.2337L47.8404 19.5127L47.1829 20.129L48.0558 21.5732L48.9377 21.9674L51.2449 25.4106L51.6434 26.8208L52.7802 27.7721L52.7699 29.0571L51.7546 30.536L53.1965 31.4247L53.2493 33.4397L54.2063 33.0644L54.4409 34.349L55.5827 35.9095L56.4521 36.5617L56.748 38.4735L57.5908 38.5745L59.3599 36.8881L60.6923 36.9514L60.9035 40.0737L60.7499 41.4639L61.1305 42.2025L61.1764 44.7929L62.468 45.0865L62.4105 46.8768L63.338 47.6785L64.2663 49.7964L67.2386 52.5843L68.1728 53.778L72.4947 57.4989L74.8667 59.3992L79.2106 62.02L81.3255 62.5065L83.8634 62.1055L84.3713 60.7326L85.7933 59.9095L87.3356 58.4856L89.2258 58.9047L91.2337 60.2337L93.0349 60.4831L95.3992 61.8168L96.8115 62.2747L99.1771 63.6544L100.718 63.7701L103.005 63.3618L104.215 63.5909L107.607 66.1152L110.176 67.2295L113.82 69.9928L115.857 71.0401L117.695 71.594L120.478 71.9217L121.991 71.1652L122.193 72.6402L122.858 73.6241L124.058 74.4578L126.171 75.0782L125.845 76.058L127.732 77.34L129.828 77.9554L133.567 77.6959L134.683 78.706L138.187 80.9526L139.47 82.6851L144.428 85.7292L143.021 88.8804L142.389 90.9906L142.12 93.6749L142.697 95.1043L142.531 97.3202L141.547 97.547L140.712 100.457L142.181 103.74L144.835 105.399L145.704 105.44L147.809 106.412L150.149 108.548L152.101 109.611L153.528 109.903L156.071 111.741L160.302 113.133L161.898 113.307L162.484 115.239L163.134 115.398L162.984 117.447L163.906 118.686L165.138 119.52L164.96 120.271L166.16 121.893L166.724 123.489L169.509 124.929L170.841 126.31L172.942 126.468L173.248 127.389L174.295 128.373L179.583 130.423L182.728 132.024L186.425 133.142L185.725 135.416L186.433 136.238L185.034 138.595L185.782 140.564L186.465 141.118L187.79 141.191L187.179 144.432L185.667 146.511L186.62 148.858L187.638 149.441L186.274 151.287L185.99 152.393L184.603 153.429L183.543 153.514L183.466 152.568L185.226 151.733L185.821 149.091L185.064 147.931L183.911 147.111L182.719 146.821L181.445 147.171L179.64 147.061L177.691 145.445L176.571 143.477L173.433 142.629L173.39 140.62L172.67 139.609L171.781 139.246L167.535 138.571L166.245 138.204L164.935 138.648L163.875 137.223L162.615 137.107L161.432 136.214L160.512 136.147L158.628 135.075L157.859 133.514L155.292 133.022L154.128 132.238L154.069 131.396L152.677 130.046L152.043 128.544L149.377 128.319L145.847 128.369L142.256 129.139L135.195 131.388L132.764 132.471L128.34 134.716L124.782 137.652L123.225 140.005L123.283 141.34L124.278 142.802L122.864 143.651L120.392 146.586L119.68 148.199L118.451 148.74L117.1 150.345L113.893 152.879L113.372 154.189L112.91 156.713L112.852 159.132L111.189 160.885L110.948 162.26L111.203 163.51L113.426 164.774L115.172 164.797L115.384 165.744L116.442 166.897L116.309 167.971L117.596 169.173L117.983 170.746L119.693 171.604L120.531 171.576L122.436 174.81L122.814 175.882L121.042 177.169L122.231 179.714L121.107 179.837L117.612 181.789L117.192 183.329L115.645 182.14L115.025 183.837L115.583 185.363L114.38 185.792L112.279 184.69L110.957 186.13L110.791 187.22L108.627 186.384L107.423 187.159L107.281 185.417L106.235 185.199L106.436 183.981L105.778 183.36L103.558 183.066L101.91 183.844L99.4068 181.579L96.7208 180.95L95.666 180.973L94.8036 179.682L96.4781 178.867L96.6026 177.159L94.391 176.433L93.9965 175.011L94.9085 171.657L94.4866 170.958L93.1357 170.934L91.4241 170.038L89.091 168.463L86.5906 168.643L83.4505 163.857L82.3508 163.876L82.0886 161.904L80.8655 161.36L79.3716 161.742L79.0486 160.491L79.2328 159.112L78.4916 158.694L78.6749 157.637L76.0162 155.465L75.5661 153.889L74.5477 153.85L73.2397 152.566L73.3728 148.704L72.9372 146.715L70.5102 146.614L69.9025 144.285L68.1811 143.806L67.9117 143.016L66.875 142.845L64.6193 143.197L63.3275 142.103L62.6408 140.971L63.0041 140.141L61.7931 138.903L60.6892 139.654L60.7163 141.202L59.5717 141.216L57.1064 140.087L57.6656 139.334L54.468 137.344L53.3723 137.612L50.5858 136.258L49.7905 135.294L47.9873 132.352L45.2178 129.174L45.4498 127.851L44.333 126.947L43.5157 126.949L42.7495 125.761L40.773 124.054L40.8651 122.377L41.5872 122.03L42.5045 120.476L42.288 118.949L40.1018 117.66L40.3043 116.862L42.4779 115.595L43.2858 113.209L39.4057 112.36L38.4562 111.515L37.5393 112.476L34.3287 110.833L33.1905 109.709L31.4732 109.465L31.3888 108.494L32.5433 106.849L33.7681 105.691L33.6615 105.031L30.7845 104.947L30.0886 103.384L30.5988 101.774L32.141 101.86L32.6042 99.8021L33.7667 99.4989L34.779 99.7965L35.1145 98.6669L34.3348 97.0877L32.7148 96.4107L34.4368 95.3588L33.5317 94.5297L32.1 95.0286L31.4029 93.7126L28.7821 94.8964L27.951 92.9546L25.9855 93.7753L25.32 93.2808L23.6502 93.2325L23.2664 92.6301L21.9288 92.8041L20.434 91.0888L19.4332 91.1202L18.7034 90.1617L20.5933 87.6669L19.0876 87.4783L17.2665 87.9851L16.9102 86.4721L15.9385 85.9847L15.3446 84.861L15.6977 84.1012L14.4262 83.6536L14.765 82.122L13.7268 82.2507L12.1089 80.8321L10.6847 79.9555L10.7702 78.28L12.2298 78.0667L11.9634 75.1257L11.2526 74.3155L10.6876 76.2433L9.20717 76.8308L8.93582 75.7138L9.4889 74.6431L8.87482 73.3544L9.50614 71.1093L10.7687 70.1696L11.1566 67.9922L10.592 65.7876L9.44096 64.9581L10.1862 63.7401L9.25325 62.6706L8.64996 59.891L8.05875 58.6473L5.48831 57.5519L7.65049 54.9949L8.77992 54.658L9.0266 52.3772L7.98608 51.5293L6.58344 51.8507L5.52256 50.8062L5.52198 49.0039L6.4691 49.3261L7.62187 50.5188L8.34542 50.5031L8.27623 47.7135L6.46736 45.9875L7.75897 45.3756L8.66848 45.4731L9.93391 44.3558L9.70598 42.8967L9.12974 42.4605L9.95469 40.7218L10.1377 39.1986L9.91034 36.8785L11.0856 36.2852L13.1186 33.3171L15.6347 32.0359L16.0091 30.9062L15.5392 30.2029L16.6897 29.462L17.221 28.3807L18.5872 26.9596L17.9827 24.4216L19.8391 22.6846L20.8705 23.619L21.4105 21.4906L22.3739 20.568L24.5421 20.3072L25.9952 19.338L25.4887 18.1666L28.1941 15.9093L30.0236 15.0978L33.3032 12.5222L34.479 11.3002L35.1599 8.91782L37.0481 8.85968L38.142 8.02703L40.8445 7.07233L41.7292 6.38186L42.7034 4.78122L44.0219 3.41406L47.1814 4.90917L46.8143 7.72616Z" fill="#1E1E1E" stroke="white" stroke-width="5"/>
</svg>
