<svg width="313" height="480" viewBox="0 0 313 480" fill="none" xmlns="http://www.w3.org/2000/svg">
<path d="M302.419 472.579L303.827 473.876L303.534 476.371L302.201 476.917L300.427 477.076L299.041 475.428L300.661 474.444L301.014 473.826L300.536 472.541L302.419 472.579ZM308.321 465.264L309.971 466.072L310.013 467.183L307.675 466.298L306.585 465.232L307.22 464.627L308.321 465.264ZM301.237 468.302L301.371 470.356L300.253 470.046L300.312 468.67L299.087 468.249L298.368 467.458L298.308 464.831L299.045 463.954L300.649 464.472L301.29 465.969L301.237 468.302ZM267.519 427.349L268.233 427.928L269.802 427.591L270.972 428.115L271.142 429.1L273.571 431.939L274.236 433.26L274.29 434.553L275.047 435.526L274.849 436.563L276.126 436.655L276.518 437.615L278.112 437.938L278.567 438.434L278.029 440.158L277.118 439.716L276.572 441.367L276.777 443.531L274.698 443.546L273.68 442.988L273.586 444.624L274.793 445.891L274.857 446.783L273.535 447.73L271.854 449.806L271.092 448.518L271.11 446.329L269.793 445.385L269.907 443.159L268.647 443.423L267.531 444.718L267.402 446.27L265.363 446.713L264.201 446.458L263.514 445.459L263.548 444.204L262.177 443.32L261.11 443.136L261.197 440.887L262.694 439.236L263.753 441.184L264.339 440.375L263.049 437.409L261.267 434.744L260.645 434.879L259.784 433.383L258.752 433.076L257.813 430.759L259.846 430.115L260.597 429.334L262.853 429.571L263.854 428.989L264.39 427.769L267.005 427.066L267.519 427.349ZM231.227 391.467L230.187 391.506L229.158 390.807L231.618 389.26L232.488 390.085L231.227 391.467ZM242.067 387.655L243.417 389.461L242.97 389.986L239.429 389.287L239.033 388.446L240.475 387.637L242.067 387.655ZM166.609 311.202L167.762 312.115L167.757 313.217L168.662 313.591L169.653 315.978L169.354 317.168L168.371 318.498L169.268 319.527L170.674 317.654L171.936 317.533L171.397 318.913L170.081 319.321L168.798 320.615L167.358 321.132L166.745 321.996L165.341 322.349L163.967 321.965L163.707 321.381L165.079 320.341L166.979 319.831L167.002 319.062L164.953 318.373L164.125 317.798L164.208 316.013L165.546 315.77L165.853 314.845L165.273 313.815L163.005 313.213L163.661 310.989L166.609 311.202ZM158.373 308.235L157.855 309.476L156.813 309.89L156.535 308.961L157.154 308.281L158.373 308.235ZM134.885 306.458L136.796 306.849L137.467 309.175L136.458 308.699L134.511 309.721L134.446 307.189L134.885 306.458ZM159.852 303.733L160.799 303.825L160.047 305.373L158.18 306.916L157.448 307.108L156.535 308.961L154.038 309.371L153.102 308.223L154.358 307.981L155.267 307.305L155.595 306.219L157.649 305.771L157.427 304.257L159.852 303.733ZM11.2337 300.401L10.9284 301.822L11.2934 303.535L11.1685 308.081L10.5163 309.212L10.8646 310.254L10.6389 311.966L10.5275 317.431L9.93824 318.854L10.3276 320.883L9.51151 321.986L8.50855 320.468L8.09228 316.626L9.78199 312.817L9.79104 310.688L9.26031 309.412L9.64896 308.169L9.22177 307.491L8.03493 307.494L4.8633 306.347L3.32031 304.437L4.02703 303.323L6.61802 302.44L8.58285 301.298L10.2914 300.249L10.1372 299.487L11.4125 298.93L11.2337 300.401ZM50.1638 300.134L51.7513 300.27L52.5767 301.612L53.0977 303.796L52.8174 305.049L51.9726 305.394L51.43 306.656L49.1617 307.534L48.7301 306.253L47.6285 304.579L48.4583 300.9L47.8611 300.078L48.3438 298.829L49.66 299.255L50.1638 300.134ZM133.441 295.746L136.81 297.356L136.939 298.022L136.265 299.507L133.859 299.612L132.824 297.725L132.74 295.55L133.441 295.746ZM129.814 294.724L129.73 296.211L130.401 297.763L130.635 299.236L132.078 299.158L133.067 300.788L132.744 301.519L131.474 300.498L129.978 300.043L129.982 298.918L128.758 294.707L129.814 294.724ZM63.8293 290.625L63.7049 289.38L64.5087 288.566L65.2425 289.387L63.8293 290.625ZM106.201 265.772L107.484 266.097L108.7 267.897L110.398 268.832L110.579 270.501L111.5 270.754L112.36 272.642L112.246 273.532L110.285 272.414L109.758 271.373L108.876 271.299L105.984 266.841L106.201 265.772ZM124.848 247.088L126.833 247.634L128.066 246.85L131.505 247.789L132.66 251.305L133.655 251.925L133.485 249.166L134.547 249.137L135.078 250.165L134.901 251.619L135.882 251.665L137.816 252.899L139.869 254.741L141.223 255.048L141.827 256.174L144.264 256.368L144.799 257.948L145.787 258.304L146.955 260.57L149.421 262.083L151.35 264.246L150.15 266.899L152.431 264.786L153.231 265.958L153.172 267.048L155.133 268.203L155.952 269.89L156.944 270.161L158.915 272.136L158.899 270.42L160.213 271.359L161.059 272.922L161.767 273.273L162.328 274.826L163.29 275.566L165.531 278.154L164.23 279.401L165.604 280.553L166.642 283.221L167.599 284.122L167.342 285.174L168.672 285.259L169.985 287.243L169.963 288.259L166.925 287.919L165.468 286.608L164.368 286.665L163.398 288.312L160.586 289.176L157.135 288.471L156.552 286.879L157.93 286.791L158.975 287.795L160.61 287.677L160.45 285.418L159.344 284.299L159.217 283.175L157.791 281.639L152.458 282.816L150.542 283.613L148.494 285.311L147.98 286.169L148.651 287.71L148.165 288.82L148.451 290.121L145.928 290.893L145.217 289.974L145.605 287.979L146.222 286.868L145.676 286.131L145.557 284.422L144.577 284.41L144.33 286.14L144.571 288.026L143.273 289.572L142.574 291.738L142.726 293.265L141.426 293.691L140.821 293.108L139.073 292.632L137.114 289.854L136.445 292.291L136.939 293.344L136.641 294.844L134.443 291.471L132.225 290.205L130.698 290.921L129.458 290.354L128.561 291.225L128.062 290.127L126.495 290.642L125.698 291.874L126.164 292.835L124.387 293.094L122.588 291.434L121.804 291.962L121.555 293.249L120.452 292.825L119.754 291.309L118.374 291.134L118.336 289.585L117.022 289.404L116.282 290.046L117.011 292.72L116.564 293.947L117.257 294.487L117.279 296.1L118.272 297.402L118.722 299.322L117.857 299.24L115.954 295.947L114.08 297.985L113.294 296.63L112.035 296.496L110.904 297.518L111.003 298.407L112.07 299.33L111.673 301.237L112.519 301.834L113.441 301.553L113.914 302.68L114.837 303.364L113.339 304.217L114.26 305.405L114.235 306.695L111.096 308.461L112.909 309.683L113.817 311.381L112.328 311.897L111.601 312.751L110.847 311.986L109.832 312.446L109.161 311.739L107.954 312.057L106.305 311.585L104.72 313.387L106.728 318.435L108.305 319.585L109.224 319.601L110.849 320.612L112.097 320.867L113.142 321.698L112.775 322.55L113.516 323.74L113.721 325.041L114.414 325.679L115.009 327.121L115.583 327.186L116.297 328.559L116.873 330.501L116.664 332.07L118.11 332.548L118.022 333.174L116.28 332.605L114.83 332.5L114.868 331.552L113.926 331.266L112.616 331.579L112.278 332.643L111.371 333.389L109.858 333.651L107.549 332.508L105.101 330.154L103.65 329.859L103.018 331.74L102.152 332.25L99.714 334.61L98.8854 334.913L95.9645 334.652L92.843 333.055L92.2222 331.786L93.7882 331.408L92.7671 329.986L90.6943 330.637L88.8433 329.411L89.1001 327.779L88.5415 326.922L87.0372 326.026L86.6135 326.424L87.0071 327.948L85.6702 329.841L84.0342 328.865L81.7624 326.172L80.1888 327.785L80.3381 325.776L79.5933 324.846L80.2385 324.112L78.9423 321.046L78.24 319.925L78.3398 318.633L77.7034 318.34L77.1799 316.266L77.8402 315.325L77.6129 314.133L75.6766 313.344L75.1559 311.695L74.9274 308.15L74.6486 307.441L72.5082 307.904L72.0894 306.713L69.601 304.568L68.7123 304.225L67.5805 302.803L70.3205 302.732L72.0871 301.955L72.2886 299.617L72.0028 298.702L70.7073 298.097L72.2124 296.738L71.3848 295.033L71.8911 293.973L70.0417 293.172L69.9059 291.813L68.6642 290.381L67.8115 288.311L66.6474 288.474L66.3077 287.737L66.4626 285.703L67.0272 285.878L68.1377 284.36L67.1027 281.326L65.9929 280.715L67.7444 279.307L68.7541 278.954L69.6969 276.967L70.8187 276.931L71.2188 276.257L72.9749 276.908L74.2223 276.899L74.904 278.048L75.1238 279.682L72.502 280.344L74.0596 281.562L73.4634 282.3L73.982 283.696L75.069 284.124L78.256 280.669L77.1804 279.512L76.8093 278.166L77.5414 277.208L78.5258 277.173L79.3797 276.403L79.9863 277.082L79.7321 279.746L80.9835 279.531L81.9063 278.457L81.2437 277.657L81.9955 276.401L85.1302 277.774L86.2918 277.96L87.1231 278.678L88.1872 278.246L91.5378 281.632L92.8145 281.806L94.051 282.619L94.5237 283.682L94.2641 284.901L96.4637 285.718L97.5969 286.628L99.0614 286.355L102.624 287.226L103.815 287.814L104.625 289.468L104.2 290.48L104.725 292.101L104.287 293.682L105.44 294.391L112.314 293.877L113.321 293.233L113.451 292.142L115.546 290.474L114.655 289.666L114.533 287.761L115.417 287.475L115.983 286.163L115.127 284.837L116.224 283.585L117.278 285.042L118.506 284.488L119.264 285.023L120.291 284.62L120.646 283.825L122.162 282.834L123.045 283.191L123.1 281.584L125.209 279.361L125.273 280.767L126.332 281.295L127.659 280.838L129.15 281.345L130.848 284.216L134.008 285.585L135.236 285.905L135.691 283.487L134.94 283.233L134.118 282.096L133.111 279.284L133.12 278.137L132.169 277.43L132.098 275.704L130.536 275.346L130.095 274.78L130.487 273.567L131.36 273.126L132.445 271.558L131.069 271.331L128.777 268.751L129.892 267.643L130.3 266.36L133.307 264.126L135.176 264.437L139.016 264.036L139.069 262.738L140.301 261.98L139.891 261.202L135.992 261.742L134.234 261.671L132.011 262.397L129.889 262.748L131.817 263.884L131.543 264.683L128.892 266.243L126.931 266.834L125.58 266.901L124.959 265.78L127.232 264.216L124.282 264.171L123.301 263.184L124.207 261.876L125.232 261.318L124.165 260.453L122.187 260.929L121.24 259.312L122.003 257.781L123.172 256.55L120.684 255.321L119.643 251.838L123.127 250.313L121.896 247.83L123.113 247.169L124.848 247.088ZM22.7622 84.6325L22.4669 85.2224L20.9304 83.7791L22.7622 84.6325ZM21.5027 81.2341L20.2372 81.6762L18.9213 81.2698L18.2401 80.3307L19.0998 79.5669L19.3489 77.3078L20.379 76.9574L21.6963 78.2466L21.2594 79.4625L21.759 80.2529L21.5027 81.2341ZM99.5297 30.0898L98.0663 30.2212L97.6069 31.1324L96.3165 30.5528L96.0783 29.3905L97.8186 28.6352L99.5297 30.0898ZM87.6223 27.148L88.6659 27.5308L89.5776 29.597L89.2061 30.5364L90.2421 31.5643L90.1673 32.6084L87.4681 33.9467L86.7261 33.8807L86.1945 34.9918L86.1023 36.4275L85.2382 36.602L83.3878 35.7894L82.9771 37.0629L81.8506 36.7882L81.8748 37.9193L79.4616 37.6452L79.7444 40.5001L78.7538 40.8171L76.6153 40.699L75.0124 39.7917L73.836 39.8036L73.1785 39.0316L70.7951 38.0277L69.9702 36.1698L70.4201 34.4997L71.577 33.8846L71.5243 33.0748L73.1523 32.9552L74.1387 32.1787L71.7453 30.7781L73.3742 30.3423L75.9215 31.8241L77.0652 31.8741L78.9174 30.3953L80.3645 31.8998L80.8254 30.5007L81.569 30.1131L82.3319 28.8299L83.2415 28.1389L85.0896 28.0211L86.3412 28.7209L86.5316 27.6253L87.6223 27.148ZM120.602 24.619L118.966 25.0814L118.293 25.7322L115.973 25.5944L120.357 23.9915L120.602 24.619ZM124.6 23.3068L127.154 25.3597L126.898 26.0987L125.209 24.9009L122.167 23.6208L124.133 23.0685L124.6 23.3068ZM164.873 14.5276L164.82 15.1817L166.894 16.2337L168.025 14.5303L169.805 13.8059L171.262 13.9931L173.022 15.0324L173.648 16.4203L174.272 15.9367L176.173 16.3104L177.707 17.5771L178.845 17.5799L179.801 18.8209L179.831 20.5316L181.274 22.2296L181.456 23.282L180.479 23.9019L178.388 23.1406L177.641 23.9573L174.762 23.4791L172.577 23.8331L170.154 23.3695L169.568 23.7913L167.645 23.5715L163.867 22.2917L164.696 21.4871L166.386 21.2854L167.354 20.038L165.433 20.2963L164.867 19.1564L163.84 19.9714L162.034 20.4362L160.404 21.9074L159.516 21.4428L155.701 22.1672L157.592 23.4013L159.224 23.8876L158.595 26.5893L157.359 25.0878L155.661 25.9051L153.833 26.4227L153.299 25.3279L150.98 26.1414L149.838 25.6989L146.486 25.2659L144.56 25.3634L143.325 25.0399L143.034 23.643L144.589 22.6182L146.475 22.7502L147.016 23.6145L149.76 24.854L150.82 23.8377L150.557 22.5957L151.972 22.173L153.5 22.4243L152.69 20.2878L149.032 20.4959L147.587 20.104L145.42 18.7697L146.323 17.3688L146.049 15.8906L147.817 15.2523L147.538 13.821L148.585 13.4068L149.024 14.811L149.919 15.2756L150.287 14.1178L151.533 14.5906L151.861 16.2634L152.985 15.9258L154.531 17.089L155.835 16.9194L154.416 14.4646L155.39 14.4176L157.9 15.3582L159.185 14.6587L157.683 13.4149L158.535 12.5019L159.714 13.1748L160.858 14.4622L161.749 14.4846L161.097 10.4278L160.125 8.8418L162.869 6.92969L162.309 8.83786L162.692 9.36904L162.177 11.2324L163.778 12.2072L164.873 14.5276Z" fill="#1E1E1E"/>
<path d="M156.535 308.961L156.813 309.89L157.855 309.476L158.373 308.235L157.154 308.281L156.535 308.961ZM156.535 308.961L157.448 307.108L158.18 306.916L160.047 305.373L160.799 303.825L159.852 303.733L157.427 304.257L157.649 305.771L155.595 306.219L155.267 307.305L154.358 307.981L153.102 308.222L154.038 309.371L156.535 308.961ZM302.419 472.579L303.827 473.876L303.534 476.372L302.2 476.917L300.427 477.076L299.041 475.428L300.661 474.444L301.014 473.826L300.536 472.541L302.419 472.579ZM308.321 465.264L309.971 466.072L310.013 467.183L307.675 466.298L306.585 465.232L307.22 464.627L308.321 465.264ZM301.237 468.302L301.371 470.356L300.253 470.046L300.312 468.67L299.087 468.249L298.368 467.458L298.308 464.831L299.045 463.954L300.649 464.472L301.29 465.969L301.237 468.302ZM267.519 427.349L268.233 427.928L269.802 427.591L270.972 428.115L271.142 429.1L273.571 431.939L274.236 433.26L274.29 434.553L275.047 435.526L274.849 436.563L276.126 436.655L276.518 437.615L278.112 437.938L278.567 438.434L278.029 440.158L277.118 439.716L276.572 441.367L276.777 443.531L274.698 443.546L273.68 442.988L273.586 444.624L274.793 445.891L274.857 446.783L273.535 447.73L271.854 449.806L271.092 448.518L271.11 446.329L269.793 445.385L269.907 443.159L268.647 443.423L267.531 444.718L267.402 446.27L265.363 446.713L264.201 446.458L263.514 445.459L263.548 444.204L262.177 443.32L261.11 443.136L261.197 440.887L262.694 439.236L263.753 441.184L264.339 440.375L263.049 437.409L261.267 434.744L260.645 434.879L259.784 433.383L258.752 433.076L257.813 430.759L259.846 430.115L260.597 429.334L262.853 429.571L263.854 428.989L264.39 427.769L267.005 427.066L267.519 427.349ZM231.227 391.467L230.187 391.506L229.158 390.807L231.618 389.26L232.488 390.085L231.227 391.467ZM242.067 387.655L243.417 389.461L242.97 389.986L239.429 389.287L239.033 388.446L240.475 387.637L242.067 387.655ZM166.609 311.202L167.762 312.115L167.757 313.217L168.662 313.591L169.653 315.978L169.354 317.168L168.371 318.498L169.268 319.527L170.674 317.654L171.936 317.533L171.397 318.913L170.081 319.321L168.798 320.615L167.358 321.132L166.745 321.996L165.341 322.349L163.967 321.965L163.707 321.381L165.079 320.341L166.979 319.831L167.002 319.062L164.953 318.373L164.125 317.798L164.208 316.013L165.546 315.77L165.853 314.845L165.273 313.815L163.005 313.213L163.661 310.989L166.609 311.202ZM134.885 306.458L136.796 306.849L137.467 309.175L136.458 308.699L134.511 309.721L134.446 307.189L134.885 306.458ZM11.2337 300.401L10.9284 301.822L11.2934 303.535L11.1685 308.081L10.5163 309.212L10.8646 310.254L10.6389 311.966L10.5275 317.431L9.93824 318.854L10.3276 320.883L9.51151 321.986L8.50855 320.468L8.09228 316.626L9.78199 312.817L9.79104 310.688L9.26031 309.412L9.64896 308.169L9.22177 307.491L8.03493 307.494L4.8633 306.347L3.32031 304.437L4.02703 303.323L6.61802 302.44L8.58285 301.298L10.2914 300.249L10.1372 299.487L11.4125 298.93L11.2337 300.401ZM50.1638 300.134L51.7513 300.27L52.5767 301.612L53.0977 303.796L52.8174 305.049L51.9726 305.394L51.43 306.656L49.1617 307.534L48.7301 306.253L47.6285 304.579L48.4583 300.9L47.8611 300.078L48.3438 298.829L49.66 299.255L50.1638 300.134ZM133.441 295.746L136.81 297.356L136.939 298.022L136.265 299.507L133.859 299.612L132.824 297.725L132.74 295.55L133.441 295.746ZM129.814 294.724L129.73 296.211L130.401 297.763L130.635 299.236L132.078 299.158L133.067 300.788L132.744 301.519L131.474 300.498L129.978 300.043L129.982 298.918L128.758 294.707L129.814 294.724ZM63.8293 290.625L63.7049 289.38L64.5087 288.566L65.2425 289.387L63.8293 290.625ZM106.201 265.772L107.484 266.097L108.7 267.897L110.398 268.832L110.579 270.501L111.5 270.754L112.36 272.642L112.246 273.532L110.285 272.414L109.758 271.373L108.876 271.299L105.984 266.841L106.201 265.772ZM124.848 247.088L126.833 247.634L128.066 246.85L131.505 247.789L132.66 251.305L133.655 251.925L133.485 249.166L134.547 249.137L135.078 250.165L134.901 251.619L135.882 251.665L137.816 252.899L139.869 254.741L141.223 255.048L141.827 256.175L144.264 256.368L144.799 257.948L145.787 258.304L146.955 260.57L149.421 262.083L151.35 264.246L150.15 266.899L152.431 264.786L153.231 265.958L153.172 267.048L155.133 268.203L155.952 269.89L156.944 270.161L158.915 272.136L158.899 270.42L160.213 271.359L161.059 272.922L161.767 273.273L162.328 274.826L163.29 275.566L165.531 278.154L164.23 279.401L165.604 280.553L166.642 283.221L167.599 284.122L167.342 285.174L168.672 285.259L169.985 287.243L169.963 288.259L166.925 287.919L165.468 286.608L164.368 286.665L163.398 288.312L160.586 289.176L157.135 288.471L156.552 286.879L157.93 286.791L158.975 287.795L160.61 287.677L160.45 285.418L159.344 284.299L159.217 283.175L157.791 281.639L152.458 282.816L150.542 283.613L148.494 285.311L147.98 286.169L148.651 287.71L148.165 288.82L148.451 290.121L145.928 290.893L145.217 289.974L145.605 287.979L146.222 286.868L145.676 286.131L145.557 284.422L144.577 284.41L144.33 286.14L144.571 288.026L143.273 289.572L142.574 291.738L142.726 293.265L141.426 293.691L140.821 293.109L139.073 292.632L137.114 289.854L136.445 292.291L136.939 293.344L136.641 294.844L134.443 291.471L132.225 290.205L130.698 290.921L129.458 290.354L128.561 291.225L128.062 290.127L126.495 290.642L125.698 291.874L126.164 292.835L124.387 293.094L122.588 291.434L121.804 291.962L121.555 293.249L120.452 292.825L119.754 291.309L118.374 291.134L118.336 289.585L117.022 289.404L116.282 290.046L117.011 292.72L116.564 293.947L117.257 294.487L117.279 296.1L118.272 297.402L118.722 299.322L117.857 299.24L115.954 295.947L114.08 297.985L113.294 296.63L112.035 296.496L110.904 297.518L111.003 298.407L112.07 299.33L111.673 301.237L112.519 301.834L113.441 301.553L113.914 302.68L114.837 303.364L113.339 304.217L114.26 305.405L114.235 306.695L111.096 308.461L112.909 309.683L113.817 311.381L112.328 311.897L111.601 312.751L110.847 311.986L109.832 312.446L109.161 311.739L107.954 312.057L106.305 311.585L104.72 313.387L106.728 318.435L108.305 319.585L109.224 319.601L110.849 320.612L112.097 320.867L113.142 321.698L112.775 322.55L113.516 323.74L113.721 325.041L114.414 325.679L115.009 327.121L115.583 327.186L116.297 328.559L116.873 330.501L116.664 332.07L118.11 332.548L118.022 333.174L116.28 332.605L114.83 332.5L114.868 331.552L113.926 331.266L112.616 331.579L112.278 332.643L111.371 333.389L109.858 333.651L107.549 332.508L105.101 330.154L103.65 329.859L103.018 331.74L102.152 332.25L99.714 334.61L98.8854 334.913L95.9645 334.652L92.843 333.055L92.2222 331.786L93.7882 331.408L92.7671 329.986L90.6943 330.637L88.8433 329.411L89.1 327.779L88.5415 326.922L87.0372 326.026L86.6135 326.424L87.0071 327.948L85.6702 329.841L84.0342 328.865L81.7624 326.172L80.1888 327.785L80.3381 325.776L79.5933 324.846L80.2385 324.112L78.9423 321.046L78.24 319.925L78.3398 318.633L77.7034 318.34L77.1799 316.266L77.8402 315.325L77.6129 314.133L75.6766 313.344L75.1559 311.695L74.9274 308.15L74.6486 307.441L72.5082 307.904L72.0894 306.713L69.601 304.568L68.7123 304.225L67.5805 302.803L70.3205 302.732L72.0871 301.955L72.2886 299.617L72.0028 298.702L70.7073 298.097L72.2124 296.738L71.3848 295.033L71.8911 293.973L70.0417 293.172L69.9059 291.813L68.6642 290.381L67.8115 288.311L66.6474 288.474L66.3077 287.737L66.4626 285.703L67.0272 285.878L68.1377 284.36L67.1027 281.326L65.9929 280.715L67.7444 279.307L68.7541 278.954L69.6969 276.967L70.8187 276.931L71.2188 276.257L72.9749 276.908L74.2223 276.899L74.904 278.048L75.1238 279.682L72.502 280.344L74.0596 281.562L73.4634 282.3L73.982 283.696L75.069 284.124L78.256 280.669L77.1804 279.512L76.8094 278.166L77.5414 277.208L78.5258 277.173L79.3797 276.403L79.9863 277.082L79.7321 279.746L80.9835 279.531L81.9063 278.457L81.2437 277.657L81.9955 276.401L85.1302 277.774L86.2918 277.96L87.1231 278.678L88.1872 278.246L91.5378 281.632L92.8145 281.806L94.051 282.619L94.5237 283.682L94.2641 284.901L96.4637 285.718L97.5969 286.628L99.0614 286.355L102.624 287.226L103.815 287.814L104.625 289.468L104.2 290.48L104.725 292.101L104.287 293.682L105.44 294.391L112.314 293.877L113.321 293.233L113.451 292.142L115.546 290.474L114.655 289.666L114.533 287.761L115.417 287.475L115.983 286.163L115.127 284.837L116.224 283.585L117.278 285.042L118.506 284.488L119.264 285.023L120.291 284.62L120.646 283.825L122.162 282.834L123.045 283.191L123.1 281.584L125.209 279.361L125.273 280.767L126.332 281.295L127.659 280.838L129.15 281.345L130.848 284.216L134.008 285.585L135.236 285.905L135.691 283.487L134.94 283.233L134.118 282.096L133.111 279.284L133.12 278.137L132.169 277.43L132.098 275.704L130.536 275.346L130.095 274.78L130.487 273.567L131.36 273.126L132.444 271.558L131.069 271.331L128.777 268.751L129.892 267.643L130.3 266.36L133.307 264.126L135.176 264.437L139.016 264.036L139.069 262.738L140.301 261.98L139.891 261.202L135.992 261.742L134.234 261.671L132.011 262.397L129.889 262.748L131.817 263.884L131.543 264.683L128.892 266.243L126.931 266.834L125.58 266.901L124.959 265.78L127.232 264.216L124.282 264.171L123.301 263.184L124.207 261.876L125.232 261.318L124.165 260.453L122.187 260.929L121.24 259.312L122.003 257.781L123.172 256.55L120.684 255.321L119.643 251.838L123.127 250.313L121.896 247.83L123.113 247.169L124.848 247.088ZM22.7622 84.6325L22.4669 85.2224L20.9304 83.7791L22.7622 84.6325ZM21.5027 81.2341L20.2372 81.6762L18.9213 81.2698L18.2401 80.3307L19.0998 79.567L19.3489 77.3078L20.379 76.9574L21.6963 78.2466L21.2594 79.4625L21.759 80.2529L21.5027 81.2341ZM99.5297 30.0898L98.0663 30.2212L97.6069 31.1324L96.3165 30.5528L96.0783 29.3905L97.8186 28.6352L99.5297 30.0898ZM87.6223 27.148L88.6659 27.5308L89.5776 29.597L89.2061 30.5364L90.2421 31.5643L90.1673 32.6084L87.4681 33.9467L86.7261 33.8807L86.1945 34.9918L86.1023 36.4275L85.2382 36.602L83.3878 35.7894L82.9771 37.0629L81.8506 36.7882L81.8748 37.9193L79.4616 37.6452L79.7444 40.5001L78.7538 40.8171L76.6153 40.699L75.0124 39.7917L73.836 39.8035L73.1785 39.0316L70.7951 38.0277L69.9702 36.1698L70.4201 34.4997L71.577 33.8846L71.5243 33.0748L73.1523 32.9552L74.1387 32.1787L71.7453 30.7781L73.3742 30.3423L75.9215 31.8241L77.0652 31.8741L78.9174 30.3953L80.3645 31.8998L80.8254 30.5007L81.569 30.1131L82.3319 28.8299L83.2415 28.1389L85.0896 28.0211L86.3412 28.7209L86.5316 27.6253L87.6223 27.148ZM120.602 24.619L118.966 25.0814L118.293 25.7322L115.973 25.5944L120.357 23.9915L120.602 24.619ZM124.6 23.3068L127.154 25.3597L126.898 26.0987L125.209 24.9009L122.167 23.6208L124.133 23.0685L124.6 23.3068ZM164.873 14.5276L164.82 15.1817L166.894 16.2337L168.025 14.5303L169.805 13.8059L171.262 13.9931L173.022 15.0324L173.648 16.4203L174.272 15.9367L176.173 16.3104L177.707 17.5771L178.845 17.5799L179.801 18.8209L179.831 20.5316L181.274 22.2296L181.456 23.282L180.479 23.9019L178.388 23.1406L177.641 23.9573L174.762 23.4791L172.577 23.8331L170.154 23.3695L169.568 23.7913L167.645 23.5715L163.867 22.2917L164.696 21.4871L166.386 21.2854L167.354 20.038L165.433 20.2963L164.867 19.1564L163.84 19.9714L162.034 20.4362L160.404 21.9074L159.516 21.4428L155.701 22.1672L157.592 23.4013L159.224 23.8876L158.595 26.5893L157.359 25.0878L155.661 25.9051L153.833 26.4227L153.299 25.3279L150.98 26.1414L149.838 25.6989L146.486 25.2659L144.56 25.3634L143.325 25.0399L143.034 23.643L144.589 22.6182L146.475 22.7502L147.016 23.6145L149.76 24.854L150.82 23.8377L150.557 22.5957L151.972 22.173L153.5 22.4243L152.69 20.2878L149.032 20.4959L147.587 20.104L145.42 18.7697L146.323 17.3688L146.049 15.8906L147.817 15.2523L147.538 13.821L148.585 13.4068L149.024 14.811L149.919 15.2756L150.287 14.1178L151.533 14.5906L151.861 16.2634L152.985 15.9258L154.531 17.089L155.835 16.9194L154.416 14.4646L155.39 14.4176L157.9 15.3582L159.185 14.6587L157.683 13.4149L158.535 12.5019L159.714 13.1748L160.858 14.4622L161.749 14.4846L161.097 10.4278L160.125 8.8418L162.869 6.92969L162.309 8.83786L162.692 9.36904L162.177 11.2324L163.778 12.2072L164.873 14.5276Z" stroke="white" stroke-width="5"/>
</svg>
