<svg width="233" height="299" viewBox="0 0 233 299" fill="none" xmlns="http://www.w3.org/2000/svg">
<path d="M65.2667 188.13L66.9393 187.952L67.3623 188.631L65.9358 189.613L64.2608 188.641L65.2667 188.13ZM59.3026 185.094L59.1422 186.04L58.021 186.076L56.9162 186.747L55.9879 185.714L56.3928 184.67L59.3026 185.094ZM226.248 75.7895L226.778 76.6443L226.207 78.5325L225.403 79.2014L224.833 77.8823L223.66 77.5576L222.896 78.3108L221.142 77.1303L222.246 76.8036L224.336 75.5462L226.248 75.7895ZM214.98 70.5822L214.379 71.806L213.109 72.8011L212.228 71.6744L213.569 69.588L214.717 69.1048L216.015 67.6184L216.559 68.1442L215.239 69.2553L214.98 70.5822ZM219.712 66.3499L218.136 67.549L217.593 66.0845L218.562 65.1849L219.712 66.3499ZM224.021 60.8686L223.939 62.4603L225.251 63.1747L224.945 64.3028L226.213 65.9688L225.828 67.0463L227.672 67.7658L228.406 68.8261L229.135 68.8933L229.424 70.1854L227.61 71.1004L227.643 72.0398L226.128 74.1154L224.894 73.9124L223.594 72.8349L221.237 72.8208L221.583 71.7852L223.006 71.3722L223.104 70.6479L221.415 69.2973L221.51 68.3326L222.5 68.2863L222.842 67.3251L221.338 66.52L221.339 65.201L219.779 65.396L219.98 64.4254L219.186 63.5384L220.251 62.6555L220.199 61.0719L218.561 60.8015L219.38 59.0655L219.159 57.3258L219.965 56.8056L222.882 60.1987L224.021 60.8686ZM174.804 41.3881L175.372 42.06L179.099 43.9364L182.323 42.8766L183.442 42.778L185.14 43.721L187.102 43.3888L186.048 45.0996L188.683 45.362L188.744 47.9786L189.93 48.3369L190.034 47.2179L190.829 46.7941L192.359 46.7832L192.94 45.7876L194.941 45.8686L196.02 48.5249L196.558 47.6342L201.132 48.8152L200.227 49.9457L200.838 53.3001L202.506 52.6837L204.94 53.5113L205.619 52.152L206.242 53.7041L207.203 54.0086L208.37 55.108L211.126 54.7452L212.598 56.0441L213.754 56.2994L214.467 57.8882L215.609 57.3876L215.127 56.417L217.868 56.1286L217.817 57.4664L217.237 58.2357L217.397 59.3986L216.161 61.4246L216.249 63.7072L214.896 63.4298L214.788 61.8763L213.281 61.7782L213.113 60.8097L212.033 60.8512L211.911 62.3731L210.642 62.9963L210.814 65.6846L210.624 67.1647L208.647 67.0951L207.649 67.8597L207.075 66.7409L204.699 66.9674L206.368 65.2238L206.778 63.4401L208.064 61.8357L206.62 61.4104L205.723 63.7027L204.692 65.0016L203.734 65.4069L203.055 63.4413L202.461 65.2549L200.809 65.7173L200.297 64.9978L198.843 64.2805L198.96 62.8385L197.048 60.2502L196.393 60.7518L196.133 63.3148L195.04 61.8112L192.275 61.4194L189.315 59.8241L188.139 57.9724L187.254 57.4614L185.071 59.8397L184.07 59.9467L183.524 58.3311L183.661 57.2214L184.357 56.446L182.819 53.9332L182.297 51.105L180.623 50.2284L179.259 48.2036L177.728 48.0718L176.54 46.6979L176.487 45.5808L175.081 44.7139L175.252 43.5736L174.435 43.2504L174.105 41.9177L174.804 41.3881ZM165.239 36.8557L163.988 36.2676L164.918 35.3458L165.239 36.8557ZM142.56 30.5146L143.279 30.6203L143.822 33.0939L141.551 32.5482L141.234 31.1186L142.56 30.5146ZM89.1904 3.38952L92.0704 6.4241L93.9661 6.80446L96.2806 6.59611L97.7084 7.79292L98.7225 7.66134L99.1293 8.78365L99.9818 8.94597L101.096 10.3732L102.723 10.7162L104.381 12.3191L105.745 13.0025L107.954 13.1816L110.889 11.7007L112.53 11.9672L113.904 10.7998L115.493 10.164L116.505 11.5635L116.22 12.421L116.698 15.4106L117.947 16.9674L119.501 17.049L121.476 19.2264L120.928 20.175L121.879 20.8379L122.171 22.0637L121.531 23.6025L122.892 25.5826L123.93 28.5681L125.702 30.263L126.804 32.6177L126.855 34.2928L128.062 34.8731L129.303 34.6845L130.141 32.4065L133.586 32.3238L134.857 33.541L136.105 34.2256L136.858 34.0029L137.418 35.6183L138.525 36.7173L137.901 38.2335L137.871 40.5876L138.137 41.6181L139.74 43.3584L140.966 44.1798L142.702 43.6543L142.736 42.831L142.075 39.0699L141.322 37.6358L141.913 34.9029L142.714 35.3338L144.285 35.1135L144.574 36.1819L146.121 38.7106L146.031 39.5899L147.685 41.3916L148.53 40.4359L148.198 38.6541L147.63 38.0254L148.052 36.5219L146.734 34.7309L148.282 33.9377L149.898 34.165L150.341 32.0753L149.758 29.0428L150.674 27.1504L151.551 27.3401L152.064 28.4569L152.064 29.7386L153.842 30.2702L154.759 31.8315L157.598 34.3345L157.699 35.5987L159.64 35.4106L160.339 36.5948L161.587 36.8651L162.771 36.2098L163.429 37.6477L163.717 39.5602L163.722 43.4031L163.419 44.7377L164.482 47.6217L162.112 49.3329L161.469 50.3046L161.025 52.3455L158.634 55.3754L158.471 57.4603L158.946 58.7163L158.5 59.7614L159.038 61.0848L158.702 61.9381L159.483 62.9526L159.14 64.166L160.204 68.8985L160.279 70.3652L159.818 71.9994L158.97 73.4955L157.002 74.9391L155.938 74.8937L155.889 76.3175L152.416 77.3933L151.256 77.34L149.235 78.5452L149.003 77.0919L147.081 76.4798L146.51 77.7996L147.297 79.7411L147.335 80.8779L146.854 83.087L145.295 84.0573L148.116 85.3831L150.985 84.7615L152.172 83.9257L154.951 84.6414L154.952 85.9692L153.952 87.8453L154.975 88.5792L154.289 90.4627L151.113 92.7793L151.538 94.0827L152.587 93.4323L155.913 92.6819L154.653 95.5875L154.849 96.4964L156.711 94.2432L157.325 92.4209L158.353 91.4784L159.246 91.6744L159.643 92.9973L158.943 94.2079L160.357 95.8328L159.456 99.2105L159.621 101.2L158.479 102.397L156.683 102.844L156.825 104.286L155.688 106.328L155.563 107.861L154.869 109.985L155.052 111.981L154.211 112.651L154.116 114.854L152.376 117.757L152.324 118.474L150.598 120.768L151.13 121.633L150.556 123.065L151.16 123.957L151.539 126.39L150.894 127.531L150.483 129.392L150.559 131.377L151.565 133.43L151.432 134.826L151.669 137.469L152.497 138.834L152.615 140.176L152.164 142.38L152.649 143.556L152.196 148.261L152.319 149.096L153.457 150.116L152.332 150.931L152.829 153.792L153.87 154.278L155.102 154.018L154.975 155.861L155.477 157.352L155.182 159.94L155.404 162.201L154.954 164.696L154.974 168.454L154.557 170.927L155.485 172.812L157.838 174.754L159.602 175.606L161.691 177.021L162.707 177L164.072 178.186L163.274 178.756L163.531 180.101L160.702 181.759L160.207 184.231L160.502 185.033L163.253 188.65L162.247 191.479L161.124 192.865L159.985 194.907L157.116 196.85L154.845 196.675L153.083 198.513L150.069 200.502L149.998 201.645L147.722 204.215L146.519 204.618L145.484 205.547L143.298 206.7L141.918 208.29L140.269 209.33L135.523 214.587L134.932 216.63L134.946 217.761L135.723 218.992L135.444 219.698L135.761 222.887L136.341 224.266L136.304 225.57L135.606 226.375L135.409 228.004L136.212 229.516L135.785 231.401L136.595 233.46L139.474 237.024L140.553 237.53L141.587 238.656L141.658 240.234L140.662 242.051L138.194 243.884L136.417 245.786L136.374 246.975L135.631 247.842L135.398 249.178L134.314 251.602L133.7 253.897L132.737 255.122L131.9 255.254L129.143 254.744L127.444 255.297L124.396 255.781L122.723 256.535L119.928 255.953L117.524 255.981L116.773 256.384L112.601 257.313L110.965 258.4L107.239 259.36L104.48 260.742L103.509 261.707L100.552 268.542L99.8058 269.229L98.84 271.042L96.3957 273.866L97.3253 277.386L97.1347 280.821L96.8289 283.21L97.1017 284.915L96.2513 286.227L96.0266 288.108L95.0714 289.294L93.69 290.052L92.3272 292.162L90.7749 294.354L90.3443 293.769L90.6131 291.855L90.3819 289.77L88.7885 288.003L87.383 288.999L83.812 288.765L83.4364 287.595L82.6772 287.298L83.0206 285.414L82.517 285.093L82.1752 283.191L80.9944 283.102L80.1405 284.4L79.4345 282.976L78.0803 282.758L77.2956 281.996L76.271 282.746L74.9695 281.361L72.9747 281.16L71.7103 281.871L70.11 279.99L69.5001 277.247L68.2875 277.426L67.0581 276.819L65.8388 275.301L64.9742 272.844L62.4923 270.81L60.756 269.468L60.3432 268.62L60.4258 267.054L61.9723 264.515L60.2029 263.289L58.0412 263.191L56.4033 262.386L54.8199 262.163L53.2279 263.056L52.849 264.487L50.8842 264.685L50.1935 263.958L49.0638 264.792L48.9693 263.333L47.8876 263.204L47.5313 261.048L47.9064 258.449L49.4181 256.53L47.0114 256.513L46.3256 257.88L45.6751 258.015L44.4557 255.231L41.4626 254.323L40.6113 252.362L41.1292 251.597L42.3853 251.901L42.0988 249.475L43.5603 247.565L43.0667 246.45L41.4861 246.651L39.3186 245.965L38.0623 247.042L38.2882 248.819L37.5755 249.59L36.5697 249.251L37.1566 246.651L34.3219 248.211L32.4708 245.305L31.5858 246.794L31.5705 249.741L30.5615 249.637L29.8986 248.304L30.6634 247.11L30.8196 245.067L31.2991 243.709L30.3151 240.532L29.6985 240.116L30.6796 237.41L30.209 235.703L30.5143 234.21L29.2277 232.225L27.4332 231.564L25.565 231.453L23.6686 233.323L22.8456 234.896L22.0307 234.05L19.8272 233.841L18.802 232.517L19.7042 231.074L18.727 230.204L19.4606 229.306L19.3819 227.871L20.3006 225.73L20.4573 224.477L22.0614 223.6L22.1735 222.326L22.7899 221.383L22.0354 219.138L23.5772 218.14L24.0884 216.571L24.8987 215.438L24.7373 214.078L25.5868 213.678L26.4714 214.112L27.7462 213.174L30.8377 212.801L32.7278 209.292L33.7886 208.056L35.0474 207.192L35.8231 207.237L36.7733 205.4L39.5001 204.683L40.4225 203.549L41.7385 202.813L42.8317 200.69L43.9401 200.485L45.4719 199.53L45.2019 197.052L47.3181 195.921L48.2665 195.918L48.9273 197.71L48.2375 199.395L47.4621 200.076L47.1157 201.462L47.7969 203.028L49.4729 204.094L50.5197 205.361L51.5445 204.462L50.4373 202.612L50.2776 200.683L51.0966 199.11L51.0504 197.452L51.5406 196.61L52.6947 196.577L53.8634 197.71L54.6272 200.585L56.0862 201.008L56.6438 200.296L56.56 198.775L57.3273 197.69L59.1519 198.545L59.6522 198.324L61.2602 199.306L61.8128 200.846L62.8404 201.092L63.5304 200.091L64.6496 199.86L65.5077 198.225L67.8415 200.076L68.3411 199.729L67.5534 198.021L68.945 196.117L68.7945 194.623L70.0974 193.481L70.1741 192.51L71.0953 191.849L72.1096 190.169L70.7784 188.125L70.2351 186.29L68.7736 185.517L69.368 184.386L70.3825 183.515L71.4628 183.221L71.1879 179.882L71.9095 179.379L72.9856 176.902L73.7309 176.569L75.6966 177.586L76.3994 176.746L77.6842 176.136L78.0292 175.173L77.4843 173.908L78.2695 172.085L77.6919 170.888L77.7114 169.707L79.2272 168.616L79.9734 169.153L80.4609 171.018L81.9224 170.956L82.722 170.367L82.6737 168.197L83.1506 167.758L83.1903 165.427L82.5609 163.184L82.4826 161.586L81.9572 159.033L80.948 157.623L79.2866 157.927L77.996 156.945L78.5553 155.518L79.5473 155.283L80.8784 156.428L81.8507 154.93L81.3784 152.058L82.2721 151.331L81.4567 150.486L80.9601 147.983L79.6256 146.723L78.7752 146.424L80.5782 144.215L80.9041 143.14L81.4664 139.293L79.9831 138.688L79.2892 140.06L78.6496 142.498L76.9434 142.146L76.4038 141.261L76.4997 139.975L75.8673 138.196L73.4936 134.163L71.7052 132.751L70.6758 132.556L69.3273 133.76L69.3963 131.243L68.1997 131.209L67.919 132.422L66.1341 132.022L65.4641 130.76L65.8843 129.524L67.1471 129.294L67.5891 127.908L66.0986 125.623L66.064 123.903L67.3082 123.169L67.2035 122.053L66.3521 121.677L63.5171 121.71L62.9172 121.325L63.2982 120.008L63.0365 118.875L64.1549 115.918L63.9959 115.313L65.1432 114.016L65.2941 112.578L64.5981 111.921L64.2315 109.673L64.3662 106.84L61.381 103.007L60.446 102.832L59.4777 104.121L58.5016 103.479L58.5165 101.491L59.467 99.9208L58.7421 99.1638L57.8571 96.1317L56.2624 94.6378L53.5567 92.5078L49.4564 90.0618L48.1781 89.4506L46.4324 89.5506L45.7898 88.4782L44.2387 89.5295L43.7959 88.0694L42.1301 88.4975L41.5309 87.114L39.7114 86.855L38.3191 87.1832L37.6971 85.7077L36.4181 86.3245L34.7249 85.6163L34.1392 84.7541L32.3777 86.3422L30.3207 84.3989L30.0238 83.0764L28.9558 82.1326L27.7917 82.1397L27.1985 80.9856L24.2804 79.3651L22.8816 77.0295L21.822 76.6783L20.9216 75.6696L19.9159 76.0778L18.7913 75.0473L18.4512 72.9571L16.477 72.2151L15.4049 70.4561L15.53 67.4627L14.095 67.084L13.9504 66.0795L13.0231 65.388L13.3335 63.6031L12.2792 62.1935L11.5465 60.0381L10.6789 58.9845L10.8096 57.1387L10.2294 56.4714L10.2791 55.1934L9.71586 52.3319L9.138 50.938L7.53094 48.8046L5.20462 46.2217L3.62565 45.2938L2.91406 44.1349L3.38095 39.0539L4.10903 37.9042L5.76508 37.4458L7.21658 36.4913L8.46657 34.328L9.31956 32.3053L9.81593 27.3453L10.9494 25.4371L12.679 21.5841L13.464 20.4815L14.4314 20.0322L15.7309 18.74L17.6365 18.7194L19.5221 18.1006L21.5887 16.5669L24.8288 15.4957L28.2242 15.1835L31.726 13.6089L37.1046 13.0674L38.9838 13.4305L40.2328 13.1996L44.9273 13.8433L48.15 13.815L51.3033 13.2248L53.8636 14.2698L56.0423 13.9049L57.8924 12.5544L59.5807 12.86L61.9326 12.253L62.4786 11.3664L65.8335 10.6556L68.7054 9.62251L70.4552 8.30184L71.457 7.9289L74.4014 8.22552L78.4733 7.31126L80.633 7.69677L81.9547 7.29975L84.4809 5.05543L84.3379 4.20249L85.8428 3.20312L86.3879 3.6645L89.1904 3.38952Z" fill="#1E1E1E" stroke="white" stroke-width="5"/>
</svg>
