<svg width="141" height="181" viewBox="0 0 141 181" fill="none" xmlns="http://www.w3.org/2000/svg">
<path d="M58.3234 176.204L59.3187 177.724L58.1347 177.827L56.5086 177.375L56.3143 176.533L55.3185 176.237L56.3131 174.914L58.3234 176.204ZM135.357 116.026L133.826 116.545L132.841 115.875L133.08 114.69L134.621 113.757L135.409 110.82L136.502 110.035L136.093 114.222L135.357 116.026ZM74.5034 27.8413L74.7523 28.6613L77.0115 31.0268L78.3207 33.0418L79.7225 34.3568L80.5456 33.9168L84.292 35.8333L85.3226 35.3635L87.1054 35.772L88.7404 37.4266L89.9669 37.625L92.1757 38.7407L95.0688 38.5346L97.0108 36.9596L98.3586 37.2106L100.172 36.1839L101.368 36.2793L102.973 33.3344L105.576 35.6698L106.728 37.756L108.148 38.4313L109.465 38.342L110.146 39.1285L108.977 39.7254L108.908 40.7374L107.949 42.4459L108.28 43.6815L109.279 44.4707L110.367 46.5965L110.872 48.6318L112.088 49.2283L112.128 50.041L113.761 51.5821L115.589 51.9865L119.021 53.2111L118.707 55.5227L119.98 56.0055L120.186 57.4662L121.326 57.0324L124.051 57.8138L125.262 58.3934L126.126 58.1893L128.115 59.4537L128.58 57.0891L130.197 57.1404L131.27 58.786L130.932 60.179L132.282 59.9878L134.362 61.2104L134.193 62.868L135.932 65.046L135.886 67.0309L135.402 68.1938L134.548 68.2033L134.447 66.8951L132.904 66.6213L131.38 65.6267L129.827 67.6328L129.055 67.8005L128.102 66.8282L126.07 66.8965L124.661 68.8439L123.828 71.4027L123.242 74.5987L123.382 78.5276L124.366 81.9001L125.056 82.3637L126.445 81.9638L128.305 82.3031L128.71 83.5052L133.587 84.4804L135.051 84.0499L133.844 85.9359L132.422 86.4784L132.281 88.1248L133.151 88.819L133.549 90.7192L134.653 93.9585L135.595 95.1425L135.741 96.5541L133.328 97.2823L132.665 98.3521L131.241 99.3237L130.779 100.246L129.337 100.297L128.718 101.047L126.999 101.999L126.101 103.204L125.944 105.869L126.759 110.825L128.248 114.874L127.861 116.616L128.908 117.211L129.254 118.172L128.263 121.03L128.287 123.19L129.61 124.558L132.298 124.799L131.4 125.981L131.073 127.171L129.865 129.477L130.933 131.855L130.549 132.99L131.834 134L134.511 134.353L135.605 135.2L134.662 136.502L133.857 136.858L132.737 138.562L132.336 140.922L132.602 141.919L132.495 144.384L131.634 146.834L129.864 145.689L129.166 144.61L128.823 143.145L128.026 142.941L126.634 140.423L125.835 140.828L124.479 140.653L122.575 141.263L119.194 144.255L118.763 147.227L117.39 147.095L116.172 149.462L114.294 151.28L113.986 150.025L115.268 148.651L115.023 148.082L113.273 148.394L112.375 149.379L109.392 149.74L107.939 148.762L106.887 149.231L106.049 147.874L104.325 148.644L104.144 150.948L104.531 151.949L103.403 153.785L102.457 154.479L100.228 153.72L98.3776 154.554L94.4519 153.393L93.702 154.077L91.9663 152.192L90.9271 152.782L91.4472 153.827L91.2944 155.889L89.8952 156.836L88.2461 156.64L87.7725 158.101L86.6432 158.905L85.3992 158.976L84.383 160.309L82.1963 160.656L80.8002 161.999L80.5258 163.075L79.1672 162.373L80.703 166.074L79.105 167.335L75.9435 167.475L74.5399 166.151L73.6811 168.396L72.9915 167.828L70.8356 167.617L69.9397 170.288L67.2206 170.989L67.6826 166.576L65.9857 162.25L63.966 161.794L63.55 162.432L61.0502 161.693L60.3893 162.627L59.2256 161.887L58.3448 159.749L57.2357 161.581L56.2014 161.204L56.2739 160.112L55.5778 158.777L56.3468 158.396L56.9571 156.85L56.4496 155.33L55.6301 154.386L54.4328 153.82L52.0166 154.255L50.8818 153.555L48.216 155.322L48.4276 153.621L50.0653 152.32L51.0037 150.032L49.5654 145.216L48.7419 144.598L47.5161 142.613L45.2805 141.256L45.2555 140.286L43.552 139.176L42.1878 138.661L41.1735 137.292L40.0445 137.388L38.2203 136.329L35.9128 136.142L36.0851 135.339L34.9277 134.811L31.7635 134.859L28.2002 135.443L27.0645 135.436L23.8928 135.965L17.967 136.649L17.6963 137.34L15.6989 137.007L14.1622 137.273L12.4391 138.641L10.9277 137.825L11.636 135.141L10.7645 133.725L10.6003 131.433L9.88525 130.77L10.0317 129.081L8.8528 128.078L7.44842 128.367L3.75511 128.006L3.61557 126.574L3.99633 124.677L5.12814 124.209L4.99418 122.125L3.57123 119.697L3.82035 117.253L3.03516 113.955L3.10248 111.192L4.28097 108.822L4.35851 107.152L5.26303 105.103L6.06308 104.298L6.4833 102.865L7.3927 102.012L8.95403 99.1317L9.43484 97.4209L10.2997 96.0386L10.3816 94.2026L9.68071 91.6324L9.95188 89.3083L10.6491 88.5401L11.9241 85.893L14.0069 82.5185L14.2152 78.6236L15.4034 77.1976L17.0079 74.5097L17.8203 73.6193L20.9364 68.7754L21.6529 68.1848L24.7809 64.6085L26.1161 62.0423L27.4252 57.7425L27.4786 55.1825L27.2495 50.6127L27.3563 49.5864L28.4178 48.0141L29.5779 47.9128L32.6931 49.5404L35.4903 50.4225L36.5652 50.461L39.175 48.942L41.2197 46.7929L43.3775 41.4266L44.483 39.5488L46.5983 38.1672L48.6667 37.4489L51.2303 37.2577L52.5427 36.6231L53.6281 34.2935L56.2699 32.9303L56.7844 32.2302L58.6211 31.3621L60.2662 29.6488L61.408 27.8232L62.6543 27.5232L66.4196 27.9565L67.3434 27.0592L67.5593 25.7993L68.7484 24.8182L70.1038 24.4934L70.6852 23.3306L71.7378 23.4613L73.1095 24.5013L73.3827 26.3398L74.5034 27.8413ZM97.7542 3.82272L98.7642 3.84222L99.1363 4.76061L101.467 4.95666L101.915 5.80986L103.55 6.89868L103.961 8.31512L103.219 9.32747L100.544 8.55069L99.9654 7.2159L97.9574 7.05967L97.0034 5.77909L95.6538 5.55957L94.854 4.65787L95.1055 3.69012L95.9775 3.44531L97.7542 3.82272Z" fill="#1E1E1E" stroke="white" stroke-width="5"/>
</svg>
